<?xml version="1.0" encoding="UTF-8" standalone="no"?>
<!-- Generator: Adobe Illustrator 12.0.1, SVG Export Plug-In . SVG Version: 6.00 Build 51448)  -->

<svg
   xmlns:dc="http://purl.org/dc/elements/1.1/"
   xmlns:cc="http://creativecommons.org/ns#"
   xmlns:rdf="http://www.w3.org/1999/02/22-rdf-syntax-ns#"
   xmlns:svg="http://www.w3.org/2000/svg"
   xmlns="http://www.w3.org/2000/svg"
   xmlns:sodipodi="http://sodipodi.sourceforge.net/DTD/sodipodi-0.dtd"
   xmlns:inkscape="http://www.inkscape.org/namespaces/inkscape"
   version="1.0"
   id="Layer_1"
   width="430"
   height="420"
   viewBox="0 0 429.109 417.841"
   overflow="visible"
   enable-background="new 0 0 429.109 417.841"
   xml:space="preserve"
   sodipodi:version="0.32"
   inkscape:version="0.47 r22583"
   sodipodi:docname="MAPK-only.svg"
   inkscape:output_extension="org.inkscape.output.svg.inkscape"
   inkscape:export-filename="/home/lenov/SBGN/svn/sbgn/ProcessDiagram/trunk/examples/MAPK-only.png"
   inkscape:export-xdpi="150"
   inkscape:export-ydpi="150"
   style="overflow:visible"><metadata
   id="metadata414"><rdf:RDF><cc:Work
       rdf:about=""><dc:format>image/svg+xml</dc:format><dc:type
         rdf:resource="http://purl.org/dc/dcmitype/StillImage" /><dc:title></dc:title></cc:Work></rdf:RDF></metadata><defs
   id="defs412"><inkscape:perspective
     sodipodi:type="inkscape:persp3d"
     inkscape:vp_x="0 : 208.9205 : 1"
     inkscape:vp_y="0 : 1000 : 0"
     inkscape:vp_z="429.10901 : 208.9205 : 1"
     inkscape:persp3d-origin="214.5545 : 139.28033 : 1"
     id="perspective197" /></defs><sodipodi:namedview
   inkscape:window-height="749"
   inkscape:window-width="1024"
   inkscape:pageshadow="2"
   inkscape:pageopacity="0.0"
   guidetolerance="10.0"
   gridtolerance="10.0"
   objecttolerance="10.0"
   borderopacity="1.0"
   bordercolor="#666666"
   pagecolor="#ffffff"
   id="base"
   inkscape:zoom="0.95952658"
   inkscape:cx="169.88207"
   inkscape:cy="171.34489"
   inkscape:window-x="-5"
   inkscape:window-y="0"
   inkscape:current-layer="Layer_1"
   showgrid="false"
   inkscape:window-maximized="1" />

<polygon
   clip-rule="evenodd"
   points="250.82,94.202 243.801,87.693 251.275,84.627 250.82,94.202 "
   id="polygon5"
   style="fill-rule:evenodd"
   transform="translate(-10.714679,1.3841884e-8)" />
<polygon
   stroke-miterlimit="10"
   points="251.126,94.727 244.108,88.219 251.582,85.153 251.126,94.727 "
   id="polygon7"
   style="fill:none;stroke:#000000;stroke-width:1.60000002;stroke-miterlimit:10"
   transform="translate(-10.714679,1.3841884e-8)" />
<path
   stroke-miterlimit="10"
   d="m 179.9953,62.892 -20.45,35.192 m 62.904,-35.192 19.081,33.682"
   id="path9"
   style="fill:none;stroke:#000000;stroke-width:1.60000002;stroke-miterlimit:10" />
<line
   stroke-miterlimit="10"
   x1="146.40834"
   y1="62.915001"
   x2="254.24237"
   y2="62.915001"
   id="line11"
   style="fill:none;stroke:#000000;stroke-width:1.60000002;stroke-miterlimit:10" />
<path
   d="m 173.8593,114.841 c 0,11.602 -9.417,21.019 -21.019,21.019 -11.602,0 -21.019,-9.417 -21.019,-21.019 0,-11.603 9.417,-21.019 21.019,-21.019 11.603,0 21.019,9.417 21.019,21.019 l 0,0 z"
   id="path13"
   style="fill:#ffffff" />
<path
   stroke-miterlimit="10"
   d="m 173.8593,114.841 c 0,11.602 -9.417,21.019 -21.019,21.019 -11.602,0 -21.019,-9.417 -21.019,-21.019 0,-11.603 9.417,-21.019 21.019,-21.019 11.603,0 21.019,9.417 21.019,21.019 l 0,0 z"
   id="path15"
   style="fill:none;stroke:#000000;stroke-width:1.60000002;stroke-linecap:round;stroke-miterlimit:10" />
<path
   d="m 269.8603,114.841 c 0,11.602 -9.417,21.019 -21.02,21.019 -11.602,0 -21.019,-9.417 -21.019,-21.019 0,-11.603 9.417,-21.019 21.019,-21.019 11.603,0 21.02,9.417 21.02,21.019 l 0,0 z"
   id="path17"
   style="fill:#ffffff" />
<path
   stroke-miterlimit="10"
   d="m 269.8603,114.841 c 0,11.602 -9.417,21.019 -21.02,21.019 -11.602,0 -21.019,-9.417 -21.019,-21.019 0,-11.603 9.417,-21.019 21.019,-21.019 11.603,0 21.02,9.417 21.02,21.019 l 0,0 z"
   id="path19"
   style="fill:none;stroke:#000000;stroke-width:1.60000002;stroke-linecap:round;stroke-miterlimit:10" />
<path
   d="m 242.1003,111.692 -1.284,3.483 2.573,0 -1.289,-3.483 m -0.534,-0.933 1.073,0 2.667,6.999 -0.984,0 -0.637,-1.795 -3.155,0 -0.638,1.795 -0.999,0 2.673,-6.999"
   id="path21" />
<path
   d="m 247.2703,111.537 0,5.442 1.144,0 c 0.966,0 1.672,-0.219 2.119,-0.656 0.45,-0.438 0.675,-1.128 0.675,-2.072 0,-0.938 -0.225,-1.623 -0.675,-2.058 -0.447,-0.438 -1.153,-0.656 -2.119,-0.656 l -1.144,0 m -0.946,-0.778 1.945,0 c 1.356,0 2.352,0.283 2.986,0.849 0.634,0.562 0.952,1.444 0.952,2.644 0,1.207 -0.319,2.092 -0.957,2.658 -0.637,0.565 -1.631,0.848 -2.981,0.848 l -1.945,0 0,-6.999"
   id="path23" />
<path
   d="m 254.6583,111.537 0,2.63 1.191,0 c 0.44,0 0.781,-0.114 1.022,-0.342 0.24,-0.228 0.361,-0.553 0.361,-0.975 0,-0.419 -0.121,-0.742 -0.361,-0.97 -0.241,-0.228 -0.582,-0.342 -1.022,-0.342 l -1.191,0 m -0.947,-0.779 2.138,0 c 0.784,0 1.376,0.178 1.776,0.535 0.403,0.353 0.605,0.872 0.605,1.556 0,0.69 -0.202,1.212 -0.605,1.565 -0.4,0.354 -0.992,0.53 -1.776,0.53 l -1.191,0 0,2.812 -0.947,0 0,-6.998"
   id="path25" />
<path
   d="m 92.05232,47.895 42.97598,0 c 5.078,0 9.167,3.77 9.167,8.452 l 0,13.172 c 0,4.682 -4.088,8.451 -9.167,8.451 l -42.97598,0 c -5.079001,0 -9.167001,-3.769 -9.167001,-8.451 l 0,-13.173 c 0,-4.682 4.088,-8.451 9.167001,-8.451 l 0,0 z"
   id="path27"
   style="fill:#ffffff" />
<path
   stroke-miterlimit="10"
   d="m 92.05232,47.895 42.97598,0 c 5.078,0 9.167,3.77 9.167,8.452 l 0,13.172 c 0,4.682 -4.088,8.451 -9.167,8.451 l -42.97598,0 c -5.079001,0 -9.167001,-3.769 -9.167001,-8.451 l 0,-13.173 c 0,-4.682 4.088,-8.451 9.167001,-8.451 l 0,0 z m 51.76798,15.02 109.834,0"
   id="path29"
   style="fill:none;stroke:#000000;stroke-width:1.5996784;stroke-miterlimit:10;stroke-dasharray:none" />
<polygon
   clip-rule="evenodd"
   points="272.843,63.008 264.158,67.032 264.158,58.953 272.843,63.008 "
   id="polygon31"
   style="fill-rule:evenodd"
   transform="translate(-10.714679,1.3841884e-8)" />
<polygon
   stroke-miterlimit="10"
   points="272.843,63.008 264.158,67.032 264.158,58.953 272.843,63.008 "
   id="polygon33"
   style="fill:none;stroke:#000000;stroke-width:1.60000002;stroke-miterlimit:10"
   transform="translate(-10.714679,1.3841884e-8)" />
<polygon
   points="207.537,67.41 207.537,58.365 207.537,58.365 216.865,58.365 216.865,67.41 "
   id="polygon35"
   style="fill:#ffffff"
   transform="translate(-10.714679,1.3841884e-8)" />
<polygon
   stroke-miterlimit="10"
   points="207.537,67.41 207.537,58.365 207.537,58.365 216.865,58.365 216.865,67.41 "
   id="polygon37"
   style="fill:none;stroke:#000000;stroke-width:1.60000002;stroke-linecap:round;stroke-miterlimit:10"
   transform="translate(-10.714679,1.3841884e-8)" />
<line
   stroke-miterlimit="10"
   x1="201.53433"
   y1="6.4400001"
   x2="201.53433"
   y2="46.651001"
   id="line39"
   style="fill:none;stroke:#000000;stroke-width:1.60000002;stroke-miterlimit:10" />
<path
   clip-rule="evenodd"
   d="m 206.2923,50.801 c 0,2.689 -2.183,4.873 -4.873,4.873 -2.69,0 -4.872,-2.183 -4.872,-4.873 0,-2.69 2.183,-4.873 4.872,-4.873 2.689,0 4.873,2.183 4.873,4.873 l 0,0 z"
   id="path41"
   style="fill:#ffffff;fill-rule:evenodd" />
<path
   stroke-miterlimit="10"
   d="m 206.2923,50.801 c 0,2.689 -2.183,4.873 -4.873,4.873 -2.69,0 -4.872,-2.183 -4.872,-4.873 0,-2.69 2.183,-4.873 4.872,-4.873 2.689,0 4.873,2.183 4.873,4.873 l 0,0 z"
   id="path43"
   style="fill:none;stroke:#000000;stroke-width:1.60000002;stroke-miterlimit:10" />
<path
   d="m 108.4263,63.466 c 0.203,0.069 0.4,0.215 0.59,0.44 0.194,0.225 0.388,0.535 0.582,0.928 l 0.961,1.913 -1.017,0 -0.896,-1.795 c -0.231,-0.469 -0.456,-0.78 -0.675,-0.933 -0.216,-0.153 -0.511,-0.23 -0.886,-0.23 l -1.031,0 0,2.958 -0.947,0 0,-6.999 2.138,0 c 0.8,0 1.396,0.167 1.791,0.501 0.394,0.334 0.59,0.839 0.59,1.514 0,0.44 -0.103,0.806 -0.309,1.097 -0.204,0.292 -0.501,0.494 -0.891,0.606 m -2.372,-2.939 0,2.484 1.191,0 c 0.456,0 0.8,-0.105 1.031,-0.314 0.234,-0.212 0.352,-0.523 0.352,-0.933 0,-0.41 -0.117,-0.717 -0.352,-0.923 -0.231,-0.209 -0.575,-0.314 -1.031,-0.314 l -1.191,0"
   id="path45" />
<path
   d="m 113.7273,60.682 -1.284,3.483 2.573,0 -1.289,-3.483 m -0.534,-0.933 1.073,0 2.667,6.999 -0.984,0 -0.638,-1.795 -3.155,0 -0.637,1.795 -0.999,0 2.673,-6.999"
   id="path47" />
<polyline
   points="128.666,59.749 132.688,59.749 132.688,60.546 129.612,60.546 129.612,62.608 132.387,62.608 132.387,63.405   129.612,63.405 129.612,66.748 128.666,66.748 128.666,59.749 "
   id="polyline49"
   transform="translate(-10.714679,1.3841884e-8)" />
<path
   d="m 173.1153,120.872 c -2.536,8.759 -10.621,15.169 -20.193,15.169 -9.573,0 -17.658,-6.41 -20.193,-15.169"
   id="path51" />
<path
   stroke-miterlimit="10"
   d="m 173.1153,120.872 c -2.536,8.759 -10.621,15.169 -20.193,15.169 -9.573,0 -17.658,-6.41 -20.193,-15.169"
   id="path53"
   style="fill:none;stroke:#000000;stroke-width:1.60000002;stroke-linecap:round;stroke-miterlimit:10" />
<path
   d="m 269.1153,120.872 c -2.536,8.759 -10.621,15.169 -20.194,15.169 -9.572,0 -17.657,-6.41 -20.193,-15.169"
   id="path55" />
<path
   stroke-miterlimit="10"
   d="m 269.1153,120.872 c -2.536,8.759 -10.621,15.169 -20.194,15.169 -9.572,0 -17.657,-6.41 -20.193,-15.169"
   id="path57"
   style="fill:none;stroke:#000000;stroke-width:1.60000002;stroke-linecap:round;stroke-miterlimit:10" />
<path
   d="m 179.7703,0.80000001 42.976,0 c 5.079,0 9.167,3.76899999 9.167,8.45099999 l 0,13.172 c 0,4.682 -4.088,8.451 -9.167,8.451 l -42.976,0 c -5.078,0 -9.167,-3.769 -9.167,-8.451 l 0,-13.172 c 0,-4.682 4.089,-8.45099999 9.167,-8.45099999 l 0,0 z"
   id="path59"
   style="fill:#ffffff" />
<path
   stroke-miterlimit="10"
   d="m 179.7703,0.80000001 42.976,0 c 5.079,0 9.167,3.76899999 9.167,8.45099999 l 0,13.172 c 0,4.682 -4.088,8.451 -9.167,8.451 l -42.976,0 c -5.078,0 -9.167,-3.769 -9.167,-8.451 l 0,-13.172 c 0,-4.682 4.089,-8.45099999 9.167,-8.45099999 l 0,0 z"
   id="path61"
   style="fill:none;stroke:#000000;stroke-width:1.60000002;stroke-miterlimit:10" />
<path
   d="m 195.6843,16.371 c 0.203,0.069 0.4,0.216 0.59,0.44 0.194,0.225 0.388,0.535 0.582,0.928 l 0.961,1.913 -1.017,0 -0.896,-1.795 c -0.231,-0.469 -0.456,-0.78 -0.675,-0.933 -0.216,-0.153 -0.511,-0.23 -0.886,-0.23 l -1.031,0 0,2.958 -0.947,0 0,-6.999 2.138,0 c 0.8,0 1.396,0.167 1.791,0.501 0.394,0.334 0.59,0.839 0.59,1.514 0,0.441 -0.103,0.806 -0.309,1.097 -0.203,0.292 -0.5,0.494 -0.891,0.606 m -2.372,-2.939 0,2.484 1.191,0 c 0.456,0 0.8,-0.105 1.031,-0.314 0.234,-0.213 0.352,-0.523 0.352,-0.933 0,-0.409 -0.117,-0.717 -0.352,-0.923 -0.231,-0.209 -0.575,-0.314 -1.031,-0.314 l -1.191,0"
   id="path63" />
<path
   d="m 200.9863,13.587 -1.284,3.482 2.573,0 -1.289,-3.482 m -0.534,-0.933 1.073,0 2.667,6.999 -0.984,0 -0.638,-1.795 -3.155,0 -0.637,1.795 -0.999,0 2.673,-6.999"
   id="path65" />
<path
   d="m 209.4053,12.884 0,0.923 c -0.359,-0.172 -0.699,-0.3 -1.017,-0.384 -0.319,-0.084 -0.626,-0.127 -0.924,-0.127 -0.516,0 -0.914,0.1 -1.195,0.3 -0.278,0.2 -0.417,0.484 -0.417,0.853 0,0.31 0.092,0.544 0.276,0.703 0.188,0.156 0.541,0.283 1.06,0.38 l 0.572,0.117 c 0.707,0.134 1.227,0.372 1.561,0.712 0.337,0.337 0.506,0.791 0.506,1.359 0,0.678 -0.228,1.192 -0.685,1.542 -0.453,0.35 -1.119,0.525 -1.997,0.525 -0.332,0 -0.685,-0.037 -1.06,-0.112 -0.372,-0.075 -0.758,-0.186 -1.158,-0.333 l 0,-0.975 c 0.384,0.215 0.761,0.378 1.129,0.487 0.369,0.109 0.731,0.164 1.088,0.164 0.541,0 0.958,-0.106 1.251,-0.319 0.293,-0.213 0.44,-0.516 0.44,-0.909 0,-0.344 -0.106,-0.613 -0.319,-0.806 -0.209,-0.194 -0.554,-0.339 -1.036,-0.436 l -0.577,-0.113 c -0.706,-0.141 -1.217,-0.361 -1.533,-0.661 -0.315,-0.3 -0.474,-0.717 -0.474,-1.251 0,-0.619 0.217,-1.106 0.652,-1.463 0.438,-0.356 1.039,-0.534 1.805,-0.534 0.328,0 0.663,0.03 1.003,0.089 0.344,0.061 0.692,0.15 1.049,0.269"
   id="path67" />
<path
   d="m 146.7243,111.692 -1.284,3.483 2.573,0 -1.289,-3.483 m -0.534,-0.933 1.073,0 2.667,6.999 -0.984,0 -0.638,-1.795 -3.155,0 -0.637,1.795 -0.999,0 2.673,-6.999"
   id="path69" />
<polyline
   points="159.942,110.759 165.862,110.759 165.862,111.556 163.378,111.556 163.378,117.757 162.427,117.757   162.427,111.556 159.942,111.556 159.942,110.759 "
   id="polyline71"
   transform="translate(-10.714679,1.3841884e-8)" />
<path
   d="m 157.0133,111.537 0,2.63 1.191,0 c 0.44,0 0.781,-0.114 1.021,-0.342 0.241,-0.228 0.361,-0.553 0.361,-0.975 0,-0.419 -0.121,-0.742 -0.361,-0.97 -0.24,-0.228 -0.581,-0.342 -1.021,-0.342 l -1.191,0 m -0.947,-0.779 2.138,0 c 0.784,0 1.376,0.178 1.776,0.535 0.403,0.353 0.604,0.872 0.604,1.556 0,0.69 -0.201,1.212 -0.604,1.565 -0.4,0.354 -0.992,0.53 -1.776,0.53 l -1.191,0 0,2.812 -0.947,0 0,-6.998"
   id="path73" />
<path
   d="m 119.8133,77.372 c 0,3.462 -2.811,6.273 -6.273,6.273 -3.462,0 -6.273,-2.811 -6.273,-6.273 0,-3.463 2.811,-6.273 6.273,-6.273 3.462,0 6.273,2.81 6.273,6.273 l 0,0 z"
   id="path75"
   style="fill:#ffffff" />
<path
   stroke-miterlimit="10"
   d="m 119.8133,77.372 c 0,3.462 -2.811,6.273 -6.273,6.273 -3.462,0 -6.273,-2.811 -6.273,-6.273 0,-3.463 2.811,-6.273 6.273,-6.273 3.462,0 6.273,2.81 6.273,6.273 l 0,0 z"
   id="path77"
   style="fill:none;stroke:#000000;stroke-width:1.60000002;stroke-linecap:round;stroke-miterlimit:10" />
<path
   d="m 272.8523,47.895 42.976,0 c 5.078,0 9.167,3.77 9.167,8.452 l 0,13.172 c 0,4.682 -4.089,8.451 -9.167,8.451 l -42.976,0 c -5.079,0 -9.167,-3.769 -9.167,-8.451 l 0,-13.173 c 0,-4.682 4.088,-8.451 9.167,-8.451 l 0,0 z"
   id="path79"
   style="fill:#ffffff" />
<path
   stroke-miterlimit="10"
   d="m 272.8523,47.895 42.976,0 c 5.078,0 9.167,3.77 9.167,8.452 l 0,13.172 c 0,4.682 -4.089,8.451 -9.167,8.451 l -42.976,0 c -5.079,0 -9.167,-3.769 -9.167,-8.451 l 0,-13.173 c 0,-4.682 4.088,-8.451 9.167,-8.451 l 0,0 z"
   id="path81"
   style="fill:none;stroke:#000000;stroke-width:1.60000002;stroke-miterlimit:10" />
<path
   d="m 289.2263,63.466 c 0.203,0.069 0.399,0.215 0.59,0.44 0.194,0.225 0.388,0.535 0.582,0.928 l 0.961,1.913 -1.018,0 -0.896,-1.795 c -0.231,-0.469 -0.456,-0.78 -0.675,-0.933 -0.216,-0.153 -0.511,-0.23 -0.886,-0.23 l -1.031,0 0,2.958 -0.947,0 0,-6.999 2.138,0 c 0.8,0 1.396,0.167 1.791,0.501 0.394,0.334 0.59,0.839 0.59,1.514 0,0.44 -0.103,0.806 -0.309,1.097 -0.202,0.292 -0.499,0.494 -0.89,0.606 m -2.372,-2.939 0,2.484 1.19,0 c 0.456,0 0.8,-0.105 1.031,-0.314 0.234,-0.212 0.352,-0.523 0.352,-0.933 0,-0.41 -0.117,-0.717 -0.352,-0.923 -0.231,-0.209 -0.575,-0.314 -1.031,-0.314 l -1.19,0"
   id="path83" />
<path
   d="m 294.5273,60.682 -1.284,3.483 2.573,0 -1.289,-3.483 m -0.534,-0.933 1.073,0 2.668,6.999 -0.984,0 -0.638,-1.795 -3.155,0 -0.637,1.795 -0.999,0 2.672,-6.999"
   id="path85" />
<polyline
   points="309.466,59.749 313.488,59.749 313.488,60.546 310.413,60.546 310.413,62.608 313.188,62.608 313.188,63.405   310.413,63.405 310.413,66.748 309.466,66.748 309.466,59.749 "
   id="polyline87"
   transform="translate(-10.714679,1.3841884e-8)" />
<path
   d="m 300.6133,77.372 c 0,3.462 -2.811,6.273 -6.273,6.273 -3.462,0 -6.272,-2.811 -6.272,-6.273 0,-3.463 2.811,-6.273 6.272,-6.273 3.463,0 6.273,2.81 6.273,6.273 l 0,0 z"
   id="path89"
   style="fill:#ffffff" />
<path
   stroke-miterlimit="10"
   d="m 300.6133,77.372 c 0,3.462 -2.811,6.273 -6.273,6.273 -3.462,0 -6.272,-2.811 -6.272,-6.273 0,-3.463 2.811,-6.273 6.272,-6.273 3.463,0 6.273,2.81 6.273,6.273 l 0,0 z"
   id="path91"
   style="fill:none;stroke:#000000;stroke-width:1.60000002;stroke-linecap:round;stroke-miterlimit:10" />
<path
   d="m 293.3123,75.235 0,2.191 0.992,0 c 0.367,0 0.651,-0.095 0.852,-0.285 0.201,-0.19 0.301,-0.461 0.301,-0.812 0,-0.349 -0.1,-0.619 -0.301,-0.809 -0.2,-0.19 -0.484,-0.285 -0.852,-0.285 l -0.992,0 m -0.789,-0.649 1.781,0 c 0.654,0 1.147,0.148 1.48,0.445 0.336,0.294 0.504,0.727 0.504,1.297 0,0.576 -0.168,1.01 -0.504,1.305 -0.333,0.294 -0.826,0.441 -1.48,0.441 l -0.992,0 0,2.344 -0.789,0 0,-5.832"
   id="path93" />
<line
   stroke-miterlimit="10"
   x1="62.323006"
   y1="194.314"
   x2="170.321"
   y2="194.314"
   id="line95"
   style="fill:none;stroke:#000000;stroke-width:1.60000002;stroke-miterlimit:10" />
<path
   d="M 91.774005,249.241 C 91.774005,260.844 82.357005,270.26 70.755005,270.26 C 59.153005,270.26 49.736005,260.844 49.736005,249.241 C 49.736005,237.638 59.153005,228.222 70.755005,228.222 C 82.357005,228.222 91.774005,237.639 91.774005,249.241 L 91.774005,249.241 z"
   id="path97"
   style="fill:#ffffff" />
<path
   stroke-miterlimit="10"
   d="M 91.774005,249.241 C 91.774005,260.844 82.357005,270.26 70.755005,270.26 C 59.153005,270.26 49.736005,260.844 49.736005,249.241 C 49.736005,237.638 59.153005,228.222 70.755005,228.222 C 82.357005,228.222 91.774005,237.639 91.774005,249.241 L 91.774005,249.241 z"
   id="path99"
   style="fill:none;stroke:#000000;stroke-width:1.60000002;stroke-linecap:round;stroke-miterlimit:10" />
<path
   d="M 187.77401,249.241 C 187.77401,260.844 178.35701,270.26 166.75501,270.26 C 155.15301,270.26 145.73601,260.844 145.73601,249.241 C 145.73601,237.638 155.15301,228.222 166.75501,228.222 C 178.35701,228.222 187.77401,237.639 187.77401,249.241 L 187.77401,249.241 z"
   id="path101"
   style="fill:#ffffff" />
<path
   stroke-miterlimit="10"
   d="M 187.77401,249.241 C 187.77401,260.844 178.35701,270.26 166.75501,270.26 C 155.15301,270.26 145.73601,260.844 145.73601,249.241 C 145.73601,237.638 155.15301,228.222 166.75501,228.222 C 178.35701,228.222 187.77401,237.639 187.77401,249.241 L 187.77401,249.241 z"
   id="path103"
   style="fill:none;stroke:#000000;stroke-width:1.60000002;stroke-linecap:round;stroke-miterlimit:10" />
<path
   d="M 160.01501,246.092 L 158.73001,249.574 L 161.30401,249.574 L 160.01501,246.092 M 159.48001,245.159 L 160.55401,245.159 L 163.22101,252.157 L 162.23701,252.157 L 161.59901,250.362 L 158.44501,250.362 L 157.80701,252.157 L 156.80801,252.157 L 159.48001,245.159"
   id="path105" />
<path
   d="M 165.18501,245.938 L 165.18501,251.379 L 166.32901,251.379 C 167.29401,251.379 168.00101,251.16 168.44801,250.723 C 168.89801,250.286 169.12301,249.595 169.12301,248.652 C 169.12301,247.714 168.89801,247.029 168.44801,246.594 C 168.00101,246.156 167.29501,245.938 166.32901,245.938 L 165.18501,245.938 M 164.23801,245.159 L 166.18301,245.159 C 167.53901,245.159 168.53501,245.441 169.16901,246.008 C 169.80401,246.57 170.12101,247.451 170.12101,248.652 C 170.12101,249.858 169.80201,250.744 169.16501,251.309 C 168.52701,251.875 167.53401,252.158 166.18401,252.158 L 164.23901,252.158 L 164.23901,245.159"
   id="path107" />
<path
   d="M 172.57301,245.938 L 172.57301,248.567 L 173.76301,248.567 C 174.20401,248.567 174.54401,248.454 174.78501,248.225 C 175.02601,247.996 175.14601,247.672 175.14601,247.25 C 175.14601,246.831 175.02601,246.508 174.78501,246.279 C 174.54401,246.05 174.20401,245.937 173.76301,245.937 L 172.57301,245.937 M 171.62601,245.159 L 173.76301,245.159 C 174.54801,245.159 175.14001,245.337 175.54001,245.693 C 175.94301,246.047 176.14401,246.565 176.14401,247.25 C 176.14401,247.94 175.94201,248.462 175.54001,248.815 C 175.14001,249.168 174.54801,249.344 173.76301,249.344 L 172.57301,249.344 L 172.57301,252.156 L 171.62601,252.156 L 171.62601,245.159"
   id="path109" />
<path
   stroke-miterlimit="10"
   d="M 97.910005,194.291 L 78.504005,228.979 M 139.62901,194.291 L 158.34301,227.605"
   id="path111"
   style="fill:none;stroke:#000000;stroke-width:1.60000002;stroke-miterlimit:10" />
<path
   d="M 9.9660056,179.295 L 52.942005,179.295 C 58.021005,179.295 62.109005,183.064 62.109005,187.746 L 62.109005,200.918 C 62.109005,205.6 58.021005,209.369 52.942005,209.369 L 9.9660056,209.369 C 4.8880056,209.369 0.79900555,205.599 0.79900555,200.918 L 0.79900555,187.746 C 0.80000555,183.064 4.8880056,179.295 9.9660056,179.295 L 9.9660056,179.295 z"
   id="path113"
   style="fill:#ffffff" />
<path
   stroke-miterlimit="10"
   d="M 9.9660056,179.295 L 52.942005,179.295 C 58.021005,179.295 62.109005,183.064 62.109005,187.746 L 62.109005,200.918 C 62.109005,205.6 58.021005,209.369 52.942005,209.369 L 9.9660056,209.369 C 4.8880056,209.369 0.79900555,205.599 0.79900555,200.918 L 0.79900555,187.746 C 0.80000555,183.064 4.8880056,179.295 9.9660056,179.295 L 9.9660056,179.295 z"
   id="path115"
   style="fill:none;stroke:#000000;stroke-width:1.60000002;stroke-miterlimit:10" />
<polygon
   clip-rule="evenodd"
   points="178.208,194.408 169.523,198.432 169.523,190.353 178.208,194.408 "
   id="polygon117"
   style="fill-rule:evenodd"
   transform="translate(5.5536396e-6,1.3841884e-8)" />
<polygon
   stroke-miterlimit="10"
   points="178.208,194.408 169.523,198.432 169.523,190.353 178.208,194.408 "
   id="polygon119"
   style="fill:none;stroke:#000000;stroke-width:1.60000002;stroke-miterlimit:10"
   transform="translate(5.5536396e-6,1.3841884e-8)" />
<polygon
   points="114.737,189.765 124.064,189.765 124.064,198.81 114.737,198.81 114.737,189.765 "
   id="polygon121"
   style="fill:#ffffff"
   transform="translate(5.5536396e-6,1.3841884e-8)" />
<polygon
   stroke-miterlimit="10"
   points="114.737,189.765 124.064,189.765 124.064,198.81 114.737,198.81 114.737,189.765 "
   id="polygon123"
   style="fill:none;stroke:#000000;stroke-width:1.60000002;stroke-linecap:round;stroke-miterlimit:10"
   transform="translate(5.5536396e-6,1.3841884e-8)" />
<path
   clip-rule="evenodd"
   d="M 124.20701,182.201 C 124.20701,184.89 122.02401,187.074 119.33401,187.074 C 116.64401,187.074 114.46101,184.891 114.46101,182.201 C 114.46101,179.511 116.64401,177.328 119.33401,177.328 C 122.02401,177.328 124.20701,179.511 124.20701,182.201 L 124.20701,182.201 z"
   id="path125"
   style="fill:#ffffff;fill-rule:evenodd" />
<path
   stroke-miterlimit="10"
   d="M 124.20701,182.201 C 124.20701,184.89 122.02401,187.074 119.33401,187.074 C 116.64401,187.074 114.46101,184.891 114.46101,182.201 C 114.46101,179.511 116.64401,177.328 119.33401,177.328 C 122.02401,177.328 124.20701,179.511 124.20701,182.201 L 124.20701,182.201 z"
   id="path127"
   style="fill:none;stroke:#000000;stroke-width:1.60000002;stroke-miterlimit:10" />
<polyline
   points="21.878,191.149 23.289,191.149 25.075,195.911 26.87,191.149 28.281,191.149 28.281,198.147 27.358,198.147   27.358,192.002 25.553,196.802 24.602,196.802 22.797,192.002 22.797,198.147 21.878,198.147 21.878,191.149 "
   id="polyline129"
   transform="translate(5.5536396e-6,1.3841884e-8)" />
<polyline
   points="30.166,191.149 34.59,191.149 34.59,191.946 31.112,191.946 31.112,194.018 34.445,194.018 34.445,194.814   31.112,194.814 31.112,197.351 34.675,197.351 34.675,198.147 30.166,198.147 30.166,191.149 "
   id="polyline131"
   transform="translate(5.5536396e-6,1.3841884e-8)" />
<polyline
   points="36.241,191.149 37.188,191.149 37.188,194.106 40.328,191.149 41.547,191.149 38.073,194.411 41.795,198.147   40.548,198.147 37.188,194.777 37.188,198.147 36.241,198.147 36.241,191.149 "
   id="polyline133"
   transform="translate(5.5536396e-6,1.3841884e-8)" />
<path
   d="M 91.029005,255.272 C 88.493005,264.031 80.409005,270.441 70.836005,270.441 C 61.263005,270.441 53.179005,264.031 50.643005,255.272"
   id="path135" />
<path
   stroke-miterlimit="10"
   d="M 91.029005,255.272 C 88.493005,264.031 80.409005,270.441 70.836005,270.441 C 61.263005,270.441 53.179005,264.031 50.643005,255.272"
   id="path137"
   style="fill:none;stroke:#000000;stroke-width:1.60000002;stroke-linecap:round;stroke-miterlimit:10" />
<path
   d="M 187.02901,255.272 C 184.49301,264.031 176.40901,270.441 166.83601,270.441 C 157.26301,270.441 149.17901,264.031 146.64301,255.272"
   id="path139" />
<path
   stroke-miterlimit="10"
   d="M 187.02901,255.272 C 184.49301,264.031 176.40901,270.441 166.83601,270.441 C 157.26301,270.441 149.17901,264.031 146.64301,255.272"
   id="path141"
   style="fill:none;stroke:#000000;stroke-width:1.60000002;stroke-linecap:round;stroke-miterlimit:10" />
<path
   d="M 64.639005,246.092 L 63.354005,249.574 L 65.928005,249.574 L 64.639005,246.092 M 64.104005,245.159 L 65.178005,245.159 L 67.845005,252.157 L 66.861005,252.157 L 66.224005,250.362 L 63.069005,250.362 L 62.431005,252.157 L 61.432005,252.157 L 64.104005,245.159"
   id="path143" />
<polyline
   points="67.142,245.159 73.062,245.159 73.062,245.956 70.578,245.956 70.578,252.157 69.626,252.157 69.626,245.956   67.142,245.956 67.142,245.159 "
   id="polyline145"
   transform="translate(5.5536396e-6,1.3841884e-8)" />
<path
   d="M 74.928005,245.938 L 74.928005,248.567 L 76.118005,248.567 C 76.559005,248.567 76.899005,248.454 77.140005,248.225 C 77.381005,247.996 77.501005,247.672 77.501005,247.25 C 77.501005,246.831 77.381005,246.508 77.140005,246.279 C 76.899005,246.05 76.559005,245.937 76.118005,245.937 L 74.928005,245.937 M 73.981005,245.159 L 76.118005,245.159 C 76.902005,245.159 77.494005,245.337 77.895005,245.693 C 78.298005,246.047 78.499005,246.565 78.499005,247.25 C 78.499005,247.94 78.297005,248.462 77.895005,248.815 C 77.495005,249.168 76.902005,249.344 76.118005,249.344 L 74.928005,249.344 L 74.928005,252.156 L 73.981005,252.156 L 73.981005,245.159"
   id="path147" />
<path
   d="M 26.528005,208.772 C 26.528005,212.234 23.717005,215.044 20.255005,215.044 C 16.793005,215.044 13.982005,212.233 13.982005,208.772 C 13.982005,205.309 16.793005,202.499 20.255005,202.499 C 23.717005,202.499 26.528005,205.31 26.528005,208.772 L 26.528005,208.772 z"
   id="path149"
   style="fill:#ffffff" />
<path
   stroke-miterlimit="10"
   d="M 26.528005,208.772 C 26.528005,212.234 23.717005,215.044 20.255005,215.044 C 16.793005,215.044 13.982005,212.233 13.982005,208.772 C 13.982005,205.309 16.793005,202.499 20.255005,202.499 C 23.717005,202.499 26.528005,205.31 26.528005,208.772 L 26.528005,208.772 z"
   id="path151"
   style="fill:none;stroke:#000000;stroke-width:1.60000002;stroke-linecap:round;stroke-miterlimit:10" />
<path
   d="M 190.76701,179.295 L 233.74301,179.295 C 238.82101,179.295 242.91001,183.064 242.91001,187.746 L 242.91001,200.918 C 242.91001,205.6 238.82201,209.369 233.74301,209.369 L 190.76701,209.369 C 185.68801,209.369 181.60001,205.599 181.60001,200.918 L 181.60001,187.746 C 181.60001,183.064 185.68801,179.295 190.76701,179.295 L 190.76701,179.295 z"
   id="path153"
   style="fill:#ffffff" />
<path
   stroke-miterlimit="10"
   d="M 190.76701,179.295 L 233.74301,179.295 C 238.82101,179.295 242.91001,183.064 242.91001,187.746 L 242.91001,200.918 C 242.91001,205.6 238.82201,209.369 233.74301,209.369 L 190.76701,209.369 C 185.68801,209.369 181.60001,205.599 181.60001,200.918 L 181.60001,187.746 C 181.60001,183.064 185.68801,179.295 190.76701,179.295 L 190.76701,179.295 z"
   id="path155"
   style="fill:none;stroke:#000000;stroke-width:1.60000002;stroke-miterlimit:10" />
<polyline
   points="202.678,191.149 204.089,191.149 205.875,195.911 207.67,191.149 209.081,191.149 209.081,198.147   208.158,198.147 208.158,192.002 206.353,196.802 205.401,196.802 203.597,192.002 203.597,198.147 202.678,198.147   202.678,191.149 "
   id="polyline157"
   transform="translate(5.5536396e-6,1.3841884e-8)" />
<polyline
   points="210.965,191.149 215.391,191.149 215.391,191.946 211.913,191.946 211.913,194.018 215.245,194.018   215.245,194.814 211.913,194.814 211.913,197.351 215.475,197.351 215.475,198.147 210.965,198.147 210.965,191.149 "
   id="polyline159"
   transform="translate(5.5536396e-6,1.3841884e-8)" />
<polyline
   points="217.041,191.149 217.987,191.149 217.987,194.106 221.128,191.149 222.347,191.149 218.874,194.411   222.595,198.147 221.348,198.147 217.987,194.777 217.987,198.147 217.041,198.147 217.041,191.149 "
   id="polyline161"
   transform="translate(5.5536396e-6,1.3841884e-8)" />
<path
   d="M 207.32801,208.772 C 207.32801,212.234 204.51701,215.044 201.05501,215.044 C 197.59201,215.044 194.78201,212.233 194.78201,208.772 C 194.78201,205.309 197.59201,202.499 201.05501,202.499 C 204.51701,202.499 207.32801,205.31 207.32801,208.772 L 207.32801,208.772 z"
   id="path163"
   style="fill:#ffffff" />
<path
   stroke-miterlimit="10"
   d="M 207.32801,208.772 C 207.32801,212.234 204.51701,215.044 201.05501,215.044 C 197.59201,215.044 194.78201,212.233 194.78201,208.772 C 194.78201,205.309 197.59201,202.499 201.05501,202.499 C 204.51701,202.499 207.32801,205.31 207.32801,208.772 L 207.32801,208.772 z"
   id="path165"
   style="fill:none;stroke:#000000;stroke-width:1.60000002;stroke-linecap:round;stroke-miterlimit:10" />
<path
   d="M 200.02701,206.635 L 200.02701,208.826 L 201.01901,208.826 C 201.38601,208.826 201.67001,208.731 201.87101,208.541 C 202.07101,208.351 202.17201,208.08 202.17201,207.729 C 202.17201,207.38 202.07101,207.111 201.87101,206.92 C 201.67001,206.731 201.38701,206.635 201.01901,206.635 L 200.02701,206.635 M 199.23801,205.986 L 201.01901,205.986 C 201.67201,205.986 202.16601,206.134 202.49901,206.431 C 202.83501,206.725 203.00301,207.158 203.00301,207.728 C 203.00301,208.304 202.83501,208.739 202.49901,209.033 C 202.16601,209.327 201.67201,209.474 201.01901,209.474 L 200.02701,209.474 L 200.02701,211.818 L 199.23801,211.818 L 199.23801,205.986"
   id="path167" />
<line
   stroke-miterlimit="10"
   x1="243.666"
   y1="194.53101"
   x2="355.72202"
   y2="194.314"
   id="line169"
   style="fill:none;stroke:#000000;stroke-width:1.60000002;stroke-miterlimit:10" />
<path
   d="M 277.17501,249.241 C 277.17501,260.844 267.75801,270.26 256.15501,270.26 C 244.55301,270.26 235.13601,260.844 235.13601,249.241 C 235.13601,237.638 244.55301,228.222 256.15501,228.222 C 267.75801,228.223 277.17501,237.639 277.17501,249.241 L 277.17501,249.241 z"
   id="path171"
   style="fill:#ffffff" />
<path
   stroke-miterlimit="10"
   d="M 277.17501,249.241 C 277.17501,260.844 267.75801,270.26 256.15501,270.26 C 244.55301,270.26 235.13601,260.844 235.13601,249.241 C 235.13601,237.638 244.55301,228.222 256.15501,228.222 C 267.75801,228.223 277.17501,237.639 277.17501,249.241 L 277.17501,249.241 z"
   id="path173"
   style="fill:none;stroke:#000000;stroke-width:1.60000002;stroke-linecap:round;stroke-miterlimit:10" />
<path
   d="M 373.17501,249.241 C 373.17501,260.844 363.75901,270.26 352.15601,270.26 C 340.55301,270.26 331.13601,260.844 331.13601,249.241 C 331.13601,237.638 340.55301,228.222 352.15601,228.222 C 363.75901,228.222 373.17501,237.639 373.17501,249.241 L 373.17501,249.241 z"
   id="path175"
   style="fill:#ffffff" />
<path
   stroke-miterlimit="10"
   d="M 373.17501,249.241 C 373.17501,260.844 363.75901,270.26 352.15601,270.26 C 340.55301,270.26 331.13601,260.844 331.13601,249.241 C 331.13601,237.638 340.55301,228.222 352.15601,228.222 C 363.75901,228.222 373.17501,237.639 373.17501,249.241 L 373.17501,249.241 z"
   id="path177"
   style="fill:none;stroke:#000000;stroke-width:1.60000002;stroke-linecap:round;stroke-miterlimit:10" />
<path
   d="M 345.41501,246.092 L 344.13101,249.574 L 346.70401,249.574 L 345.41501,246.092 M 344.88101,245.159 L 345.95401,245.159 L 348.62201,252.157 L 347.63801,252.157 L 347.00001,250.362 L 343.84501,250.362 L 343.20801,252.157 L 342.20901,252.157 L 344.88101,245.159"
   id="path179" />
<path
   d="M 350.58601,245.938 L 350.58601,251.379 L 351.73001,251.379 C 352.69601,251.379 353.40201,251.16 353.84901,250.723 C 354.29801,250.286 354.52401,249.595 354.52401,248.652 C 354.52401,247.714 354.29801,247.029 353.84901,246.594 C 353.40201,246.156 352.69601,245.938 351.73001,245.938 L 350.58601,245.938 M 349.63901,245.159 L 351.58401,245.159 C 352.94001,245.159 353.93601,245.441 354.57001,246.008 C 355.20401,246.57 355.52101,247.451 355.52101,248.652 C 355.52101,249.858 355.20301,250.744 354.56501,251.309 C 353.92701,251.875 352.93401,252.158 351.58401,252.158 L 349.63901,252.158 L 349.63901,245.159"
   id="path181" />
<path
   d="M 357.97401,245.938 L 357.97401,248.567 L 359.16401,248.567 C 359.60401,248.567 359.94501,248.454 360.18501,248.225 C 360.42601,247.996 360.54601,247.672 360.54601,247.25 C 360.54601,246.831 360.42601,246.508 360.18501,246.279 C 359.94501,246.05 359.60401,245.937 359.16401,245.937 L 357.97401,245.937 M 357.02601,245.159 L 359.16401,245.159 C 359.94801,245.159 360.54001,245.337 360.94001,245.693 C 361.34301,246.047 361.54401,246.565 361.54401,247.25 C 361.54401,247.94 361.34301,248.462 360.94001,248.815 C 360.54001,249.168 359.94801,249.344 359.16401,249.344 L 357.97401,249.344 L 357.97401,252.156 L 357.02701,252.156 L 357.02701,245.159"
   id="path183" />
<path
   stroke-miterlimit="10"
   d="M 283.31101,194.291 L 263.54901,228.979 M 325.76401,194.291 L 344.47801,227.605"
   id="path185"
   style="fill:none;stroke:#000000;stroke-width:1.60000002;stroke-miterlimit:10" />
<polygon
   clip-rule="evenodd"
   points="363.608,194.408 354.924,198.432 354.924,190.353 363.608,194.408 "
   id="polygon187"
   style="fill-rule:evenodd"
   transform="translate(5.5536396e-6,1.3841884e-8)" />
<polygon
   stroke-miterlimit="10"
   points="363.608,194.408 354.924,198.432 354.924,190.353 363.608,194.408 "
   id="polygon189"
   style="fill:none;stroke:#000000;stroke-width:1.60000002;stroke-miterlimit:10"
   transform="translate(5.5536396e-6,1.3841884e-8)" />
<polygon
   points="300.138,189.765 309.465,189.765 309.465,198.81 300.138,198.81 300.138,189.765 "
   id="polygon191"
   style="fill:#ffffff"
   transform="translate(5.5536396e-6,1.3841884e-8)" />
<polygon
   stroke-miterlimit="10"
   points="300.138,189.765 309.465,189.765 309.465,198.81 300.138,198.81 300.138,189.765 "
   id="polygon193"
   style="fill:none;stroke:#000000;stroke-width:1.60000002;stroke-linecap:round;stroke-miterlimit:10"
   transform="translate(5.5536396e-6,1.3841884e-8)" />
<path
   clip-rule="evenodd"
   d="M 309.60701,182.201 C 309.60701,184.89 307.42401,187.074 304.73501,187.074 C 302.04501,187.074 299.86201,184.891 299.86201,182.201 C 299.86201,179.511 302.04501,177.328 304.73501,177.328 C 307.42501,177.328 309.60701,179.511 309.60701,182.201 L 309.60701,182.201 z"
   id="path195"
   style="fill:#ffffff;fill-rule:evenodd" />
<path
   stroke-miterlimit="10"
   d="M 309.60701,182.201 C 309.60701,184.89 307.42401,187.074 304.73501,187.074 C 302.04501,187.074 299.86201,184.891 299.86201,182.201 C 299.86201,179.511 302.04501,177.328 304.73501,177.328 C 307.42501,177.328 309.60701,179.511 309.60701,182.201 L 309.60701,182.201 z"
   id="path197"
   style="fill:none;stroke:#000000;stroke-width:1.60000002;stroke-miterlimit:10" />
<path
   d="M 276.43001,255.272 C 273.89401,264.031 265.80901,270.441 256.23701,270.441 C 246.66501,270.441 238.58001,264.031 236.04401,255.272"
   id="path199" />
<path
   stroke-miterlimit="10"
   d="M 276.43001,255.272 C 273.89401,264.031 265.80901,270.441 256.23701,270.441 C 246.66501,270.441 238.58001,264.031 236.04401,255.272"
   id="path201"
   style="fill:none;stroke:#000000;stroke-width:1.60000002;stroke-linecap:round;stroke-miterlimit:10" />
<path
   d="M 372.43001,255.272 C 369.89501,264.031 361.81001,270.441 352.23801,270.441 C 342.66501,270.441 334.58101,264.031 332.04501,255.272"
   id="path203" />
<path
   stroke-miterlimit="10"
   d="M 372.43001,255.272 C 369.89501,264.031 361.81001,270.441 352.23801,270.441 C 342.66501,270.441 334.58101,264.031 332.04501,255.272"
   id="path205"
   style="fill:none;stroke:#000000;stroke-width:1.60000002;stroke-linecap:round;stroke-miterlimit:10" />
<path
   d="M 250.03901,246.092 L 248.75501,249.574 L 251.32801,249.574 L 250.03901,246.092 M 249.50501,245.159 L 250.57801,245.159 L 253.24501,252.157 L 252.26101,252.157 L 251.62401,250.362 L 248.46901,250.362 L 247.83101,252.157 L 246.83301,252.157 L 249.50501,245.159"
   id="path207" />
<polyline
   points="252.542,245.159 258.462,245.159 258.462,245.956 255.978,245.956 255.978,252.157 255.026,252.157   255.026,245.956 252.542,245.956 252.542,245.159 "
   id="polyline209"
   transform="translate(5.5536396e-6,1.3841884e-8)" />
<path
   d="M 260.32801,245.938 L 260.32801,248.567 L 261.51801,248.567 C 261.95901,248.567 262.29901,248.454 262.54001,248.225 C 262.78101,247.996 262.90101,247.672 262.90101,247.25 C 262.90101,246.831 262.78101,246.508 262.54001,246.279 C 262.29901,246.05 261.95901,245.937 261.51801,245.937 L 260.32801,245.937 M 259.38101,245.159 L 261.51801,245.159 C 262.30301,245.159 262.89501,245.337 263.29501,245.693 C 263.69801,246.047 263.89901,246.565 263.89901,247.25 C 263.89901,247.94 263.69701,248.462 263.29501,248.815 C 262.89501,249.168 262.30301,249.344 261.51801,249.344 L 260.32801,249.344 L 260.32801,252.156 L 259.38101,252.156 L 259.38101,245.159"
   id="path211" />
<path
   d="M 376.16701,179.295 L 419.14401,179.295 C 424.22201,179.295 428.31001,183.064 428.31001,187.746 L 428.31001,200.918 C 428.31001,205.6 424.22201,209.369 419.14401,209.369 L 376.16701,209.369 C 371.08901,209.369 367.00001,205.599 367.00001,200.918 L 367.00001,187.746 C 367.00001,183.064 371.08901,179.295 376.16701,179.295 L 376.16701,179.295 z"
   id="path213"
   style="fill:#ffffff" />
<path
   stroke-miterlimit="10"
   d="M 376.16701,179.295 L 419.14401,179.295 C 424.22201,179.295 428.31001,183.064 428.31001,187.746 L 428.31001,200.918 C 428.31001,205.6 424.22201,209.369 419.14401,209.369 L 376.16701,209.369 C 371.08901,209.369 367.00001,205.599 367.00001,200.918 L 367.00001,187.746 C 367.00001,183.064 371.08901,179.295 376.16701,179.295 L 376.16701,179.295 z"
   id="path215"
   style="fill:none;stroke:#000000;stroke-width:1.60000002;stroke-miterlimit:10" />
<polyline
   points="388.078,191.149 389.489,191.149 391.275,195.911 393.07,191.149 394.481,191.149 394.481,198.147   393.559,198.147 393.559,192.002 391.754,196.802 390.802,196.802 388.997,192.002 388.997,198.147 388.078,198.147   388.078,191.149 "
   id="polyline217"
   transform="translate(5.5536396e-6,1.3841884e-8)" />
<polyline
   points="396.366,191.149 400.791,191.149 400.791,191.946 397.312,191.946 397.312,194.018 400.646,194.018   400.646,194.814 397.312,194.814 397.312,197.351 400.875,197.351 400.875,198.147 396.366,198.147 396.366,191.149 "
   id="polyline219"
   transform="translate(5.5536396e-6,1.3841884e-8)" />
<polyline
   points="402.441,191.149 403.388,191.149 403.388,194.106 406.528,191.149 407.747,191.149 404.273,194.411   407.996,198.147 406.749,198.147 403.388,194.777 403.388,198.147 402.441,198.147 402.441,191.149 "
   id="polyline221"
   transform="translate(5.5536396e-6,1.3841884e-8)" />
<path
   d="m 402.1883,208.772 c 0,3.462 -2.811,6.272 -6.273,6.272 -3.462,0 -6.273,-2.811 -6.273,-6.272 0,-3.463 2.811,-6.273 6.273,-6.273 3.462,0 6.273,2.811 6.273,6.273 l 0,0 z"
   id="path223"
   style="fill:#ffffff" />
<path
   stroke-miterlimit="10"
   d="m 402.1883,208.772 c 0,3.462 -2.811,6.272 -6.273,6.272 -3.462,0 -6.273,-2.811 -6.273,-6.272 0,-3.463 2.811,-6.273 6.273,-6.273 3.462,0 6.273,2.811 6.273,6.273 l 0,0 z"
   id="path225"
   style="fill:none;stroke:#000000;stroke-width:1.60000002;stroke-linecap:round;stroke-miterlimit:10" />

<polygon
   clip-rule="evenodd"
   points="159.52,227.867 151.768,221.359 159.241,218.293 159.52,227.867 "
   id="polygon229"
   style="fill-rule:evenodd"
   transform="translate(5.5536396e-6,1.3841884e-8)" />
<polygon
   stroke-miterlimit="10"
   points="158.786,227.867 151.768,221.359 159.241,218.293 159.52,227.867 158.786,227.867 "
   id="polygon231"
   style="fill:none;stroke:#000000;stroke-width:1.60000002;stroke-miterlimit:10"
   transform="translate(5.5536396e-6,1.3841884e-8)" />




<polygon
   clip-rule="evenodd"
   points="344.92,227.867 337.901,221.359 345.376,218.293 344.92,227.867 "
   id="polygon241"
   style="fill-rule:evenodd"
   transform="translate(5.5536396e-6,1.3841884e-8)" />
<polygon
   stroke-miterlimit="10"
   points="344.92,227.867 337.901,221.359 345.376,218.293 344.92,227.867 "
   id="polygon243"
   style="fill:none;stroke:#000000;stroke-width:1.60000002;stroke-miterlimit:10"
   transform="translate(5.5536396e-6,1.3841884e-8)" />



<line
   stroke-miterlimit="10"
   x1="63.088005"
   y1="339.022"
   x2="171.23399"
   y2="339.06699"
   id="line251"
   style="fill:none;stroke:#000000;stroke-width:1.60000002;stroke-miterlimit:10" />
<path
   d="M 91.774005,395.841 C 91.774005,407.444 82.357005,416.861 70.755005,416.861 C 59.153005,416.861 49.736005,407.444 49.736005,395.841 C 49.736005,384.239 59.153005,374.822 70.755005,374.822 C 82.357005,374.822 91.774005,384.239 91.774005,395.841 L 91.774005,395.841 z"
   id="path253"
   style="fill:#ffffff" />
<path
   stroke-miterlimit="10"
   d="M 91.774005,395.841 C 91.774005,407.444 82.357005,416.861 70.755005,416.861 C 59.153005,416.861 49.736005,407.444 49.736005,395.841 C 49.736005,384.239 59.153005,374.822 70.755005,374.822 C 82.357005,374.822 91.774005,384.239 91.774005,395.841 L 91.774005,395.841 z"
   id="path255"
   style="fill:none;stroke:#000000;stroke-width:1.60000002;stroke-linecap:round;stroke-miterlimit:10" />
<path
   d="M 187.77401,395.841 C 187.77401,407.444 178.35701,416.861 166.75501,416.861 C 155.15301,416.861 145.73601,407.444 145.73601,395.841 C 145.73601,384.239 155.15301,374.822 166.75501,374.822 C 178.35701,374.822 187.77401,384.239 187.77401,395.841 L 187.77401,395.841 z"
   id="path257"
   style="fill:#ffffff" />
<path
   stroke-miterlimit="10"
   d="M 187.77401,395.841 C 187.77401,407.444 178.35701,416.861 166.75501,416.861 C 155.15301,416.861 145.73601,407.444 145.73601,395.841 C 145.73601,384.239 155.15301,374.822 166.75501,374.822 C 178.35701,374.822 187.77401,384.239 187.77401,395.841 L 187.77401,395.841 z"
   id="path259"
   style="fill:none;stroke:#000000;stroke-width:1.60000002;stroke-linecap:round;stroke-miterlimit:10" />
<path
   d="M 160.01501,392.692 L 158.73001,396.174 L 161.30401,396.174 L 160.01501,392.692 M 159.48001,391.759 L 160.55401,391.759 L 163.22101,398.758 L 162.23701,398.758 L 161.59901,396.962 L 158.44501,396.962 L 157.80701,398.758 L 156.80801,398.758 L 159.48001,391.759"
   id="path261" />
<path
   d="M 165.18501,392.537 L 165.18501,397.979 L 166.32901,397.979 C 167.29401,397.979 168.00101,397.76 168.44801,397.323 C 168.89801,396.885 169.12301,396.195 169.12301,395.251 C 169.12301,394.313 168.89801,393.628 168.44801,393.193 C 168.00101,392.755 167.29501,392.537 166.32901,392.537 L 165.18501,392.537 M 164.23801,391.759 L 166.18301,391.759 C 167.53901,391.759 168.53501,392.042 169.16901,392.608 C 169.80401,393.17 170.12101,394.052 170.12101,395.252 C 170.12101,396.458 169.80201,397.345 169.16501,397.91 C 168.52701,398.475 167.53401,398.759 166.18401,398.759 L 164.23901,398.759 L 164.23901,391.759"
   id="path263" />
<path
   d="M 172.57301,392.537 L 172.57301,395.167 L 173.76301,395.167 C 174.20401,395.167 174.54401,395.053 174.78501,394.825 C 175.02601,394.596 175.14601,394.271 175.14601,393.849 C 175.14601,393.43 175.02601,393.107 174.78501,392.879 C 174.54401,392.65 174.20401,392.536 173.76301,392.536 L 172.57301,392.536 M 171.62601,391.759 L 173.76301,391.759 C 174.54801,391.759 175.14001,391.938 175.54001,392.294 C 175.94301,392.647 176.14401,393.165 176.14401,393.85 C 176.14401,394.54 175.94201,395.063 175.54001,395.415 C 175.14001,395.769 174.54801,395.945 173.76301,395.945 L 172.57301,395.945 L 172.57301,398.757 L 171.62601,398.757 L 171.62601,391.759"
   id="path265" />
<path
   stroke-miterlimit="10"
   d="M 97.910005,338.892 L 77.770005,375.837 M 140.36301,338.892 L 159.07701,373.473"
   id="path267"
   style="fill:none;stroke:#000000;stroke-width:1.60000002;stroke-miterlimit:10" />
<path
   d="M 9.9660056,323.895 L 52.942005,323.895 C 58.021005,323.895 62.109005,327.665 62.109005,332.346 L 62.109005,345.518 C 62.109005,350.201 58.021005,353.969 52.942005,353.969 L 9.9660056,353.969 C 4.8880056,353.969 0.79900555,350.2 0.79900555,345.518 L 0.79900555,332.346 C 0.80000555,327.664 4.8880056,323.895 9.9660056,323.895 L 9.9660056,323.895 z"
   id="path269"
   style="fill:#ffffff" />
<path
   stroke-miterlimit="10"
   d="M 9.9660056,323.895 L 52.942005,323.895 C 58.021005,323.895 62.109005,327.665 62.109005,332.346 L 62.109005,345.518 C 62.109005,350.201 58.021005,353.969 52.942005,353.969 L 9.9660056,353.969 C 4.8880056,353.969 0.79900555,350.2 0.79900555,345.518 L 0.79900555,332.346 C 0.80000555,327.664 4.8880056,323.895 9.9660056,323.895 L 9.9660056,323.895 z"
   id="path271"
   style="fill:none;stroke:#000000;stroke-width:1.60000002;stroke-miterlimit:10" />
<polygon
   clip-rule="evenodd"
   points="179.121,339.161 170.436,343.184 170.436,335.105 179.121,339.161 "
   id="polygon273"
   style="fill-rule:evenodd"
   transform="translate(5.5536396e-6,1.3841884e-8)" />
<polygon
   stroke-miterlimit="10"
   points="179.121,339.161 170.436,343.184 170.436,335.105 179.121,339.161 "
   id="polygon275"
   style="fill:none;stroke:#000000;stroke-width:1.60000002;stroke-miterlimit:10"
   transform="translate(5.5536396e-6,1.3841884e-8)" />
<polygon
   points="114.737,334.365 124.064,334.365 124.064,343.41 114.737,343.41 114.737,334.365 "
   id="polygon277"
   style="fill:#ffffff"
   transform="translate(5.5536396e-6,1.3841884e-8)" />
<polygon
   stroke-miterlimit="10"
   points="114.737,334.365 124.064,334.365 124.064,343.41 114.737,343.41 114.737,334.365 "
   id="polygon279"
   style="fill:none;stroke:#000000;stroke-width:1.60000002;stroke-linecap:round;stroke-miterlimit:10"
   transform="translate(5.5536396e-6,1.3841884e-8)" />
<path
   clip-rule="evenodd"
   d="M 124.20701,326.801 C 124.20701,329.49 122.02401,331.673 119.33401,331.673 C 116.64401,331.673 114.46101,329.49 114.46101,326.801 C 114.46101,324.112 116.64401,321.929 119.33401,321.929 C 122.02401,321.929 124.20701,324.111 124.20701,326.801 L 124.20701,326.801 z"
   id="path281"
   style="fill:#ffffff;fill-rule:evenodd" />
<path
   stroke-miterlimit="10"
   d="M 124.20701,326.801 C 124.20701,329.49 122.02401,331.673 119.33401,331.673 C 116.64401,331.673 114.46101,329.49 114.46101,326.801 C 114.46101,324.112 116.64401,321.929 119.33401,321.929 C 122.02401,321.929 124.20701,324.111 124.20701,326.801 L 124.20701,326.801 z"
   id="path283"
   style="fill:none;stroke:#000000;stroke-width:1.60000002;stroke-miterlimit:10" />




<path
   d="M 91.029005,401.872 C 88.493005,410.631 80.409005,417.041 70.836005,417.041 C 61.263005,417.041 53.179005,410.631 50.643005,401.872"
   id="path293" />
<path
   stroke-miterlimit="10"
   d="M 91.029005,401.872 C 88.493005,410.631 80.409005,417.041 70.836005,417.041 C 61.263005,417.041 53.179005,410.631 50.643005,401.872"
   id="path295"
   style="fill:none;stroke:#000000;stroke-width:1.60000002;stroke-linecap:round;stroke-miterlimit:10" />
<path
   d="M 187.02901,401.872 C 184.49301,410.631 176.40901,417.041 166.83601,417.041 C 157.26301,417.041 149.17901,410.631 146.64301,401.872"
   id="path297" />
<path
   stroke-miterlimit="10"
   d="M 187.02901,401.872 C 184.49301,410.631 176.40901,417.041 166.83601,417.041 C 157.26301,417.041 149.17901,410.631 146.64301,401.872"
   id="path299"
   style="fill:none;stroke:#000000;stroke-width:1.60000002;stroke-linecap:round;stroke-miterlimit:10" />
<path
   d="M 64.639005,392.692 L 63.354005,396.174 L 65.928005,396.174 L 64.639005,392.692 M 64.104005,391.759 L 65.178005,391.759 L 67.845005,398.758 L 66.861005,398.758 L 66.224005,396.962 L 63.069005,396.962 L 62.431005,398.758 L 61.432005,398.758 L 64.104005,391.759"
   id="path301" />
<polyline
   points="67.142,391.759 73.062,391.759 73.062,392.556 70.578,392.556 70.578,398.758 69.626,398.758 69.626,392.556   67.142,392.556 67.142,391.759 "
   id="polyline303"
   transform="translate(5.5536396e-6,1.3841884e-8)" />
<path
   d="M 74.928005,392.537 L 74.928005,395.167 L 76.118005,395.167 C 76.559005,395.167 76.899005,395.053 77.140005,394.825 C 77.381005,394.596 77.501005,394.271 77.501005,393.849 C 77.501005,393.43 77.381005,393.107 77.140005,392.879 C 76.899005,392.65 76.559005,392.536 76.118005,392.536 L 74.928005,392.536 M 73.981005,391.759 L 76.118005,391.759 C 76.902005,391.759 77.494005,391.938 77.895005,392.294 C 78.298005,392.647 78.499005,393.165 78.499005,393.85 C 78.499005,394.54 78.297005,395.063 77.895005,395.415 C 77.495005,395.769 76.902005,395.945 76.118005,395.945 L 74.928005,395.945 L 74.928005,398.757 L 73.981005,398.757 L 73.981005,391.759"
   id="path305" />
<path
   d="M 26.528005,353.372 C 26.528005,356.835 23.717005,359.644 20.255005,359.644 C 16.793005,359.644 13.982005,356.834 13.982005,353.372 C 13.982005,349.91 16.793005,347.099 20.255005,347.099 C 23.717005,347.099 26.528005,349.909 26.528005,353.372 L 26.528005,353.372 z"
   id="path307"
   style="fill:#ffffff" />
<path
   stroke-miterlimit="10"
   d="M 26.528005,353.372 C 26.528005,356.835 23.717005,359.644 20.255005,359.644 C 16.793005,359.644 13.982005,356.834 13.982005,353.372 C 13.982005,349.91 16.793005,347.099 20.255005,347.099 C 23.717005,347.099 26.528005,349.909 26.528005,353.372 L 26.528005,353.372 z"
   id="path309"
   style="fill:none;stroke:#000000;stroke-width:1.60000002;stroke-linecap:round;stroke-miterlimit:10" />
<path
   d="M 190.76701,323.895 L 233.74301,323.895 C 238.82101,323.895 242.91001,327.665 242.91001,332.346 L 242.91001,345.518 C 242.91001,350.201 238.82201,353.969 233.74301,353.969 L 190.76701,353.969 C 185.68801,353.969 181.60001,350.2 181.60001,345.518 L 181.60001,332.346 C 181.60001,327.664 185.68801,323.895 190.76701,323.895 L 190.76701,323.895 z"
   id="path311"
   style="fill:#ffffff" />
<path
   stroke-miterlimit="10"
   d="M 190.76701,323.895 L 233.74301,323.895 C 238.82101,323.895 242.91001,327.665 242.91001,332.346 L 242.91001,345.518 C 242.91001,350.201 238.82201,353.969 233.74301,353.969 L 190.76701,353.969 C 185.68801,353.969 181.60001,350.2 181.60001,345.518 L 181.60001,332.346 C 181.60001,327.664 185.68801,323.895 190.76701,323.895 L 190.76701,323.895 z"
   id="path313"
   style="fill:none;stroke:#000000;stroke-width:1.60000002;stroke-miterlimit:10" />
<polyline
   points="203.484,335.749 207.909,335.749 207.909,336.546 204.431,336.546 204.431,338.618 207.764,338.618   207.764,339.415 204.431,339.415 204.431,341.95 207.994,341.95 207.994,342.747 203.484,342.747 203.484,335.749 "
   id="polyline315"
   transform="translate(5.5536396e-6,1.3841884e-8)" />
<path
   d="M 212.87801,339.466 C 213.08101,339.535 213.27801,339.682 213.46901,339.907 C 213.66301,340.132 213.85601,340.441 214.05001,340.835 L 215.01101,342.747 L 213.99401,342.747 L 213.09801,340.952 C 212.86701,340.483 212.64201,340.173 212.42301,340.019 C 212.20701,339.866 211.91201,339.79 211.53701,339.79 L 210.50601,339.79 L 210.50601,342.747 L 209.55901,342.747 L 209.55901,335.749 L 211.69701,335.749 C 212.49701,335.749 213.09401,335.916 213.48801,336.251 C 213.88201,336.585 214.07901,337.09 214.07901,337.765 C 214.07901,338.205 213.97601,338.572 213.76901,338.862 C 213.56501,339.152 213.26901,339.354 212.87801,339.466 M 210.50601,336.527 L 210.50601,339.011 L 211.69601,339.011 C 212.15201,339.011 212.49601,338.907 212.72701,338.697 C 212.96101,338.485 213.07901,338.174 213.07901,337.764 C 213.07901,337.354 212.96201,337.047 212.72701,336.84 C 212.49601,336.631 212.15201,336.527 211.69601,336.527 L 210.50601,336.527"
   id="path317" />
<polyline
   points="216.234,335.749 217.181,335.749 217.181,338.707 220.322,335.749 221.541,335.749 218.067,339.012   221.789,342.747 220.542,342.747 217.181,339.377 217.181,342.747 216.234,342.747 216.234,335.749 "
   id="polyline319"
   transform="translate(5.5536396e-6,1.3841884e-8)" />
<path
   d="M 207.32801,353.372 C 207.32801,356.835 204.51701,359.644 201.05501,359.644 C 197.59201,359.644 194.78201,356.834 194.78201,353.372 C 194.78201,349.91 197.59201,347.099 201.05501,347.099 C 204.51701,347.099 207.32801,349.909 207.32801,353.372 L 207.32801,353.372 z"
   id="path321"
   style="fill:#ffffff" />
<path
   stroke-miterlimit="10"
   d="M 207.32801,353.372 C 207.32801,356.835 204.51701,359.644 201.05501,359.644 C 197.59201,359.644 194.78201,356.834 194.78201,353.372 C 194.78201,349.91 197.59201,347.099 201.05501,347.099 C 204.51701,347.099 207.32801,349.909 207.32801,353.372 L 207.32801,353.372 z"
   id="path323"
   style="fill:none;stroke:#000000;stroke-width:1.60000002;stroke-linecap:round;stroke-miterlimit:10" />
<path
   d="M 200.02701,351.235 L 200.02701,353.426 L 201.01901,353.426 C 201.38601,353.426 201.67001,353.33 201.87101,353.141 C 202.07101,352.951 202.17201,352.68 202.17201,352.329 C 202.17201,351.979 202.07101,351.71 201.87101,351.52 C 201.67001,351.33 201.38701,351.235 201.01901,351.235 L 200.02701,351.235 M 199.23801,350.587 L 201.01901,350.587 C 201.67201,350.587 202.16601,350.735 202.49901,351.032 C 202.83501,351.326 203.00301,351.759 203.00301,352.329 C 203.00301,352.904 202.83501,353.339 202.49901,353.634 C 202.16601,353.928 201.67201,354.075 201.01901,354.075 L 200.02701,354.075 L 200.02701,356.419 L 199.23801,356.419 L 199.23801,350.587"
   id="path325" />
<line
   stroke-miterlimit="10"
   x1="243.666"
   y1="339.022"
   x2="352.72202"
   y2="339.06699"
   id="line327"
   style="fill:none;stroke:#000000;stroke-width:1.60000002;stroke-miterlimit:10" />
<path
   d="M 274.17501,395.841 C 274.17501,407.444 264.75801,416.861 253.15501,416.861 C 241.55301,416.861 232.13601,407.444 232.13601,395.841 C 232.13601,384.239 241.55301,374.822 253.15501,374.822 C 264.75801,374.822 274.17501,384.239 274.17501,395.841 L 274.17501,395.841 z"
   id="path329"
   style="fill:#ffffff" />
<path
   stroke-miterlimit="10"
   d="M 274.17501,395.841 C 274.17501,407.444 264.75801,416.861 253.15501,416.861 C 241.55301,416.861 232.13601,407.444 232.13601,395.841 C 232.13601,384.239 241.55301,374.822 253.15501,374.822 C 264.75801,374.822 274.17501,384.239 274.17501,395.841 L 274.17501,395.841 z"
   id="path331"
   style="fill:none;stroke:#000000;stroke-width:1.60000002;stroke-linecap:round;stroke-miterlimit:10" />
<path
   d="M 370.17501,395.841 C 370.17501,407.444 360.75901,416.861 349.15601,416.861 C 337.55301,416.861 328.13601,407.444 328.13601,395.841 C 328.13601,384.239 337.55301,374.822 349.15601,374.822 C 360.75901,374.822 370.17501,384.239 370.17501,395.841 L 370.17501,395.841 z"
   id="path333"
   style="fill:#ffffff" />
<path
   stroke-miterlimit="10"
   d="M 370.17501,395.841 C 370.17501,407.444 360.75901,416.861 349.15601,416.861 C 337.55301,416.861 328.13601,407.444 328.13601,395.841 C 328.13601,384.239 337.55301,374.822 349.15601,374.822 C 360.75901,374.822 370.17501,384.239 370.17501,395.841 L 370.17501,395.841 z"
   id="path335"
   style="fill:none;stroke:#000000;stroke-width:1.60000002;stroke-linecap:round;stroke-miterlimit:10" />
<path
   d="M 342.41501,392.692 L 341.13101,396.174 L 343.70401,396.174 L 342.41501,392.692 M 341.88101,391.759 L 342.95401,391.759 L 345.62201,398.758 L 344.63801,398.758 L 344.00001,396.962 L 340.84501,396.962 L 340.20801,398.758 L 339.20901,398.758 L 341.88101,391.759"
   id="path337" />
<path
   d="M 347.58601,392.537 L 347.58601,397.979 L 348.73001,397.979 C 349.69601,397.979 350.40201,397.76 350.84901,397.323 C 351.29801,396.885 351.52401,396.195 351.52401,395.251 C 351.52401,394.313 351.29801,393.628 350.84901,393.193 C 350.40201,392.755 349.69601,392.537 348.73001,392.537 L 347.58601,392.537 M 346.63901,391.759 L 348.58401,391.759 C 349.94001,391.759 350.93601,392.042 351.57001,392.608 C 352.20401,393.17 352.52101,394.052 352.52101,395.252 C 352.52101,396.458 352.20301,397.345 351.56501,397.91 C 350.92701,398.475 349.93401,398.759 348.58401,398.759 L 346.63901,398.759 L 346.63901,391.759"
   id="path339" />
<path
   d="M 354.97401,392.537 L 354.97401,395.167 L 356.16401,395.167 C 356.60401,395.167 356.94501,395.053 357.18501,394.825 C 357.42601,394.596 357.54601,394.271 357.54601,393.849 C 357.54601,393.43 357.42601,393.107 357.18501,392.879 C 356.94501,392.65 356.60401,392.536 356.16401,392.536 L 354.97401,392.536 M 354.02601,391.759 L 356.16401,391.759 C 356.94801,391.759 357.54001,391.938 357.94001,392.294 C 358.34301,392.647 358.54401,393.165 358.54401,393.85 C 358.54401,394.54 358.34301,395.063 357.94001,395.415 C 357.54001,395.769 356.94801,395.945 356.16401,395.945 L 354.97401,395.945 L 354.97401,398.757 L 354.02701,398.757 L 354.02701,391.759"
   id="path341" />
<path
   stroke-miterlimit="10"
   d="M 280.31101,338.892 L 260.54901,375.47 M 322.76401,338.892 L 341.84501,373.473"
   id="path343"
   style="fill:none;stroke:#000000;stroke-width:1.60000002;stroke-miterlimit:10" />
<polygon
   clip-rule="evenodd"
   points="360.608,339.161 351.924,343.184 351.924,335.105 360.608,339.161 "
   id="polygon345"
   style="fill-rule:evenodd"
   transform="translate(5.5536396e-6,1.3841884e-8)" />
<polygon
   stroke-miterlimit="10"
   points="360.608,339.161 351.924,343.184 351.924,335.105 360.608,339.161 "
   id="polygon347"
   style="fill:none;stroke:#000000;stroke-width:1.60000002;stroke-miterlimit:10"
   transform="translate(5.5536396e-6,1.3841884e-8)" />
<polygon
   points="297.138,334.365 306.465,334.365 306.465,343.41 297.138,343.41 297.138,334.365 "
   id="polygon349"
   style="fill:#ffffff"
   transform="translate(5.5536396e-6,1.3841884e-8)" />
<polygon
   stroke-miterlimit="10"
   points="297.138,334.365 306.465,334.365 306.465,343.41 297.138,343.41 297.138,334.365 "
   id="polygon351"
   style="fill:none;stroke:#000000;stroke-width:1.60000002;stroke-linecap:round;stroke-miterlimit:10"
   transform="translate(5.5536396e-6,1.3841884e-8)" />
<path
   d="M 273.43001,401.872 C 270.89401,410.631 262.80901,417.041 253.23701,417.041 C 243.66501,417.041 235.58001,410.631 233.04401,401.872"
   id="path353" />
<path
   stroke-miterlimit="10"
   d="M 273.43001,401.872 C 270.89401,410.631 262.80901,417.041 253.23701,417.041 C 243.66501,417.041 235.58001,410.631 233.04401,401.872"
   id="path355"
   style="fill:none;stroke:#000000;stroke-width:1.60000002;stroke-linecap:round;stroke-miterlimit:10" />
<path
   d="M 369.43001,401.872 C 366.89501,410.631 358.81001,417.041 349.23801,417.041 C 339.66501,417.041 331.58101,410.631 329.04501,401.872"
   id="path357" />
<path
   stroke-miterlimit="10"
   d="M 369.43001,401.872 C 366.89501,410.631 358.81001,417.041 349.23801,417.041 C 339.66501,417.041 331.58101,410.631 329.04501,401.872"
   id="path359"
   style="fill:none;stroke:#000000;stroke-width:1.60000002;stroke-linecap:round;stroke-miterlimit:10" />
<path
   d="M 247.03901,392.692 L 245.75501,396.174 L 248.32801,396.174 L 247.03901,392.692 M 246.50501,391.759 L 247.57801,391.759 L 250.24501,398.758 L 249.26101,398.758 L 248.62401,396.962 L 245.46901,396.962 L 244.83101,398.758 L 243.83301,398.758 L 246.50501,391.759"
   id="path361" />
<polyline
   points="249.542,391.759 255.462,391.759 255.462,392.556 252.978,392.556 252.978,398.758 252.026,398.758   252.026,392.556 249.542,392.556 249.542,391.759 "
   id="polyline363"
   transform="translate(5.5536396e-6,1.3841884e-8)" />
<path
   d="M 257.32801,392.537 L 257.32801,395.167 L 258.51801,395.167 C 258.95901,395.167 259.29901,395.053 259.54001,394.825 C 259.78101,394.596 259.90101,394.271 259.90101,393.849 C 259.90101,393.43 259.78101,393.107 259.54001,392.879 C 259.29901,392.65 258.95901,392.536 258.51801,392.536 L 257.32801,392.536 M 256.38101,391.759 L 258.51801,391.759 C 259.30301,391.759 259.89501,391.938 260.29501,392.294 C 260.69801,392.647 260.89901,393.165 260.89901,393.85 C 260.89901,394.54 260.69701,395.063 260.29501,395.415 C 259.89501,395.769 259.30301,395.945 258.51801,395.945 L 257.32801,395.945 L 257.32801,398.757 L 256.38101,398.757 L 256.38101,391.759"
   id="path365" />
<path
   d="M 372.16701,323.895 L 415.14401,323.895 C 420.22201,323.895 424.31001,327.665 424.31001,332.346 L 424.31001,345.518 C 424.31001,350.201 420.22201,353.969 415.14401,353.969 L 372.16701,353.969 C 367.08901,353.969 363.00001,350.2 363.00001,345.518 L 363.00001,332.346 C 363.00001,327.664 367.08901,323.895 372.16701,323.895 L 372.16701,323.895 z"
   id="path367"
   style="fill:#ffffff" />
<path
   stroke-miterlimit="10"
   d="M 372.16701,323.895 L 415.14401,323.895 C 420.22201,323.895 424.31001,327.665 424.31001,332.346 L 424.31001,345.518 C 424.31001,350.201 420.22201,353.969 415.14401,353.969 L 372.16701,353.969 C 367.08901,353.969 363.00001,350.2 363.00001,345.518 L 363.00001,332.346 C 363.00001,327.664 367.08901,323.895 372.16701,323.895 L 372.16701,323.895 z"
   id="path369"
   style="fill:none;stroke:#000000;stroke-width:1.60000002;stroke-miterlimit:10" />
<polyline
   points="384.885,335.749 389.31,335.749 389.31,336.546 385.832,336.546 385.832,338.618 389.164,338.618 389.164,339.415   385.832,339.415 385.832,341.95 389.395,341.95 389.395,342.747 384.885,342.747 384.885,335.749 "
   id="polyline371"
   transform="translate(5.5536396e-6,1.3841884e-8)" />
<path
   d="M 394.27801,339.466 C 394.48101,339.535 394.67801,339.682 394.86901,339.907 C 395.06201,340.132 395.25701,340.441 395.45001,340.835 L 396.41101,342.747 L 395.39401,342.747 L 394.49801,340.952 C 394.26701,340.483 394.04201,340.173 393.82301,340.019 C 393.60701,339.866 393.31101,339.79 392.93601,339.79 L 391.90501,339.79 L 391.90501,342.747 L 390.95901,342.747 L 390.95901,335.749 L 393.09701,335.749 C 393.89701,335.749 394.49301,335.916 394.88701,336.251 C 395.28101,336.585 395.47801,337.09 395.47801,337.765 C 395.47801,338.205 395.37401,338.572 395.16801,338.862 C 394.96601,339.152 394.66901,339.354 394.27801,339.466 M 391.90601,336.527 L 391.90601,339.011 L 393.09701,339.011 C 393.55301,339.011 393.89701,338.907 394.12801,338.697 C 394.36201,338.485 394.48001,338.174 394.48001,337.764 C 394.48001,337.354 394.36301,337.047 394.12801,336.84 C 393.89701,336.631 393.55301,336.527 393.09701,336.527 L 391.90601,336.527"
   id="path373" />
<polyline
   points="397.635,335.749 398.582,335.749 398.582,338.707 401.723,335.749 402.941,335.749 399.468,339.012   403.189,342.747 401.942,342.747 398.582,339.377 398.582,342.747 397.635,342.747 397.635,335.749 "
   id="polyline375"
   transform="translate(5.5536396e-6,1.3841884e-8)" />
<path
   d="M 388.72901,353.372 C 388.72901,356.835 385.91801,359.644 382.45601,359.644 C 378.99401,359.644 376.18301,356.834 376.18301,353.372 C 376.18301,349.91 378.99401,347.099 382.45601,347.099 C 385.91801,347.099 388.72901,349.909 388.72901,353.372 L 388.72901,353.372 z"
   id="path377"
   style="fill:#ffffff" />
<path
   stroke-miterlimit="10"
   d="M 388.72901,353.372 C 388.72901,356.835 385.91801,359.644 382.45601,359.644 C 378.99401,359.644 376.18301,356.834 376.18301,353.372 C 376.18301,349.91 378.99401,347.099 382.45601,347.099 C 385.91801,347.099 388.72901,349.909 388.72901,353.372 L 388.72901,353.372 z"
   id="path379"
   style="fill:none;stroke:#000000;stroke-width:1.60000002;stroke-linecap:round;stroke-miterlimit:10" />

<polygon
   clip-rule="evenodd"
   points="159.52,373.734 152.501,367.226 159.975,364.159 159.52,373.734 "
   id="polygon383"
   style="fill-rule:evenodd"
   transform="translate(5.5536396e-6,1.3841884e-8)" />
<polygon
   stroke-miterlimit="10"
   points="159.52,373.734 152.501,367.226 159.975,364.159 159.52,373.734 "
   id="polygon385"
   style="fill:none;stroke:#000000;stroke-width:1.60000002;stroke-miterlimit:10"
   transform="translate(5.5536396e-6,1.3841884e-8)" />




<polygon
   clip-rule="evenodd"
   points="342.287,373.734 335.269,367.226 342.743,364.159 342.287,373.734 "
   id="polygon395"
   style="fill-rule:evenodd"
   transform="translate(5.5536396e-6,1.3841884e-8)" />
<polygon
   stroke-miterlimit="10"
   points="342.287,373.734 335.269,367.226 342.743,364.159 342.287,373.734 "
   id="polygon397"
   style="fill:none;stroke:#000000;stroke-width:1.60000002;stroke-miterlimit:10"
   transform="translate(5.5536396e-6,1.3841884e-8)" />



<path
   clip-rule="evenodd"
   d="M 306.60701,326.801 C 306.60701,329.49 304.42401,331.673 301.73501,331.673 C 299.04501,331.673 296.86201,329.49 296.86201,326.801 C 296.86201,324.112 299.04501,321.929 301.73501,321.929 C 304.42501,321.929 306.60701,324.111 306.60701,326.801 L 306.60701,326.801 z"
   id="path405"
   style="fill:#ffffff;fill-rule:evenodd" />
<path
   stroke-miterlimit="10"
   d="M 306.60701,326.801 C 306.60701,329.49 304.42401,331.673 301.73501,331.673 C 299.04501,331.673 296.86201,329.49 296.86201,326.801 C 296.86201,324.112 299.04501,321.929 301.73501,321.929 C 304.42501,321.929 306.60701,324.111 306.60701,326.801 L 306.60701,326.801 z"
   id="path407"
   style="fill:none;stroke:#000000;stroke-width:1.60000002;stroke-miterlimit:10" />

<polyline
   id="polyline2917"
   points="384.885,335.749 389.31,335.749 389.31,336.546 385.832,336.546 385.832,338.618 389.164,338.618 389.164,339.415   385.832,339.415 385.832,341.95 389.395,341.95 389.395,342.747 384.885,342.747 384.885,335.749 "
   transform="translate(-363.59672,0.3419008)" /><path
   id="path2919"
   d="M 30.681276,339.8079 C 30.884276,339.8769 31.081276,340.0239 31.272276,340.2489 C 31.465276,340.4739 31.660276,340.7829 31.853276,341.1769 L 32.814276,343.0889 L 31.797276,343.0889 L 30.901276,341.2939 C 30.670276,340.8249 30.445276,340.5149 30.226276,340.3609 C 30.010276,340.2079 29.714276,340.1319 29.339276,340.1319 L 28.308276,340.1319 L 28.308276,343.0889 L 27.362276,343.0889 L 27.362276,336.0909 L 29.500276,336.0909 C 30.300276,336.0909 30.896276,336.2579 31.290276,336.5929 C 31.684276,336.9269 31.881276,337.4319 31.881276,338.1069 C 31.881276,338.5469 31.777276,338.9139 31.571276,339.2039 C 31.369276,339.4939 31.072276,339.6959 30.681276,339.8079 M 28.309276,336.8689 L 28.309276,339.3529 L 29.500276,339.3529 C 29.956276,339.3529 30.300276,339.2489 30.531276,339.0389 C 30.765276,338.8269 30.883276,338.5159 30.883276,338.1059 C 30.883276,337.6959 30.766276,337.3889 30.531276,337.1819 C 30.300276,336.9729 29.956276,336.8689 29.500276,336.8689 L 28.309276,336.8689" /><polyline
   id="polyline2921"
   points="397.635,335.749 398.582,335.749 398.582,338.707 401.723,335.749 402.941,335.749 399.468,339.012   403.189,342.747 401.942,342.747 398.582,339.377 398.582,342.747 397.635,342.747 397.635,335.749 "
   transform="translate(-363.59672,0.3419008)" /><text
   xml:space="preserve"
   style="font-size:8px;font-style:normal;font-variant:normal;font-weight:normal;font-stretch:normal;text-align:start;line-height:125%;writing-mode:lr-tb;text-anchor:start;fill:#000000;fill-opacity:1;stroke:none;stroke-width:1px;stroke-linecap:butt;stroke-linejoin:miter;stroke-opacity:1;font-family:Arial"
   x="377.75317"
   y="356.22958"
   id="text2363"
   sodipodi:linespacing="125%"><tspan
     sodipodi:role="line"
     id="tspan2365"
     x="377.75317"
     y="356.22958">2P</tspan></text>



<text
   xml:space="preserve"
   style="font-size:8px;font-style:normal;font-variant:normal;font-weight:normal;font-stretch:normal;text-align:start;line-height:125%;writing-mode:lr-tb;text-anchor:start;fill:#000000;fill-opacity:1;stroke:none;font-family:Arial"
   x="391.24081"
   y="211.73085"
   id="text2367"
   sodipodi:linespacing="125%"><tspan
     sodipodi:role="line"
     id="tspan2369"
     x="391.24081"
     y="211.73085">2P</tspan></text>



<path
   style="fill:none;stroke:#000000;stroke-width:1.59668469;stroke-linecap:butt;stroke-linejoin:miter;stroke-miterlimit:4;stroke-opacity:1;stroke-dasharray:none"
   d="m 304.77446,77.624685 0,99.279815"
   id="path3928" /><path
   id="path3930"
   d="m 283.1877,77.438444 0,76.119306"
   style="fill:none;stroke:#000000;stroke-width:1.59668465;stroke-linecap:butt;stroke-linejoin:miter;stroke-miterlimit:4;stroke-opacity:1;stroke-dasharray:none" /><path
   style="fill:none;stroke:#000000;stroke-width:1.59668465;stroke-linecap:butt;stroke-linejoin:miter;stroke-miterlimit:4;stroke-opacity:1;stroke-dasharray:none"
   d="m 118.4126,153.41944 164.35568,0"
   id="path3932" /><path
   id="path3934"
   d="m 119.14423,177.31867 0,-23.89777"
   style="fill:none;stroke:#000000;stroke-width:1.59668465;stroke-linecap:butt;stroke-linejoin:miter;stroke-miterlimit:4;stroke-opacity:1;stroke-dasharray:none" /><path
   id="path3936"
   d="m 406.56332,209.3514 0,99.27986"
   style="fill:none;stroke:#000000;stroke-width:1.59668469;stroke-linecap:butt;stroke-linejoin:miter;stroke-miterlimit:4;stroke-opacity:1;stroke-dasharray:none" /><path
   style="fill:none;stroke:#000000;stroke-width:1.59668465;stroke-linecap:butt;stroke-linejoin:miter;stroke-miterlimit:4;stroke-opacity:1;stroke-dasharray:none"
   d="m 384.97656,209.2221 0,81.54174"
   id="path3938" /><path
   id="path3940"
   d="m 118.25992,289.82629 266.32194,0"
   style="fill:none;stroke:#000000;stroke-width:1.59668465;stroke-linecap:butt;stroke-linejoin:miter;stroke-miterlimit:4;stroke-opacity:1;stroke-dasharray:none" /><path
   style="fill:none;stroke:#000000;stroke-width:1.59668465;stroke-linecap:butt;stroke-linejoin:miter;stroke-miterlimit:4;stroke-opacity:1;stroke-dasharray:none"
   d="m 119.14423,321.40758 0,-31.99761"
   id="path3942" /><path
   style="fill:none;stroke:#000000;stroke-width:1.59668465;stroke-linecap:butt;stroke-linejoin:miter;stroke-miterlimit:4;stroke-opacity:1;stroke-dasharray:none"
   d="m 301.15194,308.14068 105.64484,0"
   id="path3944" /><path
   id="path3946"
   d="m 301.64868,321.46165 0,-13.66147"
   style="fill:none;stroke:#000000;stroke-width:1.59668465;stroke-linecap:butt;stroke-linejoin:miter;stroke-miterlimit:4;stroke-opacity:1;stroke-dasharray:none" /></svg>