<?xml version="1.0" encoding="UTF-8" standalone="no"?>
<!-- Created with Bouml (http://bouml.free.fr/) -->
<!DOCTYPE svg PUBLIC "-//W3C//DTD SVG 1.1//EN" "http://www.w3.org/Graphics/SVG/1.1/DTD/svg11.dtd">
<svg width="991" height="395" version="1.1" xmlns="http://www.w3.org/2000/svg">
<g>
	<rect fill="#808080" stroke="none" stroke-opacity="1" x="363" y="109" width="3" height="73" />
	<rect fill="#808080" stroke="none" stroke-opacity="1" x="225" y="179" width="141" height="3" />
	<rect fill="#ffffff" stroke="black" stroke-width="1" stroke-opacity="1" x="221" y="105" width="142" height="74" />
	<text font-family="Helvetica" font-size="15" fill="#000000" xml:space="preserve" font-weight="bold" font-style="italic" text-anchor="middle" x="292" y="122">CrossReference</text>
	<line stroke="black" stroke-opacity="1" x1="221" y1="125" x2="363" y2="125" />
	<text font-family="Helvetica" font-size="15" fill="#000000" xml:space="preserve" x="225" y="142">reference_id : string</text>
	<line stroke="black" stroke-opacity="1" x1="221" y1="145" x2="363" y2="145" />
</g>
<g>
	<rect fill="#808080" stroke="none" stroke-opacity="1" x="140" y="125" width="3" height="35" />
	<rect fill="#808080" stroke="none" stroke-opacity="1" x="46" y="157" width="97" height="3" />
	<rect fill="#ffffff" stroke="black" stroke-width="1" stroke-opacity="1" x="42" y="121" width="98" height="36" />
	<text font-family="Helvetica" font-size="15" fill="#000000" xml:space="preserve" font-weight="bold" font-style="italic" text-anchor="middle" x="91" y="138">AuxiliaryUnit</text>
	<line stroke="black" stroke-opacity="1" x1="42" y1="141" x2="140" y2="141" />
	<line stroke="black" stroke-opacity="1" x1="42" y1="149" x2="140" y2="149" />
</g>
<g>
	<rect fill="#808080" stroke="none" stroke-opacity="1" x="873" y="229" width="3" height="35" />
	<rect fill="#808080" stroke="none" stroke-opacity="1" x="783" y="261" width="93" height="3" />
	<rect fill="#ffffff" stroke="black" stroke-width="1" stroke-opacity="1" x="779" y="225" width="94" height="36" />
	<text font-family="Helvetica" font-size="15" fill="#000000" xml:space="preserve" font-weight="bold" font-style="italic" text-anchor="middle" x="826" y="242">SBGNGlyph</text>
	<line stroke="black" stroke-opacity="1" x1="779" y1="245" x2="873" y2="245" />
	<line stroke="black" stroke-opacity="1" x1="779" y1="253" x2="873" y2="253" />
</g>
<g>
	<rect fill="#808080" stroke="none" stroke-opacity="1" x="239" y="340" width="3" height="35" />
	<rect fill="#808080" stroke="none" stroke-opacity="1" x="111" y="372" width="131" height="3" />
	<rect fill="#ffffff" stroke="black" stroke-width="1" stroke-opacity="1" x="107" y="336" width="132" height="36" />
	<text font-family="Helvetica" font-size="15" fill="#000000" xml:space="preserve" font-weight="bold" text-anchor="middle" x="173" y="353">SubmapTerminal</text>
	<line stroke="black" stroke-opacity="1" x1="107" y1="356" x2="239" y2="356" />
	<line stroke="black" stroke-opacity="1" x1="107" y1="364" x2="239" y2="364" />
</g>
<g>
	<rect fill="#808080" stroke="none" stroke-opacity="1" x="611" y="347" width="3" height="35" />
	<rect fill="#808080" stroke="none" stroke-opacity="1" x="575" y="379" width="39" height="3" />
	<rect fill="#ffffff" stroke="black" stroke-width="1" stroke-opacity="1" x="571" y="343" width="40" height="36" />
	<text font-family="Helvetica" font-size="15" fill="#000000" xml:space="preserve" font-weight="bold" text-anchor="middle" x="591" y="360">Tag</text>
	<line stroke="black" stroke-opacity="1" x1="571" y1="363" x2="611" y2="363" />
	<line stroke="black" stroke-opacity="1" x1="571" y1="371" x2="611" y2="371" />
</g>
<g>
	<line stroke="black" stroke-opacity="1" x1="142" y1="335" x2="142" y2="306" />
</g>
<g>
	<line stroke="black" stroke-opacity="1" x1="142" y1="306" x2="92" y2="306" />
</g>
<g>
	<line stroke="black" stroke-opacity="1" x1="92" y1="306" x2="92" y2="167" />
	<line stroke="black" stroke-opacity="1" x1="92" y1="161" x2="86" y2="167" />
	<line stroke="black" stroke-opacity="1" x1="92" y1="161" x2="98" y2="167" />
	<line stroke="black" stroke-opacity="1" x1="86" y1="167" x2="98" y2="167" />
</g>
<g>
	<line stroke="black" stroke-opacity="1" x1="205" y1="335" x2="205" y2="306" />
</g>
<g>
	<line stroke="black" stroke-opacity="1" x1="205" y1="306" x2="294" y2="306" />
</g>
<g>
	<line stroke="black" stroke-opacity="1" x1="294" y1="306" x2="294" y2="189" />
	<line stroke="black" stroke-opacity="1" x1="294" y1="183" x2="288" y2="189" />
	<line stroke="black" stroke-opacity="1" x1="294" y1="183" x2="300" y2="189" />
	<line stroke="black" stroke-opacity="1" x1="288" y1="189" x2="300" y2="189" />
</g>
<g>
	<line stroke="black" stroke-opacity="1" x1="607" y1="342" x2="607" y2="304" />
</g>
<g>
	<line stroke="black" stroke-opacity="1" x1="607" y1="304" x2="828" y2="304" />
</g>
<g>
	<line stroke="black" stroke-opacity="1" x1="828" y1="304" x2="828" y2="271" />
	<line stroke="black" stroke-opacity="1" x1="828" y1="265" x2="822" y2="271" />
	<line stroke="black" stroke-opacity="1" x1="828" y1="265" x2="834" y2="271" />
	<line stroke="black" stroke-opacity="1" x1="822" y1="271" x2="834" y2="271" />
</g>
<g>
	<line stroke="black" stroke-opacity="1" x1="580" y1="342" x2="580" y2="306" />
</g>
<g>
	<line stroke="black" stroke-opacity="1" x1="580" y1="306" x2="294" y2="306" />
</g>
<g>
	<line stroke="black" stroke-opacity="1" x1="294" y1="306" x2="294" y2="189" />
	<line stroke="black" stroke-opacity="1" x1="294" y1="183" x2="288" y2="189" />
	<line stroke="black" stroke-opacity="1" x1="294" y1="183" x2="300" y2="189" />
	<line stroke="black" stroke-opacity="1" x1="288" y1="189" x2="300" y2="189" />
</g>
<g>
	<text font-family="Helvetica" font-size="15" fill="#000000" xml:space="preserve" x="794" y="123">ref_epn</text>
</g>
<g>
	<text font-family="Helvetica" font-size="15" fill="#000000" xml:space="preserve" x="548" y="238">owning_map</text>
</g>
<g>
	<text font-family="Helvetica" font-size="15" fill="#000000" xml:space="preserve" x="548" y="267">1</text>
</g>
<g>
	<text font-family="Helvetica" font-size="15" fill="#000000" xml:space="preserve" x="705" y="238">elements</text>
</g>
<g>
	<text font-family="Helvetica" font-size="15" fill="#000000" xml:space="preserve" x="762" y="267">*</text>
</g>
<g>
	<text font-family="Helvetica" font-size="15" fill="#000000" xml:space="preserve" x="377" y="168">cross_references</text>
</g>
<g>
	<text font-family="Helvetica" font-size="15" fill="#000000" xml:space="preserve" x="377" y="141">1</text>
</g>
<g>
	<text font-family="Helvetica" font-size="15" fill="#000000" xml:space="preserve" x="838" y="152">1</text>
</g>
<g>
	<text font-family="Helvetica" font-size="15" fill="#000000" xml:space="preserve" x="726" y="152">*</text>
</g>
<g>
	<text font-family="Helvetica" font-size="15" fill="#000000" xml:space="preserve" x="377" y="197">*</text>
</g>
<g>
	<text font-family="Helvetica" font-size="15" fill="#000000" xml:space="preserve" x="396" y="238">owning_map</text>
</g>
<g>
	<text font-family="Helvetica" font-size="15" fill="#000000" xml:space="preserve" x="495" y="124">equivalence</text>
</g>
<g>
	<text font-family="Helvetica" font-size="15" fill="#000000" xml:space="preserve" x="571" y="153">1</text>
</g>
<g>
	<text font-family="Helvetica" font-size="15" fill="#000000" xml:space="preserve" x="377" y="112">crossref</text>
</g>
<g>
	<text font-family="Helvetica" font-size="15" fill="#000000" xml:space="preserve" x="475" y="267">1</text>
</g>
<g>
	<rect fill="#808080" stroke="none" stroke-opacity="1" x="534" y="228" width="3" height="35" />
	<rect fill="#808080" stroke="none" stroke-opacity="1" x="498" y="260" width="39" height="3" />
	<rect fill="#ffffff" stroke="black" stroke-width="1" stroke-opacity="1" x="494" y="224" width="40" height="36" />
	<text font-family="Helvetica" font-size="15" fill="#000000" xml:space="preserve" font-weight="bold" text-anchor="middle" x="514" y="241">Map</text>
	<line stroke="black" stroke-opacity="1" x1="494" y1="244" x2="534" y2="244" />
	<line stroke="black" stroke-opacity="1" x1="494" y1="252" x2="534" y2="252" />
</g>
<g>
	<rect fill="#808080" stroke="none" stroke-opacity="1" x="712" y="114" width="3" height="35" />
	<rect fill="#808080" stroke="none" stroke-opacity="1" x="594" y="146" width="121" height="3" />
	<rect fill="#ffffff" stroke="black" stroke-width="1" stroke-opacity="1" x="590" y="110" width="122" height="36" />
	<text font-family="Helvetica" font-size="15" fill="#000000" xml:space="preserve" font-weight="bold" text-anchor="middle" x="651" y="127">EquivalenceArc</text>
	<line stroke="black" stroke-opacity="1" x1="590" y1="130" x2="712" y2="130" />
	<line stroke="black" stroke-opacity="1" x1="590" y1="138" x2="712" y2="138" />
</g>
<g>
	<line stroke="black" stroke-opacity="1" x1="538" y1="244" x2="778" y2="244" />
	<polygon fill="#000000" stroke="black" stroke-opacity="1" points="538,244 544,238 550,244 544,250" />
</g>
<g>
	<line stroke="black" stroke-opacity="1" x1="493" y1="244" x2="430" y2="244" />
	<polygon fill="#ffffff" stroke="black" stroke-opacity="1" points="493,244 487,250 481,244 487,238" />
</g>
<g>
	<line stroke="black" stroke-opacity="1" x1="653" y1="150" x2="653" y2="187" />
</g>
<g>
	<line stroke="black" stroke-opacity="1" x1="653" y1="187" x2="828" y2="187" />
</g>
<g>
	<line stroke="black" stroke-opacity="1" x1="828" y1="187" x2="828" y2="218" />
	<line stroke="black" stroke-opacity="1" x1="828" y1="224" x2="834" y2="218" />
	<line stroke="black" stroke-opacity="1" x1="828" y1="224" x2="822" y2="218" />
	<line stroke="black" stroke-opacity="1" x1="834" y1="218" x2="822" y2="218" />
</g>
<g>
	<line stroke="black" stroke-opacity="1" x1="589" y1="130" x2="478" y2="130" />
	<polygon fill="#ffffff" stroke="black" stroke-opacity="1" points="589,130 583,136 577,130 583,124" />
</g>
<g>
	<line stroke="black" stroke-opacity="1" x1="478" y1="130" x2="478" y2="118" />
</g>
<g>
	<line stroke="black" stroke-opacity="1" x1="430" y1="244" x2="430" y2="174" />
</g>
<g>
	<line stroke="black" stroke-opacity="1" x1="430" y1="174" x2="367" y2="174" />
</g>
<g>
	<line stroke="black" stroke-opacity="1" x1="478" y1="118" x2="367" y2="118" />
</g>
<g>
	<rect fill="#808080" stroke="none" stroke-opacity="1" x="975" y="107" width="3" height="47" />
	<rect fill="#808080" stroke="none" stroke-opacity="1" x="861" y="151" width="117" height="3" />
	<rect fill="#ffffff" stroke="black" stroke-width="1" stroke-opacity="1" x="857" y="103" width="118" height="48" />
	<text font-family="Helvetica" font-size="15" fill="#000000" xml:space="preserve" font-weight="bold" font-style="italic" text-anchor="middle" x="916" y="120">EntityPoolNode</text>
	<line stroke="black" stroke-opacity="1" x1="857" y1="123" x2="975" y2="123" />
	<text font-family="Helvetica" font-size="15" fill="#000000" xml:space="preserve" x="861" y="140">cardinality : int</text>
	<line stroke="black" stroke-opacity="1" x1="857" y1="143" x2="975" y2="143" />
</g>
<g>
	<line stroke="black" stroke-opacity="1" x1="716" y1="129" x2="786" y2="129" />
</g>
<g>
	<line stroke="black" stroke-opacity="1" x1="856" y1="129" x2="850" y2="123" />
	<line stroke="black" stroke-opacity="1" x1="856" y1="129" x2="850" y2="135" />
	<line stroke="black" stroke-opacity="1" x1="786" y1="129" x2="856" y2="129" />
</g>
</svg>
