<?xml version="1.0" encoding="UTF-8"?><svg xmlns="http://www.w3.org/2000/svg" xmlns:xlink="http://www.w3.org/1999/xlink" fill-opacity="1" color-rendering="auto" color-interpolation="auto" text-rendering="auto" stroke="black" stroke-linecap="square" width="232" stroke-miterlimit="10" shape-rendering="auto" stroke-opacity="1" fill="black" stroke-dasharray="none" font-weight="normal" stroke-width="1" height="110" font-family="'Dialog'" font-style="normal" stroke-linejoin="miter" font-size="12px" stroke-dashoffset="0" image-rendering="auto">
  <!--Generated by ySVG 2.5-->
  <defs id="genericDefs"/>
  <g>
    <defs id="defs1">
      <clipPath clipPathUnits="userSpaceOnUse" id="clipPath1">
        <path d="M0 0 L232 0 L232 110 L0 110 L0 0 Z"/>
      </clipPath>
      <clipPath clipPathUnits="userSpaceOnUse" id="clipPath2">
        <path d="M418 143 L650 143 L650 253 L418 253 L418 143 Z"/>
      </clipPath>
    </defs>
    <g fill="white" text-rendering="geometricPrecision" shape-rendering="geometricPrecision" transform="translate(-418,-143)" stroke="white">
      <rect x="418" width="232" height="110" y="143" clip-path="url(#clipPath2)" stroke="none"/>
    </g>
    <g fill="rgb(255,255,200)" text-rendering="geometricPrecision" shape-rendering="geometricPrecision" transform="matrix(1,0,0,1,-418,-143)" stroke="rgb(255,255,200)">
      <circle r="40" clip-path="url(#clipPath2)" cx="535.5" cy="198" stroke="none"/>
    </g>
    <g text-rendering="geometricPrecision" stroke-miterlimit="1.45" stroke-width="5" shape-rendering="geometricPrecision" transform="matrix(1,0,0,1,-418,-143)" stroke-linecap="butt">
      <circle fill="none" r="40" clip-path="url(#clipPath2)" cx="535.5" cy="198"/>
    </g>
    <g font-size="40px" stroke-linecap="butt" transform="matrix(1,0,0,1,-418,-143)" text-rendering="geometricPrecision" font-family="sans-serif" shape-rendering="geometricPrecision" font-weight="bold" stroke-miterlimit="1.45">
      <text x="523.332" xml:space="preserve" y="213.1172" clip-path="url(#clipPath2)" stroke="none">Ξ</text>
    </g>
    <g fill="rgb(153,153,153)" text-rendering="geometricPrecision" shape-rendering="geometricPrecision" transform="matrix(1,0,0,1,-418,-143)" stroke="rgb(153,153,153)">
      <rect x="592.0979" width="1" height="2" y="197" clip-path="url(#clipPath2)" stroke="none"/>
      <rect stroke-linecap="butt" x="592.0979" y="197" clip-path="url(#clipPath2)" fill="none" width="1" height="2" stroke-miterlimit="1.45"/>
      <rect x="482.4102" width="1" height="2" y="197" clip-path="url(#clipPath2)" stroke="none"/>
      <rect stroke-linecap="butt" x="482.4102" y="197" clip-path="url(#clipPath2)" fill="none" width="1" height="2" stroke-miterlimit="1.45"/>
    </g>
    <g text-rendering="geometricPrecision" stroke-miterlimit="1.45" stroke-width="5" shape-rendering="geometricPrecision" transform="matrix(1,0,0,1,-418,-143)" stroke-linecap="butt">
      <path fill="none" d="M575.5 198 L587.6116 198" clip-path="url(#clipPath2)"/>
      <path fill="none" d="M495.5 198 L483.4102 198" clip-path="url(#clipPath2)"/>
      <path fill="none" d="M482.4102 197.7613 L437.2513 176.2024" stroke-width="3" clip-path="url(#clipPath2)" stroke="rgb(153,153,153)"/>
      <path fill="none" d="M482.4102 198.2402 L437.2513 219.9342" stroke-width="3" clip-path="url(#clipPath2)" stroke="rgb(153,153,153)"/>
      <path fill="none" d="M587.8303 198 L630.7487 198" stroke-width="3" clip-path="url(#clipPath2)" stroke="rgb(153,153,153)"/>
    </g>
  </g>
</svg>
