<?xml version="1.0" encoding="utf-8"?>
<!-- Generator: Adobe Illustrator 13.0.2, SVG Export Plug-In . SVG Version: 6.00 Build 14948)  -->
<!DOCTYPE svg PUBLIC "-//W3C//DTD SVG 1.1//EN" "http://www.w3.org/Graphics/SVG/1.1/DTD/svg11.dtd">
<svg version="1.1" id="Ebene_1" xmlns="http://www.w3.org/2000/svg" xmlns:xlink="http://www.w3.org/1999/xlink" x="0px" y="0px"
	 width="784.043px" height="246.043px" viewBox="0 0 784.043 246.043" enable-background="new 0 0 784.043 246.043"
	 xml:space="preserve">
<rect x="392.021" y="1.021" fill="#FFFFFF" stroke="#000000" stroke-width="2.0425" width="391" height="244"/>
<rect x="1.021" y="1.021" fill="#FFFFFF" stroke="#000000" stroke-width="2.0425" width="391" height="244"/>
<text transform="matrix(0.9448 0 0 1 138.2654 228.1016)" font-family="'ArialMT'" font-size="27.2107">wrong</text>
<text transform="matrix(0.9448 0 0 1 572.2659 228.1016)" font-family="'ArialMT'" font-size="27.2107">correct</text>
<path id="path3200" fill="none" stroke="#000000" stroke-width="3" d="M37.515,88.068h128.007"/>
<path id="path3200_1_" fill="none" stroke="#000000" stroke-width="3" d="M37.515,91.068h128.007"/>
<path id="path3200_2_" fill="none" stroke="#000000" stroke-width="3" d="M203.515,90.068h128.007"/>
<path id="path3200_5_" fill="none" stroke="#000000" stroke-width="3" d="M226.336,90.828l-0.056,25.291"/>
<path id="path3200_3_" fill="none" stroke="#000000" stroke-width="3" d="M312.336,90.828l-0.056,25.291"/>
<path id="path3200_4_" fill="none" stroke="#000000" stroke-width="3" d="M433.515,90.068h128.007"/>
<path id="path3200_6_" fill="none" stroke="#000000" stroke-width="3" d="M433.515,101.068h128.007"/>
<path id="path3200_8_" fill="none" stroke="#000000" stroke-width="3" d="M606.515,90.068h128.007"/>
<path id="path3200_9_" fill="none" stroke="#000000" stroke-width="3" d="M631.336,99.828l-0.056,25.291"/>
<path id="path3200_7_" fill="none" stroke="#000000" stroke-width="3" d="M717.336,99.828l-0.056,25.291"/>
<path id="path3200_10_" fill="none" stroke="#000000" stroke-width="3" d="M630.515,101.068h86.007"/>
</svg>
