<?xml version="1.0" encoding="UTF-8" standalone="no"?>
<!-- Created with Bouml (http://bouml.free.fr/) -->
<!DOCTYPE svg PUBLIC "-//W3C//DTD SVG 1.1//EN" "http://www.w3.org/Graphics/SVG/1.1/DTD/svg11.dtd">
<svg width="576" height="316" version="1.1" xmlns="http://www.w3.org/2000/svg">
<g>
	<rect fill="#808080" stroke="none" stroke-opacity="1" x="413" y="256" width="3" height="47" />
	<rect fill="#808080" stroke="none" stroke-opacity="1" x="261" y="300" width="155" height="3" />
	<rect fill="#ffffff" stroke="black" stroke-width="1" stroke-opacity="1" x="257" y="252" width="156" height="48" />
	<text font-family="Helvetica" font-size="15" fill="#000000" xml:space="preserve" font-weight="bold" text-anchor="middle" x="335" y="269">LogicalOperator</text>
	<line stroke="black" stroke-opacity="1" x1="257" y1="272" x2="413" y2="272" />
	<text font-family="Helvetica" font-size="15" fill="#000000" xml:space="preserve" x="261" y="289">operator_type : enum</text>
	<line stroke="black" stroke-opacity="1" x1="257" y1="292" x2="413" y2="292" />
</g>
<g>
	<rect fill="#808080" stroke="none" stroke-opacity="1" x="437" y="156" width="3" height="35" />
	<rect fill="#808080" stroke="none" stroke-opacity="1" x="235" y="188" width="205" height="3" />
	<rect fill="#ffffff" stroke="black" stroke-width="1" stroke-opacity="1" x="231" y="152" width="206" height="36" />
	<text font-family="Helvetica" font-size="15" fill="#000000" xml:space="preserve" font-weight="bold" text-anchor="middle" x="334" y="169">NonStoichiometricProcess</text>
	<line stroke="black" stroke-opacity="1" x1="231" y1="172" x2="437" y2="172" />
	<line stroke="black" stroke-opacity="1" x1="231" y1="180" x2="437" y2="180" />
</g>
<g>
	<line stroke="black" stroke-opacity="1" x1="336" y1="251" x2="336" y2="198" />
	<line stroke="black" stroke-opacity="1" x1="336" y1="192" x2="330" y2="198" />
	<line stroke="black" stroke-opacity="1" x1="336" y1="192" x2="342" y2="198" />
	<line stroke="black" stroke-opacity="1" x1="330" y1="198" x2="342" y2="198" />
</g>
<g>
	<rect fill="#808080" stroke="none" stroke-opacity="1" x="197" y="255" width="3" height="47" />
	<rect fill="#808080" stroke="none" stroke-opacity="1" x="29" y="299" width="171" height="3" />
	<rect fill="#ffffff" stroke="black" stroke-width="1" stroke-opacity="1" x="25" y="251" width="172" height="48" />
	<text font-family="Helvetica" font-size="15" fill="#000000" xml:space="preserve" font-weight="bold" text-anchor="middle" x="111" y="268">ModulationArc</text>
	<line stroke="black" stroke-opacity="1" x1="25" y1="271" x2="197" y2="271" />
	<text font-family="Helvetica" font-size="15" fill="#000000" xml:space="preserve" x="29" y="288">modulation_type : enum</text>
	<line stroke="black" stroke-opacity="1" x1="25" y1="291" x2="197" y2="291" />
</g>
<g>
	<rect fill="#808080" stroke="none" stroke-opacity="1" x="560" y="263" width="3" height="35" />
	<rect fill="#808080" stroke="none" stroke-opacity="1" x="488" y="295" width="75" height="3" />
	<rect fill="#ffffff" stroke="black" stroke-width="1" stroke-opacity="1" x="484" y="259" width="76" height="36" />
	<text font-family="Helvetica" font-size="15" fill="#000000" xml:space="preserve" font-weight="bold" text-anchor="middle" x="522" y="276">LogicArc</text>
	<line stroke="black" stroke-opacity="1" x1="484" y1="279" x2="560" y2="279" />
	<line stroke="black" stroke-opacity="1" x1="484" y1="287" x2="560" y2="287" />
</g>
<g>
	<line stroke="black" stroke-opacity="1" x1="201" y1="277" x2="207" y2="283" />
	<line stroke="black" stroke-opacity="1" x1="201" y1="277" x2="207" y2="271" />
	<line stroke-dasharray="4,4" stroke="black" stroke-opacity="1" x1="256" y1="277" x2="201" y2="277" />
</g>
<g>
	<line stroke="black" stroke-opacity="1" x1="417" y1="290" x2="423" y2="296" />
	<line stroke="black" stroke-opacity="1" x1="417" y1="290" x2="423" y2="284" />
	<line stroke-dasharray="4,4" stroke="black" stroke-opacity="1" x1="483" y1="290" x2="417" y2="290" />
</g>
<g>
	<line stroke="black" stroke-opacity="1" x1="483" y1="267" x2="476" y2="261" />
	<line stroke="black" stroke-opacity="1" x1="483" y1="267" x2="477" y2="273" />
	<line stroke-dasharray="4,4" stroke="black" stroke-opacity="1" x1="417" y1="268" x2="483" y2="267" />
</g>
</svg>
