<?xml version="1.0" encoding="UTF-8" standalone="no"?>
<!-- Created with Bouml (http://bouml.free.fr/) -->
<!DOCTYPE svg PUBLIC "-//W3C//DTD SVG 1.1//EN" "http://www.w3.org/Graphics/SVG/1.1/DTD/svg11.dtd">
<svg width="805" height="355" version="1.1" xmlns="http://www.w3.org/2000/svg">
<g>
	<rect fill="#808080" stroke="none" stroke-opacity="1" x="440" y="283" width="3" height="35" />
	<rect fill="#808080" stroke="none" stroke-opacity="1" x="368" y="315" width="75" height="3" />
	<rect fill="#ffffff" stroke="black" stroke-width="1" stroke-opacity="1" x="364" y="279" width="76" height="36" />
	<text font-family="Helvetica" font-size="15" fill="#000000" xml:space="preserve" font-weight="bold" text-anchor="middle" x="402" y="296">LogicArc</text>
	<line stroke="black" stroke-opacity="1" x1="364" y1="299" x2="440" y2="299" />
	<line stroke="black" stroke-opacity="1" x1="364" y1="307" x2="440" y2="307" />
</g>
<g>
	<rect fill="#808080" stroke="none" stroke-opacity="1" x="789" y="279" width="3" height="47" />
	<rect fill="#808080" stroke="none" stroke-opacity="1" x="637" y="323" width="155" height="3" />
	<rect fill="#ffffff" stroke="black" stroke-width="1" stroke-opacity="1" x="633" y="275" width="156" height="48" />
	<text font-family="Helvetica" font-size="15" fill="#000000" xml:space="preserve" font-weight="bold" text-anchor="middle" x="711" y="292">LogicalOperator</text>
	<line stroke="black" stroke-opacity="1" x1="633" y1="295" x2="789" y2="295" />
	<text font-family="Helvetica" font-size="15" fill="#000000" xml:space="preserve" x="637" y="312">operator_type : enum</text>
	<line stroke="black" stroke-opacity="1" x1="633" y1="315" x2="789" y2="315" />
</g>
<g>
	<rect fill="#808080" stroke="none" stroke-opacity="1" x="443" y="124" width="3" height="71" />
	<rect fill="#808080" stroke="none" stroke-opacity="1" x="367" y="192" width="79" height="3" />
	<rect fill="#ffffff" stroke="black" stroke-width="1" stroke-opacity="1" x="363" y="120" width="80" height="72" />
	<text font-family="Helvetica" font-size="15" fill="#000000" xml:space="preserve" font-weight="bold" font-style="italic" text-anchor="middle" x="403" y="137">SBGNArc</text>
	<line stroke="black" stroke-opacity="1" x1="363" y1="140" x2="443" y2="140" />
	<line stroke="black" stroke-opacity="1" x1="363" y1="148" x2="443" y2="148" />
</g>
<g>
	<line stroke="black" stroke-opacity="1" x1="404" y1="278" x2="404" y2="202" />
	<line stroke="black" stroke-opacity="1" x1="404" y1="196" x2="398" y2="202" />
	<line stroke="black" stroke-opacity="1" x1="404" y1="196" x2="410" y2="202" />
	<line stroke="black" stroke-opacity="1" x1="398" y1="202" x2="410" y2="202" />
</g>
<g>
	<line stroke-dasharray="4,4" stroke="black" stroke-opacity="1" x1="632" y1="289" x2="540" y2="289" />
</g>
<g>
	<line stroke-dasharray="4,4" stroke="black" stroke-opacity="1" x1="444" y1="310" x2="538" y2="310" />
</g>
<g>
	<line stroke="black" stroke-opacity="1" x1="444" y1="289" x2="450" y2="295" />
	<line stroke="black" stroke-opacity="1" x1="444" y1="289" x2="450" y2="283" />
	<line stroke-dasharray="4,4" stroke="black" stroke-opacity="1" x1="540" y1="289" x2="444" y2="289" />
</g>
<g>
	<line stroke="black" stroke-opacity="1" x1="632" y1="310" x2="626" y2="304" />
	<line stroke="black" stroke-opacity="1" x1="632" y1="310" x2="626" y2="316" />
	<line stroke-dasharray="4,4" stroke="black" stroke-opacity="1" x1="538" y1="310" x2="632" y2="310" />
</g>
<g>
	<text font-family="Helvetica" font-size="15" fill="#000000" xml:space="preserve" x="157" y="181">out_node</text>
</g>
<g>
	<text font-family="Helvetica" font-size="15" fill="#000000" xml:space="preserve" x="346" y="210">*</text>
</g>
<g>
	<text font-family="Helvetica" font-size="15" fill="#000000" xml:space="preserve" x="346" y="151">*</text>
</g>
<g>
	<text font-family="Helvetica" font-size="15" fill="#000000" xml:space="preserve" x="157" y="122">in_node</text>
</g>
<g>
	<text font-family="Helvetica" font-size="15" fill="#000000" xml:space="preserve" x="293" y="181">out_arcs</text>
</g>
<g>
	<text font-family="Helvetica" font-size="15" fill="#000000" xml:space="preserve" x="157" y="151">1</text>
</g>
<g>
	<text font-family="Helvetica" font-size="15" fill="#000000" xml:space="preserve" x="303" y="122">in_arcs</text>
</g>
<g>
	<text font-family="Helvetica" font-size="15" fill="#000000" xml:space="preserve" x="157" y="210">1</text>
</g>
<g>
	<rect fill="#808080" stroke="none" stroke-opacity="1" x="143" y="124" width="3" height="71" />
	<rect fill="#808080" stroke="none" stroke-opacity="1" x="55" y="192" width="91" height="3" />
	<rect fill="#ffffff" stroke="black" stroke-width="1" stroke-opacity="1" x="51" y="120" width="92" height="72" />
	<text font-family="Helvetica" font-size="15" fill="#000000" xml:space="preserve" font-weight="bold" font-style="italic" text-anchor="middle" x="97" y="137">SBGNNode</text>
	<line stroke="black" stroke-opacity="1" x1="51" y1="140" x2="143" y2="140" />
	<line stroke="black" stroke-opacity="1" x1="51" y1="148" x2="143" y2="148" />
</g>
<g>
	<line stroke="black" stroke-opacity="1" x1="362" y1="187" x2="147" y2="187" />
</g>
<g>
	<line stroke="black" stroke-opacity="1" x1="362" y1="128" x2="147" y2="128" />
</g>
<g>
	<rect fill="#808080" stroke="none" stroke-opacity="1" x="157" y="259" width="3" height="83" />
	<rect fill="#808080" stroke="none" stroke-opacity="1" x="43" y="339" width="117" height="3" />
	<rect fill="#ffffff" stroke="black" stroke-width="1" stroke-opacity="1" x="39" y="255" width="118" height="84" />
	<text font-family="Helvetica" font-size="15" fill="#000000" xml:space="preserve" font-weight="bold" font-style="italic" text-anchor="middle" x="98" y="272">EntityPoolNode</text>
	<line stroke="black" stroke-opacity="1" x1="39" y1="275" x2="157" y2="275" />
	<text font-family="Helvetica" font-size="15" fill="#000000" xml:space="preserve" x="43" y="292">name : string</text>
	<text font-family="Helvetica" font-size="15" fill="#000000" xml:space="preserve" x="43" y="310">cardinality : int</text>
	<text font-family="Helvetica" font-size="15" fill="#000000" xml:space="preserve" x="43" y="328">natures : cv</text>
	<line stroke="black" stroke-opacity="1" x1="39" y1="331" x2="157" y2="331" />
</g>
<g>
	<line stroke="black" stroke-opacity="1" x1="99" y1="254" x2="99" y2="202" />
	<line stroke="black" stroke-opacity="1" x1="99" y1="196" x2="93" y2="202" />
	<line stroke="black" stroke-opacity="1" x1="99" y1="196" x2="105" y2="202" />
	<line stroke="black" stroke-opacity="1" x1="93" y1="202" x2="105" y2="202" />
</g>
<g>
	<line stroke="black" stroke-opacity="1" x1="161" y1="299" x2="167" y2="305" />
	<line stroke="black" stroke-opacity="1" x1="161" y1="299" x2="167" y2="293" />
	<line stroke-dasharray="4,4" stroke="black" stroke-opacity="1" x1="363" y1="299" x2="161" y2="299" />
</g>
</svg>
