<?xml version="1.0" encoding="UTF-8" standalone="no"?>
<!-- Created with Bouml (http://bouml.free.fr/) -->
<!DOCTYPE svg PUBLIC "-//W3C//DTD SVG 1.1//EN" "http://www.w3.org/Graphics/SVG/1.1/DTD/svg11.dtd">
<svg width="1440" height="945" version="1.1" xmlns="http://www.w3.org/2000/svg">
<g>
	<line stroke-dasharray="4,4" stroke="black" stroke-opacity="1" x1="1224" y1="367" x2="1197" y2="336" />
</g>
<g>
	<line stroke-dasharray="4,4" stroke="black" stroke-opacity="1" x1="1165" y1="215" x2="1164" y2="265" />
</g>
<g>
	<line stroke="black" stroke-opacity="1" x1="313" y1="553" x2="466" y2="577" />
	<line stroke="black" stroke-opacity="1" x1="472" y1="578" x2="467" y2="571" />
	<line stroke="black" stroke-opacity="1" x1="472" y1="578" x2="465" y2="582" />
	<line stroke="black" stroke-opacity="1" x1="467" y1="571" x2="465" y2="582" />
</g>
<g>
	<line stroke="black" stroke-opacity="1" x1="510" y1="894" x2="510" y2="818" />
	<line stroke="black" stroke-opacity="1" x1="510" y1="812" x2="504" y2="818" />
	<line stroke="black" stroke-opacity="1" x1="510" y1="812" x2="516" y2="818" />
	<line stroke="black" stroke-opacity="1" x1="504" y1="818" x2="516" y2="818" />
</g>
<g>
	<line stroke="black" stroke-opacity="1" x1="1018" y1="423" x2="958" y2="483" />
	<line stroke="black" stroke-opacity="1" x1="954" y1="488" x2="962" y2="487" />
	<line stroke="black" stroke-opacity="1" x1="954" y1="488" x2="953" y2="479" />
	<line stroke="black" stroke-opacity="1" x1="962" y1="487" x2="953" y2="479" />
</g>
<g>
	<line stroke="black" stroke-opacity="1" x1="790" y1="504" x2="910" y2="505" />
	<line stroke="black" stroke-opacity="1" x1="916" y1="506" x2="910" y2="499" />
	<line stroke="black" stroke-opacity="1" x1="916" y1="506" x2="909" y2="511" />
	<line stroke="black" stroke-opacity="1" x1="910" y1="499" x2="909" y2="511" />
</g>
<g>
	<line stroke="black" stroke-opacity="1" x1="496" y1="555" x2="438" y2="434" />
	<polygon fill="#ffffff" stroke="black" stroke-opacity="1" points="496,555 487,552 490,544 498,546" />
</g>
<g>
	<line stroke="black" stroke-opacity="1" x1="726" y1="720" x2="799" y2="720" />
	<polygon fill="#000000" stroke="black" stroke-opacity="1" points="726,720 732,714 738,720 732,726" />
</g>
<g>
	<line stroke="black" stroke-opacity="1" x1="372" y1="497" x2="466" y2="559" />
	<line stroke="black" stroke-opacity="1" x1="472" y1="563" x2="470" y2="554" />
	<line stroke="black" stroke-opacity="1" x1="472" y1="563" x2="463" y2="564" />
	<line stroke="black" stroke-opacity="1" x1="470" y1="554" x2="463" y2="564" />
</g>
<g>
	<line stroke="black" stroke-opacity="1" x1="1117" y1="530" x2="1117" y2="599" />
</g>
<g>
	<line stroke="black" stroke-opacity="1" x1="1117" y1="599" x2="940" y2="599" />
</g>
<g>
	<line stroke="black" stroke-opacity="1" x1="940" y1="599" x2="939" y2="525" />
</g>
<g>
	<line stroke="black" stroke-opacity="1" x1="473" y1="183" x2="431" y2="373" />
	<polygon fill="#ffffff" stroke="black" stroke-opacity="1" points="473,183 477,190 470,194 465,187" />
</g>
<g>
	<line stroke="black" stroke-opacity="1" x1="743" y1="573" x2="839" y2="574" />
</g>
<g>
	<line stroke="black" stroke-opacity="1" x1="839" y1="696" x2="845" y2="690" />
	<line stroke="black" stroke-opacity="1" x1="839" y1="696" x2="833" y2="690" />
	<line stroke="black" stroke-opacity="1" x1="839" y1="574" x2="839" y2="696" />
</g>
<g>
	<line stroke="black" stroke-opacity="1" x1="1086" y1="507" x2="961" y2="507" />
</g>
<g>
	<line stroke="black" stroke-opacity="1" x1="431" y1="218" x2="561" y2="211" />
	<line stroke="black" stroke-opacity="1" x1="567" y1="211" x2="560" y2="205" />
	<line stroke="black" stroke-opacity="1" x1="567" y1="211" x2="561" y2="217" />
	<line stroke="black" stroke-opacity="1" x1="560" y1="205" x2="561" y2="217" />
</g>
<g>
	<line stroke="black" stroke-opacity="1" x1="312" y1="221" x2="208" y2="221" />
	<polygon fill="#ffffff" stroke="black" stroke-opacity="1" points="312,221 306,227 300,221 306,215" />
</g>
<g>
	<line stroke="black" stroke-opacity="1" x1="208" y1="221" x2="207" y2="312" />
</g>
<g>
	<line stroke="black" stroke-opacity="1" x1="1321" y1="322" x2="1114" y2="274" />
	<line stroke="black" stroke-opacity="1" x1="1109" y1="273" x2="1113" y2="280" />
	<line stroke="black" stroke-opacity="1" x1="1109" y1="273" x2="1116" y2="268" />
	<line stroke="black" stroke-opacity="1" x1="1113" y1="280" x2="1116" y2="268" />
</g>
<g>
	<line stroke="black" stroke-opacity="1" x1="511" y1="775" x2="511" y2="622" />
	<line stroke="black" stroke-opacity="1" x1="511" y1="616" x2="505" y2="622" />
	<line stroke="black" stroke-opacity="1" x1="511" y1="616" x2="517" y2="622" />
	<line stroke="black" stroke-opacity="1" x1="505" y1="622" x2="517" y2="622" />
</g>
<g>
	<line stroke="black" stroke-opacity="1" x1="357" y1="497" x2="313" y2="606" />
	<line stroke="black" stroke-opacity="1" x1="311" y1="612" x2="318" y2="608" />
	<line stroke="black" stroke-opacity="1" x1="311" y1="612" x2="307" y2="604" />
	<line stroke="black" stroke-opacity="1" x1="318" y1="608" x2="307" y2="604" />
</g>
<g>
	<line stroke="black" stroke-opacity="1" x1="240" y1="100" x2="309" y2="82" />
	<line stroke="black" stroke-opacity="1" x1="315" y1="81" x2="307" y2="76" />
	<line stroke="black" stroke-opacity="1" x1="315" y1="81" x2="310" y2="88" />
	<line stroke="black" stroke-opacity="1" x1="307" y1="76" x2="310" y2="88" />
</g>
<g>
	<line stroke="black" stroke-opacity="1" x1="1321" y1="336" x2="1074" y2="337" />
</g>
<g>
	<line stroke="black" stroke-opacity="1" x1="1074" y1="337" x2="1074" y2="289" />
</g>
<g>
	<line stroke="black" stroke-opacity="1" x1="596" y1="353" x2="521" y2="555" />
	<polygon fill="#ffffff" stroke="black" stroke-opacity="1" points="596,353 599,360 591,364 588,356" />
</g>
<g>
	<line stroke="black" stroke-opacity="1" x1="333" y1="766" x2="273" y2="664" />
	<line stroke="black" stroke-opacity="1" x1="270" y1="659" x2="267" y2="667" />
	<line stroke="black" stroke-opacity="1" x1="270" y1="659" x2="278" y2="661" />
	<line stroke="black" stroke-opacity="1" x1="267" y1="667" x2="278" y2="661" />
</g>
<g>
	<line stroke="black" stroke-opacity="1" x1="323" y1="622" x2="466" y2="593" />
	<line stroke="black" stroke-opacity="1" x1="472" y1="592" x2="464" y2="587" />
	<line stroke="black" stroke-opacity="1" x1="472" y1="592" x2="467" y2="599" />
	<line stroke="black" stroke-opacity="1" x1="464" y1="587" x2="467" y2="599" />
</g>
<g>
	<line stroke="black" stroke-opacity="1" x1="741" y1="391" x2="741" y2="480" />
</g>
<g>
	<line stroke="black" stroke-opacity="1" x1="254" y1="886" x2="255" y2="664" />
	<line stroke="black" stroke-opacity="1" x1="256" y1="659" x2="249" y2="664" />
	<line stroke="black" stroke-opacity="1" x1="256" y1="659" x2="261" y2="665" />
	<line stroke="black" stroke-opacity="1" x1="249" y1="664" x2="261" y2="665" />
</g>
<g>
	<line stroke="black" stroke-opacity="1" x1="641" y1="353" x2="916" y2="494" />
</g>
<g>
	<line stroke="black" stroke-opacity="1" x1="968" y1="350" x2="1008" y2="376" />
</g>
<g>
	<line stroke="black" stroke-opacity="1" x1="304" y1="886" x2="460" y2="814" />
	<line stroke="black" stroke-opacity="1" x1="466" y1="812" x2="458" y2="809" />
	<line stroke="black" stroke-opacity="1" x1="466" y1="812" x2="463" y2="819" />
	<line stroke="black" stroke-opacity="1" x1="458" y1="809" x2="463" y2="819" />
</g>
<g>
	<line stroke="black" stroke-opacity="1" x1="237" y1="126" x2="238" y2="134" />
	<line stroke="black" stroke-opacity="1" x1="237" y1="126" x2="245" y2="124" />
	<line stroke="black" stroke-opacity="1" x1="346" y1="203" x2="237" y2="126" />
</g>
<g>
	<line stroke="black" stroke-opacity="1" x1="391" y1="787" x2="446" y2="789" />
	<line stroke="black" stroke-opacity="1" x1="452" y1="790" x2="446" y2="783" />
	<line stroke="black" stroke-opacity="1" x1="452" y1="790" x2="445" y2="795" />
	<line stroke="black" stroke-opacity="1" x1="446" y1="783" x2="445" y2="795" />
</g>
<g>
	<line stroke="black" stroke-opacity="1" x1="913" y1="332" x2="646" y2="333" />
	<line stroke="black" stroke-opacity="1" x1="641" y1="334" x2="647" y2="339" />
	<line stroke="black" stroke-opacity="1" x1="641" y1="334" x2="646" y2="327" />
	<line stroke="black" stroke-opacity="1" x1="647" y1="339" x2="646" y2="327" />
</g>
<g>
	<line stroke="black" stroke-opacity="1" x1="718" y1="366" x2="646" y2="345" />
	<line stroke="black" stroke-opacity="1" x1="641" y1="344" x2="645" y2="351" />
	<line stroke="black" stroke-opacity="1" x1="641" y1="344" x2="648" y2="339" />
	<line stroke="black" stroke-opacity="1" x1="645" y1="351" x2="648" y2="339" />
</g>
<g>
	<line stroke="black" stroke-opacity="1" x1="259" y1="565" x2="257" y2="606" />
	<line stroke="black" stroke-opacity="1" x1="257" y1="612" x2="263" y2="606" />
	<line stroke="black" stroke-opacity="1" x1="257" y1="612" x2="251" y2="605" />
	<line stroke="black" stroke-opacity="1" x1="263" y1="606" x2="251" y2="605" />
</g>
<g>
	<line stroke="black" stroke-opacity="1" x1="714" y1="191" x2="620" y2="311" />
	<line stroke="black" stroke-opacity="1" x1="617" y1="316" x2="625" y2="314" />
	<line stroke="black" stroke-opacity="1" x1="617" y1="316" x2="615" y2="307" />
	<line stroke="black" stroke-opacity="1" x1="625" y1="314" x2="615" y2="307" />
</g>
<g>
	<line stroke="black" stroke-opacity="1" x1="604" y1="120" x2="605" y2="185" />
	<line stroke="black" stroke-opacity="1" x1="606" y1="191" x2="611" y2="184" />
	<line stroke="black" stroke-opacity="1" x1="606" y1="191" x2="599" y2="185" />
	<line stroke="black" stroke-opacity="1" x1="611" y1="184" x2="599" y2="185" />
</g>
<g>
	<line stroke="black" stroke-opacity="1" x1="360" y1="75" x2="514" y2="75" />
	<polygon fill="#000000" stroke="black" stroke-opacity="1" points="360,75 366,69 372,75 366,81" />
</g>
<g>
	<line stroke="black" stroke-opacity="1" x1="514" y1="75" x2="514" y2="136" />
</g>
<g>
	<line stroke="black" stroke-opacity="1" x1="179" y1="107" x2="61" y2="107" />
	<polygon fill="#000000" stroke="black" stroke-opacity="1" points="179,107 173,113 167,107 173,101" />
</g>
<g>
	<line stroke="black" stroke-opacity="1" x1="61" y1="107" x2="61" y2="336" />
</g>
<g>
	<line stroke="black" stroke-opacity="1" x1="61" y1="336" x2="134" y2="336" />
</g>
<g>
	<line stroke="black" stroke-opacity="1" x1="1086" y1="488" x2="643" y2="231" />
	<line stroke="black" stroke-opacity="1" x1="638" y1="228" x2="640" y2="236" />
	<line stroke="black" stroke-opacity="1" x1="638" y1="228" x2="646" y2="225" />
	<line stroke="black" stroke-opacity="1" x1="640" y1="236" x2="646" y2="225" />
</g>
<g>
	<line stroke="black" stroke-opacity="1" x1="527" y1="178" x2="567" y2="194" />
	<polygon fill="#000000" stroke="black" stroke-opacity="1" points="527,178 534,174 538,182 530,185" />
</g>
<g>
	<line stroke="black" stroke-opacity="1" x1="566" y1="335" x2="560" y2="329" />
	<line stroke="black" stroke-opacity="1" x1="566" y1="335" x2="560" y2="341" />
	<line stroke="black" stroke-opacity="1" x1="279" y1="335" x2="566" y2="335" />
	<polygon fill="#ffffff" stroke="black" stroke-opacity="1" points="279,335 285,329 291,335 285,341" />
</g>
<g>
	<line stroke="black" stroke-opacity="1" x1="210" y1="89" x2="210" y2="22" />
</g>
<g>
	<line stroke="black" stroke-opacity="1" x1="210" y1="22" x2="337" y2="22" />
</g>
<g>
	<line stroke="black" stroke-opacity="1" x1="337" y1="22" x2="337" y2="52" />
</g>
<g>
	<line stroke="black" stroke-opacity="1" x1="349" y1="766" x2="481" y2="616" />
	<polygon fill="#ffffff" stroke="black" stroke-opacity="1" points="349,766 348,757 356,756 357,765" />
</g>
<g>
	<line stroke="black" stroke-opacity="1" x1="550" y1="775" x2="633" y2="738" />
	<polygon fill="#000000" stroke="black" stroke-opacity="1" points="550,775 553,767 560,770 557,778" />
</g>
<g>
	<line stroke="black" stroke-opacity="1" x1="604" y1="316" x2="605" y2="233" />
	<line stroke="black" stroke-opacity="1" x1="606" y1="228" x2="599" y2="233" />
	<line stroke="black" stroke-opacity="1" x1="606" y1="228" x2="611" y2="234" />
	<line stroke="black" stroke-opacity="1" x1="599" y1="233" x2="611" y2="234" />
</g>
<g>
	<line stroke="black" stroke-opacity="1" x1="675" y1="554" x2="610" y2="358" />
	<line stroke="black" stroke-opacity="1" x1="609" y1="353" x2="605" y2="360" />
	<line stroke="black" stroke-opacity="1" x1="609" y1="353" x2="616" y2="356" />
	<line stroke="black" stroke-opacity="1" x1="605" y1="360" x2="616" y2="356" />
</g>
<g>
	<line stroke="black" stroke-opacity="1" x1="1130" y1="483" x2="1244" y2="290" />
	<line stroke="black" stroke-opacity="1" x1="1248" y1="285" x2="1239" y2="287" />
	<line stroke="black" stroke-opacity="1" x1="1248" y1="285" x2="1250" y2="293" />
	<line stroke="black" stroke-opacity="1" x1="1239" y1="287" x2="1250" y2="293" />
</g>
<g>
	<line stroke="black" stroke-opacity="1" x1="641" y1="328" x2="1034" y2="269" />
	<line stroke="black" stroke-opacity="1" x1="1040" y1="269" x2="1033" y2="263" />
	<line stroke="black" stroke-opacity="1" x1="1040" y1="269" x2="1034" y2="275" />
	<line stroke="black" stroke-opacity="1" x1="1033" y1="263" x2="1034" y2="275" />
</g>
<g>
	<line stroke="black" stroke-opacity="1" x1="1109" y1="266" x2="1220" y2="266" />
</g>
<g>
	<line stroke="black" stroke-opacity="1" x1="642" y1="97" x2="1261" y2="98" />
</g>
<g>
	<line stroke="black" stroke-opacity="1" x1="1261" y1="98" x2="1261" y2="242" />
	<line stroke="black" stroke-opacity="1" x1="1261" y1="248" x2="1267" y2="242" />
	<line stroke="black" stroke-opacity="1" x1="1261" y1="248" x2="1255" y2="242" />
	<line stroke="black" stroke-opacity="1" x1="1267" y1="242" x2="1255" y2="242" />
</g>
<g>
	<rect fill="#808080" stroke="none" stroke-opacity="1" x="583" y="899" width="3" height="31" />
	<rect fill="#808080" stroke="none" stroke-opacity="1" x="437" y="927" width="149" height="3" />
	<rect fill="#ffffc0" stroke="black" stroke-width="1" stroke-opacity="1" x="433" y="895" width="150" height="32" />
	<text font-family="Helvetica" font-size="12" fill="#000000" xml:space="preserve" font-weight="bold" text-anchor="middle" x="508" y="909">NucleicAcidFeatureType</text>
	<line stroke="black" stroke-opacity="1" x1="433" y1="912" x2="583" y2="912" />
	<line stroke="black" stroke-opacity="1" x1="433" y1="920" x2="583" y2="920" />
</g>
<g>
	<rect fill="#808080" stroke="none" stroke-opacity="1" x="957" y="493" width="3" height="31" />
	<rect fill="#808080" stroke="none" stroke-opacity="1" x="921" y="521" width="39" height="3" />
	<rect fill="#ffffc0" stroke="black" stroke-width="1" stroke-opacity="1" x="917" y="489" width="40" height="32" />
	<text font-family="Helvetica" font-size="12" fill="#000000" xml:space="preserve" font-weight="bold" text-anchor="middle" x="937" y="503">Flux</text>
	<line stroke="black" stroke-opacity="1" x1="917" y1="506" x2="957" y2="506" />
	<line stroke="black" stroke-opacity="1" x1="917" y1="514" x2="957" y2="514" />
</g>
<g>
	<rect fill="#808080" stroke="none" stroke-opacity="1" x="545" y="560" width="3" height="55" />
	<rect fill="#808080" stroke="none" stroke-opacity="1" x="477" y="612" width="71" height="3" />
	<rect fill="#ffffc0" stroke="black" stroke-width="1" stroke-opacity="1" x="473" y="556" width="72" height="56" />
	<text font-family="Helvetica" font-size="12" fill="#000000" xml:space="preserve" font-weight="bold" text-anchor="middle" x="509" y="570">EntityType</text>
	<line stroke="black" stroke-opacity="1" x1="473" y1="573" x2="545" y2="573" />
	<text font-family="Helvetica" font-size="12" fill="#000000" xml:space="preserve" x="477" y="587">name</text>
	<text font-family="Helvetica" font-size="12" fill="#000000" xml:space="preserve" x="477" y="602">type</text>
	<line stroke="black" stroke-opacity="1" x1="473" y1="605" x2="545" y2="605" />
</g>
<g>
	<rect fill="#808080" stroke="none" stroke-opacity="1" x="460" y="378" width="3" height="55" />
	<rect fill="#808080" stroke="none" stroke-opacity="1" x="390" y="430" width="73" height="3" />
	<rect fill="#ffffc0" stroke="black" stroke-width="1" stroke-opacity="1" x="386" y="374" width="74" height="56" />
	<text font-family="Helvetica" font-size="12" fill="#000000" xml:space="preserve" font-weight="bold" text-anchor="middle" x="423" y="388">Annotation</text>
	<line stroke="black" stroke-opacity="1" x1="386" y1="391" x2="460" y2="391" />
	<text font-family="Helvetica" font-size="12" fill="#000000" xml:space="preserve" x="390" y="405">prefix</text>
	<text font-family="Helvetica" font-size="12" fill="#000000" xml:space="preserve" x="390" y="420">description</text>
	<line stroke="black" stroke-opacity="1" x1="386" y1="423" x2="460" y2="423" />
</g>
<g>
	<rect fill="#808080" stroke="none" stroke-opacity="1" x="874" y="701" width="3" height="41" />
	<rect fill="#808080" stroke="none" stroke-opacity="1" x="804" y="739" width="73" height="3" />
	<rect fill="#ffffc0" stroke="black" stroke-width="1" stroke-opacity="1" x="800" y="697" width="74" height="42" />
	<text font-family="Helvetica" font-size="12" fill="#000000" xml:space="preserve" font-weight="bold" text-anchor="middle" x="837" y="711">StateValue</text>
	<line stroke="black" stroke-opacity="1" x1="800" y1="714" x2="874" y2="714" />
	<text font-family="Helvetica" font-size="12" fill="#000000" xml:space="preserve" x="804" y="728">value</text>
	<line stroke="black" stroke-opacity="1" x1="800" y1="731" x2="874" y2="731" />
</g>
<g>
	<rect fill="#808080" stroke="none" stroke-opacity="1" x="236" y="94" width="3" height="31" />
	<rect fill="#808080" stroke="none" stroke-opacity="1" x="184" y="122" width="55" height="3" />
	<rect fill="#ffffc0" stroke="black" stroke-width="1" stroke-opacity="1" x="180" y="90" width="56" height="32" />
	<text font-family="Helvetica" font-size="12" fill="#000000" xml:space="preserve" font-weight="bold" text-anchor="middle" x="208" y="104">SubMap</text>
	<line stroke="black" stroke-opacity="1" x1="180" y1="107" x2="236" y2="107" />
	<line stroke="black" stroke-opacity="1" x1="180" y1="115" x2="236" y2="115" />
</g>
<g>
	<rect fill="#808080" stroke="none" stroke-opacity="1" x="410" y="465" width="3" height="31" />
	<rect fill="#808080" stroke="none" stroke-opacity="1" x="274" y="493" width="139" height="3" />
	<rect fill="#ffffc0" stroke="black" stroke-width="1" stroke-opacity="1" x="270" y="461" width="140" height="32" />
	<text font-family="Helvetica" font-size="12" fill="#000000" xml:space="preserve" font-weight="bold" text-anchor="middle" x="340" y="475">UnspecifiedEntityType</text>
	<line stroke="black" stroke-opacity="1" x1="270" y1="478" x2="410" y2="478" />
	<line stroke="black" stroke-opacity="1" x1="270" y1="486" x2="410" y2="486" />
</g>
<g>
	<rect fill="#808080" stroke="none" stroke-opacity="1" x="759" y="359" width="3" height="31" />
	<rect fill="#808080" stroke="none" stroke-opacity="1" x="723" y="387" width="39" height="3" />
	<rect fill="#ffffc0" stroke="black" stroke-width="1" stroke-opacity="1" x="719" y="355" width="40" height="32" />
	<text font-family="Helvetica" font-size="12" fill="#000000" xml:space="preserve" font-weight="bold" text-anchor="middle" x="739" y="369">Sink</text>
	<line stroke="black" stroke-opacity="1" x1="719" y1="372" x2="759" y2="372" />
	<line stroke="black" stroke-opacity="1" x1="719" y1="380" x2="759" y2="380" />
</g>
<g>
	<rect fill="#808080" stroke="none" stroke-opacity="1" x="427" y="208" width="3" height="31" />
	<rect fill="#808080" stroke="none" stroke-opacity="1" x="317" y="236" width="113" height="3" />
	<rect fill="#ffffc0" stroke="black" stroke-width="1" stroke-opacity="1" x="313" y="204" width="114" height="32" />
	<text font-family="Helvetica" font-size="12" fill="#000000" xml:space="preserve" font-weight="bold" text-anchor="middle" x="370" y="218">CollapsedSubMap</text>
	<line stroke="black" stroke-opacity="1" x1="313" y1="221" x2="427" y2="221" />
	<line stroke="black" stroke-opacity="1" x1="313" y1="229" x2="427" y2="229" />
</g>
<g>
	<rect fill="#808080" stroke="none" stroke-opacity="1" x="964" y="318" width="3" height="31" />
	<rect fill="#808080" stroke="none" stroke-opacity="1" x="918" y="346" width="49" height="3" />
	<rect fill="#ffffc0" stroke="black" stroke-width="1" stroke-opacity="1" x="914" y="314" width="50" height="32" />
	<text font-family="Helvetica" font-size="12" fill="#000000" xml:space="preserve" font-weight="bold" text-anchor="middle" x="939" y="328">Source</text>
	<line stroke="black" stroke-opacity="1" x1="914" y1="331" x2="964" y2="331" />
	<line stroke="black" stroke-opacity="1" x1="914" y1="339" x2="964" y2="339" />
</g>
<g>
	<rect fill="#808080" stroke="none" stroke-opacity="1" x="1424" y="317" width="3" height="41" />
	<rect fill="#808080" stroke="none" stroke-opacity="1" x="1326" y="355" width="101" height="3" />
	<rect fill="#ffffc0" stroke="black" stroke-width="1" stroke-opacity="1" x="1322" y="313" width="102" height="42" />
	<text font-family="Helvetica" font-size="12" fill="#000000" xml:space="preserve" font-weight="bold" text-anchor="middle" x="1373" y="327">LogicalOperator</text>
	<line stroke="black" stroke-opacity="1" x1="1322" y1="330" x2="1424" y2="330" />
	<text font-family="Helvetica" font-size="12" fill="#000000" xml:space="preserve" x="1326" y="344">type</text>
	<line stroke="black" stroke-opacity="1" x1="1322" y1="347" x2="1424" y2="347" />
</g>
<g>
	<rect fill="#808080" stroke="none" stroke-opacity="1" x="565" y="780" width="3" height="31" />
	<rect fill="#808080" stroke="none" stroke-opacity="1" x="457" y="808" width="111" height="3" />
	<rect fill="#ffffc0" stroke="black" stroke-width="1" stroke-opacity="1" x="453" y="776" width="112" height="32" />
	<text font-family="Helvetica" font-size="12" fill="#000000" xml:space="preserve" font-weight="bold" font-style="italic" text-anchor="middle" x="509" y="790">StatefulEntityType</text>
	<line stroke="black" stroke-opacity="1" x1="453" y1="793" x2="565" y2="793" />
	<line stroke="black" stroke-opacity="1" x1="453" y1="801" x2="565" y2="801" />
</g>
<g>
	<rect fill="#808080" stroke="none" stroke-opacity="1" x="319" y="617" width="3" height="41" />
	<rect fill="#808080" stroke="none" stroke-opacity="1" x="195" y="655" width="127" height="3" />
	<rect fill="#ffffc0" stroke="black" stroke-width="1" stroke-opacity="1" x="191" y="613" width="128" height="42" />
	<text font-family="Helvetica" font-size="12" fill="#000000" xml:space="preserve" font-weight="bold" font-style="italic" text-anchor="middle" x="255" y="627">MultimericEntityType</text>
	<line stroke="black" stroke-opacity="1" x1="191" y1="630" x2="319" y2="630" />
	<text font-family="Helvetica" font-size="12" fill="#000000" xml:space="preserve" x="195" y="644">numSubunits</text>
	<line stroke="black" stroke-opacity="1" x1="191" y1="647" x2="319" y2="647" />
</g>
<g>
	<rect fill="#808080" stroke="none" stroke-opacity="1" x="1283" y="372" width="3" height="31" />
	<rect fill="#808080" stroke="none" stroke-opacity="1" x="1201" y="400" width="85" height="3" />
	<rect fill="#ffffc0" stroke="black" stroke-width="1" stroke-opacity="1" x="1197" y="368" width="86" height="32" />
	<text font-family="Helvetica" font-size="12" fill="#000000" xml:space="preserve" font-weight="bold" text-anchor="middle" x="1240" y="382">LogicAdapter</text>
	<line stroke="black" stroke-opacity="1" x1="1197" y1="385" x2="1283" y2="385" />
	<line stroke="black" stroke-opacity="1" x1="1197" y1="393" x2="1283" y2="393" />
</g>
<g>
	<polygon fill="#c0ffff" stroke="black" stroke-opacity="1" points="921,767 1123,767 1123,777 1133,777 1133,802 921,802 921,767" />
	<line stroke="black" stroke-opacity="1" x1="1123" y1="767" x2="1133" y2="777" />
	<text font-family="Helvetica" font-size="12" fill="#000000" xml:space="preserve" x="931" y="790">Conceptual Model 1.3 30/8/09</text>
</g>
<g>
	<rect fill="#808080" stroke="none" stroke-opacity="1" x="387" y="771" width="3" height="31" />
	<rect fill="#808080" stroke="none" stroke-opacity="1" x="301" y="799" width="89" height="3" />
	<rect fill="#ffffc0" stroke="black" stroke-width="1" stroke-opacity="1" x="297" y="767" width="90" height="32" />
	<text font-family="Helvetica" font-size="12" fill="#000000" xml:space="preserve" font-weight="bold" text-anchor="middle" x="342" y="781">ComplexType</text>
	<line stroke="black" stroke-opacity="1" x1="297" y1="784" x2="387" y2="784" />
	<line stroke="black" stroke-opacity="1" x1="297" y1="792" x2="387" y2="792" />
</g>
<g>
	<rect fill="#808080" stroke="none" stroke-opacity="1" x="638" y="78" width="3" height="41" />
	<rect fill="#808080" stroke="none" stroke-opacity="1" x="570" y="116" width="71" height="3" />
	<rect fill="#ffffc0" stroke="black" stroke-width="1" stroke-opacity="1" x="566" y="74" width="72" height="42" />
	<text font-family="Helvetica" font-size="12" fill="#000000" xml:space="preserve" font-weight="bold" text-anchor="middle" x="602" y="88">Phenotype</text>
	<line stroke="black" stroke-opacity="1" x1="566" y1="91" x2="638" y2="91" />
	<text font-family="Helvetica" font-size="12" fill="#000000" xml:space="preserve" x="570" y="105">name</text>
	<line stroke="black" stroke-opacity="1" x1="566" y1="108" x2="638" y2="108" />
</g>
<g>
	<rect fill="#808080" stroke="none" stroke-opacity="1" x="784" y="149" width="3" height="41" />
	<rect fill="#808080" stroke="none" stroke-opacity="1" x="686" y="187" width="101" height="3" />
	<rect fill="#ffffc0" stroke="black" stroke-width="1" stroke-opacity="1" x="682" y="145" width="102" height="42" />
	<text font-family="Helvetica" font-size="12" fill="#000000" xml:space="preserve" font-weight="bold" text-anchor="middle" x="733" y="159">PerturbingAgent</text>
	<line stroke="black" stroke-opacity="1" x1="682" y1="162" x2="784" y2="162" />
	<text font-family="Helvetica" font-size="12" fill="#000000" xml:space="preserve" x="686" y="176">name</text>
	<line stroke="black" stroke-opacity="1" x1="682" y1="179" x2="784" y2="179" />
</g>
<g>
	<rect fill="#808080" stroke="none" stroke-opacity="1" x="356" y="57" width="3" height="41" />
	<rect fill="#808080" stroke="none" stroke-opacity="1" x="320" y="95" width="39" height="3" />
	<rect fill="#ffffc0" stroke="black" stroke-width="1" stroke-opacity="1" x="316" y="53" width="40" height="42" />
	<text font-family="Helvetica" font-size="12" fill="#000000" xml:space="preserve" font-weight="bold" text-anchor="middle" x="336" y="67">Map</text>
	<line stroke="black" stroke-opacity="1" x1="316" y1="70" x2="356" y2="70" />
	<text font-family="Helvetica" font-size="12" fill="#000000" xml:space="preserve" x="320" y="84">name</text>
	<line stroke="black" stroke-opacity="1" x1="316" y1="87" x2="356" y2="87" />
</g>
<g>
	<rect fill="#808080" stroke="none" stroke-opacity="1" x="642" y="196" width="3" height="31" />
	<rect fill="#808080" stroke="none" stroke-opacity="1" x="572" y="224" width="73" height="3" />
	<rect fill="#ffffc0" stroke="black" stroke-width="1" stroke-opacity="1" x="568" y="192" width="74" height="32" />
	<text font-family="Helvetica" font-size="12" fill="#000000" xml:space="preserve" font-weight="bold" font-style="italic" text-anchor="middle" x="605" y="206">BasicEntity</text>
	<line stroke="black" stroke-opacity="1" x1="568" y1="209" x2="642" y2="209" />
	<line stroke="black" stroke-opacity="1" x1="568" y1="217" x2="642" y2="217" />
</g>
<g>
	<rect fill="#808080" stroke="none" stroke-opacity="1" x="722" y="706" width="3" height="31" />
	<rect fill="#808080" stroke="none" stroke-opacity="1" x="638" y="734" width="87" height="3" />
	<rect fill="#ffffc0" stroke="black" stroke-width="1" stroke-opacity="1" x="634" y="702" width="88" height="32" />
	<text font-family="Helvetica" font-size="12" fill="#000000" xml:space="preserve" font-weight="bold" text-anchor="middle" x="678" y="716">StateVariable</text>
	<line stroke="black" stroke-opacity="1" x1="634" y1="719" x2="722" y2="719" />
	<line stroke="black" stroke-opacity="1" x1="634" y1="727" x2="722" y2="727" />
</g>
<g>
	<rect fill="#808080" stroke="none" stroke-opacity="1" x="637" y="321" width="3" height="31" />
	<rect fill="#808080" stroke="none" stroke-opacity="1" x="571" y="349" width="69" height="3" />
	<rect fill="#ffffc0" stroke="black" stroke-width="1" stroke-opacity="1" x="567" y="317" width="70" height="32" />
	<text font-family="Helvetica" font-size="12" fill="#000000" xml:space="preserve" font-weight="bold" text-anchor="middle" x="602" y="331">EntityPool</text>
	<line stroke="black" stroke-opacity="1" x1="567" y1="334" x2="637" y2="334" />
	<line stroke="black" stroke-opacity="1" x1="567" y1="342" x2="637" y2="342" />
</g>
<g>
	<rect fill="#808080" stroke="none" stroke-opacity="1" x="1143" y="488" width="3" height="41" />
	<rect fill="#808080" stroke="none" stroke-opacity="1" x="1091" y="526" width="55" height="3" />
	<rect fill="#ffffc0" stroke="black" stroke-width="1" stroke-opacity="1" x="1087" y="484" width="56" height="42" />
	<text font-family="Helvetica" font-size="12" fill="#000000" xml:space="preserve" font-weight="bold" text-anchor="middle" x="1115" y="498">Process</text>
	<line stroke="black" stroke-opacity="1" x1="1087" y1="501" x2="1143" y2="501" />
	<text font-family="Helvetica" font-size="12" fill="#000000" xml:space="preserve" x="1091" y="515">type</text>
	<line stroke="black" stroke-opacity="1" x1="1087" y1="518" x2="1143" y2="518" />
</g>
<g>
	<rect fill="#808080" stroke="none" stroke-opacity="1" x="739" y="559" width="3" height="31" />
	<rect fill="#808080" stroke="none" stroke-opacity="1" x="625" y="587" width="117" height="3" />
	<rect fill="#ffffc0" stroke="black" stroke-width="1" stroke-opacity="1" x="621" y="555" width="118" height="32" />
	<text font-family="Helvetica" font-size="12" fill="#000000" xml:space="preserve" font-weight="bold" text-anchor="middle" x="680" y="569">StatefulEntityPool</text>
	<line stroke="black" stroke-opacity="1" x1="621" y1="572" x2="739" y2="572" />
	<line stroke="black" stroke-opacity="1" x1="621" y1="580" x2="739" y2="580" />
</g>
<g>
	<rect fill="#808080" stroke="none" stroke-opacity="1" x="1105" y="247" width="3" height="41" />
	<rect fill="#808080" stroke="none" stroke-opacity="1" x="1045" y="285" width="63" height="3" />
	<rect fill="#ffffc0" stroke="black" stroke-width="1" stroke-opacity="1" x="1041" y="243" width="64" height="42" />
	<text font-family="Helvetica" font-size="12" fill="#000000" xml:space="preserve" font-weight="bold" font-style="italic" text-anchor="middle" x="1073" y="257">Controller</text>
	<line stroke="black" stroke-opacity="1" x1="1041" y1="260" x2="1105" y2="260" />
	<text font-family="Helvetica" font-size="12" fill="#000000" xml:space="preserve" x="1045" y="274">type</text>
	<line stroke="black" stroke-opacity="1" x1="1041" y1="277" x2="1105" y2="277" />
</g>
<g>
	<rect fill="#808080" stroke="none" stroke-opacity="1" x="1297" y="253" width="3" height="31" />
	<rect fill="#808080" stroke="none" stroke-opacity="1" x="1225" y="281" width="75" height="3" />
	<rect fill="#ffffc0" stroke="black" stroke-width="1" stroke-opacity="1" x="1221" y="249" width="76" height="32" />
	<text font-family="Helvetica" font-size="12" fill="#000000" xml:space="preserve" font-weight="bold" font-style="italic" text-anchor="middle" x="1259" y="263">Controllable</text>
	<line stroke="black" stroke-opacity="1" x1="1221" y1="266" x2="1297" y2="266" />
	<line stroke="black" stroke-opacity="1" x1="1221" y1="274" x2="1297" y2="274" />
</g>
<g>
	<rect fill="#808080" stroke="none" stroke-opacity="1" x="1090" y="381" width="3" height="41" />
	<rect fill="#808080" stroke="none" stroke-opacity="1" x="998" y="419" width="95" height="3" />
	<rect fill="#ffffc0" stroke="black" stroke-width="1" stroke-opacity="1" x="994" y="377" width="96" height="42" />
	<text font-family="Helvetica" font-size="12" fill="#000000" xml:space="preserve" font-weight="bold" text-anchor="middle" x="1042" y="391">IrreversibleFlux</text>
	<line stroke="black" stroke-opacity="1" x1="994" y1="394" x2="1090" y2="394" />
	<text font-family="Helvetica" font-size="12" fill="#000000" xml:space="preserve" x="998" y="408">stoichiometry</text>
	<line stroke="black" stroke-opacity="1" x1="994" y1="411" x2="1090" y2="411" />
</g>
<g>
	<rect fill="#808080" stroke="none" stroke-opacity="1" x="859" y="27" width="3" height="55" />
	<rect fill="#808080" stroke="none" stroke-opacity="1" x="789" y="79" width="73" height="3" />
	<rect fill="#ffffc0" stroke="black" stroke-width="1" stroke-opacity="1" x="785" y="23" width="74" height="56" />
	<text font-family="Helvetica" font-size="12" fill="#000000" xml:space="preserve" font-weight="bold" text-anchor="middle" x="822" y="37">Annotation</text>
	<line stroke="black" stroke-opacity="1" x1="785" y1="40" x2="859" y2="40" />
	<text font-family="Helvetica" font-size="12" fill="#000000" xml:space="preserve" x="789" y="54">prefix</text>
	<text font-family="Helvetica" font-size="12" fill="#000000" xml:space="preserve" x="789" y="69">description</text>
	<line stroke="black" stroke-opacity="1" x1="785" y1="72" x2="859" y2="72" />
</g>
<g>
	<rect fill="#808080" stroke="none" stroke-opacity="1" x="1190" y="173" width="3" height="41" />
	<rect fill="#808080" stroke="none" stroke-opacity="1" x="1142" y="211" width="51" height="3" />
	<rect fill="#ffffc0" stroke="black" stroke-width="1" stroke-opacity="1" x="1138" y="169" width="52" height="42" />
	<text font-family="Helvetica" font-size="12" fill="#000000" xml:space="preserve" font-weight="bold" text-anchor="middle" x="1164" y="183">Control</text>
	<line stroke="black" stroke-opacity="1" x1="1138" y1="186" x2="1190" y2="186" />
	<text font-family="Helvetica" font-size="12" fill="#000000" xml:space="preserve" x="1142" y="200">type</text>
	<line stroke="black" stroke-opacity="1" x1="1138" y1="203" x2="1190" y2="203" />
</g>
<g>
	<rect fill="#808080" stroke="none" stroke-opacity="1" x="786" y="485" width="3" height="41" />
	<rect fill="#808080" stroke="none" stroke-opacity="1" x="698" y="523" width="91" height="3" />
	<rect fill="#ffffc0" stroke="black" stroke-width="1" stroke-opacity="1" x="694" y="481" width="92" height="42" />
	<text font-family="Helvetica" font-size="12" fill="#000000" xml:space="preserve" font-weight="bold" text-anchor="middle" x="740" y="495">ReversibleFlux</text>
	<line stroke="black" stroke-opacity="1" x1="694" y1="498" x2="786" y2="498" />
	<text font-family="Helvetica" font-size="12" fill="#000000" xml:space="preserve" x="698" y="512">stoichiometry</text>
	<line stroke="black" stroke-opacity="1" x1="694" y1="515" x2="786" y2="515" />
</g>
<g>
	<rect fill="#808080" stroke="none" stroke-opacity="1" x="275" y="317" width="3" height="41" />
	<rect fill="#808080" stroke="none" stroke-opacity="1" x="139" y="355" width="139" height="3" />
	<rect fill="#ffffc0" stroke="black" stroke-width="1" stroke-opacity="1" x="135" y="313" width="140" height="42" />
	<text font-family="Helvetica" font-size="12" fill="#000000" xml:space="preserve" font-weight="bold" text-anchor="middle" x="205" y="327">SubMapEntityMapping</text>
	<line stroke="black" stroke-opacity="1" x1="135" y1="330" x2="275" y2="330" />
	<text font-family="Helvetica" font-size="12" fill="#000000" xml:space="preserve" x="139" y="344">identifier</text>
	<line stroke="black" stroke-opacity="1" x1="135" y1="347" x2="275" y2="347" />
</g>
<g>
	<rect fill="#808080" stroke="none" stroke-opacity="1" x="333" y="891" width="3" height="41" />
	<rect fill="#808080" stroke="none" stroke-opacity="1" x="175" y="929" width="161" height="3" />
	<rect fill="#ffffc0" stroke="black" stroke-width="1" stroke-opacity="1" x="171" y="887" width="162" height="42" />
	<text font-family="Helvetica" font-size="12" fill="#000000" xml:space="preserve" font-weight="bold" text-anchor="middle" x="252" y="901">MacromoleculeEntityType</text>
	<line stroke="black" stroke-opacity="1" x1="171" y1="904" x2="333" y2="904" />
	<text font-family="Helvetica" font-size="12" fill="#000000" xml:space="preserve" x="175" y="918">macromoleculeType</text>
	<line stroke="black" stroke-opacity="1" x1="171" y1="921" x2="333" y2="921" />
</g>
<g>
	<rect fill="#808080" stroke="none" stroke-opacity="1" x="309" y="533" width="3" height="31" />
	<rect fill="#808080" stroke="none" stroke-opacity="1" x="211" y="561" width="101" height="3" />
	<rect fill="#ffffc0" stroke="black" stroke-width="1" stroke-opacity="1" x="207" y="529" width="102" height="32" />
	<text font-family="Helvetica" font-size="12" fill="#000000" xml:space="preserve" font-weight="bold" text-anchor="middle" x="258" y="543">SimpleChemical</text>
	<line stroke="black" stroke-opacity="1" x1="207" y1="546" x2="309" y2="546" />
	<line stroke="black" stroke-opacity="1" x1="207" y1="554" x2="309" y2="554" />
</g>
<g>
	<line stroke="black" stroke-opacity="1" x1="642" y1="88" x2="784" y2="59" />
	<polygon fill="#ffffff" stroke="black" stroke-opacity="1" points="642,88 646,80 653,85 649,92" />
</g>
<g>
	<text font-family="Helvetica" font-size="12" fill="#000000" xml:space="preserve" x="421" y="450">*</text>
</g>
<g>
	<text font-family="Helvetica" font-size="12" fill="#000000" xml:space="preserve" x="472" y="550">1</text>
</g>
<g>
	<text font-family="Helvetica" font-size="12" fill="#000000" xml:space="preserve" x="759" y="715">value</text>
</g>
<g>
	<text font-family="Helvetica" font-size="12" fill="#000000" xml:space="preserve" x="785" y="740">*</text>
</g>
<g>
	<text font-family="Helvetica" font-size="12" fill="#000000" xml:space="preserve" x="954" y="542">inputs</text>
</g>
<g>
	<text font-family="Helvetica" font-size="12" fill="#000000" xml:space="preserve" x="907" y="542">1..*</text>
</g>
<g>
	<text font-family="Helvetica" font-size="12" fill="#000000" xml:space="preserve" x="412" y="366">*</text>
</g>
<g>
	<text font-family="Helvetica" font-size="12" fill="#000000" xml:space="preserve" x="451" y="200">1</text>
</g>
<g>
	<text font-family="Helvetica" font-size="12" fill="#000000" xml:space="preserve" x="849" y="691">entityStates</text>
</g>
<g>
	<text font-family="Helvetica" font-size="12" fill="#000000" xml:space="preserve" x="823" y="691">*</text>
</g>
<g>
	<text font-family="Helvetica" font-size="12" fill="#000000" xml:space="preserve" x="975" y="501">outputs</text>
</g>
<g>
	<text font-family="Helvetica" font-size="12" fill="#000000" xml:space="preserve" x="974" y="525">1..*</text>
</g>
<g>
	<text font-family="Helvetica" font-size="12" fill="#000000" xml:space="preserve" x="218" y="308">submapMappings</text>
</g>
<g>
	<text font-family="Helvetica" font-size="12" fill="#000000" xml:space="preserve" x="295" y="239">1</text>
</g>
<g>
	<text font-family="Helvetica" font-size="12" fill="#000000" xml:space="preserve" x="192" y="308">*</text>
</g>
<g>
	<text font-family="Helvetica" font-size="12" fill="#000000" xml:space="preserve" x="535" y="550">entityType</text>
</g>
<g>
	<text font-family="Helvetica" font-size="12" fill="#000000" xml:space="preserve" x="502" y="550">1</text>
</g>
<g>
	<text font-family="Helvetica" font-size="12" fill="#000000" xml:space="preserve" x="573" y="370">*</text>
</g>
<g>
	<text font-family="Helvetica" font-size="12" fill="#000000" xml:space="preserve" x="651" y="353">participant</text>
</g>
<g>
	<text font-family="Helvetica" font-size="12" fill="#000000" xml:space="preserve" x="248" y="129">referedSubmap</text>
</g>
<g>
	<text font-family="Helvetica" font-size="12" fill="#000000" xml:space="preserve" x="248" y="154">1</text>
</g>
<g>
	<text font-family="Helvetica" font-size="12" fill="#000000" xml:space="preserve" x="350" y="197">1</text>
</g>
<g>
	<text font-family="Helvetica" font-size="12" fill="#000000" xml:space="preserve" x="524" y="131">compartments</text>
</g>
<g>
	<text font-family="Helvetica" font-size="12" fill="#000000" xml:space="preserve" x="498" y="131">*</text>
</g>
<g>
	<text font-family="Helvetica" font-size="12" fill="#000000" xml:space="preserve" x="12" y="331">parentMapMappings</text>
</g>
<g>
	<text font-family="Helvetica" font-size="12" fill="#000000" xml:space="preserve" x="107" y="354">1..*</text>
</g>
<g>
	<text font-family="Helvetica" font-size="12" fill="#000000" xml:space="preserve" x="548" y="214">*</text>
</g>
<g>
	<text font-family="Helvetica" font-size="12" fill="#000000" xml:space="preserve" x="503" y="329">entityPool</text>
</g>
<g>
	<text font-family="Helvetica" font-size="12" fill="#000000" xml:space="preserve" x="548" y="353">1</text>
</g>
<g>
	<text font-family="Helvetica" font-size="12" fill="#000000" xml:space="preserve" x="347" y="47">parentMap</text>
</g>
<g>
	<text font-family="Helvetica" font-size="12" fill="#000000" xml:space="preserve" x="320" y="47">1</text>
</g>
<g>
	<text font-family="Helvetica" font-size="12" fill="#000000" xml:space="preserve" x="194" y="84">*</text>
</g>
<g>
	<text font-family="Helvetica" font-size="12" fill="#000000" xml:space="preserve" x="485" y="640">subUnits</text>
</g>
<g>
	<text font-family="Helvetica" font-size="12" fill="#000000" xml:space="preserve" x="460" y="640">*</text>
</g>
<g>
	<text font-family="Helvetica" font-size="12" fill="#000000" xml:space="preserve" x="617" y="747">*</text>
</g>
<g>
	<rect fill="#808080" stroke="none" stroke-opacity="1" x="523" y="141" width="3" height="41" />
	<rect fill="#808080" stroke="none" stroke-opacity="1" x="437" y="179" width="89" height="3" />
	<rect fill="#ffffc0" stroke="black" stroke-width="1" stroke-opacity="1" x="433" y="137" width="90" height="42" />
	<text font-family="Helvetica" font-size="12" fill="#000000" xml:space="preserve" font-weight="bold" text-anchor="middle" x="478" y="151">Compartment</text>
	<line stroke="black" stroke-opacity="1" x1="433" y1="154" x2="523" y2="154" />
	<text font-family="Helvetica" font-size="12" fill="#000000" xml:space="preserve" x="437" y="168">name</text>
	<line stroke="black" stroke-opacity="1" x1="433" y1="171" x2="523" y2="171" />
</g>
</svg>
