<?xml version="1.0" encoding="utf-8"?>
<!-- Generator: Adobe Illustrator 12.0.1, SVG Export Plug-In . SVG Version: 6.00 Build 51448)  -->
<!DOCTYPE svg PUBLIC "-//W3C//DTD SVG 1.1//EN" "http://www.w3.org/Graphics/SVG/1.1/DTD/svg11.dtd" [
	<!ENTITY ns_svg "http://www.w3.org/2000/svg">
	<!ENTITY ns_xlink "http://www.w3.org/1999/xlink">
]>
<svg  version="1.1" id="Layer_1" xmlns="&ns_svg;" xmlns:xlink="&ns_xlink;" width="185.464" height="191.025"
	 viewBox="0 0 185.464 191.025" overflow="visible" enable-background="new 0 0 185.464 191.025" xml:space="preserve">
<path fill="none" stroke="#000000" stroke-width="4.1378" stroke-miterlimit="10" d="M183.395,95.512
	c0,51.581-40.617,93.443-90.663,93.443S2.069,147.093,2.069,95.512S42.686,2.069,92.732,2.069S183.395,43.931,183.395,95.512
	L183.395,95.512z"/>
<polyline points="15.321,74.875 20.371,74.875 20.371,107.951 38.546,107.951 38.546,112.201 15.321,112.201 15.321,74.875 "/>
<path d="M57.496,79.85l-6.85,18.575h13.725L57.496,79.85 M54.646,74.875h5.725l14.225,37.326h-5.25l-3.4-9.575H49.121l-3.4,9.575
	h-5.325L54.646,74.875"/>
<path d="M85.071,94.375v13.675h8.1c2.717,0,4.726-0.559,6.025-1.675c1.316-1.134,1.975-2.858,1.975-5.175
	c0-2.334-0.658-4.05-1.975-5.151c-1.3-1.117-3.309-1.675-6.025-1.675H85.071 M85.071,79.025v11.25h7.475
	c2.467,0,4.301-0.458,5.5-1.375c1.217-0.933,1.825-2.35,1.825-4.25c0-1.883-0.608-3.292-1.825-4.225c-1.199-0.933-3.033-1.4-5.5-1.4
	H85.071 M80.021,74.875h12.9c3.851,0,6.817,0.8,8.9,2.4s3.125,3.875,3.125,6.825c0,2.283-0.533,4.1-1.6,5.45
	c-1.067,1.35-2.634,2.192-4.7,2.525c2.483,0.533,4.408,1.65,5.774,3.35c1.384,1.684,2.075,3.792,2.075,6.326
	c0,3.333-1.133,5.908-3.399,7.725c-2.268,1.817-5.492,2.726-9.676,2.726h-13.4V74.875"/>
<polyline points="115.122,74.875 138.722,74.875 138.722,79.125 120.171,79.125 120.171,90.175 137.947,90.175 137.947,94.425 
	120.171,94.425 120.171,107.951 139.171,107.951 139.171,112.201 115.122,112.201 115.122,74.875 "/>
<polyline points="147.522,74.875 152.572,74.875 152.572,107.951 170.747,107.951 170.747,112.201 147.522,112.201 147.522,74.875 
	"/>
</svg>
