<?xml version="1.0" encoding="UTF-8" standalone="no"?>
<!-- Created with Bouml (http://bouml.free.fr/) -->
<!DOCTYPE svg PUBLIC "-//W3C//DTD SVG 1.1//EN" "http://www.w3.org/Graphics/SVG/1.1/DTD/svg11.dtd">
<svg width="986" height="321" version="1.1" xmlns="http://www.w3.org/2000/svg">
<g>
	<rect fill="#808080" stroke="none" stroke-opacity="1" x="157" y="227" width="3" height="73" />
	<rect fill="#808080" stroke="none" stroke-opacity="1" x="53" y="297" width="107" height="3" />
	<rect fill="#ffffff" stroke="black" stroke-width="1" stroke-opacity="1" x="49" y="223" width="108" height="74" />
	<text font-family="Helvetica" font-size="15" fill="#000000" xml:space="preserve" font-weight="bold" text-anchor="middle" x="103" y="240">StateVariable</text>
	<line stroke="black" stroke-opacity="1" x1="49" y1="243" x2="157" y2="243" />
	<text font-family="Helvetica" font-size="15" fill="#000000" xml:space="preserve" x="53" y="260">value : string</text>
	<line stroke="black" stroke-opacity="1" x1="49" y1="263" x2="157" y2="263" />
</g>
<g>
	<rect fill="#808080" stroke="none" stroke-opacity="1" x="151" y="76" width="3" height="35" />
	<rect fill="#808080" stroke="none" stroke-opacity="1" x="57" y="108" width="97" height="3" />
	<rect fill="#ffffff" stroke="black" stroke-width="1" stroke-opacity="1" x="53" y="72" width="98" height="36" />
	<text font-family="Helvetica" font-size="15" fill="#000000" xml:space="preserve" font-weight="bold" font-style="italic" text-anchor="middle" x="102" y="89">AuxiliaryUnit</text>
	<line stroke="black" stroke-opacity="1" x1="53" y1="92" x2="151" y2="92" />
	<line stroke="black" stroke-opacity="1" x1="53" y1="100" x2="151" y2="100" />
</g>
<g>
	<line stroke="black" stroke-opacity="1" x1="104" y1="222" x2="104" y2="167" />
</g>
<g>
	<line stroke="black" stroke-opacity="1" x1="104" y1="167" x2="104" y2="118" />
	<line stroke="black" stroke-opacity="1" x1="104" y1="112" x2="98" y2="118" />
	<line stroke="black" stroke-opacity="1" x1="104" y1="112" x2="110" y2="118" />
	<line stroke="black" stroke-opacity="1" x1="98" y1="118" x2="110" y2="118" />
</g>
<g>
	<text font-family="Helvetica" font-size="15" fill="#000000" xml:space="preserve" x="171" y="282">states</text>
</g>
<g>
	<text font-family="Helvetica" font-size="15" fill="#000000" xml:space="preserve" x="281" y="282">owning_epn</text>
</g>
<g>
	<text font-family="Helvetica" font-size="15" fill="#000000" xml:space="preserve" x="171" y="311">*</text>
</g>
<g>
	<text font-family="Helvetica" font-size="15" fill="#000000" xml:space="preserve" x="355" y="311">1</text>
</g>
<g>
	<text font-family="Helvetica" font-size="15" fill="#000000" xml:space="preserve" x="194" y="116">definition</text>
</g>
<g>
	<text font-family="Helvetica" font-size="15" fill="#000000" xml:space="preserve" x="246" y="145">1</text>
</g>
<g>
	<text font-family="Helvetica" font-size="15" fill="#000000" xml:space="preserve" x="171" y="259">1..*</text>
</g>
<g>
	<text font-family="Helvetica" font-size="15" fill="#000000" xml:space="preserve" x="453" y="113">state_definitions</text>
</g>
<g>
	<text font-family="Helvetica" font-size="15" fill="#000000" xml:space="preserve" x="472" y="62">owning_entity_type</text>
</g>
<g>
	<text font-family="Helvetica" font-size="15" fill="#000000" xml:space="preserve" x="453" y="142">*</text>
</g>
<g>
	<text font-family="Helvetica" font-size="15" fill="#000000" xml:space="preserve" x="596" y="91">1</text>
</g>
<g>
	<text font-family="Helvetica" font-size="15" fill="#000000" xml:space="preserve" x="725" y="62">entity_type</text>
</g>
<g>
	<text font-family="Helvetica" font-size="15" fill="#000000" xml:space="preserve" x="803" y="176">pools</text>
</g>
<g>
	<text font-family="Helvetica" font-size="15" fill="#000000" xml:space="preserve" x="725" y="91">1</text>
</g>
<g>
	<text font-family="Helvetica" font-size="15" fill="#000000" xml:space="preserve" x="819" y="205">1..*</text>
</g>
<g>
	<rect fill="#808080" stroke="none" stroke-opacity="1" x="439" y="100" width="3" height="47" />
	<rect fill="#808080" stroke="none" stroke-opacity="1" x="269" y="144" width="173" height="3" />
	<rect fill="#ffffff" stroke="black" stroke-width="1" stroke-opacity="1" x="265" y="96" width="174" height="48" />
	<text font-family="Helvetica" font-size="15" fill="#000000" xml:space="preserve" font-weight="bold" text-anchor="middle" x="352" y="113">StateVariableDefinition</text>
	<line stroke="black" stroke-opacity="1" x1="265" y1="116" x2="439" y2="116" />
	<text font-family="Helvetica" font-size="15" fill="#000000" xml:space="preserve" x="269" y="133">name : string</text>
	<line stroke="black" stroke-opacity="1" x1="265" y1="136" x2="439" y2="136" />
</g>
<g>
	<rect fill="#808080" stroke="none" stroke-opacity="1" x="970" y="161" width="3" height="47" />
	<rect fill="#808080" stroke="none" stroke-opacity="1" x="856" y="205" width="117" height="3" />
	<rect fill="#ffffff" stroke="black" stroke-width="1" stroke-opacity="1" x="852" y="157" width="118" height="48" />
	<text font-family="Helvetica" font-size="15" fill="#000000" xml:space="preserve" font-weight="bold" font-style="italic" text-anchor="middle" x="911" y="174">EntityPoolNode</text>
	<line stroke="black" stroke-opacity="1" x1="852" y1="177" x2="970" y2="177" />
	<text font-family="Helvetica" font-size="15" fill="#000000" xml:space="preserve" x="856" y="194">cardinality : int</text>
	<line stroke="black" stroke-opacity="1" x1="852" y1="197" x2="970" y2="197" />
</g>
<g>
	<line stroke="black" stroke-opacity="1" x1="161" y1="236" x2="213" y2="236" />
	<polygon fill="#ffffff" stroke="black" stroke-opacity="1" points="161,236 167,230 173,236 167,242" />
</g>
<g>
	<line stroke="black" stroke-opacity="1" x1="213" y1="236" x2="213" y2="119" />
</g>
<g>
	<line stroke="black" stroke-opacity="1" x1="264" y1="119" x2="258" y2="113" />
	<line stroke="black" stroke-opacity="1" x1="264" y1="119" x2="258" y2="125" />
	<line stroke="black" stroke-opacity="1" x1="213" y1="119" x2="264" y2="119" />
</g>
<g>
	<rect fill="#808080" stroke="none" stroke-opacity="1" x="711" y="37" width="3" height="65" />
	<rect fill="#808080" stroke="none" stroke-opacity="1" x="619" y="99" width="95" height="3" />
	<rect fill="#ffffff" stroke="black" stroke-width="1" stroke-opacity="1" x="615" y="33" width="96" height="66" />
	<text font-family="Helvetica" font-size="15" fill="#000000" xml:space="preserve" font-weight="bold" text-anchor="middle" x="663" y="50">EntityType</text>
	<line stroke="black" stroke-opacity="1" x1="615" y1="53" x2="711" y2="53" />
	<text font-family="Helvetica" font-size="15" fill="#000000" xml:space="preserve" x="619" y="70">name : string</text>
	<text font-family="Helvetica" font-size="15" fill="#000000" xml:space="preserve" x="619" y="88">natures : cv</text>
	<line stroke="black" stroke-opacity="1" x1="615" y1="91" x2="711" y2="91" />
</g>
<g>
	<rect fill="#808080" stroke="none" stroke-opacity="1" x="466" y="272" width="3" height="35" />
	<rect fill="#808080" stroke="none" stroke-opacity="1" x="378" y="304" width="91" height="3" />
	<rect fill="#ffffff" stroke="black" stroke-width="1" stroke-opacity="1" x="374" y="268" width="92" height="36" />
	<text font-family="Helvetica" font-size="15" fill="#000000" xml:space="preserve" font-weight="bold" font-style="italic" text-anchor="middle" x="420" y="285">StatefulEPN</text>
	<line stroke="black" stroke-opacity="1" x1="374" y1="288" x2="466" y2="288" />
	<line stroke="black" stroke-opacity="1" x1="374" y1="296" x2="466" y2="296" />
</g>
<g>
	<line stroke="black" stroke-opacity="1" x1="421" y1="267" x2="421" y2="238" />
</g>
<g>
	<line stroke="black" stroke-opacity="1" x1="421" y1="238" x2="913" y2="238" />
</g>
<g>
	<line stroke="black" stroke-opacity="1" x1="913" y1="238" x2="913" y2="215" />
	<line stroke="black" stroke-opacity="1" x1="913" y1="209" x2="907" y2="215" />
	<line stroke="black" stroke-opacity="1" x1="913" y1="209" x2="919" y2="215" />
	<line stroke="black" stroke-opacity="1" x1="907" y1="215" x2="919" y2="215" />
</g>
<g>
	<line stroke="black" stroke-opacity="1" x1="373" y1="288" x2="267" y2="288" />
	<polygon fill="#000000" stroke="black" stroke-opacity="1" points="373,288 367,294 361,288 367,282" />
</g>
<g>
	<line stroke="black" stroke-opacity="1" x1="267" y1="288" x2="161" y2="288" />
</g>
<g>
	<line stroke="black" stroke-opacity="1" x1="614" y1="68" x2="529" y2="68" />
	<polygon fill="#000000" stroke="black" stroke-opacity="1" points="614,68 608,74 602,68 608,62" />
</g>
<g>
	<line stroke="black" stroke-opacity="1" x1="529" y1="68" x2="529" y2="119" />
</g>
<g>
	<line stroke="black" stroke-opacity="1" x1="529" y1="119" x2="443" y2="119" />
</g>
<g>
	<line stroke="black" stroke-opacity="1" x1="851" y1="182" x2="783" y2="182" />
	<polygon fill="#ffffff" stroke="black" stroke-opacity="1" points="851,182 845,188 839,182 845,176" />
</g>
<g>
	<line stroke="black" stroke-opacity="1" x1="783" y1="182" x2="783" y2="68" />
</g>
<g>
	<line stroke="black" stroke-opacity="1" x1="783" y1="68" x2="715" y2="68" />
</g>
</svg>
