<?xml version="1.0" encoding="UTF-8" standalone="no"?>
<!-- Created with Bouml (http://bouml.free.fr/) -->
<!DOCTYPE svg PUBLIC "-//W3C//DTD SVG 1.1//EN" "http://www.w3.org/Graphics/SVG/1.1/DTD/svg11.dtd">
<svg width="1043" height="395" version="1.1" xmlns="http://www.w3.org/2000/svg">
<g>
	<rect fill="#cbcbcb" stroke="none" stroke-opacity="1" x="646" y="115" width="3" height="45" />
	<rect fill="#cbcbcb" stroke="none" stroke-opacity="1" x="510" y="157" width="139" height="3" />
	<rect fill="#ffffff" stroke="black" stroke-width="1" stroke-opacity="1" x="506" y="111" width="140" height="46" />
	<text font-family="Helvetica" font-size="15" fill="#000000" xml:space="preserve" font-weight="bold" font-style="italic" text-anchor="middle" x="576" y="128">CrossReference</text>
	<line stroke="black" stroke-opacity="1" x1="506" y1="130" x2="646" y2="130" />
	<text font-family="Helvetica" font-size="15" fill="#000000" xml:space="preserve" x="510" y="147">reference_id : string</text>
	<line stroke="black" stroke-opacity="1" x1="506" y1="149" x2="646" y2="149" />
</g>
<g>
	<rect fill="#cbcbcb" stroke="none" stroke-opacity="1" x="1017" y="263" width="3" height="45" />
	<rect fill="#cbcbcb" stroke="none" stroke-opacity="1" x="927" y="305" width="93" height="3" />
	<rect fill="#ffffff" stroke="black" stroke-width="1" stroke-opacity="1" x="923" y="259" width="94" height="46" />
	<text font-family="Helvetica" font-size="15" fill="#000000" xml:space="preserve" font-weight="bold" text-anchor="middle" x="970" y="276">Submap</text>
	<line stroke="black" stroke-opacity="1" x1="923" y1="278" x2="1017" y2="278" />
	<text font-family="Helvetica" font-size="15" fill="#000000" xml:space="preserve" x="927" y="295">name : string</text>
	<line stroke="black" stroke-opacity="1" x1="923" y1="297" x2="1017" y2="297" />
</g>
<g>
	<rect fill="#cbcbcb" stroke="none" stroke-opacity="1" x="641" y="269" width="3" height="33" />
	<rect fill="#cbcbcb" stroke="none" stroke-opacity="1" x="517" y="299" width="127" height="3" />
	<rect fill="#ffffff" stroke="black" stroke-width="1" stroke-opacity="1" x="513" y="265" width="128" height="34" />
	<text font-family="Helvetica" font-size="15" fill="#000000" xml:space="preserve" font-weight="bold" text-anchor="middle" x="577" y="282">SubmapTerminal</text>
	<line stroke="black" stroke-opacity="1" x1="513" y1="284" x2="641" y2="284" />
	<line stroke="black" stroke-opacity="1" x1="513" y1="292" x2="641" y2="292" />
</g>
<g>
	<line stroke="#000000" stroke-opacity="1" x1="578" y1="264" x2="578" y2="213" />
</g>
<g>
	<line stroke="#000000" stroke-opacity="1" x1="578" y1="213" x2="578" y2="167" />
	<line stroke="#000000" stroke-opacity="1" x1="578" y1="161" x2="572" y2="167" />
	<line stroke="#000000" stroke-opacity="1" x1="578" y1="161" x2="584" y2="167" />
	<line stroke="#000000" stroke-opacity="1" x1="572" y1="167" x2="584" y2="167" />
</g>
<g>
	<line stroke="black" stroke-opacity="1" x1="922" y1="284" x2="784" y2="284" />
	<polygon fill="#000000" stroke="black" stroke-opacity="1" points="922,284 916,290 910,284 916,278" />
</g>
<g>
	<line stroke="black" stroke-opacity="1" x1="784" y1="284" x2="645" y2="284" />
</g>
<g>
	<rect fill="#cbcbcb" stroke="none" stroke-opacity="1" x="432" y="349" width="3" height="33" />
	<rect fill="#cbcbcb" stroke="none" stroke-opacity="1" x="336" y="379" width="99" height="3" />
	<rect fill="#ffffff" stroke="black" stroke-width="1" stroke-opacity="1" x="332" y="345" width="100" height="34" />
	<text font-family="Helvetica" font-size="15" fill="#000000" xml:space="preserve" font-weight="bold" font-style="italic" text-anchor="middle" x="382" y="362">AuxiliaryUnit</text>
	<line stroke="black" stroke-opacity="1" x1="332" y1="364" x2="432" y2="364" />
	<line stroke="black" stroke-opacity="1" x1="332" y1="372" x2="432" y2="372" />
</g>
<g>
	<line stroke="#000000" stroke-opacity="1" x1="578" y1="303" x2="578" y2="324" />
</g>
<g>
	<line stroke="#000000" stroke-opacity="1" x1="578" y1="324" x2="383" y2="324" />
</g>
<g>
	<line stroke="#000000" stroke-opacity="1" x1="383" y1="324" x2="383" y2="338" />
	<line stroke="#000000" stroke-opacity="1" x1="383" y1="344" x2="389" y2="338" />
	<line stroke="#000000" stroke-opacity="1" x1="383" y1="344" x2="377" y2="338" />
	<line stroke="#000000" stroke-opacity="1" x1="389" y1="338" x2="377" y2="338" />
</g>
<g>
	<text font-family="Helvetica" font-size="15" fill="#000000" xml:space="preserve" x="904" y="306">1</text>
</g>
<g>
	<text font-family="Helvetica" font-size="15" fill="#000000" xml:space="preserve" x="655" y="306">1..*</text>
</g>
<g>
	<text font-family="Helvetica" font-size="15" fill="#000000" xml:space="preserve" x="84" y="261">ref_epn</text>
</g>
<g>
	<text font-family="Helvetica" font-size="15" fill="#000000" xml:space="preserve" x="929" y="157">1</text>
</g>
<g>
	<text font-family="Helvetica" font-size="15" fill="#000000" xml:space="preserve" x="660" y="157">*</text>
</g>
<g>
	<text font-family="Helvetica" font-size="15" fill="#000000" xml:space="preserve" x="761" y="279">owning_submap_node</text>
</g>
<g>
	<text font-family="Helvetica" font-size="15" fill="#000000" xml:space="preserve" x="655" y="279">terminals</text>
</g>
<g>
	<text font-family="Helvetica" font-size="15" fill="#000000" xml:space="preserve" x="660" y="130">cross_references</text>
</g>
<g>
	<text font-family="Helvetica" font-size="15" fill="#000000" xml:space="preserve" x="127" y="288">1</text>
</g>
<g>
	<text font-family="Helvetica" font-size="15" fill="#000000" xml:space="preserve" x="952" y="176">1</text>
</g>
<g>
	<text font-family="Helvetica" font-size="15" fill="#000000" xml:space="preserve" x="278" y="158">1</text>
</g>
<g>
	<text font-family="Helvetica" font-size="15" fill="#000000" xml:space="preserve" x="278" y="131">equivalence</text>
</g>
<g>
	<text font-family="Helvetica" font-size="15" fill="#000000" xml:space="preserve" x="442" y="131">crossref</text>
</g>
<g>
	<text font-family="Helvetica" font-size="15" fill="#000000" xml:space="preserve" x="127" y="158">*</text>
</g>
<g>
	<text font-family="Helvetica" font-size="15" fill="#000000" xml:space="preserve" x="487" y="158">1</text>
</g>
<g>
	<text font-family="Helvetica" font-size="15" fill="#000000" xml:space="preserve" x="980" y="176">submap</text>
</g>
<g>
	<text font-family="Helvetica" font-size="15" fill="#000000" xml:space="preserve" x="852" y="130">owning_map</text>
</g>
<g>
	<rect fill="#cbcbcb" stroke="none" stroke-opacity="1" x="264" y="121" width="3" height="33" />
	<rect fill="#cbcbcb" stroke="none" stroke-opacity="1" x="148" y="151" width="119" height="3" />
	<rect fill="#ffffff" stroke="black" stroke-width="1" stroke-opacity="1" x="144" y="117" width="120" height="34" />
	<text font-family="Helvetica" font-size="15" fill="#000000" xml:space="preserve" font-weight="bold" text-anchor="middle" x="204" y="134">EquivalenceArc</text>
	<line stroke="black" stroke-opacity="1" x1="144" y1="136" x2="264" y2="136" />
	<line stroke="black" stroke-opacity="1" x1="144" y1="144" x2="264" y2="144" />
</g>
<g>
	<rect fill="#cbcbcb" stroke="none" stroke-opacity="1" x="988" y="120" width="3" height="33" />
	<rect fill="#cbcbcb" stroke="none" stroke-opacity="1" x="952" y="150" width="39" height="3" />
	<rect fill="#ffffff" stroke="black" stroke-width="1" stroke-opacity="1" x="948" y="116" width="40" height="34" />
	<text font-family="Helvetica" font-size="15" fill="#000000" xml:space="preserve" font-weight="bold" text-anchor="middle" x="968" y="133">Map</text>
	<line stroke="black" stroke-opacity="1" x1="948" y1="135" x2="988" y2="135" />
	<line stroke="black" stroke-opacity="1" x1="948" y1="143" x2="988" y2="143" />
</g>
<g>
	<line stroke="black" stroke-opacity="1" x1="970" y1="154" x2="964" y2="160" />
	<line stroke="black" stroke-opacity="1" x1="970" y1="154" x2="976" y2="159" />
	<line stroke="black" stroke-opacity="1" x1="971" y1="258" x2="970" y2="154" />
</g>
<g>
	<line stroke="black" stroke-opacity="1" x1="268" y1="136" x2="387" y2="136" />
	<polygon fill="#ffffff" stroke="black" stroke-opacity="1" points="268,136 274,130 280,136 274,142" />
</g>
<g>
	<line stroke="black" stroke-opacity="1" x1="387" y1="136" x2="505" y2="136" />
</g>
<g>
	<line stroke="black" stroke-opacity="1" x1="947" y1="135" x2="650" y2="135" />
	<polygon fill="#ffffff" stroke="black" stroke-opacity="1" points="947,135 941,141 935,135 941,129" />
</g>
<g>
	<rect fill="#cbcbcb" stroke="none" stroke-opacity="1" x="266" y="245" width="3" height="45" />
	<rect fill="#cbcbcb" stroke="none" stroke-opacity="1" x="150" y="287" width="119" height="3" />
	<rect fill="#ffffff" stroke="black" stroke-width="1" stroke-opacity="1" x="146" y="241" width="120" height="46" />
	<text font-family="Helvetica" font-size="15" fill="#000000" xml:space="preserve" font-weight="bold" font-style="italic" text-anchor="middle" x="206" y="258">EntityPoolNode</text>
	<line stroke="black" stroke-opacity="1" x1="146" y1="260" x2="266" y2="260" />
	<text font-family="Helvetica" font-size="15" fill="#000000" xml:space="preserve" x="150" y="277">cardinality : int</text>
	<line stroke="black" stroke-opacity="1" x1="146" y1="279" x2="266" y2="279" />
</g>
<g>
	<line stroke="black" stroke-opacity="1" x1="143" y1="136" x2="72" y2="136" />
</g>
<g>
	<line stroke="black" stroke-opacity="1" x1="72" y1="136" x2="72" y2="266" />
</g>
<g>
	<line stroke="black" stroke-opacity="1" x1="145" y1="266" x2="139" y2="260" />
	<line stroke="black" stroke-opacity="1" x1="145" y1="266" x2="139" y2="272" />
	<line stroke="black" stroke-opacity="1" x1="72" y1="266" x2="145" y2="266" />
</g>
</svg>
