<?xml version="1.0" encoding="UTF-8" standalone="no"?>
<!-- Created with Bouml (http://bouml.free.fr/) -->
<!DOCTYPE svg PUBLIC "-//W3C//DTD SVG 1.1//EN" "http://www.w3.org/Graphics/SVG/1.1/DTD/svg11.dtd">
<svg width="1108" height="450" version="1.1" xmlns="http://www.w3.org/2000/svg">
<g>
	<rect fill="#808080" stroke="none" stroke-opacity="1" x="691" y="390" width="3" height="47" />
	<rect fill="#808080" stroke="none" stroke-opacity="1" x="535" y="434" width="159" height="3" />
	<rect fill="#ffffff" stroke="black" stroke-width="1" stroke-opacity="1" x="531" y="386" width="160" height="48" />
	<text font-family="Helvetica" font-size="15" fill="#000000" xml:space="preserve" font-weight="bold" text-anchor="middle" x="611" y="403">Annotation</text>
	<line stroke="black" stroke-opacity="1" x1="531" y1="406" x2="691" y2="406" />
	<text font-family="Helvetica" font-size="15" fill="#000000" xml:space="preserve" x="535" y="423">annotation_text : string</text>
	<line stroke="black" stroke-opacity="1" x1="531" y1="426" x2="691" y2="426" />
</g>
<g>
	<rect fill="#808080" stroke="none" stroke-opacity="1" x="775" y="266" width="3" height="35" />
	<rect fill="#808080" stroke="none" stroke-opacity="1" x="647" y="298" width="131" height="3" />
	<rect fill="#ffffff" stroke="black" stroke-width="1" stroke-opacity="1" x="643" y="262" width="132" height="36" />
	<text font-family="Helvetica" font-size="15" fill="#000000" xml:space="preserve" font-weight="bold" text-anchor="middle" x="709" y="279">SubmapTerminal</text>
	<line stroke="black" stroke-opacity="1" x1="643" y1="282" x2="775" y2="282" />
	<line stroke="black" stroke-opacity="1" x1="643" y1="290" x2="775" y2="290" />
</g>
<g>
	<rect fill="#808080" stroke="none" stroke-opacity="1" x="1092" y="267" width="3" height="35" />
	<rect fill="#808080" stroke="none" stroke-opacity="1" x="998" y="299" width="97" height="3" />
	<rect fill="#ffffff" stroke="black" stroke-width="1" stroke-opacity="1" x="994" y="263" width="98" height="36" />
	<text font-family="Helvetica" font-size="15" fill="#000000" xml:space="preserve" font-weight="bold" font-style="italic" text-anchor="middle" x="1043" y="280">CloneMarker</text>
	<line stroke="black" stroke-opacity="1" x1="994" y1="283" x2="1092" y2="283" />
	<line stroke="black" stroke-opacity="1" x1="994" y1="291" x2="1092" y2="291" />
</g>
<g>
	<rect fill="#808080" stroke="none" stroke-opacity="1" x="661" y="86" width="3" height="35" />
	<rect fill="#808080" stroke="none" stroke-opacity="1" x="567" y="118" width="97" height="3" />
	<rect fill="#90e990" stroke="black" stroke-width="1" stroke-opacity="1" x="563" y="82" width="98" height="36" />
	<text font-family="Helvetica" font-size="15" fill="#000000" xml:space="preserve" font-weight="bold" font-style="italic" text-anchor="middle" x="612" y="99">AuxiliaryUnit</text>
	<line stroke="black" stroke-opacity="1" x1="563" y1="102" x2="661" y2="102" />
	<line stroke="black" stroke-opacity="1" x1="563" y1="110" x2="661" y2="110" />
</g>
<g>
	<line stroke="black" stroke-opacity="1" x1="710" y1="192" x2="613" y2="192" />
</g>
<g>
	<line stroke="black" stroke-opacity="1" x1="613" y1="192" x2="613" y2="128" />
	<line stroke="black" stroke-opacity="1" x1="613" y1="122" x2="607" y2="128" />
	<line stroke="black" stroke-opacity="1" x1="613" y1="122" x2="619" y2="128" />
	<line stroke="black" stroke-opacity="1" x1="607" y1="128" x2="619" y2="128" />
</g>
<g>
	<line stroke="black" stroke-opacity="1" x1="710" y1="261" x2="710" y2="192" />
</g>
<g>
	<line stroke="black" stroke-opacity="1" x1="613" y1="385" x2="613" y2="254" />
</g>
<g>
	<line stroke="black" stroke-opacity="1" x1="613" y1="254" x2="613" y2="128" />
	<line stroke="black" stroke-opacity="1" x1="613" y1="122" x2="607" y2="128" />
	<line stroke="black" stroke-opacity="1" x1="613" y1="122" x2="619" y2="128" />
	<line stroke="black" stroke-opacity="1" x1="607" y1="128" x2="619" y2="128" />
</g>
<g>
	<rect fill="#808080" stroke="none" stroke-opacity="1" x="945" y="267" width="3" height="65" />
	<rect fill="#808080" stroke="none" stroke-opacity="1" x="843" y="329" width="105" height="3" />
	<rect fill="#ffffff" stroke="black" stroke-width="1" stroke-opacity="1" x="839" y="263" width="106" height="66" />
	<text font-family="Helvetica" font-size="15" fill="#000000" xml:space="preserve" font-weight="bold" text-anchor="middle" x="892" y="280">StateVariable</text>
	<line stroke="black" stroke-opacity="1" x1="839" y1="283" x2="945" y2="283" />
	<text font-family="Helvetica" font-size="15" fill="#000000" xml:space="preserve" x="843" y="300">name : string</text>
	<text font-family="Helvetica" font-size="15" fill="#000000" xml:space="preserve" x="843" y="318">value : string</text>
	<line stroke="black" stroke-opacity="1" x1="839" y1="321" x2="945" y2="321" />
</g>
<g>
	<rect fill="#808080" stroke="none" stroke-opacity="1" x="579" y="266" width="3" height="65" />
	<rect fill="#808080" stroke="none" stroke-opacity="1" x="471" y="328" width="111" height="3" />
	<rect fill="#ffffff" stroke="black" stroke-width="1" stroke-opacity="1" x="467" y="262" width="112" height="66" />
	<text font-family="Helvetica" font-size="15" fill="#000000" xml:space="preserve" font-weight="bold" text-anchor="middle" x="523" y="279">AttributeValue</text>
	<line stroke="black" stroke-opacity="1" x1="467" y1="282" x2="579" y2="282" />
	<text font-family="Helvetica" font-size="15" fill="#000000" xml:space="preserve" x="471" y="299">code : string</text>
	<text font-family="Helvetica" font-size="15" fill="#000000" xml:space="preserve" x="471" y="317">value : object</text>
	<line stroke="black" stroke-opacity="1" x1="467" y1="320" x2="579" y2="320" />
</g>
<g>
	<line stroke="black" stroke-opacity="1" x1="1044" y1="262" x2="1044" y2="192" />
</g>
<g>
	<line stroke="black" stroke-opacity="1" x1="1044" y1="192" x2="613" y2="192" />
</g>
<g>
	<line stroke="black" stroke-opacity="1" x1="613" y1="192" x2="613" y2="128" />
	<line stroke="black" stroke-opacity="1" x1="613" y1="122" x2="607" y2="128" />
	<line stroke="black" stroke-opacity="1" x1="613" y1="122" x2="619" y2="128" />
	<line stroke="black" stroke-opacity="1" x1="607" y1="128" x2="619" y2="128" />
</g>
<g>
	<line stroke="black" stroke-opacity="1" x1="893" y1="262" x2="893" y2="192" />
</g>
<g>
	<line stroke="black" stroke-opacity="1" x1="893" y1="192" x2="613" y2="192" />
</g>
<g>
	<line stroke="black" stroke-opacity="1" x1="613" y1="192" x2="613" y2="128" />
	<line stroke="black" stroke-opacity="1" x1="613" y1="122" x2="607" y2="128" />
	<line stroke="black" stroke-opacity="1" x1="613" y1="122" x2="619" y2="128" />
	<line stroke="black" stroke-opacity="1" x1="607" y1="128" x2="619" y2="128" />
</g>
<g>
	<line stroke="black" stroke-opacity="1" x1="524" y1="261" x2="524" y2="192" />
</g>
<g>
	<line stroke="black" stroke-opacity="1" x1="524" y1="192" x2="613" y2="192" />
</g>
<g>
	<line stroke="black" stroke-opacity="1" x1="613" y1="192" x2="613" y2="128" />
	<line stroke="black" stroke-opacity="1" x1="613" y1="122" x2="607" y2="128" />
	<line stroke="black" stroke-opacity="1" x1="613" y1="122" x2="619" y2="128" />
	<line stroke="black" stroke-opacity="1" x1="607" y1="128" x2="619" y2="128" />
</g>
<g>
	<rect fill="#808080" stroke="none" stroke-opacity="1" x="258" y="266" width="3" height="83" />
	<rect fill="#808080" stroke="none" stroke-opacity="1" x="116" y="346" width="145" height="3" />
	<rect fill="#ffffff" stroke="black" stroke-width="1" stroke-opacity="1" x="112" y="262" width="146" height="84" />
	<text font-family="Helvetica" font-size="15" fill="#000000" xml:space="preserve" font-weight="bold" text-anchor="middle" x="185" y="279">Subunit</text>
	<line stroke="black" stroke-opacity="1" x1="112" y1="282" x2="258" y2="282" />
	<text font-family="Helvetica" font-size="15" fill="#000000" xml:space="preserve" x="116" y="299">cardinality : int</text>
	<text font-family="Helvetica" font-size="15" fill="#000000" xml:space="preserve" x="116" y="317">natures : cv</text>
	<text font-family="Helvetica" font-size="15" fill="#000000" xml:space="preserve" x="116" y="335">subunit_type : Enum</text>
	<line stroke="black" stroke-opacity="1" x1="112" y1="338" x2="258" y2="338" />
</g>
<g>
	<line stroke="black" stroke-opacity="1" x1="187" y1="261" x2="187" y2="192" />
</g>
<g>
	<line stroke="black" stroke-opacity="1" x1="187" y1="192" x2="613" y2="192" />
</g>
<g>
	<line stroke="black" stroke-opacity="1" x1="613" y1="192" x2="613" y2="128" />
	<line stroke="black" stroke-opacity="1" x1="613" y1="122" x2="607" y2="128" />
	<line stroke="black" stroke-opacity="1" x1="613" y1="122" x2="619" y2="128" />
	<line stroke="black" stroke-opacity="1" x1="607" y1="128" x2="619" y2="128" />
</g>
<g>
	<line stroke="black" stroke-opacity="1" x1="111" y1="303" x2="79" y2="303" />
	<polygon fill="#000000" stroke="black" stroke-opacity="1" points="111,303 105,309 99,303 105,297" />
</g>
<g>
	<line stroke="black" stroke-opacity="1" x1="79" y1="303" x2="79" y2="391" />
</g>
<g>
	<line stroke="black" stroke-opacity="1" x1="79" y1="391" x2="187" y2="391" />
</g>
<g>
	<line stroke="black" stroke-opacity="1" x1="187" y1="350" x2="181" y2="356" />
	<line stroke="black" stroke-opacity="1" x1="187" y1="350" x2="193" y2="356" />
	<line stroke="black" stroke-opacity="1" x1="187" y1="391" x2="187" y2="350" />
</g>
<g>
	<line stroke="black" stroke-opacity="1" x1="466" y1="297" x2="460" y2="291" />
	<line stroke="black" stroke-opacity="1" x1="466" y1="297" x2="460" y2="303" />
	<line stroke="black" stroke-opacity="1" x1="262" y1="297" x2="466" y2="297" />
	<polygon fill="#000000" stroke="black" stroke-opacity="1" points="262,297 268,291 274,297 268,303" />
</g>
<g>
	<text font-family="Helvetica" font-size="15" fill="#000000" xml:space="preserve" x="197" y="373">children</text>
</g>
<g>
	<text font-family="Helvetica" font-size="15" fill="#000000" xml:space="preserve" x="171" y="373">*</text>
</g>
<g>
	<text font-family="Helvetica" font-size="15" fill="#000000" xml:space="preserve" x="93" y="326">1</text>
</g>
<g>
	<text font-family="Helvetica" font-size="15" fill="#000000" xml:space="preserve" x="317" y="291">displayed_attributes</text>
</g>
<g>
	<text font-family="Helvetica" font-size="15" fill="#000000" xml:space="preserve" x="450" y="320">*</text>
</g>
</svg>
