<?xml version="1.0" encoding="UTF-8" standalone="no"?>
<!-- Created with Bouml (http://bouml.free.fr/) -->
<!DOCTYPE svg PUBLIC "-//W3C//DTD SVG 1.1//EN" "http://www.w3.org/Graphics/SVG/1.1/DTD/svg11.dtd">
<svg width="937" height="525" version="1.1" xmlns="http://www.w3.org/2000/svg">
<g>
	<rect fill="#808080" stroke="none" stroke-opacity="1" x="363" y="108" width="3" height="47" />
	<rect fill="#808080" stroke="none" stroke-opacity="1" x="225" y="152" width="141" height="3" />
	<rect fill="#ffffff" stroke="black" stroke-width="1" stroke-opacity="1" x="221" y="104" width="142" height="48" />
	<text font-family="Helvetica" font-size="15" fill="#000000" xml:space="preserve" font-weight="bold" font-style="italic" text-anchor="middle" x="292" y="121">CrossReference</text>
	<line stroke="black" stroke-opacity="1" x1="221" y1="124" x2="363" y2="124" />
	<text font-family="Helvetica" font-size="15" fill="#000000" xml:space="preserve" x="225" y="141">reference_id : string</text>
	<line stroke="black" stroke-opacity="1" x1="221" y1="144" x2="363" y2="144" />
</g>
<g>
	<rect fill="#808080" stroke="none" stroke-opacity="1" x="130" y="292" width="3" height="35" />
	<rect fill="#808080" stroke="none" stroke-opacity="1" x="36" y="324" width="97" height="3" />
	<rect fill="#ffffff" stroke="black" stroke-width="1" stroke-opacity="1" x="32" y="288" width="98" height="36" />
	<text font-family="Helvetica" font-size="15" fill="#000000" xml:space="preserve" font-weight="bold" font-style="italic" text-anchor="middle" x="81" y="305">AuxiliaryUnit</text>
	<line stroke="black" stroke-opacity="1" x1="32" y1="308" x2="130" y2="308" />
	<line stroke="black" stroke-opacity="1" x1="32" y1="316" x2="130" y2="316" />
</g>
<g>
	<rect fill="#808080" stroke="none" stroke-opacity="1" x="921" y="283" width="3" height="35" />
	<rect fill="#808080" stroke="none" stroke-opacity="1" x="831" y="315" width="93" height="3" />
	<rect fill="#ffffff" stroke="black" stroke-width="1" stroke-opacity="1" x="827" y="279" width="94" height="36" />
	<text font-family="Helvetica" font-size="15" fill="#000000" xml:space="preserve" font-weight="bold" font-style="italic" text-anchor="middle" x="874" y="296">SBGNGlyph</text>
	<line stroke="black" stroke-opacity="1" x1="827" y1="299" x2="921" y2="299" />
	<line stroke="black" stroke-opacity="1" x1="827" y1="307" x2="921" y2="307" />
</g>
<g>
	<rect fill="#808080" stroke="none" stroke-opacity="1" x="241" y="439" width="3" height="35" />
	<rect fill="#808080" stroke="none" stroke-opacity="1" x="113" y="471" width="131" height="3" />
	<rect fill="#ffffff" stroke="black" stroke-width="1" stroke-opacity="1" x="109" y="435" width="132" height="36" />
	<text font-family="Helvetica" font-size="15" fill="#000000" xml:space="preserve" font-weight="bold" text-anchor="middle" x="175" y="452">SubmapTerminal</text>
	<line stroke="black" stroke-opacity="1" x1="109" y1="455" x2="241" y2="455" />
	<line stroke="black" stroke-opacity="1" x1="109" y1="463" x2="241" y2="463" />
</g>
<g>
	<rect fill="#808080" stroke="none" stroke-opacity="1" x="634" y="477" width="3" height="35" />
	<rect fill="#808080" stroke="none" stroke-opacity="1" x="598" y="509" width="39" height="3" />
	<rect fill="#ffffff" stroke="black" stroke-width="1" stroke-opacity="1" x="594" y="473" width="40" height="36" />
	<text font-family="Helvetica" font-size="15" fill="#000000" xml:space="preserve" font-weight="bold" text-anchor="middle" x="614" y="490">Tag</text>
	<line stroke="black" stroke-opacity="1" x1="594" y1="493" x2="634" y2="493" />
	<line stroke="black" stroke-opacity="1" x1="594" y1="501" x2="634" y2="501" />
</g>
<g>
	<line stroke="black" stroke-opacity="1" x1="177" y1="434" x2="177" y2="396" />
</g>
<g>
	<line stroke="black" stroke-opacity="1" x1="177" y1="396" x2="83" y2="396" />
</g>
<g>
	<line stroke="black" stroke-opacity="1" x1="83" y1="396" x2="83" y2="334" />
	<line stroke="black" stroke-opacity="1" x1="83" y1="328" x2="77" y2="334" />
	<line stroke="black" stroke-opacity="1" x1="83" y1="328" x2="89" y2="334" />
	<line stroke="black" stroke-opacity="1" x1="77" y1="334" x2="89" y2="334" />
</g>
<g>
	<line stroke="black" stroke-opacity="1" x1="177" y1="434" x2="177" y2="396" />
</g>
<g>
	<line stroke="black" stroke-opacity="1" x1="177" y1="396" x2="294" y2="396" />
</g>
<g>
	<line stroke="black" stroke-opacity="1" x1="294" y1="396" x2="294" y2="162" />
	<line stroke="black" stroke-opacity="1" x1="294" y1="156" x2="288" y2="162" />
	<line stroke="black" stroke-opacity="1" x1="294" y1="156" x2="300" y2="162" />
	<line stroke="black" stroke-opacity="1" x1="288" y1="162" x2="300" y2="162" />
</g>
<g>
	<line stroke="black" stroke-opacity="1" x1="615" y1="472" x2="615" y2="396" />
</g>
<g>
	<line stroke="black" stroke-opacity="1" x1="615" y1="396" x2="875" y2="396" />
</g>
<g>
	<line stroke="black" stroke-opacity="1" x1="875" y1="396" x2="875" y2="325" />
	<line stroke="black" stroke-opacity="1" x1="875" y1="319" x2="869" y2="325" />
	<line stroke="black" stroke-opacity="1" x1="875" y1="319" x2="881" y2="325" />
	<line stroke="black" stroke-opacity="1" x1="869" y1="325" x2="881" y2="325" />
</g>
<g>
	<line stroke="black" stroke-opacity="1" x1="615" y1="472" x2="615" y2="396" />
</g>
<g>
	<line stroke="black" stroke-opacity="1" x1="615" y1="396" x2="294" y2="396" />
</g>
<g>
	<line stroke="black" stroke-opacity="1" x1="294" y1="396" x2="294" y2="162" />
	<line stroke="black" stroke-opacity="1" x1="294" y1="156" x2="288" y2="162" />
	<line stroke="black" stroke-opacity="1" x1="294" y1="156" x2="300" y2="162" />
	<line stroke="black" stroke-opacity="1" x1="288" y1="162" x2="300" y2="162" />
</g>
<g>
	<text font-family="Helvetica" font-size="15" fill="#000000" xml:space="preserve" x="459" y="123">equivalence</text>
</g>
<g>
	<text font-family="Helvetica" font-size="15" fill="#000000" xml:space="preserve" x="377" y="123">crossref</text>
</g>
<g>
	<text font-family="Helvetica" font-size="15" fill="#000000" xml:space="preserve" x="535" y="152">1</text>
</g>
<g>
	<text font-family="Helvetica" font-size="15" fill="#000000" xml:space="preserve" x="377" y="152">1</text>
</g>
<g>
	<text font-family="Helvetica" font-size="15" fill="#000000" xml:space="preserve" x="737" y="124">ref_epn</text>
</g>
<g>
	<text font-family="Helvetica" font-size="15" fill="#000000" xml:space="preserve" x="781" y="153">1</text>
</g>
<g>
	<text font-family="Helvetica" font-size="15" fill="#000000" xml:space="preserve" x="690" y="153">*</text>
</g>
<g>
	<rect fill="#808080" stroke="none" stroke-opacity="1" x="676" y="114" width="3" height="35" />
	<rect fill="#808080" stroke="none" stroke-opacity="1" x="558" y="146" width="121" height="3" />
	<rect fill="#ffffff" stroke="black" stroke-width="1" stroke-opacity="1" x="554" y="110" width="122" height="36" />
	<text font-family="Helvetica" font-size="15" fill="#000000" xml:space="preserve" font-weight="bold" text-anchor="middle" x="615" y="127">EquivalenceArc</text>
	<line stroke="black" stroke-opacity="1" x1="554" y1="130" x2="676" y2="130" />
	<line stroke="black" stroke-opacity="1" x1="554" y1="138" x2="676" y2="138" />
</g>
<g>
	<line stroke="black" stroke-opacity="1" x1="617" y1="150" x2="617" y2="214" />
</g>
<g>
	<line stroke="black" stroke-opacity="1" x1="617" y1="214" x2="875" y2="214" />
</g>
<g>
	<line stroke="black" stroke-opacity="1" x1="875" y1="214" x2="875" y2="272" />
	<line stroke="black" stroke-opacity="1" x1="875" y1="278" x2="881" y2="272" />
	<line stroke="black" stroke-opacity="1" x1="875" y1="278" x2="869" y2="272" />
	<line stroke="black" stroke-opacity="1" x1="881" y1="272" x2="869" y2="272" />
</g>
<g>
	<line stroke="black" stroke-opacity="1" x1="367" y1="129" x2="460" y2="129" />
</g>
<g>
	<line stroke="black" stroke-opacity="1" x1="460" y1="129" x2="553" y2="129" />
</g>
<g>
	<rect fill="#808080" stroke="none" stroke-opacity="1" x="918" y="91" width="3" height="83" />
	<rect fill="#808080" stroke="none" stroke-opacity="1" x="804" y="171" width="117" height="3" />
	<rect fill="#ffffff" stroke="black" stroke-width="1" stroke-opacity="1" x="800" y="87" width="118" height="84" />
	<text font-family="Helvetica" font-size="15" fill="#000000" xml:space="preserve" font-weight="bold" font-style="italic" text-anchor="middle" x="859" y="104">EntityPoolNode</text>
	<line stroke="black" stroke-opacity="1" x1="800" y1="107" x2="918" y2="107" />
	<text font-family="Helvetica" font-size="15" fill="#000000" xml:space="preserve" x="804" y="124">name : string</text>
	<text font-family="Helvetica" font-size="15" fill="#000000" xml:space="preserve" x="804" y="142">cardinality : int</text>
	<text font-family="Helvetica" font-size="15" fill="#000000" xml:space="preserve" x="804" y="160">natures : cv</text>
	<line stroke="black" stroke-opacity="1" x1="800" y1="163" x2="918" y2="163" />
</g>
<g>
	<line stroke="black" stroke-opacity="1" x1="799" y1="130" x2="793" y2="124" />
	<line stroke="black" stroke-opacity="1" x1="799" y1="130" x2="793" y2="136" />
	<line stroke="black" stroke-opacity="1" x1="680" y1="130" x2="799" y2="130" />
</g>
</svg>
