<?xml version="1.0" encoding="UTF-8" standalone="no"?>
<!-- Created with Bouml (http://bouml.free.fr/) -->
<!DOCTYPE svg PUBLIC "-//W3C//DTD SVG 1.1//EN" "http://www.w3.org/Graphics/SVG/1.1/DTD/svg11.dtd">
<svg width="691" height="336" version="1.1" xmlns="http://www.w3.org/2000/svg">
<g>
	<rect fill="#808080" stroke="none" stroke-opacity="1" x="675" y="287" width="3" height="35" />
	<rect fill="#808080" stroke="none" stroke-opacity="1" x="593" y="319" width="85" height="3" />
	<rect fill="#ffffff" stroke="black" stroke-width="1" stroke-opacity="1" x="589" y="283" width="86" height="36" />
	<text font-family="Helvetica" font-size="15" fill="#000000" xml:space="preserve" font-weight="bold" text-anchor="middle" x="632" y="300">Phenotype</text>
	<line stroke="black" stroke-opacity="1" x1="589" y1="303" x2="675" y2="303" />
	<line stroke="black" stroke-opacity="1" x1="589" y1="311" x2="675" y2="311" />
</g>
<g>
	<rect fill="#808080" stroke="none" stroke-opacity="1" x="418" y="288" width="3" height="35" />
	<rect fill="#808080" stroke="none" stroke-opacity="1" x="352" y="320" width="69" height="3" />
	<rect fill="#ffffff" stroke="black" stroke-width="1" stroke-opacity="1" x="348" y="284" width="70" height="36" />
	<text font-family="Helvetica" font-size="15" fill="#000000" xml:space="preserve" font-weight="bold" text-anchor="middle" x="383" y="301">Submap</text>
	<line stroke="black" stroke-opacity="1" x1="348" y1="304" x2="418" y2="304" />
	<line stroke="black" stroke-opacity="1" x1="348" y1="312" x2="418" y2="312" />
</g>
<g>
	<rect fill="#808080" stroke="none" stroke-opacity="1" x="611" y="111" width="3" height="35" />
	<rect fill="#808080" stroke="none" stroke-opacity="1" x="409" y="143" width="205" height="3" />
	<rect fill="#ffffff" stroke="black" stroke-width="1" stroke-opacity="1" x="405" y="107" width="206" height="36" />
	<text font-family="Helvetica" font-size="15" fill="#000000" xml:space="preserve" font-weight="bold" text-anchor="middle" x="508" y="124">NonStoichiometricProcess</text>
	<line stroke="black" stroke-opacity="1" x1="405" y1="127" x2="611" y2="127" />
	<line stroke="black" stroke-opacity="1" x1="405" y1="135" x2="611" y2="135" />
</g>
<g>
	<line stroke="black" stroke-opacity="1" x1="384" y1="283" x2="384" y2="215" />
</g>
<g>
	<line stroke="black" stroke-opacity="1" x1="634" y1="282" x2="634" y2="215" />
</g>
<g>
	<line stroke="black" stroke-opacity="1" x1="384" y1="215" x2="510" y2="215" />
</g>
<g>
	<line stroke="black" stroke-opacity="1" x1="634" y1="215" x2="510" y2="215" />
</g>
<g>
	<line stroke="black" stroke-opacity="1" x1="510" y1="215" x2="510" y2="153" />
	<line stroke="black" stroke-opacity="1" x1="510" y1="147" x2="504" y2="153" />
	<line stroke="black" stroke-opacity="1" x1="510" y1="147" x2="516" y2="153" />
	<line stroke="black" stroke-opacity="1" x1="504" y1="153" x2="516" y2="153" />
</g>
<g>
	<line stroke="black" stroke-opacity="1" x1="510" y1="215" x2="510" y2="153" />
	<line stroke="black" stroke-opacity="1" x1="510" y1="147" x2="504" y2="153" />
	<line stroke="black" stroke-opacity="1" x1="510" y1="147" x2="516" y2="153" />
	<line stroke="black" stroke-opacity="1" x1="504" y1="153" x2="516" y2="153" />
</g>
</svg>
