<?xml version="1.0" encoding="UTF-8" standalone="no"?>
<!-- Created with Bouml (http://bouml.free.fr/) -->
<!DOCTYPE svg PUBLIC "-//W3C//DTD SVG 1.1//EN" "http://www.w3.org/Graphics/SVG/1.1/DTD/svg11.dtd">
<svg width="2090" height="831" version="1.1" xmlns="http://www.w3.org/2000/svg">
<g>
	<rect fill="#808080" stroke="none" stroke-opacity="1" x="1442" y="132" width="2" height="30" />
	<rect fill="#808080" stroke="none" stroke-opacity="1" x="1358" y="160" width="86" height="2" />
	<rect fill="#ffffff" stroke="black" stroke-width="1" stroke-opacity="1" x="1355" y="129" width="87" height="31" />
	<text font-family="Helvetica" font-size="14" fill="#000000" xml:space="preserve" font-weight="bold" font-style="italic" text-anchor="middle" x="1399" y="144">SBGNGlyph</text>
</g>
<g>
	<rect fill="#808080" stroke="none" stroke-opacity="1" x="1408" y="254" width="2" height="30" />
	<rect fill="#808080" stroke="none" stroke-opacity="1" x="1328" y="282" width="82" height="2" />
	<rect fill="#ffffff" stroke="black" stroke-width="1" stroke-opacity="1" x="1325" y="251" width="83" height="31" />
	<text font-family="Helvetica" font-size="14" fill="#000000" xml:space="preserve" font-weight="bold" font-style="italic" text-anchor="middle" x="1367" y="266">SBGNNode</text>
</g>
<g>
	<rect fill="#808080" stroke="none" stroke-opacity="1" x="1981" y="254" width="2" height="30" />
	<rect fill="#808080" stroke="none" stroke-opacity="1" x="1915" y="282" width="68" height="2" />
	<rect fill="#ffffff" stroke="black" stroke-width="1" stroke-opacity="1" x="1912" y="251" width="69" height="31" />
	<text font-family="Helvetica" font-size="14" fill="#000000" xml:space="preserve" font-weight="bold" font-style="italic" text-anchor="middle" x="1947" y="266">SBGNArc</text>
</g>
<g>
	<rect fill="#808080" stroke="none" stroke-opacity="1" x="1016" y="372" width="2" height="30" />
	<rect fill="#808080" stroke="none" stroke-opacity="1" x="906" y="400" width="112" height="2" />
	<rect fill="#ffffff" stroke="black" stroke-width="1" stroke-opacity="1" x="903" y="369" width="113" height="31" />
	<text font-family="Helvetica" font-size="14" fill="#000000" xml:space="preserve" font-weight="bold" font-style="italic" text-anchor="middle" x="960" y="384">EntityPoolNode</text>
</g>
<g>
	<rect fill="#808080" stroke="none" stroke-opacity="1" x="662" y="578" width="2" height="30" />
	<rect fill="#808080" stroke="none" stroke-opacity="1" x="596" y="606" width="68" height="2" />
	<rect fill="#ffffff" stroke="black" stroke-width="1" stroke-opacity="1" x="593" y="575" width="69" height="31" />
	<text font-family="Helvetica" font-size="14" fill="#000000" xml:space="preserve" font-weight="bold" text-anchor="middle" x="628" y="590">Complex</text>
</g>
<g>
	<rect fill="#808080" stroke="none" stroke-opacity="1" x="831" y="580" width="2" height="30" />
	<rect fill="#808080" stroke="none" stroke-opacity="1" x="717" y="608" width="116" height="2" />
	<rect fill="#ffffff" stroke="black" stroke-width="1" stroke-opacity="1" x="714" y="577" width="117" height="31" />
	<text font-family="Helvetica" font-size="14" fill="#000000" xml:space="preserve" font-weight="bold" text-anchor="middle" x="773" y="592">Macromolecule</text>
</g>
<g>
	<rect fill="#808080" stroke="none" stroke-opacity="1" x="1039" y="128" width="2" height="30" />
	<rect fill="#808080" stroke="none" stroke-opacity="1" x="1005" y="156" width="36" height="2" />
	<rect fill="#ffffff" stroke="black" stroke-width="1" stroke-opacity="1" x="1002" y="125" width="37" height="31" />
	<text font-family="Helvetica" font-size="14" fill="#000000" xml:space="preserve" font-weight="bold" text-anchor="middle" x="1021" y="140">Map</text>
</g>
<g>
	<rect fill="#808080" stroke="none" stroke-opacity="1" x="1070" y="31" width="2" height="30" />
	<rect fill="#808080" stroke="none" stroke-opacity="1" x="972" y="59" width="100" height="2" />
	<rect fill="#ffffff" stroke="black" stroke-width="1" stroke-opacity="1" x="969" y="28" width="101" height="31" />
	<text font-family="Helvetica" font-size="14" fill="#000000" xml:space="preserve" font-weight="bold" font-style="italic" text-anchor="middle" x="1020" y="43">SBGNElement</text>
</g>
<g>
	<rect fill="#808080" stroke="none" stroke-opacity="1" x="816" y="448" width="2" height="30" />
	<rect fill="#808080" stroke="none" stroke-opacity="1" x="732" y="476" width="86" height="2" />
	<rect fill="#ffffff" stroke="black" stroke-width="1" stroke-opacity="1" x="729" y="445" width="87" height="31" />
	<text font-family="Helvetica" font-size="14" fill="#000000" xml:space="preserve" font-weight="bold" font-style="italic" text-anchor="middle" x="773" y="460">StatefulEPN</text>
</g>
<g>
	<rect fill="#808080" stroke="none" stroke-opacity="1" x="164" y="256" width="2" height="30" />
	<rect fill="#808080" stroke="none" stroke-opacity="1" x="64" y="284" width="102" height="2" />
	<rect fill="#ffffff" stroke="black" stroke-width="1" stroke-opacity="1" x="61" y="253" width="103" height="31" />
	<text font-family="Helvetica" font-size="14" fill="#000000" xml:space="preserve" font-weight="bold" text-anchor="middle" x="113" y="268">StateVariable</text>
</g>
<g>
	<rect fill="#808080" stroke="none" stroke-opacity="1" x="591" y="132" width="2" height="30" />
	<rect fill="#808080" stroke="none" stroke-opacity="1" x="499" y="160" width="94" height="2" />
	<rect fill="#ffffff" stroke="black" stroke-width="1" stroke-opacity="1" x="496" y="129" width="95" height="31" />
	<text font-family="Helvetica" font-size="14" fill="#000000" xml:space="preserve" font-weight="bold" font-style="italic" text-anchor="middle" x="544" y="144">AuxiliaryUnit</text>
</g>
<g>
	<rect fill="#808080" stroke="none" stroke-opacity="1" x="1178" y="622" width="2" height="30" />
	<rect fill="#808080" stroke="none" stroke-opacity="1" x="1084" y="650" width="96" height="2" />
	<rect fill="#ffffff" stroke="black" stroke-width="1" stroke-opacity="1" x="1081" y="619" width="97" height="31" />
	<text font-family="Helvetica" font-size="14" fill="#000000" xml:space="preserve" font-weight="bold" font-style="italic" text-anchor="middle" x="1130" y="634">StatelessEPN</text>
</g>
<g>
	<rect fill="#808080" stroke="none" stroke-opacity="1" x="1440" y="605" width="2" height="32" />
	<rect fill="#808080" stroke="none" stroke-opacity="1" x="1270" y="635" width="172" height="2" />
	<rect fill="#ffffff" stroke="black" stroke-width="1" stroke-opacity="1" x="1267" y="602" width="173" height="33" />
	<text font-family="Helvetica" font-size="14" fill="#000000" xml:space="preserve" font-weight="bold" text-anchor="middle" x="1354" y="617">StoichiometricProcess</text>
</g>
<g>
	<rect fill="#808080" stroke="none" stroke-opacity="1" x="1834" y="390" width="2" height="30" />
	<rect fill="#808080" stroke="none" stroke-opacity="1" x="1778" y="418" width="58" height="2" />
	<rect fill="#ffffff" stroke="black" stroke-width="1" stroke-opacity="1" x="1775" y="387" width="59" height="31" />
	<text font-family="Helvetica" font-size="14" fill="#000000" xml:space="preserve" font-weight="bold" font-style="italic" text-anchor="middle" x="1805" y="402">FluxArc</text>
</g>
<g>
	<rect fill="#808080" stroke="none" stroke-opacity="1" x="1976" y="389" width="2" height="30" />
	<rect fill="#808080" stroke="none" stroke-opacity="1" x="1868" y="417" width="110" height="2" />
	<rect fill="#ffffff" stroke="black" stroke-width="1" stroke-opacity="1" x="1865" y="386" width="111" height="31" />
	<text font-family="Helvetica" font-size="14" fill="#000000" xml:space="preserve" font-weight="bold" text-anchor="middle" x="1921" y="401">ModulationArc</text>
</g>
<g>
	<rect fill="#808080" stroke="none" stroke-opacity="1" x="1723" y="786" width="2" height="30" />
	<rect fill="#808080" stroke="none" stroke-opacity="1" x="1603" y="814" width="122" height="2" />
	<rect fill="#ffffff" stroke="black" stroke-width="1" stroke-opacity="1" x="1600" y="783" width="123" height="31" />
	<text font-family="Helvetica" font-size="14" fill="#000000" xml:space="preserve" font-weight="bold" text-anchor="middle" x="1662" y="798">LogicalOperator</text>
</g>
<g>
	<rect fill="#808080" stroke="none" stroke-opacity="1" x="2075" y="388" width="2" height="30" />
	<rect fill="#808080" stroke="none" stroke-opacity="1" x="2007" y="416" width="70" height="2" />
	<rect fill="#ffffff" stroke="black" stroke-width="1" stroke-opacity="1" x="2004" y="385" width="71" height="31" />
	<text font-family="Helvetica" font-size="14" fill="#000000" xml:space="preserve" font-weight="bold" text-anchor="middle" x="2040" y="400">LogicArc</text>
</g>
<g>
	<rect fill="#808080" stroke="none" stroke-opacity="1" x="1304" y="373" width="2" height="30" />
	<rect fill="#808080" stroke="none" stroke-opacity="1" x="1232" y="401" width="74" height="2" />
	<rect fill="#ffffff" stroke="black" stroke-width="1" stroke-opacity="1" x="1229" y="370" width="75" height="31" />
	<text font-family="Helvetica" font-size="14" fill="#000000" xml:space="preserve" font-weight="bold" text-anchor="middle" x="1267" y="385">EmptySet</text>
</g>
<g>
	<rect fill="#808080" stroke="none" stroke-opacity="1" x="493" y="394" width="2" height="30" />
	<rect fill="#808080" stroke="none" stroke-opacity="1" x="339" y="422" width="156" height="2" />
	<rect fill="#ffffff" stroke="black" stroke-width="1" stroke-opacity="1" x="336" y="391" width="157" height="31" />
	<text font-family="Helvetica" font-size="14" fill="#000000" xml:space="preserve" font-weight="bold" text-anchor="middle" x="415" y="406">LabelledCloneMarker</text>
</g>
<g>
	<rect fill="#808080" stroke="none" stroke-opacity="1" x="309" y="394" width="2" height="30" />
	<rect fill="#808080" stroke="none" stroke-opacity="1" x="167" y="422" width="144" height="2" />
	<rect fill="#ffffff" stroke="black" stroke-width="1" stroke-opacity="1" x="164" y="391" width="145" height="31" />
	<text font-family="Helvetica" font-size="14" fill="#000000" xml:space="preserve" font-weight="bold" text-anchor="middle" x="237" y="406">SimpleCloneMarker</text>
</g>
<g>
	<rect fill="#808080" stroke="none" stroke-opacity="1" x="520" y="256" width="2" height="30" />
	<rect fill="#808080" stroke="none" stroke-opacity="1" x="414" y="284" width="108" height="2" />
	<rect fill="#ffffff" stroke="black" stroke-width="1" stroke-opacity="1" x="411" y="253" width="109" height="31" />
	<text font-family="Helvetica" font-size="14" fill="#000000" xml:space="preserve" font-weight="bold" text-anchor="middle" x="466" y="268">AttributeValue</text>
</g>
<g>
	<line stroke="black" stroke-opacity="1" x1="1021" y1="93" x2="1021" y2="68" />
	<line stroke="black" stroke-opacity="1" x1="1021" y1="62" x2="1015" y2="68" />
	<line stroke="black" stroke-opacity="1" x1="1021" y1="62" x2="1027" y2="68" />
	<line stroke="black" stroke-opacity="1" x1="1015" y1="68" x2="1027" y2="68" />
</g>
<g>
	<line stroke="black" stroke-opacity="1" x1="1021" y1="124" x2="1021" y2="93" />
</g>
<g>
	<line stroke="black" stroke-opacity="1" x1="1368" y1="250" x2="1368" y2="207" />
</g>
<g>
	<line stroke="black" stroke-opacity="1" x1="1368" y1="207" x2="1397" y2="207" />
</g>
<g>
	<line stroke="black" stroke-opacity="1" x1="1397" y1="207" x2="1397" y2="168" />
	<line stroke="black" stroke-opacity="1" x1="1398" y1="163" x2="1391" y2="168" />
	<line stroke="black" stroke-opacity="1" x1="1398" y1="163" x2="1403" y2="169" />
	<line stroke="black" stroke-opacity="1" x1="1391" y1="168" x2="1403" y2="169" />
</g>
<g>
	<line stroke="black" stroke-opacity="1" x1="1947" y1="250" x2="1947" y2="207" />
</g>
<g>
	<line stroke="black" stroke-opacity="1" x1="1947" y1="207" x2="1398" y2="207" />
</g>
<g>
	<line stroke="black" stroke-opacity="1" x1="1398" y1="207" x2="1398" y2="168" />
	<line stroke="black" stroke-opacity="1" x1="1399" y1="163" x2="1392" y2="168" />
	<line stroke="black" stroke-opacity="1" x1="1399" y1="163" x2="1404" y2="169" />
	<line stroke="black" stroke-opacity="1" x1="1392" y1="168" x2="1404" y2="169" />
</g>
<g>
	<line stroke="black" stroke-opacity="1" x1="1399" y1="128" x2="1399" y2="95" />
</g>
<g>
	<line stroke="black" stroke-opacity="1" x1="961" y1="368" x2="961" y2="327" />
</g>
<g>
	<line stroke="black" stroke-opacity="1" x1="961" y1="327" x2="1368" y2="327" />
</g>
<g>
	<line stroke="black" stroke-opacity="1" x1="1368" y1="327" x2="1368" y2="291" />
	<line stroke="black" stroke-opacity="1" x1="1368" y1="285" x2="1362" y2="291" />
	<line stroke="black" stroke-opacity="1" x1="1368" y1="285" x2="1374" y2="291" />
	<line stroke="black" stroke-opacity="1" x1="1362" y1="291" x2="1374" y2="291" />
</g>
<g>
	<line stroke="black" stroke-opacity="1" x1="628" y1="574" x2="628" y2="527" />
</g>
<g>
	<line stroke="black" stroke-opacity="1" x1="628" y1="527" x2="773" y2="527" />
</g>
<g>
	<line stroke="black" stroke-opacity="1" x1="773" y1="527" x2="773" y2="485" />
	<line stroke="black" stroke-opacity="1" x1="773" y1="479" x2="767" y2="485" />
	<line stroke="black" stroke-opacity="1" x1="773" y1="479" x2="779" y2="485" />
	<line stroke="black" stroke-opacity="1" x1="767" y1="485" x2="779" y2="485" />
</g>
<g>
	<line stroke="black" stroke-opacity="1" x1="773" y1="576" x2="773" y2="527" />
</g>
<g>
	<line stroke="black" stroke-opacity="1" x1="773" y1="527" x2="773" y2="485" />
	<line stroke="black" stroke-opacity="1" x1="773" y1="479" x2="767" y2="485" />
	<line stroke="black" stroke-opacity="1" x1="773" y1="479" x2="779" y2="485" />
	<line stroke="black" stroke-opacity="1" x1="767" y1="485" x2="779" y2="485" />
</g>
<g>
	<line stroke="black" stroke-opacity="1" x1="773" y1="444" x2="773" y2="424" />
</g>
<g>
	<line stroke="black" stroke-opacity="1" x1="544" y1="128" x2="544" y2="95" />
</g>
<g>
	<line stroke="black" stroke-opacity="1" x1="544" y1="95" x2="1021" y2="95" />
</g>
<g>
	<line stroke="black" stroke-opacity="1" x1="1021" y1="95" x2="1021" y2="68" />
	<line stroke="black" stroke-opacity="1" x1="1021" y1="62" x2="1015" y2="68" />
	<line stroke="black" stroke-opacity="1" x1="1021" y1="62" x2="1027" y2="68" />
	<line stroke="black" stroke-opacity="1" x1="1015" y1="68" x2="1027" y2="68" />
</g>
<g>
	<line stroke="black" stroke-opacity="1" x1="113" y1="252" x2="113" y2="208" />
</g>
<g>
	<line stroke="black" stroke-opacity="1" x1="113" y1="208" x2="544" y2="208" />
</g>
<g>
	<line stroke="black" stroke-opacity="1" x1="544" y1="208" x2="544" y2="169" />
	<line stroke="black" stroke-opacity="1" x1="544" y1="163" x2="538" y2="169" />
	<line stroke="black" stroke-opacity="1" x1="544" y1="163" x2="550" y2="169" />
	<line stroke="black" stroke-opacity="1" x1="538" y1="169" x2="550" y2="169" />
</g>
<g>
	<line stroke="black" stroke-opacity="1" x1="1806" y1="386" x2="1806" y2="335" />
</g>
<g>
	<line stroke="black" stroke-opacity="1" x1="1806" y1="335" x2="1947" y2="335" />
</g>
<g>
	<line stroke="black" stroke-opacity="1" x1="1947" y1="335" x2="1947" y2="291" />
	<line stroke="black" stroke-opacity="1" x1="1947" y1="285" x2="1941" y2="291" />
	<line stroke="black" stroke-opacity="1" x1="1947" y1="285" x2="1953" y2="291" />
	<line stroke="black" stroke-opacity="1" x1="1941" y1="291" x2="1953" y2="291" />
</g>
<g>
	<line stroke="black" stroke-opacity="1" x1="1922" y1="385" x2="1922" y2="335" />
</g>
<g>
	<line stroke="black" stroke-opacity="1" x1="1922" y1="335" x2="1947" y2="335" />
</g>
<g>
	<line stroke="black" stroke-opacity="1" x1="1947" y1="335" x2="1947" y2="291" />
	<line stroke="black" stroke-opacity="1" x1="1947" y1="285" x2="1941" y2="291" />
	<line stroke="black" stroke-opacity="1" x1="1947" y1="285" x2="1953" y2="291" />
	<line stroke="black" stroke-opacity="1" x1="1941" y1="291" x2="1953" y2="291" />
</g>
<g>
	<line stroke="black" stroke-opacity="1" x1="2040" y1="384" x2="2040" y2="335" />
</g>
<g>
	<line stroke="black" stroke-opacity="1" x1="2040" y1="335" x2="1947" y2="335" />
</g>
<g>
	<line stroke="black" stroke-opacity="1" x1="1947" y1="335" x2="1947" y2="291" />
	<line stroke="black" stroke-opacity="1" x1="1947" y1="285" x2="1941" y2="291" />
	<line stroke="black" stroke-opacity="1" x1="1947" y1="285" x2="1953" y2="291" />
	<line stroke="black" stroke-opacity="1" x1="1941" y1="291" x2="1953" y2="291" />
</g>
<g>
	<line stroke="black" stroke-opacity="1" x1="1267" y1="369" x2="1266" y2="327" />
</g>
<g>
	<line stroke="black" stroke-opacity="1" x1="1266" y1="327" x2="1368" y2="327" />
</g>
<g>
	<line stroke="black" stroke-opacity="1" x1="1368" y1="327" x2="1368" y2="291" />
	<line stroke="black" stroke-opacity="1" x1="1368" y1="285" x2="1362" y2="291" />
	<line stroke="black" stroke-opacity="1" x1="1368" y1="285" x2="1374" y2="291" />
	<line stroke="black" stroke-opacity="1" x1="1362" y1="291" x2="1374" y2="291" />
</g>
<g>
	<line stroke="black" stroke-opacity="1" x1="1130" y1="618" x2="1130" y2="424" />
</g>
<g>
	<line stroke="black" stroke-opacity="1" x1="1130" y1="424" x2="961" y2="424" />
</g>
<g>
	<line stroke="black" stroke-opacity="1" x1="961" y1="424" x2="961" y2="409" />
	<line stroke="black" stroke-opacity="1" x1="961" y1="403" x2="955" y2="409" />
	<line stroke="black" stroke-opacity="1" x1="961" y1="403" x2="967" y2="409" />
	<line stroke="black" stroke-opacity="1" x1="955" y1="409" x2="967" y2="409" />
</g>
<g>
	<line stroke="black" stroke-opacity="1" x1="467" y1="252" x2="467" y2="208" />
</g>
<g>
	<line stroke="black" stroke-opacity="1" x1="467" y1="208" x2="544" y2="208" />
</g>
<g>
	<line stroke="black" stroke-opacity="1" x1="1399" y1="95" x2="1021" y2="95" />
</g>
<g>
	<line stroke="black" stroke-opacity="1" x1="773" y1="424" x2="961" y2="424" />
</g>
<g>
	<rect fill="#808080" stroke="none" stroke-opacity="1" x="1556" y="373" width="2" height="30" />
	<rect fill="#808080" stroke="none" stroke-opacity="1" x="1462" y="401" width="96" height="2" />
	<rect fill="#ffffff" stroke="black" stroke-width="1" stroke-opacity="1" x="1459" y="370" width="97" height="31" />
	<text font-family="Helvetica" font-size="14" fill="#000000" xml:space="preserve" font-weight="bold" font-style="italic" text-anchor="middle" x="1508" y="385">ProcessNode</text>
</g>
<g>
	<line stroke="black" stroke-opacity="1" x1="961" y1="424" x2="961" y2="409" />
	<line stroke="black" stroke-opacity="1" x1="961" y1="403" x2="955" y2="409" />
	<line stroke="black" stroke-opacity="1" x1="961" y1="403" x2="967" y2="409" />
	<line stroke="black" stroke-opacity="1" x1="955" y1="409" x2="967" y2="409" />
</g>
<g>
	<line stroke="black" stroke-opacity="1" x1="1021" y1="95" x2="1021" y2="68" />
	<line stroke="black" stroke-opacity="1" x1="1021" y1="62" x2="1015" y2="68" />
	<line stroke="black" stroke-opacity="1" x1="1021" y1="62" x2="1027" y2="68" />
	<line stroke="black" stroke-opacity="1" x1="1015" y1="68" x2="1027" y2="68" />
</g>
<g>
	<line stroke="black" stroke-opacity="1" x1="544" y1="208" x2="544" y2="169" />
	<line stroke="black" stroke-opacity="1" x1="544" y1="163" x2="538" y2="169" />
	<line stroke="black" stroke-opacity="1" x1="544" y1="163" x2="550" y2="169" />
	<line stroke="black" stroke-opacity="1" x1="538" y1="169" x2="550" y2="169" />
</g>
<g>
	<rect fill="#808080" stroke="none" stroke-opacity="1" x="1787" y="492" width="2" height="30" />
	<rect fill="#808080" stroke="none" stroke-opacity="1" x="1679" y="520" width="110" height="2" />
	<rect fill="#ffffff" stroke="black" stroke-width="1" stroke-opacity="1" x="1676" y="489" width="111" height="31" />
	<text font-family="Helvetica" font-size="14" fill="#000000" xml:space="preserve" font-weight="bold" text-anchor="middle" x="1732" y="504">ProductionArc</text>
</g>
<g>
	<rect fill="#808080" stroke="none" stroke-opacity="1" x="1957" y="493" width="2" height="30" />
	<rect fill="#808080" stroke="none" stroke-opacity="1" x="1831" y="521" width="128" height="2" />
	<rect fill="#ffffff" stroke="black" stroke-width="1" stroke-opacity="1" x="1828" y="490" width="129" height="31" />
	<text font-family="Helvetica" font-size="14" fill="#000000" xml:space="preserve" font-weight="bold" text-anchor="middle" x="1893" y="505">ConsumptionArc</text>
</g>
<g>
	<rect fill="#808080" stroke="none" stroke-opacity="1" x="1579" y="786" width="2" height="30" />
	<rect fill="#808080" stroke="none" stroke-opacity="1" x="1497" y="814" width="84" height="2" />
	<rect fill="#ffffff" stroke="black" stroke-width="1" stroke-opacity="1" x="1494" y="783" width="85" height="31" />
	<text font-family="Helvetica" font-size="14" fill="#000000" xml:space="preserve" font-weight="bold" text-anchor="middle" x="1537" y="798">Phenotype</text>
</g>
<g>
	<rect fill="#808080" stroke="none" stroke-opacity="1" x="1004" y="579" width="2" height="30" />
	<rect fill="#808080" stroke="none" stroke-opacity="1" x="860" y="607" width="146" height="2" />
	<rect fill="#ffffff" stroke="black" stroke-width="1" stroke-opacity="1" x="857" y="576" width="147" height="31" />
	<text font-family="Helvetica" font-size="14" fill="#000000" xml:space="preserve" font-weight="bold" text-anchor="middle" x="931" y="591">NucleicAcidFeature</text>
</g>
<g>
	<rect fill="#808080" stroke="none" stroke-opacity="1" x="1196" y="788" width="2" height="30" />
	<rect fill="#808080" stroke="none" stroke-opacity="1" x="1066" y="816" width="132" height="2" />
	<rect fill="#ffffff" stroke="black" stroke-width="1" stroke-opacity="1" x="1063" y="785" width="133" height="31" />
	<text font-family="Helvetica" font-size="14" fill="#000000" xml:space="preserve" font-weight="bold" text-anchor="middle" x="1130" y="800">UnspecifiedEntity</text>
</g>
<g>
	<rect fill="#808080" stroke="none" stroke-opacity="1" x="1105" y="738" width="2" height="30" />
	<rect fill="#808080" stroke="none" stroke-opacity="1" x="985" y="766" width="122" height="2" />
	<rect fill="#ffffff" stroke="black" stroke-width="1" stroke-opacity="1" x="982" y="735" width="123" height="31" />
	<text font-family="Helvetica" font-size="14" fill="#000000" xml:space="preserve" font-weight="bold" text-anchor="middle" x="1044" y="750">PerturbingAgent</text>
</g>
<g>
	<rect fill="#808080" stroke="none" stroke-opacity="1" x="1616" y="255" width="2" height="30" />
	<rect fill="#808080" stroke="none" stroke-opacity="1" x="1516" y="283" width="102" height="2" />
	<rect fill="#ffffff" stroke="black" stroke-width="1" stroke-opacity="1" x="1513" y="252" width="103" height="31" />
	<text font-family="Helvetica" font-size="14" fill="#000000" xml:space="preserve" font-weight="bold" text-anchor="middle" x="1565" y="267">Compartment</text>
</g>
<g>
	<line stroke="black" stroke-opacity="1" x1="1509" y1="369" x2="1509" y2="327" />
</g>
<g>
	<line stroke="black" stroke-opacity="1" x1="1355" y1="601" x2="1355" y2="503" />
</g>
<g>
	<line stroke="black" stroke-opacity="1" x1="1355" y1="503" x2="1508" y2="503" />
</g>
<g>
	<line stroke="black" stroke-opacity="1" x1="1508" y1="503" x2="1508" y2="410" />
	<line stroke="black" stroke-opacity="1" x1="1508" y1="404" x2="1502" y2="410" />
	<line stroke="black" stroke-opacity="1" x1="1508" y1="404" x2="1514" y2="410" />
	<line stroke="black" stroke-opacity="1" x1="1502" y1="410" x2="1514" y2="410" />
</g>
<g>
	<line stroke="black" stroke-opacity="1" x1="1893" y1="489" x2="1892" y2="454" />
</g>
<g>
	<line stroke="black" stroke-opacity="1" x1="1732" y1="488" x2="1731" y2="454" />
</g>
<g>
	<line stroke="black" stroke-opacity="1" x1="1397" y1="207" x2="1397" y2="168" />
	<line stroke="black" stroke-opacity="1" x1="1398" y1="163" x2="1391" y2="168" />
	<line stroke="black" stroke-opacity="1" x1="1398" y1="163" x2="1403" y2="169" />
	<line stroke="black" stroke-opacity="1" x1="1391" y1="168" x2="1403" y2="169" />
</g>
<g>
	<line stroke="black" stroke-opacity="1" x1="1566" y1="207" x2="1397" y2="207" />
</g>
<g>
	<line stroke="black" stroke-opacity="1" x1="1566" y1="251" x2="1566" y2="207" />
</g>
<g>
	<line stroke="black" stroke-opacity="1" x1="1130" y1="692" x2="1130" y2="659" />
	<line stroke="black" stroke-opacity="1" x1="1130" y1="653" x2="1124" y2="659" />
	<line stroke="black" stroke-opacity="1" x1="1130" y1="653" x2="1136" y2="659" />
	<line stroke="black" stroke-opacity="1" x1="1124" y1="659" x2="1136" y2="659" />
</g>
<g>
	<line stroke="black" stroke-opacity="1" x1="1044" y1="692" x2="1130" y2="692" />
</g>
<g>
	<line stroke="black" stroke-opacity="1" x1="1044" y1="734" x2="1044" y2="692" />
</g>
<g>
	<line stroke="black" stroke-opacity="1" x1="1130" y1="718" x2="1130" y2="659" />
	<line stroke="black" stroke-opacity="1" x1="1130" y1="653" x2="1124" y2="659" />
	<line stroke="black" stroke-opacity="1" x1="1130" y1="653" x2="1136" y2="659" />
	<line stroke="black" stroke-opacity="1" x1="1124" y1="659" x2="1136" y2="659" />
</g>
<g>
	<line stroke="black" stroke-opacity="1" x1="1130" y1="784" x2="1130" y2="718" />
</g>
<g>
	<line stroke="black" stroke-opacity="1" x1="773" y1="527" x2="773" y2="485" />
	<line stroke="black" stroke-opacity="1" x1="773" y1="479" x2="767" y2="485" />
	<line stroke="black" stroke-opacity="1" x1="773" y1="479" x2="779" y2="485" />
	<line stroke="black" stroke-opacity="1" x1="767" y1="485" x2="779" y2="485" />
</g>
<g>
	<line stroke="black" stroke-opacity="1" x1="931" y1="527" x2="773" y2="527" />
</g>
<g>
	<line stroke="black" stroke-opacity="1" x1="931" y1="575" x2="931" y2="527" />
</g>
<g>
	<line stroke="black" stroke-opacity="1" x1="1509" y1="327" x2="1368" y2="327" />
</g>
<g>
	<line stroke="black" stroke-opacity="1" x1="1892" y1="454" x2="1806" y2="454" />
</g>
<g>
	<line stroke="black" stroke-opacity="1" x1="1731" y1="454" x2="1806" y2="454" />
</g>
<g>
	<line stroke="black" stroke-opacity="1" x1="1368" y1="327" x2="1368" y2="291" />
	<line stroke="black" stroke-opacity="1" x1="1368" y1="285" x2="1362" y2="291" />
	<line stroke="black" stroke-opacity="1" x1="1368" y1="285" x2="1374" y2="291" />
	<line stroke="black" stroke-opacity="1" x1="1362" y1="291" x2="1374" y2="291" />
</g>
<g>
	<line stroke="black" stroke-opacity="1" x1="1806" y1="454" x2="1806" y2="427" />
	<line stroke="black" stroke-opacity="1" x1="1806" y1="421" x2="1800" y2="427" />
	<line stroke="black" stroke-opacity="1" x1="1806" y1="421" x2="1812" y2="427" />
	<line stroke="black" stroke-opacity="1" x1="1800" y1="427" x2="1812" y2="427" />
</g>
<g>
	<line stroke="black" stroke-opacity="1" x1="1806" y1="454" x2="1806" y2="427" />
	<line stroke="black" stroke-opacity="1" x1="1806" y1="421" x2="1800" y2="427" />
	<line stroke="black" stroke-opacity="1" x1="1806" y1="421" x2="1812" y2="427" />
	<line stroke="black" stroke-opacity="1" x1="1800" y1="427" x2="1812" y2="427" />
</g>
<g>
	<rect fill="#808080" stroke="none" stroke-opacity="1" x="1301" y="739" width="2" height="30" />
	<rect fill="#808080" stroke="none" stroke-opacity="1" x="1183" y="767" width="120" height="2" />
	<rect fill="#ffffff" stroke="black" stroke-width="1" stroke-opacity="1" x="1180" y="736" width="121" height="31" />
	<text font-family="Helvetica" font-size="14" fill="#000000" xml:space="preserve" font-weight="bold" text-anchor="middle" x="1241" y="751">SimpleChemical</text>
</g>
<g>
	<line stroke="black" stroke-opacity="1" x1="1130" y1="694" x2="1130" y2="659" />
	<line stroke="black" stroke-opacity="1" x1="1130" y1="653" x2="1124" y2="659" />
	<line stroke="black" stroke-opacity="1" x1="1130" y1="653" x2="1136" y2="659" />
	<line stroke="black" stroke-opacity="1" x1="1124" y1="659" x2="1136" y2="659" />
</g>
<g>
	<line stroke="black" stroke-opacity="1" x1="1241" y1="694" x2="1130" y2="694" />
</g>
<g>
	<line stroke="black" stroke-opacity="1" x1="1241" y1="735" x2="1241" y2="694" />
</g>
<g>
	<rect fill="#808080" stroke="none" stroke-opacity="1" x="382" y="256" width="2" height="30" />
	<rect fill="#808080" stroke="none" stroke-opacity="1" x="292" y="284" width="92" height="2" />
	<rect fill="#ffffff" stroke="black" stroke-width="1" stroke-opacity="1" x="289" y="253" width="93" height="31" />
	<text font-family="Helvetica" font-size="14" fill="#000000" xml:space="preserve" font-weight="bold" font-style="italic" text-anchor="middle" x="336" y="268">CloneMarker</text>
</g>
<g>
	<rect fill="#808080" stroke="none" stroke-opacity="1" x="236" y="256" width="2" height="30" />
	<rect fill="#808080" stroke="none" stroke-opacity="1" x="178" y="284" width="60" height="2" />
	<rect fill="#ffffff" stroke="black" stroke-width="1" stroke-opacity="1" x="175" y="253" width="61" height="31" />
	<text font-family="Helvetica" font-size="14" fill="#000000" xml:space="preserve" font-weight="bold" text-anchor="middle" x="206" y="268">Subunit</text>
</g>
<g>
	<rect fill="#808080" stroke="none" stroke-opacity="1" x="689" y="254" width="2" height="30" />
	<rect fill="#808080" stroke="none" stroke-opacity="1" x="605" y="282" width="86" height="2" />
	<rect fill="#ffffff" stroke="black" stroke-width="1" stroke-opacity="1" x="602" y="251" width="87" height="31" />
	<text font-family="Helvetica" font-size="14" fill="#000000" xml:space="preserve" font-weight="bold" text-anchor="middle" x="646" y="266">Annotation</text>
</g>
<g>
	<line stroke="black" stroke-opacity="1" x1="646" y1="250" x2="645" y2="207" />
</g>
<g>
	<line stroke="black" stroke-opacity="1" x1="544" y1="208" x2="544" y2="169" />
	<line stroke="black" stroke-opacity="1" x1="544" y1="163" x2="538" y2="169" />
	<line stroke="black" stroke-opacity="1" x1="544" y1="163" x2="550" y2="169" />
	<line stroke="black" stroke-opacity="1" x1="538" y1="169" x2="550" y2="169" />
</g>
<g>
	<line stroke="black" stroke-opacity="1" x1="338" y1="208" x2="544" y2="208" />
</g>
<g>
	<line stroke="black" stroke-opacity="1" x1="337" y1="252" x2="338" y2="208" />
</g>
<g>
	<line stroke="black" stroke-opacity="1" x1="207" y1="252" x2="207" y2="208" />
</g>
<g>
	<line stroke="black" stroke-opacity="1" x1="415" y1="390" x2="415" y2="338" />
</g>
<g>
	<line stroke="black" stroke-opacity="1" x1="415" y1="338" x2="338" y2="338" />
</g>
<g>
	<line stroke="black" stroke-opacity="1" x1="338" y1="338" x2="337" y2="292" />
	<line stroke="black" stroke-opacity="1" x1="337" y1="287" x2="331" y2="293" />
	<line stroke="black" stroke-opacity="1" x1="337" y1="287" x2="343" y2="292" />
	<line stroke="black" stroke-opacity="1" x1="331" y1="293" x2="343" y2="292" />
</g>
<g>
	<line stroke="black" stroke-opacity="1" x1="238" y1="390" x2="238" y2="338" />
</g>
<g>
	<line stroke="black" stroke-opacity="1" x1="238" y1="338" x2="337" y2="338" />
</g>
<g>
	<line stroke="black" stroke-opacity="1" x1="337" y1="338" x2="337" y2="293" />
	<line stroke="black" stroke-opacity="1" x1="337" y1="287" x2="331" y2="293" />
	<line stroke="black" stroke-opacity="1" x1="337" y1="287" x2="343" y2="293" />
	<line stroke="black" stroke-opacity="1" x1="331" y1="293" x2="343" y2="293" />
</g>
<g>
	<line stroke="black" stroke-opacity="1" x1="207" y1="208" x2="544" y2="208" />
</g>
<g>
	<line stroke="black" stroke-opacity="1" x1="645" y1="207" x2="544" y2="207" />
</g>
<g>
	<line stroke="black" stroke-opacity="1" x1="544" y1="208" x2="544" y2="169" />
	<line stroke="black" stroke-opacity="1" x1="544" y1="163" x2="538" y2="169" />
	<line stroke="black" stroke-opacity="1" x1="544" y1="163" x2="550" y2="169" />
	<line stroke="black" stroke-opacity="1" x1="538" y1="169" x2="550" y2="169" />
</g>
<g>
	<line stroke="black" stroke-opacity="1" x1="544" y1="207" x2="544" y2="169" />
	<line stroke="black" stroke-opacity="1" x1="544" y1="163" x2="538" y2="169" />
	<line stroke="black" stroke-opacity="1" x1="544" y1="163" x2="550" y2="169" />
	<line stroke="black" stroke-opacity="1" x1="538" y1="169" x2="550" y2="169" />
</g>
<g>
	<rect fill="#808080" stroke="none" stroke-opacity="1" x="926" y="253" width="2" height="30" />
	<rect fill="#808080" stroke="none" stroke-opacity="1" x="892" y="281" width="36" height="2" />
	<rect fill="#ffffff" stroke="black" stroke-width="1" stroke-opacity="1" x="889" y="250" width="37" height="31" />
	<text font-family="Helvetica" font-size="14" fill="#000000" xml:space="preserve" font-weight="bold" text-anchor="middle" x="908" y="265">Tag</text>
</g>
<g>
	<line stroke="black" stroke-opacity="1" x1="921" y1="249" x2="921" y2="206" />
</g>
<g>
	<rect fill="#808080" stroke="none" stroke-opacity="1" x="1262" y="254" width="2" height="30" />
	<rect fill="#808080" stroke="none" stroke-opacity="1" x="1146" y="282" width="118" height="2" />
	<rect fill="#ffffff" stroke="black" stroke-width="1" stroke-opacity="1" x="1143" y="251" width="119" height="31" />
	<text font-family="Helvetica" font-size="14" fill="#000000" xml:space="preserve" font-weight="bold" text-anchor="middle" x="1203" y="266">EquivalenceArc</text>
</g>
<g>
	<line stroke="black" stroke-opacity="1" x1="1204" y1="250" x2="1204" y2="207" />
</g>
<g>
	<line stroke="black" stroke-opacity="1" x1="921" y1="206" x2="1399" y2="206" />
</g>
<g>
	<line stroke="black" stroke-opacity="1" x1="1204" y1="207" x2="1398" y2="207" />
</g>
<g>
	<line stroke="black" stroke-opacity="1" x1="1399" y1="206" x2="1399" y2="169" />
	<line stroke="black" stroke-opacity="1" x1="1399" y1="163" x2="1393" y2="169" />
	<line stroke="black" stroke-opacity="1" x1="1399" y1="163" x2="1405" y2="169" />
	<line stroke="black" stroke-opacity="1" x1="1393" y1="169" x2="1405" y2="169" />
</g>
<g>
	<line stroke="black" stroke-opacity="1" x1="1398" y1="207" x2="1398" y2="168" />
	<line stroke="black" stroke-opacity="1" x1="1399" y1="163" x2="1392" y2="168" />
	<line stroke="black" stroke-opacity="1" x1="1399" y1="163" x2="1404" y2="169" />
	<line stroke="black" stroke-opacity="1" x1="1392" y1="168" x2="1404" y2="169" />
</g>
<g>
	<rect fill="#808080" stroke="none" stroke-opacity="1" x="893" y="132" width="2" height="30" />
	<rect fill="#808080" stroke="none" stroke-opacity="1" x="781" y="160" width="114" height="2" />
	<rect fill="#ffffff" stroke="black" stroke-width="1" stroke-opacity="1" x="778" y="129" width="115" height="31" />
	<text font-family="Helvetica" font-size="14" fill="#000000" xml:space="preserve" font-weight="bold" font-style="italic" text-anchor="middle" x="836" y="144">CrossReference</text>
</g>
<g>
	<line stroke="black" stroke-opacity="1" x1="896" y1="249" x2="896" y2="206" />
</g>
<g>
	<line stroke="black" stroke-opacity="1" x1="896" y1="206" x2="837" y2="206" />
</g>
<g>
	<line stroke="black" stroke-opacity="1" x1="837" y1="206" x2="837" y2="169" />
	<line stroke="black" stroke-opacity="1" x1="837" y1="163" x2="831" y2="169" />
	<line stroke="black" stroke-opacity="1" x1="837" y1="163" x2="843" y2="169" />
	<line stroke="black" stroke-opacity="1" x1="831" y1="169" x2="843" y2="169" />
</g>
<g>
	<rect fill="#808080" stroke="none" stroke-opacity="1" x="820" y="254" width="2" height="30" />
	<rect fill="#808080" stroke="none" stroke-opacity="1" x="698" y="282" width="124" height="2" />
	<rect fill="#ffffff" stroke="black" stroke-width="1" stroke-opacity="1" x="695" y="251" width="125" height="31" />
	<text font-family="Helvetica" font-size="14" fill="#000000" xml:space="preserve" font-weight="bold" text-anchor="middle" x="758" y="266">SubmapTerminal</text>
</g>
<g>
	<line stroke="black" stroke-opacity="1" x1="758" y1="250" x2="757" y2="207" />
</g>
<g>
	<line stroke="black" stroke-opacity="1" x1="759" y1="250" x2="759" y2="207" />
</g>
<g>
	<line stroke="black" stroke-opacity="1" x1="759" y1="207" x2="544" y2="207" />
</g>
<g>
	<line stroke="black" stroke-opacity="1" x1="757" y1="207" x2="837" y2="207" />
</g>
<g>
	<line stroke="black" stroke-opacity="1" x1="837" y1="207" x2="837" y2="169" />
	<line stroke="black" stroke-opacity="1" x1="837" y1="163" x2="831" y2="169" />
	<line stroke="black" stroke-opacity="1" x1="837" y1="163" x2="843" y2="169" />
	<line stroke="black" stroke-opacity="1" x1="831" y1="169" x2="843" y2="169" />
</g>
<g>
	<line stroke="black" stroke-opacity="1" x1="544" y1="207" x2="544" y2="169" />
	<line stroke="black" stroke-opacity="1" x1="544" y1="163" x2="538" y2="169" />
	<line stroke="black" stroke-opacity="1" x1="544" y1="163" x2="550" y2="169" />
	<line stroke="black" stroke-opacity="1" x1="538" y1="169" x2="550" y2="169" />
</g>
<g>
	<rect fill="#808080" stroke="none" stroke-opacity="1" x="1654" y="607" width="2" height="30" />
	<rect fill="#808080" stroke="none" stroke-opacity="1" x="1456" y="635" width="200" height="2" />
	<rect fill="#ffffff" stroke="black" stroke-width="1" stroke-opacity="1" x="1453" y="604" width="201" height="31" />
	<text font-family="Helvetica" font-size="14" fill="#000000" xml:space="preserve" font-weight="bold" text-anchor="middle" x="1554" y="619">NonStoichiometricProcess</text>
</g>
<g>
	<line stroke="black" stroke-opacity="1" x1="1538" y1="782" x2="1538" y2="709" />
</g>
<g>
	<line stroke="black" stroke-opacity="1" x1="1662" y1="782" x2="1662" y2="709" />
</g>
<g>
	<line stroke="black" stroke-opacity="1" x1="1554" y1="603" x2="1554" y2="503" />
</g>
<g>
	<line stroke="black" stroke-opacity="1" x1="1538" y1="709" x2="1554" y2="709" />
</g>
<g>
	<line stroke="black" stroke-opacity="1" x1="1662" y1="709" x2="1554" y2="709" />
</g>
<g>
	<line stroke="black" stroke-opacity="1" x1="1554" y1="503" x2="1509" y2="503" />
</g>
<g>
	<line stroke="black" stroke-opacity="1" x1="1554" y1="709" x2="1554" y2="644" />
	<line stroke="black" stroke-opacity="1" x1="1554" y1="638" x2="1548" y2="644" />
	<line stroke="black" stroke-opacity="1" x1="1554" y1="638" x2="1560" y2="644" />
	<line stroke="black" stroke-opacity="1" x1="1548" y1="644" x2="1560" y2="644" />
</g>
<g>
	<line stroke="black" stroke-opacity="1" x1="1554" y1="709" x2="1554" y2="644" />
	<line stroke="black" stroke-opacity="1" x1="1554" y1="638" x2="1548" y2="644" />
	<line stroke="black" stroke-opacity="1" x1="1554" y1="638" x2="1560" y2="644" />
	<line stroke="black" stroke-opacity="1" x1="1548" y1="644" x2="1560" y2="644" />
</g>
<g>
	<line stroke="black" stroke-opacity="1" x1="1509" y1="503" x2="1509" y2="410" />
	<line stroke="black" stroke-opacity="1" x1="1509" y1="404" x2="1503" y2="410" />
	<line stroke="black" stroke-opacity="1" x1="1509" y1="404" x2="1515" y2="410" />
	<line stroke="black" stroke-opacity="1" x1="1503" y1="410" x2="1515" y2="410" />
</g>
<g>
	<rect fill="#808080" stroke="none" stroke-opacity="1" x="1471" y="786" width="2" height="30" />
	<rect fill="#808080" stroke="none" stroke-opacity="1" x="1371" y="814" width="102" height="2" />
	<rect fill="#ffffff" stroke="black" stroke-width="1" stroke-opacity="1" x="1368" y="783" width="103" height="31" />
	<text font-family="Helvetica" font-size="14" fill="#000000" xml:space="preserve" font-weight="bold" text-anchor="middle" x="1420" y="798">SubmapNode</text>
</g>
<g>
	<line stroke="black" stroke-opacity="1" x1="1420" y1="782" x2="1420" y2="709" />
</g>
<g>
	<line stroke="black" stroke-opacity="1" x1="1420" y1="709" x2="1554" y2="709" />
</g>
<g>
	<line stroke="black" stroke-opacity="1" x1="1554" y1="709" x2="1554" y2="644" />
	<line stroke="black" stroke-opacity="1" x1="1554" y1="638" x2="1548" y2="644" />
	<line stroke="black" stroke-opacity="1" x1="1554" y1="638" x2="1560" y2="644" />
	<line stroke="black" stroke-opacity="1" x1="1548" y1="644" x2="1560" y2="644" />
</g>
</svg>
