<?xml version="1.0" encoding="UTF-8" standalone="no"?>
<!-- Created with Bouml (http://bouml.free.fr/) -->
<!DOCTYPE svg PUBLIC "-//W3C//DTD SVG 1.1//EN" "http://www.w3.org/Graphics/SVG/1.1/DTD/svg11.dtd">
<svg width="1656" height="835" version="1.1" xmlns="http://www.w3.org/2000/svg">
<g>
	<rect fill="#808080" stroke="none" stroke-opacity="1" x="527" y="26" width="3" height="35" />
	<rect fill="#808080" stroke="none" stroke-opacity="1" x="437" y="58" width="93" height="3" />
	<rect fill="#ffffc0" stroke="black" stroke-width="1" stroke-opacity="1" x="433" y="22" width="94" height="36" />
	<text font-family="Helvetica" font-size="15" fill="#000000" xml:space="preserve" font-weight="bold" font-style="italic" text-anchor="middle" x="480" y="39">SBGNGlyph</text>
	<line stroke="black" stroke-opacity="1" x1="433" y1="42" x2="527" y2="42" />
	<line stroke="black" stroke-opacity="1" x1="433" y1="50" x2="527" y2="50" />
</g>
<g>
	<rect fill="#808080" stroke="none" stroke-opacity="1" x="1018" y="508" width="3" height="35" />
	<rect fill="#808080" stroke="none" stroke-opacity="1" x="894" y="540" width="127" height="3" />
	<rect fill="#ffffc0" stroke="black" stroke-width="1" stroke-opacity="1" x="890" y="504" width="128" height="36" />
	<text font-family="Helvetica" font-size="15" fill="#000000" xml:space="preserve" font-weight="bold" text-anchor="middle" x="954" y="521">PerturbingAgent</text>
	<line stroke="black" stroke-opacity="1" x1="890" y1="524" x2="1018" y2="524" />
	<line stroke="black" stroke-opacity="1" x1="890" y1="532" x2="1018" y2="532" />
</g>
<g>
	<rect fill="#808080" stroke="none" stroke-opacity="1" x="405" y="232" width="3" height="47" />
	<rect fill="#808080" stroke="none" stroke-opacity="1" x="323" y="276" width="85" height="3" />
	<rect fill="#ffffc0" stroke="black" stroke-width="1" stroke-opacity="1" x="319" y="228" width="86" height="48" />
	<text font-family="Helvetica" font-size="15" fill="#000000" xml:space="preserve" font-weight="bold" text-anchor="middle" x="362" y="245">Phenotype</text>
	<line stroke="black" stroke-opacity="1" x1="319" y1="248" x2="405" y2="248" />
	<text font-family="Helvetica" font-size="15" fill="#000000" xml:space="preserve" x="323" y="265">name</text>
	<line stroke="black" stroke-opacity="1" x1="319" y1="268" x2="405" y2="268" />
</g>
<g>
	<rect fill="#808080" stroke="none" stroke-opacity="1" x="219" y="118" width="3" height="35" />
	<rect fill="#808080" stroke="none" stroke-opacity="1" x="155" y="150" width="67" height="3" />
	<rect fill="#ffffc0" stroke="black" stroke-width="1" stroke-opacity="1" x="151" y="114" width="68" height="36" />
	<text font-family="Helvetica" font-size="15" fill="#000000" xml:space="preserve" font-weight="bold" text-anchor="middle" x="185" y="131">Process</text>
	<line stroke="black" stroke-opacity="1" x1="151" y1="134" x2="219" y2="134" />
	<line stroke="black" stroke-opacity="1" x1="151" y1="142" x2="219" y2="142" />
</g>
<g>
	<rect fill="#808080" stroke="none" stroke-opacity="1" x="280" y="657" width="3" height="47" />
	<rect fill="#808080" stroke="none" stroke-opacity="1" x="94" y="701" width="189" height="3" />
	<rect fill="#ffffc0" stroke="black" stroke-width="1" stroke-opacity="1" x="90" y="653" width="190" height="48" />
	<text font-family="Helvetica" font-size="15" fill="#000000" xml:space="preserve" font-weight="bold" text-anchor="middle" x="185" y="670">SimpleChemicalMultimer</text>
	<line stroke="black" stroke-opacity="1" x1="90" y1="673" x2="280" y2="673" />
	<text font-family="Helvetica" font-size="15" fill="#000000" xml:space="preserve" x="94" y="690">cardinality</text>
	<line stroke="black" stroke-opacity="1" x1="90" y1="693" x2="280" y2="693" />
</g>
<g>
	<rect fill="#808080" stroke="none" stroke-opacity="1" x="660" y="775" width="3" height="47" />
	<rect fill="#808080" stroke="none" stroke-opacity="1" x="526" y="819" width="137" height="3" />
	<rect fill="#ffffc0" stroke="black" stroke-width="1" stroke-opacity="1" x="522" y="771" width="138" height="48" />
	<text font-family="Helvetica" font-size="15" fill="#000000" xml:space="preserve" font-weight="bold" text-anchor="middle" x="591" y="788">MultimerComplex</text>
	<line stroke="black" stroke-opacity="1" x1="522" y1="791" x2="660" y2="791" />
	<text font-family="Helvetica" font-size="15" fill="#000000" xml:space="preserve" x="526" y="808">cardinality</text>
	<line stroke="black" stroke-opacity="1" x1="522" y1="811" x2="660" y2="811" />
</g>
<g>
	<rect fill="#808080" stroke="none" stroke-opacity="1" x="976" y="361" width="3" height="47" />
	<rect fill="#808080" stroke="none" stroke-opacity="1" x="916" y="405" width="63" height="3" />
	<rect fill="#ffffc0" stroke="black" stroke-width="1" stroke-opacity="1" x="912" y="357" width="64" height="48" />
	<text font-family="Helvetica" font-size="15" fill="#000000" xml:space="preserve" font-weight="bold" text-anchor="middle" x="944" y="374">Tag</text>
	<line stroke="black" stroke-opacity="1" x1="912" y1="377" x2="976" y2="377" />
	<text font-family="Helvetica" font-size="15" fill="#000000" xml:space="preserve" x="916" y="394">identifier</text>
	<line stroke="black" stroke-opacity="1" x1="912" y1="397" x2="976" y2="397" />
</g>
<g>
	<rect fill="#808080" stroke="none" stroke-opacity="1" x="1153" y="452" width="3" height="35" />
	<rect fill="#808080" stroke="none" stroke-opacity="1" x="1093" y="484" width="63" height="3" />
	<rect fill="#ffffc0" stroke="black" stroke-width="1" stroke-opacity="1" x="1089" y="448" width="64" height="36" />
	<text font-family="Helvetica" font-size="15" fill="#000000" xml:space="preserve" font-weight="bold" text-anchor="middle" x="1121" y="465">OrNode</text>
	<line stroke="black" stroke-opacity="1" x1="1089" y1="468" x2="1153" y2="468" />
	<line stroke="black" stroke-opacity="1" x1="1089" y1="476" x2="1153" y2="476" />
</g>
<g>
	<rect fill="#808080" stroke="none" stroke-opacity="1" x="1272" y="442" width="3" height="35" />
	<rect fill="#808080" stroke="none" stroke-opacity="1" x="1204" y="474" width="71" height="3" />
	<rect fill="#ffffc0" stroke="black" stroke-width="1" stroke-opacity="1" x="1200" y="438" width="72" height="36" />
	<text font-family="Helvetica" font-size="15" fill="#000000" xml:space="preserve" font-weight="bold" text-anchor="middle" x="1236" y="455">NotNode</text>
	<line stroke="black" stroke-opacity="1" x1="1200" y1="458" x2="1272" y2="458" />
	<line stroke="black" stroke-opacity="1" x1="1200" y1="466" x2="1272" y2="466" />
</g>
<g>
	<rect fill="#808080" stroke="none" stroke-opacity="1" x="1044" y="442" width="3" height="35" />
	<rect fill="#808080" stroke="none" stroke-opacity="1" x="972" y="474" width="75" height="3" />
	<rect fill="#ffffc0" stroke="black" stroke-width="1" stroke-opacity="1" x="968" y="438" width="76" height="36" />
	<text font-family="Helvetica" font-size="15" fill="#000000" xml:space="preserve" font-weight="bold" text-anchor="middle" x="1006" y="455">AndNode</text>
	<line stroke="black" stroke-opacity="1" x1="968" y1="458" x2="1044" y2="458" />
	<line stroke="black" stroke-opacity="1" x1="968" y1="466" x2="1044" y2="466" />
</g>
<g>
	<rect fill="#808080" stroke="none" stroke-opacity="1" x="938" y="230" width="3" height="35" />
	<rect fill="#808080" stroke="none" stroke-opacity="1" x="826" y="262" width="115" height="3" />
	<rect fill="#ffffc0" stroke="black" stroke-width="1" stroke-opacity="1" x="822" y="226" width="116" height="36" />
	<text font-family="Helvetica" font-size="15" fill="#000000" xml:space="preserve" font-weight="bold" font-style="italic" text-anchor="middle" x="880" y="243">ReferenceNode</text>
	<line stroke="black" stroke-opacity="1" x1="822" y1="246" x2="938" y2="246" />
	<line stroke="black" stroke-opacity="1" x1="822" y1="254" x2="938" y2="254" />
</g>
<g>
	<rect fill="#808080" stroke="none" stroke-opacity="1" x="290" y="448" width="3" height="35" />
	<rect fill="#808080" stroke="none" stroke-opacity="1" x="198" y="480" width="95" height="3" />
	<rect fill="#ffffc0" stroke="black" stroke-width="1" stroke-opacity="1" x="194" y="444" width="96" height="36" />
	<text font-family="Helvetica" font-size="15" fill="#000000" xml:space="preserve" font-weight="bold" text-anchor="middle" x="242" y="461">Association</text>
	<line stroke="black" stroke-opacity="1" x1="194" y1="464" x2="290" y2="464" />
	<line stroke="black" stroke-opacity="1" x1="194" y1="472" x2="290" y2="472" />
</g>
<g>
	<rect fill="#808080" stroke="none" stroke-opacity="1" x="534" y="709" width="3" height="47" />
	<rect fill="#808080" stroke="none" stroke-opacity="1" x="326" y="753" width="211" height="3" />
	<rect fill="#ffffc0" stroke="black" stroke-width="1" stroke-opacity="1" x="322" y="705" width="212" height="48" />
	<text font-family="Helvetica" font-size="15" fill="#000000" xml:space="preserve" font-weight="bold" text-anchor="middle" x="428" y="722">NucleicAcidFeatureMultimer</text>
	<line stroke="black" stroke-opacity="1" x1="322" y1="725" x2="534" y2="725" />
	<text font-family="Helvetica" font-size="15" fill="#000000" xml:space="preserve" x="326" y="742">cardinality</text>
	<line stroke="black" stroke-opacity="1" x1="322" y1="745" x2="534" y2="745" />
</g>
<g>
	<rect fill="#808080" stroke="none" stroke-opacity="1" x="1481" y="201" width="3" height="35" />
	<rect fill="#808080" stroke="none" stroke-opacity="1" x="1375" y="233" width="109" height="3" />
	<rect fill="#ffffc0" stroke="black" stroke-width="1" stroke-opacity="1" x="1371" y="197" width="110" height="36" />
	<text font-family="Helvetica" font-size="15" fill="#000000" xml:space="preserve" font-weight="bold" text-anchor="middle" x="1426" y="214">AuxiliaryUnits</text>
	<line stroke="black" stroke-opacity="1" x1="1371" y1="217" x2="1481" y2="217" />
	<line stroke="black" stroke-opacity="1" x1="1371" y1="225" x2="1481" y2="225" />
</g>
<g>
	<rect fill="#808080" stroke="none" stroke-opacity="1" x="1372" y="290" width="3" height="65" />
	<rect fill="#808080" stroke="none" stroke-opacity="1" x="1240" y="352" width="135" height="3" />
	<rect fill="#ffffc0" stroke="black" stroke-width="1" stroke-opacity="1" x="1236" y="286" width="136" height="66" />
	<text font-family="Helvetica" font-size="15" fill="#000000" xml:space="preserve" font-weight="bold" text-anchor="middle" x="1304" y="303">UnitOfInformation</text>
	<line stroke="black" stroke-opacity="1" x1="1236" y1="306" x2="1372" y2="306" />
	<text font-family="Helvetica" font-size="15" fill="#000000" xml:space="preserve" x="1240" y="323">prefix</text>
	<text font-family="Helvetica" font-size="15" fill="#000000" xml:space="preserve" x="1240" y="341">annotation</text>
	<line stroke="black" stroke-opacity="1" x1="1236" y1="344" x2="1372" y2="344" />
</g>
<g>
	<rect fill="#808080" stroke="none" stroke-opacity="1" x="1479" y="390" width="3" height="65" />
	<rect fill="#808080" stroke="none" stroke-opacity="1" x="1377" y="452" width="105" height="3" />
	<rect fill="#ffffc0" stroke="black" stroke-width="1" stroke-opacity="1" x="1373" y="386" width="106" height="66" />
	<text font-family="Helvetica" font-size="15" fill="#000000" xml:space="preserve" font-weight="bold" text-anchor="middle" x="1426" y="403">StateVariable</text>
	<line stroke="black" stroke-opacity="1" x1="1373" y1="406" x2="1479" y2="406" />
	<text font-family="Helvetica" font-size="15" fill="#000000" xml:space="preserve" x="1377" y="423">name</text>
	<text font-family="Helvetica" font-size="15" fill="#000000" xml:space="preserve" x="1377" y="441">value</text>
	<line stroke="black" stroke-opacity="1" x1="1373" y1="444" x2="1479" y2="444" />
</g>
<g>
	<rect fill="#808080" stroke="none" stroke-opacity="1" x="1640" y="274" width="3" height="47" />
	<rect fill="#808080" stroke="none" stroke-opacity="1" x="1544" y="318" width="99" height="3" />
	<rect fill="#ffffc0" stroke="black" stroke-width="1" stroke-opacity="1" x="1540" y="270" width="100" height="48" />
	<text font-family="Helvetica" font-size="15" fill="#000000" xml:space="preserve" font-weight="bold" text-anchor="middle" x="1590" y="287">CloneMarker</text>
	<line stroke="black" stroke-opacity="1" x1="1540" y1="290" x2="1640" y2="290" />
	<text font-family="Helvetica" font-size="15" fill="#000000" xml:space="preserve" x="1544" y="307">identifier</text>
	<line stroke="black" stroke-opacity="1" x1="1540" y1="310" x2="1640" y2="310" />
</g>
<g>
	<rect fill="#808080" stroke="none" stroke-opacity="1" x="272" y="220" width="3" height="35" />
	<rect fill="#808080" stroke="none" stroke-opacity="1" x="100" y="252" width="175" height="3" />
	<rect fill="#ffffc0" stroke="black" stroke-width="1" stroke-opacity="1" x="96" y="216" width="176" height="36" />
	<text font-family="Helvetica" font-size="15" fill="#000000" xml:space="preserve" font-weight="bold" text-anchor="middle" x="184" y="233">StoichiometricProcess</text>
	<line stroke="black" stroke-opacity="1" x1="96" y1="236" x2="272" y2="236" />
	<line stroke="black" stroke-opacity="1" x1="96" y1="244" x2="272" y2="244" />
</g>
<g>
	<line stroke="black" stroke-opacity="1" x1="186" y1="215" x2="186" y2="160" />
	<line stroke="black" stroke-opacity="1" x1="186" y1="154" x2="180" y2="160" />
	<line stroke="black" stroke-opacity="1" x1="186" y1="154" x2="192" y2="160" />
	<line stroke="black" stroke-opacity="1" x1="180" y1="160" x2="192" y2="160" />
</g>
<g>
	<line stroke="black" stroke-opacity="1" x1="238" y1="443" x2="191" y2="261" />
	<line stroke="black" stroke-opacity="1" x1="190" y1="256" x2="185" y2="263" />
	<line stroke="black" stroke-opacity="1" x1="190" y1="256" x2="197" y2="260" />
	<line stroke="black" stroke-opacity="1" x1="185" y1="263" x2="197" y2="260" />
</g>
<g>
	<line stroke="black" stroke-opacity="1" x1="478" y1="100" x2="479" y2="67" />
	<line stroke="black" stroke-opacity="1" x1="480" y1="62" x2="473" y2="67" />
	<line stroke="black" stroke-opacity="1" x1="480" y1="62" x2="485" y2="68" />
	<line stroke="black" stroke-opacity="1" x1="473" y1="67" x2="485" y2="68" />
</g>
<g>
	<line stroke="black" stroke-opacity="1" x1="324" y1="227" x2="221" y2="157" />
	<line stroke="black" stroke-opacity="1" x1="217" y1="154" x2="218" y2="162" />
	<line stroke="black" stroke-opacity="1" x1="217" y1="154" x2="225" y2="152" />
	<line stroke="black" stroke-opacity="1" x1="218" y1="162" x2="225" y2="152" />
</g>
<g>
	<line stroke="black" stroke-opacity="1" x1="934" y1="356" x2="893" y2="271" />
	<line stroke="black" stroke-opacity="1" x1="891" y1="266" x2="888" y2="274" />
	<line stroke="black" stroke-opacity="1" x1="891" y1="266" x2="899" y2="268" />
	<line stroke="black" stroke-opacity="1" x1="888" y1="274" x2="899" y2="268" />
</g>
<g>
	<line stroke="black" stroke-opacity="1" x1="1428" y1="385" x2="1428" y2="243" />
	<line stroke="black" stroke-opacity="1" x1="1428" y1="237" x2="1422" y2="243" />
	<line stroke="black" stroke-opacity="1" x1="1428" y1="237" x2="1434" y2="243" />
	<line stroke="black" stroke-opacity="1" x1="1422" y1="243" x2="1434" y2="243" />
</g>
<g>
	<line stroke="black" stroke-opacity="1" x1="1345" y1="285" x2="1396" y2="240" />
	<line stroke="black" stroke-opacity="1" x1="1401" y1="237" x2="1392" y2="236" />
	<line stroke="black" stroke-opacity="1" x1="1401" y1="237" x2="1400" y2="245" />
	<line stroke="black" stroke-opacity="1" x1="1392" y1="236" x2="1400" y2="245" />
</g>
<g>
	<line stroke="black" stroke-opacity="1" x1="1539" y1="270" x2="1478" y2="239" />
	<line stroke="black" stroke-opacity="1" x1="1473" y1="237" x2="1475" y2="245" />
	<line stroke="black" stroke-opacity="1" x1="1473" y1="237" x2="1481" y2="234" />
	<line stroke="black" stroke-opacity="1" x1="1475" y1="245" x2="1481" y2="234" />
</g>
<g>
	<rect fill="#808080" stroke="none" stroke-opacity="1" x="135" y="309" width="3" height="35" />
	<rect fill="#808080" stroke="none" stroke-opacity="1" x="13" y="341" width="125" height="3" />
	<rect fill="#ffffc0" stroke="black" stroke-width="1" stroke-opacity="1" x="9" y="305" width="126" height="36" />
	<text font-family="Helvetica" font-size="15" fill="#000000" xml:space="preserve" font-weight="bold" text-anchor="middle" x="72" y="322">OmittedProcess</text>
	<line stroke="black" stroke-opacity="1" x1="9" y1="325" x2="135" y2="325" />
	<line stroke="black" stroke-opacity="1" x1="9" y1="333" x2="135" y2="333" />
</g>
<g>
	<rect fill="#808080" stroke="none" stroke-opacity="1" x="177" y="409" width="3" height="35" />
	<rect fill="#808080" stroke="none" stroke-opacity="1" x="43" y="441" width="137" height="3" />
	<rect fill="#ffffc0" stroke="black" stroke-width="1" stroke-opacity="1" x="39" y="405" width="138" height="36" />
	<text font-family="Helvetica" font-size="15" fill="#000000" xml:space="preserve" font-weight="bold" text-anchor="middle" x="108" y="422">UncertainProcess</text>
	<line stroke="black" stroke-opacity="1" x1="39" y1="425" x2="177" y2="425" />
	<line stroke="black" stroke-opacity="1" x1="39" y1="433" x2="177" y2="433" />
</g>
<g>
	<rect fill="#808080" stroke="none" stroke-opacity="1" x="487" y="508" width="3" height="35" />
	<rect fill="#808080" stroke="none" stroke-opacity="1" x="451" y="540" width="39" height="3" />
	<rect fill="#ffffc0" stroke="black" stroke-width="1" stroke-opacity="1" x="447" y="504" width="40" height="36" />
	<text font-family="Helvetica" font-size="15" fill="#000000" xml:space="preserve" font-weight="bold" text-anchor="middle" x="467" y="521">Sink</text>
	<line stroke="black" stroke-opacity="1" x1="447" y1="524" x2="487" y2="524" />
	<line stroke="black" stroke-opacity="1" x1="447" y1="532" x2="487" y2="532" />
</g>
<g>
	<rect fill="#808080" stroke="none" stroke-opacity="1" x="505" y="596" width="3" height="47" />
	<rect fill="#808080" stroke="none" stroke-opacity="1" x="359" y="640" width="149" height="3" />
	<rect fill="#ffffc0" stroke="black" stroke-width="1" stroke-opacity="1" x="355" y="592" width="150" height="48" />
	<text font-family="Helvetica" font-size="15" fill="#000000" xml:space="preserve" font-weight="bold" text-anchor="middle" x="430" y="609">NucleicAcidFeature</text>
	<line stroke="black" stroke-opacity="1" x1="355" y1="612" x2="505" y2="612" />
	<text font-family="Helvetica" font-size="15" fill="#000000" xml:space="preserve" x="359" y="629">conceptualType</text>
	<line stroke="black" stroke-opacity="1" x1="355" y1="632" x2="505" y2="632" />
</g>
<g>
	<line stroke="black" stroke-opacity="1" x1="96" y1="304" x2="152" y2="259" />
	<line stroke="black" stroke-opacity="1" x1="157" y1="256" x2="148" y2="254" />
	<line stroke="black" stroke-opacity="1" x1="157" y1="256" x2="155" y2="264" />
	<line stroke="black" stroke-opacity="1" x1="148" y1="254" x2="155" y2="264" />
</g>
<g>
	<line stroke="black" stroke-opacity="1" x1="116" y1="404" x2="174" y2="261" />
	<line stroke="black" stroke-opacity="1" x1="177" y1="256" x2="169" y2="259" />
	<line stroke="black" stroke-opacity="1" x1="177" y1="256" x2="180" y2="263" />
	<line stroke="black" stroke-opacity="1" x1="169" y1="259" x2="180" y2="263" />
</g>
<g>
	<rect fill="#808080" stroke="none" stroke-opacity="1" x="519" y="105" width="3" height="35" />
	<rect fill="#808080" stroke="none" stroke-opacity="1" x="435" y="137" width="87" height="3" />
	<rect fill="#ffffc0" stroke="black" stroke-width="1" stroke-opacity="1" x="431" y="101" width="88" height="36" />
	<text font-family="Helvetica" font-size="15" fill="#000000" xml:space="preserve" font-weight="bold" font-style="italic" text-anchor="middle" x="475" y="118">SBGNNode</text>
	<line stroke="black" stroke-opacity="1" x1="431" y1="121" x2="519" y2="121" />
	<line stroke="black" stroke-opacity="1" x1="431" y1="129" x2="519" y2="129" />
</g>
<g>
	<rect fill="#808080" stroke="none" stroke-opacity="1" x="1200" y="233" width="3" height="35" />
	<rect fill="#808080" stroke="none" stroke-opacity="1" x="1046" y="265" width="157" height="3" />
	<rect fill="#ffffc0" stroke="black" stroke-width="1" stroke-opacity="1" x="1042" y="229" width="158" height="36" />
	<text font-family="Helvetica" font-size="15" fill="#000000" xml:space="preserve" font-weight="bold" font-style="italic" text-anchor="middle" x="1121" y="246">LogicalOperatorNode</text>
	<line stroke="black" stroke-opacity="1" x1="1042" y1="249" x2="1200" y2="249" />
	<line stroke="black" stroke-opacity="1" x1="1042" y1="257" x2="1200" y2="257" />
</g>
<g>
	<line stroke="black" stroke-opacity="1" x1="430" y1="704" x2="430" y2="649" />
	<line stroke="black" stroke-opacity="1" x1="431" y1="644" x2="424" y2="649" />
	<line stroke="black" stroke-opacity="1" x1="431" y1="644" x2="436" y2="650" />
	<line stroke="black" stroke-opacity="1" x1="424" y1="649" x2="436" y2="650" />
</g>
<g>
	<line stroke="black" stroke-opacity="1" x1="223" y1="131" x2="424" y2="122" />
	<line stroke="black" stroke-opacity="1" x1="430" y1="122" x2="423" y2="116" />
	<line stroke="black" stroke-opacity="1" x1="430" y1="122" x2="424" y2="128" />
	<line stroke="black" stroke-opacity="1" x1="423" y1="116" x2="424" y2="128" />
</g>
<g>
	<line stroke="black" stroke-opacity="1" x1="477" y1="415" x2="477" y2="147" />
	<line stroke="black" stroke-opacity="1" x1="477" y1="141" x2="471" y2="147" />
	<line stroke="black" stroke-opacity="1" x1="477" y1="141" x2="483" y2="147" />
	<line stroke="black" stroke-opacity="1" x1="471" y1="147" x2="483" y2="147" />
</g>
<g>
	<line stroke="black" stroke-opacity="1" x1="613" y1="232" x2="507" y2="144" />
	<line stroke="black" stroke-opacity="1" x1="503" y1="141" x2="503" y2="149" />
	<line stroke="black" stroke-opacity="1" x1="503" y1="141" x2="511" y2="140" />
	<line stroke="black" stroke-opacity="1" x1="503" y1="149" x2="511" y2="140" />
</g>
<g>
	<line stroke="black" stroke-opacity="1" x1="1017" y1="437" x2="1106" y2="274" />
	<line stroke="black" stroke-opacity="1" x1="1109" y1="269" x2="1100" y2="271" />
	<line stroke="black" stroke-opacity="1" x1="1109" y1="269" x2="1111" y2="277" />
	<line stroke="black" stroke-opacity="1" x1="1100" y1="271" x2="1111" y2="277" />
</g>
<g>
	<line stroke="black" stroke-opacity="1" x1="1123" y1="447" x2="1123" y2="275" />
	<line stroke="black" stroke-opacity="1" x1="1123" y1="269" x2="1117" y2="275" />
	<line stroke="black" stroke-opacity="1" x1="1123" y1="269" x2="1129" y2="275" />
	<line stroke="black" stroke-opacity="1" x1="1117" y1="275" x2="1129" y2="275" />
</g>
<g>
	<line stroke="black" stroke-opacity="1" x1="1226" y1="437" x2="1135" y2="274" />
	<line stroke="black" stroke-opacity="1" x1="1133" y1="269" x2="1130" y2="277" />
	<line stroke="black" stroke-opacity="1" x1="1133" y1="269" x2="1141" y2="271" />
	<line stroke="black" stroke-opacity="1" x1="1130" y1="277" x2="1141" y2="271" />
</g>
<g>
	<line stroke="black" stroke-opacity="1" x1="1041" y1="232" x2="528" y2="129" />
	<line stroke="black" stroke-opacity="1" x1="523" y1="128" x2="527" y2="135" />
	<line stroke="black" stroke-opacity="1" x1="523" y1="128" x2="530" y2="123" />
	<line stroke="black" stroke-opacity="1" x1="527" y1="135" x2="530" y2="123" />
</g>
<g>
	<line stroke="black" stroke-opacity="1" x1="821" y1="227" x2="528" y2="135" />
	<line stroke="black" stroke-opacity="1" x1="523" y1="134" x2="526" y2="141" />
	<line stroke="black" stroke-opacity="1" x1="523" y1="134" x2="530" y2="130" />
	<line stroke="black" stroke-opacity="1" x1="526" y1="141" x2="530" y2="130" />
</g>
<g>
	<line stroke="black" stroke-opacity="1" x1="1370" y1="211" x2="528" y2="124" />
	<line stroke="black" stroke-opacity="1" x1="523" y1="124" x2="528" y2="130" />
	<line stroke="black" stroke-opacity="1" x1="523" y1="124" x2="529" y2="118" />
	<line stroke="black" stroke-opacity="1" x1="528" y1="130" x2="529" y2="118" />
</g>
<g>
	<rect fill="#808080" stroke="none" stroke-opacity="1" x="401" y="402" width="3" height="35" />
	<rect fill="#808080" stroke="none" stroke-opacity="1" x="305" y="434" width="99" height="3" />
	<rect fill="#ffffc0" stroke="black" stroke-width="1" stroke-opacity="1" x="301" y="398" width="100" height="36" />
	<text font-family="Helvetica" font-size="15" fill="#000000" xml:space="preserve" font-weight="bold" text-anchor="middle" x="351" y="415">Dissociation</text>
	<line stroke="black" stroke-opacity="1" x1="301" y1="418" x2="401" y2="418" />
	<line stroke="black" stroke-opacity="1" x1="301" y1="426" x2="401" y2="426" />
</g>
<g>
	<line stroke="black" stroke-opacity="1" x1="334" y1="397" x2="208" y2="260" />
	<line stroke="black" stroke-opacity="1" x1="204" y1="256" x2="203" y2="264" />
	<line stroke="black" stroke-opacity="1" x1="204" y1="256" x2="212" y2="256" />
	<line stroke="black" stroke-opacity="1" x1="203" y1="264" x2="212" y2="256" />
</g>
<g>
	<rect fill="#808080" stroke="none" stroke-opacity="1" x="534" y="420" width="3" height="47" />
	<rect fill="#808080" stroke="none" stroke-opacity="1" x="420" y="464" width="117" height="3" />
	<rect fill="#ffffc0" stroke="black" stroke-width="1" stroke-opacity="1" x="416" y="416" width="118" height="48" />
	<text font-family="Helvetica" font-size="15" fill="#000000" xml:space="preserve" font-weight="bold" font-style="italic" text-anchor="middle" x="475" y="433">EntityPoolNode</text>
	<line stroke="black" stroke-opacity="1" x1="416" y1="436" x2="534" y2="436" />
	<text font-family="Helvetica" font-size="15" fill="#000000" xml:space="preserve" x="420" y="453">name</text>
	<line stroke="black" stroke-opacity="1" x1="416" y1="456" x2="534" y2="456" />
</g>
<g>
	<rect fill="#808080" stroke="none" stroke-opacity="1" x="699" y="237" width="3" height="47" />
	<rect fill="#808080" stroke="none" stroke-opacity="1" x="593" y="281" width="109" height="3" />
	<rect fill="#ffffc0" stroke="black" stroke-width="1" stroke-opacity="1" x="589" y="233" width="110" height="48" />
	<text font-family="Helvetica" font-size="15" fill="#000000" xml:space="preserve" font-weight="bold" text-anchor="middle" x="644" y="250">Compartment</text>
	<line stroke="black" stroke-opacity="1" x1="589" y1="253" x2="699" y2="253" />
	<text font-family="Helvetica" font-size="15" fill="#000000" xml:space="preserve" x="593" y="270">name</text>
	<line stroke="black" stroke-opacity="1" x1="589" y1="273" x2="699" y2="273" />
</g>
<g>
	<line stroke="black" stroke-opacity="1" x1="569" y1="502" x2="522" y2="471" />
	<line stroke="black" stroke-opacity="1" x1="517" y1="468" x2="518" y2="476" />
	<line stroke="black" stroke-opacity="1" x1="517" y1="468" x2="525" y2="466" />
	<line stroke="black" stroke-opacity="1" x1="518" y1="476" x2="525" y2="466" />
</g>
<g>
	<line stroke="black" stroke-opacity="1" x1="305" y1="503" x2="409" y2="464" />
	<line stroke="black" stroke-opacity="1" x1="415" y1="462" x2="407" y2="458" />
	<line stroke="black" stroke-opacity="1" x1="415" y1="462" x2="411" y2="469" />
	<line stroke="black" stroke-opacity="1" x1="407" y1="458" x2="411" y2="469" />
</g>
<g>
	<line stroke="black" stroke-opacity="1" x1="719" y1="506" x2="543" y2="459" />
	<line stroke="black" stroke-opacity="1" x1="538" y1="458" x2="542" y2="465" />
	<line stroke="black" stroke-opacity="1" x1="538" y1="458" x2="545" y2="453" />
	<line stroke="black" stroke-opacity="1" x1="542" y1="465" x2="545" y2="453" />
</g>
<g>
	<line stroke="black" stroke-opacity="1" x1="470" y1="503" x2="472" y2="473" />
	<line stroke="black" stroke-opacity="1" x1="473" y1="468" x2="466" y2="473" />
	<line stroke="black" stroke-opacity="1" x1="473" y1="468" x2="478" y2="474" />
	<line stroke="black" stroke-opacity="1" x1="466" y1="473" x2="478" y2="474" />
</g>
<g>
	<line stroke="black" stroke-opacity="1" x1="889" y1="511" x2="543" y2="452" />
	<line stroke="black" stroke-opacity="1" x1="538" y1="451" x2="542" y2="457" />
	<line stroke="black" stroke-opacity="1" x1="538" y1="451" x2="544" y2="446" />
	<line stroke="black" stroke-opacity="1" x1="542" y1="457" x2="544" y2="446" />
</g>
<g>
	<rect fill="#808080" stroke="none" stroke-opacity="1" x="684" y="507" width="3" height="35" />
	<rect fill="#808080" stroke="none" stroke-opacity="1" x="516" y="539" width="171" height="3" />
	<rect fill="#ffffc0" stroke="black" stroke-width="1" stroke-opacity="1" x="512" y="503" width="172" height="36" />
	<text font-family="Helvetica" font-size="15" fill="#000000" xml:space="preserve" font-weight="bold" font-style="italic" text-anchor="middle" x="598" y="520">StatefulEntityPoolNode</text>
	<line stroke="black" stroke-opacity="1" x1="512" y1="523" x2="684" y2="523" />
	<line stroke="black" stroke-opacity="1" x1="512" y1="531" x2="684" y2="531" />
</g>
<g>
	<rect fill="#808080" stroke="none" stroke-opacity="1" x="316" y="508" width="3" height="35" />
	<rect fill="#808080" stroke="none" stroke-opacity="1" x="192" y="540" width="127" height="3" />
	<rect fill="#ffffc0" stroke="black" stroke-width="1" stroke-opacity="1" x="188" y="504" width="128" height="36" />
	<text font-family="Helvetica" font-size="15" fill="#000000" xml:space="preserve" font-weight="bold" text-anchor="middle" x="252" y="521">SimpleChemical</text>
	<line stroke="black" stroke-opacity="1" x1="188" y1="524" x2="316" y2="524" />
	<line stroke="black" stroke-opacity="1" x1="188" y1="532" x2="316" y2="532" />
</g>
<g>
	<rect fill="#808080" stroke="none" stroke-opacity="1" x="855" y="511" width="3" height="35" />
	<rect fill="#808080" stroke="none" stroke-opacity="1" x="723" y="543" width="135" height="3" />
	<rect fill="#ffffc0" stroke="black" stroke-width="1" stroke-opacity="1" x="719" y="507" width="136" height="36" />
	<text font-family="Helvetica" font-size="15" fill="#000000" xml:space="preserve" font-weight="bold" text-anchor="middle" x="787" y="524">UnspecifiedEntity</text>
	<line stroke="black" stroke-opacity="1" x1="719" y1="527" x2="855" y2="527" />
	<line stroke="black" stroke-opacity="1" x1="719" y1="535" x2="855" y2="535" />
</g>
<g>
	<rect fill="#808080" stroke="none" stroke-opacity="1" x="839" y="364" width="3" height="47" />
	<rect fill="#808080" stroke="none" stroke-opacity="1" x="773" y="408" width="69" height="3" />
	<rect fill="#ffffc0" stroke="black" stroke-width="1" stroke-opacity="1" x="769" y="360" width="70" height="48" />
	<text font-family="Helvetica" font-size="15" fill="#000000" xml:space="preserve" font-weight="bold" text-anchor="middle" x="804" y="377">SubMap</text>
	<line stroke="black" stroke-opacity="1" x1="769" y1="380" x2="839" y2="380" />
	<text font-family="Helvetica" font-size="15" fill="#000000" xml:space="preserve" x="773" y="397">name</text>
	<line stroke="black" stroke-opacity="1" x1="769" y1="400" x2="839" y2="400" />
</g>
<g>
	<line stroke="black" stroke-opacity="1" x1="819" y1="359" x2="867" y2="271" />
	<line stroke="black" stroke-opacity="1" x1="870" y1="266" x2="861" y2="268" />
	<line stroke="black" stroke-opacity="1" x1="870" y1="266" x2="872" y2="274" />
	<line stroke="black" stroke-opacity="1" x1="861" y1="268" x2="872" y2="274" />
</g>
<g>
	<line stroke="black" stroke-opacity="1" x1="703" y1="600" x2="631" y2="546" />
	<line stroke="black" stroke-opacity="1" x1="627" y1="543" x2="628" y2="551" />
	<line stroke="black" stroke-opacity="1" x1="627" y1="543" x2="635" y2="541" />
	<line stroke="black" stroke-opacity="1" x1="628" y1="551" x2="635" y2="541" />
</g>
<g>
	<line stroke="black" stroke-opacity="1" x1="593" y1="599" x2="596" y2="548" />
	<line stroke="black" stroke-opacity="1" x1="597" y1="543" x2="590" y2="548" />
	<line stroke="black" stroke-opacity="1" x1="597" y1="543" x2="602" y2="549" />
	<line stroke="black" stroke-opacity="1" x1="590" y1="548" x2="602" y2="549" />
</g>
<g>
	<line stroke="black" stroke-opacity="1" x1="197" y1="652" x2="240" y2="549" />
	<line stroke="black" stroke-opacity="1" x1="243" y1="544" x2="235" y2="547" />
	<line stroke="black" stroke-opacity="1" x1="243" y1="544" x2="246" y2="551" />
	<line stroke="black" stroke-opacity="1" x1="235" y1="547" x2="246" y2="551" />
</g>
<g>
	<line stroke="black" stroke-opacity="1" x1="476" y1="591" x2="555" y2="545" />
	<line stroke="black" stroke-opacity="1" x1="561" y1="543" x2="552" y2="540" />
	<line stroke="black" stroke-opacity="1" x1="561" y1="543" x2="558" y2="551" />
	<line stroke="black" stroke-opacity="1" x1="552" y1="540" x2="558" y2="551" />
</g>
<g>
	<rect fill="#808080" stroke="none" stroke-opacity="1" x="812" y="605" width="3" height="47" />
	<rect fill="#808080" stroke="none" stroke-opacity="1" x="666" y="649" width="149" height="3" />
	<rect fill="#ffffc0" stroke="black" stroke-width="1" stroke-opacity="1" x="662" y="601" width="150" height="48" />
	<text font-family="Helvetica" font-size="15" fill="#000000" xml:space="preserve" font-weight="bold" text-anchor="middle" x="737" y="618">Macromolecule</text>
	<line stroke="black" stroke-opacity="1" x1="662" y1="621" x2="812" y2="621" />
	<text font-family="Helvetica" font-size="15" fill="#000000" xml:space="preserve" x="666" y="638">macromoleculeType</text>
	<line stroke="black" stroke-opacity="1" x1="662" y1="641" x2="812" y2="641" />
</g>
<g>
	<rect fill="#808080" stroke="none" stroke-opacity="1" x="401" y="507" width="3" height="35" />
	<rect fill="#808080" stroke="none" stroke-opacity="1" x="345" y="539" width="59" height="3" />
	<rect fill="#ffffc0" stroke="black" stroke-width="1" stroke-opacity="1" x="341" y="503" width="60" height="36" />
	<text font-family="Helvetica" font-size="15" fill="#000000" xml:space="preserve" font-weight="bold" text-anchor="middle" x="371" y="520">Source</text>
	<line stroke="black" stroke-opacity="1" x1="341" y1="523" x2="401" y2="523" />
	<line stroke="black" stroke-opacity="1" x1="341" y1="531" x2="401" y2="531" />
</g>
<g>
	<line stroke="black" stroke-opacity="1" x1="397" y1="502" x2="435" y2="471" />
	<line stroke="black" stroke-opacity="1" x1="440" y1="468" x2="431" y2="467" />
	<line stroke="black" stroke-opacity="1" x1="440" y1="468" x2="439" y2="476" />
	<line stroke="black" stroke-opacity="1" x1="431" y1="467" x2="439" y2="476" />
</g>
<g>
	<rect fill="#808080" stroke="none" stroke-opacity="1" x="825" y="705" width="3" height="47" />
	<rect fill="#808080" stroke="none" stroke-opacity="1" x="645" y="749" width="183" height="3" />
	<rect fill="#ffffc0" stroke="black" stroke-width="1" stroke-opacity="1" x="641" y="701" width="184" height="48" />
	<text font-family="Helvetica" font-size="15" fill="#000000" xml:space="preserve" font-weight="bold" text-anchor="middle" x="733" y="718">MultimerMacromolecule</text>
	<line stroke="black" stroke-opacity="1" x1="641" y1="721" x2="825" y2="721" />
	<text font-family="Helvetica" font-size="15" fill="#000000" xml:space="preserve" x="645" y="738">cardinality</text>
	<line stroke="black" stroke-opacity="1" x1="641" y1="741" x2="825" y2="741" />
</g>
<g>
	<line stroke="black" stroke-opacity="1" x1="736" y1="700" x2="736" y2="658" />
	<line stroke="black" stroke-opacity="1" x1="737" y1="653" x2="730" y2="658" />
	<line stroke="black" stroke-opacity="1" x1="737" y1="653" x2="742" y2="659" />
	<line stroke="black" stroke-opacity="1" x1="730" y1="658" x2="742" y2="659" />
</g>
<g>
	<rect fill="#808080" stroke="none" stroke-opacity="1" x="627" y="604" width="3" height="35" />
	<rect fill="#808080" stroke="none" stroke-opacity="1" x="557" y="636" width="73" height="3" />
	<rect fill="#ffffc0" stroke="black" stroke-width="1" stroke-opacity="1" x="553" y="600" width="74" height="36" />
	<text font-family="Helvetica" font-size="15" fill="#000000" xml:space="preserve" font-weight="bold" text-anchor="middle" x="590" y="617">Complex</text>
	<line stroke="black" stroke-opacity="1" x1="553" y1="620" x2="627" y2="620" />
	<line stroke="black" stroke-opacity="1" x1="553" y1="628" x2="627" y2="628" />
</g>
<g>
	<line stroke="black" stroke-opacity="1" x1="592" y1="770" x2="592" y2="646" />
	<line stroke="black" stroke-opacity="1" x1="592" y1="640" x2="586" y2="646" />
	<line stroke="black" stroke-opacity="1" x1="592" y1="640" x2="598" y2="646" />
	<line stroke="black" stroke-opacity="1" x1="586" y1="646" x2="598" y2="646" />
</g>
</svg>
