<?xml version="1.0" encoding="UTF-8" standalone="no"?>
<!-- Created with Bouml (http://bouml.free.fr/) -->
<!DOCTYPE svg PUBLIC "-//W3C//DTD SVG 1.1//EN" "http://www.w3.org/Graphics/SVG/1.1/DTD/svg11.dtd">
<svg width="2090" height="825" version="1.1" xmlns="http://www.w3.org/2000/svg">
<g>
	<rect fill="#ffffff" stroke="black" stroke-width="1" stroke-opacity="1" x="1353" y="129" width="88" height="30" />
	<text font-family="Helvetica" font-size="14" fill="#000000" xml:space="preserve" font-weight="bold" font-style="italic" text-anchor="middle" x="1397" y="144">SBGNGlyph</text>
</g>
<g>
	<rect fill="#ffffff" stroke="black" stroke-width="1" stroke-opacity="1" x="1325" y="249" width="82" height="30" />
	<text font-family="Helvetica" font-size="14" fill="#000000" xml:space="preserve" font-weight="bold" font-style="italic" text-anchor="middle" x="1366" y="264">SBGNNode</text>
</g>
<g>
	<rect fill="#ffffff" stroke="black" stroke-width="1" stroke-opacity="1" x="1914" y="249" width="70" height="30" />
	<text font-family="Helvetica" font-size="14" fill="#000000" xml:space="preserve" font-weight="bold" font-style="italic" text-anchor="middle" x="1949" y="264">SBGNArc</text>
</g>
<g>
	<rect fill="#ffffff" stroke="black" stroke-width="1" stroke-opacity="1" x="900" y="370" width="114" height="30" />
	<text font-family="Helvetica" font-size="14" fill="#000000" xml:space="preserve" font-weight="bold" font-style="italic" text-anchor="middle" x="957" y="385">EntityPoolNode</text>
</g>
<g>
	<rect fill="#ffffff" stroke="black" stroke-width="1" stroke-opacity="1" x="593" y="574" width="70" height="30" />
	<text font-family="Helvetica" font-size="14" fill="#000000" xml:space="preserve" font-weight="bold" text-anchor="middle" x="628" y="589">Complex</text>
</g>
<g>
	<rect fill="#ffffff" stroke="black" stroke-width="1" stroke-opacity="1" x="715" y="577" width="116" height="30" />
	<text font-family="Helvetica" font-size="14" fill="#000000" xml:space="preserve" font-weight="bold" text-anchor="middle" x="773" y="592">Macromolecule</text>
</g>
<g>
	<rect fill="#ffffff" stroke="black" stroke-width="1" stroke-opacity="1" x="1004" y="127" width="36" height="30" />
	<text font-family="Helvetica" font-size="14" fill="#000000" xml:space="preserve" font-weight="bold" text-anchor="middle" x="1022" y="142">Map</text>
</g>
<g>
	<rect fill="#ffffff" stroke="black" stroke-width="1" stroke-opacity="1" x="969" y="27" width="102" height="30" />
	<text font-family="Helvetica" font-size="14" fill="#000000" xml:space="preserve" font-weight="bold" font-style="italic" text-anchor="middle" x="1020" y="42">SBGNElement</text>
</g>
<g>
	<rect fill="#ffffff" stroke="black" stroke-width="1" stroke-opacity="1" x="728" y="446" width="88" height="30" />
	<text font-family="Helvetica" font-size="14" fill="#000000" xml:space="preserve" font-weight="bold" font-style="italic" text-anchor="middle" x="772" y="461">StatefulEPN</text>
</g>
<g>
	<rect fill="#ffffff" stroke="black" stroke-width="1" stroke-opacity="1" x="58" y="252" width="102" height="30" />
	<text font-family="Helvetica" font-size="14" fill="#000000" xml:space="preserve" font-weight="bold" text-anchor="middle" x="109" y="267">StateVariable</text>
</g>
<g>
	<rect fill="#ffffff" stroke="black" stroke-width="1" stroke-opacity="1" x="496" y="129" width="94" height="30" />
	<text font-family="Helvetica" font-size="14" fill="#000000" xml:space="preserve" font-weight="bold" font-style="italic" text-anchor="middle" x="543" y="144">AuxiliaryUnit</text>
</g>
<g>
	<rect fill="#ffffff" stroke="black" stroke-width="1" stroke-opacity="1" x="1080" y="620" width="98" height="30" />
	<text font-family="Helvetica" font-size="14" fill="#000000" xml:space="preserve" font-weight="bold" font-style="italic" text-anchor="middle" x="1129" y="635">StatelessEPN</text>
</g>
<g>
	<rect fill="#ffffff" stroke="black" stroke-width="1" stroke-opacity="1" x="1268" y="603" width="175" height="36" />
	<text font-family="Helvetica" font-size="14" fill="#000000" xml:space="preserve" font-weight="bold" text-anchor="middle" x="1356" y="618">StoichiometricProcess</text>
</g>
<g>
	<rect fill="#ffffff" stroke="black" stroke-width="1" stroke-opacity="1" x="1775" y="385" width="60" height="30" />
	<text font-family="Helvetica" font-size="14" fill="#000000" xml:space="preserve" font-weight="bold" font-style="italic" text-anchor="middle" x="1805" y="400">FluxArc</text>
</g>
<g>
	<rect fill="#ffffff" stroke="black" stroke-width="1" stroke-opacity="1" x="1866" y="386" width="112" height="30" />
	<text font-family="Helvetica" font-size="14" fill="#000000" xml:space="preserve" font-weight="bold" text-anchor="middle" x="1922" y="401">ModulationArc</text>
</g>
<g>
	<rect fill="#ffffff" stroke="black" stroke-width="1" stroke-opacity="1" x="1599" y="783" width="124" height="30" />
	<text font-family="Helvetica" font-size="14" fill="#000000" xml:space="preserve" font-weight="bold" text-anchor="middle" x="1661" y="798">LogicalOperator</text>
</g>
<g>
	<rect fill="#ffffff" stroke="black" stroke-width="1" stroke-opacity="1" x="2006" y="385" width="72" height="30" />
	<text font-family="Helvetica" font-size="14" fill="#000000" xml:space="preserve" font-weight="bold" text-anchor="middle" x="2042" y="400">LogicArc</text>
</g>
<g>
	<rect fill="#ffffff" stroke="black" stroke-width="1" stroke-opacity="1" x="1228" y="370" width="74" height="30" />
	<text font-family="Helvetica" font-size="14" fill="#000000" xml:space="preserve" font-weight="bold" text-anchor="middle" x="1265" y="385">EmptySet</text>
</g>
<g>
	<rect fill="#ffffff" stroke="black" stroke-width="1" stroke-opacity="1" x="336" y="391" width="158" height="30" />
	<text font-family="Helvetica" font-size="14" fill="#000000" xml:space="preserve" font-weight="bold" text-anchor="middle" x="415" y="406">LabelledCloneMarker</text>
</g>
<g>
	<rect fill="#ffffff" stroke="black" stroke-width="1" stroke-opacity="1" x="165" y="391" width="144" height="30" />
	<text font-family="Helvetica" font-size="14" fill="#000000" xml:space="preserve" font-weight="bold" text-anchor="middle" x="237" y="406">SimpleCloneMarker</text>
</g>
<g>
	<rect fill="#ffffff" stroke="black" stroke-width="1" stroke-opacity="1" x="411" y="253" width="108" height="30" />
	<text font-family="Helvetica" font-size="14" fill="#000000" xml:space="preserve" font-weight="bold" text-anchor="middle" x="465" y="268">AttributeValue</text>
</g>
<g>
	<line stroke="black" stroke-opacity="1" x1="1366" y1="248" x2="1366" y2="202" />
</g>
<g>
	<line stroke="black" stroke-opacity="1" x1="1366" y1="202" x2="1396" y2="202" />
</g>
<g>
	<line stroke="black" stroke-opacity="1" x1="1396" y1="202" x2="1396" y2="165" />
	<line stroke="black" stroke-opacity="1" x1="1396" y1="159" x2="1390" y2="165" />
	<line stroke="black" stroke-opacity="1" x1="1396" y1="159" x2="1402" y2="165" />
	<line stroke="black" stroke-opacity="1" x1="1390" y1="165" x2="1402" y2="165" />
</g>
<g>
	<line stroke="black" stroke-opacity="1" x1="1948" y1="248" x2="1948" y2="203" />
</g>
<g>
	<line stroke="black" stroke-opacity="1" x1="1948" y1="203" x2="1396" y2="203" />
</g>
<g>
	<line stroke="black" stroke-opacity="1" x1="1396" y1="203" x2="1396" y2="165" />
	<line stroke="black" stroke-opacity="1" x1="1396" y1="159" x2="1390" y2="165" />
	<line stroke="black" stroke-opacity="1" x1="1396" y1="159" x2="1402" y2="165" />
	<line stroke="black" stroke-opacity="1" x1="1390" y1="165" x2="1402" y2="165" />
</g>
<g>
	<line stroke="black" stroke-opacity="1" x1="1396" y1="128" x2="1396" y2="93" />
</g>
<g>
	<line stroke="black" stroke-opacity="1" x1="1396" y1="93" x2="1020" y2="93" />
</g>
<g>
	<line stroke="black" stroke-opacity="1" x1="1020" y1="93" x2="1020" y2="63" />
	<line stroke="black" stroke-opacity="1" x1="1020" y1="57" x2="1014" y2="63" />
	<line stroke="black" stroke-opacity="1" x1="1020" y1="57" x2="1026" y2="63" />
	<line stroke="black" stroke-opacity="1" x1="1014" y1="63" x2="1026" y2="63" />
</g>
<g>
	<line stroke="black" stroke-opacity="1" x1="956" y1="369" x2="956" y2="323" />
</g>
<g>
	<line stroke="black" stroke-opacity="1" x1="956" y1="323" x2="1366" y2="323" />
</g>
<g>
	<line stroke="black" stroke-opacity="1" x1="1366" y1="323" x2="1366" y2="285" />
	<line stroke="black" stroke-opacity="1" x1="1366" y1="279" x2="1360" y2="285" />
	<line stroke="black" stroke-opacity="1" x1="1366" y1="279" x2="1372" y2="285" />
	<line stroke="black" stroke-opacity="1" x1="1360" y1="285" x2="1372" y2="285" />
</g>
<g>
	<line stroke="black" stroke-opacity="1" x1="627" y1="573" x2="627" y2="526" />
</g>
<g>
	<line stroke="black" stroke-opacity="1" x1="627" y1="526" x2="772" y2="526" />
</g>
<g>
	<line stroke="black" stroke-opacity="1" x1="772" y1="526" x2="772" y2="482" />
	<line stroke="black" stroke-opacity="1" x1="772" y1="476" x2="766" y2="482" />
	<line stroke="black" stroke-opacity="1" x1="772" y1="476" x2="778" y2="482" />
	<line stroke="black" stroke-opacity="1" x1="766" y1="482" x2="778" y2="482" />
</g>
<g>
	<line stroke="black" stroke-opacity="1" x1="772" y1="576" x2="772" y2="526" />
</g>
<g>
	<line stroke="black" stroke-opacity="1" x1="772" y1="526" x2="772" y2="482" />
	<line stroke="black" stroke-opacity="1" x1="772" y1="476" x2="766" y2="482" />
	<line stroke="black" stroke-opacity="1" x1="772" y1="476" x2="778" y2="482" />
	<line stroke="black" stroke-opacity="1" x1="766" y1="482" x2="778" y2="482" />
</g>
<g>
	<line stroke="black" stroke-opacity="1" x1="771" y1="445" x2="770" y2="423" />
</g>
<g>
	<line stroke="black" stroke-opacity="1" x1="770" y1="423" x2="956" y2="423" />
</g>
<g>
	<line stroke="black" stroke-opacity="1" x1="956" y1="423" x2="956" y2="406" />
	<line stroke="black" stroke-opacity="1" x1="956" y1="400" x2="950" y2="406" />
	<line stroke="black" stroke-opacity="1" x1="956" y1="400" x2="962" y2="406" />
	<line stroke="black" stroke-opacity="1" x1="950" y1="406" x2="962" y2="406" />
</g>
<g>
	<line stroke="black" stroke-opacity="1" x1="543" y1="128" x2="543" y2="93" />
</g>
<g>
	<line stroke="black" stroke-opacity="1" x1="543" y1="93" x2="1021" y2="93" />
</g>
<g>
	<line stroke="black" stroke-opacity="1" x1="1021" y1="93" x2="1020" y2="62" />
	<line stroke="black" stroke-opacity="1" x1="1020" y1="57" x2="1014" y2="63" />
	<line stroke="black" stroke-opacity="1" x1="1020" y1="57" x2="1026" y2="62" />
	<line stroke="black" stroke-opacity="1" x1="1014" y1="63" x2="1026" y2="62" />
</g>
<g>
	<line stroke="black" stroke-opacity="1" x1="108" y1="251" x2="108" y2="205" />
</g>
<g>
	<line stroke="black" stroke-opacity="1" x1="108" y1="205" x2="543" y2="205" />
</g>
<g>
	<line stroke="black" stroke-opacity="1" x1="543" y1="205" x2="543" y2="165" />
	<line stroke="black" stroke-opacity="1" x1="543" y1="159" x2="537" y2="165" />
	<line stroke="black" stroke-opacity="1" x1="543" y1="159" x2="549" y2="165" />
	<line stroke="black" stroke-opacity="1" x1="537" y1="165" x2="549" y2="165" />
</g>
<g>
	<line stroke="black" stroke-opacity="1" x1="1805" y1="384" x2="1805" y2="332" />
</g>
<g>
	<line stroke="black" stroke-opacity="1" x1="1805" y1="332" x2="1948" y2="332" />
</g>
<g>
	<line stroke="black" stroke-opacity="1" x1="1948" y1="332" x2="1948" y2="285" />
	<line stroke="black" stroke-opacity="1" x1="1948" y1="279" x2="1942" y2="285" />
	<line stroke="black" stroke-opacity="1" x1="1948" y1="279" x2="1954" y2="285" />
	<line stroke="black" stroke-opacity="1" x1="1942" y1="285" x2="1954" y2="285" />
</g>
<g>
	<line stroke="black" stroke-opacity="1" x1="1921" y1="385" x2="1921" y2="332" />
</g>
<g>
	<line stroke="black" stroke-opacity="1" x1="1921" y1="332" x2="1948" y2="332" />
</g>
<g>
	<line stroke="black" stroke-opacity="1" x1="1948" y1="332" x2="1948" y2="285" />
	<line stroke="black" stroke-opacity="1" x1="1948" y1="279" x2="1942" y2="285" />
	<line stroke="black" stroke-opacity="1" x1="1948" y1="279" x2="1954" y2="285" />
	<line stroke="black" stroke-opacity="1" x1="1942" y1="285" x2="1954" y2="285" />
</g>
<g>
	<line stroke="black" stroke-opacity="1" x1="2042" y1="384" x2="2042" y2="332" />
</g>
<g>
	<line stroke="black" stroke-opacity="1" x1="1264" y1="369" x2="1264" y2="323" />
</g>
<g>
	<line stroke="black" stroke-opacity="1" x1="1264" y1="323" x2="1366" y2="323" />
</g>
<g>
	<line stroke="black" stroke-opacity="1" x1="1366" y1="323" x2="1366" y2="285" />
	<line stroke="black" stroke-opacity="1" x1="1366" y1="279" x2="1360" y2="285" />
	<line stroke="black" stroke-opacity="1" x1="1366" y1="279" x2="1372" y2="285" />
	<line stroke="black" stroke-opacity="1" x1="1360" y1="285" x2="1372" y2="285" />
</g>
<g>
	<line stroke="black" stroke-opacity="1" x1="1129" y1="619" x2="1129" y2="423" />
</g>
<g>
	<line stroke="black" stroke-opacity="1" x1="1129" y1="423" x2="956" y2="423" />
</g>
<g>
	<line stroke="black" stroke-opacity="1" x1="956" y1="423" x2="956" y2="406" />
	<line stroke="black" stroke-opacity="1" x1="956" y1="400" x2="950" y2="406" />
	<line stroke="black" stroke-opacity="1" x1="956" y1="400" x2="962" y2="406" />
	<line stroke="black" stroke-opacity="1" x1="950" y1="406" x2="962" y2="406" />
</g>
<g>
	<line stroke="black" stroke-opacity="1" x1="1021" y1="126" x2="1021" y2="92" />
</g>
<g>
	<line stroke="black" stroke-opacity="1" x1="1021" y1="92" x2="1020" y2="92" />
</g>
<g>
	<line stroke="black" stroke-opacity="1" x1="1020" y1="92" x2="1020" y2="63" />
	<line stroke="black" stroke-opacity="1" x1="1020" y1="57" x2="1014" y2="63" />
	<line stroke="black" stroke-opacity="1" x1="1020" y1="57" x2="1026" y2="63" />
	<line stroke="black" stroke-opacity="1" x1="1014" y1="63" x2="1026" y2="63" />
</g>
<g>
	<line stroke="black" stroke-opacity="1" x1="465" y1="252" x2="465" y2="205" />
</g>
<g>
	<line stroke="black" stroke-opacity="1" x1="465" y1="205" x2="543" y2="205" />
</g>
<g>
	<line stroke="black" stroke-opacity="1" x1="543" y1="205" x2="543" y2="165" />
	<line stroke="black" stroke-opacity="1" x1="543" y1="159" x2="537" y2="165" />
	<line stroke="black" stroke-opacity="1" x1="543" y1="159" x2="549" y2="165" />
	<line stroke="black" stroke-opacity="1" x1="537" y1="165" x2="549" y2="165" />
</g>
<g>
	<line stroke="black" stroke-opacity="1" x1="2042" y1="332" x2="1948" y2="332" />
</g>
<g>
	<rect fill="#ffffff" stroke="black" stroke-width="1" stroke-opacity="1" x="1461" y="370" width="98" height="30" />
	<text font-family="Helvetica" font-size="14" fill="#000000" xml:space="preserve" font-weight="bold" font-style="italic" text-anchor="middle" x="1510" y="385">ProcessNode</text>
</g>
<g>
	<line stroke="black" stroke-opacity="1" x1="1948" y1="332" x2="1948" y2="285" />
	<line stroke="black" stroke-opacity="1" x1="1948" y1="279" x2="1942" y2="285" />
	<line stroke="black" stroke-opacity="1" x1="1948" y1="279" x2="1954" y2="285" />
	<line stroke="black" stroke-opacity="1" x1="1942" y1="285" x2="1954" y2="285" />
</g>
<g>
	<rect fill="#ffffff" stroke="black" stroke-width="1" stroke-opacity="1" x="857" y="575" width="148" height="30" />
	<text font-family="Helvetica" font-size="14" fill="#000000" xml:space="preserve" font-weight="bold" text-anchor="middle" x="931" y="590">NucleicAcidFeature</text>
</g>
<g>
	<rect fill="#ffffff" stroke="black" stroke-width="1" stroke-opacity="1" x="1064" y="778" width="132" height="30" />
	<text font-family="Helvetica" font-size="14" fill="#000000" xml:space="preserve" font-weight="bold" text-anchor="middle" x="1130" y="793">UnspecifiedEntity</text>
</g>
<g>
	<rect fill="#ffffff" stroke="black" stroke-width="1" stroke-opacity="1" x="983" y="735" width="124" height="30" />
	<text font-family="Helvetica" font-size="14" fill="#000000" xml:space="preserve" font-weight="bold" text-anchor="middle" x="1045" y="750">PerturbingAgent</text>
</g>
<g>
	<rect fill="#ffffff" stroke="black" stroke-width="1" stroke-opacity="1" x="1520" y="250" width="102" height="30" />
	<text font-family="Helvetica" font-size="14" fill="#000000" xml:space="preserve" font-weight="bold" text-anchor="middle" x="1571" y="265">Compartment</text>
</g>
<g>
	<rect fill="#ffffff" stroke="black" stroke-width="1" stroke-opacity="1" x="1828" y="490" width="128" height="30" />
	<text font-family="Helvetica" font-size="14" fill="#000000" xml:space="preserve" font-weight="bold" text-anchor="middle" x="1892" y="505">ConsumptionArc</text>
</g>
<g>
	<rect fill="#ffffff" stroke="black" stroke-width="1" stroke-opacity="1" x="1676" y="490" width="112" height="30" />
	<text font-family="Helvetica" font-size="14" fill="#000000" xml:space="preserve" font-weight="bold" text-anchor="middle" x="1732" y="505">ProductionArc</text>
</g>
<g>
	<rect fill="#ffffff" stroke="black" stroke-width="1" stroke-opacity="1" x="1496" y="783" width="86" height="30" />
	<text font-family="Helvetica" font-size="14" fill="#000000" xml:space="preserve" font-weight="bold" text-anchor="middle" x="1539" y="798">Phenotype</text>
</g>
<g>
	<line stroke="black" stroke-opacity="1" x1="1510" y1="369" x2="1510" y2="323" />
</g>
<g>
	<line stroke="black" stroke-opacity="1" x1="1510" y1="323" x2="1366" y2="323" />
</g>
<g>
	<line stroke="black" stroke-opacity="1" x1="1366" y1="323" x2="1366" y2="285" />
	<line stroke="black" stroke-opacity="1" x1="1366" y1="279" x2="1360" y2="285" />
	<line stroke="black" stroke-opacity="1" x1="1366" y1="279" x2="1372" y2="285" />
	<line stroke="black" stroke-opacity="1" x1="1360" y1="285" x2="1372" y2="285" />
</g>
<g>
	<line stroke="black" stroke-opacity="1" x1="1355" y1="602" x2="1355" y2="501" />
</g>
<g>
	<line stroke="black" stroke-opacity="1" x1="1355" y1="501" x2="1510" y2="501" />
</g>
<g>
	<line stroke="black" stroke-opacity="1" x1="1510" y1="501" x2="1510" y2="406" />
	<line stroke="black" stroke-opacity="1" x1="1510" y1="400" x2="1504" y2="406" />
	<line stroke="black" stroke-opacity="1" x1="1510" y1="400" x2="1516" y2="406" />
	<line stroke="black" stroke-opacity="1" x1="1504" y1="406" x2="1516" y2="406" />
</g>
<g>
	<line stroke="black" stroke-opacity="1" x1="931" y1="574" x2="931" y2="526" />
</g>
<g>
	<line stroke="black" stroke-opacity="1" x1="931" y1="526" x2="772" y2="526" />
</g>
<g>
	<line stroke="black" stroke-opacity="1" x1="772" y1="526" x2="772" y2="482" />
	<line stroke="black" stroke-opacity="1" x1="772" y1="476" x2="766" y2="482" />
	<line stroke="black" stroke-opacity="1" x1="772" y1="476" x2="778" y2="482" />
	<line stroke="black" stroke-opacity="1" x1="766" y1="482" x2="778" y2="482" />
</g>
<g>
	<line stroke="black" stroke-opacity="1" x1="1129" y1="777" x2="1129" y2="714" />
</g>
<g>
	<line stroke="black" stroke-opacity="1" x1="1129" y1="714" x2="1129" y2="656" />
	<line stroke="black" stroke-opacity="1" x1="1129" y1="650" x2="1123" y2="656" />
	<line stroke="black" stroke-opacity="1" x1="1129" y1="650" x2="1135" y2="656" />
	<line stroke="black" stroke-opacity="1" x1="1123" y1="656" x2="1135" y2="656" />
</g>
<g>
	<line stroke="black" stroke-opacity="1" x1="1044" y1="734" x2="1044" y2="690" />
</g>
<g>
	<line stroke="black" stroke-opacity="1" x1="1044" y1="690" x2="1129" y2="690" />
</g>
<g>
	<line stroke="black" stroke-opacity="1" x1="1129" y1="690" x2="1129" y2="656" />
	<line stroke="black" stroke-opacity="1" x1="1129" y1="650" x2="1123" y2="656" />
	<line stroke="black" stroke-opacity="1" x1="1129" y1="650" x2="1135" y2="656" />
	<line stroke="black" stroke-opacity="1" x1="1123" y1="656" x2="1135" y2="656" />
</g>
<g>
	<line stroke="black" stroke-opacity="1" x1="1570" y1="249" x2="1569" y2="203" />
</g>
<g>
	<line stroke="black" stroke-opacity="1" x1="1892" y1="489" x2="1892" y2="453" />
</g>
<g>
	<line stroke="black" stroke-opacity="1" x1="1892" y1="453" x2="1805" y2="453" />
</g>
<g>
	<line stroke="black" stroke-opacity="1" x1="1805" y1="453" x2="1805" y2="421" />
	<line stroke="black" stroke-opacity="1" x1="1805" y1="415" x2="1799" y2="421" />
	<line stroke="black" stroke-opacity="1" x1="1805" y1="415" x2="1811" y2="421" />
	<line stroke="black" stroke-opacity="1" x1="1799" y1="421" x2="1811" y2="421" />
</g>
<g>
	<line stroke="black" stroke-opacity="1" x1="1731" y1="489" x2="1731" y2="453" />
</g>
<g>
	<line stroke="black" stroke-opacity="1" x1="1731" y1="453" x2="1805" y2="453" />
</g>
<g>
	<line stroke="black" stroke-opacity="1" x1="1805" y1="453" x2="1805" y2="421" />
	<line stroke="black" stroke-opacity="1" x1="1805" y1="415" x2="1799" y2="421" />
	<line stroke="black" stroke-opacity="1" x1="1805" y1="415" x2="1811" y2="421" />
	<line stroke="black" stroke-opacity="1" x1="1799" y1="421" x2="1811" y2="421" />
</g>
<g>
	<line stroke="black" stroke-opacity="1" x1="1569" y1="203" x2="1396" y2="203" />
</g>
<g>
	<line stroke="black" stroke-opacity="1" x1="1396" y1="203" x2="1396" y2="165" />
	<line stroke="black" stroke-opacity="1" x1="1396" y1="159" x2="1390" y2="165" />
	<line stroke="black" stroke-opacity="1" x1="1396" y1="159" x2="1402" y2="165" />
	<line stroke="black" stroke-opacity="1" x1="1390" y1="165" x2="1402" y2="165" />
</g>
<g>
	<rect fill="#ffffff" stroke="black" stroke-width="1" stroke-opacity="1" x="1175" y="734" width="122" height="30" />
	<text font-family="Helvetica" font-size="14" fill="#000000" xml:space="preserve" font-weight="bold" text-anchor="middle" x="1236" y="749">SimpleChemical</text>
</g>
<g>
	<line stroke="black" stroke-opacity="1" x1="1235" y1="733" x2="1235" y2="692" />
</g>
<g>
	<line stroke="black" stroke-opacity="1" x1="1235" y1="692" x2="1129" y2="692" />
</g>
<g>
	<line stroke="black" stroke-opacity="1" x1="1129" y1="692" x2="1129" y2="656" />
	<line stroke="black" stroke-opacity="1" x1="1129" y1="650" x2="1123" y2="656" />
	<line stroke="black" stroke-opacity="1" x1="1129" y1="650" x2="1135" y2="656" />
	<line stroke="black" stroke-opacity="1" x1="1123" y1="656" x2="1135" y2="656" />
</g>
<g>
	<rect fill="#ffffff" stroke="black" stroke-width="1" stroke-opacity="1" x="289" y="252" width="92" height="30" />
	<text font-family="Helvetica" font-size="14" fill="#000000" xml:space="preserve" font-weight="bold" font-style="italic" text-anchor="middle" x="335" y="267">CloneMarker</text>
</g>
<g>
	<rect fill="#ffffff" stroke="black" stroke-width="1" stroke-opacity="1" x="178" y="253" width="62" height="30" />
	<text font-family="Helvetica" font-size="14" fill="#000000" xml:space="preserve" font-weight="bold" text-anchor="middle" x="209" y="268">Subunit</text>
</g>
<g>
	<rect fill="#ffffff" stroke="black" stroke-width="1" stroke-opacity="1" x="592" y="253" width="88" height="30" />
	<text font-family="Helvetica" font-size="14" fill="#000000" xml:space="preserve" font-weight="bold" text-anchor="middle" x="636" y="268">Annotation</text>
</g>
<g>
	<line stroke="black" stroke-opacity="1" x1="414" y1="390" x2="414" y2="337" />
</g>
<g>
	<line stroke="black" stroke-opacity="1" x1="414" y1="337" x2="335" y2="337" />
</g>
<g>
	<line stroke="black" stroke-opacity="1" x1="335" y1="337" x2="335" y2="288" />
	<line stroke="black" stroke-opacity="1" x1="335" y1="282" x2="329" y2="288" />
	<line stroke="black" stroke-opacity="1" x1="335" y1="282" x2="341" y2="288" />
	<line stroke="black" stroke-opacity="1" x1="329" y1="288" x2="341" y2="288" />
</g>
<g>
	<line stroke="black" stroke-opacity="1" x1="237" y1="390" x2="237" y2="337" />
</g>
<g>
	<line stroke="black" stroke-opacity="1" x1="237" y1="337" x2="335" y2="337" />
</g>
<g>
	<line stroke="black" stroke-opacity="1" x1="335" y1="337" x2="335" y2="288" />
	<line stroke="black" stroke-opacity="1" x1="335" y1="282" x2="329" y2="288" />
	<line stroke="black" stroke-opacity="1" x1="335" y1="282" x2="341" y2="288" />
	<line stroke="black" stroke-opacity="1" x1="329" y1="288" x2="341" y2="288" />
</g>
<g>
	<line stroke="black" stroke-opacity="1" x1="208" y1="252" x2="207" y2="205" />
</g>
<g>
	<line stroke="black" stroke-opacity="1" x1="207" y1="205" x2="543" y2="205" />
</g>
<g>
	<line stroke="black" stroke-opacity="1" x1="543" y1="205" x2="543" y2="165" />
	<line stroke="black" stroke-opacity="1" x1="543" y1="159" x2="537" y2="165" />
	<line stroke="black" stroke-opacity="1" x1="543" y1="159" x2="549" y2="165" />
	<line stroke="black" stroke-opacity="1" x1="537" y1="165" x2="549" y2="165" />
</g>
<g>
	<line stroke="black" stroke-opacity="1" x1="335" y1="251" x2="335" y2="205" />
</g>
<g>
	<line stroke="black" stroke-opacity="1" x1="335" y1="205" x2="543" y2="205" />
</g>
<g>
	<line stroke="black" stroke-opacity="1" x1="543" y1="205" x2="543" y2="165" />
	<line stroke="black" stroke-opacity="1" x1="543" y1="159" x2="537" y2="165" />
	<line stroke="black" stroke-opacity="1" x1="543" y1="159" x2="549" y2="165" />
	<line stroke="black" stroke-opacity="1" x1="537" y1="165" x2="549" y2="165" />
</g>
<g>
	<line stroke="black" stroke-opacity="1" x1="635" y1="252" x2="635" y2="206" />
</g>
<g>
	<line stroke="black" stroke-opacity="1" x1="635" y1="206" x2="543" y2="206" />
</g>
<g>
	<line stroke="black" stroke-opacity="1" x1="543" y1="206" x2="543" y2="165" />
	<line stroke="black" stroke-opacity="1" x1="543" y1="159" x2="537" y2="165" />
	<line stroke="black" stroke-opacity="1" x1="543" y1="159" x2="549" y2="165" />
	<line stroke="black" stroke-opacity="1" x1="537" y1="165" x2="549" y2="165" />
</g>
<g>
	<rect fill="#ffffff" stroke="black" stroke-width="1" stroke-opacity="1" x="887" y="250" width="36" height="30" />
	<text font-family="Helvetica" font-size="14" fill="#000000" xml:space="preserve" font-weight="bold" text-anchor="middle" x="905" y="265">Tag</text>
</g>
<g>
	<rect fill="#ffffff" stroke="black" stroke-width="1" stroke-opacity="1" x="1146" y="251" width="120" height="30" />
	<text font-family="Helvetica" font-size="14" fill="#000000" xml:space="preserve" font-weight="bold" text-anchor="middle" x="1206" y="266">EquivalenceArc</text>
</g>
<g>
	<line stroke="black" stroke-opacity="1" x1="916" y1="249" x2="916" y2="202" />
</g>
<g>
	<line stroke="black" stroke-opacity="1" x1="916" y1="202" x2="1397" y2="202" />
</g>
<g>
	<line stroke="black" stroke-opacity="1" x1="1397" y1="202" x2="1397" y2="165" />
	<line stroke="black" stroke-opacity="1" x1="1397" y1="159" x2="1391" y2="165" />
	<line stroke="black" stroke-opacity="1" x1="1397" y1="159" x2="1403" y2="165" />
	<line stroke="black" stroke-opacity="1" x1="1391" y1="165" x2="1403" y2="165" />
</g>
<g>
	<line stroke="black" stroke-opacity="1" x1="1202" y1="250" x2="1202" y2="203" />
</g>
<g>
	<line stroke="black" stroke-opacity="1" x1="1202" y1="203" x2="1396" y2="203" />
</g>
<g>
	<line stroke="black" stroke-opacity="1" x1="1396" y1="203" x2="1396" y2="165" />
	<line stroke="black" stroke-opacity="1" x1="1396" y1="159" x2="1390" y2="165" />
	<line stroke="black" stroke-opacity="1" x1="1396" y1="159" x2="1402" y2="165" />
	<line stroke="black" stroke-opacity="1" x1="1390" y1="165" x2="1402" y2="165" />
</g>
<g>
	<rect fill="#ffffff" stroke="black" stroke-width="1" stroke-opacity="1" x="779" y="119" width="116" height="30" />
	<text font-family="Helvetica" font-size="14" fill="#000000" xml:space="preserve" font-weight="bold" font-style="italic" text-anchor="middle" x="837" y="134">CrossReference</text>
</g>
<g>
	<line stroke="black" stroke-opacity="1" x1="894" y1="249" x2="894" y2="201" />
</g>
<g>
	<line stroke="black" stroke-opacity="1" x1="894" y1="201" x2="836" y2="201" />
</g>
<g>
	<line stroke="black" stroke-opacity="1" x1="836" y1="201" x2="836" y2="155" />
	<line stroke="black" stroke-opacity="1" x1="836" y1="149" x2="830" y2="155" />
	<line stroke="black" stroke-opacity="1" x1="836" y1="149" x2="842" y2="155" />
	<line stroke="black" stroke-opacity="1" x1="830" y1="155" x2="842" y2="155" />
</g>
<g>
	<rect fill="#ffffff" stroke="black" stroke-width="1" stroke-opacity="1" x="696" y="251" width="124" height="30" />
	<text font-family="Helvetica" font-size="14" fill="#000000" xml:space="preserve" font-weight="bold" text-anchor="middle" x="758" y="266">SubmapTerminal</text>
</g>
<g>
	<line stroke="black" stroke-opacity="1" x1="737" y1="250" x2="737" y2="207" />
</g>
<g>
	<line stroke="black" stroke-opacity="1" x1="737" y1="207" x2="543" y2="207" />
</g>
<g>
	<line stroke="black" stroke-opacity="1" x1="543" y1="207" x2="543" y2="165" />
	<line stroke="black" stroke-opacity="1" x1="543" y1="159" x2="537" y2="165" />
	<line stroke="black" stroke-opacity="1" x1="543" y1="159" x2="549" y2="165" />
	<line stroke="black" stroke-opacity="1" x1="537" y1="165" x2="549" y2="165" />
</g>
<g>
	<line stroke="black" stroke-opacity="1" x1="780" y1="250" x2="780" y2="201" />
</g>
<g>
	<line stroke="black" stroke-opacity="1" x1="780" y1="201" x2="836" y2="201" />
</g>
<g>
	<line stroke="black" stroke-opacity="1" x1="836" y1="201" x2="836" y2="155" />
	<line stroke="black" stroke-opacity="1" x1="836" y1="149" x2="830" y2="155" />
	<line stroke="black" stroke-opacity="1" x1="836" y1="149" x2="842" y2="155" />
	<line stroke="black" stroke-opacity="1" x1="830" y1="155" x2="842" y2="155" />
</g>
<g>
	<rect fill="#ffffff" stroke="black" stroke-width="1" stroke-opacity="1" x="1454" y="604" width="202" height="30" />
	<text font-family="Helvetica" font-size="14" fill="#000000" xml:space="preserve" font-weight="bold" text-anchor="middle" x="1555" y="619">NonStoichiometricProcess</text>
</g>
<g>
	<line stroke="black" stroke-opacity="1" x1="1554" y1="603" x2="1554" y2="501" />
</g>
<g>
	<line stroke="black" stroke-opacity="1" x1="1554" y1="501" x2="1510" y2="501" />
</g>
<g>
	<line stroke="black" stroke-opacity="1" x1="1510" y1="501" x2="1510" y2="406" />
	<line stroke="black" stroke-opacity="1" x1="1510" y1="400" x2="1504" y2="406" />
	<line stroke="black" stroke-opacity="1" x1="1510" y1="400" x2="1516" y2="406" />
	<line stroke="black" stroke-opacity="1" x1="1504" y1="406" x2="1516" y2="406" />
</g>
<g>
	<line stroke="black" stroke-opacity="1" x1="1538" y1="782" x2="1538" y2="708" />
</g>
<g>
	<line stroke="black" stroke-opacity="1" x1="1538" y1="708" x2="1554" y2="708" />
</g>
<g>
	<line stroke="black" stroke-opacity="1" x1="1554" y1="708" x2="1554" y2="640" />
	<line stroke="black" stroke-opacity="1" x1="1554" y1="634" x2="1548" y2="640" />
	<line stroke="black" stroke-opacity="1" x1="1554" y1="634" x2="1560" y2="640" />
	<line stroke="black" stroke-opacity="1" x1="1548" y1="640" x2="1560" y2="640" />
</g>
<g>
	<line stroke="black" stroke-opacity="1" x1="1661" y1="782" x2="1661" y2="708" />
</g>
<g>
	<line stroke="black" stroke-opacity="1" x1="1661" y1="708" x2="1554" y2="708" />
</g>
<g>
	<line stroke="black" stroke-opacity="1" x1="1554" y1="708" x2="1554" y2="640" />
	<line stroke="black" stroke-opacity="1" x1="1554" y1="634" x2="1548" y2="640" />
	<line stroke="black" stroke-opacity="1" x1="1554" y1="634" x2="1560" y2="640" />
	<line stroke="black" stroke-opacity="1" x1="1548" y1="640" x2="1560" y2="640" />
</g>
<g>
	<rect fill="#ffffff" stroke="black" stroke-width="1" stroke-opacity="1" x="1370" y="782" width="102" height="30" />
	<text font-family="Helvetica" font-size="14" fill="#000000" xml:space="preserve" font-weight="bold" text-anchor="middle" x="1421" y="797">SubmapNode</text>
</g>
<g>
	<line stroke="black" stroke-opacity="1" x1="1420" y1="781" x2="1419" y2="708" />
</g>
<g>
	<line stroke="black" stroke-opacity="1" x1="1419" y1="708" x2="1554" y2="708" />
</g>
<g>
	<line stroke="black" stroke-opacity="1" x1="1554" y1="708" x2="1554" y2="640" />
	<line stroke="black" stroke-opacity="1" x1="1554" y1="634" x2="1548" y2="640" />
	<line stroke="black" stroke-opacity="1" x1="1554" y1="634" x2="1560" y2="640" />
	<line stroke="black" stroke-opacity="1" x1="1548" y1="640" x2="1560" y2="640" />
</g>
</svg>
