<?xml version="1.0" encoding="UTF-8" standalone="no"?>
<!-- Created with Bouml (http://bouml.free.fr/) -->
<!DOCTYPE svg PUBLIC "-//W3C//DTD SVG 1.1//EN" "http://www.w3.org/Graphics/SVG/1.1/DTD/svg11.dtd">
<svg width="883" height="391" version="1.1" xmlns="http://www.w3.org/2000/svg">
<g>
	<rect fill="#808080" stroke="none" stroke-opacity="1" x="293" y="129" width="3" height="35" />
	<rect fill="#808080" stroke="none" stroke-opacity="1" x="145" y="161" width="151" height="3" />
	<rect fill="#ffffc0" stroke="black" stroke-width="1" stroke-opacity="1" x="141" y="125" width="152" height="36" />
	<text font-family="Helvetica" font-size="15" fill="#000000" xml:space="preserve" font-weight="bold" text-anchor="middle" x="217" y="142">SimpleCloneMarker</text>
	<line stroke="black" stroke-opacity="1" x1="141" y1="145" x2="293" y2="145" />
	<line stroke="black" stroke-opacity="1" x1="141" y1="153" x2="293" y2="153" />
</g>
<g>
	<rect fill="#808080" stroke="none" stroke-opacity="1" x="636" y="130" width="3" height="35" />
	<rect fill="#808080" stroke="none" stroke-opacity="1" x="538" y="162" width="101" height="3" />
	<rect fill="#ffffc0" stroke="black" stroke-width="1" stroke-opacity="1" x="534" y="126" width="102" height="36" />
	<text font-family="Helvetica" font-size="15" fill="#000000" xml:space="preserve" font-weight="bold" font-style="italic" text-anchor="middle" x="585" y="143">StatelessEPN</text>
	<line stroke="black" stroke-opacity="1" x1="534" y1="146" x2="636" y2="146" />
	<line stroke="black" stroke-opacity="1" x1="534" y1="154" x2="636" y2="154" />
</g>
<g>
	<line stroke="black" stroke-opacity="1" x1="297" y1="145" x2="303" y2="151" />
	<line stroke="black" stroke-opacity="1" x1="297" y1="145" x2="303" y2="139" />
	<line stroke-dasharray="4,4" stroke="black" stroke-opacity="1" x1="533" y1="145" x2="297" y2="145" />
</g>
<g>
	<rect fill="#808080" stroke="none" stroke-opacity="1" x="867" y="343" width="3" height="35" />
	<rect fill="#808080" stroke="none" stroke-opacity="1" x="743" y="375" width="127" height="3" />
	<rect fill="#ffffc0" stroke="black" stroke-width="1" stroke-opacity="1" x="739" y="339" width="128" height="36" />
	<text font-family="Helvetica" font-size="15" fill="#000000" xml:space="preserve" font-weight="bold" text-anchor="middle" x="803" y="356">PerturbingAgent</text>
	<line stroke="black" stroke-opacity="1" x1="739" y1="359" x2="867" y2="359" />
	<line stroke="black" stroke-opacity="1" x1="739" y1="367" x2="867" y2="367" />
</g>
<g>
	<rect fill="#808080" stroke="none" stroke-opacity="1" x="437" y="342" width="3" height="35" />
	<rect fill="#808080" stroke="none" stroke-opacity="1" x="313" y="374" width="127" height="3" />
	<rect fill="#ffffc0" stroke="black" stroke-width="1" stroke-opacity="1" x="309" y="338" width="128" height="36" />
	<text font-family="Helvetica" font-size="15" fill="#000000" xml:space="preserve" font-weight="bold" text-anchor="middle" x="373" y="355">SimpleChemical</text>
	<line stroke="black" stroke-opacity="1" x1="309" y1="358" x2="437" y2="358" />
	<line stroke="black" stroke-opacity="1" x1="309" y1="366" x2="437" y2="366" />
</g>
<g>
	<rect fill="#808080" stroke="none" stroke-opacity="1" x="653" y="342" width="3" height="35" />
	<rect fill="#808080" stroke="none" stroke-opacity="1" x="521" y="374" width="135" height="3" />
	<rect fill="#ffffc0" stroke="black" stroke-width="1" stroke-opacity="1" x="517" y="338" width="136" height="36" />
	<text font-family="Helvetica" font-size="15" fill="#000000" xml:space="preserve" font-weight="bold" text-anchor="middle" x="585" y="355">UnspecifiedEntity</text>
	<line stroke="black" stroke-opacity="1" x1="517" y1="358" x2="653" y2="358" />
	<line stroke="black" stroke-opacity="1" x1="517" y1="366" x2="653" y2="366" />
</g>
<g>
	<line stroke="black" stroke-opacity="1" x1="374" y1="337" x2="374" y2="252" />
</g>
<g>
	<line stroke="black" stroke-opacity="1" x1="587" y1="337" x2="587" y2="252" />
</g>
<g>
	<line stroke="black" stroke-opacity="1" x1="805" y1="338" x2="805" y2="252" />
</g>
<g>
	<line stroke="black" stroke-opacity="1" x1="805" y1="252" x2="587" y2="252" />
</g>
<g>
	<line stroke="black" stroke-opacity="1" x1="374" y1="252" x2="587" y2="252" />
</g>
<g>
	<line stroke="black" stroke-opacity="1" x1="587" y1="252" x2="587" y2="172" />
	<line stroke="black" stroke-opacity="1" x1="587" y1="166" x2="581" y2="172" />
	<line stroke="black" stroke-opacity="1" x1="587" y1="166" x2="593" y2="172" />
	<line stroke="black" stroke-opacity="1" x1="581" y1="172" x2="593" y2="172" />
</g>
<g>
	<line stroke="black" stroke-opacity="1" x1="587" y1="252" x2="587" y2="172" />
	<line stroke="black" stroke-opacity="1" x1="587" y1="166" x2="581" y2="172" />
	<line stroke="black" stroke-opacity="1" x1="587" y1="166" x2="593" y2="172" />
	<line stroke="black" stroke-opacity="1" x1="581" y1="172" x2="593" y2="172" />
</g>
<g>
	<line stroke="black" stroke-opacity="1" x1="587" y1="252" x2="587" y2="172" />
	<line stroke="black" stroke-opacity="1" x1="587" y1="166" x2="581" y2="172" />
	<line stroke="black" stroke-opacity="1" x1="587" y1="166" x2="593" y2="172" />
	<line stroke="black" stroke-opacity="1" x1="581" y1="172" x2="593" y2="172" />
</g>
</svg>
