<?xml version="1.0" encoding="UTF-8" standalone="no"?>
<!-- Created with Bouml (http://bouml.free.fr/) -->
<!DOCTYPE svg PUBLIC "-//W3C//DTD SVG 1.1//EN" "http://www.w3.org/Graphics/SVG/1.1/DTD/svg11.dtd">
<svg width="917" height="500" version="1.1" xmlns="http://www.w3.org/2000/svg">
<g>
	<rect fill="#808080" stroke="none" stroke-opacity="1" x="206" y="328" width="3" height="35" />
	<rect fill="#808080" stroke="none" stroke-opacity="1" x="94" y="360" width="115" height="3" />
	<rect fill="#ffffff" stroke="black" stroke-width="1" stroke-opacity="1" x="90" y="324" width="116" height="36" />
	<text font-family="Helvetica" font-size="15" fill="#000000" xml:space="preserve" font-weight="bold" text-anchor="middle" x="148" y="341">ModulationArc</text>
	<line stroke="black" stroke-opacity="1" x1="90" y1="344" x2="206" y2="344" />
	<line stroke="black" stroke-opacity="1" x1="90" y1="352" x2="206" y2="352" />
</g>
<g>
	<rect fill="#808080" stroke="none" stroke-opacity="1" x="492" y="325" width="3" height="47" />
	<rect fill="#808080" stroke="none" stroke-opacity="1" x="320" y="369" width="175" height="3" />
	<rect fill="#ffffff" stroke="black" stroke-width="1" stroke-opacity="1" x="316" y="321" width="176" height="48" />
	<text font-family="Helvetica" font-size="15" fill="#000000" xml:space="preserve" font-weight="bold" text-anchor="middle" x="404" y="338">StoichiometricProcess</text>
	<line stroke="black" stroke-opacity="1" x1="316" y1="341" x2="492" y2="341" />
	<text font-family="Helvetica" font-size="15" fill="#000000" xml:space="preserve" x="320" y="358">process_type : enum</text>
	<line stroke="black" stroke-opacity="1" x1="316" y1="361" x2="492" y2="361" />
</g>
<g>
	<rect fill="#808080" stroke="none" stroke-opacity="1" x="901" y="452" width="3" height="35" />
	<rect fill="#808080" stroke="none" stroke-opacity="1" x="771" y="484" width="133" height="3" />
	<rect fill="#ffffff" stroke="black" stroke-width="1" stroke-opacity="1" x="767" y="448" width="134" height="36" />
	<text font-family="Helvetica" font-size="15" fill="#000000" xml:space="preserve" font-weight="bold" text-anchor="middle" x="834" y="465">ConsumptionArc</text>
	<line stroke="black" stroke-opacity="1" x1="767" y1="468" x2="901" y2="468" />
	<line stroke="black" stroke-opacity="1" x1="767" y1="476" x2="901" y2="476" />
</g>
<g>
	<line stroke="black" stroke-opacity="1" x1="210" y1="344" x2="215" y2="350" />
	<line stroke="black" stroke-opacity="1" x1="210" y1="344" x2="216" y2="338" />
	<line stroke-dasharray="4,4" stroke="black" stroke-opacity="1" x1="315" y1="345" x2="210" y2="344" />
</g>
<g>
	<rect fill="#808080" stroke="none" stroke-opacity="1" x="686" y="451" width="3" height="35" />
	<rect fill="#808080" stroke="none" stroke-opacity="1" x="574" y="483" width="115" height="3" />
	<rect fill="#ffffff" stroke="black" stroke-width="1" stroke-opacity="1" x="570" y="447" width="116" height="36" />
	<text font-family="Helvetica" font-size="15" fill="#000000" xml:space="preserve" font-weight="bold" text-anchor="middle" x="628" y="464">ProductionArc</text>
	<line stroke="black" stroke-opacity="1" x1="570" y1="467" x2="686" y2="467" />
	<line stroke="black" stroke-opacity="1" x1="570" y1="475" x2="686" y2="475" />
</g>
<g>
	<rect fill="#808080" stroke="none" stroke-opacity="1" x="456" y="224" width="3" height="35" />
	<rect fill="#808080" stroke="none" stroke-opacity="1" x="358" y="256" width="101" height="3" />
	<rect fill="#ffffff" stroke="black" stroke-width="1" stroke-opacity="1" x="354" y="220" width="102" height="36" />
	<text font-family="Helvetica" font-size="15" fill="#000000" xml:space="preserve" font-weight="bold" font-style="italic" text-anchor="middle" x="405" y="237">ProcessNode</text>
	<line stroke="black" stroke-opacity="1" x1="354" y1="240" x2="456" y2="240" />
	<line stroke="black" stroke-opacity="1" x1="354" y1="248" x2="456" y2="248" />
</g>
<g>
	<line stroke="black" stroke-opacity="1" x1="406" y1="320" x2="406" y2="266" />
	<line stroke="black" stroke-opacity="1" x1="406" y1="260" x2="400" y2="266" />
	<line stroke="black" stroke-opacity="1" x1="406" y1="260" x2="412" y2="266" />
	<line stroke="black" stroke-opacity="1" x1="400" y1="266" x2="412" y2="266" />
</g>
<g>
	<rect fill="#808080" stroke="none" stroke-opacity="1" x="763" y="329" width="3" height="35" />
	<rect fill="#808080" stroke="none" stroke-opacity="1" x="705" y="361" width="61" height="3" />
	<rect fill="#ffffff" stroke="black" stroke-width="1" stroke-opacity="1" x="701" y="325" width="62" height="36" />
	<text font-family="Helvetica" font-size="15" fill="#000000" xml:space="preserve" font-weight="bold" font-style="italic" text-anchor="middle" x="732" y="342">FluxArc</text>
	<line stroke="black" stroke-opacity="1" x1="701" y1="345" x2="763" y2="345" />
	<line stroke="black" stroke-opacity="1" x1="701" y1="353" x2="763" y2="353" />
</g>
<g>
	<line stroke="black" stroke-opacity="1" x1="836" y1="447" x2="836" y2="406" />
</g>
<g>
	<line stroke="black" stroke-opacity="1" x1="629" y1="446" x2="629" y2="406" />
</g>
<g>
	<line stroke="black" stroke-opacity="1" x1="700" y1="345" x2="693" y2="339" />
	<line stroke="black" stroke-opacity="1" x1="700" y1="345" x2="694" y2="351" />
	<line stroke-dasharray="4,4" stroke="black" stroke-opacity="1" x1="496" y1="346" x2="700" y2="345" />
</g>
<g>
	<line stroke="black" stroke-opacity="1" x1="836" y1="406" x2="734" y2="406" />
</g>
<g>
	<line stroke="black" stroke-opacity="1" x1="629" y1="406" x2="734" y2="406" />
</g>
<g>
	<line stroke="black" stroke-opacity="1" x1="734" y1="406" x2="734" y2="371" />
	<line stroke="black" stroke-opacity="1" x1="734" y1="365" x2="728" y2="371" />
	<line stroke="black" stroke-opacity="1" x1="734" y1="365" x2="740" y2="371" />
	<line stroke="black" stroke-opacity="1" x1="728" y1="371" x2="740" y2="371" />
</g>
<g>
	<line stroke="black" stroke-opacity="1" x1="734" y1="406" x2="734" y2="371" />
	<line stroke="black" stroke-opacity="1" x1="734" y1="365" x2="728" y2="371" />
	<line stroke="black" stroke-opacity="1" x1="734" y1="365" x2="740" y2="371" />
	<line stroke="black" stroke-opacity="1" x1="728" y1="371" x2="740" y2="371" />
</g>
</svg>
