<?xml version="1.0" encoding="UTF-8" standalone="no"?>
<svg
   xmlns:dc="http://purl.org/dc/elements/1.1/"
   xmlns:cc="http://creativecommons.org/ns#"
   xmlns:rdf="http://www.w3.org/1999/02/22-rdf-syntax-ns#"
   xmlns:svg="http://www.w3.org/2000/svg"
   xmlns="http://www.w3.org/2000/svg"
   xmlns:sodipodi="http://sodipodi.sourceforge.net/DTD/sodipodi-0.dtd"
   xmlns:inkscape="http://www.inkscape.org/namespaces/inkscape"
   fill-opacity="1"
   color-rendering="auto"
   color-interpolation="auto"
   text-rendering="auto"
   stroke="black"
   stroke-linecap="square"
   width="1113"
   stroke-miterlimit="10"
   shape-rendering="auto"
   stroke-opacity="1"
   fill="black"
   stroke-dasharray="none"
   font-weight="normal"
   stroke-width="1"
   height="433"
   font-family="'Dialog'"
   font-style="normal"
   stroke-linejoin="miter"
   font-size="12px"
   stroke-dashoffset="0"
   image-rendering="auto"
   version="1.1"
   id="svg17755"
   sodipodi:docname="compartment_overlapping.inkscape.svg"
   inkscape:version="0.92.2 2405546, 2018-03-11">
  <metadata
     id="metadata17759">
    <rdf:RDF>
      <cc:Work
         rdf:about="">
        <dc:format>image/svg+xml</dc:format>
        <dc:type
           rdf:resource="http://purl.org/dc/dcmitype/StillImage" />
        <dc:title></dc:title>
      </cc:Work>
    </rdf:RDF>
  </metadata>
  <sodipodi:namedview
     pagecolor="#ffffff"
     bordercolor="#666666"
     borderopacity="1"
     objecttolerance="10"
     gridtolerance="10"
     guidetolerance="10"
     inkscape:pageopacity="0"
     inkscape:pageshadow="2"
     inkscape:window-width="1916"
     inkscape:window-height="1098"
     id="namedview17757"
     showgrid="false"
     inkscape:zoom="1.2111411"
     inkscape:cx="629.9062"
     inkscape:cy="200.89106"
     inkscape:window-x="1920"
     inkscape:window-y="100"
     inkscape:window-maximized="0"
     inkscape:current-layer="svg17755" />
  <!--Generated by the Batik Graphics2D SVG Generator-->
  <defs
     id="genericDefs">
    <defs
       id="defs1">
      <clipPath
         id="clipPath1"
         clipPathUnits="userSpaceOnUse">
        <path
           id="path17670"
           d="M0 0 L1228 0 L1228 971 L0 971 L0 0 Z" />
      </clipPath>
      <clipPath
         id="clipPath2"
         clipPathUnits="userSpaceOnUse">
        <path
           id="path17673"
           d="M0 0 L0 356 L266 356 L266 0 Z" />
      </clipPath>
      <clipPath
         id="clipPath3"
         clipPathUnits="userSpaceOnUse">
        <path
           id="path17676"
           d="M0 0 L0 19 L45 19 L45 0 Z" />
      </clipPath>
      <clipPath
         id="clipPath4"
         clipPathUnits="userSpaceOnUse">
        <path
           id="path17679"
           d="M0 0 L0 18 L44 18 L44 0 Z" />
      </clipPath>
      <clipPath
         id="clipPath5"
         clipPathUnits="userSpaceOnUse">
        <path
           id="path17682"
           d="M0 0 L0 236 L376 236 L376 0 Z" />
      </clipPath>
      <clipPath
         id="clipPath6"
         clipPathUnits="userSpaceOnUse">
        <path
           id="path17685"
           d="M0 0 L0 246 L196 246 L196 0 Z" />
      </clipPath>
      <clipPath
         id="clipPath7"
         clipPathUnits="userSpaceOnUse">
        <path
           id="path17688"
           d="M0 0 L0 305 L194 305 L194 0 Z" />
      </clipPath>
      <clipPath
         id="clipPath8"
         clipPathUnits="userSpaceOnUse">
        <path
           id="path17691"
           d="M0 0 L0 206 L246 206 L246 0 Z" />
      </clipPath>
      <clipPath
         id="clipPath9"
         clipPathUnits="userSpaceOnUse">
        <path
           id="path17694"
           d="M0 0 L0 19 L41 19 L41 0 Z" />
      </clipPath>
      <clipPath
         id="clipPath10"
         clipPathUnits="userSpaceOnUse">
        <path
           id="path17697"
           d="M0 0 L0 18 L40 18 L40 0 Z" />
      </clipPath>
    </defs>
  </defs>
  <g
     style="font-size:14.5067997px;font-family:Cantarell;fill:#ffffff;stroke:#ffffff;stroke-width:4;stroke-linecap:round;stroke-linejoin:round;image-rendering:optimizeQuality;text-rendering:optimizeLegibility"
     id="g17705"
     transform="translate(111,52)"
     font-size="14.5068px">
    <path
       style="stroke:none"
       inkscape:connector-curvature="0"
       id="path17701"
       clip-path="url(#clipPath2)"
       d="m 2,32 v 290 c 0,16.5685 13.4315,30 30,30 h 200 c 16.5685,0 30,-13.4315 30,-30 V 32 C 262,15.4315 248.5685,2 232,2 H 32 C 15.4315,2 2,15.4315 2,32 Z" />
    <path
       style="fill:none;stroke:#000000"
       inkscape:connector-curvature="0"
       id="path17703"
       clip-path="url(#clipPath2)"
       d="m 2,32 v 290 c 0,16.5685 13.4315,30 30,30 h 200 c 16.5685,0 30,-13.4315 30,-30 V 32 C 262,15.4315 248.5685,2 232,2 H 32 C 15.4315,2 2,15.4315 2,32 Z" />
  </g>
  <g
     style="font-family:Arial;image-rendering:optimizeQuality;text-rendering:optimizeLegibility"
     id="g17709"
     transform="translate(221,58)">
    <text
       style="stroke:none"
       id="text17707"
       clip-path="url(#clipPath4)"
       y="13"
       xml:space="preserve"
       x="6">CYTO</text>
  </g>
  <g
     style="font-size:14.5067997px;font-family:Cantarell;fill:#ffffff;stroke:#ffffff;stroke-width:4;stroke-linecap:round;stroke-linejoin:round;image-rendering:optimizeQuality;text-rendering:optimizeLegibility"
     id="g17715"
     transform="translate(607,72)"
     font-size="14.5068px">
    <path
       style="stroke:none"
       inkscape:connector-curvature="0"
       id="path17711"
       clip-path="url(#clipPath5)"
       d="m 2,32 v 170 c 0,16.5685 13.4315,30 30,30 h 310 c 16.5685,0 30,-13.4315 30,-30 V 32 C 372,15.4315 358.5685,2 342,2 H 32 C 15.4315,2 2,15.4315 2,32 Z" />
    <path
       style="fill:none;stroke:#000000"
       inkscape:connector-curvature="0"
       id="path17713"
       clip-path="url(#clipPath5)"
       d="m 2,32 v 170 c 0,16.5685 13.4315,30 30,30 h 310 c 16.5685,0 30,-13.4315 30,-30 V 32 C 372,15.4315 358.5685,2 342,2 H 32 C 15.4315,2 2,15.4315 2,32 Z" />
  </g>
  <g
     style="font-family:Arial;image-rendering:optimizeQuality;text-rendering:optimizeLegibility"
     id="g17719"
     transform="translate(772,78)">
    <text
       style="stroke:none"
       id="text17717"
       clip-path="url(#clipPath4)"
       y="13"
       xml:space="preserve"
       x="6">CYTO</text>
  </g>
  <g
     style="font-size:14.5067997px;font-family:Cantarell;fill:#ffffff;stroke:#ffffff;stroke-width:4;stroke-linecap:round;stroke-linejoin:round;image-rendering:optimizeQuality;text-rendering:optimizeLegibility"
     id="g17725"
     transform="translate(267,107)"
     font-size="14.5068px">
    <path
       style="stroke:none"
       inkscape:connector-curvature="0"
       id="path17721"
       clip-path="url(#clipPath6)"
       d="m 2,32 v 180 c 0,16.5685 13.4315,30 30,30 h 130 c 16.5685,0 30,-13.4315 30,-30 V 32 C 192,15.4315 178.5685,2 162,2 H 32 C 15.4315,2 2,15.4315 2,32 Z" />
    <path
       style="fill:none;stroke:#000000"
       inkscape:connector-curvature="0"
       id="path17723"
       clip-path="url(#clipPath6)"
       d="m 2,32 v 180 c 0,16.5685 13.4315,30 30,30 h 130 c 16.5685,0 30,-13.4315 30,-30 V 32 C 192,15.4315 178.5685,2 162,2 H 32 C 15.4315,2 2,15.4315 2,32 Z" />
  </g>
  <g
     style="font-size:14.5067997px;font-family:Cantarell;fill:#ffffff;stroke:#ffffff;stroke-width:2.5;stroke-linecap:round;stroke-linejoin:round;image-rendering:optimizeQuality;text-rendering:optimizeLegibility"
     id="g17731"
     transform="translate(375,88)"
     font-size="14.5068px">
    <path
       style="stroke:none"
       inkscape:connector-curvature="0"
       id="path17727"
       clip-path="url(#clipPath7)"
       d="M 1,1 H 191 V 302 H 1 Z" />
    <path
       style="fill:none;stroke:#fefefe"
       inkscape:connector-curvature="0"
       id="path17729"
       clip-path="url(#clipPath7)"
       d="M 1,1 H 191 V 302 H 1 Z" />
  </g>
  <g
     style="font-size:14.5067997px;font-family:Cantarell;fill:#ffffff;stroke:#ffffff;stroke-width:4;stroke-linecap:round;stroke-linejoin:round;image-rendering:optimizeQuality;text-rendering:optimizeLegibility;fill-opacity:0.39215687"
     id="g17737"
     transform="translate(802,182)"
     font-size="14.5068px">
    <path
       style="stroke:none;fill:#ffffff;fill-opacity:0.39215687"
       inkscape:connector-curvature="0"
       id="path17733"
       clip-path="url(#clipPath8)"
       d="m 2,32 v 140 c 0,16.5685 13.4315,30 30,30 h 180 c 16.5685,0 30,-13.4315 30,-30 V 32 C 242,15.4315 228.5685,2 212,2 H 32 C 15.4315,2 2,15.4315 2,32 Z" />
    <path
       style="fill:#ffffff;stroke:#000000;fill-opacity:0.39215687"
       inkscape:connector-curvature="0"
       id="path17735"
       clip-path="url(#clipPath8)"
       d="m 2,32 v 140 c 0,16.5685 13.4315,30 30,30 h 180 c 16.5685,0 30,-13.4315 30,-30 V 32 C 242,15.4315 228.5685,2 212,2 H 32 C 15.4315,2 2,15.4315 2,32 Z" />
  </g>
  <g
     style="font-family:Arial;image-rendering:optimizeQuality;text-rendering:optimizeLegibility"
     id="g17741"
     transform="translate(904,362)">
    <text
       style="stroke:none"
       id="text17739"
       clip-path="url(#clipPath10)"
       y="13"
       xml:space="preserve"
       x="6">MITO</text>
  </g>
  <g
     style="font-size:14.5067997px;font-family:Cantarell;fill:#ffffff;stroke:#ffffff;stroke-width:4;stroke-linecap:round;stroke-linejoin:round;image-rendering:optimizeQuality;text-rendering:optimizeLegibility"
     id="g17747"
     transform="translate(287,127)"
     font-size="14.5068px">
    <path
       style="stroke:none"
       inkscape:connector-curvature="0"
       id="path17743"
       clip-path="url(#clipPath8)"
       d="m 2,32 v 140 c 0,16.5685 13.4315,30 30,30 h 180 c 16.5685,0 30,-13.4315 30,-30 V 32 C 242,15.4315 228.5685,2 212,2 H 32 C 15.4315,2 2,15.4315 2,32 Z" />
    <path
       style="fill:none;stroke:#000000"
       inkscape:connector-curvature="0"
       id="path17745"
       clip-path="url(#clipPath8)"
       d="m 2,32 v 140 c 0,16.5685 13.4315,30 30,30 h 180 c 16.5685,0 30,-13.4315 30,-30 V 32 C 242,15.4315 228.5685,2 212,2 H 32 C 15.4315,2 2,15.4315 2,32 Z" />
  </g>
  <g
     style="font-family:Arial;image-rendering:optimizeQuality;text-rendering:optimizeLegibility"
     id="g17751"
     transform="translate(389,307)">
    <text
       style="stroke:none"
       id="text17749"
       clip-path="url(#clipPath10)"
       y="13"
       xml:space="preserve"
       x="6">MITO</text>
  </g>
</svg>
