<?xml version="1.0" encoding="UTF-8" standalone="no"?>
<svg
   xmlns:dc="http://purl.org/dc/elements/1.1/"
   xmlns:cc="http://creativecommons.org/ns#"
   xmlns:rdf="http://www.w3.org/1999/02/22-rdf-syntax-ns#"
   xmlns:svg="http://www.w3.org/2000/svg"
   xmlns="http://www.w3.org/2000/svg"
   xmlns:xlink="http://www.w3.org/1999/xlink"
   xmlns:sodipodi="http://sodipodi.sourceforge.net/DTD/sodipodi-0.dtd"
   xmlns:inkscape="http://www.inkscape.org/namespaces/inkscape"
   fill-opacity="1"
   color-rendering="auto"
   color-interpolation="auto"
   text-rendering="auto"
   stroke="black"
   stroke-linecap="square"
   width="442"
   stroke-miterlimit="10"
   shape-rendering="auto"
   stroke-opacity="1"
   fill="black"
   stroke-dasharray="none"
   font-weight="normal"
   stroke-width="1"
   height="95"
   font-family="'Dialog'"
   font-style="normal"
   stroke-linejoin="miter"
   font-size="12px"
   stroke-dashoffset="0"
   image-rendering="auto"
   version="1.1"
   id="svg1168"
   sodipodi:docname="labeledCloneMarker.svg"
   inkscape:version="0.92.4 5da689c313, 2019-01-14">
  <metadata
     id="metadata1172">
    <rdf:RDF>
      <cc:Work
         rdf:about="">
        <dc:format>image/svg+xml</dc:format>
        <dc:type
           rdf:resource="http://purl.org/dc/dcmitype/StillImage" />
        <dc:title></dc:title>
      </cc:Work>
    </rdf:RDF>
  </metadata>
  <sodipodi:namedview
     pagecolor="#ffffff"
     bordercolor="#666666"
     borderopacity="1"
     objecttolerance="10"
     gridtolerance="10"
     guidetolerance="10"
     inkscape:pageopacity="0"
     inkscape:pageshadow="2"
     inkscape:window-width="1916"
     inkscape:window-height="1120"
     id="namedview1170"
     showgrid="false"
     inkscape:zoom="11.313709"
     inkscape:cx="438.44497"
     inkscape:cy="21.819337"
     inkscape:window-x="1920"
     inkscape:window-y="78"
     inkscape:window-maximized="0"
     inkscape:current-layer="svg1168" />
  <!--Generated by the Batik Graphics2D SVG Generator-->
  <defs
     id="genericDefs">
    <linearGradient
       inkscape:collect="always"
       xlink:href="#linearGradient1"
       id="linearGradient1174"
       gradientUnits="userSpaceOnUse"
       x1="0"
       y1="40"
       x2="0"
       y2="40.006"
       spreadMethod="pad" />
    <linearGradient
       inkscape:collect="always"
       xlink:href="#linearGradient1"
       id="linearGradient1176"
       gradientUnits="userSpaceOnUse"
       x1="0"
       y1="40"
       x2="0"
       y2="40.006"
       spreadMethod="pad" />
    <linearGradient
       inkscape:collect="always"
       xlink:href="#linearGradient1"
       id="linearGradient1178"
       gradientUnits="userSpaceOnUse"
       x1="0"
       y1="40"
       x2="0"
       y2="40.006"
       spreadMethod="pad" />
    <linearGradient
       inkscape:collect="always"
       xlink:href="#linearGradient2"
       id="linearGradient1182"
       gradientUnits="userSpaceOnUse"
       x1="0"
       y1="40"
       x2="0"
       y2="40.006"
       spreadMethod="pad" />
    <linearGradient
       inkscape:collect="always"
       xlink:href="#linearGradient2"
       id="linearGradient1184"
       gradientUnits="userSpaceOnUse"
       x1="0"
       y1="40"
       x2="0"
       y2="40.006"
       spreadMethod="pad" />
    <defs
       id="defs1">
      <linearGradient
         spreadMethod="pad"
         id="linearGradient1"
         y2="40.006"
         y1="40"
         x2="0"
         gradientUnits="userSpaceOnUse"
         x1="0">
        <stop
           id="stop1005"
           offset="0%"
           stop-color="white"
           stop-opacity="1" />
        <stop
           id="stop1007"
           offset="100%"
           stop-color="black"
           stop-opacity="1" />
      </linearGradient>
      <linearGradient
         spreadMethod="pad"
         id="linearGradient2"
         y2="40.006"
         y1="40"
         x2="0"
         gradientUnits="userSpaceOnUse"
         x1="0">
        <stop
           id="stop1010"
           offset="0%"
           stop-color="white"
           stop-opacity="1" />
        <stop
           id="stop1012"
           offset="100%"
           stop-color="black"
           stop-opacity="1" />
      </linearGradient>
      <linearGradient
         spreadMethod="pad"
         id="linearGradient3"
         y2="40.006"
         y1="40"
         x2="0"
         gradientUnits="userSpaceOnUse"
         x1="0">
        <stop
           id="stop1015"
           offset="0%"
           stop-color="white"
           stop-opacity="1" />
        <stop
           id="stop1017"
           offset="100%"
           stop-color="black"
           stop-opacity="1" />
      </linearGradient>
      <clipPath
         id="clipPath1"
         clipPathUnits="userSpaceOnUse">
        <path
           id="path1020"
           d="M0 0 L542 0 L542 334 L0 334 L0 0 Z" />
      </clipPath>
      <clipPath
         id="clipPath2"
         clipPathUnits="userSpaceOnUse">
        <path
           id="path1023"
           d="M0 0 L0 75 L123 75 L123 0 Z" />
      </clipPath>
      <clipPath
         id="clipPath3"
         clipPathUnits="userSpaceOnUse">
        <path
           id="path1026"
           d="M0 0 L0 27 L72 27 L72 0 Z" />
      </clipPath>
      <clipPath
         id="clipPath4"
         clipPathUnits="userSpaceOnUse">
        <path
           id="path1029"
           d="M0 0 L0 26 L71 26 L71 0 Z" />
      </clipPath>
      <clipPath
         id="clipPath5"
         clipPathUnits="userSpaceOnUse">
        <path
           id="path1032"
           d="M0 0 L0 18 L33 18 L33 0 Z" />
      </clipPath>
      <clipPath
         id="clipPath6"
         clipPathUnits="userSpaceOnUse">
        <path
           id="path1035"
           d="M0 0 L0 17 L32 17 L32 0 Z" />
      </clipPath>
      <clipPath
         id="clipPath7"
         clipPathUnits="userSpaceOnUse">
        <path
           id="path1038"
           d="M0 0 L0 16 L55 16 L55 0 Z" />
      </clipPath>
      <clipPath
         id="clipPath8"
         clipPathUnits="userSpaceOnUse">
        <path
           id="path1041"
           d="M0 0 L0 15 L54 15 L54 0 Z" />
      </clipPath>
      <clipPath
         id="clipPath9"
         clipPathUnits="userSpaceOnUse">
        <path
           id="path1044"
           d="M0 0 L0 19 L60 19 L60 0 Z" />
      </clipPath>
      <clipPath
         id="clipPath10"
         clipPathUnits="userSpaceOnUse">
        <path
           id="path1047"
           d="M0 0 L0 18 L59 18 L59 0 Z" />
      </clipPath>
      <clipPath
         id="clipPath11"
         clipPathUnits="userSpaceOnUse">
        <path
           id="path1050"
           d="M0 0 L0 64 L112 64 L112 0 Z" />
      </clipPath>
      <clipPath
         id="clipPath12"
         clipPathUnits="userSpaceOnUse">
        <path
           id="path1053"
           d="M0 0 L0 18 L41 18 L41 0 Z" />
      </clipPath>
      <clipPath
         id="clipPath13"
         clipPathUnits="userSpaceOnUse">
        <path
           id="path1056"
           d="M0 0 L0 17 L40 17 L40 0 Z" />
      </clipPath>
    </defs>
    <clipPath
       id="clipPath10-7"
       clipPathUnits="userSpaceOnUse">
      <path
         inkscape:connector-curvature="0"
         id="path1673"
         d="M 0,0 V 18 H 59 V 0 Z" />
    </clipPath>
    <clipPath
       id="clipPath2464"
       clipPathUnits="userSpaceOnUse">
      <path
         inkscape:connector-curvature="0"
         id="path2462"
         d="M 0,0 V 18 H 59 V 0 Z" />
    </clipPath>
    <clipPath
       id="clipPath2468"
       clipPathUnits="userSpaceOnUse">
      <path
         inkscape:connector-curvature="0"
         id="path2466"
         d="M 0,0 V 18 H 59 V 0 Z" />
    </clipPath>
    <clipPath
       id="clipPath8-3"
       clipPathUnits="userSpaceOnUse">
      <path
         inkscape:connector-curvature="0"
         id="path1667"
         d="M 0,0 V 15 H 54 V 0 Z" />
    </clipPath>
    <clipPath
       id="clipPath13-2"
       clipPathUnits="userSpaceOnUse">
      <path
         inkscape:connector-curvature="0"
         id="path1682"
         d="M 0,0 V 17 H 40 V 0 Z" />
    </clipPath>
    <clipPath
       id="clipPath2476"
       clipPathUnits="userSpaceOnUse">
      <path
         inkscape:connector-curvature="0"
         id="path2474"
         d="M 0,0 V 17 H 40 V 0 Z" />
    </clipPath>
    <clipPath
       id="clipPath2480"
       clipPathUnits="userSpaceOnUse">
      <path
         inkscape:connector-curvature="0"
         id="path2478"
         d="M 0,0 V 17 H 40 V 0 Z" />
    </clipPath>
    <clipPath
       id="clipPath4-6"
       clipPathUnits="userSpaceOnUse">
      <path
         inkscape:connector-curvature="0"
         id="path1655"
         d="M 0,0 V 26 H 71 V 0 Z" />
    </clipPath>
    <linearGradient
       inkscape:collect="always"
       xlink:href="#linearGradient3"
       id="linearGradient2359"
       gradientUnits="userSpaceOnUse"
       x1="0"
       y1="40"
       x2="0"
       y2="40.006001"
       spreadMethod="pad" />
    <linearGradient
       spreadMethod="pad"
       id="linearGradient2597"
       y2="40.006001"
       y1="40"
       x2="0"
       gradientUnits="userSpaceOnUse"
       x1="0">
      <stop
         id="stop1641"
         offset="0%"
         stop-color="white"
         stop-opacity="1" />
      <stop
         id="stop1643"
         offset="100%"
         stop-color="black"
         stop-opacity="1" />
    </linearGradient>
    <clipPath
       id="clipPath11-5"
       clipPathUnits="userSpaceOnUse">
      <path
         inkscape:connector-curvature="0"
         id="path1676"
         d="M 0,0 V 64 H 112 V 0 Z" />
    </clipPath>
    <clipPath
       id="clipPath2506"
       clipPathUnits="userSpaceOnUse">
      <path
         inkscape:connector-curvature="0"
         id="path2504"
         d="M 0,0 V 64 H 112 V 0 Z" />
    </clipPath>
    <linearGradient
       inkscape:collect="always"
       xlink:href="#linearGradient3"
       id="linearGradient2620"
       gradientUnits="userSpaceOnUse"
       x1="0"
       y1="40"
       x2="0"
       y2="40.006001"
       spreadMethod="pad" />
  </defs>
  <g
     style="font-size:14.5067997px;font-family:Cantarell;fill:url(#linearGradient1178);stroke:#acacac;stroke-width:2;stroke-linecap:round;stroke-linejoin:round;image-rendering:optimizeQuality;text-rendering:optimizeLegibility;stroke-opacity:1"
     id="g1068"
     transform="translate(319,20)"
     font-size="14.5068px">
    <path
       inkscape:connector-curvature="0"
       style="fill:url(#linearGradient1174);stroke:#acacac;stroke-opacity:1"
       id="path1060"
       clip-path="url(#clipPath2)"
       d="m 11,18.5 v 45 c 0,4.1421 3.3579,7.5 7.5,7.5 h 93 c 4.1421,0 7.5,-3.3579 7.5,-7.5 v -45 c 0,-4.1421 -3.3579,-7.5 -7.5,-7.5 h -93 C 14.3579,11 11,14.3579 11,18.5 Z" />
    <path
       style="fill:none;stroke:#acacac;stroke-opacity:1"
       inkscape:connector-curvature="0"
       id="path1062"
       clip-path="url(#clipPath2)"
       d="m 11,18.5 v 45 c 0,4.1421 3.3579,7.5 7.5,7.5 h 93 c 4.1421,0 7.5,-3.3579 7.5,-7.5 v -45 c 0,-4.1421 -3.3579,-7.5 -7.5,-7.5 h -93 C 14.3579,11 11,14.3579 11,18.5 Z" />
    <path
       inkscape:connector-curvature="0"
       style="fill:url(#linearGradient1176);stroke:#acacac;stroke-opacity:1"
       id="path1064"
       clip-path="url(#clipPath2)"
       d="m 1,8.5 v 45 C 1,57.6421 4.3579,61 8.5,61 h 93 c 4.1421,0 7.5,-3.3579 7.5,-7.5 V 8.5 C 109,4.3579 105.6421,1 101.5,1 H 8.5 C 4.3579,1 1,4.3579 1,8.5 Z" />
    <path
       style="fill:none;stroke:#acacac;stroke-opacity:1"
       inkscape:connector-curvature="0"
       id="path1066"
       clip-path="url(#clipPath2)"
       d="m 1,8.5 v 45 C 1,57.6421 4.3579,61 8.5,61 h 93 c 4.1421,0 7.5,-3.3579 7.5,-7.5 V 8.5 C 109,4.3579 105.6421,1 101.5,1 H 8.5 C 4.3579,1 1,4.3579 1,8.5 Z" />
  </g>
  <g
     style="font-size:20px;font-family:Arial;image-rendering:optimizeQuality;text-rendering:optimizeLegibility;fill:#acacac;fill-opacity:1"
     id="g1072"
     transform="translate(339,38)"
     font-size="20px">
    <text
       style="stroke:none;fill:#acacac;fill-opacity:1"
       id="text1070"
       clip-path="url(#clipPath4)"
       y="20"
       xml:space="preserve"
       x="5">LABEL</text>
  </g>
  <g
     style="font-size:10px;font-family:Arial;fill:#ffffff;stroke:#acacac;stroke-width:2;image-rendering:optimizeQuality;text-rendering:optimizeLegibility;stroke-opacity:1"
     id="g1078"
     transform="translate(330,12)"
     font-size="10px">
    <rect
       style="stroke:#acacac;stroke-opacity:1"
       id="rect1074"
       clip-path="url(#clipPath6)"
       y="1.5"
       height="14"
       width="29"
       x="1.5" />
    <rect
       style="fill:none;stroke:#acacac;stroke-opacity:1"
       id="rect1076"
       height="14"
       width="29"
       clip-path="url(#clipPath6)"
       y="1.5"
       x="1.5" />
  </g>
  <g
     style="font-size:10px;font-family:Arial;stroke-width:2;image-rendering:optimizeQuality;text-rendering:optimizeLegibility;fill:#acacac;fill-opacity:1"
     id="g1082"
     transform="translate(330,12)"
     font-size="10px">
    <text
       style="stroke:none;fill:#acacac;fill-opacity:1"
       id="text1080"
       clip-path="url(#clipPath6)"
       y="12"
       xml:space="preserve"
       x="8">N:5</text>
  </g>
  <g
     style="font-size:10px;font-family:Arial;fill:#ffffff;stroke:#ffffff;image-rendering:optimizeQuality;text-rendering:optimizeLegibility"
     id="g1086"
     transform="translate(347,63)"
     font-size="10px">
    <text
       style="stroke:none"
       id="text1084"
       clip-path="url(#clipPath8)"
       y="11"
       xml:space="preserve"
       x="5">MARKER</text>
  </g>
  <g
     style="font-family:Arial;fill:#ffffff;stroke:#acacac;stroke-width:2;image-rendering:optimizeQuality;text-rendering:optimizeLegibility;stroke-opacity:1"
     id="g1092"
     transform="translate(372,12)">
    <rect
       style="stroke:#acacac;stroke-opacity:1"
       id="rect1088"
       height="15"
       ry="7.5"
       rx="7.5"
       width="56"
       clip-path="url(#clipPath10)"
       y="1.5"
       x="1.5" />
    <rect
       style="fill:none;stroke:#acacac;stroke-opacity:1"
       id="rect1090"
       height="15"
       ry="7.5"
       rx="7.5"
       width="56"
       clip-path="url(#clipPath10)"
       y="1.5"
       x="1.5" />
  </g>
  <g
     style="font-family:Arial;stroke-width:2;image-rendering:optimizeQuality;text-rendering:optimizeLegibility;fill:#acacac;fill-opacity:1"
     id="g1096"
     transform="translate(372,12)">
    <text
       style="stroke:none;fill:#acacac;fill-opacity:1"
       id="text1094"
       clip-path="url(#clipPath10)"
       y="13"
       xml:space="preserve"
       x="8">val@var</text>
  </g>
  <g
     style="font-size:14.5067997px;font-family:Cantarell;fill:url(#linearGradient1184);stroke:#acacac;stroke-width:2;stroke-linecap:round;stroke-linejoin:round;image-rendering:optimizeQuality;text-rendering:optimizeLegibility;stroke-opacity:1"
     id="g1102"
     transform="translate(44,20)"
     font-size="14.5068px">
    <path
       inkscape:connector-curvature="0"
       style="fill:url(#linearGradient1182);stroke:#acacac;stroke-opacity:1"
       id="path1098"
       clip-path="url(#clipPath11)"
       d="m 1,8.5 v 45 C 1,57.6421 4.3579,61 8.5,61 h 93 c 4.1421,0 7.5,-3.3579 7.5,-7.5 V 8.5 C 109,4.3579 105.6421,1 101.5,1 H 8.5 C 4.3579,1 1,4.3579 1,8.5 Z" />
    <path
       style="fill:none;stroke:#acacac;stroke-opacity:1"
       inkscape:connector-curvature="0"
       id="path1100"
       clip-path="url(#clipPath11)"
       d="m 1,8.5 v 45 C 1,57.6421 4.3579,61 8.5,61 h 93 c 4.1421,0 7.5,-3.3579 7.5,-7.5 V 8.5 C 109,4.3579 105.6421,1 101.5,1 H 8.5 C 4.3579,1 1,4.3579 1,8.5 Z" />
  </g>
  <g
     style="font-size:20px;font-family:Arial;image-rendering:optimizeQuality;text-rendering:optimizeLegibility;fill:#acacac;fill-opacity:1"
     id="g1106"
     transform="translate(64,38)"
     font-size="20px">
    <text
       style="stroke:none;fill:#acacac;fill-opacity:1"
       id="text1104"
       clip-path="url(#clipPath4)"
       y="20"
       xml:space="preserve"
       x="5">LABEL</text>
  </g>
  <g
     style="font-size:10px;font-family:Arial;fill:#ffffff;stroke:#acacac;stroke-width:2;image-rendering:optimizeQuality;text-rendering:optimizeLegibility;stroke-opacity:1"
     id="g1112"
     transform="translate(51,12)"
     font-size="10px">
    <rect
       style="stroke:#acacac;stroke-opacity:1"
       id="rect1108"
       clip-path="url(#clipPath13)"
       y="1.5"
       height="14"
       width="37"
       x="1.5" />
    <rect
       style="fill:none;stroke:#acacac;stroke-opacity:1"
       id="rect1110"
       height="14"
       width="37"
       clip-path="url(#clipPath13)"
       y="1.5"
       x="1.5" />
  </g>
  <g
     style="font-size:10px;font-family:Arial;stroke-width:2;image-rendering:optimizeQuality;text-rendering:optimizeLegibility;fill:#acacac;fill-opacity:1"
     id="g1116"
     transform="translate(51,12)"
     font-size="10px">
    <text
       style="stroke:none;fill:#acacac;fill-opacity:1"
       id="text1114"
       clip-path="url(#clipPath13)"
       y="12"
       xml:space="preserve"
       x="8">INFO</text>
  </g>
  <g
     style="font-size:10px;font-family:Arial;fill:#ffffff;stroke:#ffffff;image-rendering:optimizeQuality;text-rendering:optimizeLegibility"
     id="g1120"
     transform="translate(72,63)"
     font-size="10px">
    <text
       style="stroke:none"
       id="text1118"
       clip-path="url(#clipPath8)"
       y="11"
       xml:space="preserve"
       x="5">MARKER</text>
  </g>
  <g
     style="font-family:Arial;fill:#ffffff;stroke:#acacac;stroke-width:2;image-rendering:optimizeQuality;text-rendering:optimizeLegibility;stroke-opacity:1"
     id="g1126"
     transform="translate(97,12)">
    <rect
       style="stroke:#acacac;stroke-opacity:1"
       id="rect1122"
       height="15"
       ry="7.5"
       rx="7.5"
       width="56"
       clip-path="url(#clipPath10)"
       y="1.5"
       x="1.5" />
    <rect
       style="fill:none;stroke:#acacac;stroke-opacity:1"
       id="rect1124"
       height="15"
       ry="7.5"
       rx="7.5"
       width="56"
       clip-path="url(#clipPath10)"
       y="1.5"
       x="1.5" />
  </g>
  <g
     style="font-family:Arial;stroke-width:2;image-rendering:optimizeQuality;text-rendering:optimizeLegibility;fill:#acacac;fill-opacity:1"
     id="g1130"
     transform="translate(97,12)">
    <text
       style="stroke:none;fill:#acacac;fill-opacity:1"
       id="text1128"
       clip-path="url(#clipPath10)"
       y="13"
       xml:space="preserve"
       x="8">val@var</text>
  </g>
  <g
     style="font-size:10px;font-family:Arial;fill:#ffffff;stroke:#ffffff;image-rendering:optimizeQuality;text-rendering:optimizeLegibility"
     id="g1154"
     transform="translate(208.75,63.25)"
     font-size="10px">
    <text
       style="stroke:none"
       id="text1152"
       clip-path="url(#clipPath8)"
       y="11"
       xml:space="preserve"
       x="5">MARKER</text>
  </g>
  <rect
     style="opacity:1;fill:#000000;fill-opacity:1;fill-rule:nonzero;stroke:#000000;stroke-width:2.10030246;stroke-miterlimit:10;stroke-dasharray:none;stroke-opacity:1"
     id="rect1283"
     width="97.922844"
     height="3.1289055"
     x="332.03442"
     y="79.236099" />
  <rect
     style="opacity:1;fill:#000000;fill-opacity:1;fill-rule:nonzero;stroke:#000000;stroke-width:1.26071084;stroke-miterlimit:10;stroke-dasharray:none;stroke-opacity:1"
     id="rect1283-3"
     width="6.0402956"
     height="18.276186"
     x="422.55493"
     y="60.928249" />
  <g
     style="font-size:14.5067997px;font-family:Cantarell;fill:url(#linearGradient2359);stroke:#acacac;stroke-width:2;stroke-linecap:round;stroke-linejoin:round;image-rendering:optimizeQuality;text-rendering:optimizeLegibility;stroke-opacity:1"
     id="g1762"
     transform="translate(180.75,20.25)"
     font-size="14.5068px">
    <path
       inkscape:connector-curvature="0"
       style="fill:url(#linearGradient2620);fill-rule:evenodd;stroke:#acacac;stroke-opacity:1"
       id="path1758"
       clip-path="url(#clipPath11-5)"
       d="m 1,1 h 108 v 45 2 l -1,3 -1,2 -1,2 -1,2 -2,1 -2,1 -2,1 -3,1 H 94 16 14 L 11,60 9,59 7,58 5,57 4,55 3,53 2,51 1,48 v -2 z" />
    <path
       style="fill:none;fill-rule:evenodd;stroke:#acacac;stroke-opacity:1"
       inkscape:connector-curvature="0"
       id="path1760"
       clip-path="url(#clipPath11-5)"
       d="m 1,1 h 108 v 45 2 l -1,3 -1,2 -1,2 -1,2 -2,1 -2,1 -2,1 -3,1 H 94 16 14 L 11,60 9,59 7,58 5,57 4,55 3,53 2,51 1,48 v -2 z" />
  </g>
  <g
     style="font-size:20px;font-family:Arial;image-rendering:optimizeQuality;text-rendering:optimizeLegibility"
     id="g1766"
     transform="translate(200.75,38.25)"
     font-size="20px">
    <text
       style="stroke:none;fill:#acacac;fill-opacity:1;"
       id="text1764"
       clip-path="url(#clipPath4-6)"
       y="20"
       xml:space="preserve"
       x="5">LABEL</text>
  </g>
  <g
     style="font-size:10px;font-family:Arial;fill:#ffffff;stroke:#acacac;stroke-width:2;image-rendering:optimizeQuality;text-rendering:optimizeLegibility;stroke-opacity:1"
     id="g1772"
     transform="translate(187.75,12.25)"
     font-size="10px">
    <rect
       style="stroke:#acacac;stroke-opacity:1"
       id="rect1768"
       clip-path="url(#clipPath13-2)"
       y="1.5"
       height="14"
       width="37"
       x="1.5" />
    <rect
       style="fill:none;stroke:#acacac;stroke-opacity:1"
       id="rect1770"
       height="14"
       width="37"
       clip-path="url(#clipPath13-2)"
       y="1.5"
       x="1.5" />
  </g>
  <g
     style="font-size:10px;font-family:Arial;stroke-width:2;image-rendering:optimizeQuality;text-rendering:optimizeLegibility;fill:#acacac;fill-opacity:1"
     id="g1776"
     transform="translate(187.75,12.25)"
     font-size="10px">
    <text
       style="stroke:none;fill:#acacac;fill-opacity:1"
       id="text1774"
       clip-path="url(#clipPath13-2)"
       y="12"
       xml:space="preserve"
       x="8">INFO</text>
  </g>
  <g
     style="font-size:10px;font-family:Arial;fill:#ffffff;stroke:#ffffff;image-rendering:optimizeQuality;text-rendering:optimizeLegibility"
     id="g1780"
     transform="translate(208.75,63.25)"
     font-size="10px">
    <text
       style="stroke:none"
       id="text1778"
       clip-path="url(#clipPath8-3)"
       y="11"
       xml:space="preserve"
       x="5">MARKER</text>
  </g>
  <g
     style="font-family:Arial;fill:#ffffff;stroke:#acacac;stroke-width:2;image-rendering:optimizeQuality;text-rendering:optimizeLegibility;stroke-opacity:1"
     id="g1786"
     transform="translate(233.75,12.25)">
    <rect
       style="stroke:#acacac;stroke-opacity:1"
       id="rect1782"
       height="15"
       ry="7.5"
       rx="7.5"
       width="56"
       clip-path="url(#clipPath10-7)"
       y="1.5"
       x="1.5" />
    <rect
       style="fill:none;stroke:#acacac;stroke-opacity:1"
       id="rect1784"
       height="15"
       ry="7.5"
       rx="7.5"
       width="56"
       clip-path="url(#clipPath10-7)"
       y="1.5"
       x="1.5" />
  </g>
  <g
     style="font-family:Arial;stroke-width:2;image-rendering:optimizeQuality;text-rendering:optimizeLegibility;fill:#acacac;fill-opacity:1"
     id="g1790"
     transform="translate(233.75,12.25)">
    <text
       style="stroke:none;fill:#acacac;fill-opacity:1"
       id="text1788"
       clip-path="url(#clipPath10-7)"
       y="13"
       xml:space="preserve"
       x="8">val@var</text>
  </g>
</svg>
