<?xml version="1.0" encoding="UTF-8" standalone="no"?>
<svg
   fill-opacity="1"
   color-rendering="auto"
   color-interpolation="auto"
   text-rendering="auto"
   stroke="black"
   stroke-linecap="square"
   width="732"
   stroke-miterlimit="10"
   shape-rendering="auto"
   stroke-opacity="1"
   fill="black"
   stroke-dasharray="none"
   font-weight="normal"
   stroke-width="1"
   height="182"
   font-family="'Dialog'"
   font-style="normal"
   stroke-linejoin="miter"
   font-size="12px"
   stroke-dashoffset="0"
   image-rendering="auto"
   version="1.1"
   id="svg33"
   sodipodi:docname="state_variable copy.svg"
   inkscape:version="1.3.2 (091e20e, 2023-11-25)"
   xmlns:inkscape="http://www.inkscape.org/namespaces/inkscape"
   xmlns:sodipodi="http://sodipodi.sourceforge.net/DTD/sodipodi-0.dtd"
   xmlns="http://www.w3.org/2000/svg"
   xmlns:svg="http://www.w3.org/2000/svg">
  <sodipodi:namedview
     id="namedview33"
     pagecolor="#ffffff"
     bordercolor="#000000"
     borderopacity="0.25"
     inkscape:showpageshadow="2"
     inkscape:pageopacity="0.0"
     inkscape:pagecheckerboard="0"
     inkscape:deskcolor="#d1d1d1"
     inkscape:zoom="1.0081967"
     inkscape:cx="365.50407"
     inkscape:cy="91.252033"
     inkscape:window-width="1312"
     inkscape:window-height="449"
     inkscape:window-x="0"
     inkscape:window-y="38"
     inkscape:window-maximized="0"
     inkscape:current-layer="g33" />
  <!--Generated by the Batik Graphics2D SVG Generator-->
  <defs
     id="genericDefs" />
  <g
     id="g33">
    <defs
       id="defs1">
      <clipPath
         clipPathUnits="userSpaceOnUse"
         id="clipPath1">
        <path
           d="M0 0 L1067 0 L1067 699 L0 699 L0 0 Z"
           id="path1" />
      </clipPath>
      <clipPath
         clipPathUnits="userSpaceOnUse"
         id="clipPath2">
        <path
           d="M0 0 L0 34 L44 34 L44 0 Z"
           id="path2" />
      </clipPath>
      <clipPath
         clipPathUnits="userSpaceOnUse"
         id="clipPath3">
        <path
           d="M0 0 L0 27 L39 27 L39 0 Z"
           id="path3" />
      </clipPath>
      <clipPath
         clipPathUnits="userSpaceOnUse"
         id="clipPath4">
        <path
           d="M0 0 L0 26 L38 26 L38 0 Z"
           id="path4" />
      </clipPath>
      <clipPath
         clipPathUnits="userSpaceOnUse"
         id="clipPath5">
        <path
           d="M0 0 L0 64 L112 64 L112 0 Z"
           id="path5" />
      </clipPath>
      <clipPath
         clipPathUnits="userSpaceOnUse"
         id="clipPath6">
        <path
           d="M0 0 L0 27 L72 27 L72 0 Z"
           id="path6" />
      </clipPath>
      <clipPath
         clipPathUnits="userSpaceOnUse"
         id="clipPath7">
        <path
           d="M0 0 L0 26 L71 26 L71 0 Z"
           id="path7" />
      </clipPath>
      <clipPath
         clipPathUnits="userSpaceOnUse"
         id="clipPath8">
        <path
           d="M0 0 L0 18 L54 18 L54 0 Z"
           id="path8" />
      </clipPath>
      <clipPath
         clipPathUnits="userSpaceOnUse"
         id="clipPath9">
        <path
           d="M0 0 L0 17 L53 17 L53 0 Z"
           id="path9" />
      </clipPath>
      <clipPath
         clipPathUnits="userSpaceOnUse"
         id="clipPath10">
        <path
           d="M0 0 L0 34 L74 34 L74 0 Z"
           id="path10" />
      </clipPath>
      <clipPath
         clipPathUnits="userSpaceOnUse"
         id="clipPath11">
        <path
           d="M0 0 L0 27 L59 27 L59 0 Z"
           id="path11" />
      </clipPath>
      <clipPath
         clipPathUnits="userSpaceOnUse"
         id="clipPath12">
        <path
           d="M0 0 L0 26 L58 26 L58 0 Z"
           id="path12" />
      </clipPath>
      <clipPath
         clipPathUnits="userSpaceOnUse"
         id="clipPath13">
        <path
           d="M0 0 L0 34 L94 34 L94 0 Z"
           id="path13" />
      </clipPath>
      <clipPath
         clipPathUnits="userSpaceOnUse"
         id="clipPath14">
        <path
           d="M0 0 L0 27 L84 27 L84 0 Z"
           id="path14" />
      </clipPath>
      <clipPath
         clipPathUnits="userSpaceOnUse"
         id="clipPath15">
        <path
           d="M0 0 L0 26 L83 26 L83 0 Z"
           id="path15" />
      </clipPath>
      <clipPath
         clipPathUnits="userSpaceOnUse"
         id="clipPath16">
        <path
           d="M0 0 L0 27 L36 27 L36 0 Z"
           id="path16" />
      </clipPath>
      <clipPath
         clipPathUnits="userSpaceOnUse"
         id="clipPath17">
        <path
           d="M0 0 L0 26 L35 26 L35 0 Z"
           id="path17" />
      </clipPath>
    </defs>
    <g
       stroke-linecap="round"
       font-size="13px"
       transform="translate(483,148)"
       fill="white"
       text-rendering="optimizeLegibility"
       image-rendering="optimizeQuality"
       font-family="'Lucida Grande'"
       stroke-linejoin="round"
       stroke="white"
       stroke-width="2"
       id="g19">
      <path
         d="M1 16 L1 16 C1 24.2843 7.7157 31 16 31 L26 31 C34.2843 31 41 24.2843 41 16 L41 16 C41 7.7157 34.2843 1 26 1 L16 1 C7.7157 1 1 7.7157 1 16 Z"
         stroke="none"
         clip-path="url(#clipPath2)"
         id="path18" />
      <path
         fill="none"
         d="M1 16 L1 16 C1 24.2843 7.7157 31 16 31 L26 31 C34.2843 31 41 24.2843 41 16 L41 16 C41 7.7157 34.2843 1 26 1 L16 1 C7.7157 1 1 7.7157 1 16 Z"
         clip-path="url(#clipPath2)"
         stroke="rgb(254,254,254)"
         id="path19" />
    </g>
    <g
       text-rendering="optimizeLegibility"
       font-size="20px"
       font-family="'Arial'"
       transform="translate(485,151)"
       image-rendering="optimizeQuality"
       id="g20">
      <text
         x="5"
         xml:space="preserve"
         y="20"
         clip-path="url(#clipPath4)"
         stroke="none"
         id="text19">var</text>
    </g>
    <g
       stroke-linecap="round"
       font-size="13px"
       transform="translate(620,113)"
       fill="white"
       text-rendering="optimizeLegibility"
       image-rendering="optimizeQuality"
       font-family="'Lucida Grande'"
       stroke-linejoin="round"
       stroke="white"
       stroke-width="2"
       id="g21"
       style="stroke:#ababab;stroke-opacity:1">
      <path
         d="M1 8.5 L1 53.5 C1 57.6421 4.3579 61 8.5 61 L101.5 61 C105.6421 61 109 57.6421 109 53.5 L109 8.5 C109 4.3579 105.6421 1 101.5 1 L8.5 1 C4.3579 1 1 4.3579 1 8.5 Z"
         stroke="none"
         clip-path="url(#clipPath5)"
         id="path20"
         style="stroke:#ababab;stroke-opacity:1" />
      <path
         fill="none"
         d="M1 8.5 L1 53.5 C1 57.6421 4.3579 61 8.5 61 L101.5 61 C105.6421 61 109 57.6421 109 53.5 L109 8.5 C109 4.3579 105.6421 1 101.5 1 L8.5 1 C4.3579 1 1 4.3579 1 8.5 Z"
         clip-path="url(#clipPath5)"
         stroke="black"
         id="path21"
         style="stroke:#ababab;stroke-opacity:1" />
    </g>
    <g
       text-rendering="optimizeLegibility"
       font-size="20px"
       font-family="'Arial'"
       transform="translate(640,131)"
       image-rendering="optimizeQuality"
       id="g22"
       style="fill:#ababab;fill-opacity:1">
      <text
         x="5"
         xml:space="preserve"
         y="20"
         clip-path="url(#clipPath7)"
         stroke="none"
         id="text21"
         style="fill:#ababab;fill-opacity:1">LABEL</text>
    </g>
    <g
       font-size="10px"
       transform="translate(649,105)"
       fill="white"
       text-rendering="optimizeLegibility"
       image-rendering="optimizeQuality"
       font-family="'Arial'"
       stroke="white"
       stroke-width="2"
       id="g23">
      <rect
         x="1.5"
         y="1.5"
         clip-path="url(#clipPath9)"
         width="50"
         rx="7"
         ry="7"
         height="14"
         stroke="none"
         id="rect22" />
      <rect
         x="1.5"
         y="1.5"
         clip-path="url(#clipPath9)"
         fill="none"
         width="50"
         rx="7"
         ry="7"
         height="14"
         stroke="black"
         id="rect23" />
    </g>
    <g
       text-rendering="optimizeLegibility"
       stroke-width="2"
       font-size="10px"
       font-family="'Arial'"
       transform="translate(649,105)"
       image-rendering="optimizeQuality"
       id="g24">
      <text
         x="8"
         xml:space="preserve"
         y="12"
         clip-path="url(#clipPath9)"
         stroke="none"
         id="text23">val@var</text>
    </g>
    <g
       stroke-linecap="round"
       font-size="13px"
       transform="translate(364,128)"
       fill="white"
       text-rendering="optimizeLegibility"
       image-rendering="optimizeQuality"
       font-family="'Lucida Grande'"
       stroke-linejoin="round"
       stroke="white"
       stroke-width="2"
       id="g25">
      <path
         d="M1 16 L1 16 C1 24.2843 7.7157 31 16 31 L56 31 C64.2843 31 71 24.2843 71 16 L71 16 C71 7.7157 64.2843 1 56 1 L16 1 C7.7157 1 1 7.7157 1 16 Z"
         stroke="none"
         clip-path="url(#clipPath10)"
         id="path24" />
      <path
         fill="none"
         d="M1 16 L1 16 C1 24.2843 7.7157 31 16 31 L56 31 C64.2843 31 71 24.2843 71 16 L71 16 C71 7.7157 64.2843 1 56 1 L16 1 C7.7157 1 1 7.7157 1 16 Z"
         clip-path="url(#clipPath10)"
         stroke="black"
         id="path25" />
    </g>
    <g
       text-rendering="optimizeLegibility"
       font-size="20px"
       font-family="'Arial'"
       transform="translate(371,131)"
       image-rendering="optimizeQuality"
       id="g26">
      <text
         x="5"
         xml:space="preserve"
         y="20"
         clip-path="url(#clipPath12)"
         stroke="none"
         id="text25">@var</text>
    </g>
    <g
       stroke-linecap="round"
       font-size="13px"
       transform="translate(119,128)"
       fill="white"
       text-rendering="optimizeLegibility"
       image-rendering="optimizeQuality"
       font-family="'Lucida Grande'"
       stroke-linejoin="round"
       stroke="white"
       stroke-width="2"
       id="g27">
      <path
         d="M1 16 L1 16 C1 24.2843 7.7157 31 16 31 L76 31 C84.2843 31 91 24.2843 91 16 L91 16 C91 7.7157 84.2843 1 76 1 L16 1 C7.7157 1 1 7.7157 1 16 Z"
         stroke="none"
         clip-path="url(#clipPath13)"
         id="path26" />
      <path
         fill="none"
         d="M1 16 L1 16 C1 24.2843 7.7157 31 16 31 L76 31 C84.2843 31 91 24.2843 91 16 L91 16 C91 7.7157 84.2843 1 76 1 L16 1 C7.7157 1 1 7.7157 1 16 Z"
         clip-path="url(#clipPath13)"
         stroke="black"
         id="path27" />
    </g>
    <g
       text-rendering="optimizeLegibility"
       font-size="20px"
       font-family="'Arial'"
       transform="translate(124,131)"
       image-rendering="optimizeQuality"
       id="g28">
      <text
         x="5"
         xml:space="preserve"
         y="20"
         clip-path="url(#clipPath15)"
         stroke="none"
         id="text27">val@var</text>
    </g>
    <g
       stroke-linecap="round"
       font-size="13px"
       transform="translate(264,128)"
       fill="white"
       text-rendering="optimizeLegibility"
       image-rendering="optimizeQuality"
       font-family="'Lucida Grande'"
       stroke-linejoin="round"
       stroke="white"
       stroke-width="2"
       id="g29">
      <path
         d="M1 16 L1 16 C1 24.2843 7.7157 31 16 31 L26 31 C34.2843 31 41 24.2843 41 16 L41 16 C41 7.7157 34.2843 1 26 1 L16 1 C7.7157 1 1 7.7157 1 16 Z"
         stroke="none"
         clip-path="url(#clipPath2)"
         id="path28" />
      <path
         fill="none"
         d="M1 16 L1 16 C1 24.2843 7.7157 31 16 31 L26 31 C34.2843 31 41 24.2843 41 16 L41 16 C41 7.7157 34.2843 1 26 1 L16 1 C7.7157 1 1 7.7157 1 16 Z"
         clip-path="url(#clipPath2)"
         stroke="black"
         id="path29" />
    </g>
    <g
       text-rendering="optimizeLegibility"
       font-size="20px"
       font-family="'Arial'"
       transform="translate(268,131)"
       image-rendering="optimizeQuality"
       id="g30">
      <text
         x="5"
         xml:space="preserve"
         y="20"
         clip-path="url(#clipPath17)"
         stroke="none"
         id="text29">val</text>
    </g>
    <g
       stroke-linecap="round"
       font-size="13px"
       transform="translate(519,128)"
       fill="white"
       text-rendering="optimizeLegibility"
       image-rendering="optimizeQuality"
       font-family="'Lucida Grande'"
       stroke-linejoin="round"
       stroke="white"
       stroke-width="2"
       id="g31">
      <path
         d="M1 16 L1 16 C1 24.2843 7.7157 31 16 31 L26 31 C34.2843 31 41 24.2843 41 16 L41 16 C41 7.7157 34.2843 1 26 1 L16 1 C7.7157 1 1 7.7157 1 16 Z"
         stroke="none"
         clip-path="url(#clipPath2)"
         id="path30" />
      <path
         fill="none"
         d="M1 16 L1 16 C1 24.2843 7.7157 31 16 31 L26 31 C34.2843 31 41 24.2843 41 16 L41 16 C41 7.7157 34.2843 1 26 1 L16 1 C7.7157 1 1 7.7157 1 16 Z"
         clip-path="url(#clipPath2)"
         stroke="black"
         id="path31" />
    </g>
    <g
       text-rendering="optimizeLegibility"
       font-size="20px"
       font-family="'Arial'"
       transform="translate(523,131)"
       image-rendering="optimizeQuality"
       id="g32">
      <text
         x="5"
         xml:space="preserve"
         y="20"
         clip-path="url(#clipPath17)"
         stroke="none"
         id="text31">val</text>
    </g>
  </g>
</svg>
