<?xml version="1.0" encoding="UTF-8" standalone="no"?>
<svg
   xmlns:dc="http://purl.org/dc/elements/1.1/"
   xmlns:cc="http://creativecommons.org/ns#"
   xmlns:rdf="http://www.w3.org/1999/02/22-rdf-syntax-ns#"
   xmlns:svg="http://www.w3.org/2000/svg"
   xmlns="http://www.w3.org/2000/svg"
   xmlns:xlink="http://www.w3.org/1999/xlink"
   xmlns:sodipodi="http://sodipodi.sourceforge.net/DTD/sodipodi-0.dtd"
   xmlns:inkscape="http://www.inkscape.org/namespaces/inkscape"
   fill-opacity="1"
   color-rendering="auto"
   color-interpolation="auto"
   text-rendering="auto"
   stroke="black"
   stroke-linecap="square"
   width="1063"
   stroke-miterlimit="10"
   shape-rendering="auto"
   stroke-opacity="1"
   fill="black"
   stroke-dasharray="none"
   font-weight="normal"
   stroke-width="1"
   height="393"
   font-family="'Dialog'"
   font-style="normal"
   stroke-linejoin="miter"
   font-size="12px"
   stroke-dashoffset="0"
   image-rendering="auto"
   version="1.1"
   id="svg18929"
   sodipodi:docname="compartment_overlapping_wrong.inkscape.svg"
   inkscape:version="0.92.2 2405546, 2018-03-11">
  <metadata
     id="metadata18933">
    <rdf:RDF>
      <cc:Work
         rdf:about="">
        <dc:format>image/svg+xml</dc:format>
        <dc:type
           rdf:resource="http://purl.org/dc/dcmitype/StillImage" />
        <dc:title></dc:title>
      </cc:Work>
    </rdf:RDF>
  </metadata>
  <sodipodi:namedview
     pagecolor="#ffffff"
     bordercolor="#666666"
     borderopacity="1"
     objecttolerance="10"
     gridtolerance="10"
     guidetolerance="10"
     inkscape:pageopacity="0"
     inkscape:pageshadow="2"
     inkscape:window-width="1916"
     inkscape:window-height="1076"
     id="namedview18931"
     showgrid="false"
     inkscape:zoom="0.89668856"
     inkscape:cx="520.54598"
     inkscape:cy="-80.144481"
     inkscape:window-x="1920"
     inkscape:window-y="122"
     inkscape:window-maximized="0"
     inkscape:current-layer="svg18929" />
  <!--Generated by the Batik Graphics2D SVG Generator-->
  <defs
     id="genericDefs">
    <linearGradient
       inkscape:collect="always"
       xlink:href="#linearGradient1"
       id="linearGradient19478"
       gradientUnits="userSpaceOnUse"
       x1="0"
       y1="40"
       x2="0"
       y2="40.006"
       spreadMethod="pad" />
    <linearGradient
       inkscape:collect="always"
       xlink:href="#linearGradient1"
       id="linearGradient19480"
       gradientUnits="userSpaceOnUse"
       x1="0"
       y1="40"
       x2="0"
       y2="40.006"
       spreadMethod="pad" />
    <linearGradient
       inkscape:collect="always"
       xlink:href="#linearGradient1"
       id="linearGradient19482"
       gradientUnits="userSpaceOnUse"
       x1="0"
       y1="40"
       x2="0"
       y2="40.006"
       spreadMethod="pad" />
    <linearGradient
       inkscape:collect="always"
       xlink:href="#linearGradient2"
       id="linearGradient19484"
       gradientUnits="userSpaceOnUse"
       x1="0"
       y1="40"
       x2="0"
       y2="40.006"
       spreadMethod="pad" />
    <linearGradient
       inkscape:collect="always"
       xlink:href="#linearGradient2"
       id="linearGradient19486"
       gradientUnits="userSpaceOnUse"
       x1="0"
       y1="40"
       x2="0"
       y2="40.006"
       spreadMethod="pad" />
    <linearGradient
       inkscape:collect="always"
       xlink:href="#linearGradient2"
       id="linearGradient19488"
       gradientUnits="userSpaceOnUse"
       x1="0"
       y1="40"
       x2="0"
       y2="40.006"
       spreadMethod="pad" />
    <defs
       id="defs1">
      <linearGradient
         spreadMethod="pad"
         id="linearGradient1"
         y2="40.006"
         y1="40"
         x2="0"
         gradientUnits="userSpaceOnUse"
         x1="0">
        <stop
           id="stop18744"
           offset="0%"
           stop-color="white"
           stop-opacity="1" />
        <stop
           id="stop18746"
           offset="100%"
           stop-color="black"
           stop-opacity="1" />
      </linearGradient>
      <linearGradient
         spreadMethod="pad"
         id="linearGradient2"
         y2="40.006"
         y1="40"
         x2="0"
         gradientUnits="userSpaceOnUse"
         x1="0">
        <stop
           id="stop18749"
           offset="0%"
           stop-color="white"
           stop-opacity="1" />
        <stop
           id="stop18751"
           offset="100%"
           stop-color="black"
           stop-opacity="1" />
      </linearGradient>
      <clipPath
         id="clipPath1"
         clipPathUnits="userSpaceOnUse">
        <path
           id="path18754"
           d="M0 0 L1228 0 L1228 971 L0 971 L0 0 Z" />
      </clipPath>
      <clipPath
         id="clipPath2"
         clipPathUnits="userSpaceOnUse">
        <path
           id="path18757"
           d="M0 0 L0 236 L376 236 L376 0 Z" />
      </clipPath>
      <clipPath
         id="clipPath3"
         clipPathUnits="userSpaceOnUse">
        <path
           id="path18760"
           d="M0 0 L0 19 L45 19 L45 0 Z" />
      </clipPath>
      <clipPath
         id="clipPath4"
         clipPathUnits="userSpaceOnUse">
        <path
           id="path18763"
           d="M0 0 L0 18 L44 18 L44 0 Z" />
      </clipPath>
      <clipPath
         id="clipPath5"
         clipPathUnits="userSpaceOnUse">
        <path
           id="path18766"
           d="M0 0 L0 64 L112 64 L112 0 Z" />
      </clipPath>
      <clipPath
         id="clipPath6"
         clipPathUnits="userSpaceOnUse">
        <path
           id="path18769"
           d="M0 0 L0 20 L39 20 L39 0 Z" />
      </clipPath>
      <clipPath
         id="clipPath7"
         clipPathUnits="userSpaceOnUse">
        <path
           id="path18772"
           d="M0 0 L0 19 L38 19 L38 0 Z" />
      </clipPath>
      <clipPath
         id="clipPath8"
         clipPathUnits="userSpaceOnUse">
        <path
           id="path18775"
           d="M0 0 L0 18 L20 18 L20 0 Z" />
      </clipPath>
      <clipPath
         id="clipPath9"
         clipPathUnits="userSpaceOnUse">
        <path
           id="path18778"
           d="M0 0 L0 17 L19 17 L19 0 Z" />
      </clipPath>
      <clipPath
         id="clipPath10"
         clipPathUnits="userSpaceOnUse">
        <path
           id="path18781"
           d="M0 0 L0 18 L24 18 L24 0 Z" />
      </clipPath>
      <clipPath
         id="clipPath11"
         clipPathUnits="userSpaceOnUse">
        <path
           id="path18784"
           d="M0 0 L0 17 L23 17 L23 0 Z" />
      </clipPath>
      <clipPath
         id="clipPath12"
         clipPathUnits="userSpaceOnUse">
        <path
           id="path18787"
           d="M0 0 L0 64 L64 64 L64 0 Z" />
      </clipPath>
      <clipPath
         id="clipPath13"
         clipPathUnits="userSpaceOnUse">
        <path
           id="path18790"
           d="M0 0 L0 20 L37 20 L37 0 Z" />
      </clipPath>
      <clipPath
         id="clipPath14"
         clipPathUnits="userSpaceOnUse">
        <path
           id="path18793"
           d="M0 0 L0 19 L36 19 L36 0 Z" />
      </clipPath>
      <clipPath
         id="clipPath15"
         clipPathUnits="userSpaceOnUse">
        <path
           id="path18796"
           d="M0 0 L0 28 L28 28 L28 0 Z" />
      </clipPath>
      <clipPath
         id="clipPath16"
         clipPathUnits="userSpaceOnUse">
        <path
           id="path18799"
           d="M0 0 L0 56 L50 56 L50 0 Z" />
      </clipPath>
      <clipPath
         id="clipPath17"
         clipPathUnits="userSpaceOnUse">
        <path
           id="path18802"
           d="M0 0 L0 2 L43 2 L43 0 Z" />
      </clipPath>
      <clipPath
         id="clipPath18"
         clipPathUnits="userSpaceOnUse">
        <path
           id="path18805"
           d="M0 0 L0 60 L51 60 L51 0 Z" />
      </clipPath>
      <clipPath
         id="clipPath19"
         clipPathUnits="userSpaceOnUse">
        <path
           id="path18808"
           d="M0 0 L0 17 L63 17 L63 0 Z" />
      </clipPath>
      <clipPath
         id="clipPath20"
         clipPathUnits="userSpaceOnUse">
        <path
           id="path18811"
           d="M0 0 L0 206 L246 206 L246 0 Z" />
      </clipPath>
      <clipPath
         id="clipPath21"
         clipPathUnits="userSpaceOnUse">
        <path
           id="path18814"
           d="M0 0 L0 19 L41 19 L41 0 Z" />
      </clipPath>
      <clipPath
         id="clipPath22"
         clipPathUnits="userSpaceOnUse">
        <path
           id="path18817"
           d="M0 0 L0 18 L40 18 L40 0 Z" />
      </clipPath>
    </defs>
  </defs>
  <g
     style="font-size:14.5067997px;font-family:Cantarell;fill:#ffffff;stroke:#ffffff;stroke-width:4;stroke-linecap:round;stroke-linejoin:round;image-rendering:optimizeQuality;text-rendering:optimizeLegibility"
     id="g18825"
     transform="translate(607,72)"
     font-size="14.5068px">
    <path
       style="stroke:none"
       inkscape:connector-curvature="0"
       id="path18821"
       clip-path="url(#clipPath2)"
       d="m 2,32 v 170 c 0,16.5685 13.4315,30 30,30 h 310 c 16.5685,0 30,-13.4315 30,-30 V 32 C 372,15.4315 358.5685,2 342,2 H 32 C 15.4315,2 2,15.4315 2,32 Z" />
    <path
       style="fill:none;stroke:#000000"
       inkscape:connector-curvature="0"
       id="path18823"
       clip-path="url(#clipPath2)"
       d="m 2,32 v 170 c 0,16.5685 13.4315,30 30,30 h 310 c 16.5685,0 30,-13.4315 30,-30 V 32 C 372,15.4315 358.5685,2 342,2 H 32 C 15.4315,2 2,15.4315 2,32 Z" />
  </g>
  <g
     style="font-family:Arial;image-rendering:optimizeQuality;text-rendering:optimizeLegibility"
     id="g18829"
     transform="translate(772,78)">
    <text
       style="stroke:none"
       id="text18827"
       clip-path="url(#clipPath4)"
       y="13"
       xml:space="preserve"
       x="6">CYTO</text>
  </g>
  <g
     style="font-size:14.5067997px;font-family:Cantarell;fill:#ffffff;stroke:#ffffff;stroke-width:2;stroke-linecap:round;stroke-linejoin:round;image-rendering:optimizeQuality;text-rendering:optimizeLegibility"
     id="g18835"
     transform="translate(619,113)"
     font-size="14.5068px">
    <path
       style="stroke:none"
       inkscape:connector-curvature="0"
       id="path18831"
       clip-path="url(#clipPath5)"
       d="m 1,8.5 v 45 C 1,57.6421 4.3579,61 8.5,61 h 93 c 4.1421,0 7.5,-3.3579 7.5,-7.5 V 8.5 C 109,4.3579 105.6421,1 101.5,1 H 8.5 C 4.3579,1 1,4.3579 1,8.5 Z" />
    <path
       style="fill:none;stroke:#000000"
       inkscape:connector-curvature="0"
       id="path18833"
       clip-path="url(#clipPath5)"
       d="m 1,8.5 v 45 C 1,57.6421 4.3579,61 8.5,61 h 93 c 4.1421,0 7.5,-3.3579 7.5,-7.5 V 8.5 C 109,4.3579 105.6421,1 101.5,1 H 8.5 C 4.3579,1 1,4.3579 1,8.5 Z" />
  </g>
  <g
     style="font-size:14px;font-family:Arial;image-rendering:optimizeQuality;text-rendering:optimizeLegibility"
     id="g18839"
     transform="translate(655,135)"
     font-size="14px">
    <text
       style="stroke:none"
       id="text18837"
       clip-path="url(#clipPath7)"
       y="14"
       xml:space="preserve"
       x="5">RAF</text>
  </g>
  <g
     style="font-size:10px;font-family:Arial;fill:#ffffff;stroke:#ffffff;stroke-width:2;image-rendering:optimizeQuality;text-rendering:optimizeLegibility"
     id="g18845"
     transform="translate(665,105)"
     font-size="10px">
    <rect
       style="stroke:none"
       id="rect18841"
       height="14"
       ry="7"
       rx="7"
       width="16"
       clip-path="url(#clipPath9)"
       y="1.5"
       x="1.5" />
    <rect
       style="fill:none;stroke:#000000"
       id="rect18843"
       height="14"
       ry="7"
       rx="7"
       width="16"
       clip-path="url(#clipPath9)"
       y="1.5"
       x="1.5" />
  </g>
  <g
     style="font-size:10px;font-family:Arial;stroke-width:2;image-rendering:optimizeQuality;text-rendering:optimizeLegibility"
     id="g18849"
     transform="translate(665,105)"
     font-size="10px">
    <text
       style="stroke:none"
       id="text18847"
       clip-path="url(#clipPath9)"
       y="12"
       xml:space="preserve"
       x="8"> </text>
  </g>
  <g
     style="font-size:14.5067997px;font-family:Cantarell;fill:#ffffff;stroke:#ffffff;stroke-width:2;stroke-linecap:round;stroke-linejoin:round;image-rendering:optimizeQuality;text-rendering:optimizeLegibility"
     id="g18855"
     transform="translate(859,113)"
     font-size="14.5068px">
    <path
       style="stroke:none"
       inkscape:connector-curvature="0"
       id="path18851"
       clip-path="url(#clipPath5)"
       d="m 1,8.5 v 45 C 1,57.6421 4.3579,61 8.5,61 h 93 c 4.1421,0 7.5,-3.3579 7.5,-7.5 V 8.5 C 109,4.3579 105.6421,1 101.5,1 H 8.5 C 4.3579,1 1,4.3579 1,8.5 Z" />
    <path
       style="fill:none;stroke:#000000"
       inkscape:connector-curvature="0"
       id="path18853"
       clip-path="url(#clipPath5)"
       d="m 1,8.5 v 45 C 1,57.6421 4.3579,61 8.5,61 h 93 c 4.1421,0 7.5,-3.3579 7.5,-7.5 V 8.5 C 109,4.3579 105.6421,1 101.5,1 H 8.5 C 4.3579,1 1,4.3579 1,8.5 Z" />
  </g>
  <g
     style="font-size:14px;font-family:Arial;image-rendering:optimizeQuality;text-rendering:optimizeLegibility"
     id="g18859"
     transform="translate(895,135)"
     font-size="14px">
    <text
       style="stroke:none"
       id="text18857"
       clip-path="url(#clipPath7)"
       y="14"
       xml:space="preserve"
       x="5">RAF</text>
  </g>
  <g
     style="font-size:10px;font-family:Arial;fill:#ffffff;stroke:#ffffff;stroke-width:2;image-rendering:optimizeQuality;text-rendering:optimizeLegibility"
     id="g18865"
     transform="translate(903,105)"
     font-size="10px">
    <rect
       style="stroke:none"
       id="rect18861"
       height="14"
       ry="7"
       rx="7"
       width="20"
       clip-path="url(#clipPath11)"
       y="1.5"
       x="1.5" />
    <rect
       style="fill:none;stroke:#000000"
       id="rect18863"
       height="14"
       ry="7"
       rx="7"
       width="20"
       clip-path="url(#clipPath11)"
       y="1.5"
       x="1.5" />
  </g>
  <g
     style="font-size:10px;font-family:Arial;stroke-width:2;image-rendering:optimizeQuality;text-rendering:optimizeLegibility"
     id="g18869"
     transform="translate(903,105)"
     font-size="10px">
    <text
       style="stroke:none"
       id="text18867"
       clip-path="url(#clipPath11)"
       y="12"
       xml:space="preserve"
       x="8">P</text>
  </g>
  <g
     style="font-size:14.5067997px;font-family:Cantarell;fill:url(#linearGradient19480);stroke:url(#linearGradient19482);stroke-width:2;stroke-linecap:round;stroke-linejoin:round;image-rendering:optimizeQuality;text-rendering:optimizeLegibility"
     id="g18875"
     transform="translate(833,198)"
     font-size="14.5068px">
    <path
       inkscape:connector-curvature="0"
       style="fill:url(#linearGradient19478);stroke:none"
       id="path18871"
       clip-path="url(#clipPath12)"
       d="m 1,31 v 0 c 0,16.5685 13.4315,30 30,30 v 0 C 47.5685,61 61,47.5685 61,31 v 0 C 61,14.4315 47.5685,1 31,1 V 1 C 14.4315,1 1,14.4315 1,31 Z" />
    <path
       style="fill:none;stroke:#000000"
       inkscape:connector-curvature="0"
       id="path18873"
       clip-path="url(#clipPath12)"
       d="m 1,31 v 0 c 0,16.5685 13.4315,30 30,30 v 0 C 47.5685,61 61,47.5685 61,31 v 0 C 61,14.4315 47.5685,1 31,1 V 1 C 14.4315,1 1,14.4315 1,31 Z" />
  </g>
  <g
     style="font-size:14px;font-family:Arial;image-rendering:optimizeQuality;text-rendering:optimizeLegibility"
     id="g18879"
     transform="translate(845,220)"
     font-size="14px">
    <text
       style="stroke:none"
       id="text18877"
       clip-path="url(#clipPath7)"
       y="14"
       xml:space="preserve"
       x="5">ADP</text>
  </g>
  <g
     style="font-size:14.5067997px;font-family:Cantarell;fill:url(#linearGradient19486);stroke:url(#linearGradient19488);stroke-width:2;stroke-linecap:round;stroke-linejoin:round;image-rendering:optimizeQuality;text-rendering:optimizeLegibility"
     id="g18885"
     transform="translate(673,193)"
     font-size="14.5068px">
    <path
       inkscape:connector-curvature="0"
       style="fill:url(#linearGradient19484);stroke:none"
       id="path18881"
       clip-path="url(#clipPath12)"
       d="m 1,31 v 0 c 0,16.5685 13.4315,30 30,30 v 0 C 47.5685,61 61,47.5685 61,31 v 0 C 61,14.4315 47.5685,1 31,1 V 1 C 14.4315,1 1,14.4315 1,31 Z" />
    <path
       style="fill:none;stroke:#000000"
       inkscape:connector-curvature="0"
       id="path18883"
       clip-path="url(#clipPath12)"
       d="m 1,31 v 0 c 0,16.5685 13.4315,30 30,30 v 0 C 47.5685,61 61,47.5685 61,31 v 0 C 61,14.4315 47.5685,1 31,1 V 1 C 14.4315,1 1,14.4315 1,31 Z" />
  </g>
  <g
     style="font-size:14px;font-family:Arial;image-rendering:optimizeQuality;text-rendering:optimizeLegibility"
     id="g18889"
     transform="translate(686,215)"
     font-size="14px">
    <text
       style="stroke:none"
       id="text18887"
       clip-path="url(#clipPath14)"
       y="14"
       xml:space="preserve"
       x="5">ATP</text>
  </g>
  <g
     style="font-size:14.5067997px;font-family:Cantarell;fill:#ffffff;stroke:#ffffff;stroke-width:2;stroke-linecap:round;stroke-linejoin:round;image-rendering:optimizeQuality;text-rendering:optimizeLegibility"
     id="g18895"
     transform="translate(771,131)"
     font-size="14.5068px">
    <path
       style="stroke:none"
       inkscape:connector-curvature="0"
       id="path18891"
       clip-path="url(#clipPath15)"
       d="M 1,1 H 25 V 25 H 1 Z" />
    <path
       style="fill:none;stroke:#000000"
       inkscape:connector-curvature="0"
       id="path18893"
       clip-path="url(#clipPath15)"
       d="M 1,1 H 25 V 25 H 1 Z" />
  </g>
  <g
     style="font-size:14.5067997px;font-family:Cantarell;stroke-width:1.5;stroke-linecap:butt;stroke-linejoin:round;image-rendering:optimizeQuality;text-rendering:optimizeLegibility"
     id="g18899"
     transform="translate(722,144)"
     font-size="14.5068px">
    <path
       style="fill:none"
       inkscape:connector-curvature="0"
       id="path18897"
       clip-path="url(#clipPath16)"
       d="M 0.75,54.4635 38.3494,0.75 h 10.5" />
  </g>
  <g
     style="font-size:14.5067997px;font-family:Cantarell;stroke-width:1.5;stroke-linecap:butt;stroke-linejoin:round;image-rendering:optimizeQuality;text-rendering:optimizeLegibility"
     id="g18903"
     transform="translate(729,144)"
     font-size="14.5068px">
    <path
       style="fill:none"
       inkscape:connector-curvature="0"
       id="path18901"
       clip-path="url(#clipPath17)"
       d="m 0.75,0.75 h 30.5 10.5" />
  </g>
  <g
     style="font-size:14.5067997px;font-family:Cantarell;stroke-width:1.5;stroke-linecap:butt;stroke-linejoin:round;image-rendering:optimizeQuality;text-rendering:optimizeLegibility"
     id="g18909"
     transform="translate(797,144)"
     font-size="14.5068px">
    <path
       style="fill:none"
       inkscape:connector-curvature="0"
       id="path18905"
       clip-path="url(#clipPath18)"
       d="m 0.75,0.75 h 10.5 l 30.1014,45.6897" />
    <path
       style="stroke:none"
       inkscape:connector-curvature="0"
       id="path18907"
       clip-path="url(#clipPath18)"
       d="m 47.6144,42.3135 -12.5259,8.2524 14.5153,8.3997 z" />
  </g>
  <g
     style="font-size:14.5067997px;font-family:Cantarell;stroke-width:1.5;stroke-linecap:butt;stroke-linejoin:round;image-rendering:optimizeQuality;text-rendering:optimizeLegibility"
     id="g18915"
     transform="translate(797,136)"
     font-size="14.5068px">
    <path
       style="fill:none"
       inkscape:connector-curvature="0"
       id="path18911"
       clip-path="url(#clipPath19)"
       d="m 0.75,8.25 h 10.5 35.5" />
    <path
       style="stroke:none"
       inkscape:connector-curvature="0"
       id="path18913"
       clip-path="url(#clipPath19)"
       d="m 46.75,0.75 v 15 l 15,-7.5 z" />
  </g>
  <g
     style="font-size:14.5067997px;font-family:Cantarell;fill:#ffffff;stroke:#ffffff;stroke-width:4;stroke-linecap:round;stroke-linejoin:round;image-rendering:optimizeQuality;text-rendering:optimizeLegibility;fill-opacity:0.39215687"
     id="g18921"
     transform="translate(802,182)"
     font-size="14.5068px">
    <path
       style="stroke:none;fill:#ffffff;fill-opacity:0.39215687"
       inkscape:connector-curvature="0"
       id="path18917"
       clip-path="url(#clipPath20)"
       d="m 2,32 v 140 c 0,16.5685 13.4315,30 30,30 h 180 c 16.5685,0 30,-13.4315 30,-30 V 32 C 242,15.4315 228.5685,2 212,2 H 32 C 15.4315,2 2,15.4315 2,32 Z" />
    <path
       style="fill:#ffffff;stroke:#000000;fill-opacity:0.39215687"
       inkscape:connector-curvature="0"
       id="path18919"
       clip-path="url(#clipPath20)"
       d="m 2,32 v 140 c 0,16.5685 13.4315,30 30,30 h 180 c 16.5685,0 30,-13.4315 30,-30 V 32 C 242,15.4315 228.5685,2 212,2 H 32 C 15.4315,2 2,15.4315 2,32 Z" />
  </g>
  <g
     style="font-family:Arial;image-rendering:optimizeQuality;text-rendering:optimizeLegibility"
     id="g18925"
     transform="translate(904,362)">
    <text
       style="stroke:none"
       id="text18923"
       clip-path="url(#clipPath22)"
       y="13"
       xml:space="preserve"
       x="6">MITO</text>
  </g>
</svg>
