<?xml version="1.0" encoding="UTF-8" standalone="no"?>
<svg
   xmlns:dc="http://purl.org/dc/elements/1.1/"
   xmlns:cc="http://creativecommons.org/ns#"
   xmlns:rdf="http://www.w3.org/1999/02/22-rdf-syntax-ns#"
   xmlns:svg="http://www.w3.org/2000/svg"
   xmlns="http://www.w3.org/2000/svg"
   xmlns:sodipodi="http://sodipodi.sourceforge.net/DTD/sodipodi-0.dtd"
   xmlns:inkscape="http://www.inkscape.org/namespaces/inkscape"
   fill-opacity="1"
   color-rendering="auto"
   color-interpolation="auto"
   text-rendering="auto"
   stroke="black"
   stroke-linecap="square"
   width="1016"
   stroke-miterlimit="10"
   shape-rendering="auto"
   stroke-opacity="1"
   fill="black"
   stroke-dasharray="none"
   font-weight="normal"
   stroke-width="1"
   height="576"
   font-family="'Dialog'"
   font-style="normal"
   stroke-linejoin="miter"
   font-size="12px"
   stroke-dashoffset="0"
   image-rendering="auto"
   version="1.1"
   id="svg2083"
   sodipodi:docname="dissociation.inkscape.svg"
   inkscape:version="0.92.2 2405546, 2018-03-11">
  <metadata
     id="metadata2087">
    <rdf:RDF>
      <cc:Work
         rdf:about="">
        <dc:format>image/svg+xml</dc:format>
        <dc:type
           rdf:resource="http://purl.org/dc/dcmitype/StillImage" />
        <dc:title></dc:title>
      </cc:Work>
    </rdf:RDF>
  </metadata>
  <sodipodi:namedview
     pagecolor="#ffffff"
     bordercolor="#666666"
     borderopacity="1"
     objecttolerance="10"
     gridtolerance="10"
     guidetolerance="10"
     inkscape:pageopacity="0"
     inkscape:pageshadow="2"
     inkscape:window-width="1916"
     inkscape:window-height="1120"
     id="namedview2085"
     showgrid="false"
     inkscape:zoom="0.93816923"
     inkscape:cx="433.60592"
     inkscape:cy="248.89283"
     inkscape:window-x="1920"
     inkscape:window-y="78"
     inkscape:window-maximized="0"
     inkscape:current-layer="svg2083" />
  <!--Generated by the Batik Graphics2D SVG Generator-->
  <defs
     id="genericDefs">
    <defs
       id="defs1">
      <clipPath
         id="clipPath1"
         clipPathUnits="userSpaceOnUse">
        <path
           id="path1999"
           d="M0 0 L1180 0 L1180 728 L0 728 L0 0 Z" />
      </clipPath>
      <clipPath
         id="clipPath2"
         clipPathUnits="userSpaceOnUse">
        <path
           id="path2002"
           d="M0 0 L0 64 L112 64 L112 0 Z" />
      </clipPath>
      <clipPath
         id="clipPath3"
         clipPathUnits="userSpaceOnUse">
        <path
           id="path2005"
           d="M0 0 L0 36 L47 36 L47 0 Z" />
      </clipPath>
      <clipPath
         id="clipPath4"
         clipPathUnits="userSpaceOnUse">
        <path
           id="path2008"
           d="M0 0 L0 28 L28 28 L28 0 Z" />
      </clipPath>
      <clipPath
         id="clipPath5"
         clipPathUnits="userSpaceOnUse">
        <path
           id="path2011"
           d="M0 0 L0 2 L13 2 L13 0 Z" />
      </clipPath>
      <clipPath
         id="clipPath6"
         clipPathUnits="userSpaceOnUse">
        <path
           id="path2014"
           d="M0 0 L0 3 L38 3 L38 0 Z" />
      </clipPath>
      <clipPath
         id="clipPath7"
         clipPathUnits="userSpaceOnUse">
        <path
           id="path2017"
           d="M0 0 L0 3 L15 3 L15 0 Z" />
      </clipPath>
    </defs>
  </defs>
  <g
     id="g2692"
     transform="rotate(-180,233.98888,129.5)">
    <g
       font-size="14.5068px"
       transform="translate(180,129)"
       id="g2029"
       style="font-size:14.5067997px;font-family:Cantarell;fill:#acacac;stroke:#acacac;stroke-width:1.5;stroke-linecap:butt;stroke-linejoin:round;image-rendering:optimizeQuality;text-rendering:optimizeLegibility">
      <path
         d="M 0.75,34.25 35.2808,0.75 h 10.5"
         clip-path="url(#clipPath3)"
         id="path2027"
         inkscape:connector-curvature="0"
         style="fill:none" />
    </g>
    <g
       font-size="14.5068px"
       transform="translate(180,95)"
       id="g2033"
       style="font-size:14.5067997px;font-family:Cantarell;fill:#acacac;stroke:#acacac;stroke-width:1.5;stroke-linecap:butt;stroke-linejoin:round;image-rendering:optimizeQuality;text-rendering:optimizeLegibility">
      <path
         d="m 0.75,0.75 34.5308,33.5 h 10.5"
         clip-path="url(#clipPath3)"
         id="path2031"
         inkscape:connector-curvature="0"
         style="fill:none" />
    </g>
    <g
       font-size="14.5068px"
       transform="translate(226,116)"
       id="g2067"
       style="font-size:14.5067997px;font-family:Cantarell;fill:#fefefe;stroke:#fefefe;stroke-width:2;stroke-linecap:round;stroke-linejoin:round;image-rendering:optimizeQuality;text-rendering:optimizeLegibility">
      <path
         d="M 25,13 C 25,19.6274 19.6274,25 13,25 6.3726,25 1,19.6274 1,13 1,6.3726 6.3726,1 13,1 19.6274,1 25,6.3726 25,13 Z"
         clip-path="url(#clipPath4)"
         id="path2059"
         inkscape:connector-curvature="0"
         style="stroke:none" />
      <path
         d="M 25,13 C 25,19.6274 19.6274,25 13,25 6.3726,25 1,19.6274 1,13 1,6.3726 6.3726,1 13,1 19.6274,1 25,6.3726 25,13 Z"
         clip-path="url(#clipPath4)"
         id="path2061"
         inkscape:connector-curvature="0"
         style="fill:none;stroke:#010101" />
      <path
         d="m 19,13 c 0,3.3137 -2.6863,6 -6,6 -3.3137,0 -6,-2.6863 -6,-6 0,-3.3137 2.6863,-6 6,-6 3.3137,0 6,2.6863 6,6 z"
         clip-path="url(#clipPath4)"
         id="path2063"
         inkscape:connector-curvature="0"
         style="stroke:none" />
      <path
         d="m 19,13 c 0,3.3137 -2.6863,6 -6,6 -3.3137,0 -6,-2.6863 -6,-6 0,-3.3137 2.6863,-6 6,-6 3.3137,0 6,2.6863 6,6 z"
         clip-path="url(#clipPath4)"
         id="path2065"
         inkscape:connector-curvature="0"
         style="fill:none;stroke:#010101" />
    </g>
    <g
       font-size="14.5068px"
       transform="translate(215,129)"
       id="g2071"
       style="font-size:14.5067997px;font-family:Cantarell;stroke-width:1.5;stroke-linecap:butt;stroke-linejoin:round;image-rendering:optimizeQuality;text-rendering:optimizeLegibility">
      <path
         d="m 0.75,0.75 v 0 h 10.5"
         clip-path="url(#clipPath5)"
         id="path2069"
         inkscape:connector-curvature="0"
         style="fill:none" />
    </g>
    <g
       font-size="14.5068px"
       transform="translate(252,129)"
       id="g2075"
       style="font-size:14.5067997px;font-family:Cantarell;fill:#acacac;stroke:#acacac;stroke-width:1.5;stroke-linecap:butt;stroke-linejoin:round;image-rendering:optimizeQuality;text-rendering:optimizeLegibility">
      <path
         d="m 0.75,0.75 h 35"
         clip-path="url(#clipPath6)"
         id="path2073"
         inkscape:connector-curvature="0"
         style="fill:none" />
    </g>
    <g
       font-size="14.5068px"
       transform="translate(252,129)"
       id="g2079"
       style="font-size:14.5067997px;font-family:Cantarell;stroke-width:1.5;stroke-linecap:butt;stroke-linejoin:round;image-rendering:optimizeQuality;text-rendering:optimizeLegibility">
      <path
         d="m 0.75,0.75 h 12"
         clip-path="url(#clipPath7)"
         id="path2077"
         inkscape:connector-curvature="0"
         style="fill:none" />
    </g>
  </g>
</svg>
