<?xml version="1.0" encoding="UTF-8" standalone="no"?>
<!-- Created with Bouml (http://bouml.free.fr/) -->
<!DOCTYPE svg PUBLIC "-//W3C//DTD SVG 1.1//EN" "http://www.w3.org/Graphics/SVG/1.1/DTD/svg11.dtd">
<svg width="1178" height="498" version="1.1" xmlns="http://www.w3.org/2000/svg">
<g>
	<rect fill="#cbcbcb" stroke="none" stroke-opacity="1" x="732" y="77" width="3" height="39" />
	<rect fill="#cbcbcb" stroke="none" stroke-opacity="1" x="616" y="113" width="119" height="3" />
	<rect fill="#ffffc0" stroke="black" stroke-width="1" stroke-opacity="1" x="612" y="73" width="120" height="40" />
	<text font-family="Helvetica" font-size="15" fill="#000000" xml:space="preserve" font-weight="bold" font-style="italic" text-anchor="middle" x="672" y="90">SBGNGlyph</text>
	<line stroke="black" stroke-opacity="1" x1="612" y1="98" x2="732" y2="98" />
	<line stroke="black" stroke-opacity="1" x1="612" y1="106" x2="732" y2="106" />
</g>
<g>
	<rect fill="#cbcbcb" stroke="none" stroke-opacity="1" x="980" y="235" width="3" height="39" />
	<rect fill="#cbcbcb" stroke="none" stroke-opacity="1" x="828" y="271" width="155" height="3" />
	<rect fill="#ffffc0" stroke="black" stroke-width="1" stroke-opacity="1" x="824" y="231" width="156" height="40" />
	<text font-family="Helvetica" font-size="15" fill="#000000" xml:space="preserve" font-weight="bold" text-anchor="middle" x="902" y="248">EquivalenceArc</text>
	<line stroke="black" stroke-opacity="1" x1="824" y1="256" x2="980" y2="256" />
	<line stroke="black" stroke-opacity="1" x1="824" y1="264" x2="980" y2="264" />
</g>
<g>
	<rect fill="#cbcbcb" stroke="none" stroke-opacity="1" x="747" y="236" width="3" height="39" />
	<rect fill="#cbcbcb" stroke="none" stroke-opacity="1" x="605" y="272" width="145" height="3" />
	<rect fill="#ffffc0" stroke="black" stroke-width="1" stroke-opacity="1" x="601" y="232" width="146" height="40" />
	<text font-family="Helvetica" font-size="15" fill="#000000" xml:space="preserve" font-weight="bold" text-anchor="middle" x="674" y="249">ModulationArc</text>
	<line stroke="black" stroke-opacity="1" x1="601" y1="257" x2="747" y2="257" />
	<line stroke="black" stroke-opacity="1" x1="601" y1="265" x2="747" y2="265" />
</g>
<g>
	<rect fill="#cbcbcb" stroke="none" stroke-opacity="1" x="1162" y="232" width="3" height="39" />
	<rect fill="#cbcbcb" stroke="none" stroke-opacity="1" x="1072" y="268" width="93" height="3" />
	<rect fill="#ffffc0" stroke="black" stroke-width="1" stroke-opacity="1" x="1068" y="228" width="94" height="40" />
	<text font-family="Helvetica" font-size="15" fill="#000000" xml:space="preserve" font-weight="bold" text-anchor="middle" x="1115" y="245">LogicArc</text>
	<line stroke="black" stroke-opacity="1" x1="1068" y1="253" x2="1162" y2="253" />
	<line stroke="black" stroke-opacity="1" x1="1068" y1="261" x2="1162" y2="261" />
</g>
<g>
	<rect fill="#cbcbcb" stroke="none" stroke-opacity="1" x="186" y="340" width="3" height="39" />
	<rect fill="#cbcbcb" stroke="none" stroke-opacity="1" x="46" y="376" width="143" height="3" />
	<rect fill="#ffffc0" stroke="black" stroke-width="1" stroke-opacity="1" x="42" y="336" width="144" height="40" />
	<text font-family="Helvetica" font-size="15" fill="#000000" xml:space="preserve" font-weight="bold" text-anchor="middle" x="114" y="353">ProductionArc</text>
	<line stroke="black" stroke-opacity="1" x1="42" y1="361" x2="186" y2="361" />
	<line stroke="black" stroke-opacity="1" x1="42" y1="369" x2="186" y2="369" />
</g>
<g>
	<rect fill="#cbcbcb" stroke="none" stroke-opacity="1" x="722" y="157" width="3" height="39" />
	<rect fill="#cbcbcb" stroke="none" stroke-opacity="1" x="628" y="193" width="97" height="3" />
	<rect fill="#ffffc0" stroke="black" stroke-width="1" stroke-opacity="1" x="624" y="153" width="98" height="40" />
	<text font-family="Helvetica" font-size="15" fill="#000000" xml:space="preserve" font-weight="bold" font-style="italic" text-anchor="middle" x="673" y="170">SBGNArc</text>
	<line stroke="black" stroke-opacity="1" x1="624" y1="178" x2="722" y2="178" />
	<line stroke="black" stroke-opacity="1" x1="624" y1="186" x2="722" y2="186" />
</g>
<g>
	<line stroke="#000000" stroke-opacity="1" x1="675" y1="231" x2="675" y2="203" />
	<line stroke="#000000" stroke-opacity="1" x1="675" y1="197" x2="669" y2="203" />
	<line stroke="#000000" stroke-opacity="1" x1="675" y1="197" x2="681" y2="203" />
	<line stroke="#000000" stroke-opacity="1" x1="669" y1="203" x2="681" y2="203" />
</g>
<g>
	<line stroke="#000000" stroke-opacity="1" x1="674" y1="152" x2="674" y2="123" />
	<line stroke="#000000" stroke-opacity="1" x1="674" y1="117" x2="668" y2="123" />
	<line stroke="#000000" stroke-opacity="1" x1="674" y1="117" x2="680" y2="123" />
	<line stroke="#000000" stroke-opacity="1" x1="668" y1="123" x2="680" y2="123" />
</g>
<g>
	<line stroke="#000000" stroke-opacity="1" x1="1067" y1="240" x2="731" y2="183" />
	<line stroke="#000000" stroke-opacity="1" x1="726" y1="183" x2="730" y2="189" />
	<line stroke="#000000" stroke-opacity="1" x1="726" y1="183" x2="732" y2="178" />
	<line stroke="#000000" stroke-opacity="1" x1="730" y1="189" x2="732" y2="178" />
</g>
<g>
	<line stroke="#000000" stroke-opacity="1" x1="134" y1="335" x2="178" y2="284" />
	<line stroke="#000000" stroke-opacity="1" x1="182" y1="280" x2="173" y2="280" />
	<line stroke="#000000" stroke-opacity="1" x1="182" y1="280" x2="182" y2="288" />
	<line stroke="#000000" stroke-opacity="1" x1="173" y1="280" x2="182" y2="288" />
</g>
<g>
	<line stroke="#000000" stroke-opacity="1" x1="672" y1="337" x2="673" y2="281" />
	<line stroke="#000000" stroke-opacity="1" x1="674" y1="276" x2="667" y2="281" />
	<line stroke="#000000" stroke-opacity="1" x1="674" y1="276" x2="679" y2="282" />
	<line stroke="#000000" stroke-opacity="1" x1="667" y1="281" x2="679" y2="282" />
</g>
<g>
	<line stroke="#000000" stroke-opacity="1" x1="529" y1="335" x2="625" y2="279" />
	<line stroke="#000000" stroke-opacity="1" x1="631" y1="276" x2="622" y2="273" />
	<line stroke="#000000" stroke-opacity="1" x1="631" y1="276" x2="628" y2="284" />
	<line stroke="#000000" stroke-opacity="1" x1="622" y1="273" x2="628" y2="284" />
</g>
<g>
	<line stroke="#000000" stroke-opacity="1" x1="841" y1="230" x2="731" y2="192" />
	<line stroke="#000000" stroke-opacity="1" x1="726" y1="191" x2="729" y2="198" />
	<line stroke="#000000" stroke-opacity="1" x1="726" y1="191" x2="733" y2="187" />
	<line stroke="#000000" stroke-opacity="1" x1="729" y1="198" x2="733" y2="187" />
</g>
<g>
	<rect fill="#cbcbcb" stroke="none" stroke-opacity="1" x="394" y="339" width="3" height="39" />
	<rect fill="#cbcbcb" stroke="none" stroke-opacity="1" x="230" y="375" width="167" height="3" />
	<rect fill="#ffffc0" stroke="black" stroke-width="1" stroke-opacity="1" x="226" y="335" width="168" height="40" />
	<text font-family="Helvetica" font-size="15" fill="#000000" xml:space="preserve" font-weight="bold" text-anchor="middle" x="310" y="352">ConsumptionArc</text>
	<line stroke="black" stroke-opacity="1" x1="226" y1="360" x2="394" y2="360" />
	<line stroke="black" stroke-opacity="1" x1="226" y1="368" x2="394" y2="368" />
</g>
<g>
	<line stroke="#000000" stroke-opacity="1" x1="291" y1="334" x2="245" y2="284" />
	<line stroke="#000000" stroke-opacity="1" x1="241" y1="280" x2="240" y2="288" />
	<line stroke="#000000" stroke-opacity="1" x1="241" y1="280" x2="249" y2="280" />
	<line stroke="#000000" stroke-opacity="1" x1="240" y1="288" x2="249" y2="280" />
</g>
<g>
	<rect fill="#cbcbcb" stroke="none" stroke-opacity="1" x="744" y="342" width="3" height="39" />
	<rect fill="#cbcbcb" stroke="none" stroke-opacity="1" x="600" y="378" width="147" height="3" />
	<rect fill="#ffffc0" stroke="black" stroke-width="1" stroke-opacity="1" x="596" y="338" width="148" height="40" />
	<text font-family="Helvetica" font-size="15" fill="#000000" xml:space="preserve" font-weight="bold" text-anchor="middle" x="670" y="355">StimulationArc</text>
	<line stroke="black" stroke-opacity="1" x1="596" y1="363" x2="744" y2="363" />
	<line stroke="black" stroke-opacity="1" x1="596" y1="371" x2="744" y2="371" />
</g>
<g>
	<line stroke="#000000" stroke-opacity="1" x1="667" y1="441" x2="668" y2="387" />
	<line stroke="#000000" stroke-opacity="1" x1="669" y1="382" x2="662" y2="387" />
	<line stroke="#000000" stroke-opacity="1" x1="669" y1="382" x2="674" y2="388" />
	<line stroke="#000000" stroke-opacity="1" x1="662" y1="387" x2="674" y2="388" />
</g>
<g>
	<rect fill="#cbcbcb" stroke="none" stroke-opacity="1" x="272" y="222" width="3" height="57" />
	<rect fill="#cbcbcb" stroke="none" stroke-opacity="1" x="152" y="276" width="123" height="3" />
	<rect fill="#ffffc0" stroke="black" stroke-width="1" stroke-opacity="1" x="148" y="218" width="124" height="58" />
	<text font-family="Helvetica" font-size="15" fill="#000000" xml:space="preserve" font-weight="bold" font-style="italic" text-anchor="middle" x="210" y="235">FluxArc</text>
	<line stroke="black" stroke-opacity="1" x1="148" y1="243" x2="272" y2="243" />
	<text font-family="Helvetica" font-size="15" fill="#000000" xml:space="preserve" x="152" y="260">stoichiometry</text>
	<line stroke="black" stroke-opacity="1" x1="148" y1="268" x2="272" y2="268" />
</g>
<g>
	<line stroke="#000000" stroke-opacity="1" x1="276" y1="236" x2="617" y2="182" />
	<line stroke="#000000" stroke-opacity="1" x1="623" y1="182" x2="616" y2="176" />
	<line stroke="#000000" stroke-opacity="1" x1="623" y1="182" x2="617" y2="188" />
	<line stroke="#000000" stroke-opacity="1" x1="616" y1="176" x2="617" y2="188" />
</g>
<g>
	<rect fill="#cbcbcb" stroke="none" stroke-opacity="1" x="729" y="446" width="3" height="39" />
	<rect fill="#cbcbcb" stroke="none" stroke-opacity="1" x="605" y="482" width="127" height="3" />
	<rect fill="#ffffc0" stroke="black" stroke-width="1" stroke-opacity="1" x="601" y="442" width="128" height="40" />
	<text font-family="Helvetica" font-size="15" fill="#000000" xml:space="preserve" font-weight="bold" text-anchor="middle" x="665" y="459">CatalysisArc</text>
	<line stroke="black" stroke-opacity="1" x1="601" y1="467" x2="729" y2="467" />
	<line stroke="black" stroke-opacity="1" x1="601" y1="475" x2="729" y2="475" />
</g>
<g>
	<rect fill="#cbcbcb" stroke="none" stroke-opacity="1" x="556" y="340" width="3" height="39" />
	<rect fill="#cbcbcb" stroke="none" stroke-opacity="1" x="430" y="376" width="129" height="3" />
	<rect fill="#ffffc0" stroke="black" stroke-width="1" stroke-opacity="1" x="426" y="336" width="130" height="40" />
	<text font-family="Helvetica" font-size="15" fill="#000000" xml:space="preserve" font-weight="bold" text-anchor="middle" x="491" y="353">InhibitionArc</text>
	<line stroke="black" stroke-opacity="1" x1="426" y1="361" x2="556" y2="361" />
	<line stroke="black" stroke-opacity="1" x1="426" y1="369" x2="556" y2="369" />
</g>
<g>
	<rect fill="#cbcbcb" stroke="none" stroke-opacity="1" x="1032" y="343" width="3" height="39" />
	<rect fill="#cbcbcb" stroke="none" stroke-opacity="1" x="788" y="379" width="247" height="3" />
	<rect fill="#ffffc0" stroke="black" stroke-width="1" stroke-opacity="1" x="784" y="339" width="248" height="40" />
	<text font-family="Helvetica" font-size="15" fill="#000000" xml:space="preserve" font-weight="bold" text-anchor="middle" x="908" y="356">NecessaryStimulationArc</text>
	<line stroke="black" stroke-opacity="1" x1="784" y1="364" x2="1032" y2="364" />
	<line stroke="black" stroke-opacity="1" x1="784" y1="372" x2="1032" y2="372" />
</g>
<g>
	<line stroke="#000000" stroke-opacity="1" x1="862" y1="338" x2="731" y2="278" />
	<line stroke="#000000" stroke-opacity="1" x1="726" y1="276" x2="728" y2="283" />
	<line stroke="#000000" stroke-opacity="1" x1="726" y1="276" x2="733" y2="273" />
	<line stroke="#000000" stroke-opacity="1" x1="728" y1="283" x2="733" y2="273" />
</g>
</svg>
