<?xml version="1.0" encoding="UTF-8" standalone="no"?>
<svg
   xmlns:dc="http://purl.org/dc/elements/1.1/"
   xmlns:cc="http://creativecommons.org/ns#"
   xmlns:rdf="http://www.w3.org/1999/02/22-rdf-syntax-ns#"
   xmlns:svg="http://www.w3.org/2000/svg"
   xmlns="http://www.w3.org/2000/svg"
   xmlns:sodipodi="http://sodipodi.sourceforge.net/DTD/sodipodi-0.dtd"
   xmlns:inkscape="http://www.inkscape.org/namespaces/inkscape"
   fill-opacity="1"
   color-rendering="auto"
   color-interpolation="auto"
   text-rendering="auto"
   stroke="black"
   stroke-linecap="square"
   width="631"
   stroke-miterlimit="10"
   shape-rendering="auto"
   stroke-opacity="1"
   fill="black"
   stroke-dasharray="none"
   font-weight="normal"
   stroke-width="1"
   height="182"
   font-family="'Dialog'"
   font-style="normal"
   stroke-linejoin="miter"
   font-size="12px"
   stroke-dashoffset="0"
   image-rendering="auto"
   version="1.1"
   id="svg5307"
   sodipodi:docname="stateVariable.inkscape.svg"
   inkscape:version="0.92.4 5da689c313, 2019-01-14">
  <metadata
     id="metadata5311">
    <rdf:RDF>
      <cc:Work
         rdf:about="">
        <dc:format>image/svg+xml</dc:format>
        <dc:type
           rdf:resource="http://purl.org/dc/dcmitype/StillImage" />
        <dc:title></dc:title>
      </cc:Work>
    </rdf:RDF>
  </metadata>
  <sodipodi:namedview
     pagecolor="#ffffff"
     bordercolor="#666666"
     borderopacity="1"
     objecttolerance="10"
     gridtolerance="10"
     guidetolerance="10"
     inkscape:pageopacity="0"
     inkscape:pageshadow="2"
     inkscape:window-width="1916"
     inkscape:window-height="1120"
     id="namedview5309"
     showgrid="false"
     inkscape:zoom="1.5105863"
     inkscape:cx="282.93844"
     inkscape:cy="85.560334"
     inkscape:window-x="1920"
     inkscape:window-y="78"
     inkscape:window-maximized="0"
     inkscape:current-layer="g5263" />
  <!--Generated by the Batik Graphics2D SVG Generator-->
  <defs
     id="genericDefs">
    <defs
       id="defs1">
      <clipPath
         id="clipPath1"
         clipPathUnits="userSpaceOnUse">
        <path
           id="path5202"
           d="M0 0 L975 0 L975 650 L0 650 L0 0 Z" />
      </clipPath>
      <clipPath
         id="clipPath2"
         clipPathUnits="userSpaceOnUse">
        <path
           id="path5205"
           d="M0 0 L0 34 L44 34 L44 0 Z" />
      </clipPath>
      <clipPath
         id="clipPath3"
         clipPathUnits="userSpaceOnUse">
        <path
           id="path5208"
           d="M0 0 L0 27 L38 27 L38 0 Z" />
      </clipPath>
      <clipPath
         id="clipPath4"
         clipPathUnits="userSpaceOnUse">
        <path
           id="path5211"
           d="M0 0 L0 26 L37 26 L37 0 Z" />
      </clipPath>
      <clipPath
         id="clipPath5"
         clipPathUnits="userSpaceOnUse">
        <path
           id="path5214"
           d="M0 0 L0 64 L112 64 L112 0 Z" />
      </clipPath>
      <clipPath
         id="clipPath6"
         clipPathUnits="userSpaceOnUse">
        <path
           id="path5217"
           d="M0 0 L0 27 L72 27 L72 0 Z" />
      </clipPath>
      <clipPath
         id="clipPath7"
         clipPathUnits="userSpaceOnUse">
        <path
           id="path5220"
           d="M0 0 L0 26 L71 26 L71 0 Z" />
      </clipPath>
      <clipPath
         id="clipPath8"
         clipPathUnits="userSpaceOnUse">
        <path
           id="path5223"
           d="M0 0 L0 18 L55 18 L55 0 Z" />
      </clipPath>
      <clipPath
         id="clipPath9"
         clipPathUnits="userSpaceOnUse">
        <path
           id="path5226"
           d="M0 0 L0 17 L54 17 L54 0 Z" />
      </clipPath>
      <clipPath
         id="clipPath10"
         clipPathUnits="userSpaceOnUse">
        <path
           id="path5229"
           d="M0 0 L0 34 L94 34 L94 0 Z" />
      </clipPath>
      <clipPath
         id="clipPath11"
         clipPathUnits="userSpaceOnUse">
        <path
           id="path5232"
           d="M0 0 L0 27 L82 27 L82 0 Z" />
      </clipPath>
      <clipPath
         id="clipPath12"
         clipPathUnits="userSpaceOnUse">
        <path
           id="path5235"
           d="M0 0 L0 26 L81 26 L81 0 Z" />
      </clipPath>
      <clipPath
         id="clipPath13"
         clipPathUnits="userSpaceOnUse">
        <path
           id="path5238"
           d="M0 0 L0 27 L35 27 L35 0 Z" />
      </clipPath>
      <clipPath
         id="clipPath14"
         clipPathUnits="userSpaceOnUse">
        <path
           id="path5241"
           d="M0 0 L0 26 L34 26 L34 0 Z" />
      </clipPath>
    </defs>
  </defs>
  <g
     style="font-size:14.5067997px;font-family:Cantarell;fill:#ffffff;stroke:#ffffff;stroke-width:2;stroke-linecap:round;stroke-linejoin:round;image-rendering:optimizeQuality;text-rendering:optimizeLegibility"
     id="g5249"
     transform="translate(363,148)"
     font-size="14.5068px">
    <path
       style="stroke:none"
       inkscape:connector-curvature="0"
       id="path5245"
       clip-path="url(#clipPath2)"
       d="m 1,16 v 0 c 0,8.2843 6.7157,15 15,15 h 10 c 8.2843,0 15,-6.7157 15,-15 v 0 C 41,7.7157 34.2843,1 26,1 H 16 C 7.7157,1 1,7.7157 1,16 Z" />
    <path
       style="fill:none;stroke:#fefefe"
       inkscape:connector-curvature="0"
       id="path5247"
       clip-path="url(#clipPath2)"
       d="m 1,16 v 0 c 0,8.2843 6.7157,15 15,15 h 10 c 8.2843,0 15,-6.7157 15,-15 v 0 C 41,7.7157 34.2843,1 26,1 H 16 C 7.7157,1 1,7.7157 1,16 Z" />
  </g>
  <g
     style="font-size:20px;font-family:Arial;image-rendering:optimizeQuality;text-rendering:optimizeLegibility"
     id="g5253"
     transform="translate(366,151)"
     font-size="20px">
    <text
       style="stroke:none"
       id="text5251"
       clip-path="url(#clipPath4)"
       y="20"
       xml:space="preserve"
       x="5">var</text>
  </g>
  <g
     style="font-size:14.5067997px;font-family:Cantarell;fill:#ffffff;stroke:#acacac;stroke-width:2;stroke-linecap:round;stroke-linejoin:round;image-rendering:optimizeQuality;text-rendering:optimizeLegibility;stroke-opacity:1"
     id="g5259"
     transform="translate(519,113)"
     font-size="14.5068px">
    <path
       style="stroke:#acacac;stroke-opacity:1"
       inkscape:connector-curvature="0"
       id="path5255"
       clip-path="url(#clipPath5)"
       d="m 1,8.5 v 45 C 1,57.6421 4.3579,61 8.5,61 h 93 c 4.1421,0 7.5,-3.3579 7.5,-7.5 V 8.5 C 109,4.3579 105.6421,1 101.5,1 H 8.5 C 4.3579,1 1,4.3579 1,8.5 Z" />
    <path
       style="fill:none;stroke:#acacac;stroke-opacity:1"
       inkscape:connector-curvature="0"
       id="path5257"
       clip-path="url(#clipPath5)"
       d="m 1,8.5 v 45 C 1,57.6421 4.3579,61 8.5,61 h 93 c 4.1421,0 7.5,-3.3579 7.5,-7.5 V 8.5 C 109,4.3579 105.6421,1 101.5,1 H 8.5 C 4.3579,1 1,4.3579 1,8.5 Z" />
  </g>
  <g
     style="font-size:20px;font-family:Arial;image-rendering:optimizeQuality;text-rendering:optimizeLegibility"
     id="g5263"
     transform="translate(539,131)"
     font-size="20px">
    <text
       style="stroke:none;stroke-opacity:1;fill:#acacac;fill-opacity:1;"
       id="text5261"
       clip-path="url(#clipPath7)"
       y="20"
       xml:space="preserve"
       x="5">LABEL</text>
  </g>
  <g
     style="font-size:10px;font-family:Arial;fill:#ffffff;stroke:#ffffff;stroke-width:2;image-rendering:optimizeQuality;text-rendering:optimizeLegibility"
     id="g5269"
     transform="translate(547,105)"
     font-size="10px">
    <rect
       style="stroke:none"
       id="rect5265"
       height="14"
       ry="7"
       rx="7"
       width="51"
       clip-path="url(#clipPath9)"
       y="1.5"
       x="1.5" />
    <rect
       style="fill:none;stroke:#000000"
       id="rect5267"
       height="14"
       ry="7"
       rx="7"
       width="51"
       clip-path="url(#clipPath9)"
       y="1.5"
       x="1.5" />
  </g>
  <g
     style="font-size:10px;font-family:Arial;stroke-width:2;image-rendering:optimizeQuality;text-rendering:optimizeLegibility"
     id="g5273"
     transform="translate(547,105)"
     font-size="10px">
    <text
       style="stroke:none"
       id="text5271"
       clip-path="url(#clipPath9)"
       y="12"
       xml:space="preserve"
       x="8">val@var</text>
  </g>
  <g
     style="font-size:14.5067997px;font-family:Cantarell;fill:#ffffff;stroke:#ffffff;stroke-width:2;stroke-linecap:round;stroke-linejoin:round;image-rendering:optimizeQuality;text-rendering:optimizeLegibility"
     id="g5279"
     transform="translate(118,128)"
     font-size="14.5068px">
    <path
       style="stroke:none"
       inkscape:connector-curvature="0"
       id="path5275"
       clip-path="url(#clipPath10)"
       d="m 1,16 v 0 c 0,8.2843 6.7157,15 15,15 h 60 c 8.2843,0 15,-6.7157 15,-15 v 0 C 91,7.7157 84.2843,1 76,1 H 16 C 7.7157,1 1,7.7157 1,16 Z" />
    <path
       style="fill:none;stroke:#000000"
       inkscape:connector-curvature="0"
       id="path5277"
       clip-path="url(#clipPath10)"
       d="m 1,16 v 0 c 0,8.2843 6.7157,15 15,15 h 60 c 8.2843,0 15,-6.7157 15,-15 v 0 C 91,7.7157 84.2843,1 76,1 H 16 C 7.7157,1 1,7.7157 1,16 Z" />
  </g>
  <g
     style="font-size:20px;font-family:Arial;image-rendering:optimizeQuality;text-rendering:optimizeLegibility"
     id="g5283"
     transform="translate(124,131)"
     font-size="20px">
    <text
       style="stroke:none"
       id="text5281"
       clip-path="url(#clipPath12)"
       y="20"
       xml:space="preserve"
       x="5">val@var</text>
  </g>
  <g
     style="font-size:14.5067997px;font-family:Cantarell;fill:#ffffff;stroke:#ffffff;stroke-width:2;stroke-linecap:round;stroke-linejoin:round;image-rendering:optimizeQuality;text-rendering:optimizeLegibility"
     id="g5289"
     transform="translate(398,128)"
     font-size="14.5068px">
    <path
       style="stroke:none"
       inkscape:connector-curvature="0"
       id="path5285"
       clip-path="url(#clipPath2)"
       d="m 1,16 v 0 c 0,8.2843 6.7157,15 15,15 h 10 c 8.2843,0 15,-6.7157 15,-15 v 0 C 41,7.7157 34.2843,1 26,1 H 16 C 7.7157,1 1,7.7157 1,16 Z" />
    <path
       style="fill:none;stroke:#000000"
       inkscape:connector-curvature="0"
       id="path5287"
       clip-path="url(#clipPath2)"
       d="m 1,16 v 0 c 0,8.2843 6.7157,15 15,15 h 10 c 8.2843,0 15,-6.7157 15,-15 v 0 C 41,7.7157 34.2843,1 26,1 H 16 C 7.7157,1 1,7.7157 1,16 Z" />
  </g>
  <g
     style="font-size:20px;font-family:Arial;image-rendering:optimizeQuality;text-rendering:optimizeLegibility"
     id="g5293"
     transform="translate(402,131)"
     font-size="20px">
    <text
       style="stroke:none"
       id="text5291"
       clip-path="url(#clipPath14)"
       y="20"
       xml:space="preserve"
       x="5">val</text>
  </g>
  <g
     style="font-size:14.5067997px;font-family:Cantarell;fill:#ffffff;stroke:#ffffff;stroke-width:2;stroke-linecap:round;stroke-linejoin:round;image-rendering:optimizeQuality;text-rendering:optimizeLegibility"
     id="g5299"
     transform="translate(278,128)"
     font-size="14.5068px">
    <path
       style="stroke:none"
       inkscape:connector-curvature="0"
       id="path5295"
       clip-path="url(#clipPath2)"
       d="m 1,16 v 0 c 0,8.2843 6.7157,15 15,15 h 10 c 8.2843,0 15,-6.7157 15,-15 v 0 C 41,7.7157 34.2843,1 26,1 H 16 C 7.7157,1 1,7.7157 1,16 Z" />
    <path
       style="fill:none;stroke:#000000"
       inkscape:connector-curvature="0"
       id="path5297"
       clip-path="url(#clipPath2)"
       d="m 1,16 v 0 c 0,8.2843 6.7157,15 15,15 h 10 c 8.2843,0 15,-6.7157 15,-15 v 0 C 41,7.7157 34.2843,1 26,1 H 16 C 7.7157,1 1,7.7157 1,16 Z" />
  </g>
  <g
     style="font-size:20px;font-family:Arial;image-rendering:optimizeQuality;text-rendering:optimizeLegibility"
     id="g5303"
     transform="translate(282,131)"
     font-size="20px">
    <text
       style="stroke:none"
       id="text5301"
       clip-path="url(#clipPath14)"
       y="20"
       xml:space="preserve"
       x="5">val</text>
  </g>
</svg>
