<?xml version="1.0" encoding="UTF-8" standalone="no"?>
<!-- Generator: Adobe Illustrator 12.0.1, SVG Export Plug-In . SVG Version: 6.00 Build 51448)  -->

<svg
   xmlns:dc="http://purl.org/dc/elements/1.1/"
   xmlns:cc="http://creativecommons.org/ns#"
   xmlns:rdf="http://www.w3.org/1999/02/22-rdf-syntax-ns#"
   xmlns:svg="http://www.w3.org/2000/svg"
   xmlns="http://www.w3.org/2000/svg"
   xmlns:sodipodi="http://sodipodi.sourceforge.net/DTD/sodipodi-0.dtd"
   xmlns:inkscape="http://www.inkscape.org/namespaces/inkscape"
   version="1.0"
   id="Layer_1"
   width="430"
   height="420"
   viewBox="0 0 429.109 417.841"
   overflow="visible"
   enable-background="new 0 0 429.109 417.841"
   xml:space="preserve"
   sodipodi:version="0.32"
   inkscape:version="0.48.3.1 r9886"
   sodipodi:docname="MAPK-TwoVar.svg"
   inkscape:output_extension="org.inkscape.output.svg.inkscape"
   inkscape:export-filename="/home/lenov/SBGN/svn/sbgn/ProcessDiagram/trunk/UserManual/images/MAPK-twoVar.png"
   inkscape:export-xdpi="150"
   inkscape:export-ydpi="150"
   style="overflow:visible"><metadata
   id="metadata414"><rdf:RDF><cc:Work
       rdf:about=""><dc:format>image/svg+xml</dc:format><dc:type
         rdf:resource="http://purl.org/dc/dcmitype/StillImage" /><dc:title /></cc:Work></rdf:RDF></metadata><defs
   id="defs412"><inkscape:perspective
     sodipodi:type="inkscape:persp3d"
     inkscape:vp_x="0 : 208.9205 : 1"
     inkscape:vp_y="0 : 1000 : 0"
     inkscape:vp_z="429.10901 : 208.9205 : 1"
     inkscape:persp3d-origin="214.5545 : 139.28033 : 1"
     id="perspective197" /></defs><sodipodi:namedview
   inkscape:window-height="1029"
   inkscape:window-width="1680"
   inkscape:pageshadow="2"
   inkscape:pageopacity="0.0"
   guidetolerance="10.0"
   gridtolerance="10.0"
   objecttolerance="10.0"
   borderopacity="1.0"
   bordercolor="#666666"
   pagecolor="#ffffff"
   id="base"
   inkscape:zoom="2.7139511"
   inkscape:cx="160.2115"
   inkscape:cy="134.52485"
   inkscape:window-x="-4"
   inkscape:window-y="-4"
   inkscape:current-layer="Layer_1"
   showgrid="false"
   showguides="true"
   inkscape:guide-bbox="true"
   inkscape:window-maximized="1"><sodipodi:guide
     orientation="0,1"
     position="171.70538,180.91704"
     id="guide3947" /><sodipodi:guide
     orientation="1,0"
     position="313.56498,146.64966"
     id="guide4221" /></sodipodi:namedview>









































































































<path
   d="m 191.03245,279.08804 42.977,0 c 5.078,0 9.166,3.769 9.166,8.451 l 0,13.172 c 0,4.682 -4.088,8.451 -9.166,8.451 l -42.977,0 c -5.078,0 -9.167,-3.77 -9.167,-8.451 l 0,-13.172 c 0,-4.682 4.089,-8.451 9.167,-8.451 l 0,0 z"
   id="path213"
   style="fill:#ffffff"
   inkscape:connector-curvature="0" />
<path
   stroke-miterlimit="10"
   d="m 191.03245,279.08804 42.977,0 c 5.078,0 9.166,3.769 9.166,8.451 l 0,13.172 c 0,4.682 -4.088,8.451 -9.166,8.451 l -42.977,0 c -5.078,0 -9.167,-3.77 -9.167,-8.451 l 0,-13.172 c 0,-4.682 4.089,-8.451 9.167,-8.451 l 0,0 z"
   id="path215"
   style="fill:#ffffc8;fill-opacity:1;stroke:#000000;stroke-width:1.60000002;stroke-miterlimit:10"
   inkscape:connector-curvature="0" />
<polyline
   points="388.078,191.149 389.489,191.149 391.275,195.911 393.07,191.149 394.481,191.149 394.481,198.147   393.559,198.147 393.559,192.002 391.754,196.802 390.802,196.802 388.997,192.002 388.997,198.147 388.078,198.147   388.078,191.149 "
   id="polyline217"
   transform="translate(-185.13435,99.792794)" />
<polyline
   points="396.366,191.149 400.791,191.149 400.791,191.946 397.312,191.946 397.312,194.018 400.646,194.018   400.646,194.814 397.312,194.814 397.312,197.351 400.875,197.351 400.875,198.147 396.366,198.147 396.366,191.149 "
   id="polyline219"
   transform="translate(-185.13435,99.792794)" />
<polyline
   points="402.441,191.149 403.388,191.149 403.388,194.106 406.528,191.149 407.747,191.149 404.273,194.411   407.996,198.147 406.749,198.147 403.388,194.777 403.388,198.147 402.441,198.147 402.441,191.149 "
   id="polyline221"
   transform="translate(-185.13435,99.792794)" />























<path
   d="m 9.9660056,277.99026 42.9759994,0 c 5.079,0 9.167,3.77 9.167,8.451 l 0,13.172 c 0,4.683 -4.088,8.451 -9.167,8.451 l -42.9759994,0 c -5.078,0 -9.16700005,-3.769 -9.16700005,-8.451 l 0,-13.172 c 0.001,-4.682 4.08900005,-8.451 9.16700005,-8.451 l 0,0 z"
   id="path269"
   style="fill:#ffffff"
   inkscape:connector-curvature="0" />
<path
   stroke-miterlimit="10"
   d="m 9.9660056,277.99026 42.9759994,0 c 5.079,0 9.167,3.77 9.167,8.451 l 0,13.172 c 0,4.683 -4.088,8.451 -9.167,8.451 l -42.9759994,0 c -5.078,0 -9.16700005,-3.769 -9.16700005,-8.451 l 0,-13.172 c 0.001,-4.682 4.08900005,-8.451 9.16700005,-8.451 l 0,0 z"
   id="path271"
   style="fill:#ffffc8;fill-opacity:1;stroke:#000000;stroke-width:1.60000002;stroke-miterlimit:10"
   inkscape:connector-curvature="0" />


<polygon
   points="114.737,334.365 114.737,334.365 124.064,334.365 124.064,343.41 114.737,343.41 "
   id="polygon277"
   style="fill:#ffffff"
   transform="translate(5.5536396e-6,-45.904687)" />

<path
   clip-rule="evenodd"
   d="m 124.20701,280.89626 c 0,2.689 -2.183,4.872 -4.873,4.872 -2.69,0 -4.873,-2.183 -4.873,-4.872 0,-2.689 2.183,-4.872 4.873,-4.872 2.69,0 4.873,2.182 4.873,4.872 l 0,0 z"
   id="path281"
   style="fill:#ffffff;fill-rule:evenodd"
   inkscape:connector-curvature="0" />
<g
   id="g3833"><line
     style="fill:none;stroke:#000000;stroke-width:1.61963699;stroke-miterlimit:10;stroke-dasharray:none"
     id="line251"
     y2="206.5246"
     x2="180.95224"
     y1="281.43085"
     x1="61.533051"
     stroke-miterlimit="10" /><g
     inkscape:transform-center-y="68.783919"
     transform="matrix(0.67924103,-0.73391527,0.73391527,0.67924103,-155.92794,136.01017)"
     id="g3829"><polygon
       clip-rule="evenodd"
       points="170.436,343.184 170.436,335.105 179.121,339.161 179.121,339.161 "
       id="polygon273"
       style="fill-rule:evenodd;stroke:#000000;stroke-opacity:1"
       transform="matrix(0.96605253,0.25834572,-0.25834572,0.96605253,93.061633,-78.676438)" /></g><polygon
     transform="matrix(0.8519441,-0.52363274,0.52363274,0.8519441,-160.13367,19.04228)"
     style="fill:#96ffc8;fill-opacity:1;stroke:#000000;stroke-width:1.60000002;stroke-linecap:round;stroke-miterlimit:10"
     id="polygon279"
     points="124.064,343.41 114.737,343.41 114.737,334.365 114.737,334.365 124.064,334.365 "
     stroke-miterlimit="10" /><path
     inkscape:connector-curvature="0"
     style="fill:none;stroke:#000000;stroke-width:1.60000002;stroke-miterlimit:10"
     id="path283"
     d="m 129.66713,254.89573 c 0,2.689 -2.183,4.872 -4.873,4.872 -2.69,0 -4.873,-2.183 -4.873,-4.872 0,-2.689 2.183,-4.872 4.873,-4.872 2.69,0 4.873,2.182 4.873,4.872 l 0,0 z"
     stroke-miterlimit="10" /></g>













<path
   d="m 190.76701,178.19726 42.976,0 c 5.078,0 9.167,3.77 9.167,8.451 l 0,13.172 c 0,4.683 -4.088,8.451 -9.167,8.451 l -42.976,0 c -5.079,0 -9.167,-3.769 -9.167,-8.451 l 0,-13.172 c 0,-4.682 4.088,-8.451 9.167,-8.451 l 0,0 z"
   id="path311"
   style="fill:#ffffff"
   inkscape:connector-curvature="0" />
<path
   stroke-miterlimit="10"
   d="m 190.76701,178.19726 42.976,0 c 5.078,0 9.167,3.77 9.167,8.451 l 0,13.172 c 0,4.683 -4.088,8.451 -9.167,8.451 l -42.976,0 c -5.079,0 -9.167,-3.769 -9.167,-8.451 l 0,-13.172 c 0,-4.682 4.088,-8.451 9.167,-8.451 l 0,0 z"
   id="path313"
   style="fill:#ffffc8;fill-opacity:1;stroke:#000000;stroke-width:1.60000002;stroke-miterlimit:10"
   inkscape:connector-curvature="0" />
<polyline
   points="203.484,335.749 207.909,335.749 207.909,336.546 204.431,336.546 204.431,338.618 207.764,338.618   207.764,339.415 204.431,339.415 204.431,341.95 207.994,341.95 207.994,342.747 203.484,342.747 203.484,335.749 "
   id="polyline315"
   transform="translate(5.5860465e-6,-145.69757)" />
<path
   d="m 212.87801,193.76826 c 0.203,0.069 0.4,0.216 0.591,0.441 0.194,0.225 0.387,0.534 0.581,0.928 l 0.961,1.912 -1.017,0 -0.896,-1.795 c -0.231,-0.469 -0.456,-0.779 -0.675,-0.933 -0.216,-0.153 -0.511,-0.229 -0.886,-0.229 l -1.031,0 0,2.957 -0.947,0 0,-6.998 2.138,0 c 0.8,0 1.397,0.167 1.791,0.502 0.394,0.334 0.591,0.839 0.591,1.514 0,0.44 -0.103,0.807 -0.31,1.097 -0.204,0.29 -0.5,0.492 -0.891,0.604 m -2.372,-2.939 0,2.484 1.19,0 c 0.456,0 0.8,-0.104 1.031,-0.314 0.234,-0.212 0.352,-0.523 0.352,-0.933 0,-0.41 -0.117,-0.717 -0.352,-0.924 -0.231,-0.209 -0.575,-0.313 -1.031,-0.313 l -1.19,0"
   id="path317"
   inkscape:connector-curvature="0" />
<polyline
   points="216.234,335.749 217.181,335.749 217.181,338.707 220.322,335.749 221.541,335.749 218.067,339.012   221.789,342.747 220.542,342.747 217.181,339.377 217.181,342.747 216.234,342.747 216.234,335.749 "
   id="polyline319"
   transform="translate(5.5860465e-6,-145.69757)" />


<path
   sodipodi:type="arc"
   style="fill:#ffffff;fill-opacity:1;stroke:#000000;stroke-width:1.30221069;stroke-miterlimit:4;stroke-opacity:1;stroke-dasharray:none;stroke-dashoffset:0"
   id="path3419"
   sodipodi:cx="204.7885"
   sodipodi:cy="309.52887"
   sodipodi:rx="9.9007158"
   sodipodi:ry="4.6898127"
   d="m 214.68921,309.52887 a 9.9007158,4.6898127 0 1 1 -19.80143,0 9.9007158,4.6898127 0 1 1 19.80143,0 z"
   transform="matrix(1.1895439,0,0,1.2638494,-31.608958,-183.06842)" />











<polygon
   points="297.138,334.365 297.138,334.365 306.465,334.365 306.465,343.41 297.138,343.41 "
   id="polygon349"
   style="fill:#ffffff"
   transform="translate(5.5536396e-6,-45.904687)" />








<path
   d="m 372.16701,277.99026 42.977,0 c 5.078,0 9.166,3.77 9.166,8.451 l 0,13.172 c 0,4.683 -4.088,8.451 -9.166,8.451 l -42.977,0 c -5.078,0 -9.167,-3.769 -9.167,-8.451 l 0,-13.172 c 0,-4.682 4.089,-8.451 9.167,-8.451 l 0,0 z"
   id="path367"
   style="fill:#ffffff"
   inkscape:connector-curvature="0" />
<path
   stroke-miterlimit="10"
   d="m 372.16701,277.99026 42.977,0 c 5.078,0 9.166,3.77 9.166,8.451 l 0,13.172 c 0,4.683 -4.088,8.451 -9.166,8.451 l -42.977,0 c -5.078,0 -9.167,-3.769 -9.167,-8.451 l 0,-13.172 c 0,-4.682 4.089,-8.451 9.167,-8.451 l 0,0 z"
   id="path369"
   style="fill:#ffffc8;fill-opacity:1;stroke:#000000;stroke-width:1.60000002;stroke-miterlimit:10"
   inkscape:connector-curvature="0" />
<polyline
   points="384.885,335.749 389.31,335.749 389.31,336.546 385.832,336.546 385.832,338.618 389.164,338.618 389.164,339.415   385.832,339.415 385.832,341.95 389.395,341.95 389.395,342.747 384.885,342.747 384.885,335.749 "
   id="polyline371"
   transform="translate(5.5536396e-6,-45.904687)" />
<path
   d="m 394.27801,293.56126 c 0.203,0.069 0.4,0.216 0.591,0.441 0.193,0.225 0.388,0.534 0.581,0.928 l 0.961,1.912 -1.017,0 -0.896,-1.795 c -0.231,-0.469 -0.456,-0.779 -0.675,-0.933 -0.216,-0.153 -0.512,-0.229 -0.887,-0.229 l -1.031,0 0,2.957 -0.946,0 0,-6.998 2.138,0 c 0.8,0 1.396,0.167 1.79,0.502 0.394,0.334 0.591,0.839 0.591,1.514 0,0.44 -0.104,0.807 -0.31,1.097 -0.202,0.29 -0.499,0.492 -0.89,0.604 m -2.372,-2.939 0,2.484 1.191,0 c 0.456,0 0.8,-0.104 1.031,-0.314 0.234,-0.212 0.352,-0.523 0.352,-0.933 0,-0.41 -0.117,-0.717 -0.352,-0.924 -0.231,-0.209 -0.575,-0.313 -1.031,-0.313 l -1.191,0"
   id="path373"
   inkscape:connector-curvature="0" />
<polyline
   points="397.635,335.749 398.582,335.749 398.582,338.707 401.723,335.749 402.941,335.749 399.468,339.012   403.189,342.747 401.942,342.747 398.582,339.377 398.582,342.747 397.635,342.747 397.635,335.749 "
   id="polyline375"
   transform="translate(5.5536396e-6,-45.904687)" />














<path
   clip-rule="evenodd"
   d="m 306.60701,280.89626 c 0,2.689 -2.183,4.872 -4.872,4.872 -2.69,0 -4.873,-2.183 -4.873,-4.872 0,-2.689 2.183,-4.872 4.873,-4.872 2.69,0 4.872,2.182 4.872,4.872 l 0,0 z"
   id="path405"
   style="fill:#ffffff;fill-rule:evenodd"
   inkscape:connector-curvature="0" />


<polyline
   id="polyline2917"
   points="384.885,335.749 389.31,335.749 389.31,336.546 385.832,336.546 385.832,338.618 389.164,338.618 389.164,339.415   385.832,339.415 385.832,341.95 389.395,341.95 389.395,342.747 384.885,342.747 384.885,335.749 "
   transform="translate(-363.59672,-45.562786)" /><path
   id="path2919"
   d="m 30.681276,293.90316 c 0.203,0.069 0.4,0.216 0.591,0.441 0.193,0.225 0.388,0.534 0.581,0.928 l 0.961,1.912 -1.017,0 -0.896,-1.795 c -0.231,-0.469 -0.456,-0.779 -0.675,-0.933 -0.216,-0.153 -0.512,-0.229 -0.887,-0.229 l -1.031,0 0,2.957 -0.946,0 0,-6.998 2.138,0 c 0.8,0 1.396,0.167 1.79,0.502 0.394,0.334 0.591,0.839 0.591,1.514 0,0.44 -0.104,0.807 -0.31,1.097 -0.202,0.29 -0.499,0.492 -0.89,0.604 m -2.372,-2.939 0,2.484 1.191,0 c 0.456,0 0.8,-0.104 1.031,-0.314 0.234,-0.212 0.352,-0.523 0.352,-0.933 0,-0.41 -0.117,-0.717 -0.352,-0.924 -0.231,-0.209 -0.575,-0.313 -1.031,-0.313 l -1.191,0"
   inkscape:connector-curvature="0" /><polyline
   id="polyline2921"
   points="397.635,335.749 398.582,335.749 398.582,338.707 401.723,335.749 402.941,335.749 399.468,339.012   403.189,342.747 401.942,342.747 398.582,339.377 398.582,342.747 397.635,342.747 397.635,335.749 "
   transform="translate(-363.59672,-45.562786)" />





<text
   xml:space="preserve"
   style="font-size:40px;font-style:normal;font-weight:normal;line-height:125%;letter-spacing:0px;word-spacing:0px;fill:#000000;fill-opacity:1;stroke:none;font-family:Bitstream Vera Sans"
   x="182.90269"
   y="326.20374"
   id="text3421"
   sodipodi:linespacing="125%"
   transform="matrix(0.99792791,0,0,0.99792791,0,-0.64436047)"><tspan
     sodipodi:role="line"
     id="tspan3423"
     x="182.90269"
     y="326.20374" /></text>

<text
   xml:space="preserve"
   style="font-size:39.91711807px;font-style:normal;font-weight:normal;line-height:125%;letter-spacing:0px;word-spacing:0px;fill:#000000;fill-opacity:1;stroke:none;font-family:Bitstream Vera Sans"
   x="202.81897"
   y="210.86002"
   id="text3425"
   sodipodi:linespacing="125%"
   inkscape:transform-center-x="8.4765626"
   inkscape:transform-center-y="-9.1190804"><tspan
     sodipodi:role="line"
     id="tspan3427"
     x="202.81897"
     y="210.86002"
     style="font-size:7.98342323px;font-weight:normal;-inkscape-font-specification:Bitstream Vera Sans">P@T</tspan></text>

<path
   sodipodi:type="arc"
   style="fill:#ffffff;fill-opacity:1;stroke:#000000;stroke-width:1.30221069;stroke-miterlimit:4;stroke-opacity:1;stroke-dasharray:none;stroke-dashoffset:0;overflow:visible"
   id="path3419-5"
   sodipodi:cx="204.7885"
   sodipodi:cy="309.52887"
   sodipodi:rx="9.9007158"
   sodipodi:ry="4.6898127"
   d="m 214.68921,309.52887 a 9.9007158,4.6898127 0 1 1 -19.80143,0 9.9007158,4.6898127 0 1 1 19.80143,0 z"
   transform="matrix(1.1895439,0,0,1.2638494,-31.128467,-213.29727)" /><text
   xml:space="preserve"
   style="font-size:39.91712189px;font-style:normal;font-weight:normal;line-height:125%;letter-spacing:0px;word-spacing:0px;fill:#000000;fill-opacity:1;stroke:none;overflow:visible;font-family:Bitstream Vera Sans"
   x="203.29932"
   y="180.63129"
   id="text3425-7"
   sodipodi:linespacing="125%"
   inkscape:transform-center-x="8.4589981"
   inkscape:transform-center-y="-9.1001847"><tspan
     sodipodi:role="line"
     id="tspan3427-0"
     x="203.29932"
     y="180.63129"
     style="font-size:7.98342323px;font-weight:normal;-inkscape-font-specification:Bitstream Vera Sans">  @Y</tspan></text>

<path
   transform="matrix(1.1895439,0,0,1.2638494,-213.23208,-83.275453)"
   d="m 214.68921,309.52887 a 9.9007158,4.6898127 0 1 1 -19.80143,0 9.9007158,4.6898127 0 1 1 19.80143,0 z"
   sodipodi:ry="4.6898127"
   sodipodi:rx="9.9007158"
   sodipodi:cy="309.52887"
   sodipodi:cx="204.7885"
   id="path4223"
   style="fill:#ffffff;fill-opacity:1;stroke:#000000;stroke-width:1.30221069;stroke-miterlimit:4;stroke-opacity:1;stroke-dasharray:none;stroke-dashoffset:0"
   sodipodi:type="arc" /><text
   inkscape:transform-center-y="-9.1190804"
   inkscape:transform-center-x="8.4765626"
   sodipodi:linespacing="125%"
   id="text4225"
   y="310.6525"
   x="21.196285"
   style="font-size:39.91711807px;font-style:normal;font-weight:normal;line-height:125%;letter-spacing:0px;word-spacing:0px;fill:#000000;fill-opacity:1;stroke:none;font-family:Bitstream Vera Sans"
   xml:space="preserve"><tspan
     style="font-size:7.98342323px;font-weight:normal;-inkscape-font-specification:Bitstream Vera Sans"
     y="310.6525"
     x="21.196285"
     id="tspan4227"
     sodipodi:role="line">  @T</tspan></text>

<path
   transform="matrix(1.1895439,0,0,1.2638494,-212.75159,-113.50427)"
   d="m 214.68921,309.52887 a 9.9007158,4.6898127 0 1 1 -19.80143,0 9.9007158,4.6898127 0 1 1 19.80143,0 z"
   sodipodi:ry="4.6898127"
   sodipodi:rx="9.9007158"
   sodipodi:cy="309.52887"
   sodipodi:cx="204.7885"
   id="path4229"
   style="fill:#ffffff;fill-opacity:1;stroke:#000000;stroke-width:1.30221069;stroke-miterlimit:4;stroke-opacity:1;stroke-dasharray:none;stroke-dashoffset:0;overflow:visible"
   sodipodi:type="arc" /><text
   inkscape:transform-center-y="-9.1001847"
   inkscape:transform-center-x="8.4589981"
   sodipodi:linespacing="125%"
   id="text4231"
   y="280.42377"
   x="21.676609"
   style="font-size:39.91712189px;font-style:normal;font-weight:normal;line-height:125%;letter-spacing:0px;word-spacing:0px;fill:#000000;fill-opacity:1;stroke:none;overflow:visible;font-family:Bitstream Vera Sans"
   xml:space="preserve"><tspan
     style="font-size:7.98342323px;font-weight:normal;-inkscape-font-specification:Bitstream Vera Sans"
     y="280.42377"
     x="21.676609"
     id="tspan4233"
     sodipodi:role="line">  @Y</tspan></text>

<path
   transform="matrix(1.1895439,0,0,1.2638494,150.01404,-83.275453)"
   d="m 214.68921,309.52887 a 9.9007158,4.6898127 0 1 1 -19.80143,0 9.9007158,4.6898127 0 1 1 19.80143,0 z"
   sodipodi:ry="4.6898127"
   sodipodi:rx="9.9007158"
   sodipodi:cy="309.52887"
   sodipodi:cx="204.7885"
   id="path4235"
   style="fill:#ffffff;fill-opacity:1;stroke:#000000;stroke-width:1.30221069;stroke-miterlimit:4;stroke-opacity:1;stroke-dasharray:none;stroke-dashoffset:0"
   sodipodi:type="arc" /><text
   inkscape:transform-center-y="-9.1190804"
   inkscape:transform-center-x="8.4765626"
   sodipodi:linespacing="125%"
   id="text4237"
   y="310.6525"
   x="384.44128"
   style="font-size:39.91711807px;font-style:normal;font-weight:normal;line-height:125%;letter-spacing:0px;word-spacing:0px;fill:#000000;fill-opacity:1;stroke:none;font-family:Bitstream Vera Sans"
   xml:space="preserve"><tspan
     style="font-size:7.98342323px;font-weight:normal;-inkscape-font-specification:Bitstream Vera Sans"
     y="310.6525"
     x="384.44128"
     id="tspan4239"
     sodipodi:role="line">P@T</tspan></text>

<path
   transform="matrix(1.1895439,0,0,1.2638494,150.49453,-113.50427)"
   d="m 214.68921,309.52887 a 9.9007158,4.6898127 0 1 1 -19.80143,0 9.9007158,4.6898127 0 1 1 19.80143,0 z"
   sodipodi:ry="4.6898127"
   sodipodi:rx="9.9007158"
   sodipodi:cy="309.52887"
   sodipodi:cx="204.7885"
   id="path4241"
   style="fill:#ffffff;fill-opacity:1;stroke:#000000;stroke-width:1.30221069;stroke-miterlimit:4;stroke-opacity:1;stroke-dasharray:none;stroke-dashoffset:0;overflow:visible"
   sodipodi:type="arc" /><text
   inkscape:transform-center-y="-9.1001847"
   inkscape:transform-center-x="8.4589981"
   sodipodi:linespacing="125%"
   id="text4243"
   y="280.42377"
   x="384.92163"
   style="font-size:39.91712189px;font-style:normal;font-weight:normal;line-height:125%;letter-spacing:0px;word-spacing:0px;fill:#000000;fill-opacity:1;stroke:none;overflow:visible;font-family:Bitstream Vera Sans"
   xml:space="preserve"><tspan
     style="font-size:7.98342323px;font-weight:normal;-inkscape-font-specification:Bitstream Vera Sans"
     y="280.42377"
     x="384.92163"
     id="tspan4245"
     sodipodi:role="line">P@Y</tspan></text>

<path
   inkscape:connector-curvature="0"
   style="fill:#ffffff"
   id="path3039"
   d="m 190.76701,377.78326 42.976,0 c 5.078,0 9.167,3.77 9.167,8.451 l 0,13.172 c 0,4.683 -4.088,8.451 -9.167,8.451 l -42.976,0 c -5.079,0 -9.167,-3.769 -9.167,-8.451 l 0,-13.172 c 0,-4.682 4.088,-8.451 9.167,-8.451 l 0,0 z" /><path
   inkscape:connector-curvature="0"
   style="fill:#ffffc8;fill-opacity:1;stroke:#000000;stroke-width:1.60000002;stroke-miterlimit:10"
   id="path3041"
   d="m 190.76701,377.78326 42.976,0 c 5.078,0 9.167,3.77 9.167,8.451 l 0,13.172 c 0,4.683 -4.088,8.451 -9.167,8.451 l -42.976,0 c -5.079,0 -9.167,-3.769 -9.167,-8.451 l 0,-13.172 c 0,-4.682 4.088,-8.451 9.167,-8.451 l 0,0 z"
   stroke-miterlimit="10" /><polyline
   transform="translate(5.5860465e-6,53.888116)"
   id="polyline3043"
   points="203.484,335.749 207.909,335.749 207.909,336.546 204.431,336.546 204.431,338.618 207.764,338.618   207.764,339.415 204.431,339.415 204.431,341.95 207.994,341.95 207.994,342.747 203.484,342.747 203.484,335.749 " /><path
   inkscape:connector-curvature="0"
   id="path3045"
   d="m 212.87801,393.35426 c 0.203,0.069 0.4,0.216 0.591,0.441 0.194,0.225 0.387,0.534 0.581,0.928 l 0.961,1.912 -1.017,0 -0.896,-1.795 c -0.231,-0.469 -0.456,-0.779 -0.675,-0.933 -0.216,-0.153 -0.511,-0.229 -0.886,-0.229 l -1.031,0 0,2.957 -0.947,0 0,-6.998 2.138,0 c 0.8,0 1.397,0.167 1.791,0.502 0.394,0.334 0.591,0.839 0.591,1.514 0,0.44 -0.103,0.807 -0.31,1.097 -0.204,0.29 -0.5,0.492 -0.891,0.604 m -2.372,-2.939 0,2.484 1.19,0 c 0.456,0 0.8,-0.104 1.031,-0.314 0.234,-0.212 0.352,-0.523 0.352,-0.933 0,-0.41 -0.117,-0.717 -0.352,-0.924 -0.231,-0.209 -0.575,-0.313 -1.031,-0.313 l -1.19,0" /><polyline
   transform="translate(5.5860465e-6,53.888116)"
   id="polyline3047"
   points="216.234,335.749 217.181,335.749 217.181,338.707 220.322,335.749 221.541,335.749 218.067,339.012   221.789,342.747 220.542,342.747 217.181,339.377 217.181,342.747 216.234,342.747 216.234,335.749 " /><path
   transform="matrix(1.1895439,0,0,1.2638494,-31.608958,16.517342)"
   d="m 214.68921,309.52887 a 9.9007158,4.6898127 0 1 1 -19.80143,0 9.9007158,4.6898127 0 1 1 19.80143,0 z"
   sodipodi:ry="4.6898127"
   sodipodi:rx="9.9007158"
   sodipodi:cy="309.52887"
   sodipodi:cx="204.7885"
   id="path3049"
   style="fill:#ffffff;fill-opacity:1;stroke:#000000;stroke-width:1.30221069;stroke-miterlimit:4;stroke-opacity:1;stroke-dasharray:none;stroke-dashoffset:0"
   sodipodi:type="arc" /><text
   inkscape:transform-center-y="-9.1190804"
   inkscape:transform-center-x="8.4765626"
   sodipodi:linespacing="125%"
   id="text3051"
   y="410.44498"
   x="202.81897"
   style="font-size:39.91711807px;font-style:normal;font-weight:normal;line-height:125%;letter-spacing:0px;word-spacing:0px;fill:#000000;fill-opacity:1;stroke:none;font-family:Bitstream Vera Sans"
   xml:space="preserve"><tspan
     style="font-size:7.98342323px;font-weight:normal;-inkscape-font-specification:Bitstream Vera Sans"
     y="410.44498"
     x="202.81897"
     id="tspan3053"
     sodipodi:role="line">  @T</tspan></text>
<path
   transform="matrix(1.1895439,0,0,1.2638494,-31.128467,-13.711446)"
   d="m 214.68921,309.52887 a 9.9007158,4.6898127 0 1 1 -19.80143,0 9.9007158,4.6898127 0 1 1 19.80143,0 z"
   sodipodi:ry="4.6898127"
   sodipodi:rx="9.9007158"
   sodipodi:cy="309.52887"
   sodipodi:cx="204.7885"
   id="path3055"
   style="fill:#ffffff;fill-opacity:1;stroke:#000000;stroke-width:1.30221069;stroke-miterlimit:4;stroke-opacity:1;stroke-dasharray:none;stroke-dashoffset:0;overflow:visible"
   sodipodi:type="arc" /><text
   inkscape:transform-center-y="-9.1001847"
   inkscape:transform-center-x="8.4589981"
   sodipodi:linespacing="125%"
   id="text3057"
   y="380.21625"
   x="203.29932"
   style="font-size:39.91712189px;font-style:normal;font-weight:normal;line-height:125%;letter-spacing:0px;word-spacing:0px;fill:#000000;fill-opacity:1;stroke:none;overflow:visible;font-family:Bitstream Vera Sans"
   xml:space="preserve"><tspan
     style="font-size:7.98342323px;font-weight:normal;-inkscape-font-specification:Bitstream Vera Sans"
     y="380.21625"
     x="203.29932"
     id="tspan3059"
     sodipodi:role="line">P@Y</tspan></text>
<g
   id="g3840"
   transform="matrix(1,0,0,-1,0,586.36163)"><line
     stroke-miterlimit="10"
     x1="61.533051"
     y1="281.43085"
     x2="180.95224"
     y2="206.5246"
     id="line3842"
     style="fill:none;stroke:#000000;stroke-width:1.61963701;stroke-miterlimit:10;stroke-dasharray:none" /><g
     id="g3844"
     transform="matrix(0.67924103,-0.73391527,0.73391527,0.67924103,-155.92794,136.01017)"
     inkscape:transform-center-y="68.783919"><polygon
       transform="matrix(0.96605253,0.25834572,-0.25834572,0.96605253,93.061633,-78.676438)"
       style="fill-rule:evenodd;stroke:#000000;stroke-opacity:1"
       id="polygon3846"
       points="179.121,339.161 170.436,343.184 170.436,335.105 179.121,339.161 "
       clip-rule="evenodd" /></g><polygon
     stroke-miterlimit="10"
     points="124.064,343.41 114.737,343.41 114.737,334.365 114.737,334.365 124.064,334.365 "
     id="polygon3848"
     style="fill:#96ffc8;fill-opacity:1;stroke:#000000;stroke-width:1.60000002;stroke-linecap:round;stroke-miterlimit:10"
     transform="matrix(0.8519441,-0.52363274,0.52363274,0.8519441,-160.13367,19.04228)" /><path
     stroke-miterlimit="10"
     d="m 129.66713,254.89573 c 0,2.689 -2.183,4.872 -4.873,4.872 -2.69,0 -4.873,-2.183 -4.873,-4.872 0,-2.689 2.183,-4.872 4.873,-4.872 2.69,0 4.873,2.182 4.873,4.872 l 0,0 z"
     id="path3850"
     style="fill:none;stroke:#000000;stroke-width:1.60000002;stroke-miterlimit:10"
     inkscape:connector-curvature="0" /></g><line
   style="fill:none;stroke:#000000;stroke-width:1.61963701;stroke-miterlimit:10;stroke-dasharray:none"
   id="line3854"
   y2="204.52875"
   x2="241.88776"
   y1="279.435"
   x1="361.30695"
   stroke-miterlimit="10" /><g
   inkscape:transform-center-y="-68.783921"
   transform="matrix(0.67924103,0.73391527,0.73391527,-0.67924103,25.103647,350.64434)"
   id="g3856"><polygon
     clip-rule="evenodd"
     points="170.436,343.184 170.436,335.105 179.121,339.161 179.121,339.161 "
     id="polygon3858"
     style="fill-rule:evenodd;stroke:#000000;stroke-opacity:1"
     transform="matrix(0.96605253,0.25834572,-0.25834572,0.96605253,93.061633,-78.676438)" /></g><polygon
   transform="matrix(-0.8519441,-0.52363274,-0.52363274,0.8519441,584.91654,18.621556)"
   style="fill:#96ffc8;fill-opacity:1;stroke:#000000;stroke-width:1.60000002;stroke-linecap:round;stroke-miterlimit:10"
   id="polygon3860"
   points="124.064,343.41 114.737,343.41 114.737,334.365 114.737,334.365 124.064,334.365 "
   stroke-miterlimit="10" /><path
   inkscape:connector-curvature="0"
   style="fill:none;stroke:#000000;stroke-width:1.60000002;stroke-miterlimit:10"
   id="path3862"
   d="m 294.80102,254.58101 c 0,2.689 2.183,4.872 4.873,4.872 2.69,0 4.873,-2.183 4.873,-4.872 0,-2.689 -2.183,-4.872 -4.873,-4.872 -2.69,0 -4.873,2.182 -4.873,4.872 l 0,0 z"
   stroke-miterlimit="10" /><line
   stroke-miterlimit="10"
   x1="361.67465"
   y1="305.45581"
   x2="242.25546"
   y2="380.36206"
   id="line3866"
   style="fill:none;stroke:#000000;stroke-width:1.61963701;stroke-miterlimit:10;stroke-dasharray:none" /><polygon
   stroke-miterlimit="10"
   points="124.064,343.41 114.737,343.41 114.737,334.365 114.737,334.365 124.064,334.365 "
   id="polygon3872"
   style="fill:#96ffc8;fill-opacity:1;stroke:#000000;stroke-width:1.60000002;stroke-linecap:round;stroke-miterlimit:10"
   transform="matrix(-0.8519441,0.52363274,-0.52363274,-0.8519441,584.96952,566.63693)" /><path
   stroke-miterlimit="10"
   d="m 294.27596,330.57314 c 0,-2.689 2.183,-4.872 4.873,-4.872 2.69,0 4.873,2.183 4.873,4.872 0,2.689 -2.183,4.872 -4.873,4.872 -2.69,0 -4.873,-2.182 -4.873,-4.872 l 0,0 z"
   id="path3874"
   style="fill:none;stroke:#000000;stroke-width:1.60000002;stroke-miterlimit:10"
   inkscape:connector-curvature="0" /><g
   id="g3886"
   transform="matrix(0.67924103,-0.73391527,0.73391527,0.67924103,24.735944,235.27811)"
   inkscape:transform-center-y="68.783923"><polygon
     transform="matrix(0.96605253,0.25834572,-0.25834572,0.96605253,93.061633,-78.676438)"
     style="fill-rule:evenodd;stroke:#000000;stroke-opacity:1"
     id="polygon3888"
     points="179.121,339.161 170.436,343.184 170.436,335.105 179.121,339.161 "
     clip-rule="evenodd" /></g><path
   style="fill:none;stroke:#000000;stroke-width:1.6;stroke-linecap:butt;stroke-linejoin:miter;stroke-opacity:1;stroke-miterlimit:4;stroke-dasharray:none"
   d="M 181.33943,284.03587 C 128.96327,258.61168 129.33174,258.61168 129.33174,258.61168"
   id="path3890"
   inkscape:connector-curvature="0"
   transform="matrix(0.99792791,0,0,0.99792791,0,-0.64436047)" /><path
   inkscape:connector-curvature="0"
   id="path3892"
   d="m 180.96368,303.33623 c -52.26763,25.37151 -51.89993,25.37151 -51.89993,25.37151"
   style="fill:none;stroke:#000000;stroke-width:1.59668469;stroke-linecap:butt;stroke-linejoin:miter;stroke-miterlimit:4;stroke-opacity:1;stroke-dasharray:none" /><path
   inkscape:connector-curvature="0"
   id="path3894"
   d="m 242.8277,282.80296 c 52.26763,-25.37151 51.89993,-25.37151 51.89993,-25.37151"
   style="fill:none;stroke:#000000;stroke-width:1.59668469;stroke-linecap:butt;stroke-linejoin:miter;stroke-miterlimit:4;stroke-opacity:1;stroke-dasharray:none" /><path
   style="fill:none;stroke:#000000;stroke-width:1.59668469;stroke-linecap:butt;stroke-linejoin:miter;stroke-miterlimit:4;stroke-opacity:1;stroke-dasharray:none"
   d="m 242.8277,303.33623 c 52.26763,25.37151 51.89993,25.37151 51.89993,25.37151"
   id="path3896"
   inkscape:connector-curvature="0" /></svg>