<?xml version="1.0" encoding="UTF-8" standalone="no"?>
<svg
   xmlns:dc="http://purl.org/dc/elements/1.1/"
   xmlns:cc="http://creativecommons.org/ns#"
   xmlns:rdf="http://www.w3.org/1999/02/22-rdf-syntax-ns#"
   xmlns:svg="http://www.w3.org/2000/svg"
   xmlns="http://www.w3.org/2000/svg"
   xmlns:sodipodi="http://sodipodi.sourceforge.net/DTD/sodipodi-0.dtd"
   xmlns:inkscape="http://www.inkscape.org/namespaces/inkscape"
   fill-opacity="1"
   color-rendering="auto"
   color-interpolation="auto"
   text-rendering="auto"
   stroke="black"
   stroke-linecap="square"
   width="1016"
   stroke-miterlimit="10"
   shape-rendering="auto"
   stroke-opacity="1"
   fill="black"
   stroke-dasharray="none"
   font-weight="normal"
   stroke-width="1"
   height="576"
   font-family="'Dialog'"
   font-style="normal"
   stroke-linejoin="miter"
   font-size="12px"
   stroke-dashoffset="0"
   image-rendering="auto"
   version="1.1"
   id="svg1222"
   sodipodi:docname="association.inkscape.svg"
   inkscape:version="0.92.2 2405546, 2018-03-11">
  <metadata
     id="metadata1226">
    <rdf:RDF>
      <cc:Work
         rdf:about="">
        <dc:format>image/svg+xml</dc:format>
        <dc:type
           rdf:resource="http://purl.org/dc/dcmitype/StillImage" />
        <dc:title></dc:title>
      </cc:Work>
    </rdf:RDF>
  </metadata>
  <sodipodi:namedview
     pagecolor="#ffffff"
     bordercolor="#666666"
     borderopacity="1"
     objecttolerance="10"
     gridtolerance="10"
     guidetolerance="10"
     inkscape:pageopacity="0"
     inkscape:pageshadow="2"
     inkscape:window-width="1916"
     inkscape:window-height="1142"
     id="namedview1224"
     showgrid="false"
     inkscape:zoom="1.3267717"
     inkscape:cx="236.38726"
     inkscape:cy="401.36893"
     inkscape:window-x="1920"
     inkscape:window-y="56"
     inkscape:window-maximized="0"
     inkscape:current-layer="svg1222" />
  <!--Generated by the Batik Graphics2D SVG Generator-->
  <defs
     id="genericDefs">
    <defs
       id="defs1">
      <clipPath
         id="clipPath1"
         clipPathUnits="userSpaceOnUse">
        <path
           id="path1138"
           d="M0 0 L1180 0 L1180 728 L0 728 L0 0 Z" />
      </clipPath>
      <clipPath
         id="clipPath2"
         clipPathUnits="userSpaceOnUse">
        <path
           id="path1141"
           d="M0 0 L0 64 L112 64 L112 0 Z" />
      </clipPath>
      <clipPath
         id="clipPath3"
         clipPathUnits="userSpaceOnUse">
        <path
           id="path1144"
           d="M0 0 L0 36 L47 36 L47 0 Z" />
      </clipPath>
      <clipPath
         id="clipPath4"
         clipPathUnits="userSpaceOnUse">
        <path
           id="path1147"
           d="M0 0 L0 28 L28 28 L28 0 Z" />
      </clipPath>
      <clipPath
         id="clipPath5"
         clipPathUnits="userSpaceOnUse">
        <path
           id="path1150"
           d="M0 0 L0 2 L13 2 L13 0 Z" />
      </clipPath>
      <clipPath
         id="clipPath6"
         clipPathUnits="userSpaceOnUse">
        <path
           id="path1153"
           d="M0 0 L0 3 L38 3 L38 0 Z" />
      </clipPath>
      <clipPath
         id="clipPath7"
         clipPathUnits="userSpaceOnUse">
        <path
           id="path1156"
           d="M0 0 L0 3 L15 3 L15 0 Z" />
      </clipPath>
    </defs>
  </defs>
  <g
     style="font-size:14.5067997px;font-family:Cantarell;fill:#acacac;stroke:#acacac;stroke-width:1.5;stroke-linecap:butt;stroke-linejoin:round;image-rendering:optimizeQuality;text-rendering:optimizeLegibility"
     id="g1168"
     transform="translate(180,129)"
     font-size="14.5068px">
    <path
       style="fill:none"
       inkscape:connector-curvature="0"
       id="path1166"
       clip-path="url(#clipPath3)"
       d="M 0.75,34.25 35.2808,0.75 h 10.5" />
  </g>
  <g
     style="font-size:14.5067997px;font-family:Cantarell;fill:#acacac;stroke:#acacac;stroke-width:1.5;stroke-linecap:butt;stroke-linejoin:round;image-rendering:optimizeQuality;text-rendering:optimizeLegibility"
     id="g1172"
     transform="translate(180,95)"
     font-size="14.5068px">
    <path
       style="fill:none"
       inkscape:connector-curvature="0"
       id="path1170"
       clip-path="url(#clipPath3)"
       d="m 0.75,0.75 34.5308,33.5 h 10.5" />
  </g>
  <g
     style="font-size:14.5067997px;font-family:Cantarell;stroke-width:2;stroke-linecap:round;stroke-linejoin:round;image-rendering:optimizeQuality;text-rendering:optimizeLegibility"
     id="g1206"
     transform="translate(226,116)"
     font-size="14.5068px">
    <path
       style="stroke:none"
       inkscape:connector-curvature="0"
       id="path1198"
       clip-path="url(#clipPath4)"
       d="M 25,13 C 25,19.6274 19.6274,25 13,25 6.3726,25 1,19.6274 1,13 1,6.3726 6.3726,1 13,1 19.6274,1 25,6.3726 25,13 Z" />
    <path
       style="fill:none"
       inkscape:connector-curvature="0"
       id="path1200"
       clip-path="url(#clipPath4)"
       d="M 25,13 C 25,19.6274 19.6274,25 13,25 6.3726,25 1,19.6274 1,13 1,6.3726 6.3726,1 13,1 19.6274,1 25,6.3726 25,13 Z" />
    <path
       style="stroke:none"
       inkscape:connector-curvature="0"
       id="path1202"
       clip-path="url(#clipPath4)"
       d="m 19,13 c 0,3.3137 -2.6863,6 -6,6 -3.3137,0 -6,-2.6863 -6,-6 0,-3.3137 2.6863,-6 6,-6 3.3137,0 6,2.6863 6,6 z" />
    <path
       style="fill:none"
       inkscape:connector-curvature="0"
       id="path1204"
       clip-path="url(#clipPath4)"
       d="m 19,13 c 0,3.3137 -2.6863,6 -6,6 -3.3137,0 -6,-2.6863 -6,-6 0,-3.3137 2.6863,-6 6,-6 3.3137,0 6,2.6863 6,6 z" />
  </g>
  <g
     style="font-size:14.5067997px;font-family:Cantarell;stroke-width:1.5;stroke-linecap:butt;stroke-linejoin:round;image-rendering:optimizeQuality;text-rendering:optimizeLegibility"
     id="g1210"
     transform="translate(215,129)"
     font-size="14.5068px">
    <path
       style="fill:none"
       inkscape:connector-curvature="0"
       id="path1208"
       clip-path="url(#clipPath5)"
       d="m 0.75,0.75 v 0 h 10.5" />
  </g>
  <g
     style="font-size:14.5067997px;font-family:Cantarell;fill:#acacac;stroke:#acacac;stroke-width:1.5;stroke-linecap:butt;stroke-linejoin:round;image-rendering:optimizeQuality;text-rendering:optimizeLegibility"
     id="g1214"
     transform="translate(252,129)"
     font-size="14.5068px">
    <path
       style="fill:none"
       inkscape:connector-curvature="0"
       id="path1212"
       clip-path="url(#clipPath6)"
       d="m 0.75,0.75 h 35" />
  </g>
  <g
     style="font-size:14.5067997px;font-family:Cantarell;stroke-width:1.5;stroke-linecap:butt;stroke-linejoin:round;image-rendering:optimizeQuality;text-rendering:optimizeLegibility"
     id="g1218"
     transform="translate(252,129)"
     font-size="14.5068px">
    <path
       style="fill:none"
       inkscape:connector-curvature="0"
       id="path1216"
       clip-path="url(#clipPath7)"
       d="m 0.75,0.75 h 12" />
  </g>
</svg>
