<?xml version="1.0" encoding="UTF-8" standalone="no"?>
<svg
   xmlns:dc="http://purl.org/dc/elements/1.1/"
   xmlns:cc="http://creativecommons.org/ns#"
   xmlns:rdf="http://www.w3.org/1999/02/22-rdf-syntax-ns#"
   xmlns:svg="http://www.w3.org/2000/svg"
   xmlns="http://www.w3.org/2000/svg"
   xmlns:sodipodi="http://sodipodi.sourceforge.net/DTD/sodipodi-0.dtd"
   xmlns:inkscape="http://www.inkscape.org/namespaces/inkscape"
   fill-opacity="1"
   color-rendering="auto"
   color-interpolation="auto"
   text-rendering="auto"
   stroke="black"
   stroke-linecap="square"
   width="712"
   stroke-miterlimit="10"
   shape-rendering="auto"
   stroke-opacity="1"
   fill="black"
   stroke-dasharray="none"
   font-weight="normal"
   stroke-width="1"
   height="237"
   font-family="'Dialog'"
   font-style="normal"
   stroke-linejoin="miter"
   font-size="12px"
   stroke-dashoffset="0"
   image-rendering="auto"
   version="1.1"
   id="svg4729"
   sodipodi:docname="layout-orientation.inkscape.svg"
   inkscape:version="0.92.2 2405546, 2018-03-11">
  <metadata
     id="metadata4733">
    <rdf:RDF>
      <cc:Work
         rdf:about="">
        <dc:format>image/svg+xml</dc:format>
        <dc:type
           rdf:resource="http://purl.org/dc/dcmitype/StillImage" />
        <dc:title></dc:title>
      </cc:Work>
    </rdf:RDF>
  </metadata>
  <sodipodi:namedview
     pagecolor="#ffffff"
     bordercolor="#666666"
     borderopacity="1"
     objecttolerance="10"
     gridtolerance="10"
     guidetolerance="10"
     inkscape:pageopacity="0"
     inkscape:pageshadow="2"
     inkscape:window-width="1916"
     inkscape:window-height="1142"
     id="namedview4731"
     showgrid="false"
     inkscape:zoom="1.9030899"
     inkscape:cx="356"
     inkscape:cy="118.5"
     inkscape:window-x="1920"
     inkscape:window-y="56"
     inkscape:window-maximized="0"
     inkscape:current-layer="svg4729" />
  <!--Generated by the Batik Graphics2D SVG Generator-->
  <defs
     id="genericDefs">
    <defs
       id="defs1">
      <clipPath
         id="clipPath1"
         clipPathUnits="userSpaceOnUse">
        <path
           id="path4657"
           d="M0 0 L1136 0 L1136 655 L0 655 L0 0 Z" />
      </clipPath>
      <clipPath
         id="clipPath2"
         clipPathUnits="userSpaceOnUse">
        <path
           id="path4660"
           d="M0 0 L0 194 L224 194 L224 0 Z" />
      </clipPath>
      <clipPath
         id="clipPath3"
         clipPathUnits="userSpaceOnUse">
        <path
           id="path4663"
           d="M0 0 L0 17 L48 17 L48 0 Z" />
      </clipPath>
      <clipPath
         id="clipPath4"
         clipPathUnits="userSpaceOnUse">
        <path
           id="path4666"
           d="M0 0 L0 16 L47 16 L47 0 Z" />
      </clipPath>
      <clipPath
         id="clipPath5"
         clipPathUnits="userSpaceOnUse">
        <path
           id="path4669"
           d="M0 0 L0 17 L45 17 L45 0 Z" />
      </clipPath>
      <clipPath
         id="clipPath6"
         clipPathUnits="userSpaceOnUse">
        <path
           id="path4672"
           d="M0 0 L0 16 L44 16 L44 0 Z" />
      </clipPath>
      <clipPath
         id="clipPath7"
         clipPathUnits="userSpaceOnUse">
        <path
           id="path4675"
           d="M0 0 L0 64 L112 64 L112 0 Z" />
      </clipPath>
    </defs>
  </defs>
  <g
     style="font-size:14.5067997px;font-family:Cantarell;fill:#ffffff;stroke:#ffffff;stroke-width:2;stroke-linecap:round;stroke-linejoin:round;image-rendering:optimizeQuality;text-rendering:optimizeLegibility"
     id="g4683"
     transform="translate(488,43)"
     font-size="14.5068px">
    <path
       style="stroke:none"
       inkscape:connector-curvature="0"
       id="path4679"
       clip-path="url(#clipPath2)"
       d="M 1,1 H 221 V 191 H 1 Z" />
    <path
       style="fill:none;stroke:#000000"
       inkscape:connector-curvature="0"
       id="path4681"
       clip-path="url(#clipPath2)"
       d="M 1,1 H 221 V 191 H 1 Z" />
  </g>
  <g
     style="font-family:Arial;image-rendering:optimizeQuality;text-rendering:optimizeLegibility"
     id="g4687"
     transform="translate(576,215)">
    <text
       style="stroke:none"
       id="text4685"
       clip-path="url(#clipPath4)"
       y="12"
       xml:space="preserve"
       x="5">correct</text>
  </g>
  <g
     style="font-size:14.5067997px;font-family:Cantarell;fill:#ffffff;stroke:#ffffff;stroke-width:2;stroke-linecap:round;stroke-linejoin:round;image-rendering:optimizeQuality;text-rendering:optimizeLegibility"
     id="g4693"
     transform="translate(48,43)"
     font-size="14.5068px">
    <path
       style="stroke:none"
       inkscape:connector-curvature="0"
       id="path4689"
       clip-path="url(#clipPath2)"
       d="M 1,1 H 221 V 191 H 1 Z" />
    <path
       style="fill:none;stroke:#000000"
       inkscape:connector-curvature="0"
       id="path4691"
       clip-path="url(#clipPath2)"
       d="M 1,1 H 221 V 191 H 1 Z" />
  </g>
  <g
     style="font-family:Arial;image-rendering:optimizeQuality;text-rendering:optimizeLegibility"
     id="g4697"
     transform="translate(137,215)">
    <text
       style="stroke:none"
       id="text4695"
       clip-path="url(#clipPath6)"
       y="12"
       xml:space="preserve"
       x="5">wrong</text>
  </g>
  <g
     style="font-size:14.5067997px;font-family:Cantarell;fill:#ffffff;stroke:#ffffff;stroke-width:2;stroke-linecap:round;stroke-linejoin:round;image-rendering:optimizeQuality;text-rendering:optimizeLegibility"
     id="g4703"
     transform="translate(268,43)"
     font-size="14.5068px">
    <path
       style="stroke:none"
       inkscape:connector-curvature="0"
       id="path4699"
       clip-path="url(#clipPath2)"
       d="M 1,1 H 221 V 191 H 1 Z" />
    <path
       style="fill:none;stroke:#000000"
       inkscape:connector-curvature="0"
       id="path4701"
       clip-path="url(#clipPath2)"
       d="M 1,1 H 221 V 191 H 1 Z" />
  </g>
  <g
     style="font-family:Arial;image-rendering:optimizeQuality;text-rendering:optimizeLegibility"
     id="g4707"
     transform="translate(356,215)">
    <text
       style="stroke:none"
       id="text4705"
       clip-path="url(#clipPath4)"
       y="12"
       xml:space="preserve"
       x="5">correct</text>
  </g>
  <g
     style="font-size:14.5067997px;font-family:Cantarell;fill:#ffffff;stroke:#ffffff;stroke-width:2;stroke-linecap:round;stroke-linejoin:round;image-rendering:optimizeQuality;text-rendering:optimizeLegibility"
     id="g4713"
     transform="rotate(-90,273,-74)"
     font-size="14.5068px">
    <path
       style="stroke:none"
       inkscape:connector-curvature="0"
       id="path4709"
       clip-path="url(#clipPath7)"
       d="m 1,8.5 v 45 C 1,57.6421 4.3579,61 8.5,61 h 93 c 4.1421,0 7.5,-3.3579 7.5,-7.5 V 8.5 C 109,4.3579 105.6421,1 101.5,1 H 8.5 C 4.3579,1 1,4.3579 1,8.5 Z" />
    <path
       style="fill:none;stroke:#000000"
       inkscape:connector-curvature="0"
       id="path4711"
       clip-path="url(#clipPath7)"
       d="m 1,8.5 v 45 C 1,57.6421 4.3579,61 8.5,61 h 93 c 4.1421,0 7.5,-3.3579 7.5,-7.5 V 8.5 C 109,4.3579 105.6421,1 101.5,1 H 8.5 C 4.3579,1 1,4.3579 1,8.5 Z" />
  </g>
  <g
     style="font-size:14.5067997px;font-family:Cantarell;fill:#ffffff;stroke:#ffffff;stroke-width:2;stroke-linecap:round;stroke-linejoin:round;image-rendering:optimizeQuality;text-rendering:optimizeLegibility"
     id="g4719"
     transform="translate(548,113)"
     font-size="14.5068px">
    <path
       style="stroke:none"
       inkscape:connector-curvature="0"
       id="path4715"
       clip-path="url(#clipPath7)"
       d="m 1,8.5 v 45 C 1,57.6421 4.3579,61 8.5,61 h 93 c 4.1421,0 7.5,-3.3579 7.5,-7.5 V 8.5 C 109,4.3579 105.6421,1 101.5,1 H 8.5 C 4.3579,1 1,4.3579 1,8.5 Z" />
    <path
       style="fill:none;stroke:#000000"
       inkscape:connector-curvature="0"
       id="path4717"
       clip-path="url(#clipPath7)"
       d="m 1,8.5 v 45 C 1,57.6421 4.3579,61 8.5,61 h 93 c 4.1421,0 7.5,-3.3579 7.5,-7.5 V 8.5 C 109,4.3579 105.6421,1 101.5,1 H 8.5 C 4.3579,1 1,4.3579 1,8.5 Z" />
  </g>
  <g
     style="font-size:14.5067997px;font-family:Cantarell;fill:#ffffff;stroke:#ffffff;stroke-width:2;stroke-linecap:round;stroke-linejoin:round;image-rendering:optimizeQuality;text-rendering:optimizeLegibility"
     id="g4725"
     transform="rotate(-48,230.90108,-22.555797)"
     font-size="14.5068px">
    <path
       style="stroke:none"
       inkscape:connector-curvature="0"
       id="path4721"
       clip-path="url(#clipPath7)"
       d="m 1,8.5 v 45 C 1,57.6421 4.3579,61 8.5,61 h 93 c 4.1421,0 7.5,-3.3579 7.5,-7.5 V 8.5 C 109,4.3579 105.6421,1 101.5,1 H 8.5 C 4.3579,1 1,4.3579 1,8.5 Z" />
    <path
       style="fill:none;stroke:#000000"
       inkscape:connector-curvature="0"
       id="path4723"
       clip-path="url(#clipPath7)"
       d="m 1,8.5 v 45 C 1,57.6421 4.3579,61 8.5,61 h 93 c 4.1421,0 7.5,-3.3579 7.5,-7.5 V 8.5 C 109,4.3579 105.6421,1 101.5,1 H 8.5 C 4.3579,1 1,4.3579 1,8.5 Z" />
  </g>
</svg>
