<?xml version="1.0" encoding="UTF-8" standalone="no"?>
<svg
   xmlns:dc="http://purl.org/dc/elements/1.1/"
   xmlns:cc="http://creativecommons.org/ns#"
   xmlns:rdf="http://www.w3.org/1999/02/22-rdf-syntax-ns#"
   xmlns:svg="http://www.w3.org/2000/svg"
   xmlns="http://www.w3.org/2000/svg"
   xmlns:sodipodi="http://sodipodi.sourceforge.net/DTD/sodipodi-0.dtd"
   xmlns:inkscape="http://www.inkscape.org/namespaces/inkscape"
   fill-opacity="1"
   color-rendering="auto"
   color-interpolation="auto"
   text-rendering="auto"
   stroke="black"
   stroke-linecap="square"
   width="1265"
   stroke-miterlimit="10"
   shape-rendering="auto"
   stroke-opacity="1"
   fill="black"
   stroke-dasharray="none"
   font-weight="normal"
   stroke-width="1"
   height="560"
   font-family="'Dialog'"
   font-style="normal"
   stroke-linejoin="miter"
   font-size="12"
   stroke-dashoffset="0"
   image-rendering="auto"
   version="1.1"
   id="svg4358"
   sodipodi:docname="production.inkscape.svg"
   inkscape:version="0.92.2 2405546, 2018-03-11">
  <metadata
     id="metadata4362">
    <rdf:RDF>
      <cc:Work
         rdf:about="">
        <dc:format>image/svg+xml</dc:format>
        <dc:type
           rdf:resource="http://purl.org/dc/dcmitype/StillImage" />
        <dc:title></dc:title>
      </cc:Work>
    </rdf:RDF>
  </metadata>
  <sodipodi:namedview
     pagecolor="#ffffff"
     bordercolor="#666666"
     borderopacity="1"
     objecttolerance="10"
     gridtolerance="10"
     guidetolerance="10"
     inkscape:pageopacity="0"
     inkscape:pageshadow="2"
     inkscape:window-width="1916"
     inkscape:window-height="993"
     id="namedview4360"
     showgrid="false"
     inkscape:zoom="2.1818182"
     inkscape:cx="338.07469"
     inkscape:cy="426.90678"
     inkscape:window-x="0"
     inkscape:window-y="85"
     inkscape:window-maximized="0"
     inkscape:current-layer="svg4358" />
  <!--Generated by the Batik Graphics2D SVG Generator-->
  <defs
     id="genericDefs">
    <defs
       id="defs1">
      <clipPath
         id="clipPath1"
         clipPathUnits="userSpaceOnUse">
        <path
           id="path4257"
           d="M0 0 L1365 0 L1365 880 L0 880 L0 0 Z" />
      </clipPath>
      <clipPath
         id="clipPath2"
         clipPathUnits="userSpaceOnUse">
        <path
           id="path4260"
           d="M0 0 L0 64 L64 64 L64 0 Z" />
      </clipPath>
      <clipPath
         id="clipPath3"
         clipPathUnits="userSpaceOnUse">
        <path
           id="path4263"
           d="M21 0 L21 64 L64 64 L64 0 Z" />
      </clipPath>
      <clipPath
         id="clipPath4"
         clipPathUnits="userSpaceOnUse">
        <path
           id="path4266"
           d="M0 0 L0 64 L112 64 L112 0 Z" />
      </clipPath>
      <clipPath
         id="clipPath5"
         clipPathUnits="userSpaceOnUse">
        <path
           id="path4269"
           d="M0 0 L0 20 L39 20 L39 0 Z" />
      </clipPath>
      <clipPath
         id="clipPath6"
         clipPathUnits="userSpaceOnUse">
        <path
           id="path4272"
           d="M0 0 L0 19 L38 19 L38 0 Z" />
      </clipPath>
      <clipPath
         id="clipPath7"
         clipPathUnits="userSpaceOnUse">
        <path
           id="path4275"
           d="M0 0 L0 28 L28 28 L28 0 Z" />
      </clipPath>
      <clipPath
         id="clipPath8"
         clipPathUnits="userSpaceOnUse">
        <path
           id="path4278"
           d="M0 0 L0 18 L28 18 L28 0 Z" />
      </clipPath>
      <clipPath
         id="clipPath9"
         clipPathUnits="userSpaceOnUse">
        <path
           id="path4281"
           d="M0 0 L0 17 L27 17 L27 0 Z" />
      </clipPath>
      <clipPath
         id="clipPath10"
         clipPathUnits="userSpaceOnUse">
        <path
           id="path4284"
           d="M0 0 L0 17 L68 17 L68 0 Z" />
      </clipPath>
      <clipPath
         id="clipPath11"
         clipPathUnits="userSpaceOnUse">
        <path
           id="path4287"
           d="M0 0 L0 20 L26 20 L26 0 Z" />
      </clipPath>
      <clipPath
         id="clipPath12"
         clipPathUnits="userSpaceOnUse">
        <path
           id="path4290"
           d="M0 0 L0 19 L25 19 L25 0 Z" />
      </clipPath>
      <clipPath
         id="clipPath13"
         clipPathUnits="userSpaceOnUse">
        <path
           id="path4293"
           d="M0 0 L0 3 L11 3 L11 0 Z" />
      </clipPath>
      <clipPath
         id="clipPath14"
         clipPathUnits="userSpaceOnUse">
        <path
           id="path4296"
           d="M0 0 L0 3 L10 3 L10 0 Z" />
      </clipPath>
    </defs>
  </defs>
  <g
     style="font-family:sans-serif;fill:#ffffff;stroke:#ffffff;stroke-width:2;stroke-linecap:round;stroke-linejoin:round;image-rendering:optimizeQuality;text-rendering:optimizeLegibility"
     id="g4316"
     transform="translate(141,48)">
    <path
       style="stroke:none"
       inkscape:connector-curvature="0"
       id="path4312"
       clip-path="url(#clipPath4)"
       d="M 109,31 C 109,47.5685 84.8234,61 55,61 25.1766,61 1,47.5685 1,31 1,14.4315 25.1766,1 55,1 c 29.8234,0 54,13.4315 54,30 z" />
    <path
       style="fill:none;stroke:#acacac"
       inkscape:connector-curvature="0"
       id="path4314"
       clip-path="url(#clipPath4)"
       d="M 109,31 C 109,47.5685 84.8234,61 55,61 25.1766,61 1,47.5685 1,31 1,14.4315 25.1766,1 55,1 c 29.8234,0 54,13.4315 54,30 z" />
  </g>
  <g
     style="font-size:14px;fill:#acacac;stroke:#acacac;image-rendering:optimizeQuality;text-rendering:optimizeLegibility"
     id="g4320"
     transform="translate(177,70)"
     font-size="14">
    <text
       style="stroke:none"
       id="text4318"
       clip-path="url(#clipPath6)"
       y="14"
       x="5"
       xml:space="preserve">EPN</text>
  </g>
  <g
     style="font-family:sans-serif;fill:#ffffff;stroke:#ffffff;stroke-width:2;stroke-linecap:round;stroke-linejoin:round;image-rendering:optimizeQuality;text-rendering:optimizeLegibility"
     id="g4326"
     transform="translate(48,66)">
    <path
       style="stroke:none"
       inkscape:connector-curvature="0"
       id="path4322"
       clip-path="url(#clipPath7)"
       d="M 1,1 H 25 V 25 H 1 Z" />
    <path
       style="fill:none;stroke:#acacac"
       inkscape:connector-curvature="0"
       id="path4324"
       clip-path="url(#clipPath7)"
       d="M 1,1 H 25 V 25 H 1 Z" />
  </g>
  <g
     style="fill:#acacac;stroke:#acacac;image-rendering:optimizeQuality;text-rendering:optimizeLegibility"
     id="g4330"
     transform="translate(48,71)">
    <text
       style="stroke:none"
       id="text4328"
       clip-path="url(#clipPath9)"
       y="13"
       x="5"
       xml:space="preserve">PN</text>
  </g>
  <g
     style="font-family:sans-serif;stroke-width:1.5;stroke-linecap:butt;stroke-linejoin:round;image-rendering:optimizeQuality;text-rendering:optimizeLegibility"
     id="g4336"
     transform="translate(74,71)">
    <path
       style="fill:none"
       inkscape:connector-curvature="0"
       id="path4332"
       clip-path="url(#clipPath10)"
       d="m 0.75,8.25 h 10.5 40.5" />
    <path
       style="stroke:none"
       inkscape:connector-curvature="0"
       id="path4334"
       clip-path="url(#clipPath10)"
       d="m 51.75,0.75 v 15 l 15,-7.5 z" />
  </g>
  <g
     style="fill:#ffffff;stroke:#ffffff;stroke-width:1.5;image-rendering:optimizeQuality;text-rendering:optimizeLegibility"
     id="g4342"
     transform="translate(96,61)">
    <rect
       style="stroke:none"
       id="rect4338"
       height="16.5"
       width="22.5"
       clip-path="url(#clipPath12)"
       y="1.25"
       x="1.25" />
    <rect
       style="fill:none;stroke:#000000"
       id="rect4340"
       height="16.5"
       width="22.5"
       clip-path="url(#clipPath12)"
       y="1.25"
       x="1.25" />
  </g>
  <g
     style="stroke-width:1.5;image-rendering:optimizeQuality;text-rendering:optimizeLegibility"
     id="g4346"
     transform="translate(96,61)">
    <text
       style="stroke:none"
       id="text4344"
       clip-path="url(#clipPath12)"
       y="14"
       x="8"
       xml:space="preserve">N</text>
  </g>
  <g
     style="font-family:sans-serif;fill:#acacac;stroke:#acacac;stroke-width:1.5;stroke-linecap:butt;stroke-linejoin:round;image-rendering:optimizeQuality;text-rendering:optimizeLegibility"
     id="g4350"
     transform="translate(74,78.5)">
    <path
       style="fill:none"
       inkscape:connector-curvature="0"
       id="path4348"
       clip-path="url(#clipPath13)"
       d="m 0.75,0.75 h 8" />
  </g>
  <g
     style="font-family:sans-serif;fill:#acacac;stroke:#acacac;stroke-width:1.5;stroke-linecap:butt;stroke-linejoin:round;image-rendering:optimizeQuality;text-rendering:optimizeLegibility"
     id="g4354"
     transform="translate(40,79)">
    <path
       style="fill:none"
       inkscape:connector-curvature="0"
       id="path4352"
       clip-path="url(#clipPath14)"
       d="m 0.75,0.75 h 7" />
  </g>
</svg>
