<?xml version="1.0" encoding="UTF-8" standalone="no"?>
<!-- Created with Bouml (http://bouml.free.fr/) -->
<!DOCTYPE svg PUBLIC "-//W3C//DTD SVG 1.1//EN" "http://www.w3.org/Graphics/SVG/1.1/DTD/svg11.dtd">
<svg width="1349" height="696" version="1.1" xmlns="http://www.w3.org/2000/svg">
<g>
	<rect fill="#cbcbcb" stroke="none" stroke-opacity="1" x="935" y="363" width="2" height="28" />
	<rect fill="#cbcbcb" stroke="none" stroke-opacity="1" x="875" y="389" width="62" height="2" />
	<rect fill="#ffffc0" stroke="black" stroke-width="1" stroke-opacity="1" x="872" y="360" width="63" height="29" />
	<text font-family="Helvetica" font-size="12" fill="#000000" xml:space="preserve" font-weight="bold" text-anchor="middle" x="904" y="373">OrNode</text>
	<line stroke="black" stroke-opacity="1" x1="872" y1="379" x2="935" y2="379" />
	<line stroke="black" stroke-opacity="1" x1="872" y1="384" x2="935" y2="384" />
</g>
<g>
	<rect fill="#cbcbcb" stroke="none" stroke-opacity="1" x="843" y="408" width="2" height="28" />
	<rect fill="#cbcbcb" stroke="none" stroke-opacity="1" x="715" y="434" width="130" height="2" />
	<rect fill="#ffffc0" stroke="black" stroke-width="1" stroke-opacity="1" x="712" y="405" width="131" height="29" />
	<text font-family="Helvetica" font-size="12" fill="#000000" xml:space="preserve" font-weight="bold" text-anchor="middle" x="778" y="418">PerturbingAgent</text>
	<line stroke="black" stroke-opacity="1" x1="712" y1="424" x2="843" y2="424" />
	<line stroke="black" stroke-opacity="1" x1="712" y1="429" x2="843" y2="429" />
</g>
<g>
	<rect fill="#cbcbcb" stroke="none" stroke-opacity="1" x="443" y="22" width="2" height="28" />
	<rect fill="#cbcbcb" stroke="none" stroke-opacity="1" x="349" y="48" width="96" height="2" />
	<rect fill="#ffffc0" stroke="black" stroke-width="1" stroke-opacity="1" x="346" y="19" width="97" height="29" />
	<text font-family="Helvetica" font-size="12" fill="#000000" xml:space="preserve" font-weight="bold" font-style="italic" text-anchor="middle" x="395" y="32">SBGNGlyph</text>
	<line stroke="black" stroke-opacity="1" x1="346" y1="38" x2="443" y2="38" />
	<line stroke="black" stroke-opacity="1" x1="346" y1="43" x2="443" y2="43" />
</g>
<g>
	<rect fill="#cbcbcb" stroke="none" stroke-opacity="1" x="795" y="290" width="2" height="42" />
	<rect fill="#cbcbcb" stroke="none" stroke-opacity="1" x="733" y="330" width="64" height="2" />
	<rect fill="#ffffc0" stroke="black" stroke-width="1" stroke-opacity="1" x="730" y="287" width="65" height="43" />
	<text font-family="Helvetica" font-size="12" fill="#000000" xml:space="preserve" font-weight="bold" text-anchor="middle" x="763" y="300">Tag</text>
	<line stroke="black" stroke-opacity="1" x1="730" y1="306" x2="795" y2="306" />
	<text font-family="Helvetica" font-size="12" fill="#000000" xml:space="preserve" x="733" y="319">identifier</text>
	<line stroke="black" stroke-opacity="1" x1="730" y1="325" x2="795" y2="325" />
</g>
<g>
	<rect fill="#cbcbcb" stroke="none" stroke-opacity="1" x="350" y="174" width="2" height="42" />
	<rect fill="#cbcbcb" stroke="none" stroke-opacity="1" x="266" y="214" width="86" height="2" />
	<rect fill="#ffffc0" stroke="black" stroke-width="1" stroke-opacity="1" x="263" y="171" width="87" height="43" />
	<text font-family="Helvetica" font-size="12" fill="#000000" xml:space="preserve" font-weight="bold" text-anchor="middle" x="307" y="184">Phenotype</text>
	<line stroke="black" stroke-opacity="1" x1="263" y1="190" x2="350" y2="190" />
	<text font-family="Helvetica" font-size="12" fill="#000000" xml:space="preserve" x="266" y="203">name</text>
	<line stroke="black" stroke-opacity="1" x1="263" y1="209" x2="350" y2="209" />
</g>
<g>
	<rect fill="#cbcbcb" stroke="none" stroke-opacity="1" x="1166" y="399" width="2" height="28" />
	<rect fill="#cbcbcb" stroke="none" stroke-opacity="1" x="1032" y="425" width="136" height="2" />
	<rect fill="#ffffc0" stroke="black" stroke-width="1" stroke-opacity="1" x="1029" y="396" width="137" height="29" />
	<text font-family="Helvetica" font-size="12" fill="#000000" xml:space="preserve" font-weight="bold" text-anchor="middle" x="1098" y="409">EquivalenceNode</text>
	<line stroke="black" stroke-opacity="1" x1="1029" y1="415" x2="1166" y2="415" />
	<line stroke="black" stroke-opacity="1" x1="1029" y1="420" x2="1166" y2="420" />
</g>
<g>
	<rect fill="#cbcbcb" stroke="none" stroke-opacity="1" x="199" y="124" width="2" height="28" />
	<rect fill="#cbcbcb" stroke="none" stroke-opacity="1" x="135" y="150" width="66" height="2" />
	<rect fill="#ffffc0" stroke="black" stroke-width="1" stroke-opacity="1" x="132" y="121" width="67" height="29" />
	<text font-family="Helvetica" font-size="12" fill="#000000" xml:space="preserve" font-weight="bold" text-anchor="middle" x="166" y="134">Process</text>
	<line stroke="black" stroke-opacity="1" x1="132" y1="140" x2="199" y2="140" />
	<line stroke="black" stroke-opacity="1" x1="132" y1="145" x2="199" y2="145" />
</g>
<g>
	<rect fill="#cbcbcb" stroke="none" stroke-opacity="1" x="247" y="513" width="2" height="42" />
	<rect fill="#cbcbcb" stroke="none" stroke-opacity="1" x="57" y="553" width="192" height="2" />
	<rect fill="#ffffc0" stroke="black" stroke-width="1" stroke-opacity="1" x="54" y="510" width="193" height="43" />
	<text font-family="Helvetica" font-size="12" fill="#000000" xml:space="preserve" font-weight="bold" text-anchor="middle" x="151" y="523">SimpleChemicalMultimer</text>
	<line stroke="black" stroke-opacity="1" x1="54" y1="529" x2="247" y2="529" />
	<text font-family="Helvetica" font-size="12" fill="#000000" xml:space="preserve" x="57" y="542">cardinality</text>
	<line stroke="black" stroke-opacity="1" x1="54" y1="548" x2="247" y2="548" />
</g>
<g>
	<rect fill="#cbcbcb" stroke="none" stroke-opacity="1" x="558" y="641" width="2" height="42" />
	<rect fill="#cbcbcb" stroke="none" stroke-opacity="1" x="422" y="681" width="138" height="2" />
	<rect fill="#ffffc0" stroke="black" stroke-width="1" stroke-opacity="1" x="419" y="638" width="139" height="43" />
	<text font-family="Helvetica" font-size="12" fill="#000000" xml:space="preserve" font-weight="bold" text-anchor="middle" x="489" y="651">MultimerComplex</text>
	<line stroke="black" stroke-opacity="1" x1="419" y1="657" x2="558" y2="657" />
	<text font-family="Helvetica" font-size="12" fill="#000000" xml:space="preserve" x="422" y="670">cardinality</text>
	<line stroke="black" stroke-opacity="1" x1="419" y1="676" x2="558" y2="676" />
</g>
<g>
	<rect fill="#cbcbcb" stroke="none" stroke-opacity="1" x="1031" y="355" width="2" height="28" />
	<rect fill="#cbcbcb" stroke="none" stroke-opacity="1" x="963" y="381" width="70" height="2" />
	<rect fill="#ffffc0" stroke="black" stroke-width="1" stroke-opacity="1" x="960" y="352" width="71" height="29" />
	<text font-family="Helvetica" font-size="12" fill="#000000" xml:space="preserve" font-weight="bold" text-anchor="middle" x="996" y="365">NotNode</text>
	<line stroke="black" stroke-opacity="1" x1="960" y1="371" x2="1031" y2="371" />
	<line stroke="black" stroke-opacity="1" x1="960" y1="376" x2="1031" y2="376" />
</g>
<g>
	<rect fill="#cbcbcb" stroke="none" stroke-opacity="1" x="851" y="355" width="2" height="28" />
	<rect fill="#cbcbcb" stroke="none" stroke-opacity="1" x="779" y="381" width="74" height="2" />
	<rect fill="#ffffc0" stroke="black" stroke-width="1" stroke-opacity="1" x="776" y="352" width="75" height="29" />
	<text font-family="Helvetica" font-size="12" fill="#000000" xml:space="preserve" font-weight="bold" text-anchor="middle" x="814" y="365">AndNode</text>
	<line stroke="black" stroke-opacity="1" x1="776" y1="371" x2="851" y2="371" />
	<line stroke="black" stroke-opacity="1" x1="776" y1="376" x2="851" y2="376" />
</g>
<g>
	<rect fill="#cbcbcb" stroke="none" stroke-opacity="1" x="779" y="185" width="2" height="28" />
	<rect fill="#cbcbcb" stroke="none" stroke-opacity="1" x="661" y="211" width="120" height="2" />
	<rect fill="#ffffc0" stroke="black" stroke-width="1" stroke-opacity="1" x="658" y="182" width="121" height="29" />
	<text font-family="Helvetica" font-size="12" fill="#000000" xml:space="preserve" font-weight="bold" font-style="italic" text-anchor="middle" x="719" y="195">ReferenceNode</text>
	<line stroke="black" stroke-opacity="1" x1="658" y1="201" x2="779" y2="201" />
	<line stroke="black" stroke-opacity="1" x1="658" y1="206" x2="779" y2="206" />
</g>
<g>
	<rect fill="#cbcbcb" stroke="none" stroke-opacity="1" x="254" y="284" width="2" height="28" />
	<rect fill="#cbcbcb" stroke="none" stroke-opacity="1" x="162" y="310" width="94" height="2" />
	<rect fill="#ffffc0" stroke="black" stroke-width="1" stroke-opacity="1" x="159" y="281" width="95" height="29" />
	<text font-family="Helvetica" font-size="12" fill="#000000" xml:space="preserve" font-weight="bold" text-anchor="middle" x="207" y="294">Association</text>
	<line stroke="black" stroke-opacity="1" x1="159" y1="300" x2="254" y2="300" />
	<line stroke="black" stroke-opacity="1" x1="159" y1="305" x2="254" y2="305" />
</g>
<g>
	<rect fill="#cbcbcb" stroke="none" stroke-opacity="1" x="421" y="582" width="2" height="42" />
	<rect fill="#cbcbcb" stroke="none" stroke-opacity="1" x="205" y="622" width="218" height="2" />
	<rect fill="#ffffc0" stroke="black" stroke-width="1" stroke-opacity="1" x="202" y="579" width="219" height="43" />
	<text font-family="Helvetica" font-size="12" fill="#000000" xml:space="preserve" font-weight="bold" text-anchor="middle" x="312" y="592">NucleicAcidFeatureMultimer</text>
	<line stroke="black" stroke-opacity="1" x1="202" y1="598" x2="421" y2="598" />
	<text font-family="Helvetica" font-size="12" fill="#000000" xml:space="preserve" x="205" y="611">cardinality</text>
	<line stroke="black" stroke-opacity="1" x1="202" y1="617" x2="421" y2="617" />
</g>
<g>
	<rect fill="#cbcbcb" stroke="none" stroke-opacity="1" x="1334" y="221" width="2" height="42" />
	<rect fill="#cbcbcb" stroke="none" stroke-opacity="1" x="1236" y="261" width="100" height="2" />
	<rect fill="#ffffc0" stroke="black" stroke-width="1" stroke-opacity="1" x="1233" y="218" width="101" height="43" />
	<text font-family="Helvetica" font-size="12" fill="#000000" xml:space="preserve" font-weight="bold" text-anchor="middle" x="1284" y="231">CloneMarker</text>
	<line stroke="black" stroke-opacity="1" x1="1233" y1="237" x2="1334" y2="237" />
	<text font-family="Helvetica" font-size="12" fill="#000000" xml:space="preserve" x="1236" y="250">identifier</text>
	<line stroke="black" stroke-opacity="1" x1="1233" y1="256" x2="1334" y2="256" />
</g>
<g>
	<rect fill="#cbcbcb" stroke="none" stroke-opacity="1" x="1208" y="162" width="2" height="28" />
	<rect fill="#cbcbcb" stroke="none" stroke-opacity="1" x="1100" y="188" width="110" height="2" />
	<rect fill="#ffffc0" stroke="black" stroke-width="1" stroke-opacity="1" x="1097" y="159" width="111" height="29" />
	<text font-family="Helvetica" font-size="12" fill="#000000" xml:space="preserve" font-weight="bold" text-anchor="middle" x="1153" y="172">AuxiliaryUnits</text>
	<line stroke="black" stroke-opacity="1" x1="1097" y1="178" x2="1208" y2="178" />
	<line stroke="black" stroke-opacity="1" x1="1097" y1="183" x2="1208" y2="183" />
</g>
<g>
	<rect fill="#cbcbcb" stroke="none" stroke-opacity="1" x="1143" y="227" width="2" height="60" />
	<rect fill="#cbcbcb" stroke="none" stroke-opacity="1" x="1005" y="285" width="140" height="2" />
	<rect fill="#ffffc0" stroke="black" stroke-width="1" stroke-opacity="1" x="1002" y="224" width="141" height="61" />
	<text font-family="Helvetica" font-size="12" fill="#000000" xml:space="preserve" font-weight="bold" text-anchor="middle" x="1073" y="237">UnitOfInformation</text>
	<line stroke="black" stroke-opacity="1" x1="1002" y1="243" x2="1143" y2="243" />
	<text font-family="Helvetica" font-size="12" fill="#000000" xml:space="preserve" x="1005" y="256">prefix</text>
	<text font-family="Helvetica" font-size="12" fill="#000000" xml:space="preserve" x="1005" y="274">annotation</text>
	<line stroke="black" stroke-opacity="1" x1="1002" y1="280" x2="1143" y2="280" />
</g>
<g>
	<rect fill="#cbcbcb" stroke="none" stroke-opacity="1" x="1204" y="313" width="2" height="60" />
	<rect fill="#cbcbcb" stroke="none" stroke-opacity="1" x="1102" y="371" width="104" height="2" />
	<rect fill="#ffffc0" stroke="black" stroke-width="1" stroke-opacity="1" x="1099" y="310" width="105" height="61" />
	<text font-family="Helvetica" font-size="12" fill="#000000" xml:space="preserve" font-weight="bold" text-anchor="middle" x="1152" y="323">StateVariable</text>
	<line stroke="black" stroke-opacity="1" x1="1099" y1="329" x2="1204" y2="329" />
	<text font-family="Helvetica" font-size="12" fill="#000000" xml:space="preserve" x="1102" y="342">name</text>
	<text font-family="Helvetica" font-size="12" fill="#000000" xml:space="preserve" x="1102" y="360">value</text>
	<line stroke="black" stroke-opacity="1" x1="1099" y1="366" x2="1204" y2="366" />
</g>
<g>
	<line stroke="#000000" stroke-opacity="1" x1="393" y1="81" x2="393" y2="56" />
	<line stroke="#000000" stroke-opacity="1" x1="394" y1="51" x2="387" y2="56" />
	<line stroke="#000000" stroke-opacity="1" x1="394" y1="51" x2="399" y2="57" />
	<line stroke="#000000" stroke-opacity="1" x1="387" y1="56" x2="399" y2="57" />
</g>
<g>
	<line stroke="#000000" stroke-opacity="1" x1="262" y1="174" x2="207" y2="152" />
	<line stroke="#000000" stroke-opacity="1" x1="202" y1="150" x2="205" y2="157" />
	<line stroke="#000000" stroke-opacity="1" x1="202" y1="150" x2="209" y2="146" />
	<line stroke="#000000" stroke-opacity="1" x1="205" y1="157" x2="209" y2="146" />
</g>
<g>
	<line stroke="#000000" stroke-opacity="1" x1="754" y1="286" x2="728" y2="219" />
	<line stroke="#000000" stroke-opacity="1" x1="726" y1="214" x2="722" y2="221" />
	<line stroke="#000000" stroke-opacity="1" x1="726" y1="214" x2="733" y2="217" />
	<line stroke="#000000" stroke-opacity="1" x1="722" y1="221" x2="733" y2="217" />
</g>
<g>
	<line stroke="#000000" stroke-opacity="1" x1="202" y1="280" x2="171" y2="158" />
	<line stroke="#000000" stroke-opacity="1" x1="170" y1="153" x2="165" y2="160" />
	<line stroke="#000000" stroke-opacity="1" x1="170" y1="153" x2="177" y2="157" />
	<line stroke="#000000" stroke-opacity="1" x1="165" y1="160" x2="177" y2="157" />
</g>
<g>
	<line stroke="#000000" stroke-opacity="1" x1="1153" y1="309" x2="1153" y2="197" />
	<line stroke="#000000" stroke-opacity="1" x1="1153" y1="191" x2="1147" y2="197" />
	<line stroke="#000000" stroke-opacity="1" x1="1153" y1="191" x2="1159" y2="197" />
	<line stroke="#000000" stroke-opacity="1" x1="1147" y1="197" x2="1159" y2="197" />
</g>
<g>
	<line stroke="#000000" stroke-opacity="1" x1="1104" y1="223" x2="1130" y2="195" />
	<line stroke="#000000" stroke-opacity="1" x1="1135" y1="191" x2="1126" y2="191" />
	<line stroke="#000000" stroke-opacity="1" x1="1135" y1="191" x2="1135" y2="199" />
	<line stroke="#000000" stroke-opacity="1" x1="1126" y1="191" x2="1135" y2="199" />
</g>
<g>
	<line stroke="#000000" stroke-opacity="1" x1="1238" y1="217" x2="1192" y2="193" />
	<line stroke="#000000" stroke-opacity="1" x1="1187" y1="191" x2="1189" y2="199" />
	<line stroke="#000000" stroke-opacity="1" x1="1187" y1="191" x2="1195" y2="188" />
	<line stroke="#000000" stroke-opacity="1" x1="1189" y1="199" x2="1195" y2="188" />
</g>
<g>
	<rect fill="#cbcbcb" stroke="none" stroke-opacity="1" x="129" y="168" width="2" height="28" />
	<rect fill="#cbcbcb" stroke="none" stroke-opacity="1" x="5" y="194" width="126" height="2" />
	<rect fill="#ffffc0" stroke="black" stroke-width="1" stroke-opacity="1" x="2" y="165" width="127" height="29" />
	<text font-family="Helvetica" font-size="12" fill="#000000" xml:space="preserve" font-weight="bold" text-anchor="middle" x="66" y="178">OmittedProcess</text>
	<line stroke="black" stroke-opacity="1" x1="2" y1="184" x2="129" y2="184" />
	<line stroke="black" stroke-opacity="1" x1="2" y1="189" x2="129" y2="189" />
</g>
<g>
	<rect fill="#cbcbcb" stroke="none" stroke-opacity="1" x="151" y="234" width="2" height="28" />
	<rect fill="#cbcbcb" stroke="none" stroke-opacity="1" x="15" y="260" width="138" height="2" />
	<rect fill="#ffffc0" stroke="black" stroke-width="1" stroke-opacity="1" x="12" y="231" width="139" height="29" />
	<text font-family="Helvetica" font-size="12" fill="#000000" xml:space="preserve" font-weight="bold" text-anchor="middle" x="82" y="244">UncertainProcess</text>
	<line stroke="black" stroke-opacity="1" x1="12" y1="250" x2="151" y2="250" />
	<line stroke="black" stroke-opacity="1" x1="12" y1="255" x2="151" y2="255" />
</g>
<g>
	<rect fill="#cbcbcb" stroke="none" stroke-opacity="1" x="426" y="499" width="2" height="42" />
	<rect fill="#cbcbcb" stroke="none" stroke-opacity="1" x="276" y="539" width="152" height="2" />
	<rect fill="#ffffc0" stroke="black" stroke-width="1" stroke-opacity="1" x="273" y="496" width="153" height="43" />
	<text font-family="Helvetica" font-size="12" fill="#000000" xml:space="preserve" font-weight="bold" text-anchor="middle" x="350" y="509">NucleicAcidFeature</text>
	<line stroke="black" stroke-opacity="1" x1="273" y1="515" x2="426" y2="515" />
	<text font-family="Helvetica" font-size="12" fill="#000000" xml:space="preserve" x="276" y="528">conceptualType</text>
	<line stroke="black" stroke-opacity="1" x1="273" y1="534" x2="426" y2="534" />
</g>
<g>
	<rect fill="#cbcbcb" stroke="none" stroke-opacity="1" x="436" y="85" width="2" height="28" />
	<rect fill="#cbcbcb" stroke="none" stroke-opacity="1" x="348" y="111" width="90" height="2" />
	<rect fill="#ffffc0" stroke="black" stroke-width="1" stroke-opacity="1" x="345" y="82" width="91" height="29" />
	<text font-family="Helvetica" font-size="12" fill="#000000" xml:space="preserve" font-weight="bold" font-style="italic" text-anchor="middle" x="391" y="95">SBGNNode</text>
	<line stroke="black" stroke-opacity="1" x1="345" y1="101" x2="436" y2="101" />
	<line stroke="black" stroke-opacity="1" x1="345" y1="106" x2="436" y2="106" />
</g>
<g>
	<rect fill="#cbcbcb" stroke="none" stroke-opacity="1" x="1001" y="188" width="2" height="28" />
	<rect fill="#cbcbcb" stroke="none" stroke-opacity="1" x="837" y="214" width="166" height="2" />
	<rect fill="#ffffc0" stroke="black" stroke-width="1" stroke-opacity="1" x="834" y="185" width="167" height="29" />
	<text font-family="Helvetica" font-size="12" fill="#000000" xml:space="preserve" font-weight="bold" font-style="italic" text-anchor="middle" x="918" y="198">LogicalOperatorNode</text>
	<line stroke="black" stroke-opacity="1" x1="834" y1="204" x2="1001" y2="204" />
	<line stroke="black" stroke-opacity="1" x1="834" y1="209" x2="1001" y2="209" />
</g>
<g>
	<line stroke="#000000" stroke-opacity="1" x1="94" y1="230" x2="148" y2="157" />
	<line stroke="#000000" stroke-opacity="1" x1="152" y1="153" x2="143" y2="154" />
	<line stroke="#000000" stroke-opacity="1" x1="152" y1="153" x2="153" y2="161" />
	<line stroke="#000000" stroke-opacity="1" x1="143" y1="154" x2="153" y2="161" />
</g>
<g>
	<line stroke="#000000" stroke-opacity="1" x1="101" y1="164" x2="125" y2="152" />
	<line stroke="#000000" stroke-opacity="1" x1="131" y1="150" x2="123" y2="147" />
	<line stroke="#000000" stroke-opacity="1" x1="131" y1="150" x2="128" y2="157" />
	<line stroke="#000000" stroke-opacity="1" x1="123" y1="147" x2="128" y2="157" />
</g>
<g>
	<line stroke="#000000" stroke-opacity="1" x1="322" y1="578" x2="334" y2="547" />
	<line stroke="#000000" stroke-opacity="1" x1="337" y1="542" x2="329" y2="545" />
	<line stroke="#000000" stroke-opacity="1" x1="337" y1="542" x2="340" y2="549" />
	<line stroke="#000000" stroke-opacity="1" x1="329" y1="545" x2="340" y2="549" />
</g>
<g>
	<line stroke="#000000" stroke-opacity="1" x1="395" y1="334" x2="392" y2="119" />
	<line stroke="#000000" stroke-opacity="1" x1="392" y1="114" x2="386" y2="120" />
	<line stroke="#000000" stroke-opacity="1" x1="392" y1="114" x2="398" y2="119" />
	<line stroke="#000000" stroke-opacity="1" x1="386" y1="120" x2="398" y2="119" />
</g>
<g>
	<line stroke="#000000" stroke-opacity="1" x1="1084" y1="395" x2="935" y2="221" />
	<line stroke="#000000" stroke-opacity="1" x1="932" y1="217" x2="931" y2="225" />
	<line stroke="#000000" stroke-opacity="1" x1="932" y1="217" x2="940" y2="217" />
	<line stroke="#000000" stroke-opacity="1" x1="931" y1="225" x2="940" y2="217" />
</g>
<g>
	<line stroke="#000000" stroke-opacity="1" x1="499" y1="187" x2="415" y2="117" />
	<line stroke="#000000" stroke-opacity="1" x1="411" y1="114" x2="411" y2="122" />
	<line stroke="#000000" stroke-opacity="1" x1="411" y1="114" x2="419" y2="113" />
	<line stroke="#000000" stroke-opacity="1" x1="411" y1="122" x2="419" y2="113" />
</g>
<g>
	<line stroke="#000000" stroke-opacity="1" x1="824" y1="351" x2="903" y2="222" />
	<line stroke="#000000" stroke-opacity="1" x1="907" y1="217" x2="898" y2="218" />
	<line stroke="#000000" stroke-opacity="1" x1="907" y1="217" x2="908" y2="225" />
	<line stroke="#000000" stroke-opacity="1" x1="898" y1="218" x2="908" y2="225" />
</g>
<g>
	<line stroke="#000000" stroke-opacity="1" x1="905" y1="359" x2="916" y2="222" />
	<line stroke="#000000" stroke-opacity="1" x1="917" y1="217" x2="910" y2="222" />
	<line stroke="#000000" stroke-opacity="1" x1="917" y1="217" x2="922" y2="223" />
	<line stroke="#000000" stroke-opacity="1" x1="910" y1="222" x2="922" y2="223" />
</g>
<g>
	<line stroke="#000000" stroke-opacity="1" x1="988" y1="351" x2="928" y2="222" />
	<line stroke="#000000" stroke-opacity="1" x1="926" y1="217" x2="923" y2="224" />
	<line stroke="#000000" stroke-opacity="1" x1="926" y1="217" x2="933" y2="219" />
	<line stroke="#000000" stroke-opacity="1" x1="923" y1="224" x2="933" y2="219" />
</g>
<g>
	<line stroke="#000000" stroke-opacity="1" x1="839" y1="184" x2="444" y2="106" />
	<line stroke="#000000" stroke-opacity="1" x1="439" y1="105" x2="443" y2="112" />
	<line stroke="#000000" stroke-opacity="1" x1="439" y1="105" x2="446" y2="100" />
	<line stroke="#000000" stroke-opacity="1" x1="443" y1="112" x2="446" y2="100" />
</g>
<g>
	<line stroke="#000000" stroke-opacity="1" x1="667" y1="181" x2="444" y2="112" />
	<line stroke="#000000" stroke-opacity="1" x1="439" y1="111" x2="442" y2="118" />
	<line stroke="#000000" stroke-opacity="1" x1="439" y1="111" x2="446" y2="107" />
	<line stroke="#000000" stroke-opacity="1" x1="442" y1="118" x2="446" y2="107" />
</g>
<g>
	<line stroke="#000000" stroke-opacity="1" x1="202" y1="129" x2="338" y2="105" />
	<line stroke="#000000" stroke-opacity="1" x1="344" y1="104" x2="337" y2="99" />
	<line stroke="#000000" stroke-opacity="1" x1="344" y1="104" x2="339" y2="110" />
	<line stroke="#000000" stroke-opacity="1" x1="337" y1="99" x2="339" y2="110" />
</g>
<g>
	<line stroke="#000000" stroke-opacity="1" x1="1096" y1="168" x2="444" y2="102" />
	<line stroke="#000000" stroke-opacity="1" x1="439" y1="102" x2="444" y2="108" />
	<line stroke="#000000" stroke-opacity="1" x1="439" y1="102" x2="445" y2="96" />
	<line stroke="#000000" stroke-opacity="1" x1="444" y1="108" x2="445" y2="96" />
</g>
<g>
	<rect fill="#cbcbcb" stroke="none" stroke-opacity="1" x="345" y="247" width="2" height="28" />
	<rect fill="#cbcbcb" stroke="none" stroke-opacity="1" x="249" y="273" width="98" height="2" />
	<rect fill="#ffffc0" stroke="black" stroke-width="1" stroke-opacity="1" x="246" y="244" width="99" height="29" />
	<text font-family="Helvetica" font-size="12" fill="#000000" xml:space="preserve" font-weight="bold" text-anchor="middle" x="296" y="257">Dissociation</text>
	<line stroke="black" stroke-opacity="1" x1="246" y1="263" x2="345" y2="263" />
	<line stroke="black" stroke-opacity="1" x1="246" y1="268" x2="345" y2="268" />
</g>
<g>
	<line stroke="#000000" stroke-opacity="1" x1="279" y1="243" x2="189" y2="157" />
	<line stroke="#000000" stroke-opacity="1" x1="185" y1="153" x2="185" y2="161" />
	<line stroke="#000000" stroke-opacity="1" x1="185" y1="153" x2="193" y2="152" />
	<line stroke="#000000" stroke-opacity="1" x1="185" y1="161" x2="193" y2="152" />
</g>
<g>
	<rect fill="#cbcbcb" stroke="none" stroke-opacity="1" x="580" y="191" width="2" height="42" />
	<rect fill="#cbcbcb" stroke="none" stroke-opacity="1" x="474" y="231" width="108" height="2" />
	<rect fill="#ffffc0" stroke="black" stroke-width="1" stroke-opacity="1" x="471" y="188" width="109" height="43" />
	<text font-family="Helvetica" font-size="12" fill="#000000" xml:space="preserve" font-weight="bold" text-anchor="middle" x="526" y="201">Compartment</text>
	<line stroke="black" stroke-opacity="1" x1="471" y1="207" x2="580" y2="207" />
	<text font-family="Helvetica" font-size="12" fill="#000000" xml:space="preserve" x="474" y="220">name</text>
	<line stroke="black" stroke-opacity="1" x1="471" y1="226" x2="580" y2="226" />
</g>
<g>
	<rect fill="#cbcbcb" stroke="none" stroke-opacity="1" x="456" y="338" width="2" height="42" />
	<rect fill="#cbcbcb" stroke="none" stroke-opacity="1" x="336" y="378" width="122" height="2" />
	<rect fill="#ffffc0" stroke="black" stroke-width="1" stroke-opacity="1" x="333" y="335" width="123" height="43" />
	<text font-family="Helvetica" font-size="12" fill="#000000" xml:space="preserve" font-weight="bold" font-style="italic" text-anchor="middle" x="395" y="348">EntityPoolNode</text>
	<line stroke="black" stroke-opacity="1" x1="333" y1="354" x2="456" y2="354" />
	<text font-family="Helvetica" font-size="12" fill="#000000" xml:space="preserve" x="336" y="367">name</text>
	<line stroke="black" stroke-opacity="1" x1="333" y1="373" x2="456" y2="373" />
</g>
<g>
	<line stroke="#000000" stroke-opacity="1" x1="441" y1="412" x2="418" y2="385" />
	<line stroke="#000000" stroke-opacity="1" x1="415" y1="381" x2="414" y2="389" />
	<line stroke="#000000" stroke-opacity="1" x1="415" y1="381" x2="423" y2="381" />
	<line stroke="#000000" stroke-opacity="1" x1="414" y1="389" x2="423" y2="381" />
</g>
<g>
	<line stroke="#000000" stroke-opacity="1" x1="243" y1="401" x2="326" y2="375" />
	<line stroke="#000000" stroke-opacity="1" x1="332" y1="374" x2="324" y2="370" />
	<line stroke="#000000" stroke-opacity="1" x1="332" y1="374" x2="328" y2="381" />
	<line stroke="#000000" stroke-opacity="1" x1="324" y1="370" x2="328" y2="381" />
</g>
<g>
	<line stroke="#000000" stroke-opacity="1" x1="594" y1="429" x2="464" y2="381" />
	<line stroke="#000000" stroke-opacity="1" x1="459" y1="379" x2="462" y2="386" />
	<line stroke="#000000" stroke-opacity="1" x1="459" y1="379" x2="466" y2="375" />
	<line stroke="#000000" stroke-opacity="1" x1="462" y1="386" x2="466" y2="375" />
</g>
<g>
	<line stroke="#000000" stroke-opacity="1" x1="711" y1="409" x2="464" y2="367" />
	<line stroke="#000000" stroke-opacity="1" x1="459" y1="367" x2="463" y2="373" />
	<line stroke="#000000" stroke-opacity="1" x1="459" y1="367" x2="465" y2="362" />
	<line stroke="#000000" stroke-opacity="1" x1="463" y1="373" x2="465" y2="362" />
</g>
<g>
	<rect fill="#cbcbcb" stroke="none" stroke-opacity="1" x="706" y="433" width="2" height="28" />
	<rect fill="#cbcbcb" stroke="none" stroke-opacity="1" x="570" y="459" width="138" height="2" />
	<rect fill="#ffffc0" stroke="black" stroke-width="1" stroke-opacity="1" x="567" y="430" width="139" height="29" />
	<text font-family="Helvetica" font-size="12" fill="#000000" xml:space="preserve" font-weight="bold" text-anchor="middle" x="637" y="443">UnspecifiedEntity</text>
	<line stroke="black" stroke-opacity="1" x1="567" y1="449" x2="706" y2="449" />
	<line stroke="black" stroke-opacity="1" x1="567" y1="454" x2="706" y2="454" />
</g>
<g>
	<rect fill="#cbcbcb" stroke="none" stroke-opacity="1" x="250" y="405" width="2" height="28" />
	<rect fill="#cbcbcb" stroke="none" stroke-opacity="1" x="126" y="431" width="126" height="2" />
	<rect fill="#ffffc0" stroke="black" stroke-width="1" stroke-opacity="1" x="123" y="402" width="127" height="29" />
	<text font-family="Helvetica" font-size="12" fill="#000000" xml:space="preserve" font-weight="bold" text-anchor="middle" x="187" y="415">SimpleChemical</text>
	<line stroke="black" stroke-opacity="1" x1="123" y1="421" x2="250" y2="421" />
	<line stroke="black" stroke-opacity="1" x1="123" y1="426" x2="250" y2="426" />
</g>
<g>
	<rect fill="#cbcbcb" stroke="none" stroke-opacity="1" x="545" y="416" width="2" height="28" />
	<rect fill="#cbcbcb" stroke="none" stroke-opacity="1" x="367" y="442" width="180" height="2" />
	<rect fill="#ffffc0" stroke="black" stroke-width="1" stroke-opacity="1" x="364" y="413" width="181" height="29" />
	<text font-family="Helvetica" font-size="12" fill="#000000" xml:space="preserve" font-weight="bold" font-style="italic" text-anchor="middle" x="455" y="426">StatefulEntityPoolNode</text>
	<line stroke="black" stroke-opacity="1" x1="364" y1="432" x2="545" y2="432" />
	<line stroke="black" stroke-opacity="1" x1="364" y1="437" x2="545" y2="437" />
</g>
<g>
	<rect fill="#cbcbcb" stroke="none" stroke-opacity="1" x="635" y="284" width="2" height="42" />
	<rect fill="#cbcbcb" stroke="none" stroke-opacity="1" x="571" y="324" width="66" height="2" />
	<rect fill="#ffffc0" stroke="black" stroke-width="1" stroke-opacity="1" x="568" y="281" width="67" height="43" />
	<text font-family="Helvetica" font-size="12" fill="#000000" xml:space="preserve" font-weight="bold" text-anchor="middle" x="602" y="294">SubMap</text>
	<line stroke="black" stroke-opacity="1" x1="568" y1="300" x2="635" y2="300" />
	<text font-family="Helvetica" font-size="12" fill="#000000" xml:space="preserve" x="571" y="313">name</text>
	<line stroke="black" stroke-opacity="1" x1="568" y1="319" x2="635" y2="319" />
</g>
<g>
	<line stroke="#000000" stroke-opacity="1" x1="570" y1="497" x2="488" y2="448" />
	<line stroke="#000000" stroke-opacity="1" x1="483" y1="445" x2="485" y2="453" />
	<line stroke="#000000" stroke-opacity="1" x1="483" y1="445" x2="491" y2="442" />
	<line stroke="#000000" stroke-opacity="1" x1="485" y1="453" x2="491" y2="442" />
</g>
<g>
	<line stroke="#000000" stroke-opacity="1" x1="478" y1="496" x2="462" y2="450" />
	<line stroke="#000000" stroke-opacity="1" x1="461" y1="445" x2="457" y2="452" />
	<line stroke="#000000" stroke-opacity="1" x1="461" y1="445" x2="468" y2="448" />
	<line stroke="#000000" stroke-opacity="1" x1="457" y1="452" x2="468" y2="448" />
</g>
<g>
	<line stroke="#000000" stroke-opacity="1" x1="140" y1="509" x2="175" y2="439" />
	<line stroke="#000000" stroke-opacity="1" x1="178" y1="434" x2="169" y2="436" />
	<line stroke="#000000" stroke-opacity="1" x1="178" y1="434" x2="180" y2="442" />
	<line stroke="#000000" stroke-opacity="1" x1="169" y1="436" x2="180" y2="442" />
</g>
<g>
	<line stroke="#000000" stroke-opacity="1" x1="377" y1="495" x2="429" y2="448" />
	<line stroke="#000000" stroke-opacity="1" x1="434" y1="445" x2="425" y2="444" />
	<line stroke="#000000" stroke-opacity="1" x1="434" y1="445" x2="433" y2="453" />
	<line stroke="#000000" stroke-opacity="1" x1="425" y1="444" x2="433" y2="453" />
</g>
<g>
	<line stroke="#000000" stroke-opacity="1" x1="626" y1="280" x2="694" y2="218" />
	<line stroke="#000000" stroke-opacity="1" x1="699" y1="214" x2="690" y2="213" />
	<line stroke="#000000" stroke-opacity="1" x1="699" y1="214" x2="698" y2="222" />
	<line stroke="#000000" stroke-opacity="1" x1="690" y1="213" x2="698" y2="222" />
</g>
<g>
	<rect fill="#cbcbcb" stroke="none" stroke-opacity="1" x="681" y="501" width="2" height="42" />
	<rect fill="#cbcbcb" stroke="none" stroke-opacity="1" x="539" y="541" width="144" height="2" />
	<rect fill="#ffffc0" stroke="black" stroke-width="1" stroke-opacity="1" x="536" y="498" width="145" height="43" />
	<text font-family="Helvetica" font-size="12" fill="#000000" xml:space="preserve" font-weight="bold" text-anchor="middle" x="609" y="511">Macromolecule</text>
	<line stroke="black" stroke-opacity="1" x1="536" y1="517" x2="681" y2="517" />
	<text font-family="Helvetica" font-size="12" fill="#000000" xml:space="preserve" x="539" y="530">macromoleculeType</text>
	<line stroke="black" stroke-opacity="1" x1="536" y1="536" x2="681" y2="536" />
</g>
<g>
	<rect fill="#cbcbcb" stroke="none" stroke-opacity="1" x="350" y="414" width="2" height="28" />
	<rect fill="#cbcbcb" stroke="none" stroke-opacity="1" x="274" y="440" width="78" height="2" />
	<rect fill="#ffffc0" stroke="black" stroke-width="1" stroke-opacity="1" x="271" y="411" width="79" height="29" />
	<text font-family="Helvetica" font-size="12" fill="#000000" xml:space="preserve" font-weight="bold" text-anchor="middle" x="311" y="424">EmptySet</text>
	<line stroke="black" stroke-opacity="1" x1="271" y1="430" x2="350" y2="430" />
	<line stroke="black" stroke-opacity="1" x1="271" y1="435" x2="350" y2="435" />
</g>
<g>
	<rect fill="#cbcbcb" stroke="none" stroke-opacity="1" x="720" y="341" width="2" height="42" />
	<rect fill="#cbcbcb" stroke="none" stroke-opacity="1" x="592" y="381" width="130" height="2" />
	<rect fill="#ffffc0" stroke="black" stroke-width="1" stroke-opacity="1" x="589" y="338" width="131" height="43" />
	<text font-family="Helvetica" font-size="12" fill="#000000" xml:space="preserve" font-weight="bold" text-anchor="middle" x="655" y="351">SubMapTerminal</text>
	<line stroke="black" stroke-opacity="1" x1="589" y1="357" x2="720" y2="357" />
	<text font-family="Helvetica" font-size="12" fill="#000000" xml:space="preserve" x="592" y="370">identifier</text>
	<line stroke="black" stroke-opacity="1" x1="589" y1="376" x2="720" y2="376" />
</g>
<g>
	<line stroke="#000000" stroke-opacity="1" x1="330" y1="410" x2="360" y2="384" />
	<line stroke="#000000" stroke-opacity="1" x1="365" y1="381" x2="356" y2="380" />
	<line stroke="#000000" stroke-opacity="1" x1="365" y1="381" x2="364" y2="389" />
	<line stroke="#000000" stroke-opacity="1" x1="356" y1="380" x2="364" y2="389" />
</g>
<g>
	<line stroke="#000000" stroke-opacity="1" x1="664" y1="337" x2="710" y2="219" />
	<line stroke="#000000" stroke-opacity="1" x1="713" y1="214" x2="705" y2="217" />
	<line stroke="#000000" stroke-opacity="1" x1="713" y1="214" x2="716" y2="221" />
	<line stroke="#000000" stroke-opacity="1" x1="705" y1="217" x2="716" y2="221" />
</g>
<g>
	<rect fill="#cbcbcb" stroke="none" stroke-opacity="1" x="705" y="581" width="2" height="42" />
	<rect fill="#cbcbcb" stroke="none" stroke-opacity="1" x="521" y="621" width="186" height="2" />
	<rect fill="#ffffc0" stroke="black" stroke-width="1" stroke-opacity="1" x="518" y="578" width="187" height="43" />
	<text font-family="Helvetica" font-size="12" fill="#000000" xml:space="preserve" font-weight="bold" text-anchor="middle" x="612" y="591">MultimerMacromolecule</text>
	<line stroke="black" stroke-opacity="1" x1="518" y1="597" x2="705" y2="597" />
	<text font-family="Helvetica" font-size="12" fill="#000000" xml:space="preserve" x="521" y="610">cardinality</text>
	<line stroke="black" stroke-opacity="1" x1="518" y1="616" x2="705" y2="616" />
</g>
<g>
	<line stroke="#000000" stroke-opacity="1" x1="611" y1="577" x2="610" y2="549" />
	<line stroke="#000000" stroke-opacity="1" x1="610" y1="544" x2="604" y2="550" />
	<line stroke="#000000" stroke-opacity="1" x1="610" y1="544" x2="616" y2="549" />
	<line stroke="#000000" stroke-opacity="1" x1="604" y1="550" x2="616" y2="549" />
</g>
<g>
	<rect fill="#cbcbcb" stroke="none" stroke-opacity="1" x="520" y="500" width="2" height="28" />
	<rect fill="#cbcbcb" stroke="none" stroke-opacity="1" x="450" y="526" width="72" height="2" />
	<rect fill="#ffffc0" stroke="black" stroke-width="1" stroke-opacity="1" x="447" y="497" width="73" height="29" />
	<text font-family="Helvetica" font-size="12" fill="#000000" xml:space="preserve" font-weight="bold" text-anchor="middle" x="484" y="510">Complex</text>
	<line stroke="black" stroke-opacity="1" x1="447" y1="516" x2="520" y2="516" />
	<line stroke="black" stroke-opacity="1" x1="447" y1="521" x2="520" y2="521" />
</g>
<g>
	<line stroke="#000000" stroke-opacity="1" x1="488" y1="637" x2="485" y2="534" />
	<line stroke="#000000" stroke-opacity="1" x1="485" y1="529" x2="479" y2="535" />
	<line stroke="#000000" stroke-opacity="1" x1="485" y1="529" x2="491" y2="534" />
	<line stroke="#000000" stroke-opacity="1" x1="479" y1="535" x2="491" y2="534" />
</g>
</svg>
