<?xml version="1.0" encoding="utf-8"?>
<!-- Generator: Adobe Illustrator 12.0.1, SVG Export Plug-In . SVG Version: 6.00 Build 51448)  -->
<!DOCTYPE svg PUBLIC "-//W3C//DTD SVG 1.1//EN" "http://www.w3.org/Graphics/SVG/1.1/DTD/svg11.dtd" [
	<!ENTITY ns_svg "http://www.w3.org/2000/svg">
	<!ENTITY ns_xlink "http://www.w3.org/1999/xlink">
]>
<svg  version="1.1" id="Layer_1" xmlns="&ns_svg;" xmlns:xlink="&ns_xlink;" width="429.109" height="417.841"
	 viewBox="0 0 429.109 417.841" overflow="visible" enable-background="new 0 0 429.109 417.841" xml:space="preserve">
<path fill="none" stroke="#000000" stroke-width="1.6" stroke-miterlimit="10" d="M305.049,78.053v77.643 M119.184,154.627v25.396
	 M305.802,155.336H118.869 M397.341,209.271v89.643 M397.712,298.638H118.704 M119.545,299.227v25.396 M301.945,298.198v27.453"/>
<polygon fill-rule="evenodd" clip-rule="evenodd" points="250.82,94.202 243.801,87.693 251.275,84.627 250.82,94.202 "/>
<polygon fill="none" stroke="#000000" stroke-width="1.6" stroke-miterlimit="10" points="251.126,94.727 244.108,88.219 
	251.582,85.153 251.126,94.727 "/>
<path fill="none" stroke="#000000" stroke-width="1.6" stroke-miterlimit="10" d="M190.71,62.892l-20.45,35.192 M233.164,62.892
	l19.081,33.682"/>
<line fill="none" stroke="#000000" stroke-width="1.6" stroke-miterlimit="10" x1="157.123" y1="62.915" x2="264.957" y2="62.915"/>
<path fill="#FFFFFF" d="M184.574,114.841c0,11.602-9.417,21.019-21.019,21.019c-11.602,0-21.019-9.417-21.019-21.019
	c0-11.603,9.417-21.019,21.019-21.019C175.158,93.822,184.574,103.239,184.574,114.841L184.574,114.841z"/>
<path fill="none" stroke="#000000" stroke-width="1.6" stroke-linecap="round" stroke-miterlimit="10" d="M184.574,114.841
	c0,11.602-9.417,21.019-21.019,21.019c-11.602,0-21.019-9.417-21.019-21.019c0-11.603,9.417-21.019,21.019-21.019
	C175.158,93.822,184.574,103.239,184.574,114.841L184.574,114.841z"/>
<path fill="#FFFFFF" d="M280.575,114.841c0,11.602-9.417,21.019-21.02,21.019c-11.602,0-21.019-9.417-21.019-21.019
	c0-11.603,9.417-21.019,21.019-21.019C271.158,93.822,280.575,103.239,280.575,114.841L280.575,114.841z"/>
<path fill="none" stroke="#000000" stroke-width="1.6" stroke-linecap="round" stroke-miterlimit="10" d="M280.575,114.841
	c0,11.602-9.417,21.019-21.02,21.019c-11.602,0-21.019-9.417-21.019-21.019c0-11.603,9.417-21.019,21.019-21.019
	C271.158,93.822,280.575,103.239,280.575,114.841L280.575,114.841z"/>
<path d="M252.815,111.692l-1.284,3.483h2.573L252.815,111.692 M252.281,110.759h1.073l2.667,6.999h-0.984l-0.637-1.795h-3.155
	l-0.638,1.795h-0.999L252.281,110.759"/>
<path d="M257.985,111.537v5.442h1.144c0.966,0,1.672-0.219,2.119-0.656c0.45-0.438,0.675-1.128,0.675-2.072
	c0-0.938-0.225-1.623-0.675-2.058c-0.447-0.438-1.153-0.656-2.119-0.656H257.985 M257.039,110.759h1.945
	c1.356,0,2.352,0.283,2.986,0.849c0.634,0.562,0.952,1.444,0.952,2.644c0,1.207-0.319,2.092-0.957,2.658
	c-0.637,0.565-1.631,0.848-2.981,0.848h-1.945V110.759"/>
<path d="M265.373,111.537v2.63h1.191c0.44,0,0.781-0.114,1.022-0.342c0.24-0.228,0.361-0.553,0.361-0.975
	c0-0.419-0.121-0.742-0.361-0.97c-0.241-0.228-0.582-0.342-1.022-0.342H265.373 M264.426,110.759h2.138
	c0.784,0,1.376,0.178,1.776,0.535c0.403,0.353,0.605,0.872,0.605,1.556c0,0.69-0.202,1.212-0.605,1.565
	c-0.4,0.354-0.992,0.53-1.776,0.53h-1.191v2.812h-0.947V110.759"/>
<path fill="#FFFFFF" d="M102.767,47.895h42.976c5.078,0,9.167,3.77,9.167,8.452v13.172c0,4.682-4.088,8.451-9.167,8.451h-42.976
	c-5.079,0-9.167-3.769-9.167-8.451V56.346C93.6,51.664,97.688,47.895,102.767,47.895L102.767,47.895z"/>
<path fill="none" stroke="#000000" stroke-width="1.6" stroke-miterlimit="10" d="M102.767,47.895h42.976
	c5.078,0,9.167,3.77,9.167,8.452v13.172c0,4.682-4.088,8.451-9.167,8.451h-42.976c-5.079,0-9.167-3.769-9.167-8.451V56.346
	C93.6,51.664,97.688,47.895,102.767,47.895L102.767,47.895z M154.535,62.915h109.834"/>
<polygon fill-rule="evenodd" clip-rule="evenodd" points="272.843,63.008 264.158,67.032 264.158,58.953 272.843,63.008 "/>
<polygon fill="none" stroke="#000000" stroke-width="1.6" stroke-miterlimit="10" points="272.843,63.008 264.158,67.032 
	264.158,58.953 272.843,63.008 "/>
<polygon fill="#FFFFFF" points="207.537,58.365 216.865,58.365 216.865,67.41 207.537,67.41 207.537,58.365 "/>
<polygon fill="none" stroke="#000000" stroke-width="1.6" stroke-linecap="round" stroke-miterlimit="10" points="207.537,58.365 
	216.865,58.365 216.865,67.41 207.537,67.41 207.537,58.365 "/>
<line fill="none" stroke="#000000" stroke-width="1.6" stroke-miterlimit="10" x1="212.249" y1="6.44" x2="212.249" y2="46.651"/>
<path fill-rule="evenodd" clip-rule="evenodd" fill="#FFFFFF" d="M217.007,50.801c0,2.689-2.183,4.873-4.873,4.873
	s-4.872-2.183-4.872-4.873s2.183-4.873,4.872-4.873S217.007,48.111,217.007,50.801L217.007,50.801z"/>
<path fill="none" stroke="#000000" stroke-width="1.6" stroke-miterlimit="10" d="M217.007,50.801c0,2.689-2.183,4.873-4.873,4.873
	s-4.872-2.183-4.872-4.873s2.183-4.873,4.872-4.873S217.007,48.111,217.007,50.801L217.007,50.801z"/>
<path d="M119.141,63.466c0.203,0.069,0.4,0.215,0.59,0.44c0.194,0.225,0.388,0.535,0.582,0.928l0.961,1.913h-1.017l-0.896-1.795
	c-0.231-0.469-0.456-0.78-0.675-0.933c-0.216-0.153-0.511-0.23-0.886-0.23h-1.031v2.958h-0.947v-6.999h2.138
	c0.8,0,1.396,0.167,1.791,0.501c0.394,0.334,0.59,0.839,0.59,1.514c0,0.44-0.103,0.806-0.309,1.097
	C119.828,63.152,119.531,63.354,119.141,63.466 M116.769,60.527v2.484h1.191c0.456,0,0.8-0.105,1.031-0.314
	c0.234-0.212,0.352-0.523,0.352-0.933s-0.117-0.717-0.352-0.923c-0.231-0.209-0.575-0.314-1.031-0.314H116.769"/>
<path d="M124.442,60.682l-1.284,3.483h2.573L124.442,60.682 M123.908,59.749h1.073l2.667,6.999h-0.984l-0.638-1.795h-3.155
	l-0.637,1.795h-0.999L123.908,59.749"/>
<polyline points="128.666,59.749 132.688,59.749 132.688,60.546 129.612,60.546 129.612,62.608 132.387,62.608 132.387,63.405 
	129.612,63.405 129.612,66.748 128.666,66.748 128.666,59.749 "/>
<path d="M183.83,120.872c-2.536,8.759-10.621,15.169-20.193,15.169c-9.573,0-17.658-6.41-20.193-15.169"/>
<path fill="none" stroke="#000000" stroke-width="1.6" stroke-linecap="round" stroke-miterlimit="10" d="M183.83,120.872
	c-2.536,8.759-10.621,15.169-20.193,15.169c-9.573,0-17.658-6.41-20.193-15.169"/>
<path d="M279.83,120.872c-2.536,8.759-10.621,15.169-20.194,15.169c-9.572,0-17.657-6.41-20.193-15.169"/>
<path fill="none" stroke="#000000" stroke-width="1.6" stroke-linecap="round" stroke-miterlimit="10" d="M279.83,120.872
	c-2.536,8.759-10.621,15.169-20.194,15.169c-9.572,0-17.657-6.41-20.193-15.169"/>
<path fill="#FFFFFF" d="M190.485,0.8h42.976c5.079,0,9.167,3.769,9.167,8.451v13.172c0,4.682-4.088,8.451-9.167,8.451h-42.976
	c-5.078,0-9.167-3.769-9.167-8.451V9.251C181.318,4.569,185.407,0.8,190.485,0.8L190.485,0.8z"/>
<path fill="none" stroke="#000000" stroke-width="1.6" stroke-miterlimit="10" d="M190.485,0.8h42.976
	c5.079,0,9.167,3.769,9.167,8.451v13.172c0,4.682-4.088,8.451-9.167,8.451h-42.976c-5.078,0-9.167-3.769-9.167-8.451V9.251
	C181.318,4.569,185.407,0.8,190.485,0.8L190.485,0.8z"/>
<path d="M206.399,16.371c0.203,0.069,0.4,0.216,0.59,0.44c0.194,0.225,0.388,0.535,0.582,0.928l0.961,1.913h-1.017l-0.896-1.795
	c-0.231-0.469-0.456-0.78-0.675-0.933c-0.216-0.153-0.511-0.23-0.886-0.23h-1.031v2.958h-0.947v-6.999h2.138
	c0.8,0,1.396,0.167,1.791,0.501c0.394,0.334,0.59,0.839,0.59,1.514c0,0.441-0.103,0.806-0.309,1.097
	C207.087,16.057,206.79,16.259,206.399,16.371 M204.027,13.432v2.484h1.191c0.456,0,0.8-0.105,1.031-0.314
	c0.234-0.213,0.352-0.523,0.352-0.933c0-0.409-0.117-0.717-0.352-0.923c-0.231-0.209-0.575-0.314-1.031-0.314H204.027"/>
<path d="M211.701,13.587l-1.284,3.482h2.573L211.701,13.587 M211.167,12.654h1.073l2.667,6.999h-0.984l-0.638-1.795h-3.155
	l-0.637,1.795h-0.999L211.167,12.654"/>
<path d="M220.12,12.884v0.923c-0.359-0.172-0.699-0.3-1.017-0.384c-0.319-0.084-0.626-0.127-0.924-0.127
	c-0.516,0-0.914,0.1-1.195,0.3c-0.278,0.2-0.417,0.484-0.417,0.853c0,0.31,0.092,0.544,0.276,0.703
	c0.188,0.156,0.541,0.283,1.06,0.38l0.572,0.117c0.707,0.134,1.227,0.372,1.561,0.712c0.337,0.337,0.506,0.791,0.506,1.359
	c0,0.678-0.228,1.192-0.685,1.542c-0.453,0.35-1.119,0.525-1.997,0.525c-0.332,0-0.685-0.037-1.06-0.112
	c-0.372-0.075-0.758-0.186-1.158-0.333v-0.975c0.384,0.215,0.761,0.378,1.129,0.487c0.369,0.109,0.731,0.164,1.088,0.164
	c0.541,0,0.958-0.106,1.251-0.319s0.44-0.516,0.44-0.909c0-0.344-0.106-0.613-0.319-0.806c-0.209-0.194-0.554-0.339-1.036-0.436
	l-0.577-0.113c-0.706-0.141-1.217-0.361-1.533-0.661c-0.315-0.3-0.474-0.717-0.474-1.251c0-0.619,0.217-1.106,0.652-1.463
	c0.438-0.356,1.039-0.534,1.805-0.534c0.328,0,0.663,0.03,1.003,0.089C219.415,12.676,219.763,12.765,220.12,12.884"/>
<path d="M157.439,111.692l-1.284,3.483h2.573L157.439,111.692 M156.905,110.759h1.073l2.667,6.999h-0.984l-0.638-1.795h-3.155
	l-0.637,1.795h-0.999L156.905,110.759"/>
<polyline points="159.942,110.759 165.862,110.759 165.862,111.556 163.378,111.556 163.378,117.757 162.427,117.757 
	162.427,111.556 159.942,111.556 159.942,110.759 "/>
<path d="M167.728,111.537v2.63h1.191c0.44,0,0.781-0.114,1.021-0.342c0.241-0.228,0.361-0.553,0.361-0.975
	c0-0.419-0.121-0.742-0.361-0.97c-0.24-0.228-0.581-0.342-1.021-0.342H167.728 M166.781,110.759h2.138
	c0.784,0,1.376,0.178,1.776,0.535c0.403,0.353,0.604,0.872,0.604,1.556c0,0.69-0.201,1.212-0.604,1.565
	c-0.4,0.354-0.992,0.53-1.776,0.53h-1.191v2.812h-0.947V110.759"/>
<path fill="#FFFFFF" d="M130.528,77.372c0,3.462-2.811,6.273-6.273,6.273c-3.462,0-6.273-2.811-6.273-6.273
	c0-3.463,2.811-6.273,6.273-6.273C127.717,71.099,130.528,73.909,130.528,77.372L130.528,77.372z"/>
<path fill="none" stroke="#000000" stroke-width="1.6" stroke-linecap="round" stroke-miterlimit="10" d="M130.528,77.372
	c0,3.462-2.811,6.273-6.273,6.273c-3.462,0-6.273-2.811-6.273-6.273c0-3.463,2.811-6.273,6.273-6.273
	C127.717,71.099,130.528,73.909,130.528,77.372L130.528,77.372z"/>
<path fill="#FFFFFF" d="M283.567,47.895h42.976c5.078,0,9.167,3.77,9.167,8.452v13.172c0,4.682-4.089,8.451-9.167,8.451h-42.976
	c-5.079,0-9.167-3.769-9.167-8.451V56.346C274.4,51.664,278.488,47.895,283.567,47.895L283.567,47.895z"/>
<path fill="none" stroke="#000000" stroke-width="1.6" stroke-miterlimit="10" d="M283.567,47.895h42.976
	c5.078,0,9.167,3.77,9.167,8.452v13.172c0,4.682-4.089,8.451-9.167,8.451h-42.976c-5.079,0-9.167-3.769-9.167-8.451V56.346
	C274.4,51.664,278.488,47.895,283.567,47.895L283.567,47.895z"/>
<path d="M299.941,63.466c0.203,0.069,0.399,0.215,0.59,0.44c0.194,0.225,0.388,0.535,0.582,0.928l0.961,1.913h-1.018l-0.896-1.795
	c-0.231-0.469-0.456-0.78-0.675-0.933c-0.216-0.153-0.511-0.23-0.886-0.23h-1.031v2.958h-0.947v-6.999h2.138
	c0.8,0,1.396,0.167,1.791,0.501c0.394,0.334,0.59,0.839,0.59,1.514c0,0.44-0.103,0.806-0.309,1.097
	C300.629,63.152,300.332,63.354,299.941,63.466 M297.569,60.527v2.484h1.19c0.456,0,0.8-0.105,1.031-0.314
	c0.234-0.212,0.352-0.523,0.352-0.933s-0.117-0.717-0.352-0.923c-0.231-0.209-0.575-0.314-1.031-0.314H297.569"/>
<path d="M305.242,60.682l-1.284,3.483h2.573L305.242,60.682 M304.708,59.749h1.073l2.668,6.999h-0.984l-0.638-1.795h-3.155
	l-0.637,1.795h-0.999L304.708,59.749"/>
<polyline points="309.466,59.749 313.488,59.749 313.488,60.546 310.413,60.546 310.413,62.608 313.188,62.608 313.188,63.405 
	310.413,63.405 310.413,66.748 309.466,66.748 309.466,59.749 "/>
<path fill="#FFFFFF" d="M311.328,77.372c0,3.462-2.811,6.273-6.273,6.273c-3.462,0-6.272-2.811-6.272-6.273
	c0-3.463,2.811-6.273,6.272-6.273C308.518,71.099,311.328,73.909,311.328,77.372L311.328,77.372z"/>
<path fill="none" stroke="#000000" stroke-width="1.6" stroke-linecap="round" stroke-miterlimit="10" d="M311.328,77.372
	c0,3.462-2.811,6.273-6.273,6.273c-3.462,0-6.272-2.811-6.272-6.273c0-3.463,2.811-6.273,6.272-6.273
	C308.518,71.099,311.328,73.909,311.328,77.372L311.328,77.372z"/>
<path d="M304.027,75.235v2.191h0.992c0.367,0,0.651-0.095,0.852-0.285c0.201-0.19,0.301-0.461,0.301-0.812
	c0-0.349-0.1-0.619-0.301-0.809c-0.2-0.19-0.484-0.285-0.852-0.285H304.027 M303.238,74.586h1.781c0.654,0,1.147,0.148,1.48,0.445
	c0.336,0.294,0.504,0.727,0.504,1.297c0,0.576-0.168,1.01-0.504,1.305c-0.333,0.294-0.826,0.441-1.48,0.441h-0.992v2.344h-0.789
	V74.586"/>
<line fill="none" stroke="#000000" stroke-width="1.6" stroke-miterlimit="10" x1="62.323" y1="194.314" x2="170.321" y2="194.314"/>
<path fill="#FFFFFF" d="M91.774,249.241c0,11.603-9.417,21.019-21.019,21.019s-21.019-9.416-21.019-21.019
	s9.417-21.019,21.019-21.019S91.774,237.639,91.774,249.241L91.774,249.241z"/>
<path fill="none" stroke="#000000" stroke-width="1.6" stroke-linecap="round" stroke-miterlimit="10" d="M91.774,249.241
	c0,11.603-9.417,21.019-21.019,21.019s-21.019-9.416-21.019-21.019s9.417-21.019,21.019-21.019S91.774,237.639,91.774,249.241
	L91.774,249.241z"/>
<path fill="#FFFFFF" d="M187.774,249.241c0,11.603-9.417,21.019-21.019,21.019s-21.019-9.416-21.019-21.019
	s9.417-21.019,21.019-21.019S187.774,237.639,187.774,249.241L187.774,249.241z"/>
<path fill="none" stroke="#000000" stroke-width="1.6" stroke-linecap="round" stroke-miterlimit="10" d="M187.774,249.241
	c0,11.603-9.417,21.019-21.019,21.019s-21.019-9.416-21.019-21.019s9.417-21.019,21.019-21.019S187.774,237.639,187.774,249.241
	L187.774,249.241z"/>
<path d="M160.015,246.092l-1.285,3.482h2.574L160.015,246.092 M159.48,245.159h1.074l2.667,6.998h-0.984l-0.638-1.795h-3.154
	l-0.638,1.795h-0.999L159.48,245.159"/>
<path d="M165.185,245.938v5.441h1.144c0.965,0,1.672-0.219,2.119-0.656c0.45-0.437,0.675-1.128,0.675-2.071
	c0-0.938-0.225-1.623-0.675-2.058c-0.447-0.438-1.153-0.656-2.119-0.656H165.185 M164.238,245.159h1.945
	c1.356,0,2.352,0.282,2.986,0.849c0.635,0.562,0.952,1.443,0.952,2.644c0,1.206-0.319,2.092-0.956,2.657
	c-0.638,0.566-1.631,0.849-2.981,0.849h-1.945V245.159"/>
<path d="M172.573,245.938v2.629h1.19c0.441,0,0.781-0.113,1.022-0.342s0.361-0.553,0.361-0.975c0-0.419-0.12-0.742-0.361-0.971
	s-0.581-0.342-1.022-0.342H172.573 M171.626,245.159h2.137c0.785,0,1.377,0.178,1.777,0.534c0.403,0.354,0.604,0.872,0.604,1.557
	c0,0.69-0.202,1.212-0.604,1.565c-0.4,0.353-0.992,0.529-1.777,0.529h-1.19v2.812h-0.947V245.159"/>
<path fill="none" stroke="#000000" stroke-width="1.6" stroke-miterlimit="10" d="M97.91,194.291l-19.406,34.688 M139.629,194.291
	l18.714,33.314"/>
<path fill="#FFFFFF" d="M9.966,179.295h42.976c5.079,0,9.167,3.769,9.167,8.451v13.172c0,4.682-4.088,8.451-9.167,8.451H9.966
	c-5.078,0-9.167-3.77-9.167-8.451v-13.172C0.8,183.064,4.888,179.295,9.966,179.295L9.966,179.295z"/>
<path fill="none" stroke="#000000" stroke-width="1.6" stroke-miterlimit="10" d="M9.966,179.295h42.976
	c5.079,0,9.167,3.769,9.167,8.451v13.172c0,4.682-4.088,8.451-9.167,8.451H9.966c-5.078,0-9.167-3.77-9.167-8.451v-13.172
	C0.8,183.064,4.888,179.295,9.966,179.295L9.966,179.295z M169.733,194.314"/>
<polygon fill-rule="evenodd" clip-rule="evenodd" points="178.208,194.408 169.523,198.432 169.523,190.353 178.208,194.408 "/>
<polygon fill="none" stroke="#000000" stroke-width="1.6" stroke-miterlimit="10" points="178.208,194.408 169.523,198.432 
	169.523,190.353 178.208,194.408 "/>
<polygon fill="#FFFFFF" points="114.737,189.765 124.064,189.765 124.064,198.81 114.737,198.81 114.737,189.765 "/>
<polygon fill="none" stroke="#000000" stroke-width="1.6" stroke-linecap="round" stroke-miterlimit="10" points="114.737,189.765 
	124.064,189.765 124.064,198.81 114.737,198.81 114.737,189.765 "/>
<path fill-rule="evenodd" clip-rule="evenodd" fill="#FFFFFF" d="M124.207,182.201c0,2.689-2.183,4.873-4.873,4.873
	s-4.873-2.183-4.873-4.873s2.183-4.873,4.873-4.873S124.207,179.511,124.207,182.201L124.207,182.201z"/>
<path fill="none" stroke="#000000" stroke-width="1.6" stroke-miterlimit="10" d="M124.207,182.201c0,2.689-2.183,4.873-4.873,4.873
	s-4.873-2.183-4.873-4.873s2.183-4.873,4.873-4.873S124.207,179.511,124.207,182.201L124.207,182.201z"/>
<polyline points="21.878,191.149 23.289,191.149 25.075,195.911 26.87,191.149 28.281,191.149 28.281,198.147 27.358,198.147 
	27.358,192.002 25.553,196.802 24.602,196.802 22.797,192.002 22.797,198.147 21.878,198.147 21.878,191.149 "/>
<polyline points="30.166,191.149 34.59,191.149 34.59,191.946 31.112,191.946 31.112,194.018 34.445,194.018 34.445,194.814 
	31.112,194.814 31.112,197.351 34.675,197.351 34.675,198.147 30.166,198.147 30.166,191.149 "/>
<polyline points="36.241,191.149 37.188,191.149 37.188,194.106 40.328,191.149 41.547,191.149 38.073,194.411 41.795,198.147 
	40.548,198.147 37.188,194.777 37.188,198.147 36.241,198.147 36.241,191.149 "/>
<path d="M91.029,255.272c-2.536,8.759-10.62,15.169-20.193,15.169s-17.657-6.41-20.193-15.169"/>
<path fill="none" stroke="#000000" stroke-width="1.6" stroke-linecap="round" stroke-miterlimit="10" d="M91.029,255.272
	c-2.536,8.759-10.62,15.169-20.193,15.169s-17.657-6.41-20.193-15.169"/>
<path d="M187.029,255.272c-2.536,8.759-10.62,15.169-20.193,15.169s-17.657-6.41-20.193-15.169"/>
<path fill="none" stroke="#000000" stroke-width="1.6" stroke-linecap="round" stroke-miterlimit="10" d="M187.029,255.272
	c-2.536,8.759-10.62,15.169-20.193,15.169s-17.657-6.41-20.193-15.169"/>
<path d="M64.639,246.092l-1.285,3.482h2.574L64.639,246.092 M64.104,245.159h1.074l2.667,6.998h-0.984l-0.637-1.795h-3.155
	l-0.638,1.795h-0.999L64.104,245.159"/>
<polyline points="67.142,245.159 73.062,245.159 73.062,245.956 70.578,245.956 70.578,252.157 69.626,252.157 69.626,245.956 
	67.142,245.956 67.142,245.159 "/>
<path d="M74.928,245.938v2.629h1.19c0.441,0,0.781-0.113,1.022-0.342s0.361-0.553,0.361-0.975c0-0.419-0.12-0.742-0.361-0.971
	s-0.581-0.342-1.022-0.342H74.928 M73.981,245.159h2.137c0.784,0,1.376,0.178,1.777,0.534c0.403,0.354,0.604,0.872,0.604,1.557
	c0,0.69-0.202,1.212-0.604,1.565c-0.4,0.353-0.993,0.529-1.777,0.529h-1.19v2.812h-0.947V245.159"/>
<path fill="#FFFFFF" d="M26.528,208.772c0,3.462-2.811,6.272-6.273,6.272c-3.462,0-6.273-2.811-6.273-6.272
	c0-3.463,2.811-6.273,6.273-6.273C23.717,202.499,26.528,205.31,26.528,208.772L26.528,208.772z"/>
<path fill="none" stroke="#000000" stroke-width="1.6" stroke-linecap="round" stroke-miterlimit="10" d="M26.528,208.772
	c0,3.462-2.811,6.272-6.273,6.272c-3.462,0-6.273-2.811-6.273-6.272c0-3.463,2.811-6.273,6.273-6.273
	C23.717,202.499,26.528,205.31,26.528,208.772L26.528,208.772z"/>
<path fill="#FFFFFF" d="M190.767,179.295h42.976c5.078,0,9.167,3.769,9.167,8.451v13.172c0,4.682-4.088,8.451-9.167,8.451h-42.976
	c-5.079,0-9.167-3.77-9.167-8.451v-13.172C181.6,183.064,185.688,179.295,190.767,179.295L190.767,179.295z"/>
<path fill="none" stroke="#000000" stroke-width="1.6" stroke-miterlimit="10" d="M190.767,179.295h42.976
	c5.078,0,9.167,3.769,9.167,8.451v13.172c0,4.682-4.088,8.451-9.167,8.451h-42.976c-5.079,0-9.167-3.77-9.167-8.451v-13.172
	C181.6,183.064,185.688,179.295,190.767,179.295L190.767,179.295z"/>
<polyline points="202.678,191.149 204.089,191.149 205.875,195.911 207.67,191.149 209.081,191.149 209.081,198.147 
	208.158,198.147 208.158,192.002 206.353,196.802 205.401,196.802 203.597,192.002 203.597,198.147 202.678,198.147 
	202.678,191.149 "/>
<polyline points="210.965,191.149 215.391,191.149 215.391,191.946 211.913,191.946 211.913,194.018 215.245,194.018 
	215.245,194.814 211.913,194.814 211.913,197.351 215.475,197.351 215.475,198.147 210.965,198.147 210.965,191.149 "/>
<polyline points="217.041,191.149 217.987,191.149 217.987,194.106 221.128,191.149 222.347,191.149 218.874,194.411 
	222.595,198.147 221.348,198.147 217.987,194.777 217.987,198.147 217.041,198.147 217.041,191.149 "/>
<path fill="#FFFFFF" d="M207.328,208.772c0,3.462-2.811,6.272-6.273,6.272c-3.463,0-6.273-2.811-6.273-6.272
	c0-3.463,2.81-6.273,6.273-6.273C204.517,202.499,207.328,205.31,207.328,208.772L207.328,208.772z"/>
<path fill="none" stroke="#000000" stroke-width="1.6" stroke-linecap="round" stroke-miterlimit="10" d="M207.328,208.772
	c0,3.462-2.811,6.272-6.273,6.272c-3.463,0-6.273-2.811-6.273-6.272c0-3.463,2.81-6.273,6.273-6.273
	C204.517,202.499,207.328,205.31,207.328,208.772L207.328,208.772z"/>
<path d="M200.027,206.635v2.191h0.992c0.367,0,0.651-0.095,0.852-0.285c0.2-0.19,0.301-0.461,0.301-0.812
	c0-0.349-0.101-0.618-0.301-0.809c-0.201-0.189-0.484-0.285-0.852-0.285H200.027 M199.238,205.986h1.781
	c0.653,0,1.147,0.148,1.48,0.445c0.336,0.294,0.504,0.727,0.504,1.297c0,0.576-0.168,1.011-0.504,1.305
	c-0.333,0.294-0.827,0.441-1.48,0.441h-0.992v2.344h-0.789V205.986"/>
<line fill="none" stroke="#000000" stroke-width="1.6" stroke-miterlimit="10" x1="243.666" y1="194.531" x2="355.722" y2="194.314"/>
<path fill="#FFFFFF" d="M277.175,249.241c0,11.603-9.417,21.019-21.02,21.019c-11.602,0-21.019-9.416-21.019-21.019
	s9.417-21.019,21.019-21.019C267.758,228.223,277.175,237.639,277.175,249.241L277.175,249.241z"/>
<path fill="none" stroke="#000000" stroke-width="1.6" stroke-linecap="round" stroke-miterlimit="10" d="M277.175,249.241
	c0,11.603-9.417,21.019-21.02,21.019c-11.602,0-21.019-9.416-21.019-21.019s9.417-21.019,21.019-21.019
	C267.758,228.223,277.175,237.639,277.175,249.241L277.175,249.241z"/>
<path fill="#FFFFFF" d="M373.175,249.241c0,11.603-9.416,21.019-21.019,21.019s-21.02-9.416-21.02-21.019s9.417-21.019,21.02-21.019
	S373.175,237.639,373.175,249.241L373.175,249.241z"/>
<path fill="none" stroke="#000000" stroke-width="1.6" stroke-linecap="round" stroke-miterlimit="10" d="M373.175,249.241
	c0,11.603-9.416,21.019-21.019,21.019s-21.02-9.416-21.02-21.019s9.417-21.019,21.02-21.019S373.175,237.639,373.175,249.241
	L373.175,249.241z"/>
<path d="M345.415,246.092l-1.284,3.482h2.573L345.415,246.092 M344.881,245.159h1.073l2.668,6.998h-0.984L347,250.362h-3.155
	l-0.637,1.795h-0.999L344.881,245.159"/>
<path d="M350.586,245.938v5.441h1.144c0.966,0,1.672-0.219,2.119-0.656c0.449-0.437,0.675-1.128,0.675-2.071
	c0-0.938-0.226-1.623-0.675-2.058c-0.447-0.438-1.153-0.656-2.119-0.656H350.586 M349.639,245.159h1.945
	c1.356,0,2.352,0.282,2.986,0.849c0.634,0.562,0.951,1.443,0.951,2.644c0,1.206-0.318,2.092-0.956,2.657
	c-0.638,0.566-1.631,0.849-2.981,0.849h-1.945V245.159"/>
<path d="M357.974,245.938v2.629h1.19c0.44,0,0.781-0.113,1.021-0.342c0.241-0.229,0.361-0.553,0.361-0.975
	c0-0.419-0.12-0.742-0.361-0.971c-0.24-0.229-0.581-0.342-1.021-0.342H357.974 M357.026,245.159h2.138
	c0.784,0,1.376,0.178,1.776,0.534c0.403,0.354,0.604,0.872,0.604,1.557c0,0.69-0.201,1.212-0.604,1.565
	c-0.4,0.353-0.992,0.529-1.776,0.529h-1.19v2.812h-0.947V245.159"/>
<path fill="none" stroke="#000000" stroke-width="1.6" stroke-miterlimit="10" d="M283.311,194.291l-19.762,34.688 M325.764,194.291
	l18.714,33.314 M355.134,194.314"/>
<polygon fill-rule="evenodd" clip-rule="evenodd" points="363.608,194.408 354.924,198.432 354.924,190.353 363.608,194.408 "/>
<polygon fill="none" stroke="#000000" stroke-width="1.6" stroke-miterlimit="10" points="363.608,194.408 354.924,198.432 
	354.924,190.353 363.608,194.408 "/>
<polygon fill="#FFFFFF" points="300.138,189.765 309.465,189.765 309.465,198.81 300.138,198.81 300.138,189.765 "/>
<polygon fill="none" stroke="#000000" stroke-width="1.6" stroke-linecap="round" stroke-miterlimit="10" points="300.138,189.765 
	309.465,189.765 309.465,198.81 300.138,198.81 300.138,189.765 "/>
<path fill-rule="evenodd" clip-rule="evenodd" fill="#FFFFFF" d="M309.607,182.201c0,2.689-2.183,4.873-4.872,4.873
	c-2.69,0-4.873-2.183-4.873-4.873s2.183-4.873,4.873-4.873C307.425,177.328,309.607,179.511,309.607,182.201L309.607,182.201z"/>
<path fill="none" stroke="#000000" stroke-width="1.6" stroke-miterlimit="10" d="M309.607,182.201c0,2.689-2.183,4.873-4.872,4.873
	c-2.69,0-4.873-2.183-4.873-4.873s2.183-4.873,4.873-4.873C307.425,177.328,309.607,179.511,309.607,182.201L309.607,182.201z"/>
<path d="M276.43,255.272c-2.536,8.759-10.621,15.169-20.193,15.169c-9.572,0-17.657-6.41-20.193-15.169"/>
<path fill="none" stroke="#000000" stroke-width="1.6" stroke-linecap="round" stroke-miterlimit="10" d="M276.43,255.272
	c-2.536,8.759-10.621,15.169-20.193,15.169c-9.572,0-17.657-6.41-20.193-15.169"/>
<path d="M372.43,255.272c-2.535,8.759-10.62,15.169-20.192,15.169c-9.573,0-17.657-6.41-20.193-15.169"/>
<path fill="none" stroke="#000000" stroke-width="1.6" stroke-linecap="round" stroke-miterlimit="10" d="M372.43,255.272
	c-2.535,8.759-10.62,15.169-20.192,15.169c-9.573,0-17.657-6.41-20.193-15.169"/>
<path d="M250.039,246.092l-1.284,3.482h2.573L250.039,246.092 M249.505,245.159h1.073l2.667,6.998h-0.984l-0.637-1.795h-3.155
	l-0.638,1.795h-0.998L249.505,245.159"/>
<polyline points="252.542,245.159 258.462,245.159 258.462,245.956 255.978,245.956 255.978,252.157 255.026,252.157 
	255.026,245.956 252.542,245.956 252.542,245.159 "/>
<path d="M260.328,245.938v2.629h1.19c0.441,0,0.781-0.113,1.022-0.342s0.361-0.553,0.361-0.975c0-0.419-0.12-0.742-0.361-0.971
	s-0.581-0.342-1.022-0.342H260.328 M259.381,245.159h2.137c0.785,0,1.377,0.178,1.777,0.534c0.403,0.354,0.604,0.872,0.604,1.557
	c0,0.69-0.202,1.212-0.604,1.565c-0.4,0.353-0.992,0.529-1.777,0.529h-1.19v2.812h-0.947V245.159"/>
<path fill="#FFFFFF" d="M376.167,179.295h42.977c5.078,0,9.166,3.769,9.166,8.451v13.172c0,4.682-4.088,8.451-9.166,8.451h-42.977
	c-5.078,0-9.167-3.77-9.167-8.451v-13.172C367,183.064,371.089,179.295,376.167,179.295L376.167,179.295z"/>
<path fill="none" stroke="#000000" stroke-width="1.6" stroke-miterlimit="10" d="M376.167,179.295h42.977
	c5.078,0,9.166,3.769,9.166,8.451v13.172c0,4.682-4.088,8.451-9.166,8.451h-42.977c-5.078,0-9.167-3.77-9.167-8.451v-13.172
	C367,183.064,371.089,179.295,376.167,179.295L376.167,179.295z"/>
<polyline points="388.078,191.149 389.489,191.149 391.275,195.911 393.07,191.149 394.481,191.149 394.481,198.147 
	393.559,198.147 393.559,192.002 391.754,196.802 390.802,196.802 388.997,192.002 388.997,198.147 388.078,198.147 
	388.078,191.149 "/>
<polyline points="396.366,191.149 400.791,191.149 400.791,191.946 397.312,191.946 397.312,194.018 400.646,194.018 
	400.646,194.814 397.312,194.814 397.312,197.351 400.875,197.351 400.875,198.147 396.366,198.147 396.366,191.149 "/>
<polyline points="402.441,191.149 403.388,191.149 403.388,194.106 406.528,191.149 407.747,191.149 404.273,194.411 
	407.996,198.147 406.749,198.147 403.388,194.777 403.388,198.147 402.441,198.147 402.441,191.149 "/>
<path fill="#FFFFFF" d="M392.729,208.772c0,3.462-2.811,6.272-6.273,6.272s-6.273-2.811-6.273-6.272
	c0-3.463,2.811-6.273,6.273-6.273S392.729,205.31,392.729,208.772L392.729,208.772z"/>
<path fill="none" stroke="#000000" stroke-width="1.6" stroke-linecap="round" stroke-miterlimit="10" d="M392.729,208.772
	c0,3.462-2.811,6.272-6.273,6.272s-6.273-2.811-6.273-6.272c0-3.463,2.811-6.273,6.273-6.273S392.729,205.31,392.729,208.772
	L392.729,208.772z"/>
<path d="M385.428,206.635v2.191h0.992c0.367,0,0.651-0.095,0.852-0.285s0.301-0.461,0.301-0.812c0-0.349-0.101-0.618-0.301-0.809
	c-0.2-0.189-0.484-0.285-0.852-0.285H385.428 M384.639,205.986h1.781c0.653,0,1.147,0.148,1.48,0.445
	c0.336,0.294,0.504,0.727,0.504,1.297c0,0.576-0.168,1.011-0.504,1.305c-0.333,0.294-0.827,0.441-1.48,0.441h-0.992v2.344h-0.789
	V205.986"/>
<polygon fill-rule="evenodd" clip-rule="evenodd" points="159.52,227.867 151.768,221.359 159.241,218.293 159.52,227.867 "/>
<polygon fill="none" stroke="#000000" stroke-width="1.6" stroke-miterlimit="10" points="158.786,227.867 151.768,221.359 
	159.241,218.293 159.52,227.867 "/>
<path fill="#FFFFFF" d="M48.928,208.772c0,3.462-2.811,6.272-6.273,6.272c-3.463,0-6.273-2.811-6.273-6.272
	c0-3.463,2.811-6.273,6.273-6.273C46.117,202.499,48.928,205.31,48.928,208.772L48.928,208.772z"/>
<path fill="none" stroke="#000000" stroke-width="1.6" stroke-linecap="round" stroke-miterlimit="10" d="M48.928,208.772
	c0,3.462-2.811,6.272-6.273,6.272c-3.463,0-6.273-2.811-6.273-6.272c0-3.463,2.811-6.273,6.273-6.273
	C46.117,202.499,48.928,205.31,48.928,208.772L48.928,208.772z"/>
<path fill="#FFFFFF" d="M229.728,208.772c0,3.462-2.81,6.272-6.273,6.272s-6.273-2.811-6.273-6.272c0-3.463,2.81-6.273,6.273-6.273
	S229.728,205.31,229.728,208.772L229.728,208.772z"/>
<path fill="none" stroke="#000000" stroke-width="1.6" stroke-linecap="round" stroke-miterlimit="10" d="M229.728,208.772
	c0,3.462-2.81,6.272-6.273,6.272s-6.273-2.811-6.273-6.272c0-3.463,2.81-6.273,6.273-6.273S229.728,205.31,229.728,208.772
	L229.728,208.772z"/>
<polygon fill-rule="evenodd" clip-rule="evenodd" points="344.92,227.867 337.901,221.359 345.376,218.293 344.92,227.867 "/>
<polygon fill="none" stroke="#000000" stroke-width="1.6" stroke-miterlimit="10" points="344.92,227.867 337.901,221.359 
	345.376,218.293 344.92,227.867 "/>
<path fill="#FFFFFF" d="M415.128,208.772c0,3.462-2.811,6.272-6.272,6.272c-3.463,0-6.273-2.811-6.273-6.272
	c0-3.463,2.811-6.273,6.273-6.273C412.317,202.499,415.128,205.31,415.128,208.772L415.128,208.772z"/>
<path fill="none" stroke="#000000" stroke-width="1.6" stroke-linecap="round" stroke-miterlimit="10" d="M415.128,208.772
	c0,3.462-2.811,6.272-6.272,6.272c-3.463,0-6.273-2.811-6.273-6.272c0-3.463,2.811-6.273,6.273-6.273
	C412.317,202.499,415.128,205.31,415.128,208.772L415.128,208.772z"/>
<path d="M407.828,206.635v2.191h0.992c0.367,0,0.65-0.095,0.852-0.285c0.2-0.19,0.301-0.461,0.301-0.812
	c0-0.349-0.101-0.618-0.301-0.809c-0.201-0.189-0.484-0.285-0.852-0.285H407.828 M407.039,205.986h1.781
	c0.653,0,1.146,0.148,1.48,0.445c0.336,0.294,0.504,0.727,0.504,1.297c0,0.576-0.168,1.011-0.504,1.305
	c-0.334,0.294-0.827,0.441-1.48,0.441h-0.992v2.344h-0.789V205.986"/>
<line fill="none" stroke="#000000" stroke-width="1.6" stroke-miterlimit="10" x1="63.088" y1="339.022" x2="171.234" y2="339.067"/>
<path fill="#FFFFFF" d="M91.774,395.841c0,11.603-9.417,21.02-21.019,21.02s-21.019-9.417-21.019-21.02
	c0-11.602,9.417-21.019,21.019-21.019S91.774,384.239,91.774,395.841L91.774,395.841z"/>
<path fill="none" stroke="#000000" stroke-width="1.6" stroke-linecap="round" stroke-miterlimit="10" d="M91.774,395.841
	c0,11.603-9.417,21.02-21.019,21.02s-21.019-9.417-21.019-21.02c0-11.602,9.417-21.019,21.019-21.019S91.774,384.239,91.774,395.841
	L91.774,395.841z"/>
<path fill="#FFFFFF" d="M187.774,395.841c0,11.603-9.417,21.02-21.019,21.02s-21.019-9.417-21.019-21.02
	c0-11.602,9.417-21.019,21.019-21.019S187.774,384.239,187.774,395.841L187.774,395.841z"/>
<path fill="none" stroke="#000000" stroke-width="1.6" stroke-linecap="round" stroke-miterlimit="10" d="M187.774,395.841
	c0,11.603-9.417,21.02-21.019,21.02s-21.019-9.417-21.019-21.02c0-11.602,9.417-21.019,21.019-21.019
	S187.774,384.239,187.774,395.841L187.774,395.841z"/>
<path d="M160.015,392.692l-1.285,3.482h2.574L160.015,392.692 M159.48,391.759h1.074l2.667,6.999h-0.984l-0.638-1.796h-3.154
	l-0.638,1.796h-0.999L159.48,391.759"/>
<path d="M165.185,392.537v5.442h1.144c0.965,0,1.672-0.219,2.119-0.656c0.45-0.438,0.675-1.128,0.675-2.072
	c0-0.938-0.225-1.623-0.675-2.058c-0.447-0.438-1.153-0.656-2.119-0.656H165.185 M164.238,391.759h1.945
	c1.356,0,2.352,0.283,2.986,0.849c0.635,0.562,0.952,1.444,0.952,2.644c0,1.206-0.319,2.093-0.956,2.658
	c-0.638,0.565-1.631,0.849-2.981,0.849h-1.945V391.759"/>
<path d="M172.573,392.537v2.63h1.19c0.441,0,0.781-0.114,1.022-0.342c0.241-0.229,0.361-0.554,0.361-0.976
	c0-0.419-0.12-0.742-0.361-0.97c-0.241-0.229-0.581-0.343-1.022-0.343H172.573 M171.626,391.759h2.137
	c0.785,0,1.377,0.179,1.777,0.535c0.403,0.353,0.604,0.871,0.604,1.556c0,0.69-0.202,1.213-0.604,1.565
	c-0.4,0.354-0.992,0.53-1.777,0.53h-1.19v2.812h-0.947V391.759"/>
<path fill="none" stroke="#000000" stroke-width="1.6" stroke-miterlimit="10" d="M97.91,338.892l-20.14,36.945 M140.363,338.892
	l18.714,34.581"/>
<path fill="#FFFFFF" d="M9.966,323.895h42.976c5.079,0,9.167,3.77,9.167,8.451v13.172c0,4.683-4.088,8.451-9.167,8.451H9.966
	c-5.078,0-9.167-3.769-9.167-8.451v-13.172C0.8,327.664,4.888,323.895,9.966,323.895L9.966,323.895z"/>
<path fill="none" stroke="#000000" stroke-width="1.6" stroke-miterlimit="10" d="M9.966,323.895h42.976
	c5.079,0,9.167,3.77,9.167,8.451v13.172c0,4.683-4.088,8.451-9.167,8.451H9.966c-5.078,0-9.167-3.769-9.167-8.451v-13.172
	C0.8,327.664,4.888,323.895,9.966,323.895L9.966,323.895z M170.646,339.067"/>
<polygon fill-rule="evenodd" clip-rule="evenodd" points="179.121,339.161 170.436,343.184 170.436,335.105 179.121,339.161 "/>
<polygon fill="none" stroke="#000000" stroke-width="1.6" stroke-miterlimit="10" points="179.121,339.161 170.436,343.184 
	170.436,335.105 179.121,339.161 "/>
<polygon fill="#FFFFFF" points="114.737,334.365 124.064,334.365 124.064,343.41 114.737,343.41 114.737,334.365 "/>
<polygon fill="none" stroke="#000000" stroke-width="1.6" stroke-linecap="round" stroke-miterlimit="10" points="114.737,334.365 
	124.064,334.365 124.064,343.41 114.737,343.41 114.737,334.365 "/>
<path fill-rule="evenodd" clip-rule="evenodd" fill="#FFFFFF" d="M124.207,326.801c0,2.689-2.183,4.872-4.873,4.872
	s-4.873-2.183-4.873-4.872s2.183-4.872,4.873-4.872S124.207,324.111,124.207,326.801L124.207,326.801z"/>
<path fill="none" stroke="#000000" stroke-width="1.6" stroke-miterlimit="10" d="M124.207,326.801c0,2.689-2.183,4.872-4.873,4.872
	s-4.873-2.183-4.873-4.872s2.183-4.872,4.873-4.872S124.207,324.111,124.207,326.801L124.207,326.801z"/>
<polyline points="18.737,335.749 20.148,335.749 21.934,340.512 23.729,335.749 25.141,335.749 25.141,342.747 24.217,342.747 
	24.217,336.603 22.413,341.402 21.461,341.402 19.656,336.603 19.656,342.747 18.737,342.747 18.737,335.749 "/>
<path d="M29.364,336.682l-1.284,3.483h2.573L29.364,336.682 M28.83,335.749h1.073l2.667,6.998h-0.984l-0.638-1.795h-3.155
	l-0.637,1.795h-0.999L28.83,335.749"/>
<path d="M34.534,336.527v2.63h1.191c0.44,0,0.781-0.114,1.021-0.343c0.241-0.228,0.361-0.553,0.361-0.975
	c0-0.419-0.121-0.742-0.361-0.971c-0.24-0.228-0.581-0.342-1.021-0.342H34.534 M33.587,335.749h2.138
	c0.784,0,1.376,0.178,1.776,0.534c0.403,0.354,0.604,0.872,0.604,1.557c0,0.69-0.201,1.212-0.604,1.565
	c-0.4,0.354-0.992,0.529-1.776,0.529h-1.191v2.812h-0.947V335.749"/>
<polyline points="39.381,335.749 40.328,335.749 40.328,338.707 43.469,335.749 44.688,335.749 41.214,339.012 44.936,342.747 
	43.689,342.747 40.328,339.377 40.328,342.747 39.381,342.747 39.381,335.749 "/>
<path d="M91.029,401.872c-2.536,8.759-10.62,15.169-20.193,15.169s-17.657-6.41-20.193-15.169"/>
<path fill="none" stroke="#000000" stroke-width="1.6" stroke-linecap="round" stroke-miterlimit="10" d="M91.029,401.872
	c-2.536,8.759-10.62,15.169-20.193,15.169s-17.657-6.41-20.193-15.169"/>
<path d="M187.029,401.872c-2.536,8.759-10.62,15.169-20.193,15.169s-17.657-6.41-20.193-15.169"/>
<path fill="none" stroke="#000000" stroke-width="1.6" stroke-linecap="round" stroke-miterlimit="10" d="M187.029,401.872
	c-2.536,8.759-10.62,15.169-20.193,15.169s-17.657-6.41-20.193-15.169"/>
<path d="M64.639,392.692l-1.285,3.482h2.574L64.639,392.692 M64.104,391.759h1.074l2.667,6.999h-0.984l-0.637-1.796h-3.155
	l-0.638,1.796h-0.999L64.104,391.759"/>
<polyline points="67.142,391.759 73.062,391.759 73.062,392.556 70.578,392.556 70.578,398.758 69.626,398.758 69.626,392.556 
	67.142,392.556 67.142,391.759 "/>
<path d="M74.928,392.537v2.63h1.19c0.441,0,0.781-0.114,1.022-0.342c0.241-0.229,0.361-0.554,0.361-0.976
	c0-0.419-0.12-0.742-0.361-0.97c-0.241-0.229-0.581-0.343-1.022-0.343H74.928 M73.981,391.759h2.137
	c0.784,0,1.376,0.179,1.777,0.535c0.403,0.353,0.604,0.871,0.604,1.556c0,0.69-0.202,1.213-0.604,1.565
	c-0.4,0.354-0.993,0.53-1.777,0.53h-1.19v2.812h-0.947V391.759"/>
<path fill="#FFFFFF" d="M26.528,353.372c0,3.463-2.811,6.272-6.273,6.272c-3.462,0-6.273-2.81-6.273-6.272s2.811-6.273,6.273-6.273
	C23.717,347.099,26.528,349.909,26.528,353.372L26.528,353.372z"/>
<path fill="none" stroke="#000000" stroke-width="1.6" stroke-linecap="round" stroke-miterlimit="10" d="M26.528,353.372
	c0,3.463-2.811,6.272-6.273,6.272c-3.462,0-6.273-2.81-6.273-6.272s2.811-6.273,6.273-6.273
	C23.717,347.099,26.528,349.909,26.528,353.372L26.528,353.372z"/>
<path fill="#FFFFFF" d="M190.767,323.895h42.976c5.078,0,9.167,3.77,9.167,8.451v13.172c0,4.683-4.088,8.451-9.167,8.451h-42.976
	c-5.079,0-9.167-3.769-9.167-8.451v-13.172C181.6,327.664,185.688,323.895,190.767,323.895L190.767,323.895z"/>
<path fill="none" stroke="#000000" stroke-width="1.6" stroke-miterlimit="10" d="M190.767,323.895h42.976
	c5.078,0,9.167,3.77,9.167,8.451v13.172c0,4.683-4.088,8.451-9.167,8.451h-42.976c-5.079,0-9.167-3.769-9.167-8.451v-13.172
	C181.6,327.664,185.688,323.895,190.767,323.895L190.767,323.895z"/>
<polyline points="203.484,335.749 207.909,335.749 207.909,336.546 204.431,336.546 204.431,338.618 207.764,338.618 
	207.764,339.415 204.431,339.415 204.431,341.95 207.994,341.95 207.994,342.747 203.484,342.747 203.484,335.749 "/>
<path d="M212.878,339.466c0.203,0.069,0.4,0.216,0.591,0.441c0.194,0.225,0.387,0.534,0.581,0.928l0.961,1.912h-1.017l-0.896-1.795
	c-0.231-0.469-0.456-0.779-0.675-0.933c-0.216-0.153-0.511-0.229-0.886-0.229h-1.031v2.957h-0.947v-6.998h2.138
	c0.8,0,1.397,0.167,1.791,0.502c0.394,0.334,0.591,0.839,0.591,1.514c0,0.44-0.103,0.807-0.31,1.097
	C213.565,339.152,213.269,339.354,212.878,339.466 M210.506,336.527v2.484h1.19c0.456,0,0.8-0.104,1.031-0.314
	c0.234-0.212,0.352-0.523,0.352-0.933s-0.117-0.717-0.352-0.924c-0.231-0.209-0.575-0.313-1.031-0.313H210.506"/>
<polyline points="216.234,335.749 217.181,335.749 217.181,338.707 220.322,335.749 221.541,335.749 218.067,339.012 
	221.789,342.747 220.542,342.747 217.181,339.377 217.181,342.747 216.234,342.747 216.234,335.749 "/>
<path fill="#FFFFFF" d="M207.328,353.372c0,3.463-2.811,6.272-6.273,6.272c-3.463,0-6.273-2.81-6.273-6.272s2.81-6.273,6.273-6.273
	C204.517,347.099,207.328,349.909,207.328,353.372L207.328,353.372z"/>
<path fill="none" stroke="#000000" stroke-width="1.6" stroke-linecap="round" stroke-miterlimit="10" d="M207.328,353.372
	c0,3.463-2.811,6.272-6.273,6.272c-3.463,0-6.273-2.81-6.273-6.272s2.81-6.273,6.273-6.273
	C204.517,347.099,207.328,349.909,207.328,353.372L207.328,353.372z"/>
<path d="M200.027,351.235v2.191h0.992c0.367,0,0.651-0.096,0.852-0.285c0.2-0.19,0.301-0.461,0.301-0.812
	c0-0.35-0.101-0.619-0.301-0.809c-0.201-0.19-0.484-0.285-0.852-0.285H200.027 M199.238,350.587h1.781
	c0.653,0,1.147,0.148,1.48,0.445c0.336,0.294,0.504,0.727,0.504,1.297c0,0.575-0.168,1.01-0.504,1.305
	c-0.333,0.294-0.827,0.441-1.48,0.441h-0.992v2.344h-0.789V350.587"/>
<line fill="none" stroke="#000000" stroke-width="1.6" stroke-miterlimit="10" x1="243.666" y1="339.022" x2="352.722" y2="339.067"/>
<path fill="#FFFFFF" d="M274.175,395.841c0,11.603-9.417,21.02-21.02,21.02c-11.602,0-21.019-9.417-21.019-21.02
	c0-11.602,9.417-21.019,21.019-21.019C264.758,374.822,274.175,384.239,274.175,395.841L274.175,395.841z"/>
<path fill="none" stroke="#000000" stroke-width="1.6" stroke-linecap="round" stroke-miterlimit="10" d="M274.175,395.841
	c0,11.603-9.417,21.02-21.02,21.02c-11.602,0-21.019-9.417-21.019-21.02c0-11.602,9.417-21.019,21.019-21.019
	C264.758,374.822,274.175,384.239,274.175,395.841L274.175,395.841z"/>
<path fill="#FFFFFF" d="M370.175,395.841c0,11.603-9.416,21.02-21.019,21.02s-21.02-9.417-21.02-21.02
	c0-11.602,9.417-21.019,21.02-21.019S370.175,384.239,370.175,395.841L370.175,395.841z"/>
<path fill="none" stroke="#000000" stroke-width="1.6" stroke-linecap="round" stroke-miterlimit="10" d="M370.175,395.841
	c0,11.603-9.416,21.02-21.019,21.02s-21.02-9.417-21.02-21.02c0-11.602,9.417-21.019,21.02-21.019S370.175,384.239,370.175,395.841
	L370.175,395.841z"/>
<path d="M342.415,392.692l-1.284,3.482h2.573L342.415,392.692 M341.881,391.759h1.073l2.668,6.999h-0.984L344,396.962h-3.155
	l-0.637,1.796h-0.999L341.881,391.759"/>
<path d="M347.586,392.537v5.442h1.144c0.966,0,1.672-0.219,2.119-0.656c0.449-0.438,0.675-1.128,0.675-2.072
	c0-0.938-0.226-1.623-0.675-2.058c-0.447-0.438-1.153-0.656-2.119-0.656H347.586 M346.639,391.759h1.945
	c1.356,0,2.352,0.283,2.986,0.849c0.634,0.562,0.951,1.444,0.951,2.644c0,1.206-0.318,2.093-0.956,2.658s-1.631,0.849-2.981,0.849
	h-1.945V391.759"/>
<path d="M354.974,392.537v2.63h1.19c0.44,0,0.781-0.114,1.021-0.342c0.241-0.229,0.361-0.554,0.361-0.976
	c0-0.419-0.12-0.742-0.361-0.97c-0.24-0.229-0.581-0.343-1.021-0.343H354.974 M354.026,391.759h2.138
	c0.784,0,1.376,0.179,1.776,0.535c0.403,0.353,0.604,0.871,0.604,1.556c0,0.69-0.201,1.213-0.604,1.565
	c-0.4,0.354-0.992,0.53-1.776,0.53h-1.19v2.812h-0.947V391.759"/>
<path fill="none" stroke="#000000" stroke-width="1.6" stroke-miterlimit="10" d="M280.311,338.892l-19.762,36.578 M322.764,338.892
	l19.081,34.581 M352.134,339.067"/>
<polygon fill-rule="evenodd" clip-rule="evenodd" points="360.608,339.161 351.924,343.184 351.924,335.105 360.608,339.161 "/>
<polygon fill="none" stroke="#000000" stroke-width="1.6" stroke-miterlimit="10" points="360.608,339.161 351.924,343.184 
	351.924,335.105 360.608,339.161 "/>
<polygon fill="#FFFFFF" points="297.138,334.365 306.465,334.365 306.465,343.41 297.138,343.41 297.138,334.365 "/>
<polygon fill="none" stroke="#000000" stroke-width="1.6" stroke-linecap="round" stroke-miterlimit="10" points="297.138,334.365 
	306.465,334.365 306.465,343.41 297.138,343.41 297.138,334.365 "/>
<path d="M273.43,401.872c-2.536,8.759-10.621,15.169-20.193,15.169c-9.572,0-17.657-6.41-20.193-15.169"/>
<path fill="none" stroke="#000000" stroke-width="1.6" stroke-linecap="round" stroke-miterlimit="10" d="M273.43,401.872
	c-2.536,8.759-10.621,15.169-20.193,15.169c-9.572,0-17.657-6.41-20.193-15.169"/>
<path d="M369.43,401.872c-2.535,8.759-10.62,15.169-20.192,15.169c-9.573,0-17.657-6.41-20.193-15.169"/>
<path fill="none" stroke="#000000" stroke-width="1.6" stroke-linecap="round" stroke-miterlimit="10" d="M369.43,401.872
	c-2.535,8.759-10.62,15.169-20.192,15.169c-9.573,0-17.657-6.41-20.193-15.169"/>
<path d="M247.039,392.692l-1.284,3.482h2.573L247.039,392.692 M246.505,391.759h1.073l2.667,6.999h-0.984l-0.637-1.796h-3.155
	l-0.638,1.796h-0.998L246.505,391.759"/>
<polyline points="249.542,391.759 255.462,391.759 255.462,392.556 252.978,392.556 252.978,398.758 252.026,398.758 
	252.026,392.556 249.542,392.556 249.542,391.759 "/>
<path d="M257.328,392.537v2.63h1.19c0.441,0,0.781-0.114,1.022-0.342c0.241-0.229,0.361-0.554,0.361-0.976
	c0-0.419-0.12-0.742-0.361-0.97c-0.241-0.229-0.581-0.343-1.022-0.343H257.328 M256.381,391.759h2.137
	c0.785,0,1.377,0.179,1.777,0.535c0.403,0.353,0.604,0.871,0.604,1.556c0,0.69-0.202,1.213-0.604,1.565
	c-0.4,0.354-0.992,0.53-1.777,0.53h-1.19v2.812h-0.947V391.759"/>
<path fill="#FFFFFF" d="M372.167,323.895h42.977c5.078,0,9.166,3.77,9.166,8.451v13.172c0,4.683-4.088,8.451-9.166,8.451h-42.977
	c-5.078,0-9.167-3.769-9.167-8.451v-13.172C363,327.664,367.089,323.895,372.167,323.895L372.167,323.895z"/>
<path fill="none" stroke="#000000" stroke-width="1.6" stroke-miterlimit="10" d="M372.167,323.895h42.977
	c5.078,0,9.166,3.77,9.166,8.451v13.172c0,4.683-4.088,8.451-9.166,8.451h-42.977c-5.078,0-9.167-3.769-9.167-8.451v-13.172
	C363,327.664,367.089,323.895,372.167,323.895L372.167,323.895z"/>
<polyline points="384.885,335.749 389.31,335.749 389.31,336.546 385.832,336.546 385.832,338.618 389.164,338.618 389.164,339.415 
	385.832,339.415 385.832,341.95 389.395,341.95 389.395,342.747 384.885,342.747 384.885,335.749 "/>
<path d="M394.278,339.466c0.203,0.069,0.4,0.216,0.591,0.441c0.193,0.225,0.388,0.534,0.581,0.928l0.961,1.912h-1.017l-0.896-1.795
	c-0.231-0.469-0.456-0.779-0.675-0.933c-0.216-0.153-0.512-0.229-0.887-0.229h-1.031v2.957h-0.946v-6.998h2.138
	c0.8,0,1.396,0.167,1.79,0.502c0.394,0.334,0.591,0.839,0.591,1.514c0,0.44-0.104,0.807-0.31,1.097
	C394.966,339.152,394.669,339.354,394.278,339.466 M391.906,336.527v2.484h1.191c0.456,0,0.8-0.104,1.031-0.314
	c0.234-0.212,0.352-0.523,0.352-0.933s-0.117-0.717-0.352-0.924c-0.231-0.209-0.575-0.313-1.031-0.313H391.906"/>
<polyline points="397.635,335.749 398.582,335.749 398.582,338.707 401.723,335.749 402.941,335.749 399.468,339.012 
	403.189,342.747 401.942,342.747 398.582,339.377 398.582,342.747 397.635,342.747 397.635,335.749 "/>
<path fill="#FFFFFF" d="M388.729,353.372c0,3.463-2.811,6.272-6.273,6.272s-6.273-2.81-6.273-6.272s2.811-6.273,6.273-6.273
	S388.729,349.909,388.729,353.372L388.729,353.372z"/>
<path fill="none" stroke="#000000" stroke-width="1.6" stroke-linecap="round" stroke-miterlimit="10" d="M388.729,353.372
	c0,3.463-2.811,6.272-6.273,6.272s-6.273-2.81-6.273-6.272s2.811-6.273,6.273-6.273S388.729,349.909,388.729,353.372
	L388.729,353.372z"/>
<path d="M381.428,351.235v2.191h0.992c0.367,0,0.651-0.096,0.852-0.285c0.2-0.19,0.301-0.461,0.301-0.812
	c0-0.35-0.101-0.619-0.301-0.809c-0.2-0.19-0.484-0.285-0.852-0.285H381.428 M380.639,350.587h1.781c0.653,0,1.147,0.148,1.48,0.445
	c0.336,0.294,0.504,0.727,0.504,1.297c0,0.575-0.168,1.01-0.504,1.305c-0.333,0.294-0.827,0.441-1.48,0.441h-0.992v2.344h-0.789
	V350.587"/>
<polygon fill-rule="evenodd" clip-rule="evenodd" points="159.52,373.734 152.501,367.226 159.975,364.159 159.52,373.734 "/>
<polygon fill="none" stroke="#000000" stroke-width="1.6" stroke-miterlimit="10" points="159.52,373.734 152.501,367.226 
	159.975,364.159 159.52,373.734 "/>
<path fill="#FFFFFF" d="M48.928,353.372c0,3.463-2.811,6.272-6.273,6.272c-3.463,0-6.273-2.81-6.273-6.272s2.811-6.273,6.273-6.273
	C46.117,347.099,48.928,349.909,48.928,353.372L48.928,353.372z"/>
<path fill="none" stroke="#000000" stroke-width="1.6" stroke-linecap="round" stroke-miterlimit="10" d="M48.928,353.372
	c0,3.463-2.811,6.272-6.273,6.272c-3.463,0-6.273-2.81-6.273-6.272s2.811-6.273,6.273-6.273
	C46.117,347.099,48.928,349.909,48.928,353.372L48.928,353.372z"/>
<path fill="#FFFFFF" d="M229.728,353.372c0,3.463-2.81,6.272-6.273,6.272s-6.273-2.81-6.273-6.272s2.81-6.273,6.273-6.273
	S229.728,349.909,229.728,353.372L229.728,353.372z"/>
<path fill="none" stroke="#000000" stroke-width="1.6" stroke-linecap="round" stroke-miterlimit="10" d="M229.728,353.372
	c0,3.463-2.81,6.272-6.273,6.272s-6.273-2.81-6.273-6.272s2.81-6.273,6.273-6.273S229.728,349.909,229.728,353.372L229.728,353.372z
	"/>
<polygon fill-rule="evenodd" clip-rule="evenodd" points="342.287,373.734 335.269,367.226 342.743,364.159 342.287,373.734 "/>
<polygon fill="none" stroke="#000000" stroke-width="1.6" stroke-miterlimit="10" points="342.287,373.734 335.269,367.226 
	342.743,364.159 342.287,373.734 "/>
<path fill="#FFFFFF" d="M411.128,353.372c0,3.463-2.811,6.272-6.272,6.272c-3.463,0-6.273-2.81-6.273-6.272s2.811-6.273,6.273-6.273
	C408.317,347.099,411.128,349.909,411.128,353.372L411.128,353.372z"/>
<path fill="none" stroke="#000000" stroke-width="1.6" stroke-linecap="round" stroke-miterlimit="10" d="M411.128,353.372
	c0,3.463-2.811,6.272-6.272,6.272c-3.463,0-6.273-2.81-6.273-6.272s2.811-6.273,6.273-6.273
	C408.317,347.099,411.128,349.909,411.128,353.372L411.128,353.372z"/>
<path d="M403.828,351.235v2.191h0.992c0.367,0,0.65-0.096,0.852-0.285c0.2-0.19,0.301-0.461,0.301-0.812
	c0-0.35-0.101-0.619-0.301-0.809c-0.201-0.19-0.484-0.285-0.852-0.285H403.828 M403.039,350.587h1.781
	c0.653,0,1.146,0.148,1.48,0.445c0.336,0.294,0.504,0.727,0.504,1.297c0,0.575-0.168,1.01-0.504,1.305
	c-0.334,0.294-0.827,0.441-1.48,0.441h-0.992v2.344h-0.789V350.587"/>
<path fill-rule="evenodd" clip-rule="evenodd" fill="#FFFFFF" d="M306.607,326.801c0,2.689-2.183,4.872-4.872,4.872
	c-2.69,0-4.873-2.183-4.873-4.872s2.183-4.872,4.873-4.872C304.425,321.929,306.607,324.111,306.607,326.801L306.607,326.801z"/>
<path fill="none" stroke="#000000" stroke-width="1.6" stroke-miterlimit="10" d="M306.607,326.801c0,2.689-2.183,4.872-4.872,4.872
	c-2.69,0-4.873-2.183-4.873-4.872s2.183-4.872,4.873-4.872C304.425,321.929,306.607,324.111,306.607,326.801L306.607,326.801z"/>
<line fill="none" stroke="#000000" stroke-width="1.6" stroke-miterlimit="10" x1="304.959" y1="178.728" x2="304.959" y2="155.1"/>
</svg>
