<?xml version="1.0" encoding="UTF-8" standalone="no"?>
<!-- Created with Bouml (http://bouml.free.fr/) -->
<!DOCTYPE svg PUBLIC "-//W3C//DTD SVG 1.1//EN" "http://www.w3.org/Graphics/SVG/1.1/DTD/svg11.dtd">
<svg width="1407" height="948" version="1.1" xmlns="http://www.w3.org/2000/svg">
<g>
	<line stroke-dasharray="4,4" stroke="black" stroke-opacity="1" x1="1225" y1="400" x2="1198" y2="337" />
</g>
<g>
	<line stroke-dasharray="4,4" stroke="black" stroke-opacity="1" x1="1165" y1="217" x2="1165" y2="266" />
</g>
<g>
	<line stroke-dasharray="4,4" stroke="black" stroke-opacity="1" x1="1034" y1="615" x2="1014" y2="576" />
</g>
<g>
	<line stroke-dasharray="4,4" stroke="black" stroke-opacity="1" x1="972" y1="493" x2="942" y2="401" />
</g>
<g>
	<line stroke="black" stroke-opacity="1" x1="313" y1="555" x2="467" y2="580" />
	<line stroke="black" stroke-opacity="1" x1="473" y1="581" x2="468" y2="574" />
	<line stroke="black" stroke-opacity="1" x1="473" y1="581" x2="466" y2="585" />
	<line stroke="black" stroke-opacity="1" x1="468" y1="574" x2="466" y2="585" />
</g>
<g>
	<line stroke="black" stroke-opacity="1" x1="513" y1="556" x2="513" y2="443" />
	<polygon fill="#ffffff" stroke="black" stroke-opacity="1" points="513,556 507,550 513,544 519,550" />
</g>
<g>
	<line stroke="black" stroke-opacity="1" x1="727" y1="721" x2="800" y2="721" />
	<polygon fill="#000000" stroke="black" stroke-opacity="1" points="727,721 733,715 739,721 733,727" />
</g>
<g>
	<line stroke="black" stroke-opacity="1" x1="481" y1="190" x2="508" y2="378" />
	<polygon fill="#ffffff" stroke="black" stroke-opacity="1" points="481,190 487,195 482,201 475,196" />
</g>
<g>
	<line stroke="black" stroke-opacity="1" x1="742" y1="589" x2="839" y2="613" />
</g>
<g>
	<line stroke="black" stroke-opacity="1" x1="839" y1="696" x2="845" y2="690" />
	<line stroke="black" stroke-opacity="1" x1="839" y1="696" x2="833" y2="690" />
	<line stroke="black" stroke-opacity="1" x1="839" y1="613" x2="839" y2="696" />
</g>
<g>
	<line stroke="black" stroke-opacity="1" x1="429" y1="223" x2="559" y2="223" />
	<line stroke="black" stroke-opacity="1" x1="565" y1="223" x2="559" y2="217" />
	<line stroke="black" stroke-opacity="1" x1="565" y1="223" x2="559" y2="229" />
	<line stroke="black" stroke-opacity="1" x1="559" y1="217" x2="559" y2="229" />
</g>
<g>
	<line stroke="black" stroke-opacity="1" x1="312" y1="223" x2="207" y2="223" />
	<polygon fill="#ffffff" stroke="black" stroke-opacity="1" points="312,223 306,229 300,223 306,217" />
</g>
<g>
	<line stroke="black" stroke-opacity="1" x1="207" y1="223" x2="207" y2="313" />
</g>
<g>
	<line stroke="black" stroke-opacity="1" x1="1322" y1="328" x2="1114" y2="276" />
	<line stroke="black" stroke-opacity="1" x1="1109" y1="275" x2="1113" y2="282" />
	<line stroke="black" stroke-opacity="1" x1="1109" y1="275" x2="1116" y2="270" />
	<line stroke="black" stroke-opacity="1" x1="1113" y1="282" x2="1116" y2="270" />
</g>
<g>
	<line stroke="black" stroke-opacity="1" x1="509" y1="772" x2="511" y2="626" />
	<line stroke="black" stroke-opacity="1" x1="512" y1="621" x2="505" y2="626" />
	<line stroke="black" stroke-opacity="1" x1="512" y1="621" x2="517" y2="627" />
	<line stroke="black" stroke-opacity="1" x1="505" y1="626" x2="517" y2="627" />
</g>
<g>
	<line stroke="black" stroke-opacity="1" x1="241" y1="102" x2="309" y2="84" />
	<line stroke="black" stroke-opacity="1" x1="315" y1="83" x2="307" y2="78" />
	<line stroke="black" stroke-opacity="1" x1="315" y1="83" x2="310" y2="90" />
	<line stroke="black" stroke-opacity="1" x1="307" y1="78" x2="310" y2="90" />
</g>
<g>
	<line stroke="black" stroke-opacity="1" x1="1322" y1="337" x2="1074" y2="337" />
</g>
<g>
	<line stroke="black" stroke-opacity="1" x1="1074" y1="337" x2="1074" y2="291" />
</g>
<g>
	<line stroke="black" stroke-opacity="1" x1="595" y1="356" x2="523" y2="556" />
	<polygon fill="#ffffff" stroke="black" stroke-opacity="1" points="595,356 598,363 590,367 587,359" />
</g>
<g>
	<line stroke="black" stroke-opacity="1" x1="331" y1="766" x2="274" y2="666" />
	<line stroke="black" stroke-opacity="1" x1="272" y1="661" x2="269" y2="669" />
	<line stroke="black" stroke-opacity="1" x1="272" y1="661" x2="280" y2="663" />
	<line stroke="black" stroke-opacity="1" x1="269" y1="669" x2="280" y2="663" />
</g>
<g>
	<line stroke="black" stroke-opacity="1" x1="329" y1="623" x2="467" y2="596" />
	<line stroke="black" stroke-opacity="1" x1="473" y1="595" x2="465" y2="590" />
	<line stroke="black" stroke-opacity="1" x1="473" y1="595" x2="468" y2="602" />
	<line stroke="black" stroke-opacity="1" x1="465" y1="590" x2="468" y2="602" />
</g>
<g>
	<line stroke="black" stroke-opacity="1" x1="260" y1="887" x2="260" y2="667" />
	<line stroke="black" stroke-opacity="1" x1="260" y1="661" x2="254" y2="667" />
	<line stroke="black" stroke-opacity="1" x1="260" y1="661" x2="266" y2="667" />
	<line stroke="black" stroke-opacity="1" x1="254" y1="667" x2="266" y2="667" />
</g>
<g>
	<line stroke="black" stroke-opacity="1" x1="309" y1="887" x2="459" y2="813" />
	<line stroke="black" stroke-opacity="1" x1="465" y1="811" x2="456" y2="808" />
	<line stroke="black" stroke-opacity="1" x1="465" y1="811" x2="462" y2="819" />
	<line stroke="black" stroke-opacity="1" x1="456" y1="808" x2="462" y2="819" />
</g>
<g>
	<line stroke="black" stroke-opacity="1" x1="238" y1="129" x2="239" y2="137" />
	<line stroke="black" stroke-opacity="1" x1="238" y1="129" x2="246" y2="127" />
	<line stroke="black" stroke-opacity="1" x1="345" y1="203" x2="238" y2="129" />
</g>
<g>
	<line stroke="black" stroke-opacity="1" x1="389" y1="787" x2="442" y2="787" />
	<line stroke="black" stroke-opacity="1" x1="448" y1="788" x2="442" y2="781" />
	<line stroke="black" stroke-opacity="1" x1="448" y1="788" x2="441" y2="793" />
	<line stroke="black" stroke-opacity="1" x1="442" y1="781" x2="441" y2="793" />
</g>
<g>
	<line stroke="black" stroke-opacity="1" x1="260" y1="567" x2="260" y2="606" />
	<line stroke="black" stroke-opacity="1" x1="260" y1="612" x2="266" y2="606" />
	<line stroke="black" stroke-opacity="1" x1="260" y1="612" x2="254" y2="606" />
	<line stroke="black" stroke-opacity="1" x1="266" y1="606" x2="254" y2="606" />
</g>
<g>
	<line stroke="black" stroke-opacity="1" x1="360" y1="78" x2="513" y2="78" />
	<polygon fill="#000000" stroke="black" stroke-opacity="1" points="360,78 366,72 372,78 366,84" />
</g>
<g>
	<line stroke="black" stroke-opacity="1" x1="513" y1="78" x2="486" y2="141" />
</g>
<g>
	<line stroke="black" stroke-opacity="1" x1="180" y1="110" x2="61" y2="110" />
	<polygon fill="#000000" stroke="black" stroke-opacity="1" points="180,110 174,116 168,110 174,104" />
</g>
<g>
	<line stroke="black" stroke-opacity="1" x1="61" y1="110" x2="61" y2="338" />
</g>
<g>
	<line stroke="black" stroke-opacity="1" x1="61" y1="338" x2="135" y2="338" />
</g>
<g>
	<line stroke="black" stroke-opacity="1" x1="606" y1="123" x2="605" y2="197" />
	<line stroke="black" stroke-opacity="1" x1="605" y1="203" x2="611" y2="197" />
	<line stroke="black" stroke-opacity="1" x1="605" y1="203" x2="599" y2="196" />
	<line stroke="black" stroke-opacity="1" x1="611" y1="197" x2="599" y2="196" />
</g>
<g>
	<line stroke="black" stroke-opacity="1" x1="1033" y1="144" x2="649" y2="212" />
	<line stroke="black" stroke-opacity="1" x1="644" y1="214" x2="650" y2="218" />
	<line stroke="black" stroke-opacity="1" x1="644" y1="214" x2="648" y2="207" />
	<line stroke="black" stroke-opacity="1" x1="650" y1="218" x2="648" y2="207" />
</g>
<g>
	<line stroke="black" stroke-opacity="1" x1="655" y1="267" x2="631" y2="245" />
	<line stroke="black" stroke-opacity="1" x1="627" y1="242" x2="627" y2="250" />
	<line stroke="black" stroke-opacity="1" x1="627" y1="242" x2="635" y2="241" />
	<line stroke="black" stroke-opacity="1" x1="627" y1="250" x2="635" y2="241" />
</g>
<g>
	<line stroke="black" stroke-opacity="1" x1="878" y1="222" x2="650" y2="222" />
	<line stroke="black" stroke-opacity="1" x1="644" y1="222" x2="650" y2="228" />
	<line stroke="black" stroke-opacity="1" x1="644" y1="222" x2="650" y2="216" />
	<line stroke="black" stroke-opacity="1" x1="650" y1="228" x2="650" y2="216" />
</g>
<g>
	<line stroke="black" stroke-opacity="1" x1="1049" y1="400" x2="649" y2="240" />
	<line stroke="black" stroke-opacity="1" x1="644" y1="238" x2="647" y2="245" />
	<line stroke="black" stroke-opacity="1" x1="644" y1="238" x2="651" y2="234" />
	<line stroke="black" stroke-opacity="1" x1="647" y1="245" x2="651" y2="234" />
</g>
<g>
	<line stroke="black" stroke-opacity="1" x1="524" y1="186" x2="565" y2="204" />
	<polygon fill="#000000" stroke="black" stroke-opacity="1" points="524,186 531,182 534,190 527,193" />
</g>
<g>
	<line stroke="black" stroke-opacity="1" x1="567" y1="337" x2="561" y2="331" />
	<line stroke="black" stroke-opacity="1" x1="567" y1="337" x2="561" y2="343" />
	<line stroke="black" stroke-opacity="1" x1="280" y1="337" x2="567" y2="337" />
	<polygon fill="#ffffff" stroke="black" stroke-opacity="1" points="280,337 286,331 292,337 286,343" />
</g>
<g>
	<line stroke="black" stroke-opacity="1" x1="211" y1="90" x2="211" y2="22" />
</g>
<g>
	<line stroke="black" stroke-opacity="1" x1="211" y1="22" x2="337" y2="22" />
</g>
<g>
	<line stroke="black" stroke-opacity="1" x1="337" y1="22" x2="337" y2="53" />
</g>
<g>
	<line stroke="black" stroke-opacity="1" x1="347" y1="766" x2="481" y2="621" />
	<polygon fill="#ffffff" stroke="black" stroke-opacity="1" points="347,766 346,757 355,757 355,765" />
</g>
<g>
	<line stroke="black" stroke-opacity="1" x1="553" y1="772" x2="634" y2="739" />
	<polygon fill="#000000" stroke="black" stroke-opacity="1" points="553,772 556,764 564,767 560,775" />
</g>
<g>
	<line stroke="black" stroke-opacity="1" x1="478" y1="141" x2="478" y2="98" />
	<polygon fill="#000000" stroke="black" stroke-opacity="1" points="478,141 472,135 478,129 484,135" />
</g>
<g>
	<line stroke="black" stroke-opacity="1" x1="478" y1="98" x2="409" y2="98" />
</g>
<g>
	<line stroke="black" stroke-opacity="1" x1="409" y1="98" x2="409" y2="173" />
</g>
<g>
	<line stroke="black" stroke-opacity="1" x1="431" y1="173" x2="425" y2="167" />
	<line stroke="black" stroke-opacity="1" x1="431" y1="173" x2="425" y2="179" />
	<line stroke="black" stroke-opacity="1" x1="409" y1="173" x2="431" y2="173" />
</g>
<g>
	<line stroke="black" stroke-opacity="1" x1="604" y1="317" x2="604" y2="248" />
	<line stroke="black" stroke-opacity="1" x1="604" y1="242" x2="598" y2="248" />
	<line stroke="black" stroke-opacity="1" x1="604" y1="242" x2="610" y2="248" />
	<line stroke="black" stroke-opacity="1" x1="598" y1="248" x2="610" y2="248" />
</g>
<g>
	<line stroke="black" stroke-opacity="1" x1="674" y1="555" x2="610" y2="361" />
	<line stroke="black" stroke-opacity="1" x1="609" y1="356" x2="605" y2="363" />
	<line stroke="black" stroke-opacity="1" x1="609" y1="356" x2="616" y2="359" />
	<line stroke="black" stroke-opacity="1" x1="605" y1="363" x2="616" y2="359" />
</g>
<g>
	<line stroke="black" stroke-opacity="1" x1="1107" y1="388" x2="1229" y2="290" />
	<line stroke="black" stroke-opacity="1" x1="1234" y1="287" x2="1225" y2="286" />
	<line stroke="black" stroke-opacity="1" x1="1234" y1="287" x2="1233" y2="295" />
	<line stroke="black" stroke-opacity="1" x1="1225" y1="286" x2="1233" y2="295" />
</g>
<g>
	<line stroke="black" stroke-opacity="1" x1="640" y1="330" x2="1034" y2="270" />
	<line stroke="black" stroke-opacity="1" x1="1040" y1="270" x2="1033" y2="264" />
	<line stroke="black" stroke-opacity="1" x1="1040" y1="270" x2="1034" y2="276" />
	<line stroke="black" stroke-opacity="1" x1="1033" y1="264" x2="1034" y2="276" />
</g>
<g>
	<line stroke="black" stroke-opacity="1" x1="1109" y1="267" x2="1221" y2="267" />
</g>
<g>
	<line stroke="black" stroke-opacity="1" x1="700" y1="305" x2="773" y2="367" />
	<line stroke="black" stroke-opacity="1" x1="778" y1="371" x2="777" y2="362" />
	<line stroke="black" stroke-opacity="1" x1="778" y1="371" x2="769" y2="371" />
	<line stroke="black" stroke-opacity="1" x1="777" y1="362" x2="769" y2="371" />
</g>
<g>
	<line stroke="black" stroke-opacity="1" x1="640" y1="346" x2="757" y2="377" />
	<line stroke="black" stroke-opacity="1" x1="763" y1="379" x2="758" y2="371" />
	<line stroke="black" stroke-opacity="1" x1="763" y1="379" x2="755" y2="383" />
	<line stroke="black" stroke-opacity="1" x1="758" y1="371" x2="755" y2="383" />
</g>
<g>
	<line stroke="black" stroke-opacity="1" x1="836" y1="393" x2="1049" y2="410" />
</g>
<g>
	<line stroke="black" stroke-opacity="1" x1="948" y1="576" x2="1080" y2="576" />
</g>
<g>
	<line stroke="black" stroke-opacity="1" x1="1080" y1="576" x2="1080" y2="437" />
</g>
<g>
	<line stroke="black" stroke-opacity="1" x1="628" y1="356" x2="877" y2="552" />
	<line stroke="black" stroke-opacity="1" x1="882" y1="556" x2="880" y2="547" />
	<line stroke="black" stroke-opacity="1" x1="882" y1="556" x2="873" y2="557" />
	<line stroke="black" stroke-opacity="1" x1="880" y1="547" x2="873" y2="557" />
</g>
<g>
	<line stroke="black" stroke-opacity="1" x1="647" y1="98" x2="1261" y2="98" />
</g>
<g>
	<line stroke="black" stroke-opacity="1" x1="1261" y1="98" x2="1261" y2="242" />
	<line stroke="black" stroke-opacity="1" x1="1261" y1="248" x2="1267" y2="242" />
	<line stroke="black" stroke-opacity="1" x1="1261" y1="248" x2="1255" y2="242" />
	<line stroke="black" stroke-opacity="1" x1="1267" y1="242" x2="1255" y2="242" />
</g>
<g>
	<line stroke="black" stroke-opacity="1" x1="1075" y1="162" x2="1075" y2="236" />
	<line stroke="black" stroke-opacity="1" x1="1075" y1="242" x2="1081" y2="236" />
	<line stroke="black" stroke-opacity="1" x1="1075" y1="242" x2="1069" y2="236" />
	<line stroke="black" stroke-opacity="1" x1="1081" y1="236" x2="1069" y2="236" />
</g>
<g>
	<line stroke="black" stroke-opacity="1" x1="906" y1="241" x2="906" y2="550" />
	<line stroke="black" stroke-opacity="1" x1="906" y1="556" x2="912" y2="550" />
	<line stroke="black" stroke-opacity="1" x1="906" y1="556" x2="900" y2="550" />
	<line stroke="black" stroke-opacity="1" x1="912" y1="550" x2="900" y2="550" />
</g>
<g>
	<rect fill="#808080" stroke="none" stroke-opacity="1" x="548" y="561" width="3" height="59" />
	<rect fill="#808080" stroke="none" stroke-opacity="1" x="478" y="617" width="73" height="3" />
	<rect fill="#ffffc0" stroke="black" stroke-width="1" stroke-opacity="1" x="474" y="557" width="74" height="60" />
	<text font-family="Helvetica" font-size="12" fill="#000000" xml:space="preserve" font-weight="bold" text-anchor="middle" x="511" y="571">EntityType</text>
	<line stroke="black" stroke-opacity="1" x1="474" y1="575" x2="548" y2="575" />
	<text font-family="Helvetica" font-size="12" fill="#000000" xml:space="preserve" x="478" y="589">name</text>
	<text font-family="Helvetica" font-size="12" fill="#000000" xml:space="preserve" x="478" y="605">type</text>
	<line stroke="black" stroke-opacity="1" x1="474" y1="609" x2="548" y2="609" />
</g>
<g>
	<rect fill="#808080" stroke="none" stroke-opacity="1" x="547" y="383" width="3" height="59" />
	<rect fill="#808080" stroke="none" stroke-opacity="1" x="481" y="439" width="69" height="3" />
	<rect fill="#ffffc0" stroke="black" stroke-width="1" stroke-opacity="1" x="477" y="379" width="70" height="60" />
	<text font-family="Helvetica" font-size="12" fill="#000000" xml:space="preserve" font-weight="bold" text-anchor="middle" x="512" y="393">Annotation</text>
	<line stroke="black" stroke-opacity="1" x1="477" y1="397" x2="547" y2="397" />
	<text font-family="Helvetica" font-size="12" fill="#000000" xml:space="preserve" x="481" y="411">prefix</text>
	<text font-family="Helvetica" font-size="12" fill="#000000" xml:space="preserve" x="481" y="427">description</text>
	<line stroke="black" stroke-opacity="1" x1="477" y1="431" x2="547" y2="431" />
</g>
<g>
	<rect fill="#808080" stroke="none" stroke-opacity="1" x="873" y="701" width="3" height="43" />
	<rect fill="#808080" stroke="none" stroke-opacity="1" x="805" y="741" width="71" height="3" />
	<rect fill="#ffffc0" stroke="black" stroke-width="1" stroke-opacity="1" x="801" y="697" width="72" height="44" />
	<text font-family="Helvetica" font-size="12" fill="#000000" xml:space="preserve" font-weight="bold" text-anchor="middle" x="837" y="711">StateValue</text>
	<line stroke="black" stroke-opacity="1" x1="801" y1="715" x2="873" y2="715" />
	<text font-family="Helvetica" font-size="12" fill="#000000" xml:space="preserve" x="805" y="729">value</text>
	<line stroke="black" stroke-opacity="1" x1="801" y1="733" x2="873" y2="733" />
</g>
<g>
	<rect fill="#808080" stroke="none" stroke-opacity="1" x="237" y="95" width="3" height="33" />
	<rect fill="#808080" stroke="none" stroke-opacity="1" x="185" y="125" width="55" height="3" />
	<rect fill="#ffffc0" stroke="black" stroke-width="1" stroke-opacity="1" x="181" y="91" width="56" height="34" />
	<text font-family="Helvetica" font-size="12" fill="#000000" xml:space="preserve" font-weight="bold" text-anchor="middle" x="209" y="105">SubMap</text>
	<line stroke="black" stroke-opacity="1" x1="181" y1="109" x2="237" y2="109" />
	<line stroke="black" stroke-opacity="1" x1="181" y1="117" x2="237" y2="117" />
</g>
<g>
	<rect fill="#808080" stroke="none" stroke-opacity="1" x="696" y="271" width="3" height="33" />
	<rect fill="#808080" stroke="none" stroke-opacity="1" x="660" y="301" width="39" height="3" />
	<rect fill="#ffffc0" stroke="black" stroke-width="1" stroke-opacity="1" x="656" y="267" width="40" height="34" />
	<text font-family="Helvetica" font-size="12" fill="#000000" xml:space="preserve" font-weight="bold" text-anchor="middle" x="676" y="281">Sink</text>
	<line stroke="black" stroke-opacity="1" x1="656" y1="285" x2="696" y2="285" />
	<line stroke="black" stroke-opacity="1" x1="656" y1="293" x2="696" y2="293" />
</g>
<g>
	<rect fill="#808080" stroke="none" stroke-opacity="1" x="425" y="208" width="3" height="33" />
	<rect fill="#808080" stroke="none" stroke-opacity="1" x="317" y="238" width="111" height="3" />
	<rect fill="#ffffc0" stroke="black" stroke-width="1" stroke-opacity="1" x="313" y="204" width="112" height="34" />
	<text font-family="Helvetica" font-size="12" fill="#000000" xml:space="preserve" font-weight="bold" text-anchor="middle" x="369" y="218">CollapsedSubMap</text>
	<line stroke="black" stroke-opacity="1" x1="313" y1="222" x2="425" y2="222" />
	<line stroke="black" stroke-opacity="1" x1="313" y1="230" x2="425" y2="230" />
</g>
<g>
	<rect fill="#808080" stroke="none" stroke-opacity="1" x="929" y="207" width="3" height="33" />
	<rect fill="#808080" stroke="none" stroke-opacity="1" x="883" y="237" width="49" height="3" />
	<rect fill="#ffffc0" stroke="black" stroke-width="1" stroke-opacity="1" x="879" y="203" width="50" height="34" />
	<text font-family="Helvetica" font-size="12" fill="#000000" xml:space="preserve" font-weight="bold" text-anchor="middle" x="904" y="217">Source</text>
	<line stroke="black" stroke-opacity="1" x1="879" y1="221" x2="929" y2="221" />
	<line stroke="black" stroke-opacity="1" x1="879" y1="229" x2="929" y2="229" />
</g>
<g>
	<rect fill="#808080" stroke="none" stroke-opacity="1" x="1391" y="318" width="3" height="43" />
	<rect fill="#808080" stroke="none" stroke-opacity="1" x="1327" y="358" width="67" height="3" />
	<rect fill="#ffffc0" stroke="black" stroke-width="1" stroke-opacity="1" x="1323" y="314" width="68" height="44" />
	<text font-family="Helvetica" font-size="12" fill="#000000" xml:space="preserve" font-weight="bold" text-anchor="middle" x="1357" y="328">LogicGate</text>
	<line stroke="black" stroke-opacity="1" x1="1323" y1="332" x2="1391" y2="332" />
	<text font-family="Helvetica" font-size="12" fill="#000000" xml:space="preserve" x="1327" y="346">type</text>
	<line stroke="black" stroke-opacity="1" x1="1323" y1="350" x2="1391" y2="350" />
</g>
<g>
	<rect fill="#808080" stroke="none" stroke-opacity="1" x="565" y="777" width="3" height="33" />
	<rect fill="#808080" stroke="none" stroke-opacity="1" x="453" y="807" width="115" height="3" />
	<rect fill="#ffffc0" stroke="black" stroke-width="1" stroke-opacity="1" x="449" y="773" width="116" height="34" />
	<text font-family="Helvetica" font-size="12" fill="#000000" xml:space="preserve" font-weight="bold" font-style="italic" text-anchor="middle" x="507" y="787">StatefulEntityType</text>
	<line stroke="black" stroke-opacity="1" x1="449" y1="791" x2="565" y2="791" />
	<line stroke="black" stroke-opacity="1" x1="449" y1="799" x2="565" y2="799" />
</g>
<g>
	<rect fill="#808080" stroke="none" stroke-opacity="1" x="325" y="617" width="3" height="43" />
	<rect fill="#808080" stroke="none" stroke-opacity="1" x="195" y="657" width="133" height="3" />
	<rect fill="#ffffc0" stroke="black" stroke-width="1" stroke-opacity="1" x="191" y="613" width="134" height="44" />
	<text font-family="Helvetica" font-size="12" fill="#000000" xml:space="preserve" font-weight="bold" font-style="italic" text-anchor="middle" x="258" y="627">MultimericEntityType</text>
	<line stroke="black" stroke-opacity="1" x1="191" y1="631" x2="325" y2="631" />
	<text font-family="Helvetica" font-size="12" fill="#000000" xml:space="preserve" x="195" y="645">numSubunits</text>
	<line stroke="black" stroke-opacity="1" x1="191" y1="649" x2="325" y2="649" />
</g>
<g>
	<rect fill="#808080" stroke="none" stroke-opacity="1" x="1274" y="405" width="3" height="33" />
	<rect fill="#808080" stroke="none" stroke-opacity="1" x="1194" y="435" width="83" height="3" />
	<rect fill="#ffffc0" stroke="black" stroke-width="1" stroke-opacity="1" x="1190" y="401" width="84" height="34" />
	<text font-family="Helvetica" font-size="12" fill="#000000" xml:space="preserve" font-weight="bold" text-anchor="middle" x="1232" y="415">LogicAdapter</text>
	<line stroke="black" stroke-opacity="1" x1="1190" y1="419" x2="1274" y2="419" />
	<line stroke="black" stroke-opacity="1" x1="1190" y1="427" x2="1274" y2="427" />
</g>
<g>
	<polygon fill="#c0ffff" stroke="black" stroke-opacity="1" points="895,762 1097,762 1097,772 1107,772 1107,797 895,797 895,762" />
	<line stroke="black" stroke-opacity="1" x1="1097" y1="762" x2="1107" y2="772" />
	<text font-family="Helvetica" font-size="12" fill="#000000" xml:space="preserve" x="905" y="786">Conceptual Model 1.0 23/5/08</text>
</g>
<g>
	<rect fill="#808080" stroke="none" stroke-opacity="1" x="385" y="771" width="3" height="33" />
	<rect fill="#808080" stroke="none" stroke-opacity="1" x="301" y="801" width="87" height="3" />
	<rect fill="#ffffc0" stroke="black" stroke-width="1" stroke-opacity="1" x="297" y="767" width="88" height="34" />
	<text font-family="Helvetica" font-size="12" fill="#000000" xml:space="preserve" font-weight="bold" text-anchor="middle" x="341" y="781">ComplexType</text>
	<line stroke="black" stroke-opacity="1" x1="297" y1="785" x2="385" y2="785" />
	<line stroke="black" stroke-opacity="1" x1="297" y1="793" x2="385" y2="793" />
</g>
<g>
	<rect fill="#808080" stroke="none" stroke-opacity="1" x="643" y="79" width="3" height="43" />
	<rect fill="#808080" stroke="none" stroke-opacity="1" x="571" y="119" width="75" height="3" />
	<rect fill="#ffffc0" stroke="black" stroke-width="1" stroke-opacity="1" x="567" y="75" width="76" height="44" />
	<text font-family="Helvetica" font-size="12" fill="#000000" xml:space="preserve" font-weight="bold" text-anchor="middle" x="605" y="89">Observable</text>
	<line stroke="black" stroke-opacity="1" x1="567" y1="93" x2="643" y2="93" />
	<text font-family="Helvetica" font-size="12" fill="#000000" xml:space="preserve" x="571" y="107">name</text>
	<line stroke="black" stroke-opacity="1" x1="567" y1="111" x2="643" y2="111" />
</g>
<g>
	<rect fill="#808080" stroke="none" stroke-opacity="1" x="1114" y="118" width="3" height="43" />
	<rect fill="#808080" stroke="none" stroke-opacity="1" x="1038" y="158" width="79" height="3" />
	<rect fill="#ffffc0" stroke="black" stroke-width="1" stroke-opacity="1" x="1034" y="114" width="80" height="44" />
	<text font-family="Helvetica" font-size="12" fill="#000000" xml:space="preserve" font-weight="bold" text-anchor="middle" x="1074" y="128">Perturbation</text>
	<line stroke="black" stroke-opacity="1" x1="1034" y1="132" x2="1114" y2="132" />
	<text font-family="Helvetica" font-size="12" fill="#000000" xml:space="preserve" x="1038" y="146">name</text>
	<line stroke="black" stroke-opacity="1" x1="1034" y1="150" x2="1114" y2="150" />
</g>
<g>
	<rect fill="#808080" stroke="none" stroke-opacity="1" x="356" y="58" width="3" height="43" />
	<rect fill="#808080" stroke="none" stroke-opacity="1" x="320" y="98" width="39" height="3" />
	<rect fill="#ffffc0" stroke="black" stroke-width="1" stroke-opacity="1" x="316" y="54" width="40" height="44" />
	<text font-family="Helvetica" font-size="12" fill="#000000" xml:space="preserve" font-weight="bold" text-anchor="middle" x="336" y="68">Map</text>
	<line stroke="black" stroke-opacity="1" x1="316" y1="72" x2="356" y2="72" />
	<text font-family="Helvetica" font-size="12" fill="#000000" xml:space="preserve" x="320" y="86">name</text>
	<line stroke="black" stroke-opacity="1" x1="316" y1="90" x2="356" y2="90" />
</g>
<g>
	<rect fill="#808080" stroke="none" stroke-opacity="1" x="640" y="208" width="3" height="33" />
	<rect fill="#808080" stroke="none" stroke-opacity="1" x="570" y="238" width="73" height="3" />
	<rect fill="#ffffc0" stroke="black" stroke-width="1" stroke-opacity="1" x="566" y="204" width="74" height="34" />
	<text font-family="Helvetica" font-size="12" fill="#000000" xml:space="preserve" font-weight="bold" font-style="italic" text-anchor="middle" x="603" y="218">BasicEntity</text>
	<line stroke="black" stroke-opacity="1" x1="566" y1="222" x2="640" y2="222" />
	<line stroke="black" stroke-opacity="1" x1="566" y1="230" x2="640" y2="230" />
</g>
<g>
	<rect fill="#808080" stroke="none" stroke-opacity="1" x="723" y="707" width="3" height="33" />
	<rect fill="#808080" stroke="none" stroke-opacity="1" x="639" y="737" width="87" height="3" />
	<rect fill="#ffffc0" stroke="black" stroke-width="1" stroke-opacity="1" x="635" y="703" width="88" height="34" />
	<text font-family="Helvetica" font-size="12" fill="#000000" xml:space="preserve" font-weight="bold" text-anchor="middle" x="679" y="717">StateVariable</text>
	<line stroke="black" stroke-opacity="1" x1="635" y1="721" x2="723" y2="721" />
	<line stroke="black" stroke-opacity="1" x1="635" y1="729" x2="723" y2="729" />
</g>
<g>
	<rect fill="#808080" stroke="none" stroke-opacity="1" x="636" y="322" width="3" height="33" />
	<rect fill="#808080" stroke="none" stroke-opacity="1" x="572" y="352" width="67" height="3" />
	<rect fill="#ffffc0" stroke="black" stroke-width="1" stroke-opacity="1" x="568" y="318" width="68" height="34" />
	<text font-family="Helvetica" font-size="12" fill="#000000" xml:space="preserve" font-weight="bold" text-anchor="middle" x="602" y="332">EntityPool</text>
	<line stroke="black" stroke-opacity="1" x1="568" y1="336" x2="636" y2="336" />
	<line stroke="black" stroke-opacity="1" x1="568" y1="344" x2="636" y2="344" />
</g>
<g>
	<rect fill="#808080" stroke="none" stroke-opacity="1" x="1106" y="393" width="3" height="43" />
	<rect fill="#808080" stroke="none" stroke-opacity="1" x="1054" y="433" width="55" height="3" />
	<rect fill="#ffffc0" stroke="black" stroke-width="1" stroke-opacity="1" x="1050" y="389" width="56" height="44" />
	<text font-family="Helvetica" font-size="12" fill="#000000" xml:space="preserve" font-weight="bold" text-anchor="middle" x="1078" y="403">Process</text>
	<line stroke="black" stroke-opacity="1" x1="1050" y1="407" x2="1106" y2="407" />
	<text font-family="Helvetica" font-size="12" fill="#000000" xml:space="preserve" x="1054" y="421">type</text>
	<line stroke="black" stroke-opacity="1" x1="1050" y1="425" x2="1106" y2="425" />
</g>
<g>
	<rect fill="#808080" stroke="none" stroke-opacity="1" x="738" y="560" width="3" height="33" />
	<rect fill="#808080" stroke="none" stroke-opacity="1" x="626" y="590" width="115" height="3" />
	<rect fill="#ffffc0" stroke="black" stroke-width="1" stroke-opacity="1" x="622" y="556" width="116" height="34" />
	<text font-family="Helvetica" font-size="12" fill="#000000" xml:space="preserve" font-weight="bold" text-anchor="middle" x="680" y="570">StatefulEntityPool</text>
	<line stroke="black" stroke-opacity="1" x1="622" y1="574" x2="738" y2="574" />
	<line stroke="black" stroke-opacity="1" x1="622" y1="582" x2="738" y2="582" />
</g>
<g>
	<rect fill="#808080" stroke="none" stroke-opacity="1" x="1105" y="247" width="3" height="43" />
	<rect fill="#808080" stroke="none" stroke-opacity="1" x="1045" y="287" width="63" height="3" />
	<rect fill="#ffffc0" stroke="black" stroke-width="1" stroke-opacity="1" x="1041" y="243" width="64" height="44" />
	<text font-family="Helvetica" font-size="12" fill="#000000" xml:space="preserve" font-weight="bold" font-style="italic" text-anchor="middle" x="1073" y="257">Controller</text>
	<line stroke="black" stroke-opacity="1" x1="1041" y1="261" x2="1105" y2="261" />
	<text font-family="Helvetica" font-size="12" fill="#000000" xml:space="preserve" x="1045" y="275">type</text>
	<line stroke="black" stroke-opacity="1" x1="1041" y1="279" x2="1105" y2="279" />
</g>
<g>
	<rect fill="#808080" stroke="none" stroke-opacity="1" x="1298" y="253" width="3" height="33" />
	<rect fill="#808080" stroke="none" stroke-opacity="1" x="1226" y="283" width="75" height="3" />
	<rect fill="#ffffc0" stroke="black" stroke-width="1" stroke-opacity="1" x="1222" y="249" width="76" height="34" />
	<text font-family="Helvetica" font-size="12" fill="#000000" xml:space="preserve" font-weight="bold" font-style="italic" text-anchor="middle" x="1260" y="263">Controllable</text>
	<line stroke="black" stroke-opacity="1" x1="1222" y1="267" x2="1298" y2="267" />
	<line stroke="black" stroke-opacity="1" x1="1222" y1="275" x2="1298" y2="275" />
</g>
<g>
	<rect fill="#808080" stroke="none" stroke-opacity="1" x="832" y="376" width="3" height="33" />
	<rect fill="#808080" stroke="none" stroke-opacity="1" x="768" y="406" width="67" height="3" />
	<rect fill="#ffffc0" stroke="black" stroke-width="1" stroke-opacity="1" x="764" y="372" width="68" height="34" />
	<text font-family="Helvetica" font-size="12" fill="#000000" xml:space="preserve" font-weight="bold" font-style="italic" text-anchor="middle" x="798" y="386">Producible</text>
	<line stroke="black" stroke-opacity="1" x1="764" y1="390" x2="832" y2="390" />
	<line stroke="black" stroke-opacity="1" x1="764" y1="398" x2="832" y2="398" />
</g>
<g>
	<rect fill="#808080" stroke="none" stroke-opacity="1" x="944" y="561" width="3" height="33" />
	<rect fill="#808080" stroke="none" stroke-opacity="1" x="870" y="591" width="77" height="3" />
	<rect fill="#ffffc0" stroke="black" stroke-width="1" stroke-opacity="1" x="866" y="557" width="78" height="34" />
	<text font-family="Helvetica" font-size="12" fill="#000000" xml:space="preserve" font-weight="bold" font-style="italic" text-anchor="middle" x="905" y="571">Consumable</text>
	<line stroke="black" stroke-opacity="1" x1="866" y1="575" x2="944" y2="575" />
	<line stroke="black" stroke-opacity="1" x1="866" y1="583" x2="944" y2="583" />
</g>
<g>
	<rect fill="#808080" stroke="none" stroke-opacity="1" x="1087" y="620" width="3" height="43" />
	<rect fill="#808080" stroke="none" stroke-opacity="1" x="1011" y="660" width="79" height="3" />
	<rect fill="#ffffc0" stroke="black" stroke-width="1" stroke-opacity="1" x="1007" y="616" width="80" height="44" />
	<text font-family="Helvetica" font-size="12" fill="#000000" xml:space="preserve" font-weight="bold" text-anchor="middle" x="1047" y="630">Input</text>
	<line stroke="black" stroke-opacity="1" x1="1007" y1="634" x2="1087" y2="634" />
	<text font-family="Helvetica" font-size="12" fill="#000000" xml:space="preserve" x="1011" y="648">stoichiometry</text>
	<line stroke="black" stroke-opacity="1" x1="1007" y1="652" x2="1087" y2="652" />
</g>
<g>
	<rect fill="#808080" stroke="none" stroke-opacity="1" x="1188" y="173" width="3" height="43" />
	<rect fill="#808080" stroke="none" stroke-opacity="1" x="1142" y="213" width="49" height="3" />
	<rect fill="#ffffc0" stroke="black" stroke-width="1" stroke-opacity="1" x="1138" y="169" width="50" height="44" />
	<text font-family="Helvetica" font-size="12" fill="#000000" xml:space="preserve" font-weight="bold" text-anchor="middle" x="1163" y="183">Control</text>
	<line stroke="black" stroke-opacity="1" x1="1138" y1="187" x2="1188" y2="187" />
	<text font-family="Helvetica" font-size="12" fill="#000000" xml:space="preserve" x="1142" y="201">type</text>
	<line stroke="black" stroke-opacity="1" x1="1138" y1="205" x2="1188" y2="205" />
</g>
<g>
	<rect fill="#808080" stroke="none" stroke-opacity="1" x="1019" y="498" width="3" height="43" />
	<rect fill="#808080" stroke="none" stroke-opacity="1" x="943" y="538" width="79" height="3" />
	<rect fill="#ffffc0" stroke="black" stroke-width="1" stroke-opacity="1" x="939" y="494" width="80" height="44" />
	<text font-family="Helvetica" font-size="12" fill="#000000" xml:space="preserve" font-weight="bold" text-anchor="middle" x="979" y="508">Output</text>
	<line stroke="black" stroke-opacity="1" x1="939" y1="512" x2="1019" y2="512" />
	<text font-family="Helvetica" font-size="12" fill="#000000" xml:space="preserve" x="943" y="526">stoichiometry</text>
	<line stroke="black" stroke-opacity="1" x1="939" y1="530" x2="1019" y2="530" />
</g>
<g>
	<rect fill="#808080" stroke="none" stroke-opacity="1" x="276" y="318" width="3" height="43" />
	<rect fill="#808080" stroke="none" stroke-opacity="1" x="140" y="358" width="139" height="3" />
	<rect fill="#ffffc0" stroke="black" stroke-width="1" stroke-opacity="1" x="136" y="314" width="140" height="44" />
	<text font-family="Helvetica" font-size="12" fill="#000000" xml:space="preserve" font-weight="bold" text-anchor="middle" x="206" y="328">SubMapEntityMapping</text>
	<line stroke="black" stroke-opacity="1" x1="136" y1="332" x2="276" y2="332" />
	<text font-family="Helvetica" font-size="12" fill="#000000" xml:space="preserve" x="140" y="346">identifier</text>
	<line stroke="black" stroke-opacity="1" x1="136" y1="350" x2="276" y2="350" />
</g>
<g>
	<rect fill="#808080" stroke="none" stroke-opacity="1" x="340" y="892" width="3" height="43" />
	<rect fill="#808080" stroke="none" stroke-opacity="1" x="182" y="932" width="161" height="3" />
	<rect fill="#ffffc0" stroke="black" stroke-width="1" stroke-opacity="1" x="178" y="888" width="162" height="44" />
	<text font-family="Helvetica" font-size="12" fill="#000000" xml:space="preserve" font-weight="bold" text-anchor="middle" x="259" y="902">MacromoleculeEntityType</text>
	<line stroke="black" stroke-opacity="1" x1="178" y1="906" x2="340" y2="906" />
	<text font-family="Helvetica" font-size="12" fill="#000000" xml:space="preserve" x="182" y="920">macromoleculeType</text>
	<line stroke="black" stroke-opacity="1" x1="178" y1="924" x2="340" y2="924" />
</g>
<g>
	<rect fill="#808080" stroke="none" stroke-opacity="1" x="309" y="533" width="3" height="33" />
	<rect fill="#808080" stroke="none" stroke-opacity="1" x="213" y="563" width="99" height="3" />
	<rect fill="#ffffc0" stroke="black" stroke-width="1" stroke-opacity="1" x="209" y="529" width="100" height="34" />
	<text font-family="Helvetica" font-size="12" fill="#000000" xml:space="preserve" font-weight="bold" text-anchor="middle" x="259" y="543">SimpleChemical</text>
	<line stroke="black" stroke-opacity="1" x1="209" y1="547" x2="309" y2="547" />
	<line stroke="black" stroke-opacity="1" x1="209" y1="555" x2="309" y2="555" />
</g>
<g>
	<text font-family="Helvetica" font-size="12" fill="#000000" xml:space="preserve" x="498" y="462">*</text>
</g>
<g>
	<text font-family="Helvetica" font-size="12" fill="#000000" xml:space="preserve" x="496" y="550">1</text>
</g>
<g>
	<text font-family="Helvetica" font-size="12" fill="#000000" xml:space="preserve" x="759" y="715">value</text>
</g>
<g>
	<text font-family="Helvetica" font-size="12" fill="#000000" xml:space="preserve" x="785" y="740">*</text>
</g>
<g>
	<text font-family="Helvetica" font-size="12" fill="#000000" xml:space="preserve" x="492" y="372">*</text>
</g>
<g>
	<text font-family="Helvetica" font-size="12" fill="#000000" xml:space="preserve" x="465" y="209">1</text>
</g>
<g>
	<text font-family="Helvetica" font-size="12" fill="#000000" xml:space="preserve" x="849" y="690">entityStates</text>
</g>
<g>
	<text font-family="Helvetica" font-size="12" fill="#000000" xml:space="preserve" x="824" y="690">*</text>
</g>
<g>
	<text font-family="Helvetica" font-size="12" fill="#000000" xml:space="preserve" x="217" y="307">submapMappings</text>
</g>
<g>
	<text font-family="Helvetica" font-size="12" fill="#000000" xml:space="preserve" x="192" y="307">*</text>
</g>
<g>
	<text font-family="Helvetica" font-size="12" fill="#000000" xml:space="preserve" x="295" y="242">1</text>
</g>
<g>
	<text font-family="Helvetica" font-size="12" fill="#000000" xml:space="preserve" x="535" y="550">entityType</text>
</g>
<g>
	<text font-family="Helvetica" font-size="12" fill="#000000" xml:space="preserve" x="508" y="550">1</text>
</g>
<g>
	<text font-family="Helvetica" font-size="12" fill="#000000" xml:space="preserve" x="578" y="375">*</text>
</g>
<g>
	<text font-family="Helvetica" font-size="12" fill="#000000" xml:space="preserve" x="248" y="129">referedSubmap</text>
</g>
<g>
	<text font-family="Helvetica" font-size="12" fill="#000000" xml:space="preserve" x="248" y="154">1</text>
</g>
<g>
	<text font-family="Helvetica" font-size="12" fill="#000000" xml:space="preserve" x="350" y="197">1</text>
</g>
<g>
	<text font-family="Helvetica" font-size="12" fill="#000000" xml:space="preserve" x="499" y="135">compartments</text>
</g>
<g>
	<text font-family="Helvetica" font-size="12" fill="#000000" xml:space="preserve" x="474" y="135">*</text>
</g>
<g>
	<text font-family="Helvetica" font-size="12" fill="#000000" xml:space="preserve" x="10" y="332">parentMapMappings</text>
</g>
<g>
	<text font-family="Helvetica" font-size="12" fill="#000000" xml:space="preserve" x="107" y="357">1..*</text>
</g>
<g>
	<text font-family="Helvetica" font-size="12" fill="#000000" xml:space="preserve" x="550" y="227">*</text>
</g>
<g>
	<text font-family="Helvetica" font-size="12" fill="#000000" xml:space="preserve" x="502" y="331">entityPool</text>
</g>
<g>
	<text font-family="Helvetica" font-size="12" fill="#000000" xml:space="preserve" x="550" y="356">1</text>
</g>
<g>
	<text font-family="Helvetica" font-size="12" fill="#000000" xml:space="preserve" x="347" y="47">parentMap</text>
</g>
<g>
	<text font-family="Helvetica" font-size="12" fill="#000000" xml:space="preserve" x="320" y="47">1</text>
</g>
<g>
	<text font-family="Helvetica" font-size="12" fill="#000000" xml:space="preserve" x="196" y="84">*</text>
</g>
<g>
	<text font-family="Helvetica" font-size="12" fill="#000000" xml:space="preserve" x="485" y="640">subUnits</text>
</g>
<g>
	<text font-family="Helvetica" font-size="12" fill="#000000" xml:space="preserve" x="460" y="640">*</text>
</g>
<g>
	<text font-family="Helvetica" font-size="12" fill="#000000" xml:space="preserve" x="619" y="754">*</text>
</g>
<g>
	<text font-family="Helvetica" font-size="12" fill="#000000" xml:space="preserve" x="291" y="167">containingCompartment</text>
</g>
<g>
	<text font-family="Helvetica" font-size="12" fill="#000000" xml:space="preserve" x="414" y="192">1</text>
</g>
<g>
	<rect fill="#808080" stroke="none" stroke-opacity="1" x="520" y="146" width="3" height="43" />
	<rect fill="#808080" stroke="none" stroke-opacity="1" x="436" y="186" width="87" height="3" />
	<rect fill="#ffffc0" stroke="black" stroke-width="1" stroke-opacity="1" x="432" y="142" width="88" height="44" />
	<text font-family="Helvetica" font-size="12" fill="#000000" xml:space="preserve" font-weight="bold" text-anchor="middle" x="476" y="156">Compartment</text>
	<line stroke="black" stroke-opacity="1" x1="432" y1="160" x2="520" y2="160" />
	<text font-family="Helvetica" font-size="12" fill="#000000" xml:space="preserve" x="436" y="174">name</text>
	<line stroke="black" stroke-opacity="1" x1="432" y1="178" x2="520" y2="178" />
</g>
</svg>
