<?xml version="1.0" encoding="UTF-8" standalone="no"?>
<!-- Created with Bouml (http://bouml.free.fr/) -->
<!DOCTYPE svg PUBLIC "-//W3C//DTD SVG 1.1//EN" "http://www.w3.org/Graphics/SVG/1.1/DTD/svg11.dtd">
<svg width="980" height="516" version="1.1" xmlns="http://www.w3.org/2000/svg">
<g>
	<rect fill="#808080" stroke="none" stroke-opacity="1" x="562" y="131" width="3" height="37" />
	<rect fill="#808080" stroke="none" stroke-opacity="1" x="494" y="165" width="71" height="3" />
	<rect fill="#ffffc0" stroke="black" stroke-width="1" stroke-opacity="1" x="490" y="127" width="72" height="38" />
	<text font-family="Helvetica" font-size="14" fill="#000000" xml:space="preserve" font-weight="bold" font-style="italic" text-anchor="middle" x="526" y="143">SBGNArc</text>
	<line stroke="black" stroke-opacity="1" x1="490" y1="146" x2="562" y2="146" />
	<line stroke="black" stroke-opacity="1" x1="490" y1="155" x2="562" y2="155" />
</g>
<g>
	<rect fill="#808080" stroke="none" stroke-opacity="1" x="134" y="344" width="3" height="37" />
	<rect fill="#808080" stroke="none" stroke-opacity="1" x="24" y="378" width="113" height="3" />
	<rect fill="#ffffc0" stroke="black" stroke-width="1" stroke-opacity="1" x="20" y="340" width="114" height="38" />
	<text font-family="Helvetica" font-size="14" fill="#000000" xml:space="preserve" font-weight="bold" text-anchor="middle" x="77" y="356">ProductionArc</text>
	<line stroke="black" stroke-opacity="1" x1="20" y1="359" x2="134" y2="359" />
	<line stroke="black" stroke-opacity="1" x1="20" y1="368" x2="134" y2="368" />
</g>
<g>
	<rect fill="#808080" stroke="none" stroke-opacity="1" x="574" y="35" width="3" height="37" />
	<rect fill="#808080" stroke="none" stroke-opacity="1" x="488" y="69" width="89" height="3" />
	<rect fill="#ffffc0" stroke="black" stroke-width="1" stroke-opacity="1" x="484" y="31" width="90" height="38" />
	<text font-family="Helvetica" font-size="14" fill="#000000" xml:space="preserve" font-weight="bold" font-style="italic" text-anchor="middle" x="529" y="47">SBGNGlyph</text>
	<line stroke="black" stroke-opacity="1" x1="484" y1="50" x2="574" y2="50" />
	<line stroke="black" stroke-opacity="1" x1="484" y1="59" x2="574" y2="59" />
</g>
<g>
	<rect fill="#808080" stroke="none" stroke-opacity="1" x="964" y="232" width="3" height="37" />
	<rect fill="#808080" stroke="none" stroke-opacity="1" x="894" y="266" width="73" height="3" />
	<rect fill="#ffffc0" stroke="black" stroke-width="1" stroke-opacity="1" x="890" y="228" width="74" height="38" />
	<text font-family="Helvetica" font-size="14" fill="#000000" xml:space="preserve" font-weight="bold" text-anchor="middle" x="927" y="244">LogicArc</text>
	<line stroke="black" stroke-opacity="1" x1="890" y1="247" x2="964" y2="247" />
	<line stroke="black" stroke-opacity="1" x1="890" y1="256" x2="964" y2="256" />
</g>
<g>
	<rect fill="#808080" stroke="none" stroke-opacity="1" x="765" y="227" width="3" height="37" />
	<rect fill="#808080" stroke="none" stroke-opacity="1" x="647" y="261" width="121" height="3" />
	<rect fill="#ffffc0" stroke="black" stroke-width="1" stroke-opacity="1" x="643" y="223" width="122" height="38" />
	<text font-family="Helvetica" font-size="14" fill="#000000" xml:space="preserve" font-weight="bold" text-anchor="middle" x="704" y="239">EquivalenceArc</text>
	<line stroke="black" stroke-opacity="1" x1="643" y1="242" x2="765" y2="242" />
	<line stroke="black" stroke-opacity="1" x1="643" y1="251" x2="765" y2="251" />
</g>
<g>
	<rect fill="#808080" stroke="none" stroke-opacity="1" x="583" y="229" width="3" height="37" />
	<rect fill="#808080" stroke="none" stroke-opacity="1" x="473" y="263" width="113" height="3" />
	<rect fill="#ffffc0" stroke="black" stroke-width="1" stroke-opacity="1" x="469" y="225" width="114" height="38" />
	<text font-family="Helvetica" font-size="14" fill="#000000" xml:space="preserve" font-weight="bold" text-anchor="middle" x="526" y="241">ModulationArc</text>
	<line stroke="black" stroke-opacity="1" x1="469" y1="244" x2="583" y2="244" />
	<line stroke="black" stroke-opacity="1" x1="469" y1="253" x2="583" y2="253" />
</g>
<g>
	<line stroke="black" stroke-opacity="1" x1="415" y1="339" x2="494" y2="270" />
	<line stroke="black" stroke-opacity="1" x1="499" y1="267" x2="490" y2="266" />
	<line stroke="black" stroke-opacity="1" x1="499" y1="267" x2="498" y2="275" />
	<line stroke="black" stroke-opacity="1" x1="490" y1="266" x2="498" y2="275" />
</g>
<g>
	<line stroke="black" stroke-opacity="1" x1="889" y1="238" x2="571" y2="157" />
	<line stroke="black" stroke-opacity="1" x1="566" y1="156" x2="570" y2="163" />
	<line stroke="black" stroke-opacity="1" x1="566" y1="156" x2="573" y2="151" />
	<line stroke="black" stroke-opacity="1" x1="570" y1="163" x2="573" y2="151" />
</g>
<g>
	<line stroke="black" stroke-opacity="1" x1="526" y1="339" x2="526" y2="272" />
	<line stroke="black" stroke-opacity="1" x1="527" y1="267" x2="520" y2="272" />
	<line stroke="black" stroke-opacity="1" x1="527" y1="267" x2="532" y2="273" />
	<line stroke="black" stroke-opacity="1" x1="520" y1="272" x2="532" y2="273" />
</g>
<g>
	<line stroke="black" stroke-opacity="1" x1="665" y1="222" x2="571" y2="170" />
	<line stroke="black" stroke-opacity="1" x1="566" y1="168" x2="568" y2="176" />
	<line stroke="black" stroke-opacity="1" x1="566" y1="168" x2="574" y2="165" />
	<line stroke="black" stroke-opacity="1" x1="568" y1="176" x2="574" y2="165" />
</g>
<g>
	<line stroke="black" stroke-opacity="1" x1="528" y1="224" x2="528" y2="175" />
	<line stroke="black" stroke-opacity="1" x1="528" y1="169" x2="522" y2="175" />
	<line stroke="black" stroke-opacity="1" x1="528" y1="169" x2="534" y2="175" />
	<line stroke="black" stroke-opacity="1" x1="522" y1="175" x2="534" y2="175" />
</g>
<g>
	<line stroke="black" stroke-opacity="1" x1="94" y1="339" x2="143" y2="274" />
	<line stroke="black" stroke-opacity="1" x1="147" y1="270" x2="138" y2="271" />
	<line stroke="black" stroke-opacity="1" x1="147" y1="270" x2="148" y2="278" />
	<line stroke="black" stroke-opacity="1" x1="138" y1="271" x2="148" y2="278" />
</g>
<g>
	<line stroke="black" stroke-opacity="1" x1="528" y1="126" x2="528" y2="78" />
	<line stroke="black" stroke-opacity="1" x1="529" y1="73" x2="522" y2="78" />
	<line stroke="black" stroke-opacity="1" x1="529" y1="73" x2="534" y2="79" />
	<line stroke="black" stroke-opacity="1" x1="522" y1="78" x2="534" y2="79" />
</g>
<g>
	<rect fill="#808080" stroke="none" stroke-opacity="1" x="318" y="344" width="3" height="37" />
	<rect fill="#808080" stroke="none" stroke-opacity="1" x="192" y="378" width="129" height="3" />
	<rect fill="#ffffc0" stroke="black" stroke-width="1" stroke-opacity="1" x="188" y="340" width="130" height="38" />
	<text font-family="Helvetica" font-size="14" fill="#000000" xml:space="preserve" font-weight="bold" text-anchor="middle" x="253" y="356">ConsumptionArc</text>
	<line stroke="black" stroke-opacity="1" x1="188" y1="359" x2="318" y2="359" />
	<line stroke="black" stroke-opacity="1" x1="188" y1="368" x2="318" y2="368" />
</g>
<g>
	<line stroke="black" stroke-opacity="1" x1="239" y1="339" x2="193" y2="274" />
	<line stroke="black" stroke-opacity="1" x1="190" y1="270" x2="188" y2="278" />
	<line stroke="black" stroke-opacity="1" x1="190" y1="270" x2="198" y2="271" />
	<line stroke="black" stroke-opacity="1" x1="188" y1="278" x2="198" y2="271" />
</g>
<g>
	<rect fill="#808080" stroke="none" stroke-opacity="1" x="581" y="344" width="3" height="37" />
	<rect fill="#808080" stroke="none" stroke-opacity="1" x="471" y="378" width="113" height="3" />
	<rect fill="#ffffc0" stroke="black" stroke-width="1" stroke-opacity="1" x="467" y="340" width="114" height="38" />
	<text font-family="Helvetica" font-size="14" fill="#000000" xml:space="preserve" font-weight="bold" text-anchor="middle" x="524" y="356">StimulationArc</text>
	<line stroke="black" stroke-opacity="1" x1="467" y1="359" x2="581" y2="359" />
	<line stroke="black" stroke-opacity="1" x1="467" y1="368" x2="581" y2="368" />
</g>
<g>
	<line stroke="black" stroke-opacity="1" x1="524" y1="461" x2="524" y2="387" />
	<line stroke="black" stroke-opacity="1" x1="525" y1="382" x2="518" y2="387" />
	<line stroke="black" stroke-opacity="1" x1="525" y1="382" x2="530" y2="388" />
	<line stroke="black" stroke-opacity="1" x1="518" y1="387" x2="530" y2="388" />
</g>
<g>
	<rect fill="#808080" stroke="none" stroke-opacity="1" x="215" y="222" width="3" height="47" />
	<rect fill="#808080" stroke="none" stroke-opacity="1" x="127" y="266" width="91" height="3" />
	<rect fill="#ffffc0" stroke="black" stroke-width="1" stroke-opacity="1" x="123" y="218" width="92" height="48" />
	<text font-family="Helvetica" font-size="14" fill="#000000" xml:space="preserve" font-weight="bold" font-style="italic" text-anchor="middle" x="169" y="234">FluxArc</text>
	<line stroke="black" stroke-opacity="1" x1="123" y1="237" x2="215" y2="237" />
	<text font-family="Helvetica" font-size="14" fill="#000000" xml:space="preserve" x="127" y="253">stoichiometry</text>
	<line stroke="black" stroke-opacity="1" x1="123" y1="256" x2="215" y2="256" />
</g>
<g>
	<line stroke="black" stroke-opacity="1" x1="219" y1="230" x2="483" y2="158" />
	<line stroke="black" stroke-opacity="1" x1="489" y1="157" x2="481" y2="152" />
	<line stroke="black" stroke-opacity="1" x1="489" y1="157" x2="484" y2="164" />
	<line stroke="black" stroke-opacity="1" x1="481" y1="152" x2="484" y2="164" />
</g>
<g>
	<rect fill="#808080" stroke="none" stroke-opacity="1" x="573" y="466" width="3" height="37" />
	<rect fill="#808080" stroke="none" stroke-opacity="1" x="475" y="500" width="101" height="3" />
	<rect fill="#ffffc0" stroke="black" stroke-width="1" stroke-opacity="1" x="471" y="462" width="102" height="38" />
	<text font-family="Helvetica" font-size="14" fill="#000000" xml:space="preserve" font-weight="bold" text-anchor="middle" x="522" y="478">CatalysisArc</text>
	<line stroke="black" stroke-opacity="1" x1="471" y1="481" x2="573" y2="481" />
	<line stroke="black" stroke-opacity="1" x1="471" y1="490" x2="573" y2="490" />
</g>
<g>
	<rect fill="#808080" stroke="none" stroke-opacity="1" x="441" y="344" width="3" height="37" />
	<rect fill="#808080" stroke="none" stroke-opacity="1" x="345" y="378" width="99" height="3" />
	<rect fill="#ffffc0" stroke="black" stroke-width="1" stroke-opacity="1" x="341" y="340" width="100" height="38" />
	<text font-family="Helvetica" font-size="14" fill="#000000" xml:space="preserve" font-weight="bold" text-anchor="middle" x="391" y="356">InhibitionArc</text>
	<line stroke="black" stroke-opacity="1" x1="341" y1="359" x2="441" y2="359" />
	<line stroke="black" stroke-opacity="1" x1="341" y1="368" x2="441" y2="368" />
</g>
<g>
	<rect fill="#808080" stroke="none" stroke-opacity="1" x="812" y="347" width="3" height="37" />
	<rect fill="#808080" stroke="none" stroke-opacity="1" x="624" y="381" width="191" height="3" />
	<rect fill="#ffffc0" stroke="black" stroke-width="1" stroke-opacity="1" x="620" y="343" width="192" height="38" />
	<text font-family="Helvetica" font-size="14" fill="#000000" xml:space="preserve" font-weight="bold" text-anchor="middle" x="716" y="359">NecessaryStimulationArc</text>
	<line stroke="black" stroke-opacity="1" x1="620" y1="362" x2="812" y2="362" />
	<line stroke="black" stroke-opacity="1" x1="620" y1="371" x2="812" y2="371" />
</g>
<g>
	<line stroke="black" stroke-opacity="1" x1="684" y1="342" x2="568" y2="270" />
	<line stroke="black" stroke-opacity="1" x1="563" y1="267" x2="564" y2="275" />
	<line stroke="black" stroke-opacity="1" x1="563" y1="267" x2="571" y2="265" />
	<line stroke="black" stroke-opacity="1" x1="564" y1="275" x2="571" y2="265" />
</g>
</svg>
