<?xml version="1.0" encoding="UTF-8" standalone="no"?>
<!-- Generator: Adobe Illustrator 12.0.1, SVG Export Plug-In . SVG Version: 6.00 Build 51448)  -->
<svg
   xmlns:dc="http://purl.org/dc/elements/1.1/"
   xmlns:cc="http://creativecommons.org/ns#"
   xmlns:rdf="http://www.w3.org/1999/02/22-rdf-syntax-ns#"
   xmlns:svg="http://www.w3.org/2000/svg"
   xmlns="http://www.w3.org/2000/svg"
   xmlns:sodipodi="http://sodipodi.sourceforge.net/DTD/sodipodi-0.dtd"
   xmlns:inkscape="http://www.inkscape.org/namespaces/inkscape"
   version="1.0"
   id="Layer_1"
   width="430"
   height="420"
   viewBox="0 0 429.109 417.841"
   overflow="visible"
   enable-background="new 0 0 429.109 417.841"
   xml:space="preserve"
   sodipodi:version="0.32"
   inkscape:version="0.46"
   sodipodi:docname="MAPK-only.svg"
   inkscape:output_extension="org.inkscape.output.svg.inkscape"
   sodipodi:docbase="D:\workspace-doc\SBGN_trunk\documents\specifications\ProcessDiagram\Level1\examples"
   inkscape:export-filename="D:\workspace-doc\SBGN_trunk\documents\specifications\ProcessDiagram\Level1\examples\MAPK-only.png"
   inkscape:export-xdpi="150"
   inkscape:export-ydpi="150"
   style="overflow:visible"><metadata
   id="metadata414"><rdf:RDF><cc:Work
       rdf:about=""><dc:format>image/svg+xml</dc:format><dc:type
         rdf:resource="http://purl.org/dc/dcmitype/StillImage" /></cc:Work></rdf:RDF></metadata><defs
   id="defs412"><inkscape:perspective
     sodipodi:type="inkscape:persp3d"
     inkscape:vp_x="0 : 208.9205 : 1"
     inkscape:vp_y="0 : 1000 : 0"
     inkscape:vp_z="429.10901 : 208.9205 : 1"
     inkscape:persp3d-origin="214.5545 : 139.28033 : 1"
     id="perspective197" /></defs><sodipodi:namedview
   inkscape:window-height="746"
   inkscape:window-width="1360"
   inkscape:pageshadow="2"
   inkscape:pageopacity="0.0"
   guidetolerance="10.0"
   gridtolerance="10.0"
   objecttolerance="10.0"
   borderopacity="1.0"
   bordercolor="#666666"
   pagecolor="#ffffff"
   id="base"
   inkscape:zoom="1.3569755"
   inkscape:cx="214.55451"
   inkscape:cy="305.51239"
   inkscape:window-x="0"
   inkscape:window-y="0"
   inkscape:current-layer="Layer_1"
   showgrid="false" />
<path
   stroke-miterlimit="10"
   d="M 305.04901,78.053 L 305.04901,155.696 M 119.18401,154.627 L 119.18401,180.023 M 305.80201,155.336 L 118.86901,155.336 M 397.34101,209.271 L 397.34101,298.914 M 397.71201,298.638 L 118.70401,298.638 M 119.54501,299.227 L 119.54501,324.623 M 301.94501,298.198 L 301.94501,325.651"
   id="path3"
   style="fill:none;stroke:#000000;stroke-width:1.60000002;stroke-miterlimit:10" />
<polygon
   clip-rule="evenodd"
   points="250.82,94.202 243.801,87.693 251.275,84.627 250.82,94.202 "
   id="polygon5"
   style="fill-rule:evenodd"
   transform="translate(5.5536396e-6,1.3841884e-8)" />
<polygon
   stroke-miterlimit="10"
   points="251.126,94.727 244.108,88.219 251.582,85.153 251.126,94.727 "
   id="polygon7"
   style="fill:none;stroke:#000000;stroke-width:1.60000002;stroke-miterlimit:10"
   transform="translate(5.5536396e-6,1.3841884e-8)" />
<path
   stroke-miterlimit="10"
   d="M 190.71001,62.892 L 170.26001,98.084 M 233.16401,62.892 L 252.24501,96.574"
   id="path9"
   style="fill:none;stroke:#000000;stroke-width:1.60000002;stroke-miterlimit:10" />
<line
   stroke-miterlimit="10"
   x1="157.123"
   y1="62.915001"
   x2="264.95703"
   y2="62.915001"
   id="line11"
   style="fill:none;stroke:#000000;stroke-width:1.60000002;stroke-miterlimit:10" />
<path
   d="M 184.57401,114.841 C 184.57401,126.443 175.15701,135.86 163.55501,135.86 C 151.95301,135.86 142.53601,126.443 142.53601,114.841 C 142.53601,103.238 151.95301,93.822 163.55501,93.822 C 175.15801,93.822 184.57401,103.239 184.57401,114.841 L 184.57401,114.841 z"
   id="path13"
   style="fill:#ffffff" />
<path
   stroke-miterlimit="10"
   d="M 184.57401,114.841 C 184.57401,126.443 175.15701,135.86 163.55501,135.86 C 151.95301,135.86 142.53601,126.443 142.53601,114.841 C 142.53601,103.238 151.95301,93.822 163.55501,93.822 C 175.15801,93.822 184.57401,103.239 184.57401,114.841 L 184.57401,114.841 z"
   id="path15"
   style="fill:none;stroke:#000000;stroke-width:1.60000002;stroke-linecap:round;stroke-miterlimit:10" />
<path
   d="M 280.57501,114.841 C 280.57501,126.443 271.15801,135.86 259.55501,135.86 C 247.95301,135.86 238.53601,126.443 238.53601,114.841 C 238.53601,103.238 247.95301,93.822 259.55501,93.822 C 271.15801,93.822 280.57501,103.239 280.57501,114.841 L 280.57501,114.841 z"
   id="path17"
   style="fill:#ffffff" />
<path
   stroke-miterlimit="10"
   d="M 280.57501,114.841 C 280.57501,126.443 271.15801,135.86 259.55501,135.86 C 247.95301,135.86 238.53601,126.443 238.53601,114.841 C 238.53601,103.238 247.95301,93.822 259.55501,93.822 C 271.15801,93.822 280.57501,103.239 280.57501,114.841 L 280.57501,114.841 z"
   id="path19"
   style="fill:none;stroke:#000000;stroke-width:1.60000002;stroke-linecap:round;stroke-miterlimit:10" />
<path
   d="M 252.81501,111.692 L 251.53101,115.175 L 254.10401,115.175 L 252.81501,111.692 M 252.28101,110.759 L 253.35401,110.759 L 256.02101,117.758 L 255.03701,117.758 L 254.40001,115.963 L 251.24501,115.963 L 250.60701,117.758 L 249.60801,117.758 L 252.28101,110.759"
   id="path21" />
<path
   d="M 257.98501,111.537 L 257.98501,116.979 L 259.12901,116.979 C 260.09501,116.979 260.80101,116.76 261.24801,116.323 C 261.69801,115.885 261.92301,115.195 261.92301,114.251 C 261.92301,113.313 261.69801,112.628 261.24801,112.193 C 260.80101,111.755 260.09501,111.537 259.12901,111.537 L 257.98501,111.537 M 257.03901,110.759 L 258.98401,110.759 C 260.34001,110.759 261.33601,111.042 261.97001,111.608 C 262.60401,112.17 262.92201,113.052 262.92201,114.252 C 262.92201,115.459 262.60301,116.344 261.96501,116.91 C 261.32801,117.475 260.33401,117.758 258.98401,117.758 L 257.03901,117.758 L 257.03901,110.759"
   id="path23" />
<path
   d="M 265.37301,111.537 L 265.37301,114.167 L 266.56401,114.167 C 267.00401,114.167 267.34501,114.053 267.58601,113.825 C 267.82601,113.597 267.94701,113.272 267.94701,112.85 C 267.94701,112.431 267.82601,112.108 267.58601,111.88 C 267.34501,111.652 267.00401,111.538 266.56401,111.538 L 265.37301,111.538 M 264.42601,110.759 L 266.56401,110.759 C 267.34801,110.759 267.94001,110.937 268.34001,111.294 C 268.74301,111.647 268.94501,112.166 268.94501,112.85 C 268.94501,113.54 268.74301,114.062 268.34001,114.415 C 267.94001,114.769 267.34801,114.945 266.56401,114.945 L 265.37301,114.945 L 265.37301,117.757 L 264.42601,117.757 L 264.42601,110.759"
   id="path25" />
<path
   d="M 102.76701,47.895 L 145.74301,47.895 C 150.82101,47.895 154.91001,51.665 154.91001,56.347 L 154.91001,69.519 C 154.91001,74.201 150.82201,77.97 145.74301,77.97 L 102.76701,77.97 C 97.688005,77.97 93.600005,74.201 93.600005,69.519 L 93.600005,56.346 C 93.600005,51.664 97.688005,47.895 102.76701,47.895 L 102.76701,47.895 z"
   id="path27"
   style="fill:#ffffff" />
<path
   stroke-miterlimit="10"
   d="M 102.76701,47.895 L 145.74301,47.895 C 150.82101,47.895 154.91001,51.665 154.91001,56.347 L 154.91001,69.519 C 154.91001,74.201 150.82201,77.97 145.74301,77.97 L 102.76701,77.97 C 97.688005,77.97 93.600005,74.201 93.600005,69.519 L 93.600005,56.346 C 93.600005,51.664 97.688005,47.895 102.76701,47.895 L 102.76701,47.895 z M 154.53501,62.915 L 264.36901,62.915"
   id="path29"
   style="fill:none;stroke:#000000;stroke-width:1.60000002;stroke-miterlimit:10" />
<polygon
   clip-rule="evenodd"
   points="272.843,63.008 264.158,67.032 264.158,58.953 272.843,63.008 "
   id="polygon31"
   style="fill-rule:evenodd"
   transform="translate(5.5536396e-6,1.3841884e-8)" />
<polygon
   stroke-miterlimit="10"
   points="272.843,63.008 264.158,67.032 264.158,58.953 272.843,63.008 "
   id="polygon33"
   style="fill:none;stroke:#000000;stroke-width:1.60000002;stroke-miterlimit:10"
   transform="translate(5.5536396e-6,1.3841884e-8)" />
<polygon
   points="207.537,58.365 216.865,58.365 216.865,67.41 207.537,67.41 207.537,58.365 "
   id="polygon35"
   style="fill:#ffffff"
   transform="translate(5.5536396e-6,1.3841884e-8)" />
<polygon
   stroke-miterlimit="10"
   points="207.537,58.365 216.865,58.365 216.865,67.41 207.537,67.41 207.537,58.365 "
   id="polygon37"
   style="fill:none;stroke:#000000;stroke-width:1.60000002;stroke-linecap:round;stroke-miterlimit:10"
   transform="translate(5.5536396e-6,1.3841884e-8)" />
<line
   stroke-miterlimit="10"
   x1="212.24899"
   y1="6.4400001"
   x2="212.24899"
   y2="46.651001"
   id="line39"
   style="fill:none;stroke:#000000;stroke-width:1.60000002;stroke-miterlimit:10" />
<path
   clip-rule="evenodd"
   d="M 217.00701,50.801 C 217.00701,53.49 214.82401,55.674 212.13401,55.674 C 209.44401,55.674 207.26201,53.491 207.26201,50.801 C 207.26201,48.111 209.44501,45.928 212.13401,45.928 C 214.82301,45.928 217.00701,48.111 217.00701,50.801 L 217.00701,50.801 z"
   id="path41"
   style="fill:#ffffff;fill-rule:evenodd" />
<path
   stroke-miterlimit="10"
   d="M 217.00701,50.801 C 217.00701,53.49 214.82401,55.674 212.13401,55.674 C 209.44401,55.674 207.26201,53.491 207.26201,50.801 C 207.26201,48.111 209.44501,45.928 212.13401,45.928 C 214.82301,45.928 217.00701,48.111 217.00701,50.801 L 217.00701,50.801 z"
   id="path43"
   style="fill:none;stroke:#000000;stroke-width:1.60000002;stroke-miterlimit:10" />
<path
   d="M 119.14101,63.466 C 119.34401,63.535 119.54101,63.681 119.73101,63.906 C 119.92501,64.131 120.11901,64.441 120.31301,64.834 L 121.27401,66.747 L 120.25701,66.747 L 119.36101,64.952 C 119.13001,64.483 118.90501,64.172 118.68601,64.019 C 118.47001,63.866 118.17501,63.789 117.80001,63.789 L 116.76901,63.789 L 116.76901,66.747 L 115.82201,66.747 L 115.82201,59.748 L 117.96001,59.748 C 118.76001,59.748 119.35601,59.915 119.75101,60.249 C 120.14501,60.583 120.34101,61.088 120.34101,61.763 C 120.34101,62.203 120.23801,62.569 120.03201,62.86 C 119.82801,63.152 119.53101,63.354 119.14101,63.466 M 116.76901,60.527 L 116.76901,63.011 L 117.96001,63.011 C 118.41601,63.011 118.76001,62.906 118.99101,62.697 C 119.22501,62.485 119.34301,62.174 119.34301,61.764 C 119.34301,61.354 119.22601,61.047 118.99101,60.841 C 118.76001,60.632 118.41601,60.527 117.96001,60.527 L 116.76901,60.527"
   id="path45" />
<path
   d="M 124.44201,60.682 L 123.15801,64.165 L 125.73101,64.165 L 124.44201,60.682 M 123.90801,59.749 L 124.98101,59.749 L 127.64801,66.748 L 126.66401,66.748 L 126.02601,64.953 L 122.87101,64.953 L 122.23401,66.748 L 121.23501,66.748 L 123.90801,59.749"
   id="path47" />
<polyline
   points="128.666,59.749 132.688,59.749 132.688,60.546 129.612,60.546 129.612,62.608 132.387,62.608 132.387,63.405   129.612,63.405 129.612,66.748 128.666,66.748 128.666,59.749 "
   id="polyline49"
   transform="translate(5.5536396e-6,1.3841884e-8)" />
<path
   d="M 183.83001,120.872 C 181.29401,129.631 173.20901,136.041 163.63701,136.041 C 154.06401,136.041 145.97901,129.631 143.44401,120.872"
   id="path51" />
<path
   stroke-miterlimit="10"
   d="M 183.83001,120.872 C 181.29401,129.631 173.20901,136.041 163.63701,136.041 C 154.06401,136.041 145.97901,129.631 143.44401,120.872"
   id="path53"
   style="fill:none;stroke:#000000;stroke-width:1.60000002;stroke-linecap:round;stroke-miterlimit:10" />
<path
   d="M 279.83001,120.872 C 277.29401,129.631 269.20901,136.041 259.63601,136.041 C 250.06401,136.041 241.97901,129.631 239.44301,120.872"
   id="path55" />
<path
   stroke-miterlimit="10"
   d="M 279.83001,120.872 C 277.29401,129.631 269.20901,136.041 259.63601,136.041 C 250.06401,136.041 241.97901,129.631 239.44301,120.872"
   id="path57"
   style="fill:none;stroke:#000000;stroke-width:1.60000002;stroke-linecap:round;stroke-miterlimit:10" />
<path
   d="M 190.48501,0.80000001 L 233.46101,0.80000001 C 238.54001,0.80000001 242.62801,4.569 242.62801,9.251 L 242.62801,22.423 C 242.62801,27.105 238.54001,30.874 233.46101,30.874 L 190.48501,30.874 C 185.40701,30.874 181.31801,27.105 181.31801,22.423 L 181.31801,9.251 C 181.31801,4.569 185.40701,0.80000001 190.48501,0.80000001 L 190.48501,0.80000001 z"
   id="path59"
   style="fill:#ffffff" />
<path
   stroke-miterlimit="10"
   d="M 190.48501,0.80000001 L 233.46101,0.80000001 C 238.54001,0.80000001 242.62801,4.569 242.62801,9.251 L 242.62801,22.423 C 242.62801,27.105 238.54001,30.874 233.46101,30.874 L 190.48501,30.874 C 185.40701,30.874 181.31801,27.105 181.31801,22.423 L 181.31801,9.251 C 181.31801,4.569 185.40701,0.80000001 190.48501,0.80000001 L 190.48501,0.80000001 z"
   id="path61"
   style="fill:none;stroke:#000000;stroke-width:1.60000002;stroke-miterlimit:10" />
<path
   d="M 206.39901,16.371 C 206.60201,16.44 206.79901,16.587 206.98901,16.811 C 207.18301,17.036 207.37701,17.346 207.57101,17.739 L 208.53201,19.652 L 207.51501,19.652 L 206.61901,17.857 C 206.38801,17.388 206.16301,17.077 205.94401,16.924 C 205.72801,16.771 205.43301,16.694 205.05801,16.694 L 204.02701,16.694 L 204.02701,19.652 L 203.08001,19.652 L 203.08001,12.653 L 205.21801,12.653 C 206.01801,12.653 206.61401,12.82 207.00901,13.154 C 207.40301,13.488 207.59901,13.993 207.59901,14.668 C 207.59901,15.109 207.49601,15.474 207.29001,15.765 C 207.08701,16.057 206.79001,16.259 206.39901,16.371 M 204.02701,13.432 L 204.02701,15.916 L 205.21801,15.916 C 205.67401,15.916 206.01801,15.811 206.24901,15.602 C 206.48301,15.389 206.60101,15.079 206.60101,14.669 C 206.60101,14.26 206.48401,13.952 206.24901,13.746 C 206.01801,13.537 205.67401,13.432 205.21801,13.432 L 204.02701,13.432"
   id="path63" />
<path
   d="M 211.70101,13.587 L 210.41701,17.069 L 212.99001,17.069 L 211.70101,13.587 M 211.16701,12.654 L 212.24001,12.654 L 214.90701,19.653 L 213.92301,19.653 L 213.28501,17.858 L 210.13001,17.858 L 209.49301,19.653 L 208.49401,19.653 L 211.16701,12.654"
   id="path65" />
<path
   d="M 220.12001,12.884 L 220.12001,13.807 C 219.76101,13.635 219.42101,13.507 219.10301,13.423 C 218.78401,13.339 218.47701,13.296 218.17901,13.296 C 217.66301,13.296 217.26501,13.396 216.98401,13.596 C 216.70601,13.796 216.56701,14.08 216.56701,14.449 C 216.56701,14.759 216.65901,14.993 216.84301,15.152 C 217.03101,15.308 217.38401,15.435 217.90301,15.532 L 218.47501,15.649 C 219.18201,15.783 219.70201,16.021 220.03601,16.361 C 220.37301,16.698 220.54201,17.152 220.54201,17.72 C 220.54201,18.398 220.31401,18.912 219.85701,19.262 C 219.40401,19.612 218.73801,19.787 217.86001,19.787 C 217.52801,19.787 217.17501,19.75 216.80001,19.675 C 216.42801,19.6 216.04201,19.489 215.64201,19.342 L 215.64201,18.367 C 216.02601,18.582 216.40301,18.745 216.77101,18.854 C 217.14001,18.963 217.50201,19.018 217.85901,19.018 C 218.40001,19.018 218.81701,18.912 219.11001,18.699 C 219.40301,18.486 219.55001,18.183 219.55001,17.79 C 219.55001,17.446 219.44401,17.177 219.23101,16.984 C 219.02201,16.79 218.67701,16.645 218.19501,16.548 L 217.61801,16.435 C 216.91201,16.294 216.40101,16.074 216.08501,15.774 C 215.77001,15.474 215.61101,15.057 215.61101,14.523 C 215.61101,13.904 215.82801,13.417 216.26301,13.06 C 216.70101,12.704 217.30201,12.526 218.06801,12.526 C 218.39601,12.526 218.73101,12.556 219.07101,12.615 C 219.41501,12.676 219.76301,12.765 220.12001,12.884"
   id="path67" />
<path
   d="M 157.43901,111.692 L 156.15501,115.175 L 158.72801,115.175 L 157.43901,111.692 M 156.90501,110.759 L 157.97801,110.759 L 160.64501,117.758 L 159.66101,117.758 L 159.02301,115.963 L 155.86801,115.963 L 155.23101,117.758 L 154.23201,117.758 L 156.90501,110.759"
   id="path69" />
<polyline
   points="159.942,110.759 165.862,110.759 165.862,111.556 163.378,111.556 163.378,117.757 162.427,117.757   162.427,111.556 159.942,111.556 159.942,110.759 "
   id="polyline71"
   transform="translate(5.5536396e-6,1.3841884e-8)" />
<path
   d="M 167.72801,111.537 L 167.72801,114.167 L 168.91901,114.167 C 169.35901,114.167 169.70001,114.053 169.94001,113.825 C 170.18101,113.597 170.30101,113.272 170.30101,112.85 C 170.30101,112.431 170.18001,112.108 169.94001,111.88 C 169.70001,111.652 169.35901,111.538 168.91901,111.538 L 167.72801,111.538 M 166.78101,110.759 L 168.91901,110.759 C 169.70301,110.759 170.29501,110.937 170.69501,111.294 C 171.09801,111.647 171.29901,112.166 171.29901,112.85 C 171.29901,113.54 171.09801,114.062 170.69501,114.415 C 170.29501,114.769 169.70301,114.945 168.91901,114.945 L 167.72801,114.945 L 167.72801,117.757 L 166.78101,117.757 L 166.78101,110.759"
   id="path73" />
<path
   d="M 130.52801,77.372 C 130.52801,80.834 127.71701,83.645 124.25501,83.645 C 120.79301,83.645 117.98201,80.834 117.98201,77.372 C 117.98201,73.909 120.79301,71.099 124.25501,71.099 C 127.71701,71.099 130.52801,73.909 130.52801,77.372 L 130.52801,77.372 z"
   id="path75"
   style="fill:#ffffff" />
<path
   stroke-miterlimit="10"
   d="M 130.52801,77.372 C 130.52801,80.834 127.71701,83.645 124.25501,83.645 C 120.79301,83.645 117.98201,80.834 117.98201,77.372 C 117.98201,73.909 120.79301,71.099 124.25501,71.099 C 127.71701,71.099 130.52801,73.909 130.52801,77.372 L 130.52801,77.372 z"
   id="path77"
   style="fill:none;stroke:#000000;stroke-width:1.60000002;stroke-linecap:round;stroke-miterlimit:10" />
<path
   d="M 283.56701,47.895 L 326.54301,47.895 C 331.62101,47.895 335.71001,51.665 335.71001,56.347 L 335.71001,69.519 C 335.71001,74.201 331.62101,77.97 326.54301,77.97 L 283.56701,77.97 C 278.48801,77.97 274.40001,74.201 274.40001,69.519 L 274.40001,56.346 C 274.40001,51.664 278.48801,47.895 283.56701,47.895 L 283.56701,47.895 z"
   id="path79"
   style="fill:#ffffff" />
<path
   stroke-miterlimit="10"
   d="M 283.56701,47.895 L 326.54301,47.895 C 331.62101,47.895 335.71001,51.665 335.71001,56.347 L 335.71001,69.519 C 335.71001,74.201 331.62101,77.97 326.54301,77.97 L 283.56701,77.97 C 278.48801,77.97 274.40001,74.201 274.40001,69.519 L 274.40001,56.346 C 274.40001,51.664 278.48801,47.895 283.56701,47.895 L 283.56701,47.895 z"
   id="path81"
   style="fill:none;stroke:#000000;stroke-width:1.60000002;stroke-miterlimit:10" />
<path
   d="M 299.94101,63.466 C 300.14401,63.535 300.34001,63.681 300.53101,63.906 C 300.72501,64.131 300.91901,64.441 301.11301,64.834 L 302.07401,66.747 L 301.05601,66.747 L 300.16001,64.952 C 299.92901,64.483 299.70401,64.172 299.48501,64.019 C 299.26901,63.866 298.97401,63.789 298.59901,63.789 L 297.56801,63.789 L 297.56801,66.747 L 296.62101,66.747 L 296.62101,59.748 L 298.75901,59.748 C 299.55901,59.748 300.15501,59.915 300.55001,60.249 C 300.94401,60.583 301.14001,61.088 301.14001,61.763 C 301.14001,62.203 301.03701,62.569 300.83101,62.86 C 300.62901,63.152 300.33201,63.354 299.94101,63.466 M 297.56901,60.527 L 297.56901,63.011 L 298.75901,63.011 C 299.21501,63.011 299.55901,62.906 299.79001,62.697 C 300.02401,62.485 300.14201,62.174 300.14201,61.764 C 300.14201,61.354 300.02501,61.047 299.79001,60.841 C 299.55901,60.632 299.21501,60.527 298.75901,60.527 L 297.56901,60.527"
   id="path83" />
<path
   d="M 305.24201,60.682 L 303.95801,64.165 L 306.53101,64.165 L 305.24201,60.682 M 304.70801,59.749 L 305.78101,59.749 L 308.44901,66.748 L 307.46501,66.748 L 306.82701,64.953 L 303.67201,64.953 L 303.03501,66.748 L 302.03601,66.748 L 304.70801,59.749"
   id="path85" />
<polyline
   points="309.466,59.749 313.488,59.749 313.488,60.546 310.413,60.546 310.413,62.608 313.188,62.608 313.188,63.405   310.413,63.405 310.413,66.748 309.466,66.748 309.466,59.749 "
   id="polyline87"
   transform="translate(5.5536396e-6,1.3841884e-8)" />
<path
   d="M 311.32801,77.372 C 311.32801,80.834 308.51701,83.645 305.05501,83.645 C 301.59301,83.645 298.78301,80.834 298.78301,77.372 C 298.78301,73.909 301.59401,71.099 305.05501,71.099 C 308.51801,71.099 311.32801,73.909 311.32801,77.372 L 311.32801,77.372 z"
   id="path89"
   style="fill:#ffffff" />
<path
   stroke-miterlimit="10"
   d="M 311.32801,77.372 C 311.32801,80.834 308.51701,83.645 305.05501,83.645 C 301.59301,83.645 298.78301,80.834 298.78301,77.372 C 298.78301,73.909 301.59401,71.099 305.05501,71.099 C 308.51801,71.099 311.32801,73.909 311.32801,77.372 L 311.32801,77.372 z"
   id="path91"
   style="fill:none;stroke:#000000;stroke-width:1.60000002;stroke-linecap:round;stroke-miterlimit:10" />
<path
   d="M 304.02701,75.235 L 304.02701,77.426 L 305.01901,77.426 C 305.38601,77.426 305.67001,77.331 305.87101,77.141 C 306.07201,76.951 306.17201,76.68 306.17201,76.329 C 306.17201,75.98 306.07201,75.71 305.87101,75.52 C 305.67101,75.33 305.38701,75.235 305.01901,75.235 L 304.02701,75.235 M 303.23801,74.586 L 305.01901,74.586 C 305.67301,74.586 306.16601,74.734 306.49901,75.031 C 306.83501,75.325 307.00301,75.758 307.00301,76.328 C 307.00301,76.904 306.83501,77.338 306.49901,77.633 C 306.16601,77.927 305.67301,78.074 305.01901,78.074 L 304.02701,78.074 L 304.02701,80.418 L 303.23801,80.418 L 303.23801,74.586"
   id="path93" />
<line
   stroke-miterlimit="10"
   x1="62.323006"
   y1="194.314"
   x2="170.321"
   y2="194.314"
   id="line95"
   style="fill:none;stroke:#000000;stroke-width:1.60000002;stroke-miterlimit:10" />
<path
   d="M 91.774005,249.241 C 91.774005,260.844 82.357005,270.26 70.755005,270.26 C 59.153005,270.26 49.736005,260.844 49.736005,249.241 C 49.736005,237.638 59.153005,228.222 70.755005,228.222 C 82.357005,228.222 91.774005,237.639 91.774005,249.241 L 91.774005,249.241 z"
   id="path97"
   style="fill:#ffffff" />
<path
   stroke-miterlimit="10"
   d="M 91.774005,249.241 C 91.774005,260.844 82.357005,270.26 70.755005,270.26 C 59.153005,270.26 49.736005,260.844 49.736005,249.241 C 49.736005,237.638 59.153005,228.222 70.755005,228.222 C 82.357005,228.222 91.774005,237.639 91.774005,249.241 L 91.774005,249.241 z"
   id="path99"
   style="fill:none;stroke:#000000;stroke-width:1.60000002;stroke-linecap:round;stroke-miterlimit:10" />
<path
   d="M 187.77401,249.241 C 187.77401,260.844 178.35701,270.26 166.75501,270.26 C 155.15301,270.26 145.73601,260.844 145.73601,249.241 C 145.73601,237.638 155.15301,228.222 166.75501,228.222 C 178.35701,228.222 187.77401,237.639 187.77401,249.241 L 187.77401,249.241 z"
   id="path101"
   style="fill:#ffffff" />
<path
   stroke-miterlimit="10"
   d="M 187.77401,249.241 C 187.77401,260.844 178.35701,270.26 166.75501,270.26 C 155.15301,270.26 145.73601,260.844 145.73601,249.241 C 145.73601,237.638 155.15301,228.222 166.75501,228.222 C 178.35701,228.222 187.77401,237.639 187.77401,249.241 L 187.77401,249.241 z"
   id="path103"
   style="fill:none;stroke:#000000;stroke-width:1.60000002;stroke-linecap:round;stroke-miterlimit:10" />
<path
   d="M 160.01501,246.092 L 158.73001,249.574 L 161.30401,249.574 L 160.01501,246.092 M 159.48001,245.159 L 160.55401,245.159 L 163.22101,252.157 L 162.23701,252.157 L 161.59901,250.362 L 158.44501,250.362 L 157.80701,252.157 L 156.80801,252.157 L 159.48001,245.159"
   id="path105" />
<path
   d="M 165.18501,245.938 L 165.18501,251.379 L 166.32901,251.379 C 167.29401,251.379 168.00101,251.16 168.44801,250.723 C 168.89801,250.286 169.12301,249.595 169.12301,248.652 C 169.12301,247.714 168.89801,247.029 168.44801,246.594 C 168.00101,246.156 167.29501,245.938 166.32901,245.938 L 165.18501,245.938 M 164.23801,245.159 L 166.18301,245.159 C 167.53901,245.159 168.53501,245.441 169.16901,246.008 C 169.80401,246.57 170.12101,247.451 170.12101,248.652 C 170.12101,249.858 169.80201,250.744 169.16501,251.309 C 168.52701,251.875 167.53401,252.158 166.18401,252.158 L 164.23901,252.158 L 164.23901,245.159"
   id="path107" />
<path
   d="M 172.57301,245.938 L 172.57301,248.567 L 173.76301,248.567 C 174.20401,248.567 174.54401,248.454 174.78501,248.225 C 175.02601,247.996 175.14601,247.672 175.14601,247.25 C 175.14601,246.831 175.02601,246.508 174.78501,246.279 C 174.54401,246.05 174.20401,245.937 173.76301,245.937 L 172.57301,245.937 M 171.62601,245.159 L 173.76301,245.159 C 174.54801,245.159 175.14001,245.337 175.54001,245.693 C 175.94301,246.047 176.14401,246.565 176.14401,247.25 C 176.14401,247.94 175.94201,248.462 175.54001,248.815 C 175.14001,249.168 174.54801,249.344 173.76301,249.344 L 172.57301,249.344 L 172.57301,252.156 L 171.62601,252.156 L 171.62601,245.159"
   id="path109" />
<path
   stroke-miterlimit="10"
   d="M 97.910005,194.291 L 78.504005,228.979 M 139.62901,194.291 L 158.34301,227.605"
   id="path111"
   style="fill:none;stroke:#000000;stroke-width:1.60000002;stroke-miterlimit:10" />
<path
   d="M 9.9660056,179.295 L 52.942005,179.295 C 58.021005,179.295 62.109005,183.064 62.109005,187.746 L 62.109005,200.918 C 62.109005,205.6 58.021005,209.369 52.942005,209.369 L 9.9660056,209.369 C 4.8880056,209.369 0.79900555,205.599 0.79900555,200.918 L 0.79900555,187.746 C 0.80000555,183.064 4.8880056,179.295 9.9660056,179.295 L 9.9660056,179.295 z"
   id="path113"
   style="fill:#ffffff" />
<path
   stroke-miterlimit="10"
   d="M 9.9660056,179.295 L 52.942005,179.295 C 58.021005,179.295 62.109005,183.064 62.109005,187.746 L 62.109005,200.918 C 62.109005,205.6 58.021005,209.369 52.942005,209.369 L 9.9660056,209.369 C 4.8880056,209.369 0.79900555,205.599 0.79900555,200.918 L 0.79900555,187.746 C 0.80000555,183.064 4.8880056,179.295 9.9660056,179.295 L 9.9660056,179.295 z"
   id="path115"
   style="fill:none;stroke:#000000;stroke-width:1.60000002;stroke-miterlimit:10" />
<polygon
   clip-rule="evenodd"
   points="178.208,194.408 169.523,198.432 169.523,190.353 178.208,194.408 "
   id="polygon117"
   style="fill-rule:evenodd"
   transform="translate(5.5536396e-6,1.3841884e-8)" />
<polygon
   stroke-miterlimit="10"
   points="178.208,194.408 169.523,198.432 169.523,190.353 178.208,194.408 "
   id="polygon119"
   style="fill:none;stroke:#000000;stroke-width:1.60000002;stroke-miterlimit:10"
   transform="translate(5.5536396e-6,1.3841884e-8)" />
<polygon
   points="114.737,189.765 124.064,189.765 124.064,198.81 114.737,198.81 114.737,189.765 "
   id="polygon121"
   style="fill:#ffffff"
   transform="translate(5.5536396e-6,1.3841884e-8)" />
<polygon
   stroke-miterlimit="10"
   points="114.737,189.765 124.064,189.765 124.064,198.81 114.737,198.81 114.737,189.765 "
   id="polygon123"
   style="fill:none;stroke:#000000;stroke-width:1.60000002;stroke-linecap:round;stroke-miterlimit:10"
   transform="translate(5.5536396e-6,1.3841884e-8)" />
<path
   clip-rule="evenodd"
   d="M 124.20701,182.201 C 124.20701,184.89 122.02401,187.074 119.33401,187.074 C 116.64401,187.074 114.46101,184.891 114.46101,182.201 C 114.46101,179.511 116.64401,177.328 119.33401,177.328 C 122.02401,177.328 124.20701,179.511 124.20701,182.201 L 124.20701,182.201 z"
   id="path125"
   style="fill:#ffffff;fill-rule:evenodd" />
<path
   stroke-miterlimit="10"
   d="M 124.20701,182.201 C 124.20701,184.89 122.02401,187.074 119.33401,187.074 C 116.64401,187.074 114.46101,184.891 114.46101,182.201 C 114.46101,179.511 116.64401,177.328 119.33401,177.328 C 122.02401,177.328 124.20701,179.511 124.20701,182.201 L 124.20701,182.201 z"
   id="path127"
   style="fill:none;stroke:#000000;stroke-width:1.60000002;stroke-miterlimit:10" />
<polyline
   points="21.878,191.149 23.289,191.149 25.075,195.911 26.87,191.149 28.281,191.149 28.281,198.147 27.358,198.147   27.358,192.002 25.553,196.802 24.602,196.802 22.797,192.002 22.797,198.147 21.878,198.147 21.878,191.149 "
   id="polyline129"
   transform="translate(5.5536396e-6,1.3841884e-8)" />
<polyline
   points="30.166,191.149 34.59,191.149 34.59,191.946 31.112,191.946 31.112,194.018 34.445,194.018 34.445,194.814   31.112,194.814 31.112,197.351 34.675,197.351 34.675,198.147 30.166,198.147 30.166,191.149 "
   id="polyline131"
   transform="translate(5.5536396e-6,1.3841884e-8)" />
<polyline
   points="36.241,191.149 37.188,191.149 37.188,194.106 40.328,191.149 41.547,191.149 38.073,194.411 41.795,198.147   40.548,198.147 37.188,194.777 37.188,198.147 36.241,198.147 36.241,191.149 "
   id="polyline133"
   transform="translate(5.5536396e-6,1.3841884e-8)" />
<path
   d="M 91.029005,255.272 C 88.493005,264.031 80.409005,270.441 70.836005,270.441 C 61.263005,270.441 53.179005,264.031 50.643005,255.272"
   id="path135" />
<path
   stroke-miterlimit="10"
   d="M 91.029005,255.272 C 88.493005,264.031 80.409005,270.441 70.836005,270.441 C 61.263005,270.441 53.179005,264.031 50.643005,255.272"
   id="path137"
   style="fill:none;stroke:#000000;stroke-width:1.60000002;stroke-linecap:round;stroke-miterlimit:10" />
<path
   d="M 187.02901,255.272 C 184.49301,264.031 176.40901,270.441 166.83601,270.441 C 157.26301,270.441 149.17901,264.031 146.64301,255.272"
   id="path139" />
<path
   stroke-miterlimit="10"
   d="M 187.02901,255.272 C 184.49301,264.031 176.40901,270.441 166.83601,270.441 C 157.26301,270.441 149.17901,264.031 146.64301,255.272"
   id="path141"
   style="fill:none;stroke:#000000;stroke-width:1.60000002;stroke-linecap:round;stroke-miterlimit:10" />
<path
   d="M 64.639005,246.092 L 63.354005,249.574 L 65.928005,249.574 L 64.639005,246.092 M 64.104005,245.159 L 65.178005,245.159 L 67.845005,252.157 L 66.861005,252.157 L 66.224005,250.362 L 63.069005,250.362 L 62.431005,252.157 L 61.432005,252.157 L 64.104005,245.159"
   id="path143" />
<polyline
   points="67.142,245.159 73.062,245.159 73.062,245.956 70.578,245.956 70.578,252.157 69.626,252.157 69.626,245.956   67.142,245.956 67.142,245.159 "
   id="polyline145"
   transform="translate(5.5536396e-6,1.3841884e-8)" />
<path
   d="M 74.928005,245.938 L 74.928005,248.567 L 76.118005,248.567 C 76.559005,248.567 76.899005,248.454 77.140005,248.225 C 77.381005,247.996 77.501005,247.672 77.501005,247.25 C 77.501005,246.831 77.381005,246.508 77.140005,246.279 C 76.899005,246.05 76.559005,245.937 76.118005,245.937 L 74.928005,245.937 M 73.981005,245.159 L 76.118005,245.159 C 76.902005,245.159 77.494005,245.337 77.895005,245.693 C 78.298005,246.047 78.499005,246.565 78.499005,247.25 C 78.499005,247.94 78.297005,248.462 77.895005,248.815 C 77.495005,249.168 76.902005,249.344 76.118005,249.344 L 74.928005,249.344 L 74.928005,252.156 L 73.981005,252.156 L 73.981005,245.159"
   id="path147" />
<path
   d="M 26.528005,208.772 C 26.528005,212.234 23.717005,215.044 20.255005,215.044 C 16.793005,215.044 13.982005,212.233 13.982005,208.772 C 13.982005,205.309 16.793005,202.499 20.255005,202.499 C 23.717005,202.499 26.528005,205.31 26.528005,208.772 L 26.528005,208.772 z"
   id="path149"
   style="fill:#ffffff" />
<path
   stroke-miterlimit="10"
   d="M 26.528005,208.772 C 26.528005,212.234 23.717005,215.044 20.255005,215.044 C 16.793005,215.044 13.982005,212.233 13.982005,208.772 C 13.982005,205.309 16.793005,202.499 20.255005,202.499 C 23.717005,202.499 26.528005,205.31 26.528005,208.772 L 26.528005,208.772 z"
   id="path151"
   style="fill:none;stroke:#000000;stroke-width:1.60000002;stroke-linecap:round;stroke-miterlimit:10" />
<path
   d="M 190.76701,179.295 L 233.74301,179.295 C 238.82101,179.295 242.91001,183.064 242.91001,187.746 L 242.91001,200.918 C 242.91001,205.6 238.82201,209.369 233.74301,209.369 L 190.76701,209.369 C 185.68801,209.369 181.60001,205.599 181.60001,200.918 L 181.60001,187.746 C 181.60001,183.064 185.68801,179.295 190.76701,179.295 L 190.76701,179.295 z"
   id="path153"
   style="fill:#ffffff" />
<path
   stroke-miterlimit="10"
   d="M 190.76701,179.295 L 233.74301,179.295 C 238.82101,179.295 242.91001,183.064 242.91001,187.746 L 242.91001,200.918 C 242.91001,205.6 238.82201,209.369 233.74301,209.369 L 190.76701,209.369 C 185.68801,209.369 181.60001,205.599 181.60001,200.918 L 181.60001,187.746 C 181.60001,183.064 185.68801,179.295 190.76701,179.295 L 190.76701,179.295 z"
   id="path155"
   style="fill:none;stroke:#000000;stroke-width:1.60000002;stroke-miterlimit:10" />
<polyline
   points="202.678,191.149 204.089,191.149 205.875,195.911 207.67,191.149 209.081,191.149 209.081,198.147   208.158,198.147 208.158,192.002 206.353,196.802 205.401,196.802 203.597,192.002 203.597,198.147 202.678,198.147   202.678,191.149 "
   id="polyline157"
   transform="translate(5.5536396e-6,1.3841884e-8)" />
<polyline
   points="210.965,191.149 215.391,191.149 215.391,191.946 211.913,191.946 211.913,194.018 215.245,194.018   215.245,194.814 211.913,194.814 211.913,197.351 215.475,197.351 215.475,198.147 210.965,198.147 210.965,191.149 "
   id="polyline159"
   transform="translate(5.5536396e-6,1.3841884e-8)" />
<polyline
   points="217.041,191.149 217.987,191.149 217.987,194.106 221.128,191.149 222.347,191.149 218.874,194.411   222.595,198.147 221.348,198.147 217.987,194.777 217.987,198.147 217.041,198.147 217.041,191.149 "
   id="polyline161"
   transform="translate(5.5536396e-6,1.3841884e-8)" />
<path
   d="M 207.32801,208.772 C 207.32801,212.234 204.51701,215.044 201.05501,215.044 C 197.59201,215.044 194.78201,212.233 194.78201,208.772 C 194.78201,205.309 197.59201,202.499 201.05501,202.499 C 204.51701,202.499 207.32801,205.31 207.32801,208.772 L 207.32801,208.772 z"
   id="path163"
   style="fill:#ffffff" />
<path
   stroke-miterlimit="10"
   d="M 207.32801,208.772 C 207.32801,212.234 204.51701,215.044 201.05501,215.044 C 197.59201,215.044 194.78201,212.233 194.78201,208.772 C 194.78201,205.309 197.59201,202.499 201.05501,202.499 C 204.51701,202.499 207.32801,205.31 207.32801,208.772 L 207.32801,208.772 z"
   id="path165"
   style="fill:none;stroke:#000000;stroke-width:1.60000002;stroke-linecap:round;stroke-miterlimit:10" />
<path
   d="M 200.02701,206.635 L 200.02701,208.826 L 201.01901,208.826 C 201.38601,208.826 201.67001,208.731 201.87101,208.541 C 202.07101,208.351 202.17201,208.08 202.17201,207.729 C 202.17201,207.38 202.07101,207.111 201.87101,206.92 C 201.67001,206.731 201.38701,206.635 201.01901,206.635 L 200.02701,206.635 M 199.23801,205.986 L 201.01901,205.986 C 201.67201,205.986 202.16601,206.134 202.49901,206.431 C 202.83501,206.725 203.00301,207.158 203.00301,207.728 C 203.00301,208.304 202.83501,208.739 202.49901,209.033 C 202.16601,209.327 201.67201,209.474 201.01901,209.474 L 200.02701,209.474 L 200.02701,211.818 L 199.23801,211.818 L 199.23801,205.986"
   id="path167" />
<line
   stroke-miterlimit="10"
   x1="243.666"
   y1="194.53101"
   x2="355.72202"
   y2="194.314"
   id="line169"
   style="fill:none;stroke:#000000;stroke-width:1.60000002;stroke-miterlimit:10" />
<path
   d="M 277.17501,249.241 C 277.17501,260.844 267.75801,270.26 256.15501,270.26 C 244.55301,270.26 235.13601,260.844 235.13601,249.241 C 235.13601,237.638 244.55301,228.222 256.15501,228.222 C 267.75801,228.223 277.17501,237.639 277.17501,249.241 L 277.17501,249.241 z"
   id="path171"
   style="fill:#ffffff" />
<path
   stroke-miterlimit="10"
   d="M 277.17501,249.241 C 277.17501,260.844 267.75801,270.26 256.15501,270.26 C 244.55301,270.26 235.13601,260.844 235.13601,249.241 C 235.13601,237.638 244.55301,228.222 256.15501,228.222 C 267.75801,228.223 277.17501,237.639 277.17501,249.241 L 277.17501,249.241 z"
   id="path173"
   style="fill:none;stroke:#000000;stroke-width:1.60000002;stroke-linecap:round;stroke-miterlimit:10" />
<path
   d="M 373.17501,249.241 C 373.17501,260.844 363.75901,270.26 352.15601,270.26 C 340.55301,270.26 331.13601,260.844 331.13601,249.241 C 331.13601,237.638 340.55301,228.222 352.15601,228.222 C 363.75901,228.222 373.17501,237.639 373.17501,249.241 L 373.17501,249.241 z"
   id="path175"
   style="fill:#ffffff" />
<path
   stroke-miterlimit="10"
   d="M 373.17501,249.241 C 373.17501,260.844 363.75901,270.26 352.15601,270.26 C 340.55301,270.26 331.13601,260.844 331.13601,249.241 C 331.13601,237.638 340.55301,228.222 352.15601,228.222 C 363.75901,228.222 373.17501,237.639 373.17501,249.241 L 373.17501,249.241 z"
   id="path177"
   style="fill:none;stroke:#000000;stroke-width:1.60000002;stroke-linecap:round;stroke-miterlimit:10" />
<path
   d="M 345.41501,246.092 L 344.13101,249.574 L 346.70401,249.574 L 345.41501,246.092 M 344.88101,245.159 L 345.95401,245.159 L 348.62201,252.157 L 347.63801,252.157 L 347.00001,250.362 L 343.84501,250.362 L 343.20801,252.157 L 342.20901,252.157 L 344.88101,245.159"
   id="path179" />
<path
   d="M 350.58601,245.938 L 350.58601,251.379 L 351.73001,251.379 C 352.69601,251.379 353.40201,251.16 353.84901,250.723 C 354.29801,250.286 354.52401,249.595 354.52401,248.652 C 354.52401,247.714 354.29801,247.029 353.84901,246.594 C 353.40201,246.156 352.69601,245.938 351.73001,245.938 L 350.58601,245.938 M 349.63901,245.159 L 351.58401,245.159 C 352.94001,245.159 353.93601,245.441 354.57001,246.008 C 355.20401,246.57 355.52101,247.451 355.52101,248.652 C 355.52101,249.858 355.20301,250.744 354.56501,251.309 C 353.92701,251.875 352.93401,252.158 351.58401,252.158 L 349.63901,252.158 L 349.63901,245.159"
   id="path181" />
<path
   d="M 357.97401,245.938 L 357.97401,248.567 L 359.16401,248.567 C 359.60401,248.567 359.94501,248.454 360.18501,248.225 C 360.42601,247.996 360.54601,247.672 360.54601,247.25 C 360.54601,246.831 360.42601,246.508 360.18501,246.279 C 359.94501,246.05 359.60401,245.937 359.16401,245.937 L 357.97401,245.937 M 357.02601,245.159 L 359.16401,245.159 C 359.94801,245.159 360.54001,245.337 360.94001,245.693 C 361.34301,246.047 361.54401,246.565 361.54401,247.25 C 361.54401,247.94 361.34301,248.462 360.94001,248.815 C 360.54001,249.168 359.94801,249.344 359.16401,249.344 L 357.97401,249.344 L 357.97401,252.156 L 357.02701,252.156 L 357.02701,245.159"
   id="path183" />
<path
   stroke-miterlimit="10"
   d="M 283.31101,194.291 L 263.54901,228.979 M 325.76401,194.291 L 344.47801,227.605"
   id="path185"
   style="fill:none;stroke:#000000;stroke-width:1.60000002;stroke-miterlimit:10" />
<polygon
   clip-rule="evenodd"
   points="363.608,194.408 354.924,198.432 354.924,190.353 363.608,194.408 "
   id="polygon187"
   style="fill-rule:evenodd"
   transform="translate(5.5536396e-6,1.3841884e-8)" />
<polygon
   stroke-miterlimit="10"
   points="363.608,194.408 354.924,198.432 354.924,190.353 363.608,194.408 "
   id="polygon189"
   style="fill:none;stroke:#000000;stroke-width:1.60000002;stroke-miterlimit:10"
   transform="translate(5.5536396e-6,1.3841884e-8)" />
<polygon
   points="300.138,189.765 309.465,189.765 309.465,198.81 300.138,198.81 300.138,189.765 "
   id="polygon191"
   style="fill:#ffffff"
   transform="translate(5.5536396e-6,1.3841884e-8)" />
<polygon
   stroke-miterlimit="10"
   points="300.138,189.765 309.465,189.765 309.465,198.81 300.138,198.81 300.138,189.765 "
   id="polygon193"
   style="fill:none;stroke:#000000;stroke-width:1.60000002;stroke-linecap:round;stroke-miterlimit:10"
   transform="translate(5.5536396e-6,1.3841884e-8)" />
<path
   clip-rule="evenodd"
   d="M 309.60701,182.201 C 309.60701,184.89 307.42401,187.074 304.73501,187.074 C 302.04501,187.074 299.86201,184.891 299.86201,182.201 C 299.86201,179.511 302.04501,177.328 304.73501,177.328 C 307.42501,177.328 309.60701,179.511 309.60701,182.201 L 309.60701,182.201 z"
   id="path195"
   style="fill:#ffffff;fill-rule:evenodd" />
<path
   stroke-miterlimit="10"
   d="M 309.60701,182.201 C 309.60701,184.89 307.42401,187.074 304.73501,187.074 C 302.04501,187.074 299.86201,184.891 299.86201,182.201 C 299.86201,179.511 302.04501,177.328 304.73501,177.328 C 307.42501,177.328 309.60701,179.511 309.60701,182.201 L 309.60701,182.201 z"
   id="path197"
   style="fill:none;stroke:#000000;stroke-width:1.60000002;stroke-miterlimit:10" />
<path
   d="M 276.43001,255.272 C 273.89401,264.031 265.80901,270.441 256.23701,270.441 C 246.66501,270.441 238.58001,264.031 236.04401,255.272"
   id="path199" />
<path
   stroke-miterlimit="10"
   d="M 276.43001,255.272 C 273.89401,264.031 265.80901,270.441 256.23701,270.441 C 246.66501,270.441 238.58001,264.031 236.04401,255.272"
   id="path201"
   style="fill:none;stroke:#000000;stroke-width:1.60000002;stroke-linecap:round;stroke-miterlimit:10" />
<path
   d="M 372.43001,255.272 C 369.89501,264.031 361.81001,270.441 352.23801,270.441 C 342.66501,270.441 334.58101,264.031 332.04501,255.272"
   id="path203" />
<path
   stroke-miterlimit="10"
   d="M 372.43001,255.272 C 369.89501,264.031 361.81001,270.441 352.23801,270.441 C 342.66501,270.441 334.58101,264.031 332.04501,255.272"
   id="path205"
   style="fill:none;stroke:#000000;stroke-width:1.60000002;stroke-linecap:round;stroke-miterlimit:10" />
<path
   d="M 250.03901,246.092 L 248.75501,249.574 L 251.32801,249.574 L 250.03901,246.092 M 249.50501,245.159 L 250.57801,245.159 L 253.24501,252.157 L 252.26101,252.157 L 251.62401,250.362 L 248.46901,250.362 L 247.83101,252.157 L 246.83301,252.157 L 249.50501,245.159"
   id="path207" />
<polyline
   points="252.542,245.159 258.462,245.159 258.462,245.956 255.978,245.956 255.978,252.157 255.026,252.157   255.026,245.956 252.542,245.956 252.542,245.159 "
   id="polyline209"
   transform="translate(5.5536396e-6,1.3841884e-8)" />
<path
   d="M 260.32801,245.938 L 260.32801,248.567 L 261.51801,248.567 C 261.95901,248.567 262.29901,248.454 262.54001,248.225 C 262.78101,247.996 262.90101,247.672 262.90101,247.25 C 262.90101,246.831 262.78101,246.508 262.54001,246.279 C 262.29901,246.05 261.95901,245.937 261.51801,245.937 L 260.32801,245.937 M 259.38101,245.159 L 261.51801,245.159 C 262.30301,245.159 262.89501,245.337 263.29501,245.693 C 263.69801,246.047 263.89901,246.565 263.89901,247.25 C 263.89901,247.94 263.69701,248.462 263.29501,248.815 C 262.89501,249.168 262.30301,249.344 261.51801,249.344 L 260.32801,249.344 L 260.32801,252.156 L 259.38101,252.156 L 259.38101,245.159"
   id="path211" />
<path
   d="M 376.16701,179.295 L 419.14401,179.295 C 424.22201,179.295 428.31001,183.064 428.31001,187.746 L 428.31001,200.918 C 428.31001,205.6 424.22201,209.369 419.14401,209.369 L 376.16701,209.369 C 371.08901,209.369 367.00001,205.599 367.00001,200.918 L 367.00001,187.746 C 367.00001,183.064 371.08901,179.295 376.16701,179.295 L 376.16701,179.295 z"
   id="path213"
   style="fill:#ffffff" />
<path
   stroke-miterlimit="10"
   d="M 376.16701,179.295 L 419.14401,179.295 C 424.22201,179.295 428.31001,183.064 428.31001,187.746 L 428.31001,200.918 C 428.31001,205.6 424.22201,209.369 419.14401,209.369 L 376.16701,209.369 C 371.08901,209.369 367.00001,205.599 367.00001,200.918 L 367.00001,187.746 C 367.00001,183.064 371.08901,179.295 376.16701,179.295 L 376.16701,179.295 z"
   id="path215"
   style="fill:none;stroke:#000000;stroke-width:1.60000002;stroke-miterlimit:10" />
<polyline
   points="388.078,191.149 389.489,191.149 391.275,195.911 393.07,191.149 394.481,191.149 394.481,198.147   393.559,198.147 393.559,192.002 391.754,196.802 390.802,196.802 388.997,192.002 388.997,198.147 388.078,198.147   388.078,191.149 "
   id="polyline217"
   transform="translate(5.5536396e-6,1.3841884e-8)" />
<polyline
   points="396.366,191.149 400.791,191.149 400.791,191.946 397.312,191.946 397.312,194.018 400.646,194.018   400.646,194.814 397.312,194.814 397.312,197.351 400.875,197.351 400.875,198.147 396.366,198.147 396.366,191.149 "
   id="polyline219"
   transform="translate(5.5536396e-6,1.3841884e-8)" />
<polyline
   points="402.441,191.149 403.388,191.149 403.388,194.106 406.528,191.149 407.747,191.149 404.273,194.411   407.996,198.147 406.749,198.147 403.388,194.777 403.388,198.147 402.441,198.147 402.441,191.149 "
   id="polyline221"
   transform="translate(5.5536396e-6,1.3841884e-8)" />
<path
   d="M 392.72901,208.772 C 392.72901,212.234 389.91801,215.044 386.45601,215.044 C 382.99401,215.044 380.18301,212.233 380.18301,208.772 C 380.18301,205.309 382.99401,202.499 386.45601,202.499 C 389.91801,202.499 392.72901,205.31 392.72901,208.772 L 392.72901,208.772 z"
   id="path223"
   style="fill:#ffffff" />
<path
   stroke-miterlimit="10"
   d="M 392.72901,208.772 C 392.72901,212.234 389.91801,215.044 386.45601,215.044 C 382.99401,215.044 380.18301,212.233 380.18301,208.772 C 380.18301,205.309 382.99401,202.499 386.45601,202.499 C 389.91801,202.499 392.72901,205.31 392.72901,208.772 L 392.72901,208.772 z"
   id="path225"
   style="fill:none;stroke:#000000;stroke-width:1.60000002;stroke-linecap:round;stroke-miterlimit:10" />

<polygon
   clip-rule="evenodd"
   points="159.52,227.867 151.768,221.359 159.241,218.293 159.52,227.867 "
   id="polygon229"
   style="fill-rule:evenodd"
   transform="translate(5.5536396e-6,1.3841884e-8)" />
<polygon
   stroke-miterlimit="10"
   points="158.786,227.867 151.768,221.359 159.241,218.293 159.52,227.867 158.786,227.867 "
   id="polygon231"
   style="fill:none;stroke:#000000;stroke-width:1.60000002;stroke-miterlimit:10"
   transform="translate(5.5536396e-6,1.3841884e-8)" />




<polygon
   clip-rule="evenodd"
   points="344.92,227.867 337.901,221.359 345.376,218.293 344.92,227.867 "
   id="polygon241"
   style="fill-rule:evenodd"
   transform="translate(5.5536396e-6,1.3841884e-8)" />
<polygon
   stroke-miterlimit="10"
   points="344.92,227.867 337.901,221.359 345.376,218.293 344.92,227.867 "
   id="polygon243"
   style="fill:none;stroke:#000000;stroke-width:1.60000002;stroke-miterlimit:10"
   transform="translate(5.5536396e-6,1.3841884e-8)" />



<line
   stroke-miterlimit="10"
   x1="63.088005"
   y1="339.022"
   x2="171.23399"
   y2="339.06699"
   id="line251"
   style="fill:none;stroke:#000000;stroke-width:1.60000002;stroke-miterlimit:10" />
<path
   d="M 91.774005,395.841 C 91.774005,407.444 82.357005,416.861 70.755005,416.861 C 59.153005,416.861 49.736005,407.444 49.736005,395.841 C 49.736005,384.239 59.153005,374.822 70.755005,374.822 C 82.357005,374.822 91.774005,384.239 91.774005,395.841 L 91.774005,395.841 z"
   id="path253"
   style="fill:#ffffff" />
<path
   stroke-miterlimit="10"
   d="M 91.774005,395.841 C 91.774005,407.444 82.357005,416.861 70.755005,416.861 C 59.153005,416.861 49.736005,407.444 49.736005,395.841 C 49.736005,384.239 59.153005,374.822 70.755005,374.822 C 82.357005,374.822 91.774005,384.239 91.774005,395.841 L 91.774005,395.841 z"
   id="path255"
   style="fill:none;stroke:#000000;stroke-width:1.60000002;stroke-linecap:round;stroke-miterlimit:10" />
<path
   d="M 187.77401,395.841 C 187.77401,407.444 178.35701,416.861 166.75501,416.861 C 155.15301,416.861 145.73601,407.444 145.73601,395.841 C 145.73601,384.239 155.15301,374.822 166.75501,374.822 C 178.35701,374.822 187.77401,384.239 187.77401,395.841 L 187.77401,395.841 z"
   id="path257"
   style="fill:#ffffff" />
<path
   stroke-miterlimit="10"
   d="M 187.77401,395.841 C 187.77401,407.444 178.35701,416.861 166.75501,416.861 C 155.15301,416.861 145.73601,407.444 145.73601,395.841 C 145.73601,384.239 155.15301,374.822 166.75501,374.822 C 178.35701,374.822 187.77401,384.239 187.77401,395.841 L 187.77401,395.841 z"
   id="path259"
   style="fill:none;stroke:#000000;stroke-width:1.60000002;stroke-linecap:round;stroke-miterlimit:10" />
<path
   d="M 160.01501,392.692 L 158.73001,396.174 L 161.30401,396.174 L 160.01501,392.692 M 159.48001,391.759 L 160.55401,391.759 L 163.22101,398.758 L 162.23701,398.758 L 161.59901,396.962 L 158.44501,396.962 L 157.80701,398.758 L 156.80801,398.758 L 159.48001,391.759"
   id="path261" />
<path
   d="M 165.18501,392.537 L 165.18501,397.979 L 166.32901,397.979 C 167.29401,397.979 168.00101,397.76 168.44801,397.323 C 168.89801,396.885 169.12301,396.195 169.12301,395.251 C 169.12301,394.313 168.89801,393.628 168.44801,393.193 C 168.00101,392.755 167.29501,392.537 166.32901,392.537 L 165.18501,392.537 M 164.23801,391.759 L 166.18301,391.759 C 167.53901,391.759 168.53501,392.042 169.16901,392.608 C 169.80401,393.17 170.12101,394.052 170.12101,395.252 C 170.12101,396.458 169.80201,397.345 169.16501,397.91 C 168.52701,398.475 167.53401,398.759 166.18401,398.759 L 164.23901,398.759 L 164.23901,391.759"
   id="path263" />
<path
   d="M 172.57301,392.537 L 172.57301,395.167 L 173.76301,395.167 C 174.20401,395.167 174.54401,395.053 174.78501,394.825 C 175.02601,394.596 175.14601,394.271 175.14601,393.849 C 175.14601,393.43 175.02601,393.107 174.78501,392.879 C 174.54401,392.65 174.20401,392.536 173.76301,392.536 L 172.57301,392.536 M 171.62601,391.759 L 173.76301,391.759 C 174.54801,391.759 175.14001,391.938 175.54001,392.294 C 175.94301,392.647 176.14401,393.165 176.14401,393.85 C 176.14401,394.54 175.94201,395.063 175.54001,395.415 C 175.14001,395.769 174.54801,395.945 173.76301,395.945 L 172.57301,395.945 L 172.57301,398.757 L 171.62601,398.757 L 171.62601,391.759"
   id="path265" />
<path
   stroke-miterlimit="10"
   d="M 97.910005,338.892 L 77.770005,375.837 M 140.36301,338.892 L 159.07701,373.473"
   id="path267"
   style="fill:none;stroke:#000000;stroke-width:1.60000002;stroke-miterlimit:10" />
<path
   d="M 9.9660056,323.895 L 52.942005,323.895 C 58.021005,323.895 62.109005,327.665 62.109005,332.346 L 62.109005,345.518 C 62.109005,350.201 58.021005,353.969 52.942005,353.969 L 9.9660056,353.969 C 4.8880056,353.969 0.79900555,350.2 0.79900555,345.518 L 0.79900555,332.346 C 0.80000555,327.664 4.8880056,323.895 9.9660056,323.895 L 9.9660056,323.895 z"
   id="path269"
   style="fill:#ffffff" />
<path
   stroke-miterlimit="10"
   d="M 9.9660056,323.895 L 52.942005,323.895 C 58.021005,323.895 62.109005,327.665 62.109005,332.346 L 62.109005,345.518 C 62.109005,350.201 58.021005,353.969 52.942005,353.969 L 9.9660056,353.969 C 4.8880056,353.969 0.79900555,350.2 0.79900555,345.518 L 0.79900555,332.346 C 0.80000555,327.664 4.8880056,323.895 9.9660056,323.895 L 9.9660056,323.895 z"
   id="path271"
   style="fill:none;stroke:#000000;stroke-width:1.60000002;stroke-miterlimit:10" />
<polygon
   clip-rule="evenodd"
   points="179.121,339.161 170.436,343.184 170.436,335.105 179.121,339.161 "
   id="polygon273"
   style="fill-rule:evenodd"
   transform="translate(5.5536396e-6,1.3841884e-8)" />
<polygon
   stroke-miterlimit="10"
   points="179.121,339.161 170.436,343.184 170.436,335.105 179.121,339.161 "
   id="polygon275"
   style="fill:none;stroke:#000000;stroke-width:1.60000002;stroke-miterlimit:10"
   transform="translate(5.5536396e-6,1.3841884e-8)" />
<polygon
   points="114.737,334.365 124.064,334.365 124.064,343.41 114.737,343.41 114.737,334.365 "
   id="polygon277"
   style="fill:#ffffff"
   transform="translate(5.5536396e-6,1.3841884e-8)" />
<polygon
   stroke-miterlimit="10"
   points="114.737,334.365 124.064,334.365 124.064,343.41 114.737,343.41 114.737,334.365 "
   id="polygon279"
   style="fill:none;stroke:#000000;stroke-width:1.60000002;stroke-linecap:round;stroke-miterlimit:10"
   transform="translate(5.5536396e-6,1.3841884e-8)" />
<path
   clip-rule="evenodd"
   d="M 124.20701,326.801 C 124.20701,329.49 122.02401,331.673 119.33401,331.673 C 116.64401,331.673 114.46101,329.49 114.46101,326.801 C 114.46101,324.112 116.64401,321.929 119.33401,321.929 C 122.02401,321.929 124.20701,324.111 124.20701,326.801 L 124.20701,326.801 z"
   id="path281"
   style="fill:#ffffff;fill-rule:evenodd" />
<path
   stroke-miterlimit="10"
   d="M 124.20701,326.801 C 124.20701,329.49 122.02401,331.673 119.33401,331.673 C 116.64401,331.673 114.46101,329.49 114.46101,326.801 C 114.46101,324.112 116.64401,321.929 119.33401,321.929 C 122.02401,321.929 124.20701,324.111 124.20701,326.801 L 124.20701,326.801 z"
   id="path283"
   style="fill:none;stroke:#000000;stroke-width:1.60000002;stroke-miterlimit:10" />




<path
   d="M 91.029005,401.872 C 88.493005,410.631 80.409005,417.041 70.836005,417.041 C 61.263005,417.041 53.179005,410.631 50.643005,401.872"
   id="path293" />
<path
   stroke-miterlimit="10"
   d="M 91.029005,401.872 C 88.493005,410.631 80.409005,417.041 70.836005,417.041 C 61.263005,417.041 53.179005,410.631 50.643005,401.872"
   id="path295"
   style="fill:none;stroke:#000000;stroke-width:1.60000002;stroke-linecap:round;stroke-miterlimit:10" />
<path
   d="M 187.02901,401.872 C 184.49301,410.631 176.40901,417.041 166.83601,417.041 C 157.26301,417.041 149.17901,410.631 146.64301,401.872"
   id="path297" />
<path
   stroke-miterlimit="10"
   d="M 187.02901,401.872 C 184.49301,410.631 176.40901,417.041 166.83601,417.041 C 157.26301,417.041 149.17901,410.631 146.64301,401.872"
   id="path299"
   style="fill:none;stroke:#000000;stroke-width:1.60000002;stroke-linecap:round;stroke-miterlimit:10" />
<path
   d="M 64.639005,392.692 L 63.354005,396.174 L 65.928005,396.174 L 64.639005,392.692 M 64.104005,391.759 L 65.178005,391.759 L 67.845005,398.758 L 66.861005,398.758 L 66.224005,396.962 L 63.069005,396.962 L 62.431005,398.758 L 61.432005,398.758 L 64.104005,391.759"
   id="path301" />
<polyline
   points="67.142,391.759 73.062,391.759 73.062,392.556 70.578,392.556 70.578,398.758 69.626,398.758 69.626,392.556   67.142,392.556 67.142,391.759 "
   id="polyline303"
   transform="translate(5.5536396e-6,1.3841884e-8)" />
<path
   d="M 74.928005,392.537 L 74.928005,395.167 L 76.118005,395.167 C 76.559005,395.167 76.899005,395.053 77.140005,394.825 C 77.381005,394.596 77.501005,394.271 77.501005,393.849 C 77.501005,393.43 77.381005,393.107 77.140005,392.879 C 76.899005,392.65 76.559005,392.536 76.118005,392.536 L 74.928005,392.536 M 73.981005,391.759 L 76.118005,391.759 C 76.902005,391.759 77.494005,391.938 77.895005,392.294 C 78.298005,392.647 78.499005,393.165 78.499005,393.85 C 78.499005,394.54 78.297005,395.063 77.895005,395.415 C 77.495005,395.769 76.902005,395.945 76.118005,395.945 L 74.928005,395.945 L 74.928005,398.757 L 73.981005,398.757 L 73.981005,391.759"
   id="path305" />
<path
   d="M 26.528005,353.372 C 26.528005,356.835 23.717005,359.644 20.255005,359.644 C 16.793005,359.644 13.982005,356.834 13.982005,353.372 C 13.982005,349.91 16.793005,347.099 20.255005,347.099 C 23.717005,347.099 26.528005,349.909 26.528005,353.372 L 26.528005,353.372 z"
   id="path307"
   style="fill:#ffffff" />
<path
   stroke-miterlimit="10"
   d="M 26.528005,353.372 C 26.528005,356.835 23.717005,359.644 20.255005,359.644 C 16.793005,359.644 13.982005,356.834 13.982005,353.372 C 13.982005,349.91 16.793005,347.099 20.255005,347.099 C 23.717005,347.099 26.528005,349.909 26.528005,353.372 L 26.528005,353.372 z"
   id="path309"
   style="fill:none;stroke:#000000;stroke-width:1.60000002;stroke-linecap:round;stroke-miterlimit:10" />
<path
   d="M 190.76701,323.895 L 233.74301,323.895 C 238.82101,323.895 242.91001,327.665 242.91001,332.346 L 242.91001,345.518 C 242.91001,350.201 238.82201,353.969 233.74301,353.969 L 190.76701,353.969 C 185.68801,353.969 181.60001,350.2 181.60001,345.518 L 181.60001,332.346 C 181.60001,327.664 185.68801,323.895 190.76701,323.895 L 190.76701,323.895 z"
   id="path311"
   style="fill:#ffffff" />
<path
   stroke-miterlimit="10"
   d="M 190.76701,323.895 L 233.74301,323.895 C 238.82101,323.895 242.91001,327.665 242.91001,332.346 L 242.91001,345.518 C 242.91001,350.201 238.82201,353.969 233.74301,353.969 L 190.76701,353.969 C 185.68801,353.969 181.60001,350.2 181.60001,345.518 L 181.60001,332.346 C 181.60001,327.664 185.68801,323.895 190.76701,323.895 L 190.76701,323.895 z"
   id="path313"
   style="fill:none;stroke:#000000;stroke-width:1.60000002;stroke-miterlimit:10" />
<polyline
   points="203.484,335.749 207.909,335.749 207.909,336.546 204.431,336.546 204.431,338.618 207.764,338.618   207.764,339.415 204.431,339.415 204.431,341.95 207.994,341.95 207.994,342.747 203.484,342.747 203.484,335.749 "
   id="polyline315"
   transform="translate(5.5536396e-6,1.3841884e-8)" />
<path
   d="M 212.87801,339.466 C 213.08101,339.535 213.27801,339.682 213.46901,339.907 C 213.66301,340.132 213.85601,340.441 214.05001,340.835 L 215.01101,342.747 L 213.99401,342.747 L 213.09801,340.952 C 212.86701,340.483 212.64201,340.173 212.42301,340.019 C 212.20701,339.866 211.91201,339.79 211.53701,339.79 L 210.50601,339.79 L 210.50601,342.747 L 209.55901,342.747 L 209.55901,335.749 L 211.69701,335.749 C 212.49701,335.749 213.09401,335.916 213.48801,336.251 C 213.88201,336.585 214.07901,337.09 214.07901,337.765 C 214.07901,338.205 213.97601,338.572 213.76901,338.862 C 213.56501,339.152 213.26901,339.354 212.87801,339.466 M 210.50601,336.527 L 210.50601,339.011 L 211.69601,339.011 C 212.15201,339.011 212.49601,338.907 212.72701,338.697 C 212.96101,338.485 213.07901,338.174 213.07901,337.764 C 213.07901,337.354 212.96201,337.047 212.72701,336.84 C 212.49601,336.631 212.15201,336.527 211.69601,336.527 L 210.50601,336.527"
   id="path317" />
<polyline
   points="216.234,335.749 217.181,335.749 217.181,338.707 220.322,335.749 221.541,335.749 218.067,339.012   221.789,342.747 220.542,342.747 217.181,339.377 217.181,342.747 216.234,342.747 216.234,335.749 "
   id="polyline319"
   transform="translate(5.5536396e-6,1.3841884e-8)" />
<path
   d="M 207.32801,353.372 C 207.32801,356.835 204.51701,359.644 201.05501,359.644 C 197.59201,359.644 194.78201,356.834 194.78201,353.372 C 194.78201,349.91 197.59201,347.099 201.05501,347.099 C 204.51701,347.099 207.32801,349.909 207.32801,353.372 L 207.32801,353.372 z"
   id="path321"
   style="fill:#ffffff" />
<path
   stroke-miterlimit="10"
   d="M 207.32801,353.372 C 207.32801,356.835 204.51701,359.644 201.05501,359.644 C 197.59201,359.644 194.78201,356.834 194.78201,353.372 C 194.78201,349.91 197.59201,347.099 201.05501,347.099 C 204.51701,347.099 207.32801,349.909 207.32801,353.372 L 207.32801,353.372 z"
   id="path323"
   style="fill:none;stroke:#000000;stroke-width:1.60000002;stroke-linecap:round;stroke-miterlimit:10" />
<path
   d="M 200.02701,351.235 L 200.02701,353.426 L 201.01901,353.426 C 201.38601,353.426 201.67001,353.33 201.87101,353.141 C 202.07101,352.951 202.17201,352.68 202.17201,352.329 C 202.17201,351.979 202.07101,351.71 201.87101,351.52 C 201.67001,351.33 201.38701,351.235 201.01901,351.235 L 200.02701,351.235 M 199.23801,350.587 L 201.01901,350.587 C 201.67201,350.587 202.16601,350.735 202.49901,351.032 C 202.83501,351.326 203.00301,351.759 203.00301,352.329 C 203.00301,352.904 202.83501,353.339 202.49901,353.634 C 202.16601,353.928 201.67201,354.075 201.01901,354.075 L 200.02701,354.075 L 200.02701,356.419 L 199.23801,356.419 L 199.23801,350.587"
   id="path325" />
<line
   stroke-miterlimit="10"
   x1="243.666"
   y1="339.022"
   x2="352.72202"
   y2="339.06699"
   id="line327"
   style="fill:none;stroke:#000000;stroke-width:1.60000002;stroke-miterlimit:10" />
<path
   d="M 274.17501,395.841 C 274.17501,407.444 264.75801,416.861 253.15501,416.861 C 241.55301,416.861 232.13601,407.444 232.13601,395.841 C 232.13601,384.239 241.55301,374.822 253.15501,374.822 C 264.75801,374.822 274.17501,384.239 274.17501,395.841 L 274.17501,395.841 z"
   id="path329"
   style="fill:#ffffff" />
<path
   stroke-miterlimit="10"
   d="M 274.17501,395.841 C 274.17501,407.444 264.75801,416.861 253.15501,416.861 C 241.55301,416.861 232.13601,407.444 232.13601,395.841 C 232.13601,384.239 241.55301,374.822 253.15501,374.822 C 264.75801,374.822 274.17501,384.239 274.17501,395.841 L 274.17501,395.841 z"
   id="path331"
   style="fill:none;stroke:#000000;stroke-width:1.60000002;stroke-linecap:round;stroke-miterlimit:10" />
<path
   d="M 370.17501,395.841 C 370.17501,407.444 360.75901,416.861 349.15601,416.861 C 337.55301,416.861 328.13601,407.444 328.13601,395.841 C 328.13601,384.239 337.55301,374.822 349.15601,374.822 C 360.75901,374.822 370.17501,384.239 370.17501,395.841 L 370.17501,395.841 z"
   id="path333"
   style="fill:#ffffff" />
<path
   stroke-miterlimit="10"
   d="M 370.17501,395.841 C 370.17501,407.444 360.75901,416.861 349.15601,416.861 C 337.55301,416.861 328.13601,407.444 328.13601,395.841 C 328.13601,384.239 337.55301,374.822 349.15601,374.822 C 360.75901,374.822 370.17501,384.239 370.17501,395.841 L 370.17501,395.841 z"
   id="path335"
   style="fill:none;stroke:#000000;stroke-width:1.60000002;stroke-linecap:round;stroke-miterlimit:10" />
<path
   d="M 342.41501,392.692 L 341.13101,396.174 L 343.70401,396.174 L 342.41501,392.692 M 341.88101,391.759 L 342.95401,391.759 L 345.62201,398.758 L 344.63801,398.758 L 344.00001,396.962 L 340.84501,396.962 L 340.20801,398.758 L 339.20901,398.758 L 341.88101,391.759"
   id="path337" />
<path
   d="M 347.58601,392.537 L 347.58601,397.979 L 348.73001,397.979 C 349.69601,397.979 350.40201,397.76 350.84901,397.323 C 351.29801,396.885 351.52401,396.195 351.52401,395.251 C 351.52401,394.313 351.29801,393.628 350.84901,393.193 C 350.40201,392.755 349.69601,392.537 348.73001,392.537 L 347.58601,392.537 M 346.63901,391.759 L 348.58401,391.759 C 349.94001,391.759 350.93601,392.042 351.57001,392.608 C 352.20401,393.17 352.52101,394.052 352.52101,395.252 C 352.52101,396.458 352.20301,397.345 351.56501,397.91 C 350.92701,398.475 349.93401,398.759 348.58401,398.759 L 346.63901,398.759 L 346.63901,391.759"
   id="path339" />
<path
   d="M 354.97401,392.537 L 354.97401,395.167 L 356.16401,395.167 C 356.60401,395.167 356.94501,395.053 357.18501,394.825 C 357.42601,394.596 357.54601,394.271 357.54601,393.849 C 357.54601,393.43 357.42601,393.107 357.18501,392.879 C 356.94501,392.65 356.60401,392.536 356.16401,392.536 L 354.97401,392.536 M 354.02601,391.759 L 356.16401,391.759 C 356.94801,391.759 357.54001,391.938 357.94001,392.294 C 358.34301,392.647 358.54401,393.165 358.54401,393.85 C 358.54401,394.54 358.34301,395.063 357.94001,395.415 C 357.54001,395.769 356.94801,395.945 356.16401,395.945 L 354.97401,395.945 L 354.97401,398.757 L 354.02701,398.757 L 354.02701,391.759"
   id="path341" />
<path
   stroke-miterlimit="10"
   d="M 280.31101,338.892 L 260.54901,375.47 M 322.76401,338.892 L 341.84501,373.473"
   id="path343"
   style="fill:none;stroke:#000000;stroke-width:1.60000002;stroke-miterlimit:10" />
<polygon
   clip-rule="evenodd"
   points="360.608,339.161 351.924,343.184 351.924,335.105 360.608,339.161 "
   id="polygon345"
   style="fill-rule:evenodd"
   transform="translate(5.5536396e-6,1.3841884e-8)" />
<polygon
   stroke-miterlimit="10"
   points="360.608,339.161 351.924,343.184 351.924,335.105 360.608,339.161 "
   id="polygon347"
   style="fill:none;stroke:#000000;stroke-width:1.60000002;stroke-miterlimit:10"
   transform="translate(5.5536396e-6,1.3841884e-8)" />
<polygon
   points="297.138,334.365 306.465,334.365 306.465,343.41 297.138,343.41 297.138,334.365 "
   id="polygon349"
   style="fill:#ffffff"
   transform="translate(5.5536396e-6,1.3841884e-8)" />
<polygon
   stroke-miterlimit="10"
   points="297.138,334.365 306.465,334.365 306.465,343.41 297.138,343.41 297.138,334.365 "
   id="polygon351"
   style="fill:none;stroke:#000000;stroke-width:1.60000002;stroke-linecap:round;stroke-miterlimit:10"
   transform="translate(5.5536396e-6,1.3841884e-8)" />
<path
   d="M 273.43001,401.872 C 270.89401,410.631 262.80901,417.041 253.23701,417.041 C 243.66501,417.041 235.58001,410.631 233.04401,401.872"
   id="path353" />
<path
   stroke-miterlimit="10"
   d="M 273.43001,401.872 C 270.89401,410.631 262.80901,417.041 253.23701,417.041 C 243.66501,417.041 235.58001,410.631 233.04401,401.872"
   id="path355"
   style="fill:none;stroke:#000000;stroke-width:1.60000002;stroke-linecap:round;stroke-miterlimit:10" />
<path
   d="M 369.43001,401.872 C 366.89501,410.631 358.81001,417.041 349.23801,417.041 C 339.66501,417.041 331.58101,410.631 329.04501,401.872"
   id="path357" />
<path
   stroke-miterlimit="10"
   d="M 369.43001,401.872 C 366.89501,410.631 358.81001,417.041 349.23801,417.041 C 339.66501,417.041 331.58101,410.631 329.04501,401.872"
   id="path359"
   style="fill:none;stroke:#000000;stroke-width:1.60000002;stroke-linecap:round;stroke-miterlimit:10" />
<path
   d="M 247.03901,392.692 L 245.75501,396.174 L 248.32801,396.174 L 247.03901,392.692 M 246.50501,391.759 L 247.57801,391.759 L 250.24501,398.758 L 249.26101,398.758 L 248.62401,396.962 L 245.46901,396.962 L 244.83101,398.758 L 243.83301,398.758 L 246.50501,391.759"
   id="path361" />
<polyline
   points="249.542,391.759 255.462,391.759 255.462,392.556 252.978,392.556 252.978,398.758 252.026,398.758   252.026,392.556 249.542,392.556 249.542,391.759 "
   id="polyline363"
   transform="translate(5.5536396e-6,1.3841884e-8)" />
<path
   d="M 257.32801,392.537 L 257.32801,395.167 L 258.51801,395.167 C 258.95901,395.167 259.29901,395.053 259.54001,394.825 C 259.78101,394.596 259.90101,394.271 259.90101,393.849 C 259.90101,393.43 259.78101,393.107 259.54001,392.879 C 259.29901,392.65 258.95901,392.536 258.51801,392.536 L 257.32801,392.536 M 256.38101,391.759 L 258.51801,391.759 C 259.30301,391.759 259.89501,391.938 260.29501,392.294 C 260.69801,392.647 260.89901,393.165 260.89901,393.85 C 260.89901,394.54 260.69701,395.063 260.29501,395.415 C 259.89501,395.769 259.30301,395.945 258.51801,395.945 L 257.32801,395.945 L 257.32801,398.757 L 256.38101,398.757 L 256.38101,391.759"
   id="path365" />
<path
   d="M 372.16701,323.895 L 415.14401,323.895 C 420.22201,323.895 424.31001,327.665 424.31001,332.346 L 424.31001,345.518 C 424.31001,350.201 420.22201,353.969 415.14401,353.969 L 372.16701,353.969 C 367.08901,353.969 363.00001,350.2 363.00001,345.518 L 363.00001,332.346 C 363.00001,327.664 367.08901,323.895 372.16701,323.895 L 372.16701,323.895 z"
   id="path367"
   style="fill:#ffffff" />
<path
   stroke-miterlimit="10"
   d="M 372.16701,323.895 L 415.14401,323.895 C 420.22201,323.895 424.31001,327.665 424.31001,332.346 L 424.31001,345.518 C 424.31001,350.201 420.22201,353.969 415.14401,353.969 L 372.16701,353.969 C 367.08901,353.969 363.00001,350.2 363.00001,345.518 L 363.00001,332.346 C 363.00001,327.664 367.08901,323.895 372.16701,323.895 L 372.16701,323.895 z"
   id="path369"
   style="fill:none;stroke:#000000;stroke-width:1.60000002;stroke-miterlimit:10" />
<polyline
   points="384.885,335.749 389.31,335.749 389.31,336.546 385.832,336.546 385.832,338.618 389.164,338.618 389.164,339.415   385.832,339.415 385.832,341.95 389.395,341.95 389.395,342.747 384.885,342.747 384.885,335.749 "
   id="polyline371"
   transform="translate(5.5536396e-6,1.3841884e-8)" />
<path
   d="M 394.27801,339.466 C 394.48101,339.535 394.67801,339.682 394.86901,339.907 C 395.06201,340.132 395.25701,340.441 395.45001,340.835 L 396.41101,342.747 L 395.39401,342.747 L 394.49801,340.952 C 394.26701,340.483 394.04201,340.173 393.82301,340.019 C 393.60701,339.866 393.31101,339.79 392.93601,339.79 L 391.90501,339.79 L 391.90501,342.747 L 390.95901,342.747 L 390.95901,335.749 L 393.09701,335.749 C 393.89701,335.749 394.49301,335.916 394.88701,336.251 C 395.28101,336.585 395.47801,337.09 395.47801,337.765 C 395.47801,338.205 395.37401,338.572 395.16801,338.862 C 394.96601,339.152 394.66901,339.354 394.27801,339.466 M 391.90601,336.527 L 391.90601,339.011 L 393.09701,339.011 C 393.55301,339.011 393.89701,338.907 394.12801,338.697 C 394.36201,338.485 394.48001,338.174 394.48001,337.764 C 394.48001,337.354 394.36301,337.047 394.12801,336.84 C 393.89701,336.631 393.55301,336.527 393.09701,336.527 L 391.90601,336.527"
   id="path373" />
<polyline
   points="397.635,335.749 398.582,335.749 398.582,338.707 401.723,335.749 402.941,335.749 399.468,339.012   403.189,342.747 401.942,342.747 398.582,339.377 398.582,342.747 397.635,342.747 397.635,335.749 "
   id="polyline375"
   transform="translate(5.5536396e-6,1.3841884e-8)" />
<path
   d="M 388.72901,353.372 C 388.72901,356.835 385.91801,359.644 382.45601,359.644 C 378.99401,359.644 376.18301,356.834 376.18301,353.372 C 376.18301,349.91 378.99401,347.099 382.45601,347.099 C 385.91801,347.099 388.72901,349.909 388.72901,353.372 L 388.72901,353.372 z"
   id="path377"
   style="fill:#ffffff" />
<path
   stroke-miterlimit="10"
   d="M 388.72901,353.372 C 388.72901,356.835 385.91801,359.644 382.45601,359.644 C 378.99401,359.644 376.18301,356.834 376.18301,353.372 C 376.18301,349.91 378.99401,347.099 382.45601,347.099 C 385.91801,347.099 388.72901,349.909 388.72901,353.372 L 388.72901,353.372 z"
   id="path379"
   style="fill:none;stroke:#000000;stroke-width:1.60000002;stroke-linecap:round;stroke-miterlimit:10" />

<polygon
   clip-rule="evenodd"
   points="159.52,373.734 152.501,367.226 159.975,364.159 159.52,373.734 "
   id="polygon383"
   style="fill-rule:evenodd"
   transform="translate(5.5536396e-6,1.3841884e-8)" />
<polygon
   stroke-miterlimit="10"
   points="159.52,373.734 152.501,367.226 159.975,364.159 159.52,373.734 "
   id="polygon385"
   style="fill:none;stroke:#000000;stroke-width:1.60000002;stroke-miterlimit:10"
   transform="translate(5.5536396e-6,1.3841884e-8)" />




<polygon
   clip-rule="evenodd"
   points="342.287,373.734 335.269,367.226 342.743,364.159 342.287,373.734 "
   id="polygon395"
   style="fill-rule:evenodd"
   transform="translate(5.5536396e-6,1.3841884e-8)" />
<polygon
   stroke-miterlimit="10"
   points="342.287,373.734 335.269,367.226 342.743,364.159 342.287,373.734 "
   id="polygon397"
   style="fill:none;stroke:#000000;stroke-width:1.60000002;stroke-miterlimit:10"
   transform="translate(5.5536396e-6,1.3841884e-8)" />



<path
   clip-rule="evenodd"
   d="M 306.60701,326.801 C 306.60701,329.49 304.42401,331.673 301.73501,331.673 C 299.04501,331.673 296.86201,329.49 296.86201,326.801 C 296.86201,324.112 299.04501,321.929 301.73501,321.929 C 304.42501,321.929 306.60701,324.111 306.60701,326.801 L 306.60701,326.801 z"
   id="path405"
   style="fill:#ffffff;fill-rule:evenodd" />
<path
   stroke-miterlimit="10"
   d="M 306.60701,326.801 C 306.60701,329.49 304.42401,331.673 301.73501,331.673 C 299.04501,331.673 296.86201,329.49 296.86201,326.801 C 296.86201,324.112 299.04501,321.929 301.73501,321.929 C 304.42501,321.929 306.60701,324.111 306.60701,326.801 L 306.60701,326.801 z"
   id="path407"
   style="fill:none;stroke:#000000;stroke-width:1.60000002;stroke-miterlimit:10" />
<line
   stroke-miterlimit="10"
   x1="304.95905"
   y1="178.728"
   x2="304.95905"
   y2="155.10001"
   id="line409"
   style="fill:none;stroke:#000000;stroke-width:1.60000002;stroke-miterlimit:10" />
<polyline
   id="polyline2917"
   points="384.885,335.749 389.31,335.749 389.31,336.546 385.832,336.546 385.832,338.618 389.164,338.618 389.164,339.415   385.832,339.415 385.832,341.95 389.395,341.95 389.395,342.747 384.885,342.747 384.885,335.749 "
   transform="translate(-363.59672,0.3419008)" /><path
   id="path2919"
   d="M 30.681276,339.8079 C 30.884276,339.8769 31.081276,340.0239 31.272276,340.2489 C 31.465276,340.4739 31.660276,340.7829 31.853276,341.1769 L 32.814276,343.0889 L 31.797276,343.0889 L 30.901276,341.2939 C 30.670276,340.8249 30.445276,340.5149 30.226276,340.3609 C 30.010276,340.2079 29.714276,340.1319 29.339276,340.1319 L 28.308276,340.1319 L 28.308276,343.0889 L 27.362276,343.0889 L 27.362276,336.0909 L 29.500276,336.0909 C 30.300276,336.0909 30.896276,336.2579 31.290276,336.5929 C 31.684276,336.9269 31.881276,337.4319 31.881276,338.1069 C 31.881276,338.5469 31.777276,338.9139 31.571276,339.2039 C 31.369276,339.4939 31.072276,339.6959 30.681276,339.8079 M 28.309276,336.8689 L 28.309276,339.3529 L 29.500276,339.3529 C 29.956276,339.3529 30.300276,339.2489 30.531276,339.0389 C 30.765276,338.8269 30.883276,338.5159 30.883276,338.1059 C 30.883276,337.6959 30.766276,337.3889 30.531276,337.1819 C 30.300276,336.9729 29.956276,336.8689 29.500276,336.8689 L 28.309276,336.8689" /><polyline
   id="polyline2921"
   points="397.635,335.749 398.582,335.749 398.582,338.707 401.723,335.749 402.941,335.749 399.468,339.012   403.189,342.747 401.942,342.747 398.582,339.377 398.582,342.747 397.635,342.747 397.635,335.749 "
   transform="translate(-363.59672,0.3419008)" /><text
   xml:space="preserve"
   style="font-size:8px;font-style:normal;font-variant:normal;font-weight:normal;font-stretch:normal;text-align:start;line-height:125%;writing-mode:lr-tb;text-anchor:start;fill:#000000;fill-opacity:1;stroke:none;stroke-width:1px;stroke-linecap:butt;stroke-linejoin:miter;stroke-opacity:1;font-family:Arial"
   x="377.75317"
   y="356.22958"
   id="text2363"
   sodipodi:linespacing="125%"><tspan
     sodipodi:role="line"
     id="tspan2365"
     x="377.75317"
     y="356.22958">2P</tspan></text>

<text
   xml:space="preserve"
   style="font-size:8px;font-style:normal;font-variant:normal;font-weight:normal;font-stretch:normal;text-align:start;line-height:125%;writing-mode:lr-tb;text-anchor:start;fill:#000000;fill-opacity:1;stroke:none;stroke-width:1px;stroke-linecap:butt;stroke-linejoin:miter;stroke-opacity:1;font-family:Arial"
   x="381.78159"
   y="211.73085"
   id="text2367"
   sodipodi:linespacing="125%"><tspan
     sodipodi:role="line"
     id="tspan2369"
     x="381.78159"
     y="211.73085">2P</tspan></text>

</svg>