<?xml version="1.0" encoding="UTF-8" standalone="no"?>
<!-- Created with Bouml (http://bouml.free.fr/) -->
<!DOCTYPE svg PUBLIC "-//W3C//DTD SVG 1.1//EN" "http://www.w3.org/Graphics/SVG/1.1/DTD/svg11.dtd">
<svg width="1080" height="449" version="1.1" xmlns="http://www.w3.org/2000/svg">
<g>
	<rect fill="#808080" stroke="none" stroke-opacity="1" x="816" y="303" width="3" height="35" />
	<rect fill="#808080" stroke="none" stroke-opacity="1" x="656" y="335" width="163" height="3" />
	<rect fill="#ffffff" stroke="black" stroke-width="1" stroke-opacity="1" x="652" y="299" width="164" height="36" />
	<text font-family="Helvetica" font-size="15" fill="#000000" xml:space="preserve" font-weight="bold" text-anchor="middle" x="734" y="316">SubunitStateVariable</text>
	<line stroke="black" stroke-opacity="1" x1="652" y1="319" x2="816" y2="319" />
	<line stroke="black" stroke-opacity="1" x1="652" y1="327" x2="816" y2="327" />
</g>
<g>
	<rect fill="#808080" stroke="none" stroke-opacity="1" x="442" y="304" width="3" height="83" />
	<rect fill="#808080" stroke="none" stroke-opacity="1" x="300" y="384" width="145" height="3" />
	<rect fill="#ffffff" stroke="black" stroke-width="1" stroke-opacity="1" x="296" y="300" width="146" height="84" />
	<text font-family="Helvetica" font-size="15" fill="#000000" xml:space="preserve" font-weight="bold" text-anchor="middle" x="369" y="317">Subunit</text>
	<line stroke="black" stroke-opacity="1" x1="296" y1="320" x2="442" y2="320" />
	<text font-family="Helvetica" font-size="15" fill="#000000" xml:space="preserve" x="300" y="337">cardinality : int</text>
	<text font-family="Helvetica" font-size="15" fill="#000000" xml:space="preserve" x="300" y="355">natures : cv</text>
	<text font-family="Helvetica" font-size="15" fill="#000000" xml:space="preserve" x="300" y="373">subunit_type : Enum</text>
	<line stroke="black" stroke-opacity="1" x1="296" y1="376" x2="442" y2="376" />
</g>
<g>
	<rect fill="#808080" stroke="none" stroke-opacity="1" x="1056" y="351" width="3" height="35" />
	<rect fill="#808080" stroke="none" stroke-opacity="1" x="986" y="383" width="73" height="3" />
	<rect fill="#ffffff" stroke="black" stroke-width="1" stroke-opacity="1" x="982" y="347" width="74" height="36" />
	<text font-family="Helvetica" font-size="15" fill="#000000" xml:space="preserve" font-weight="bold" text-anchor="middle" x="1019" y="364">Complex</text>
	<line stroke="black" stroke-opacity="1" x1="982" y1="367" x2="1056" y2="367" />
	<line stroke="black" stroke-opacity="1" x1="982" y1="375" x2="1056" y2="375" />
</g>
<g>
	<rect fill="#808080" stroke="none" stroke-opacity="1" x="789" y="203" width="3" height="47" />
	<rect fill="#808080" stroke="none" stroke-opacity="1" x="687" y="247" width="105" height="3" />
	<rect fill="#ffffff" stroke="black" stroke-width="1" stroke-opacity="1" x="683" y="199" width="106" height="48" />
	<text font-family="Helvetica" font-size="15" fill="#000000" xml:space="preserve" font-weight="bold" text-anchor="middle" x="736" y="216">StateVariable</text>
	<line stroke="black" stroke-opacity="1" x1="683" y1="219" x2="789" y2="219" />
	<text font-family="Helvetica" font-size="15" fill="#000000" xml:space="preserve" x="687" y="236">value : string</text>
	<line stroke="black" stroke-opacity="1" x1="683" y1="239" x2="789" y2="239" />
</g>
<g>
	<line stroke="black" stroke-opacity="1" x1="295" y1="343" x2="289" y2="337" />
	<line stroke="black" stroke-opacity="1" x1="295" y1="343" x2="289" y2="349" />
	<line stroke="black" stroke-opacity="1" x1="213" y1="343" x2="295" y2="343" />
</g>
<g>
	<line stroke="black" stroke-opacity="1" x1="213" y1="429" x2="213" y2="343" />
</g>
<g>
	<line stroke="black" stroke-opacity="1" x1="369" y1="429" x2="213" y2="429" />
</g>
<g>
	<line stroke="black" stroke-opacity="1" x1="369" y1="388" x2="369" y2="429" />
	<polygon fill="#000000" stroke="black" stroke-opacity="1" points="369,388 375,394 369,400 363,394" />
</g>
<g>
	<line stroke="black" stroke-opacity="1" x1="750" y1="366" x2="446" y2="366" />
</g>
<g>
	<line stroke="black" stroke-opacity="1" x1="981" y1="366" x2="750" y2="366" />
	<polygon fill="#000000" stroke="black" stroke-opacity="1" points="981,366 975,372 969,366 975,360" />
</g>
<g>
	<line stroke="black" stroke-opacity="1" x1="631" y1="319" x2="651" y2="319" />
</g>
<g>
	<line stroke="black" stroke-opacity="1" x1="446" y1="319" x2="631" y2="319" />
	<polygon fill="#ffffff" stroke="black" stroke-opacity="1" points="446,319 452,313 458,319 452,325" />
</g>
<g>
	<line stroke="black" stroke-opacity="1" x1="736" y1="298" x2="736" y2="256" />
	<line stroke="black" stroke-opacity="1" x1="737" y1="251" x2="730" y2="256" />
	<line stroke="black" stroke-opacity="1" x1="737" y1="251" x2="742" y2="257" />
	<line stroke="black" stroke-opacity="1" x1="730" y1="256" x2="742" y2="257" />
</g>
<g>
	<rect fill="#808080" stroke="none" stroke-opacity="1" x="1064" y="208" width="3" height="35" />
	<rect fill="#808080" stroke="none" stroke-opacity="1" x="976" y="240" width="91" height="3" />
	<rect fill="#ffffff" stroke="black" stroke-width="1" stroke-opacity="1" x="972" y="204" width="92" height="36" />
	<text font-family="Helvetica" font-size="15" fill="#000000" xml:space="preserve" font-weight="bold" font-style="italic" text-anchor="middle" x="1018" y="221">StatefulEPN</text>
	<line stroke="black" stroke-opacity="1" x1="972" y1="224" x2="1064" y2="224" />
	<line stroke="black" stroke-opacity="1" x1="972" y1="232" x2="1064" y2="232" />
</g>
<g>
	<rect fill="#808080" stroke="none" stroke-opacity="1" x="614" y="119" width="3" height="35" />
	<rect fill="#808080" stroke="none" stroke-opacity="1" x="520" y="151" width="97" height="3" />
	<rect fill="#ffffff" stroke="black" stroke-width="1" stroke-opacity="1" x="516" y="115" width="98" height="36" />
	<text font-family="Helvetica" font-size="15" fill="#000000" xml:space="preserve" font-weight="bold" font-style="italic" text-anchor="middle" x="565" y="132">AuxiliaryUnit</text>
	<line stroke="black" stroke-opacity="1" x1="516" y1="135" x2="614" y2="135" />
	<line stroke="black" stroke-opacity="1" x1="516" y1="143" x2="614" y2="143" />
</g>
<g>
	<line stroke="black" stroke-opacity="1" x1="567" y1="183" x2="567" y2="161" />
	<line stroke="black" stroke-opacity="1" x1="567" y1="155" x2="561" y2="161" />
	<line stroke="black" stroke-opacity="1" x1="567" y1="155" x2="573" y2="161" />
	<line stroke="black" stroke-opacity="1" x1="561" y1="161" x2="573" y2="161" />
</g>
<g>
	<line stroke="black" stroke-opacity="1" x1="371" y1="183" x2="567" y2="183" />
</g>
<g>
	<line stroke="black" stroke-opacity="1" x1="371" y1="299" x2="371" y2="183" />
</g>
<g>
	<line stroke="black" stroke-opacity="1" x1="567" y1="183" x2="567" y2="161" />
	<line stroke="black" stroke-opacity="1" x1="567" y1="155" x2="561" y2="161" />
	<line stroke="black" stroke-opacity="1" x1="567" y1="155" x2="573" y2="161" />
	<line stroke="black" stroke-opacity="1" x1="561" y1="161" x2="573" y2="161" />
</g>
<g>
	<line stroke="black" stroke-opacity="1" x1="738" y1="183" x2="567" y2="183" />
</g>
<g>
	<line stroke="black" stroke-opacity="1" x1="738" y1="198" x2="738" y2="183" />
</g>
<g>
	<line stroke="black" stroke-opacity="1" x1="1020" y1="346" x2="1020" y2="250" />
	<line stroke="black" stroke-opacity="1" x1="1020" y1="244" x2="1014" y2="250" />
	<line stroke="black" stroke-opacity="1" x1="1020" y1="244" x2="1026" y2="250" />
	<line stroke="black" stroke-opacity="1" x1="1014" y1="250" x2="1026" y2="250" />
</g>
<g>
	<line stroke="black" stroke-opacity="1" x1="971" y1="224" x2="793" y2="224" />
	<polygon fill="#000000" stroke="black" stroke-opacity="1" points="971,224 965,230 959,224 965,218" />
</g>
<g>
	<text font-family="Helvetica" font-size="15" fill="#000000" xml:space="preserve" x="279" y="366">*</text>
</g>
<g>
	<text font-family="Helvetica" font-size="15" fill="#000000" xml:space="preserve" x="351" y="411">1</text>
</g>
<g>
	<text font-family="Helvetica" font-size="15" fill="#000000" xml:space="preserve" x="232" y="337">children</text>
</g>
<g>
	<text font-family="Helvetica" font-size="15" fill="#000000" xml:space="preserve" x="963" y="389">1</text>
</g>
<g>
	<text font-family="Helvetica" font-size="15" fill="#000000" xml:space="preserve" x="456" y="389">*</text>
</g>
<g>
	<text font-family="Helvetica" font-size="15" fill="#000000" xml:space="preserve" x="856" y="360">owning_complex</text>
</g>
<g>
	<text font-family="Helvetica" font-size="15" fill="#000000" xml:space="preserve" x="456" y="360">subunits</text>
</g>
<g>
	<text font-family="Helvetica" font-size="15" fill="#000000" xml:space="preserve" x="456" y="342">1</text>
</g>
<g>
	<text font-family="Helvetica" font-size="15" fill="#000000" xml:space="preserve" x="456" y="313">owning_subunit</text>
</g>
<g>
	<text font-family="Helvetica" font-size="15" fill="#000000" xml:space="preserve" x="635" y="342">*</text>
</g>
<g>
	<text font-family="Helvetica" font-size="15" fill="#000000" xml:space="preserve" x="599" y="313">states</text>
</g>
<g>
	<text font-family="Helvetica" font-size="15" fill="#000000" xml:space="preserve" x="953" y="247">1</text>
</g>
<g>
	<text font-family="Helvetica" font-size="15" fill="#000000" xml:space="preserve" x="803" y="247">*</text>
</g>
<g>
	<text font-family="Helvetica" font-size="15" fill="#000000" xml:space="preserve" x="879" y="218">owning_epn</text>
</g>
<g>
	<text font-family="Helvetica" font-size="15" fill="#000000" xml:space="preserve" x="803" y="218">states</text>
</g>
</svg>
