<?xml version="1.0" encoding="UTF-8" standalone="no"?>
<svg
   xmlns:dc="http://purl.org/dc/elements/1.1/"
   xmlns:cc="http://creativecommons.org/ns#"
   xmlns:rdf="http://www.w3.org/1999/02/22-rdf-syntax-ns#"
   xmlns:svg="http://www.w3.org/2000/svg"
   xmlns="http://www.w3.org/2000/svg"
   xmlns:sodipodi="http://sodipodi.sourceforge.net/DTD/sodipodi-0.dtd"
   xmlns:inkscape="http://www.inkscape.org/namespaces/inkscape"
   color-rendering="auto"
   color-interpolation="auto"
   text-rendering="auto"
   width="420"
   stroke-miterlimit="10"
   shape-rendering="auto"
   font-weight="normal"
   height="202"
   font-style="normal"
   font-size="12"
   image-rendering="auto"
   id="svg2"
   version="1.1"
   inkscape:version="0.48.2 r9819"
   sodipodi:docname="helloworldPD.svg"
   style="font-size:12px;font-style:normal;font-weight:normal;fill:#000000;fill-opacity:1;stroke:#000000;stroke-width:1;stroke-linecap:square;stroke-linejoin:miter;stroke-miterlimit:10;stroke-opacity:1;stroke-dasharray:none;stroke-dashoffset:0;font-family:Dialog">
  <metadata
     id="metadata124">
    <rdf:RDF>
      <cc:Work
         rdf:about="">
        <dc:format>image/svg+xml</dc:format>
        <dc:type
           rdf:resource="http://purl.org/dc/dcmitype/StillImage" />
      </cc:Work>
    </rdf:RDF>
  </metadata>
  <sodipodi:namedview
     pagecolor="#ffffff"
     bordercolor="#666666"
     borderopacity="1"
     objecttolerance="10"
     gridtolerance="10"
     guidetolerance="10"
     inkscape:pageopacity="0"
     inkscape:pageshadow="2"
     inkscape:window-width="1218"
     inkscape:window-height="755"
     id="namedview122"
     showgrid="false"
     fit-margin-top="0"
     fit-margin-left="0"
     fit-margin-right="0"
     fit-margin-bottom="0"
     inkscape:zoom="1.379015"
     inkscape:cx="211.56274"
     inkscape:cy="57.093696"
     inkscape:window-x="476"
     inkscape:window-y="267"
     inkscape:window-maximized="0"
     inkscape:current-layer="svg2" />
  <!--Generated by the Batik Graphics2D SVG Generator-->
  <defs
     id="genericDefs">
    <defs
       id="defs1">
      <clipPath
         id="clipPath1"
         clipPathUnits="userSpaceOnUse">
        <path
           inkscape:connector-curvature="0"
           id="path9"
           d="M 0,0 627,0 627,548 0,548 0,0 z" />
      </clipPath>
      <clipPath
         id="clipPath2"
         clipPathUnits="userSpaceOnUse">
        <path
           inkscape:connector-curvature="0"
           id="path12"
           d="m 0,0 0,65 113,0 0,-65 z" />
      </clipPath>
      <clipPath
         id="clipPath3"
         clipPathUnits="userSpaceOnUse">
        <path
           inkscape:connector-curvature="0"
           id="path15"
           d="M 0,0 0,20 20,20 20,0 z" />
      </clipPath>
      <clipPath
         id="clipPath4"
         clipPathUnits="userSpaceOnUse">
        <path
           inkscape:connector-curvature="0"
           id="path18"
           d="M 0,0 0,19 19,19 19,0 z" />
      </clipPath>
      <clipPath
         id="clipPath5"
         clipPathUnits="userSpaceOnUse">
        <path
           inkscape:connector-curvature="0"
           id="path21"
           d="M 0,0 0,20 21,20 21,0 z" />
      </clipPath>
      <clipPath
         id="clipPath6"
         clipPathUnits="userSpaceOnUse">
        <path
           inkscape:connector-curvature="0"
           id="path24"
           d="M 0,0 0,19 20,19 20,0 z" />
      </clipPath>
      <clipPath
         id="clipPath7"
         clipPathUnits="userSpaceOnUse">
        <path
           inkscape:connector-curvature="0"
           id="path27"
           d="M 0,0 0,29 29,29 29,0 z" />
      </clipPath>
      <clipPath
         id="clipPath8"
         clipPathUnits="userSpaceOnUse">
        <path
           inkscape:connector-curvature="0"
           id="path30"
           d="M 0,0 0,29 92,29 92,0 z" />
      </clipPath>
      <clipPath
         id="clipPath9"
         clipPathUnits="userSpaceOnUse">
        <path
           inkscape:connector-curvature="0"
           id="path33"
           d="m 0,0 0,32 101,0 0,-32 z" />
      </clipPath>
      <clipPath
         id="clipPath10"
         clipPathUnits="userSpaceOnUse">
        <path
           inkscape:connector-curvature="0"
           id="path36"
           d="M 0,0 0,56 17,56 17,0 z" />
      </clipPath>
    </defs>
  </defs>
  <g
     id="g3199"
     transform="translate(-42,-86)">
    <g
       id="g3164">
      <g
         style="fill:#ffffff;stroke:#ffffff;stroke-width:2;stroke-linecap:round;stroke-linejoin:round;font-family:sans-serif"
         id="g38"
         image-rendering="optimizeQuality"
         text-rendering="optimizeLegibility"
         transform="translate(42,146)">
        <path
           style="stroke:none"
           inkscape:connector-curvature="0"
           id="path40"
           clip-path="url(#clipPath2)"
           d="M 109,31 C 109,47.5685 84.8234,61 55,61 25.1766,61 1,47.5685 1,31 1,14.4315 25.1766,1 55,1 c 29.8234,0 54,13.4315 54,30 z" />
        <path
           style="fill:none;stroke:#000000"
           inkscape:connector-curvature="0"
           id="path42"
           clip-path="url(#clipPath2)"
           d="M 109,31 C 109,47.5685 84.8234,61 55,61 25.1766,61 1,47.5685 1,31 1,14.4315 25.1766,1 55,1 c 29.8234,0 54,13.4315 54,30 z" />
      </g>
      <g
         style="font-size:14px;font-family:Arial"
         id="g44"
         image-rendering="optimizeQuality"
         transform="translate(88,168)"
         font-size="14"
         text-rendering="geometricPrecision">
        <text
           style="stroke:none"
           id="text46"
           clip-path="url(#clipPath4)"
           y="14"
           x="5"
           xml:space="preserve">A</text>
      </g>
    </g>
    <g
       id="g3171">
      <g
         style="fill:#ffffff;stroke:#ffffff;stroke-width:2;stroke-linecap:round;stroke-linejoin:round;font-family:sans-serif"
         id="g48"
         image-rendering="optimizeQuality"
         text-rendering="optimizeLegibility"
         transform="translate(42,226)">
        <path
           style="stroke:none"
           inkscape:connector-curvature="0"
           id="path50"
           clip-path="url(#clipPath2)"
           d="M 109,31 C 109,47.5685 84.8234,61 55,61 25.1766,61 1,47.5685 1,31 1,14.4315 25.1766,1 55,1 c 29.8234,0 54,13.4315 54,30 z" />
        <path
           style="fill:none;stroke:#000000"
           inkscape:connector-curvature="0"
           id="path52"
           clip-path="url(#clipPath2)"
           d="M 109,31 C 109,47.5685 84.8234,61 55,61 25.1766,61 1,47.5685 1,31 1,14.4315 25.1766,1 55,1 c 29.8234,0 54,13.4315 54,30 z" />
      </g>
      <g
         style="font-size:14px;font-family:Arial"
         id="g54"
         image-rendering="optimizeQuality"
         transform="translate(88,248)"
         font-size="14"
         text-rendering="geometricPrecision">
        <text
           style="stroke:none"
           id="text56"
           clip-path="url(#clipPath4)"
           y="14"
           x="5"
           xml:space="preserve">B</text>
      </g>
    </g>
  </g>
  <g
     id="g3213"
     transform="translate(-42,-86)">
    <g
       id="g3178">
      <g
         style="fill:#ffffff;stroke:#ffffff;stroke-width:2;stroke-linecap:round;stroke-linejoin:round;font-family:sans-serif"
         id="g58"
         image-rendering="optimizeQuality"
         text-rendering="optimizeLegibility"
         transform="translate(352,146)">
        <path
           style="stroke:none"
           inkscape:connector-curvature="0"
           id="path60"
           clip-path="url(#clipPath2)"
           d="M 109,31 C 109,47.5685 84.8234,61 55,61 25.1766,61 1,47.5685 1,31 1,14.4315 25.1766,1 55,1 c 29.8234,0 54,13.4315 54,30 z" />
        <path
           style="fill:none;stroke:#000000"
           inkscape:connector-curvature="0"
           id="path62"
           clip-path="url(#clipPath2)"
           d="M 109,31 C 109,47.5685 84.8234,61 55,61 25.1766,61 1,47.5685 1,31 1,14.4315 25.1766,1 55,1 c 29.8234,0 54,13.4315 54,30 z" />
      </g>
      <g
         style="font-size:14px;font-family:Arial"
         id="g64"
         image-rendering="optimizeQuality"
         transform="translate(397,168)"
         font-size="14"
         text-rendering="geometricPrecision">
        <text
           style="stroke:none"
           id="text66"
           clip-path="url(#clipPath6)"
           y="14"
           x="5"
           xml:space="preserve">C</text>
      </g>
    </g>
    <g
       id="g3185">
      <g
         style="fill:#ffffff;stroke:#ffffff;stroke-width:2;stroke-linecap:round;stroke-linejoin:round;font-family:sans-serif"
         id="g68"
         image-rendering="optimizeQuality"
         text-rendering="optimizeLegibility"
         transform="translate(352,226)">
        <path
           style="stroke:none"
           inkscape:connector-curvature="0"
           id="path70"
           clip-path="url(#clipPath2)"
           d="M 109,31 C 109,47.5685 84.8234,61 55,61 25.1766,61 1,47.5685 1,31 1,14.4315 25.1766,1 55,1 c 29.8234,0 54,13.4315 54,30 z" />
        <path
           style="fill:none;stroke:#000000"
           inkscape:connector-curvature="0"
           id="path72"
           clip-path="url(#clipPath2)"
           d="M 109,31 C 109,47.5685 84.8234,61 55,61 25.1766,61 1,47.5685 1,31 1,14.4315 25.1766,1 55,1 c 29.8234,0 54,13.4315 54,30 z" />
      </g>
      <g
         style="font-size:14px;font-family:Arial"
         id="g74"
         image-rendering="optimizeQuality"
         transform="translate(397,248)"
         font-size="14"
         text-rendering="geometricPrecision">
        <text
           style="stroke:none"
           id="text76"
           clip-path="url(#clipPath6)"
           y="14"
           x="5"
           xml:space="preserve">D</text>
      </g>
    </g>
  </g>
  <g
     style="stroke-width:1.5;stroke-linecap:butt;stroke-linejoin:round;font-family:sans-serif"
     id="g94"
     image-rendering="optimizeQuality"
     text-rendering="optimizeLegibility"
     transform="translate(102,105)">
    <path
       style="fill:none"
       inkscape:connector-curvature="0"
       id="path96"
       clip-path="url(#clipPath8)"
       d="m 0.75,0.75 77.5622,24.6229 10.5,0" />
  </g>
  <g
     style="stroke-width:1.5;stroke-linecap:butt;stroke-linejoin:round;font-family:sans-serif"
     id="g98"
     image-rendering="optimizeQuality"
     text-rendering="optimizeLegibility"
     transform="translate(102,130)">
    <path
       style="fill:none"
       inkscape:connector-curvature="0"
       id="path100"
       clip-path="url(#clipPath8)"
       d="M 0.75,25.3729 78.3122,0.75 l 10.5,0" />
  </g>
  <g
     style="stroke-width:1.5;stroke-linecap:butt;stroke-linejoin:round;font-family:sans-serif"
     id="g102"
     image-rendering="optimizeQuality"
     text-rendering="optimizeLegibility"
     transform="translate(217,101)">
    <path
       style="fill:none"
       inkscape:connector-curvature="0"
       id="path104"
       clip-path="url(#clipPath9)"
       d="m 0.75,29.2196 10.5,0 72.3329,-21.2743" />
    <path
       style="stroke:none"
       inkscape:connector-curvature="0"
       id="path106"
       clip-path="url(#clipPath9)"
       d="M 81.4666,0.75 85.6991,15.1405 97.9734,3.7127 z" />
  </g>
  <g
     style="stroke-width:1.5;stroke-linecap:butt;stroke-linejoin:round;font-family:sans-serif"
     id="g108"
     image-rendering="optimizeQuality"
     text-rendering="optimizeLegibility"
     transform="translate(217,130)">
    <path
       style="fill:none"
       inkscape:connector-curvature="0"
       id="path110"
       clip-path="url(#clipPath9)"
       d="m 0.75,0.75 10.5,0 72.3329,21.2744" />
    <path
       style="stroke:none"
       inkscape:connector-curvature="0"
       id="path112"
       clip-path="url(#clipPath9)"
       d="M 85.6991,14.8291 81.4666,29.2196 97.9734,26.2569 z" />
  </g>
  <g
     id="g3227"
     transform="translate(-43,-86)">
    <g
       id="g3192">
      <g
         style="fill:#ffffff;stroke:#ffffff;stroke-width:2;stroke-linecap:round;stroke-linejoin:round;font-family:sans-serif"
         id="g78"
         image-rendering="optimizeQuality"
         text-rendering="optimizeLegibility"
         transform="translate(192,86)">
        <path
           style="stroke:none"
           inkscape:connector-curvature="0"
           id="path80"
           clip-path="url(#clipPath2)"
           d="M 109,31 C 109,47.5685 84.8234,61 55,61 25.1766,61 1,47.5685 1,31 1,14.4315 25.1766,1 55,1 c 29.8234,0 54,13.4315 54,30 z" />
        <path
           style="fill:none;stroke:#000000"
           inkscape:connector-curvature="0"
           id="path82"
           clip-path="url(#clipPath2)"
           d="M 109,31 C 109,47.5685 84.8234,61 55,61 25.1766,61 1,47.5685 1,31 1,14.4315 25.1766,1 55,1 c 29.8234,0 54,13.4315 54,30 z" />
      </g>
      <g
         style="font-size:14px;font-family:Arial"
         id="g84"
         image-rendering="optimizeQuality"
         transform="translate(238,108)"
         font-size="14"
         text-rendering="geometricPrecision">
        <text
           style="stroke:none"
           id="text86"
           clip-path="url(#clipPath4)"
           y="14"
           x="5"
           xml:space="preserve">E</text>
      </g>
    </g>
    <g
       transform="translate(234,204)"
       text-rendering="optimizeLegibility"
       image-rendering="optimizeQuality"
       id="g88"
       style="fill:#ffffff;stroke:#ffffff;stroke-width:2;stroke-linecap:round;stroke-linejoin:round;font-family:sans-serif">
      <path
         d="M 1,1 25,1 25,25 1,25 1,1 z"
         clip-path="url(#clipPath7)"
         id="path90"
         inkscape:connector-curvature="0"
         style="stroke:none" />
      <path
         d="M 1,1 25,1 25,25 1,25 1,1 z"
         clip-path="url(#clipPath7)"
         id="path92"
         inkscape:connector-curvature="0"
         style="fill:none;stroke:#000000" />
    </g>
    <g
       transform="translate(239.5,147)"
       text-rendering="optimizeLegibility"
       image-rendering="optimizeQuality"
       id="g114"
       style="stroke-width:1.5;stroke-linecap:butt;stroke-linejoin:round;font-family:sans-serif">
      <path
         d="m 7.5,0.75 0,38.125"
         clip-path="url(#clipPath10)"
         id="path116"
         inkscape:connector-curvature="0"
         style="fill:none" />
      <path
         d="m 0.75,45.625 6.75,-6.75 6.75,6.75 -6.75,6.75 z"
         clip-path="url(#clipPath10)"
         id="path118"
         inkscape:connector-curvature="0"
         style="fill:#ffffff;stroke:none" />
      <path
         d="m 0.75,45.625 6.75,-6.75 6.75,6.75 -6.75,6.75 z"
         clip-path="url(#clipPath10)"
         id="path120"
         inkscape:connector-curvature="0"
         style="fill:none" />
    </g>
  </g>
</svg>
