<?xml version="1.0" encoding="UTF-8" standalone="no"?>
<!-- Created with Bouml (http://bouml.free.fr/) -->
<!DOCTYPE svg PUBLIC "-//W3C//DTD SVG 1.1//EN" "http://www.w3.org/Graphics/SVG/1.1/DTD/svg11.dtd">
<svg width="853" height="300" version="1.1" xmlns="http://www.w3.org/2000/svg">
<g>
	<rect fill="#808080" stroke="none" stroke-opacity="1" x="516" y="239" width="3" height="47" />
	<rect fill="#808080" stroke="none" stroke-opacity="1" x="348" y="283" width="171" height="3" />
	<rect fill="#ffffff" stroke="black" stroke-width="1" stroke-opacity="1" x="344" y="235" width="172" height="48" />
	<text font-family="Helvetica" font-size="15" fill="#000000" xml:space="preserve" font-weight="bold" text-anchor="middle" x="430" y="252">ModulationArc</text>
	<line stroke="black" stroke-opacity="1" x1="344" y1="255" x2="516" y2="255" />
	<text font-family="Helvetica" font-size="15" fill="#000000" xml:space="preserve" x="348" y="272">modulation_type : enum</text>
	<line stroke="black" stroke-opacity="1" x1="344" y1="275" x2="516" y2="275" />
</g>
<g>
	<rect fill="#808080" stroke="none" stroke-opacity="1" x="837" y="240" width="3" height="47" />
	<rect fill="#808080" stroke="none" stroke-opacity="1" x="665" y="284" width="175" height="3" />
	<rect fill="#ffffff" stroke="black" stroke-width="1" stroke-opacity="1" x="661" y="236" width="176" height="48" />
	<text font-family="Helvetica" font-size="15" fill="#000000" xml:space="preserve" font-weight="bold" text-anchor="middle" x="749" y="253">StoichiometricProcess</text>
	<line stroke="black" stroke-opacity="1" x1="661" y1="256" x2="837" y2="256" />
	<text font-family="Helvetica" font-size="15" fill="#000000" xml:space="preserve" x="665" y="273">process_type : enum</text>
	<line stroke="black" stroke-opacity="1" x1="661" y1="276" x2="837" y2="276" />
</g>
<g>
	<rect fill="#808080" stroke="none" stroke-opacity="1" x="469" y="89" width="3" height="71" />
	<rect fill="#808080" stroke="none" stroke-opacity="1" x="397" y="157" width="75" height="3" />
	<rect fill="#ffffff" stroke="black" stroke-width="1" stroke-opacity="1" x="393" y="85" width="76" height="72" />
	<text font-family="Helvetica" font-size="15" fill="#000000" xml:space="preserve" font-weight="bold" font-style="italic" text-anchor="middle" x="431" y="102">SBGNArc</text>
	<line stroke="black" stroke-opacity="1" x1="393" y1="105" x2="469" y2="105" />
	<line stroke="black" stroke-opacity="1" x1="393" y1="113" x2="469" y2="113" />
</g>
<g>
	<line stroke="black" stroke-opacity="1" x1="432" y1="234" x2="432" y2="167" />
	<line stroke="black" stroke-opacity="1" x1="432" y1="161" x2="426" y2="167" />
	<line stroke="black" stroke-opacity="1" x1="432" y1="161" x2="438" y2="167" />
	<line stroke="black" stroke-opacity="1" x1="426" y1="167" x2="438" y2="167" />
</g>
<g>
	<line stroke="black" stroke-opacity="1" x1="660" y1="261" x2="654" y2="255" />
	<line stroke="black" stroke-opacity="1" x1="660" y1="261" x2="654" y2="267" />
	<line stroke-dasharray="4,4" stroke="black" stroke-opacity="1" x1="520" y1="261" x2="660" y2="261" />
</g>
<g>
	<text font-family="Helvetica" font-size="15" fill="#000000" xml:space="preserve" x="199" y="87">in_node</text>
</g>
<g>
	<text font-family="Helvetica" font-size="15" fill="#000000" xml:space="preserve" x="199" y="175">1</text>
</g>
<g>
	<text font-family="Helvetica" font-size="15" fill="#000000" xml:space="preserve" x="323" y="146">out_arcs</text>
</g>
<g>
	<text font-family="Helvetica" font-size="15" fill="#000000" xml:space="preserve" x="376" y="175">*</text>
</g>
<g>
	<text font-family="Helvetica" font-size="15" fill="#000000" xml:space="preserve" x="199" y="116">1</text>
</g>
<g>
	<text font-family="Helvetica" font-size="15" fill="#000000" xml:space="preserve" x="199" y="146">out_node</text>
</g>
<g>
	<text font-family="Helvetica" font-size="15" fill="#000000" xml:space="preserve" x="333" y="87">in_arcs</text>
</g>
<g>
	<text font-family="Helvetica" font-size="15" fill="#000000" xml:space="preserve" x="376" y="116">*</text>
</g>
<g>
	<rect fill="#808080" stroke="none" stroke-opacity="1" x="185" y="89" width="3" height="71" />
	<rect fill="#808080" stroke="none" stroke-opacity="1" x="99" y="157" width="89" height="3" />
	<rect fill="#ffffff" stroke="black" stroke-width="1" stroke-opacity="1" x="95" y="85" width="90" height="72" />
	<text font-family="Helvetica" font-size="15" fill="#000000" xml:space="preserve" font-weight="bold" font-style="italic" text-anchor="middle" x="140" y="102">SBGNNode</text>
	<line stroke="black" stroke-opacity="1" x1="95" y1="105" x2="185" y2="105" />
	<line stroke="black" stroke-opacity="1" x1="95" y1="113" x2="185" y2="113" />
</g>
<g>
	<line stroke="black" stroke-opacity="1" x1="392" y1="152" x2="189" y2="152" />
</g>
<g>
	<line stroke="black" stroke-opacity="1" x1="392" y1="93" x2="189" y2="93" />
</g>
</svg>
