<?xml version="1.0" encoding="UTF-8" standalone="no"?>
<!-- Created with Bouml (http://bouml.free.fr/) -->
<!DOCTYPE svg PUBLIC "-//W3C//DTD SVG 1.1//EN" "http://www.w3.org/Graphics/SVG/1.1/DTD/svg11.dtd">
<svg width="731" height="237" version="1.1" xmlns="http://www.w3.org/2000/svg">
<g>
	<rect fill="#808080" stroke="none" stroke-opacity="1" x="713" y="156" width="3" height="57" />
	<rect fill="#808080" stroke="none" stroke-opacity="1" x="627" y="210" width="89" height="3" />
	<rect fill="#ffffff" stroke="black" stroke-width="1" stroke-opacity="1" x="623" y="152" width="90" height="58" />
	<text font-family="Helvetica" font-size="15" fill="#000000" xml:space="preserve" font-weight="bold" font-style="italic" text-anchor="middle" x="668" y="169">SBGNNode</text>
	<line stroke="black" stroke-opacity="1" x1="623" y1="172" x2="713" y2="172" />
	<line stroke="black" stroke-opacity="1" x1="623" y1="180" x2="713" y2="180" />
</g>
<g>
	<rect fill="#808080" stroke="none" stroke-opacity="1" x="358" y="155" width="3" height="57" />
	<rect fill="#808080" stroke="none" stroke-opacity="1" x="284" y="209" width="77" height="3" />
	<rect fill="#ffffff" stroke="black" stroke-width="1" stroke-opacity="1" x="280" y="151" width="78" height="58" />
	<text font-family="Helvetica" font-size="15" fill="#000000" xml:space="preserve" font-weight="bold" font-style="italic" text-anchor="middle" x="319" y="168">SBGNArc</text>
	<line stroke="black" stroke-opacity="1" x1="280" y1="171" x2="358" y2="171" />
	<line stroke="black" stroke-opacity="1" x1="280" y1="179" x2="358" y2="179" />
</g>
<g>
	<line stroke="black" stroke-opacity="1" x1="362" y1="204" x2="622" y2="204" />
</g>
<g>
	<line stroke="black" stroke-opacity="1" x1="362" y1="160" x2="622" y2="160" />
</g>
<g>
	<rect fill="#808080" stroke="none" stroke-opacity="1" x="715" y="38" width="3" height="35" />
	<rect fill="#808080" stroke="none" stroke-opacity="1" x="625" y="70" width="93" height="3" />
	<rect fill="#ffffff" stroke="black" stroke-width="1" stroke-opacity="1" x="621" y="34" width="94" height="36" />
	<text font-family="Helvetica" font-size="15" fill="#000000" xml:space="preserve" font-weight="bold" font-style="italic" text-anchor="middle" x="668" y="51">SBGNGlyph</text>
	<line stroke="black" stroke-opacity="1" x1="621" y1="54" x2="715" y2="54" />
	<line stroke="black" stroke-opacity="1" x1="621" y1="62" x2="715" y2="62" />
</g>
<g>
	<line stroke="black" stroke-opacity="1" x1="321" y1="150" x2="321" y2="112" />
</g>
<g>
	<line stroke="black" stroke-opacity="1" x1="670" y1="151" x2="670" y2="113" />
</g>
<g>
	<line stroke="black" stroke-opacity="1" x1="321" y1="112" x2="670" y2="112" />
</g>
<g>
	<line stroke="black" stroke-opacity="1" x1="670" y1="112" x2="670" y2="80" />
	<line stroke="black" stroke-opacity="1" x1="670" y1="74" x2="664" y2="80" />
	<line stroke="black" stroke-opacity="1" x1="670" y1="74" x2="676" y2="80" />
	<line stroke="black" stroke-opacity="1" x1="664" y1="80" x2="676" y2="80" />
</g>
<g>
	<line stroke="black" stroke-opacity="1" x1="670" y1="113" x2="670" y2="80" />
	<line stroke="black" stroke-opacity="1" x1="670" y1="74" x2="664" y2="80" />
	<line stroke="black" stroke-opacity="1" x1="670" y1="74" x2="676" y2="80" />
	<line stroke="black" stroke-opacity="1" x1="664" y1="80" x2="676" y2="80" />
</g>
<g>
	<text font-family="Helvetica" font-size="15" fill="#000000" xml:space="preserve" x="604" y="227">1</text>
</g>
<g>
	<text font-family="Helvetica" font-size="15" fill="#000000" xml:space="preserve" x="604" y="183">1</text>
</g>
<g>
	<text font-family="Helvetica" font-size="15" fill="#000000" xml:space="preserve" x="372" y="183">*</text>
</g>
<g>
	<text font-family="Helvetica" font-size="15" fill="#000000" xml:space="preserve" x="372" y="227">*</text>
</g>
<g>
	<text font-family="Helvetica" font-size="15" fill="#000000" xml:space="preserve" x="372" y="154">in_arcs</text>
</g>
<g>
	<text font-family="Helvetica" font-size="15" fill="#000000" xml:space="preserve" x="558" y="154">in_node</text>
</g>
<g>
	<text font-family="Helvetica" font-size="15" fill="#000000" xml:space="preserve" x="548" y="198">out_node</text>
</g>
<g>
	<text font-family="Helvetica" font-size="15" fill="#000000" xml:space="preserve" x="372" y="198">out_arcs</text>
</g>
</svg>
