<?xml version="1.0" encoding="UTF-8" standalone="no"?>
<!-- Created with Bouml (http://bouml.free.fr/) -->
<!DOCTYPE svg PUBLIC "-//W3C//DTD SVG 1.1//EN" "http://www.w3.org/Graphics/SVG/1.1/DTD/svg11.dtd">
<svg width="1002" height="296" version="1.1" xmlns="http://www.w3.org/2000/svg">
<g>
	<rect fill="#808080" stroke="none" stroke-opacity="1" x="700" y="136" width="3" height="35" />
	<rect fill="#808080" stroke="none" stroke-opacity="1" x="612" y="168" width="91" height="3" />
	<rect fill="#ffffff" stroke="black" stroke-width="1" stroke-opacity="1" x="608" y="132" width="92" height="36" />
	<text font-family="Helvetica" font-size="15" fill="#000000" xml:space="preserve" font-weight="bold" font-style="italic" text-anchor="middle" x="654" y="149">StatefulEPN</text>
	<line stroke="black" stroke-opacity="1" x1="608" y1="152" x2="700" y2="152" />
	<line stroke="black" stroke-opacity="1" x1="608" y1="160" x2="700" y2="160" />
</g>
<g>
	<rect fill="#808080" stroke="none" stroke-opacity="1" x="546" y="247" width="3" height="35" />
	<rect fill="#808080" stroke="none" stroke-opacity="1" x="430" y="279" width="119" height="3" />
	<rect fill="#ffffff" stroke="black" stroke-width="1" stroke-opacity="1" x="426" y="243" width="120" height="36" />
	<text font-family="Helvetica" font-size="15" fill="#000000" xml:space="preserve" font-weight="bold" text-anchor="middle" x="486" y="260">Macromolecule</text>
	<line stroke="black" stroke-opacity="1" x1="426" y1="263" x2="546" y2="263" />
	<line stroke="black" stroke-opacity="1" x1="426" y1="271" x2="546" y2="271" />
</g>
<g>
	<rect fill="#808080" stroke="none" stroke-opacity="1" x="713" y="31" width="3" height="47" />
	<rect fill="#808080" stroke="none" stroke-opacity="1" x="599" y="75" width="117" height="3" />
	<rect fill="#ffffff" stroke="black" stroke-width="1" stroke-opacity="1" x="595" y="27" width="118" height="48" />
	<text font-family="Helvetica" font-size="15" fill="#000000" xml:space="preserve" font-weight="bold" font-style="italic" text-anchor="middle" x="654" y="44">EntityPoolNode</text>
	<line stroke="black" stroke-opacity="1" x1="595" y1="47" x2="713" y2="47" />
	<text font-family="Helvetica" font-size="15" fill="#000000" xml:space="preserve" x="599" y="64">cardinality : int</text>
	<line stroke="black" stroke-opacity="1" x1="595" y1="67" x2="713" y2="67" />
</g>
<g>
	<rect fill="#808080" stroke="none" stroke-opacity="1" x="729" y="248" width="3" height="35" />
	<rect fill="#808080" stroke="none" stroke-opacity="1" x="583" y="280" width="149" height="3" />
	<rect fill="#ffffff" stroke="black" stroke-width="1" stroke-opacity="1" x="579" y="244" width="150" height="36" />
	<text font-family="Helvetica" font-size="15" fill="#000000" xml:space="preserve" font-weight="bold" text-anchor="middle" x="654" y="261">NucleicAcidFeature</text>
	<line stroke="black" stroke-opacity="1" x1="579" y1="264" x2="729" y2="264" />
	<line stroke="black" stroke-opacity="1" x1="579" y1="272" x2="729" y2="272" />
</g>
<g>
	<rect fill="#808080" stroke="none" stroke-opacity="1" x="873" y="246" width="3" height="35" />
	<rect fill="#808080" stroke="none" stroke-opacity="1" x="803" y="278" width="73" height="3" />
	<rect fill="#ffffff" stroke="black" stroke-width="1" stroke-opacity="1" x="799" y="242" width="74" height="36" />
	<text font-family="Helvetica" font-size="15" fill="#000000" xml:space="preserve" font-weight="bold" text-anchor="middle" x="836" y="259">Complex</text>
	<line stroke="black" stroke-opacity="1" x1="799" y1="262" x2="873" y2="262" />
	<line stroke="black" stroke-opacity="1" x1="799" y1="270" x2="873" y2="270" />
</g>
<g>
	<rect fill="#808080" stroke="none" stroke-opacity="1" x="400" y="130" width="3" height="47" />
	<rect fill="#808080" stroke="none" stroke-opacity="1" x="298" y="174" width="105" height="3" />
	<rect fill="#ffffff" stroke="black" stroke-width="1" stroke-opacity="1" x="294" y="126" width="106" height="48" />
	<text font-family="Helvetica" font-size="15" fill="#000000" xml:space="preserve" font-weight="bold" text-anchor="middle" x="347" y="143">StateVariable</text>
	<line stroke="black" stroke-opacity="1" x1="294" y1="146" x2="400" y2="146" />
	<text font-family="Helvetica" font-size="15" fill="#000000" xml:space="preserve" x="298" y="163">value : string</text>
	<line stroke="black" stroke-opacity="1" x1="294" y1="166" x2="400" y2="166" />
</g>
<g>
	<line stroke="black" stroke-opacity="1" x1="656" y1="131" x2="656" y2="85" />
	<line stroke="black" stroke-opacity="1" x1="656" y1="79" x2="650" y2="85" />
	<line stroke="black" stroke-opacity="1" x1="656" y1="79" x2="662" y2="85" />
	<line stroke="black" stroke-opacity="1" x1="650" y1="85" x2="662" y2="85" />
</g>
<g>
	<line stroke="black" stroke-opacity="1" x1="656" y1="207" x2="656" y2="178" />
	<line stroke="black" stroke-opacity="1" x1="656" y1="172" x2="650" y2="178" />
	<line stroke="black" stroke-opacity="1" x1="656" y1="172" x2="662" y2="178" />
	<line stroke="black" stroke-opacity="1" x1="650" y1="178" x2="662" y2="178" />
</g>
<g>
	<line stroke="black" stroke-opacity="1" x1="487" y1="207" x2="656" y2="207" />
</g>
<g>
	<line stroke="black" stroke-opacity="1" x1="487" y1="242" x2="487" y2="207" />
</g>
<g>
	<line stroke="black" stroke-opacity="1" x1="607" y1="152" x2="404" y2="152" />
	<polygon fill="#000000" stroke="black" stroke-opacity="1" points="607,152 601,158 595,152 601,146" />
</g>
<g>
	<line stroke="black" stroke-opacity="1" x1="656" y1="207" x2="656" y2="178" />
	<line stroke="black" stroke-opacity="1" x1="656" y1="172" x2="650" y2="178" />
	<line stroke="black" stroke-opacity="1" x1="656" y1="172" x2="662" y2="178" />
	<line stroke="black" stroke-opacity="1" x1="650" y1="178" x2="662" y2="178" />
</g>
<g>
	<line stroke="black" stroke-opacity="1" x1="838" y1="207" x2="656" y2="207" />
</g>
<g>
	<line stroke="black" stroke-opacity="1" x1="838" y1="241" x2="838" y2="207" />
</g>
<g>
	<line stroke="black" stroke-opacity="1" x1="656" y1="243" x2="656" y2="178" />
	<line stroke="black" stroke-opacity="1" x1="656" y1="172" x2="650" y2="178" />
	<line stroke="black" stroke-opacity="1" x1="656" y1="172" x2="662" y2="178" />
	<line stroke="black" stroke-opacity="1" x1="650" y1="178" x2="662" y2="178" />
</g>
<g>
	<rect fill="#808080" stroke="none" stroke-opacity="1" x="986" y="129" width="3" height="47" />
	<rect fill="#808080" stroke="none" stroke-opacity="1" x="828" y="173" width="161" height="3" />
	<rect fill="#ffffff" stroke="black" stroke-width="1" stroke-opacity="1" x="824" y="125" width="162" height="48" />
	<text font-family="Helvetica" font-size="15" fill="#000000" xml:space="preserve" font-weight="bold" text-anchor="middle" x="905" y="142">LabelledCloneMarker</text>
	<line stroke="black" stroke-opacity="1" x1="824" y1="145" x2="986" y2="145" />
	<text font-family="Helvetica" font-size="15" fill="#000000" xml:space="preserve" x="828" y="162">label : string</text>
	<line stroke="black" stroke-opacity="1" x1="824" y1="165" x2="986" y2="165" />
</g>
<g>
	<line stroke="black" stroke-opacity="1" x1="823" y1="151" x2="817" y2="145" />
	<line stroke="black" stroke-opacity="1" x1="823" y1="151" x2="817" y2="157" />
	<line stroke-dasharray="4,4" stroke="black" stroke-opacity="1" x1="704" y1="151" x2="823" y2="151" />
</g>
<g>
	<text font-family="Helvetica" font-size="15" fill="#000000" xml:space="preserve" x="589" y="175">1</text>
</g>
<g>
	<text font-family="Helvetica" font-size="15" fill="#000000" xml:space="preserve" x="414" y="175">*</text>
</g>
<g>
	<text font-family="Helvetica" font-size="15" fill="#000000" xml:space="preserve" x="515" y="146">owning_epn</text>
</g>
<g>
	<text font-family="Helvetica" font-size="15" fill="#000000" xml:space="preserve" x="414" y="146">states</text>
</g>
</svg>
