<?xml version="1.0" encoding="UTF-8" standalone="no"?>
<!-- Created with Bouml (http://bouml.free.fr/) -->
<!DOCTYPE svg PUBLIC "-//W3C//DTD SVG 1.1//EN" "http://www.w3.org/Graphics/SVG/1.1/DTD/svg11.dtd">
<svg width="840" height="275" version="1.1" xmlns="http://www.w3.org/2000/svg">
<g>
	<rect fill="#808080" stroke="none" stroke-opacity="1" x="119" y="33" width="3" height="65" />
	<rect fill="#808080" stroke="none" stroke-opacity="1" x="25" y="95" width="97" height="3" />
	<rect fill="#ffffff" stroke="black" stroke-width="1" stroke-opacity="1" x="21" y="29" width="98" height="66" />
	<text font-family="Helvetica" font-size="15" fill="#000000" xml:space="preserve" font-weight="bold" text-anchor="middle" x="70" y="46">A</text>
	<line stroke="black" stroke-opacity="1" x1="21" y1="49" x2="119" y2="49" />
	<text font-family="Helvetica" font-size="15" fill="#000000" xml:space="preserve" x="25" y="66">attrib1 : string</text>
	<text font-family="Helvetica" font-size="15" fill="#000000" xml:space="preserve" x="25" y="84">attrib2 : int</text>
	<line stroke="black" stroke-opacity="1" x1="21" y1="87" x2="119" y2="87" />
</g>
<g>
	<rect fill="#808080" stroke="none" stroke-opacity="1" x="370" y="49" width="3" height="35" />
	<rect fill="#808080" stroke="none" stroke-opacity="1" x="334" y="81" width="39" height="3" />
	<rect fill="#ffffff" stroke="black" stroke-width="1" stroke-opacity="1" x="330" y="45" width="40" height="36" />
	<text font-family="Helvetica" font-size="15" fill="#000000" xml:space="preserve" font-weight="bold" text-anchor="middle" x="350" y="62">B</text>
	<line stroke="black" stroke-opacity="1" x1="330" y1="65" x2="370" y2="65" />
	<line stroke="black" stroke-opacity="1" x1="330" y1="73" x2="370" y2="73" />
</g>
<g>
	<rect fill="#808080" stroke="none" stroke-opacity="1" x="130" y="215" width="3" height="47" />
	<rect fill="#808080" stroke="none" stroke-opacity="1" x="16" y="259" width="117" height="3" />
	<rect fill="#ffffff" stroke="black" stroke-width="1" stroke-opacity="1" x="12" y="211" width="118" height="48" />
	<text font-family="Helvetica" font-size="15" fill="#000000" xml:space="preserve" font-weight="bold" text-anchor="middle" x="71" y="228">C</text>
	<line stroke="black" stroke-opacity="1" x1="12" y1="231" x2="130" y2="231" />
	<text font-family="Helvetica" font-size="15" fill="#000000" xml:space="preserve" x="16" y="248">attrib3 : boolean</text>
	<line stroke="black" stroke-opacity="1" x1="12" y1="251" x2="130" y2="251" />
</g>
<g>
	<rect fill="#808080" stroke="none" stroke-opacity="1" x="388" y="220" width="3" height="35" />
	<rect fill="#808080" stroke="none" stroke-opacity="1" x="352" y="252" width="39" height="3" />
	<rect fill="#ffffff" stroke="black" stroke-width="1" stroke-opacity="1" x="348" y="216" width="40" height="36" />
	<text font-family="Helvetica" font-size="15" fill="#000000" xml:space="preserve" font-weight="bold" text-anchor="middle" x="368" y="233">D</text>
	<line stroke="black" stroke-opacity="1" x1="348" y1="236" x2="388" y2="236" />
	<line stroke="black" stroke-opacity="1" x1="348" y1="244" x2="388" y2="244" />
</g>
<g>
	<rect fill="#808080" stroke="none" stroke-opacity="1" x="515" y="173" width="3" height="35" />
	<rect fill="#808080" stroke="none" stroke-opacity="1" x="479" y="205" width="39" height="3" />
	<rect fill="#ffffff" stroke="black" stroke-width="1" stroke-opacity="1" x="475" y="169" width="40" height="36" />
	<text font-family="Helvetica" font-size="15" fill="#000000" xml:space="preserve" font-weight="bold" text-anchor="middle" x="495" y="186">E</text>
	<line stroke="black" stroke-opacity="1" x1="475" y1="189" x2="515" y2="189" />
	<line stroke="black" stroke-opacity="1" x1="475" y1="197" x2="515" y2="197" />
</g>
<g>
	<rect fill="#808080" stroke="none" stroke-opacity="1" x="824" y="174" width="3" height="35" />
	<rect fill="#808080" stroke="none" stroke-opacity="1" x="788" y="206" width="39" height="3" />
	<rect fill="#ffffff" stroke="black" stroke-width="1" stroke-opacity="1" x="784" y="170" width="40" height="36" />
	<text font-family="Helvetica" font-size="15" fill="#000000" xml:space="preserve" font-weight="bold" text-anchor="middle" x="804" y="187">F</text>
	<line stroke="black" stroke-opacity="1" x1="784" y1="190" x2="824" y2="190" />
	<line stroke="black" stroke-opacity="1" x1="784" y1="198" x2="824" y2="198" />
</g>
<g>
	<rect fill="#808080" stroke="none" stroke-opacity="1" x="818" y="62" width="3" height="35" />
	<rect fill="#808080" stroke="none" stroke-opacity="1" x="782" y="94" width="39" height="3" />
	<rect fill="#ffffff" stroke="black" stroke-width="1" stroke-opacity="1" x="778" y="58" width="40" height="36" />
	<text font-family="Helvetica" font-size="15" fill="#000000" xml:space="preserve" font-weight="bold" text-anchor="middle" x="798" y="75">H</text>
	<line stroke="black" stroke-opacity="1" x1="778" y1="78" x2="818" y2="78" />
	<line stroke="black" stroke-opacity="1" x1="778" y1="86" x2="818" y2="86" />
</g>
<g>
	<rect fill="#808080" stroke="none" stroke-opacity="1" x="517" y="62" width="3" height="35" />
	<rect fill="#808080" stroke="none" stroke-opacity="1" x="481" y="94" width="39" height="3" />
	<rect fill="#ffffff" stroke="black" stroke-width="1" stroke-opacity="1" x="477" y="58" width="40" height="36" />
	<text font-family="Helvetica" font-size="15" fill="#000000" xml:space="preserve" font-weight="bold" text-anchor="middle" x="497" y="75">G</text>
	<line stroke="black" stroke-opacity="1" x1="477" y1="78" x2="517" y2="78" />
	<line stroke="black" stroke-opacity="1" x1="477" y1="86" x2="517" y2="86" />
</g>
<g>
	<line stroke="black" stroke-opacity="1" x1="123" y1="64" x2="329" y2="64" />
	<polygon fill="#000000" stroke="black" stroke-opacity="1" points="123,64 129,58 135,64 129,70" />
</g>
<g>
	<line stroke="black" stroke-opacity="1" x1="134" y1="236" x2="347" y2="236" />
	<polygon fill="#ffffff" stroke="black" stroke-opacity="1" points="134,236 140,230 146,236 140,242" />
</g>
<g>
	<line stroke="black" stroke-opacity="1" x1="783" y1="189" x2="777" y2="183" />
	<line stroke="black" stroke-opacity="1" x1="783" y1="189" x2="777" y2="195" />
	<line stroke-dasharray="4,4" stroke="black" stroke-opacity="1" x1="519" y1="189" x2="783" y2="189" />
</g>
<g>
	<line stroke="black" stroke-opacity="1" x1="72" y1="210" x2="72" y2="105" />
	<line stroke="black" stroke-opacity="1" x1="72" y1="99" x2="66" y2="105" />
	<line stroke="black" stroke-opacity="1" x1="72" y1="99" x2="78" y2="105" />
	<line stroke="black" stroke-opacity="1" x1="66" y1="105" x2="78" y2="105" />
</g>
<g>
	<line stroke="black" stroke-opacity="1" x1="777" y1="78" x2="771" y2="72" />
	<line stroke="black" stroke-opacity="1" x1="777" y1="78" x2="771" y2="84" />
	<line stroke="black" stroke-opacity="1" x1="521" y1="78" x2="777" y2="78" />
	<polygon fill="#000000" stroke="black" stroke-opacity="1" points="521,78 527,72 533,78 527,84" />
</g>
<g>
	<text font-family="Helvetica" font-size="15" fill="#000000" xml:space="preserve" x="256" y="58">container</text>
</g>
<g>
	<text font-family="Helvetica" font-size="15" fill="#000000" xml:space="preserve" x="133" y="58">containee</text>
</g>
<g>
	<text font-family="Helvetica" font-size="15" fill="#000000" xml:space="preserve" x="313" y="87">*</text>
</g>
<g>
	<text font-family="Helvetica" font-size="15" fill="#000000" xml:space="preserve" x="133" y="87">1</text>
</g>
<g>
	<text font-family="Helvetica" font-size="15" fill="#000000" xml:space="preserve" x="293" y="230">sharer</text>
</g>
<g>
	<text font-family="Helvetica" font-size="15" fill="#000000" xml:space="preserve" x="144" y="230">shared</text>
</g>
<g>
	<text font-family="Helvetica" font-size="15" fill="#000000" xml:space="preserve" x="331" y="259">*</text>
</g>
<g>
	<text font-family="Helvetica" font-size="15" fill="#000000" xml:space="preserve" x="144" y="259">0..1</text>
</g>
<g>
	<text font-family="Helvetica" font-size="15" fill="#000000" xml:space="preserve" x="704" y="72">container</text>
</g>
<g>
	<text font-family="Helvetica" font-size="15" fill="#000000" xml:space="preserve" x="761" y="101">*</text>
</g>
<g>
	<text font-family="Helvetica" font-size="15" fill="#000000" xml:space="preserve" x="531" y="101">1</text>
</g>
</svg>
