<?xml version="1.0" encoding="UTF-8" standalone="no"?>
<!-- Created with Bouml (http://bouml.free.fr/) -->
<!DOCTYPE svg PUBLIC "-//W3C//DTD SVG 1.1//EN" "http://www.w3.org/Graphics/SVG/1.1/DTD/svg11.dtd">
<svg width="711" height="412" version="1.1" xmlns="http://www.w3.org/2000/svg">
<g>
	<rect fill="#808080" stroke="none" stroke-opacity="1" x="581" y="243" width="3" height="47" />
	<rect fill="#808080" stroke="none" stroke-opacity="1" x="459" y="287" width="125" height="3" />
	<rect fill="#ffffff" stroke="black" stroke-width="1" stroke-opacity="1" x="455" y="239" width="126" height="48" />
	<text font-family="Helvetica" font-size="15" fill="#000000" xml:space="preserve" font-weight="bold" font-style="italic" text-anchor="middle" x="518" y="256">FluxArc</text>
	<line stroke="black" stroke-opacity="1" x1="455" y1="259" x2="581" y2="259" />
	<text font-family="Helvetica" font-size="15" fill="#000000" xml:space="preserve" x="459" y="276">stoichiometry : int</text>
	<line stroke="black" stroke-opacity="1" x1="455" y1="279" x2="581" y2="279" />
</g>
<g>
	<rect fill="#808080" stroke="none" stroke-opacity="1" x="462" y="364" width="3" height="35" />
	<rect fill="#808080" stroke="none" stroke-opacity="1" x="350" y="396" width="115" height="3" />
	<rect fill="#ffffff" stroke="black" stroke-width="1" stroke-opacity="1" x="346" y="360" width="116" height="36" />
	<text font-family="Helvetica" font-size="15" fill="#000000" xml:space="preserve" font-weight="bold" text-anchor="middle" x="404" y="377">ProductionArc</text>
	<line stroke="black" stroke-opacity="1" x1="346" y1="380" x2="462" y2="380" />
	<line stroke="black" stroke-opacity="1" x1="346" y1="388" x2="462" y2="388" />
</g>
<g>
	<rect fill="#808080" stroke="none" stroke-opacity="1" x="557" y="118" width="3" height="59" />
	<rect fill="#808080" stroke="none" stroke-opacity="1" x="483" y="174" width="77" height="3" />
	<rect fill="#ffffff" stroke="black" stroke-width="1" stroke-opacity="1" x="479" y="114" width="78" height="60" />
	<text font-family="Helvetica" font-size="15" fill="#000000" xml:space="preserve" font-weight="bold" font-style="italic" text-anchor="middle" x="518" y="131">SBGNArc</text>
	<line stroke="black" stroke-opacity="1" x1="479" y1="134" x2="557" y2="134" />
	<line stroke="black" stroke-opacity="1" x1="479" y1="142" x2="557" y2="142" />
</g>
<g>
	<rect fill="#808080" stroke="none" stroke-opacity="1" x="695" y="364" width="3" height="35" />
	<rect fill="#808080" stroke="none" stroke-opacity="1" x="565" y="396" width="133" height="3" />
	<rect fill="#ffffff" stroke="black" stroke-width="1" stroke-opacity="1" x="561" y="360" width="134" height="36" />
	<text font-family="Helvetica" font-size="15" fill="#000000" xml:space="preserve" font-weight="bold" text-anchor="middle" x="628" y="377">ConsumptionArc</text>
	<line stroke="black" stroke-opacity="1" x1="561" y1="380" x2="695" y2="380" />
	<line stroke="black" stroke-opacity="1" x1="561" y1="388" x2="695" y2="388" />
</g>
<g>
	<line stroke="black" stroke-opacity="1" x1="405" y1="359" x2="405" y2="325" />
</g>
<g>
	<line stroke="black" stroke-opacity="1" x1="629" y1="359" x2="629" y2="325" />
</g>
<g>
	<line stroke="black" stroke-opacity="1" x1="520" y1="238" x2="520" y2="184" />
	<line stroke="black" stroke-opacity="1" x1="520" y1="178" x2="514" y2="184" />
	<line stroke="black" stroke-opacity="1" x1="520" y1="178" x2="526" y2="184" />
	<line stroke="black" stroke-opacity="1" x1="514" y1="184" x2="526" y2="184" />
</g>
<g>
	<line stroke="black" stroke-opacity="1" x1="405" y1="325" x2="520" y2="325" />
</g>
<g>
	<line stroke="black" stroke-opacity="1" x1="629" y1="325" x2="520" y2="325" />
</g>
<g>
	<line stroke="black" stroke-opacity="1" x1="520" y1="325" x2="520" y2="297" />
	<line stroke="black" stroke-opacity="1" x1="520" y1="291" x2="514" y2="297" />
	<line stroke="black" stroke-opacity="1" x1="520" y1="291" x2="526" y2="297" />
	<line stroke="black" stroke-opacity="1" x1="514" y1="297" x2="526" y2="297" />
</g>
<g>
	<line stroke="black" stroke-opacity="1" x1="520" y1="325" x2="520" y2="297" />
	<line stroke="black" stroke-opacity="1" x1="520" y1="291" x2="514" y2="297" />
	<line stroke="black" stroke-opacity="1" x1="520" y1="291" x2="526" y2="297" />
	<line stroke="black" stroke-opacity="1" x1="514" y1="297" x2="526" y2="297" />
</g>
<g>
	<rect fill="#808080" stroke="none" stroke-opacity="1" x="233" y="119" width="3" height="57" />
	<rect fill="#808080" stroke="none" stroke-opacity="1" x="149" y="173" width="87" height="3" />
	<rect fill="#ffffff" stroke="black" stroke-width="1" stroke-opacity="1" x="145" y="115" width="88" height="58" />
	<text font-family="Helvetica" font-size="15" fill="#000000" xml:space="preserve" font-weight="bold" font-style="italic" text-anchor="middle" x="189" y="132">SBGNNode</text>
	<line stroke="black" stroke-opacity="1" x1="145" y1="135" x2="233" y2="135" />
	<line stroke="black" stroke-opacity="1" x1="145" y1="143" x2="233" y2="143" />
</g>
<g>
	<line stroke="black" stroke-opacity="1" x1="478" y1="123" x2="237" y2="123" />
</g>
<g>
	<line stroke="black" stroke-opacity="1" x1="478" y1="168" x2="237" y2="168" />
</g>
<g>
	<text font-family="Helvetica" font-size="15" fill="#000000" xml:space="preserve" x="409" y="162">out_arcs</text>
</g>
<g>
	<text font-family="Helvetica" font-size="15" fill="#000000" xml:space="preserve" x="247" y="146">1</text>
</g>
<g>
	<text font-family="Helvetica" font-size="15" fill="#000000" xml:space="preserve" x="247" y="117">in_node</text>
</g>
<g>
	<text font-family="Helvetica" font-size="15" fill="#000000" xml:space="preserve" x="462" y="146">*</text>
</g>
<g>
	<text font-family="Helvetica" font-size="15" fill="#000000" xml:space="preserve" x="247" y="162">out_node</text>
</g>
<g>
	<text font-family="Helvetica" font-size="15" fill="#000000" xml:space="preserve" x="462" y="191">*</text>
</g>
<g>
	<text font-family="Helvetica" font-size="15" fill="#000000" xml:space="preserve" x="419" y="117">in_arcs</text>
</g>
<g>
	<text font-family="Helvetica" font-size="15" fill="#000000" xml:space="preserve" x="247" y="191">1</text>
</g>
</svg>
