<?xml version="1.0" encoding="UTF-8" standalone="no"?>
<!-- Created with Bouml (http://bouml.free.fr/) -->
<!DOCTYPE svg PUBLIC "-//W3C//DTD SVG 1.1//EN" "http://www.w3.org/Graphics/SVG/1.1/DTD/svg11.dtd">
<svg width="874" height="262" version="1.1" xmlns="http://www.w3.org/2000/svg">
<g>
	<rect fill="#808080" stroke="none" stroke-opacity="1" x="378" y="120" width="3" height="35" />
	<rect fill="#808080" stroke="none" stroke-opacity="1" x="230" y="152" width="151" height="3" />
	<rect fill="#ffffff" stroke="black" stroke-width="1" stroke-opacity="1" x="226" y="116" width="152" height="36" />
	<text font-family="Helvetica" font-size="15" fill="#000000" xml:space="preserve" font-weight="bold" text-anchor="middle" x="302" y="133">SimpleCloneMarker</text>
	<line stroke="black" stroke-opacity="1" x1="226" y1="136" x2="378" y2="136" />
	<line stroke="black" stroke-opacity="1" x1="226" y1="144" x2="378" y2="144" />
</g>
<g>
	<rect fill="#808080" stroke="none" stroke-opacity="1" x="634" y="119" width="3" height="35" />
	<rect fill="#808080" stroke="none" stroke-opacity="1" x="536" y="151" width="101" height="3" />
	<rect fill="#ffffff" stroke="black" stroke-width="1" stroke-opacity="1" x="532" y="115" width="102" height="36" />
	<text font-family="Helvetica" font-size="15" fill="#000000" xml:space="preserve" font-weight="bold" font-style="italic" text-anchor="middle" x="583" y="132">StatelessEPN</text>
	<line stroke="black" stroke-opacity="1" x1="532" y1="135" x2="634" y2="135" />
	<line stroke="black" stroke-opacity="1" x1="532" y1="143" x2="634" y2="143" />
</g>
<g>
	<line stroke-dasharray="4,4" stroke="black" stroke-opacity="1" x1="531" y1="135" x2="457" y2="135" />
</g>
<g>
	<line stroke="black" stroke-opacity="1" x1="382" y1="135" x2="388" y2="141" />
	<line stroke="black" stroke-opacity="1" x1="382" y1="135" x2="388" y2="129" />
	<line stroke-dasharray="4,4" stroke="black" stroke-opacity="1" x1="457" y1="135" x2="382" y2="135" />
</g>
<g>
	<rect fill="#808080" stroke="none" stroke-opacity="1" x="651" y="213" width="3" height="35" />
	<rect fill="#808080" stroke="none" stroke-opacity="1" x="519" y="245" width="135" height="3" />
	<rect fill="#ffffff" stroke="black" stroke-width="1" stroke-opacity="1" x="515" y="209" width="136" height="36" />
	<text font-family="Helvetica" font-size="15" fill="#000000" xml:space="preserve" font-weight="bold" text-anchor="middle" x="583" y="226">UnspecifiedEntity</text>
	<line stroke="black" stroke-opacity="1" x1="515" y1="229" x2="651" y2="229" />
	<line stroke="black" stroke-opacity="1" x1="515" y1="237" x2="651" y2="237" />
</g>
<g>
	<rect fill="#808080" stroke="none" stroke-opacity="1" x="438" y="214" width="3" height="35" />
	<rect fill="#808080" stroke="none" stroke-opacity="1" x="314" y="246" width="127" height="3" />
	<rect fill="#ffffff" stroke="black" stroke-width="1" stroke-opacity="1" x="310" y="210" width="128" height="36" />
	<text font-family="Helvetica" font-size="15" fill="#000000" xml:space="preserve" font-weight="bold" text-anchor="middle" x="374" y="227">SimpleChemical</text>
	<line stroke="black" stroke-opacity="1" x1="310" y1="230" x2="438" y2="230" />
	<line stroke="black" stroke-opacity="1" x1="310" y1="238" x2="438" y2="238" />
</g>
<g>
	<rect fill="#808080" stroke="none" stroke-opacity="1" x="858" y="213" width="3" height="35" />
	<rect fill="#808080" stroke="none" stroke-opacity="1" x="734" y="245" width="127" height="3" />
	<rect fill="#ffffff" stroke="black" stroke-width="1" stroke-opacity="1" x="730" y="209" width="128" height="36" />
	<text font-family="Helvetica" font-size="15" fill="#000000" xml:space="preserve" font-weight="bold" text-anchor="middle" x="794" y="226">PerturbingAgent</text>
	<line stroke="black" stroke-opacity="1" x1="730" y1="229" x2="858" y2="229" />
	<line stroke="black" stroke-opacity="1" x1="730" y1="237" x2="858" y2="237" />
</g>
<g>
	<line stroke="black" stroke-opacity="1" x1="375" y1="209" x2="375" y2="182" />
</g>
<g>
	<line stroke="black" stroke-opacity="1" x1="375" y1="182" x2="585" y2="182" />
</g>
<g>
	<line stroke="black" stroke-opacity="1" x1="585" y1="182" x2="585" y2="161" />
	<line stroke="black" stroke-opacity="1" x1="585" y1="155" x2="579" y2="161" />
	<line stroke="black" stroke-opacity="1" x1="585" y1="155" x2="591" y2="161" />
	<line stroke="black" stroke-opacity="1" x1="579" y1="161" x2="591" y2="161" />
</g>
<g>
	<line stroke="black" stroke-opacity="1" x1="796" y1="208" x2="796" y2="182" />
</g>
<g>
	<line stroke="black" stroke-opacity="1" x1="796" y1="182" x2="585" y2="182" />
</g>
<g>
	<line stroke="black" stroke-opacity="1" x1="585" y1="182" x2="585" y2="161" />
	<line stroke="black" stroke-opacity="1" x1="585" y1="155" x2="579" y2="161" />
	<line stroke="black" stroke-opacity="1" x1="585" y1="155" x2="591" y2="161" />
	<line stroke="black" stroke-opacity="1" x1="579" y1="161" x2="591" y2="161" />
</g>
<g>
	<line stroke="black" stroke-opacity="1" x1="585" y1="208" x2="585" y2="182" />
</g>
<g>
	<line stroke="black" stroke-opacity="1" x1="585" y1="182" x2="585" y2="161" />
	<line stroke="black" stroke-opacity="1" x1="585" y1="155" x2="579" y2="161" />
	<line stroke="black" stroke-opacity="1" x1="585" y1="155" x2="591" y2="161" />
	<line stroke="black" stroke-opacity="1" x1="579" y1="161" x2="591" y2="161" />
</g>
<g>
	<rect fill="#808080" stroke="none" stroke-opacity="1" x="642" y="27" width="3" height="47" />
	<rect fill="#808080" stroke="none" stroke-opacity="1" x="528" y="71" width="117" height="3" />
	<rect fill="#ffffff" stroke="black" stroke-width="1" stroke-opacity="1" x="524" y="23" width="118" height="48" />
	<text font-family="Helvetica" font-size="15" fill="#000000" xml:space="preserve" font-weight="bold" font-style="italic" text-anchor="middle" x="583" y="40">EntityPoolNode</text>
	<line stroke="black" stroke-opacity="1" x1="524" y1="43" x2="642" y2="43" />
	<text font-family="Helvetica" font-size="15" fill="#000000" xml:space="preserve" x="528" y="60">cardinality : int</text>
	<line stroke="black" stroke-opacity="1" x1="524" y1="63" x2="642" y2="63" />
</g>
<g>
	<line stroke="black" stroke-opacity="1" x1="585" y1="114" x2="585" y2="81" />
	<line stroke="black" stroke-opacity="1" x1="585" y1="75" x2="579" y2="81" />
	<line stroke="black" stroke-opacity="1" x1="585" y1="75" x2="591" y2="81" />
	<line stroke="black" stroke-opacity="1" x1="579" y1="81" x2="591" y2="81" />
</g>
</svg>
