<?xml version="1.0" encoding="UTF-8" standalone="no"?>
<!-- Created with Bouml (http://bouml.free.fr/) -->
<!DOCTYPE svg PUBLIC "-//W3C//DTD SVG 1.1//EN" "http://www.w3.org/Graphics/SVG/1.1/DTD/svg11.dtd">
<svg width="458" height="220" version="1.1" xmlns="http://www.w3.org/2000/svg">
<g>
	<rect fill="#808080" stroke="none" stroke-opacity="1" x="442" y="160" width="3" height="47" />
	<rect fill="#808080" stroke="none" stroke-opacity="1" x="270" y="204" width="175" height="3" />
	<rect fill="#ffffff" stroke="black" stroke-width="1" stroke-opacity="1" x="266" y="156" width="176" height="48" />
	<text font-family="Helvetica" font-size="15" fill="#000000" xml:space="preserve" font-weight="bold" text-anchor="middle" x="354" y="173">StoichiometricProcess</text>
	<line stroke="black" stroke-opacity="1" x1="266" y1="176" x2="442" y2="176" />
	<text font-family="Helvetica" font-size="15" fill="#000000" xml:space="preserve" x="270" y="193">process_type : enum</text>
	<line stroke="black" stroke-opacity="1" x1="266" y1="196" x2="442" y2="196" />
</g>
<g>
	<rect fill="#808080" stroke="none" stroke-opacity="1" x="156" y="165" width="3" height="35" />
	<rect fill="#808080" stroke="none" stroke-opacity="1" x="44" y="197" width="115" height="3" />
	<rect fill="#ffffff" stroke="black" stroke-width="1" stroke-opacity="1" x="40" y="161" width="116" height="36" />
	<text font-family="Helvetica" font-size="15" fill="#000000" xml:space="preserve" font-weight="bold" text-anchor="middle" x="98" y="178">ModulationArc</text>
	<line stroke="black" stroke-opacity="1" x1="40" y1="181" x2="156" y2="181" />
	<line stroke="black" stroke-opacity="1" x1="40" y1="189" x2="156" y2="189" />
</g>
<g>
	<line stroke="black" stroke-opacity="1" x1="265" y1="181" x2="259" y2="175" />
	<line stroke="black" stroke-opacity="1" x1="265" y1="181" x2="259" y2="187" />
	<line stroke-dasharray="4,4" stroke="black" stroke-opacity="1" x1="160" y1="181" x2="265" y2="181" />
</g>
<g>
	<rect fill="#808080" stroke="none" stroke-opacity="1" x="406" y="59" width="3" height="35" />
	<rect fill="#808080" stroke="none" stroke-opacity="1" x="308" y="91" width="101" height="3" />
	<rect fill="#ffffff" stroke="black" stroke-width="1" stroke-opacity="1" x="304" y="55" width="102" height="36" />
	<text font-family="Helvetica" font-size="15" fill="#000000" xml:space="preserve" font-weight="bold" font-style="italic" text-anchor="middle" x="355" y="72">ProcessNode</text>
	<line stroke="black" stroke-opacity="1" x1="304" y1="75" x2="406" y2="75" />
	<line stroke="black" stroke-opacity="1" x1="304" y1="83" x2="406" y2="83" />
</g>
<g>
	<line stroke="black" stroke-opacity="1" x1="356" y1="155" x2="356" y2="101" />
	<line stroke="black" stroke-opacity="1" x1="356" y1="95" x2="350" y2="101" />
	<line stroke="black" stroke-opacity="1" x1="356" y1="95" x2="362" y2="101" />
	<line stroke="black" stroke-opacity="1" x1="350" y1="101" x2="362" y2="101" />
</g>
</svg>
