<?xml version="1.0" encoding="UTF-8" standalone="no"?>
<!-- Created with Bouml (http://bouml.free.fr/) -->
<!DOCTYPE svg PUBLIC "-//W3C//DTD SVG 1.1//EN" "http://www.w3.org/Graphics/SVG/1.1/DTD/svg11.dtd">
<svg width="1037" height="456" version="1.1" xmlns="http://www.w3.org/2000/svg">
<g>
	<rect fill="#808080" stroke="none" stroke-opacity="1" x="455" y="210" width="3" height="35" />
	<rect fill="#808080" stroke="none" stroke-opacity="1" x="361" y="242" width="97" height="3" />
	<rect fill="#ffffff" stroke="black" stroke-width="1" stroke-opacity="1" x="357" y="206" width="98" height="36" />
	<text font-family="Helvetica" font-size="15" fill="#000000" xml:space="preserve" font-weight="bold" font-style="italic" text-anchor="middle" x="406" y="223">CloneMarker</text>
	<line stroke="black" stroke-opacity="1" x1="357" y1="226" x2="455" y2="226" />
	<line stroke="black" stroke-opacity="1" x1="357" y1="234" x2="455" y2="234" />
</g>
<g>
	<rect fill="#808080" stroke="none" stroke-opacity="1" x="626" y="358" width="3" height="35" />
	<rect fill="#808080" stroke="none" stroke-opacity="1" x="478" y="390" width="151" height="3" />
	<rect fill="#ffffff" stroke="black" stroke-width="1" stroke-opacity="1" x="474" y="354" width="152" height="36" />
	<text font-family="Helvetica" font-size="15" fill="#000000" xml:space="preserve" font-weight="bold" text-anchor="middle" x="550" y="371">SimpleCloneMarker</text>
	<line stroke="black" stroke-opacity="1" x1="474" y1="374" x2="626" y2="374" />
	<line stroke="black" stroke-opacity="1" x1="474" y1="382" x2="626" y2="382" />
</g>
<g>
	<line stroke="black" stroke-opacity="1" x1="552" y1="353" x2="552" y2="300" />
</g>
<g>
	<line stroke="black" stroke-opacity="1" x1="552" y1="300" x2="408" y2="300" />
</g>
<g>
	<line stroke="black" stroke-opacity="1" x1="408" y1="300" x2="408" y2="252" />
	<line stroke="black" stroke-opacity="1" x1="408" y1="246" x2="402" y2="252" />
	<line stroke="black" stroke-opacity="1" x1="408" y1="246" x2="414" y2="252" />
	<line stroke="black" stroke-opacity="1" x1="402" y1="252" x2="414" y2="252" />
</g>
<g>
	<rect fill="#808080" stroke="none" stroke-opacity="1" x="351" y="396" width="3" height="47" />
	<rect fill="#808080" stroke="none" stroke-opacity="1" x="193" y="440" width="161" height="3" />
	<rect fill="#ffffff" stroke="black" stroke-width="1" stroke-opacity="1" x="189" y="392" width="162" height="48" />
	<text font-family="Helvetica" font-size="15" fill="#000000" xml:space="preserve" font-weight="bold" text-anchor="middle" x="270" y="409">LabelledCloneMarker</text>
	<line stroke="black" stroke-opacity="1" x1="189" y1="412" x2="351" y2="412" />
	<text font-family="Helvetica" font-size="15" fill="#000000" xml:space="preserve" x="193" y="429">label : string</text>
	<line stroke="black" stroke-opacity="1" x1="189" y1="432" x2="351" y2="432" />
</g>
<g>
	<rect fill="#808080" stroke="none" stroke-opacity="1" x="805" y="358" width="3" height="35" />
	<rect fill="#808080" stroke="none" stroke-opacity="1" x="707" y="390" width="101" height="3" />
	<rect fill="#ffffff" stroke="black" stroke-width="1" stroke-opacity="1" x="703" y="354" width="102" height="36" />
	<text font-family="Helvetica" font-size="15" fill="#000000" xml:space="preserve" font-weight="bold" font-style="italic" text-anchor="middle" x="754" y="371">StatelessEPN</text>
	<line stroke="black" stroke-opacity="1" x1="703" y1="374" x2="805" y2="374" />
	<line stroke="black" stroke-opacity="1" x1="703" y1="382" x2="805" y2="382" />
</g>
<g>
	<line stroke="black" stroke-opacity="1" x1="271" y1="391" x2="271" y2="300" />
</g>
<g>
	<line stroke="black" stroke-opacity="1" x1="271" y1="300" x2="408" y2="300" />
</g>
<g>
	<line stroke="black" stroke-opacity="1" x1="408" y1="300" x2="408" y2="252" />
	<line stroke="black" stroke-opacity="1" x1="408" y1="246" x2="402" y2="252" />
	<line stroke="black" stroke-opacity="1" x1="408" y1="246" x2="414" y2="252" />
	<line stroke="black" stroke-opacity="1" x1="402" y1="252" x2="414" y2="252" />
</g>
<g>
	<line stroke-dasharray="4,4" stroke="black" stroke-opacity="1" x1="702" y1="371" x2="666" y2="371" />
</g>
<g>
	<line stroke="black" stroke-opacity="1" x1="630" y1="371" x2="636" y2="377" />
	<line stroke="black" stroke-opacity="1" x1="630" y1="371" x2="636" y2="365" />
	<line stroke-dasharray="4,4" stroke="black" stroke-opacity="1" x1="666" y1="371" x2="630" y2="371" />
</g>
<g>
	<rect fill="#808080" stroke="none" stroke-opacity="1" x="1021" y="357" width="3" height="35" />
	<rect fill="#808080" stroke="none" stroke-opacity="1" x="933" y="389" width="91" height="3" />
	<rect fill="#ffffff" stroke="black" stroke-width="1" stroke-opacity="1" x="929" y="353" width="92" height="36" />
	<text font-family="Helvetica" font-size="15" fill="#000000" xml:space="preserve" font-weight="bold" font-style="italic" text-anchor="middle" x="975" y="370">StatefulEPN</text>
	<line stroke="black" stroke-opacity="1" x1="929" y1="373" x2="1021" y2="373" />
	<line stroke="black" stroke-opacity="1" x1="929" y1="381" x2="1021" y2="381" />
</g>
<g>
	<line stroke-dasharray="4,4" stroke="black" stroke-opacity="1" x1="928" y1="373" x2="867" y2="373" />
</g>
<g>
	<line stroke-dasharray="4,4" stroke="black" stroke-opacity="1" x1="867" y1="373" x2="867" y2="418" />
</g>
<g>
	<line stroke="black" stroke-opacity="1" x1="355" y1="418" x2="361" y2="424" />
	<line stroke="black" stroke-opacity="1" x1="355" y1="418" x2="361" y2="412" />
	<line stroke-dasharray="4,4" stroke="black" stroke-opacity="1" x1="867" y1="418" x2="355" y2="418" />
</g>
<g>
	<rect fill="#808080" stroke="none" stroke-opacity="1" x="923" y="187" width="3" height="83" />
	<rect fill="#808080" stroke="none" stroke-opacity="1" x="809" y="267" width="117" height="3" />
	<rect fill="#ffffff" stroke="black" stroke-width="1" stroke-opacity="1" x="805" y="183" width="118" height="84" />
	<text font-family="Helvetica" font-size="15" fill="#000000" xml:space="preserve" font-weight="bold" font-style="italic" text-anchor="middle" x="864" y="200">EntityPoolNode</text>
	<line stroke="black" stroke-opacity="1" x1="805" y1="203" x2="923" y2="203" />
	<text font-family="Helvetica" font-size="15" fill="#000000" xml:space="preserve" x="809" y="220">name : string</text>
	<text font-family="Helvetica" font-size="15" fill="#000000" xml:space="preserve" x="809" y="238">cardinality : int</text>
	<text font-family="Helvetica" font-size="15" fill="#000000" xml:space="preserve" x="809" y="256">natures : cv</text>
	<line stroke="black" stroke-opacity="1" x1="805" y1="259" x2="923" y2="259" />
</g>
<g>
	<line stroke="black" stroke-opacity="1" x1="804" y1="226" x2="632" y2="226" />
	<polygon fill="#000000" stroke="black" stroke-opacity="1" points="804,226 798,232 792,226 798,220" />
</g>
<g>
	<line stroke="black" stroke-opacity="1" x1="632" y1="226" x2="459" y2="226" />
</g>
<g>
	<line stroke="black" stroke-opacity="1" x1="756" y1="353" x2="756" y2="312" />
</g>
<g>
	<line stroke="black" stroke-opacity="1" x1="756" y1="312" x2="866" y2="312" />
</g>
<g>
	<line stroke="black" stroke-opacity="1" x1="866" y1="312" x2="866" y2="277" />
	<line stroke="black" stroke-opacity="1" x1="866" y1="271" x2="860" y2="277" />
	<line stroke="black" stroke-opacity="1" x1="866" y1="271" x2="872" y2="277" />
	<line stroke="black" stroke-opacity="1" x1="860" y1="277" x2="872" y2="277" />
</g>
<g>
	<line stroke="black" stroke-opacity="1" x1="977" y1="352" x2="977" y2="312" />
</g>
<g>
	<line stroke="black" stroke-opacity="1" x1="977" y1="312" x2="866" y2="312" />
</g>
<g>
	<line stroke="black" stroke-opacity="1" x1="866" y1="312" x2="866" y2="277" />
	<line stroke="black" stroke-opacity="1" x1="866" y1="271" x2="860" y2="277" />
	<line stroke="black" stroke-opacity="1" x1="866" y1="271" x2="872" y2="277" />
	<line stroke="black" stroke-opacity="1" x1="860" y1="277" x2="872" y2="277" />
</g>
<g>
	<text font-family="Helvetica" font-size="15" fill="#000000" xml:space="preserve" x="469" y="220">clone_marker</text>
</g>
<g>
	<text font-family="Helvetica" font-size="15" fill="#000000" xml:space="preserve" x="712" y="220">owning_epn</text>
</g>
<g>
	<text font-family="Helvetica" font-size="15" fill="#000000" xml:space="preserve" x="469" y="249">0..1</text>
</g>
<g>
	<text font-family="Helvetica" font-size="15" fill="#000000" xml:space="preserve" x="786" y="249">1</text>
</g>
</svg>
