<?xml version="1.0" encoding="UTF-8" standalone="no"?>
<!-- Created with Bouml (http://bouml.free.fr/) -->
<!DOCTYPE svg PUBLIC "-//W3C//DTD SVG 1.1//EN" "http://www.w3.org/Graphics/SVG/1.1/DTD/svg11.dtd">
<svg width="1086" height="469" version="1.1" xmlns="http://www.w3.org/2000/svg">
<g>
	<rect fill="#808080" stroke="none" stroke-opacity="1" x="789" y="203" width="3" height="65" />
	<rect fill="#808080" stroke="none" stroke-opacity="1" x="687" y="265" width="105" height="3" />
	<rect fill="#ffffff" stroke="black" stroke-width="1" stroke-opacity="1" x="683" y="199" width="106" height="66" />
	<text font-family="Helvetica" font-size="15" fill="#000000" xml:space="preserve" font-weight="bold" text-anchor="middle" x="736" y="216">StateVariable</text>
	<line stroke="black" stroke-opacity="1" x1="683" y1="219" x2="789" y2="219" />
	<text font-family="Helvetica" font-size="15" fill="#000000" xml:space="preserve" x="687" y="236">name : string</text>
	<text font-family="Helvetica" font-size="15" fill="#000000" xml:space="preserve" x="687" y="254">value : string</text>
	<line stroke="black" stroke-opacity="1" x1="683" y1="257" x2="789" y2="257" />
</g>
<g>
	<rect fill="#808080" stroke="none" stroke-opacity="1" x="442" y="304" width="3" height="83" />
	<rect fill="#808080" stroke="none" stroke-opacity="1" x="300" y="384" width="145" height="3" />
	<rect fill="#ffffff" stroke="black" stroke-width="1" stroke-opacity="1" x="296" y="300" width="146" height="84" />
	<text font-family="Helvetica" font-size="15" fill="#000000" xml:space="preserve" font-weight="bold" text-anchor="middle" x="369" y="317">Subunit</text>
	<line stroke="black" stroke-opacity="1" x1="296" y1="320" x2="442" y2="320" />
	<text font-family="Helvetica" font-size="15" fill="#000000" xml:space="preserve" x="300" y="337">cardinality : int</text>
	<text font-family="Helvetica" font-size="15" fill="#000000" xml:space="preserve" x="300" y="355">natures : cv</text>
	<text font-family="Helvetica" font-size="15" fill="#000000" xml:space="preserve" x="300" y="373">subunit_type : Enum</text>
	<line stroke="black" stroke-opacity="1" x1="296" y1="376" x2="442" y2="376" />
</g>
<g>
	<rect fill="#808080" stroke="none" stroke-opacity="1" x="816" y="303" width="3" height="35" />
	<rect fill="#808080" stroke="none" stroke-opacity="1" x="656" y="335" width="163" height="3" />
	<rect fill="#ffffff" stroke="black" stroke-width="1" stroke-opacity="1" x="652" y="299" width="164" height="36" />
	<text font-family="Helvetica" font-size="15" fill="#000000" xml:space="preserve" font-weight="bold" text-anchor="middle" x="734" y="316">SubunitStateVariable</text>
	<line stroke="black" stroke-opacity="1" x1="652" y1="319" x2="816" y2="319" />
	<line stroke="black" stroke-opacity="1" x1="652" y1="327" x2="816" y2="327" />
</g>
<g>
	<rect fill="#808080" stroke="none" stroke-opacity="1" x="1062" y="420" width="3" height="35" />
	<rect fill="#808080" stroke="none" stroke-opacity="1" x="992" y="452" width="73" height="3" />
	<rect fill="#ffffff" stroke="black" stroke-width="1" stroke-opacity="1" x="988" y="416" width="74" height="36" />
	<text font-family="Helvetica" font-size="15" fill="#000000" xml:space="preserve" font-weight="bold" text-anchor="middle" x="1025" y="433">Complex</text>
	<line stroke="black" stroke-opacity="1" x1="988" y1="436" x2="1062" y2="436" />
	<line stroke="black" stroke-opacity="1" x1="988" y1="444" x2="1062" y2="444" />
</g>
<g>
	<line stroke="black" stroke-opacity="1" x1="736" y1="298" x2="736" y2="275" />
	<line stroke="black" stroke-opacity="1" x1="736" y1="269" x2="730" y2="275" />
	<line stroke="black" stroke-opacity="1" x1="736" y1="269" x2="742" y2="275" />
	<line stroke="black" stroke-opacity="1" x1="730" y1="275" x2="742" y2="275" />
</g>
<g>
	<line stroke="black" stroke-opacity="1" x1="446" y1="319" x2="631" y2="319" />
	<polygon fill="#ffffff" stroke="black" stroke-opacity="1" points="446,319 452,313 458,319 452,325" />
</g>
<g>
	<line stroke="black" stroke-opacity="1" x1="631" y1="319" x2="651" y2="319" />
</g>
<g>
	<line stroke="black" stroke-opacity="1" x1="987" y1="436" x2="750" y2="436" />
	<polygon fill="#000000" stroke="black" stroke-opacity="1" points="987,436 981,442 975,436 981,430" />
</g>
<g>
	<line stroke="black" stroke-opacity="1" x1="750" y1="436" x2="750" y2="366" />
</g>
<g>
	<line stroke="black" stroke-opacity="1" x1="750" y1="366" x2="446" y2="366" />
</g>
<g>
	<line stroke="black" stroke-opacity="1" x1="369" y1="388" x2="369" y2="429" />
	<polygon fill="#000000" stroke="black" stroke-opacity="1" points="369,388 375,394 369,400 363,394" />
</g>
<g>
	<line stroke="black" stroke-opacity="1" x1="369" y1="429" x2="213" y2="429" />
</g>
<g>
	<line stroke="black" stroke-opacity="1" x1="213" y1="429" x2="213" y2="343" />
</g>
<g>
	<line stroke="black" stroke-opacity="1" x1="295" y1="343" x2="289" y2="337" />
	<line stroke="black" stroke-opacity="1" x1="295" y1="343" x2="289" y2="349" />
	<line stroke="black" stroke-opacity="1" x1="213" y1="343" x2="295" y2="343" />
</g>
<g>
	<rect fill="#808080" stroke="none" stroke-opacity="1" x="1070" y="219" width="3" height="35" />
	<rect fill="#808080" stroke="none" stroke-opacity="1" x="982" y="251" width="91" height="3" />
	<rect fill="#ffffff" stroke="black" stroke-width="1" stroke-opacity="1" x="978" y="215" width="92" height="36" />
	<text font-family="Helvetica" font-size="15" fill="#000000" xml:space="preserve" font-weight="bold" font-style="italic" text-anchor="middle" x="1024" y="232">StatefulEPN</text>
	<line stroke="black" stroke-opacity="1" x1="978" y1="235" x2="1070" y2="235" />
	<line stroke="black" stroke-opacity="1" x1="978" y1="243" x2="1070" y2="243" />
</g>
<g>
	<rect fill="#808080" stroke="none" stroke-opacity="1" x="614" y="87" width="3" height="35" />
	<rect fill="#808080" stroke="none" stroke-opacity="1" x="520" y="119" width="97" height="3" />
	<rect fill="#ffffff" stroke="black" stroke-width="1" stroke-opacity="1" x="516" y="83" width="98" height="36" />
	<text font-family="Helvetica" font-size="15" fill="#000000" xml:space="preserve" font-weight="bold" font-style="italic" text-anchor="middle" x="565" y="100">AuxiliaryUnit</text>
	<line stroke="black" stroke-opacity="1" x1="516" y1="103" x2="614" y2="103" />
	<line stroke="black" stroke-opacity="1" x1="516" y1="111" x2="614" y2="111" />
</g>
<g>
	<line stroke="black" stroke-opacity="1" x1="567" y1="162" x2="567" y2="129" />
	<line stroke="black" stroke-opacity="1" x1="567" y1="123" x2="561" y2="129" />
	<line stroke="black" stroke-opacity="1" x1="567" y1="123" x2="573" y2="129" />
	<line stroke="black" stroke-opacity="1" x1="561" y1="129" x2="573" y2="129" />
</g>
<g>
	<line stroke="black" stroke-opacity="1" x1="1026" y1="415" x2="1026" y2="261" />
	<line stroke="black" stroke-opacity="1" x1="1026" y1="255" x2="1020" y2="261" />
	<line stroke="black" stroke-opacity="1" x1="1026" y1="255" x2="1032" y2="261" />
	<line stroke="black" stroke-opacity="1" x1="1020" y1="261" x2="1032" y2="261" />
</g>
<g>
	<line stroke="black" stroke-opacity="1" x1="738" y1="198" x2="738" y2="162" />
</g>
<g>
	<line stroke="black" stroke-opacity="1" x1="738" y1="162" x2="567" y2="162" />
</g>
<g>
	<line stroke="black" stroke-opacity="1" x1="567" y1="162" x2="567" y2="129" />
	<line stroke="black" stroke-opacity="1" x1="567" y1="123" x2="561" y2="129" />
	<line stroke="black" stroke-opacity="1" x1="567" y1="123" x2="573" y2="129" />
	<line stroke="black" stroke-opacity="1" x1="561" y1="129" x2="573" y2="129" />
</g>
<g>
	<line stroke="black" stroke-opacity="1" x1="371" y1="299" x2="371" y2="162" />
</g>
<g>
	<line stroke="black" stroke-opacity="1" x1="371" y1="162" x2="567" y2="162" />
</g>
<g>
	<line stroke="black" stroke-opacity="1" x1="977" y1="234" x2="793" y2="234" />
	<polygon fill="#000000" stroke="black" stroke-opacity="1" points="977,234 971,240 965,234 971,228" />
</g>
<g>
	<text font-family="Helvetica" font-size="15" fill="#000000" xml:space="preserve" x="599" y="313">states</text>
</g>
<g>
	<text font-family="Helvetica" font-size="15" fill="#000000" xml:space="preserve" x="456" y="313">owning_subunit</text>
</g>
<g>
	<text font-family="Helvetica" font-size="15" fill="#000000" xml:space="preserve" x="635" y="342">*</text>
</g>
<g>
	<text font-family="Helvetica" font-size="15" fill="#000000" xml:space="preserve" x="456" y="342">1</text>
</g>
<g>
	<text font-family="Helvetica" font-size="15" fill="#000000" xml:space="preserve" x="456" y="360">subunits</text>
</g>
<g>
	<text font-family="Helvetica" font-size="15" fill="#000000" xml:space="preserve" x="862" y="430">owning_complex</text>
</g>
<g>
	<text font-family="Helvetica" font-size="15" fill="#000000" xml:space="preserve" x="456" y="389">*</text>
</g>
<g>
	<text font-family="Helvetica" font-size="15" fill="#000000" xml:space="preserve" x="969" y="459">1</text>
</g>
<g>
	<text font-family="Helvetica" font-size="15" fill="#000000" xml:space="preserve" x="232" y="337">children</text>
</g>
<g>
	<text font-family="Helvetica" font-size="15" fill="#000000" xml:space="preserve" x="279" y="366">*</text>
</g>
<g>
	<text font-family="Helvetica" font-size="15" fill="#000000" xml:space="preserve" x="351" y="411">1</text>
</g>
<g>
	<text font-family="Helvetica" font-size="15" fill="#000000" xml:space="preserve" x="803" y="228">states</text>
</g>
<g>
	<text font-family="Helvetica" font-size="15" fill="#000000" xml:space="preserve" x="885" y="228">owning_epn</text>
</g>
<g>
	<text font-family="Helvetica" font-size="15" fill="#000000" xml:space="preserve" x="803" y="257">*</text>
</g>
<g>
	<text font-family="Helvetica" font-size="15" fill="#000000" xml:space="preserve" x="959" y="257">1</text>
</g>
</svg>
