<?xml version="1.0" encoding="UTF-8" standalone="no"?>
<!-- Created with Bouml (http://bouml.free.fr/) -->
<!DOCTYPE svg PUBLIC "-//W3C//DTD SVG 1.1//EN" "http://www.w3.org/Graphics/SVG/1.1/DTD/svg11.dtd">
<svg width="838" height="540" version="1.1" xmlns="http://www.w3.org/2000/svg">
<g>
	<rect fill="#808080" stroke="none" stroke-opacity="1" x="263" y="395" width="3" height="83" />
	<rect fill="#808080" stroke="none" stroke-opacity="1" x="121" y="475" width="145" height="3" />
	<rect fill="#ffffc0" stroke="black" stroke-width="1" stroke-opacity="1" x="117" y="391" width="146" height="84" />
	<text font-family="Helvetica" font-size="15" fill="#000000" xml:space="preserve" font-weight="bold" text-anchor="middle" x="190" y="408">Subunit</text>
	<line stroke="black" stroke-opacity="1" x1="117" y1="411" x2="263" y2="411" />
	<text font-family="Helvetica" font-size="15" fill="#000000" xml:space="preserve" x="121" y="428">cardinality : int</text>
	<text font-family="Helvetica" font-size="15" fill="#000000" xml:space="preserve" x="121" y="446">name : string</text>
	<text font-family="Helvetica" font-size="15" fill="#000000" xml:space="preserve" x="121" y="464">subunit_type : Enum</text>
	<line stroke="black" stroke-opacity="1" x1="117" y1="467" x2="263" y2="467" />
</g>
<g>
	<rect fill="#808080" stroke="none" stroke-opacity="1" x="814" y="441" width="3" height="35" />
	<rect fill="#808080" stroke="none" stroke-opacity="1" x="744" y="473" width="73" height="3" />
	<rect fill="#ffffc0" stroke="black" stroke-width="1" stroke-opacity="1" x="740" y="437" width="74" height="36" />
	<text font-family="Helvetica" font-size="15" fill="#000000" xml:space="preserve" font-weight="bold" text-anchor="middle" x="777" y="454">Complex</text>
	<line stroke="black" stroke-opacity="1" x1="740" y1="457" x2="814" y2="457" />
	<line stroke="black" stroke-opacity="1" x1="740" y1="465" x2="814" y2="465" />
</g>
<g>
	<rect fill="#808080" stroke="none" stroke-opacity="1" x="541" y="224" width="3" height="65" />
	<rect fill="#808080" stroke="none" stroke-opacity="1" x="439" y="286" width="105" height="3" />
	<rect fill="#ffffc0" stroke="black" stroke-width="1" stroke-opacity="1" x="435" y="220" width="106" height="66" />
	<text font-family="Helvetica" font-size="15" fill="#000000" xml:space="preserve" font-weight="bold" text-anchor="middle" x="488" y="237">StateVariable</text>
	<line stroke="black" stroke-opacity="1" x1="435" y1="240" x2="541" y2="240" />
	<text font-family="Helvetica" font-size="15" fill="#000000" xml:space="preserve" x="439" y="257">name : string</text>
	<text font-family="Helvetica" font-size="15" fill="#000000" xml:space="preserve" x="439" y="275">value : string</text>
	<line stroke="black" stroke-opacity="1" x1="435" y1="278" x2="541" y2="278" />
</g>
<g>
	<rect fill="#808080" stroke="none" stroke-opacity="1" x="568" y="324" width="3" height="35" />
	<rect fill="#808080" stroke="none" stroke-opacity="1" x="408" y="356" width="163" height="3" />
	<rect fill="#ffffc0" stroke="black" stroke-width="1" stroke-opacity="1" x="404" y="320" width="164" height="36" />
	<text font-family="Helvetica" font-size="15" fill="#000000" xml:space="preserve" font-weight="bold" text-anchor="middle" x="486" y="337">SubunitStateVariable</text>
	<line stroke="black" stroke-opacity="1" x1="404" y1="340" x2="568" y2="340" />
	<line stroke="black" stroke-opacity="1" x1="404" y1="348" x2="568" y2="348" />
</g>
<g>
	<line stroke="black" stroke-opacity="1" x1="190" y1="479" x2="190" y2="520" />
</g>
<g>
	<line stroke="black" stroke-opacity="1" x1="190" y1="520" x2="34" y2="520" />
</g>
<g>
	<line stroke="black" stroke-opacity="1" x1="739" y1="457" x2="502" y2="457" />
	<polygon fill="#000000" stroke="black" stroke-opacity="1" points="739,457 733,463 727,457 733,451" />
</g>
<g>
	<line stroke="black" stroke-opacity="1" x1="488" y1="319" x2="488" y2="296" />
	<line stroke="black" stroke-opacity="1" x1="488" y1="290" x2="482" y2="296" />
	<line stroke="black" stroke-opacity="1" x1="488" y1="290" x2="494" y2="296" />
	<line stroke="black" stroke-opacity="1" x1="482" y1="296" x2="494" y2="296" />
</g>
<g>
	<line stroke="black" stroke-opacity="1" x1="267" y1="410" x2="383" y2="410" />
	<polygon fill="#ffffff" stroke="black" stroke-opacity="1" points="267,410 273,404 279,410 273,416" />
</g>
<g>
	<line stroke="black" stroke-opacity="1" x1="34" y1="520" x2="34" y2="434" />
</g>
<g>
	<line stroke="black" stroke-opacity="1" x1="116" y1="434" x2="110" y2="428" />
	<line stroke="black" stroke-opacity="1" x1="116" y1="434" x2="110" y2="440" />
	<line stroke="black" stroke-opacity="1" x1="34" y1="434" x2="116" y2="434" />
</g>
<g>
	<line stroke="black" stroke-opacity="1" x1="383" y1="410" x2="383" y2="340" />
</g>
<g>
	<line stroke="black" stroke-opacity="1" x1="383" y1="340" x2="403" y2="340" />
</g>
<g>
	<line stroke="black" stroke-opacity="1" x1="502" y1="457" x2="267" y2="457" />
</g>
<g>
	<rect fill="#808080" stroke="none" stroke-opacity="1" x="410" y="108" width="3" height="35" />
	<rect fill="#808080" stroke="none" stroke-opacity="1" x="272" y="140" width="141" height="3" />
	<rect fill="#ffffc0" stroke="black" stroke-width="1" stroke-opacity="1" x="268" y="104" width="142" height="36" />
	<text font-family="Helvetica" font-size="15" fill="#000000" xml:space="preserve" font-weight="bold" font-style="italic" text-anchor="middle" x="339" y="121">SBGNAuxiliaryUnit</text>
	<line stroke="black" stroke-opacity="1" x1="268" y1="124" x2="410" y2="124" />
	<line stroke="black" stroke-opacity="1" x1="268" y1="132" x2="410" y2="132" />
</g>
<g>
	<rect fill="#808080" stroke="none" stroke-opacity="1" x="822" y="240" width="3" height="35" />
	<rect fill="#808080" stroke="none" stroke-opacity="1" x="734" y="272" width="91" height="3" />
	<rect fill="#ffffc0" stroke="black" stroke-width="1" stroke-opacity="1" x="730" y="236" width="92" height="36" />
	<text font-family="Helvetica" font-size="15" fill="#000000" xml:space="preserve" font-weight="bold" font-style="italic" text-anchor="middle" x="776" y="253">StatefulEPN</text>
	<line stroke="black" stroke-opacity="1" x1="730" y1="256" x2="822" y2="256" />
	<line stroke="black" stroke-opacity="1" x1="730" y1="264" x2="822" y2="264" />
</g>
<g>
	<line stroke="black" stroke-opacity="1" x1="490" y1="219" x2="490" y2="183" />
</g>
<g>
	<line stroke="black" stroke-opacity="1" x1="778" y1="436" x2="778" y2="282" />
	<line stroke="black" stroke-opacity="1" x1="778" y1="276" x2="772" y2="282" />
	<line stroke="black" stroke-opacity="1" x1="778" y1="276" x2="784" y2="282" />
	<line stroke="black" stroke-opacity="1" x1="772" y1="282" x2="784" y2="282" />
</g>
<g>
	<line stroke="black" stroke-opacity="1" x1="192" y1="390" x2="192" y2="183" />
</g>
<g>
	<line stroke="black" stroke-opacity="1" x1="729" y1="255" x2="545" y2="255" />
	<polygon fill="#000000" stroke="black" stroke-opacity="1" points="729,255 723,261 717,255 723,249" />
</g>
<g>
	<line stroke="black" stroke-opacity="1" x1="490" y1="183" x2="341" y2="183" />
</g>
<g>
	<line stroke="black" stroke-opacity="1" x1="192" y1="183" x2="341" y2="183" />
</g>
<g>
	<line stroke="black" stroke-opacity="1" x1="341" y1="183" x2="341" y2="150" />
	<line stroke="black" stroke-opacity="1" x1="341" y1="144" x2="335" y2="150" />
	<line stroke="black" stroke-opacity="1" x1="341" y1="144" x2="347" y2="150" />
	<line stroke="black" stroke-opacity="1" x1="335" y1="150" x2="347" y2="150" />
</g>
<g>
	<line stroke="black" stroke-opacity="1" x1="341" y1="183" x2="341" y2="150" />
	<line stroke="black" stroke-opacity="1" x1="341" y1="144" x2="335" y2="150" />
	<line stroke="black" stroke-opacity="1" x1="341" y1="144" x2="347" y2="150" />
	<line stroke="black" stroke-opacity="1" x1="335" y1="150" x2="347" y2="150" />
</g>
<g>
	<text font-family="Helvetica" font-size="15" fill="#000000" xml:space="preserve" x="721" y="480">1</text>
</g>
<g>
	<text font-family="Helvetica" font-size="15" fill="#000000" xml:space="preserve" x="100" y="457">*</text>
</g>
<g>
	<text font-family="Helvetica" font-size="15" fill="#000000" xml:space="preserve" x="277" y="404">owning_subunit</text>
</g>
<g>
	<text font-family="Helvetica" font-size="15" fill="#000000" xml:space="preserve" x="53" y="428">children</text>
</g>
<g>
	<text font-family="Helvetica" font-size="15" fill="#000000" xml:space="preserve" x="172" y="502">1</text>
</g>
<g>
	<text font-family="Helvetica" font-size="15" fill="#000000" xml:space="preserve" x="277" y="433">1</text>
</g>
<g>
	<text font-family="Helvetica" font-size="15" fill="#000000" xml:space="preserve" x="614" y="451">owning_complex</text>
</g>
<g>
	<text font-family="Helvetica" font-size="15" fill="#000000" xml:space="preserve" x="277" y="451">subunits</text>
</g>
<g>
	<text font-family="Helvetica" font-size="15" fill="#000000" xml:space="preserve" x="555" y="278">*</text>
</g>
<g>
	<text font-family="Helvetica" font-size="15" fill="#000000" xml:space="preserve" x="387" y="363">*</text>
</g>
<g>
	<text font-family="Helvetica" font-size="15" fill="#000000" xml:space="preserve" x="555" y="249">states</text>
</g>
<g>
	<text font-family="Helvetica" font-size="15" fill="#000000" xml:space="preserve" x="711" y="278">1</text>
</g>
<g>
	<text font-family="Helvetica" font-size="15" fill="#000000" xml:space="preserve" x="351" y="334">states</text>
</g>
<g>
	<text font-family="Helvetica" font-size="15" fill="#000000" xml:space="preserve" x="637" y="249">owning_epn</text>
</g>
<g>
	<text font-family="Helvetica" font-size="15" fill="#000000" xml:space="preserve" x="277" y="480">*</text>
</g>
</svg>
