<?xml version="1.0" encoding="UTF-8" standalone="no"?>
<!-- Created with Bouml (http://bouml.free.fr/) -->
<!DOCTYPE svg PUBLIC "-//W3C//DTD SVG 1.1//EN" "http://www.w3.org/Graphics/SVG/1.1/DTD/svg11.dtd">
<svg width="1245" height="462" version="1.1" xmlns="http://www.w3.org/2000/svg">
<g>
	<rect fill="#808080" stroke="none" stroke-opacity="1" x="706" y="113" width="3" height="69" />
	<rect fill="#808080" stroke="none" stroke-opacity="1" x="592" y="179" width="117" height="3" />
	<rect fill="#ffffff" stroke="black" stroke-width="1" stroke-opacity="1" x="588" y="109" width="118" height="70" />
	<text font-family="Helvetica" font-size="15" fill="#000000" xml:space="preserve" font-weight="bold" font-style="italic" text-anchor="middle" x="647" y="126">EntityPoolNode</text>
	<line stroke="black" stroke-opacity="1" x1="588" y1="129" x2="706" y2="129" />
	<text font-family="Helvetica" font-size="15" fill="#000000" xml:space="preserve" x="592" y="146">cardinality : int</text>
	<line stroke="black" stroke-opacity="1" x1="588" y1="149" x2="706" y2="149" />
</g>
<g>
	<rect fill="#808080" stroke="none" stroke-opacity="1" x="719" y="413" width="3" height="35" />
	<rect fill="#808080" stroke="none" stroke-opacity="1" x="603" y="445" width="119" height="3" />
	<rect fill="#ffffff" stroke="black" stroke-width="1" stroke-opacity="1" x="599" y="409" width="120" height="36" />
	<text font-family="Helvetica" font-size="15" fill="#000000" xml:space="preserve" font-weight="bold" text-anchor="middle" x="659" y="426">Macromolecule</text>
	<line stroke="black" stroke-opacity="1" x1="599" y1="429" x2="719" y2="429" />
	<line stroke="black" stroke-opacity="1" x1="599" y1="437" x2="719" y2="437" />
</g>
<g>
	<rect fill="#808080" stroke="none" stroke-opacity="1" x="366" y="413" width="3" height="35" />
	<rect fill="#808080" stroke="none" stroke-opacity="1" x="296" y="445" width="73" height="3" />
	<rect fill="#ffffff" stroke="black" stroke-width="1" stroke-opacity="1" x="292" y="409" width="74" height="36" />
	<text font-family="Helvetica" font-size="15" fill="#000000" xml:space="preserve" font-weight="bold" text-anchor="middle" x="329" y="426">Complex</text>
	<line stroke="black" stroke-opacity="1" x1="292" y1="429" x2="366" y2="429" />
	<line stroke="black" stroke-opacity="1" x1="292" y1="437" x2="366" y2="437" />
</g>
<g>
	<rect fill="#808080" stroke="none" stroke-opacity="1" x="1046" y="306" width="3" height="35" />
	<rect fill="#808080" stroke="none" stroke-opacity="1" x="948" y="338" width="101" height="3" />
	<rect fill="#ffffff" stroke="black" stroke-width="1" stroke-opacity="1" x="944" y="302" width="102" height="36" />
	<text font-family="Helvetica" font-size="15" fill="#000000" xml:space="preserve" font-weight="bold" font-style="italic" text-anchor="middle" x="995" y="319">StatelessEPN</text>
	<line stroke="black" stroke-opacity="1" x1="944" y1="322" x2="1046" y2="322" />
	<line stroke="black" stroke-opacity="1" x1="944" y1="330" x2="1046" y2="330" />
</g>
<g>
	<rect fill="#808080" stroke="none" stroke-opacity="1" x="1058" y="412" width="3" height="35" />
	<rect fill="#808080" stroke="none" stroke-opacity="1" x="934" y="444" width="127" height="3" />
	<rect fill="#ffffff" stroke="black" stroke-width="1" stroke-opacity="1" x="930" y="408" width="128" height="36" />
	<text font-family="Helvetica" font-size="15" fill="#000000" xml:space="preserve" font-weight="bold" text-anchor="middle" x="994" y="425">SimpleChemical</text>
	<line stroke="black" stroke-opacity="1" x1="930" y1="428" x2="1058" y2="428" />
	<line stroke="black" stroke-opacity="1" x1="930" y1="436" x2="1058" y2="436" />
</g>
<g>
	<rect fill="#808080" stroke="none" stroke-opacity="1" x="1229" y="414" width="3" height="35" />
	<rect fill="#808080" stroke="none" stroke-opacity="1" x="1105" y="446" width="127" height="3" />
	<rect fill="#ffffff" stroke="black" stroke-width="1" stroke-opacity="1" x="1101" y="410" width="128" height="36" />
	<text font-family="Helvetica" font-size="15" fill="#000000" xml:space="preserve" font-weight="bold" text-anchor="middle" x="1165" y="427">PerturbingAgent</text>
	<line stroke="black" stroke-opacity="1" x1="1101" y1="430" x2="1229" y2="430" />
	<line stroke="black" stroke-opacity="1" x1="1101" y1="438" x2="1229" y2="438" />
</g>
<g>
	<rect fill="#808080" stroke="none" stroke-opacity="1" x="897" y="414" width="3" height="35" />
	<rect fill="#808080" stroke="none" stroke-opacity="1" x="765" y="446" width="135" height="3" />
	<rect fill="#ffffff" stroke="black" stroke-width="1" stroke-opacity="1" x="761" y="410" width="136" height="36" />
	<text font-family="Helvetica" font-size="15" fill="#000000" xml:space="preserve" font-weight="bold" text-anchor="middle" x="829" y="427">UnspecifiedEntity</text>
	<line stroke="black" stroke-opacity="1" x1="761" y1="430" x2="897" y2="430" />
	<line stroke="black" stroke-opacity="1" x1="761" y1="438" x2="897" y2="438" />
</g>
<g>
	<rect fill="#808080" stroke="none" stroke-opacity="1" x="575" y="412" width="3" height="35" />
	<rect fill="#808080" stroke="none" stroke-opacity="1" x="429" y="444" width="149" height="3" />
	<rect fill="#ffffff" stroke="black" stroke-width="1" stroke-opacity="1" x="425" y="408" width="150" height="36" />
	<text font-family="Helvetica" font-size="15" fill="#000000" xml:space="preserve" font-weight="bold" text-anchor="middle" x="500" y="425">NucleicAcidFeature</text>
	<line stroke="black" stroke-opacity="1" x1="425" y1="428" x2="575" y2="428" />
	<line stroke="black" stroke-opacity="1" x1="425" y1="436" x2="575" y2="436" />
</g>
<g>
	<rect fill="#808080" stroke="none" stroke-opacity="1" x="254" y="159" width="3" height="35" />
	<rect fill="#808080" stroke="none" stroke-opacity="1" x="160" y="191" width="97" height="3" />
	<rect fill="#ffffff" stroke="black" stroke-width="1" stroke-opacity="1" x="156" y="155" width="98" height="36" />
	<text font-family="Helvetica" font-size="15" fill="#000000" xml:space="preserve" font-weight="bold" font-style="italic" text-anchor="middle" x="205" y="172">CloneMarker</text>
	<line stroke="black" stroke-opacity="1" x1="156" y1="175" x2="254" y2="175" />
	<line stroke="black" stroke-opacity="1" x1="156" y1="183" x2="254" y2="183" />
</g>
<g>
	<rect fill="#808080" stroke="none" stroke-opacity="1" x="402" y="312" width="3" height="35" />
	<rect fill="#808080" stroke="none" stroke-opacity="1" x="254" y="344" width="151" height="3" />
	<rect fill="#ffffff" stroke="black" stroke-width="1" stroke-opacity="1" x="250" y="308" width="152" height="36" />
	<text font-family="Helvetica" font-size="15" fill="#000000" xml:space="preserve" font-weight="bold" text-anchor="middle" x="326" y="325">SimpleCloneMarker</text>
	<line stroke="black" stroke-opacity="1" x1="250" y1="328" x2="402" y2="328" />
	<line stroke="black" stroke-opacity="1" x1="250" y1="336" x2="402" y2="336" />
</g>
<g>
	<rect fill="#808080" stroke="none" stroke-opacity="1" x="258" y="39" width="3" height="65" />
	<rect fill="#808080" stroke="none" stroke-opacity="1" x="150" y="101" width="111" height="3" />
	<rect fill="#ffffff" stroke="black" stroke-width="1" stroke-opacity="1" x="146" y="35" width="112" height="66" />
	<text font-family="Helvetica" font-size="15" fill="#000000" xml:space="preserve" font-weight="bold" text-anchor="middle" x="202" y="52">AttributeValue</text>
	<line stroke="black" stroke-opacity="1" x1="146" y1="55" x2="258" y2="55" />
	<text font-family="Helvetica" font-size="15" fill="#000000" xml:space="preserve" x="150" y="72">code : string</text>
	<text font-family="Helvetica" font-size="15" fill="#000000" xml:space="preserve" x="150" y="90">value : object</text>
	<line stroke="black" stroke-opacity="1" x1="146" y1="93" x2="258" y2="93" />
</g>
<g>
	<line stroke="black" stroke-opacity="1" x1="997" y1="301" x2="997" y2="242" />
</g>
<g>
	<line stroke="black" stroke-opacity="1" x1="997" y1="242" x2="648" y2="242" />
</g>
<g>
	<line stroke="black" stroke-opacity="1" x1="648" y1="242" x2="648" y2="189" />
	<line stroke="black" stroke-opacity="1" x1="648" y1="183" x2="642" y2="189" />
	<line stroke="black" stroke-opacity="1" x1="648" y1="183" x2="654" y2="189" />
	<line stroke="black" stroke-opacity="1" x1="642" y1="189" x2="654" y2="189" />
</g>
<g>
	<line stroke="black" stroke-opacity="1" x1="996" y1="407" x2="996" y2="375" />
</g>
<g>
	<line stroke="black" stroke-opacity="1" x1="996" y1="375" x2="996" y2="348" />
	<line stroke="black" stroke-opacity="1" x1="996" y1="342" x2="990" y2="348" />
	<line stroke="black" stroke-opacity="1" x1="996" y1="342" x2="1002" y2="348" />
	<line stroke="black" stroke-opacity="1" x1="990" y1="348" x2="1002" y2="348" />
</g>
<g>
	<line stroke="black" stroke-opacity="1" x1="1166" y1="409" x2="1166" y2="376" />
</g>
<g>
	<line stroke="black" stroke-opacity="1" x1="1166" y1="376" x2="996" y2="376" />
</g>
<g>
	<line stroke="black" stroke-opacity="1" x1="996" y1="376" x2="996" y2="348" />
	<line stroke="black" stroke-opacity="1" x1="996" y1="342" x2="990" y2="348" />
	<line stroke="black" stroke-opacity="1" x1="996" y1="342" x2="1002" y2="348" />
	<line stroke="black" stroke-opacity="1" x1="990" y1="348" x2="1002" y2="348" />
</g>
<g>
	<line stroke="black" stroke-opacity="1" x1="831" y1="409" x2="831" y2="376" />
</g>
<g>
	<line stroke="black" stroke-opacity="1" x1="831" y1="376" x2="996" y2="376" />
</g>
<g>
	<line stroke="black" stroke-opacity="1" x1="996" y1="376" x2="996" y2="348" />
	<line stroke="black" stroke-opacity="1" x1="996" y1="342" x2="990" y2="348" />
	<line stroke="black" stroke-opacity="1" x1="996" y1="342" x2="1002" y2="348" />
	<line stroke="black" stroke-opacity="1" x1="990" y1="348" x2="1002" y2="348" />
</g>
<g>
	<line stroke="black" stroke-opacity="1" x1="587" y1="175" x2="423" y2="175" />
	<polygon fill="#000000" stroke="black" stroke-opacity="1" points="587,175 581,181 575,175 581,169" />
</g>
<g>
	<line stroke="black" stroke-opacity="1" x1="423" y1="175" x2="258" y2="175" />
</g>
<g>
	<line stroke="black" stroke-opacity="1" x1="327" y1="307" x2="327" y2="251" />
</g>
<g>
	<line stroke="black" stroke-opacity="1" x1="327" y1="251" x2="206" y2="251" />
</g>
<g>
	<line stroke="black" stroke-opacity="1" x1="206" y1="251" x2="206" y2="201" />
	<line stroke="black" stroke-opacity="1" x1="206" y1="195" x2="200" y2="201" />
	<line stroke="black" stroke-opacity="1" x1="206" y1="195" x2="212" y2="201" />
	<line stroke="black" stroke-opacity="1" x1="200" y1="201" x2="212" y2="201" />
</g>
<g>
	<line stroke="black" stroke-opacity="1" x1="587" y1="121" x2="373" y2="121" />
	<polygon fill="#000000" stroke="black" stroke-opacity="1" points="587,121 581,127 575,121 581,115" />
</g>
<g>
	<line stroke="black" stroke-opacity="1" x1="373" y1="121" x2="373" y2="70" />
</g>
<g>
	<line stroke="black" stroke-opacity="1" x1="262" y1="70" x2="268" y2="76" />
	<line stroke="black" stroke-opacity="1" x1="262" y1="70" x2="268" y2="64" />
	<line stroke="black" stroke-opacity="1" x1="373" y1="70" x2="262" y2="70" />
</g>
<g>
	<rect fill="#808080" stroke="none" stroke-opacity="1" x="1172" y="135" width="3" height="65" />
	<rect fill="#808080" stroke="none" stroke-opacity="1" x="1080" y="197" width="95" height="3" />
	<rect fill="#ffffff" stroke="black" stroke-width="1" stroke-opacity="1" x="1076" y="131" width="96" height="66" />
	<text font-family="Helvetica" font-size="15" fill="#000000" xml:space="preserve" font-weight="bold" text-anchor="middle" x="1124" y="148">EntityType</text>
	<line stroke="black" stroke-opacity="1" x1="1076" y1="151" x2="1172" y2="151" />
	<text font-family="Helvetica" font-size="15" fill="#000000" xml:space="preserve" x="1080" y="168">name : string</text>
	<text font-family="Helvetica" font-size="15" fill="#000000" xml:space="preserve" x="1080" y="186">natures : cv</text>
	<line stroke="black" stroke-opacity="1" x1="1076" y1="189" x2="1172" y2="189" />
</g>
<g>
	<rect fill="#808080" stroke="none" stroke-opacity="1" x="546" y="306" width="3" height="35" />
	<rect fill="#808080" stroke="none" stroke-opacity="1" x="458" y="338" width="91" height="3" />
	<rect fill="#ffffff" stroke="black" stroke-width="1" stroke-opacity="1" x="454" y="302" width="92" height="36" />
	<text font-family="Helvetica" font-size="15" fill="#000000" xml:space="preserve" font-weight="bold" font-style="italic" text-anchor="middle" x="500" y="319">StatefulEPN</text>
	<line stroke="black" stroke-opacity="1" x1="454" y1="322" x2="546" y2="322" />
	<line stroke="black" stroke-opacity="1" x1="454" y1="330" x2="546" y2="330" />
</g>
<g>
	<rect fill="#808080" stroke="none" stroke-opacity="1" x="692" y="20" width="3" height="35" />
	<rect fill="#808080" stroke="none" stroke-opacity="1" x="608" y="52" width="87" height="3" />
	<rect fill="#ffffff" stroke="black" stroke-width="1" stroke-opacity="1" x="604" y="16" width="88" height="36" />
	<text font-family="Helvetica" font-size="15" fill="#000000" xml:space="preserve" font-weight="bold" font-style="italic" text-anchor="middle" x="648" y="33">SBGNNode</text>
	<line stroke="black" stroke-opacity="1" x1="604" y1="36" x2="692" y2="36" />
	<line stroke="black" stroke-opacity="1" x1="604" y1="44" x2="692" y2="44" />
</g>
<g>
	<line stroke="black" stroke-opacity="1" x1="710" y1="175" x2="893" y2="175" />
	<polygon fill="#ffffff" stroke="black" stroke-opacity="1" points="710,175 716,169 722,175 716,181" />
</g>
<g>
	<line stroke="black" stroke-opacity="1" x1="893" y1="175" x2="893" y2="166" />
</g>
<g>
	<line stroke="black" stroke-opacity="1" x1="893" y1="166" x2="1075" y2="166" />
</g>
<g>
	<line stroke="black" stroke-opacity="1" x1="502" y1="301" x2="502" y2="242" />
</g>
<g>
	<line stroke="black" stroke-opacity="1" x1="502" y1="242" x2="648" y2="242" />
</g>
<g>
	<line stroke="black" stroke-opacity="1" x1="648" y1="242" x2="648" y2="189" />
	<line stroke="black" stroke-opacity="1" x1="648" y1="183" x2="642" y2="189" />
	<line stroke="black" stroke-opacity="1" x1="648" y1="183" x2="654" y2="189" />
	<line stroke="black" stroke-opacity="1" x1="642" y1="189" x2="654" y2="189" />
</g>
<g>
	<line stroke="black" stroke-opacity="1" x1="331" y1="408" x2="331" y2="375" />
</g>
<g>
	<line stroke="black" stroke-opacity="1" x1="331" y1="375" x2="501" y2="375" />
</g>
<g>
	<line stroke="black" stroke-opacity="1" x1="501" y1="375" x2="501" y2="348" />
	<line stroke="black" stroke-opacity="1" x1="501" y1="342" x2="495" y2="348" />
	<line stroke="black" stroke-opacity="1" x1="501" y1="342" x2="507" y2="348" />
	<line stroke="black" stroke-opacity="1" x1="495" y1="348" x2="507" y2="348" />
</g>
<g>
	<line stroke="black" stroke-opacity="1" x1="661" y1="408" x2="661" y2="375" />
</g>
<g>
	<line stroke="black" stroke-opacity="1" x1="661" y1="375" x2="501" y2="375" />
</g>
<g>
	<line stroke="black" stroke-opacity="1" x1="501" y1="375" x2="501" y2="348" />
	<line stroke="black" stroke-opacity="1" x1="501" y1="342" x2="495" y2="348" />
	<line stroke="black" stroke-opacity="1" x1="501" y1="342" x2="507" y2="348" />
	<line stroke="black" stroke-opacity="1" x1="495" y1="348" x2="507" y2="348" />
</g>
<g>
	<line stroke="black" stroke-opacity="1" x1="647" y1="108" x2="647" y2="82" />
</g>
<g>
	<line stroke="black" stroke-opacity="1" x1="647" y1="82" x2="649" y2="82" />
</g>
<g>
	<line stroke="black" stroke-opacity="1" x1="649" y1="82" x2="649" y2="62" />
	<line stroke="black" stroke-opacity="1" x1="649" y1="56" x2="643" y2="62" />
	<line stroke="black" stroke-opacity="1" x1="649" y1="56" x2="655" y2="62" />
	<line stroke="black" stroke-opacity="1" x1="643" y1="62" x2="655" y2="62" />
</g>
<g>
	<rect fill="#808080" stroke="none" stroke-opacity="1" x="175" y="312" width="3" height="47" />
	<rect fill="#808080" stroke="none" stroke-opacity="1" x="17" y="356" width="161" height="3" />
	<rect fill="#ffffff" stroke="black" stroke-width="1" stroke-opacity="1" x="13" y="308" width="162" height="48" />
	<text font-family="Helvetica" font-size="15" fill="#000000" xml:space="preserve" font-weight="bold" text-anchor="middle" x="94" y="325">LabelledCloneMarker</text>
	<line stroke="black" stroke-opacity="1" x1="13" y1="328" x2="175" y2="328" />
	<text font-family="Helvetica" font-size="15" fill="#000000" xml:space="preserve" x="17" y="345">label : string</text>
	<line stroke="black" stroke-opacity="1" x1="13" y1="348" x2="175" y2="348" />
</g>
<g>
	<line stroke="black" stroke-opacity="1" x1="96" y1="307" x2="96" y2="251" />
</g>
<g>
	<line stroke="black" stroke-opacity="1" x1="96" y1="251" x2="206" y2="251" />
</g>
<g>
	<line stroke="black" stroke-opacity="1" x1="206" y1="251" x2="206" y2="201" />
	<line stroke="black" stroke-opacity="1" x1="206" y1="195" x2="200" y2="201" />
	<line stroke="black" stroke-opacity="1" x1="206" y1="195" x2="212" y2="201" />
	<line stroke="black" stroke-opacity="1" x1="200" y1="201" x2="212" y2="201" />
</g>
<g>
	<rect fill="#808080" stroke="none" stroke-opacity="1" x="1186" y="34" width="3" height="65" />
	<rect fill="#808080" stroke="none" stroke-opacity="1" x="1080" y="96" width="109" height="3" />
	<rect fill="#ffffff" stroke="black" stroke-width="1" stroke-opacity="1" x="1076" y="30" width="110" height="66" />
	<text font-family="Helvetica" font-size="15" fill="#000000" xml:space="preserve" font-weight="bold" text-anchor="middle" x="1131" y="47">Compartment</text>
	<line stroke="black" stroke-opacity="1" x1="1076" y1="50" x2="1186" y2="50" />
	<text font-family="Helvetica" font-size="15" fill="#000000" xml:space="preserve" x="1080" y="67">name : string</text>
	<text font-family="Helvetica" font-size="15" fill="#000000" xml:space="preserve" x="1080" y="85">natures : cv</text>
	<line stroke="black" stroke-opacity="1" x1="1076" y1="88" x2="1186" y2="88" />
</g>
<g>
	<line stroke="black" stroke-opacity="1" x1="501" y1="407" x2="501" y2="375" />
</g>
<g>
	<line stroke="black" stroke-opacity="1" x1="501" y1="375" x2="501" y2="348" />
	<line stroke="black" stroke-opacity="1" x1="501" y1="342" x2="495" y2="348" />
	<line stroke="black" stroke-opacity="1" x1="501" y1="342" x2="507" y2="348" />
	<line stroke="black" stroke-opacity="1" x1="495" y1="348" x2="507" y2="348" />
</g>
<g>
	<line stroke="black" stroke-opacity="1" x1="1075" y1="65" x2="893" y2="65" />
	<polygon fill="#000000" stroke="black" stroke-opacity="1" points="1075,65 1069,71 1063,65 1069,59" />
</g>
<g>
	<line stroke="black" stroke-opacity="1" x1="893" y1="65" x2="893" y2="121" />
</g>
<g>
	<line stroke="black" stroke-opacity="1" x1="893" y1="121" x2="710" y2="121" />
</g>
<g>
	<text font-family="Helvetica" font-size="15" fill="#000000" xml:space="preserve" x="268" y="169">clone_marker</text>
</g>
<g>
	<text font-family="Helvetica" font-size="15" fill="#000000" xml:space="preserve" x="495" y="169">owning_epn</text>
</g>
<g>
	<text font-family="Helvetica" font-size="15" fill="#000000" xml:space="preserve" x="268" y="198">0..1</text>
</g>
<g>
	<text font-family="Helvetica" font-size="15" fill="#000000" xml:space="preserve" x="569" y="198">1</text>
</g>
<g>
	<text font-family="Helvetica" font-size="15" fill="#000000" xml:space="preserve" x="720" y="115">epns</text>
</g>
<g>
	<text font-family="Helvetica" font-size="15" fill="#000000" xml:space="preserve" x="918" y="59">owning_compartment</text>
</g>
<g>
	<text font-family="Helvetica" font-size="15" fill="#000000" xml:space="preserve" x="720" y="144">*</text>
</g>
<g>
	<text font-family="Helvetica" font-size="15" fill="#000000" xml:space="preserve" x="1041" y="88">0..1</text>
</g>
<g>
	<text font-family="Helvetica" font-size="15" fill="#000000" xml:space="preserve" x="272" y="64">displayed_attributes</text>
</g>
<g>
	<text font-family="Helvetica" font-size="15" fill="#000000" xml:space="preserve" x="272" y="93">*</text>
</g>
<g>
	<text font-family="Helvetica" font-size="15" fill="#000000" xml:space="preserve" x="569" y="144">1</text>
</g>
<g>
	<text font-family="Helvetica" font-size="15" fill="#000000" xml:space="preserve" x="989" y="160">entity_type</text>
</g>
<g>
	<text font-family="Helvetica" font-size="15" fill="#000000" xml:space="preserve" x="720" y="169">pools</text>
</g>
<g>
	<text font-family="Helvetica" font-size="15" fill="#000000" xml:space="preserve" x="1057" y="189">1</text>
</g>
<g>
	<text font-family="Helvetica" font-size="15" fill="#000000" xml:space="preserve" x="720" y="198">1..*</text>
</g>
</svg>
