<?xml version="1.0" encoding="UTF-8" standalone="no"?>
<!-- Created with Bouml (http://bouml.free.fr/) -->
<!DOCTYPE svg PUBLIC "-//W3C//DTD SVG 1.1//EN" "http://www.w3.org/Graphics/SVG/1.1/DTD/svg11.dtd">
<svg width="926" height="357" version="1.1" xmlns="http://www.w3.org/2000/svg">
<g>
	<rect fill="#808080" stroke="none" stroke-opacity="1" x="904" y="144" width="3" height="35" />
	<rect fill="#808080" stroke="none" stroke-opacity="1" x="868" y="176" width="39" height="3" />
	<rect fill="#ffffc0" stroke="black" stroke-width="1" stroke-opacity="1" x="864" y="140" width="40" height="36" />
	<text font-family="Helvetica" font-size="15" fill="#000000" xml:space="preserve" font-weight="bold" text-anchor="middle" x="884" y="157">H</text>
	<line stroke="black" stroke-opacity="1" x1="864" y1="160" x2="904" y2="160" />
	<line stroke="black" stroke-opacity="1" x1="864" y1="168" x2="904" y2="168" />
</g>
<g>
	<rect fill="#808080" stroke="none" stroke-opacity="1" x="216" y="297" width="3" height="47" />
	<rect fill="#808080" stroke="none" stroke-opacity="1" x="102" y="341" width="117" height="3" />
	<rect fill="#ffffc0" stroke="black" stroke-width="1" stroke-opacity="1" x="98" y="293" width="118" height="48" />
	<text font-family="Helvetica" font-size="15" fill="#000000" xml:space="preserve" font-weight="bold" text-anchor="middle" x="157" y="310">C</text>
	<line stroke="black" stroke-opacity="1" x1="98" y1="313" x2="216" y2="313" />
	<text font-family="Helvetica" font-size="15" fill="#000000" xml:space="preserve" x="102" y="330">attrib3 : boolean</text>
	<line stroke="black" stroke-opacity="1" x1="98" y1="333" x2="216" y2="333" />
</g>
<g>
	<rect fill="#808080" stroke="none" stroke-opacity="1" x="474" y="302" width="3" height="35" />
	<rect fill="#808080" stroke="none" stroke-opacity="1" x="438" y="334" width="39" height="3" />
	<rect fill="#ffffc0" stroke="black" stroke-width="1" stroke-opacity="1" x="434" y="298" width="40" height="36" />
	<text font-family="Helvetica" font-size="15" fill="#000000" xml:space="preserve" font-weight="bold" text-anchor="middle" x="454" y="315">D</text>
	<line stroke="black" stroke-opacity="1" x1="434" y1="318" x2="474" y2="318" />
	<line stroke="black" stroke-opacity="1" x1="434" y1="326" x2="474" y2="326" />
</g>
<g>
	<rect fill="#808080" stroke="none" stroke-opacity="1" x="603" y="144" width="3" height="35" />
	<rect fill="#808080" stroke="none" stroke-opacity="1" x="567" y="176" width="39" height="3" />
	<rect fill="#ffffc0" stroke="black" stroke-width="1" stroke-opacity="1" x="563" y="140" width="40" height="36" />
	<text font-family="Helvetica" font-size="15" fill="#000000" xml:space="preserve" font-weight="bold" text-anchor="middle" x="583" y="157">G</text>
	<line stroke="black" stroke-opacity="1" x1="563" y1="160" x2="603" y2="160" />
	<line stroke="black" stroke-opacity="1" x1="563" y1="168" x2="603" y2="168" />
</g>
<g>
	<rect fill="#808080" stroke="none" stroke-opacity="1" x="601" y="255" width="3" height="35" />
	<rect fill="#808080" stroke="none" stroke-opacity="1" x="565" y="287" width="39" height="3" />
	<rect fill="#ffffc0" stroke="black" stroke-width="1" stroke-opacity="1" x="561" y="251" width="40" height="36" />
	<text font-family="Helvetica" font-size="15" fill="#000000" xml:space="preserve" font-weight="bold" text-anchor="middle" x="581" y="268">E</text>
	<line stroke="black" stroke-opacity="1" x1="561" y1="271" x2="601" y2="271" />
	<line stroke="black" stroke-opacity="1" x1="561" y1="279" x2="601" y2="279" />
</g>
<g>
	<rect fill="#808080" stroke="none" stroke-opacity="1" x="205" y="115" width="3" height="65" />
	<rect fill="#808080" stroke="none" stroke-opacity="1" x="111" y="177" width="97" height="3" />
	<rect fill="#ffffc0" stroke="black" stroke-width="1" stroke-opacity="1" x="107" y="111" width="98" height="66" />
	<text font-family="Helvetica" font-size="15" fill="#000000" xml:space="preserve" font-weight="bold" text-anchor="middle" x="156" y="128">A</text>
	<line stroke="black" stroke-opacity="1" x1="107" y1="131" x2="205" y2="131" />
	<text font-family="Helvetica" font-size="15" fill="#000000" xml:space="preserve" x="111" y="148">attrib1 : string</text>
	<text font-family="Helvetica" font-size="15" fill="#000000" xml:space="preserve" x="111" y="166">attrib2 : int</text>
	<line stroke="black" stroke-opacity="1" x1="107" y1="169" x2="205" y2="169" />
</g>
<g>
	<rect fill="#808080" stroke="none" stroke-opacity="1" x="456" y="131" width="3" height="35" />
	<rect fill="#808080" stroke="none" stroke-opacity="1" x="420" y="163" width="39" height="3" />
	<rect fill="#ffffc0" stroke="black" stroke-width="1" stroke-opacity="1" x="416" y="127" width="40" height="36" />
	<text font-family="Helvetica" font-size="15" fill="#000000" xml:space="preserve" font-weight="bold" text-anchor="middle" x="436" y="144">B</text>
	<line stroke="black" stroke-opacity="1" x1="416" y1="147" x2="456" y2="147" />
	<line stroke="black" stroke-opacity="1" x1="416" y1="155" x2="456" y2="155" />
</g>
<g>
	<rect fill="#808080" stroke="none" stroke-opacity="1" x="910" y="256" width="3" height="35" />
	<rect fill="#808080" stroke="none" stroke-opacity="1" x="874" y="288" width="39" height="3" />
	<rect fill="#ffffc0" stroke="black" stroke-width="1" stroke-opacity="1" x="870" y="252" width="40" height="36" />
	<text font-family="Helvetica" font-size="15" fill="#000000" xml:space="preserve" font-weight="bold" text-anchor="middle" x="890" y="269">F</text>
	<line stroke="black" stroke-opacity="1" x1="870" y1="272" x2="910" y2="272" />
	<line stroke="black" stroke-opacity="1" x1="870" y1="280" x2="910" y2="280" />
</g>
<g>
	<line stroke="black" stroke-opacity="1" x1="158" y1="292" x2="158" y2="187" />
	<line stroke="black" stroke-opacity="1" x1="158" y1="181" x2="152" y2="187" />
	<line stroke="black" stroke-opacity="1" x1="158" y1="181" x2="164" y2="187" />
	<line stroke="black" stroke-opacity="1" x1="152" y1="187" x2="164" y2="187" />
</g>
<g>
	<line stroke="black" stroke-opacity="1" x1="220" y1="318" x2="433" y2="318" />
	<polygon fill="#ffffff" stroke="black" stroke-opacity="1" points="220,318 226,312 232,318 226,324" />
</g>
<g>
	<line stroke="black" stroke-opacity="1" x1="863" y1="160" x2="857" y2="154" />
	<line stroke="black" stroke-opacity="1" x1="863" y1="160" x2="857" y2="166" />
	<line stroke="black" stroke-opacity="1" x1="607" y1="160" x2="863" y2="160" />
	<polygon fill="#000000" stroke="black" stroke-opacity="1" points="607,160 613,154 619,160 613,166" />
</g>
<g>
	<line stroke="black" stroke-opacity="1" x1="209" y1="146" x2="415" y2="146" />
	<polygon fill="#000000" stroke="black" stroke-opacity="1" points="209,146 215,140 221,146 215,152" />
</g>
<g>
	<line stroke="black" stroke-opacity="1" x1="869" y1="271" x2="863" y2="265" />
	<line stroke="black" stroke-opacity="1" x1="869" y1="271" x2="863" y2="277" />
	<line stroke-dasharray="4,4" stroke="black" stroke-opacity="1" x1="605" y1="271" x2="869" y2="271" />
</g>
<g>
	<text font-family="Helvetica" font-size="15" fill="#000000" xml:space="preserve" x="847" y="183">*</text>
</g>
<g>
	<text font-family="Helvetica" font-size="15" fill="#000000" xml:space="preserve" x="617" y="183">1</text>
</g>
<g>
	<text font-family="Helvetica" font-size="15" fill="#000000" xml:space="preserve" x="399" y="169">*</text>
</g>
<g>
	<text font-family="Helvetica" font-size="15" fill="#000000" xml:space="preserve" x="219" y="140">containee</text>
</g>
<g>
	<text font-family="Helvetica" font-size="15" fill="#000000" xml:space="preserve" x="342" y="140">container</text>
</g>
<g>
	<text font-family="Helvetica" font-size="15" fill="#000000" xml:space="preserve" x="219" y="169">1</text>
</g>
<g>
	<text font-family="Helvetica" font-size="15" fill="#000000" xml:space="preserve" x="790" y="154">container</text>
</g>
<g>
	<text font-family="Helvetica" font-size="15" fill="#000000" xml:space="preserve" x="417" y="341">*</text>
</g>
<g>
	<text font-family="Helvetica" font-size="15" fill="#000000" xml:space="preserve" x="230" y="341">0..1</text>
</g>
<g>
	<text font-family="Helvetica" font-size="15" fill="#000000" xml:space="preserve" x="379" y="312">sharer</text>
</g>
<g>
	<text font-family="Helvetica" font-size="15" fill="#000000" xml:space="preserve" x="230" y="312">shared</text>
</g>
</svg>
