<?xml version="1.0" encoding="UTF-8" standalone="no"?>
<!-- Created with Inkscape (http://www.inkscape.org/) -->

<svg
   xmlns:dc="http://purl.org/dc/elements/1.1/"
   xmlns:cc="http://creativecommons.org/ns#"
   xmlns:rdf="http://www.w3.org/1999/02/22-rdf-syntax-ns#"
   xmlns:svg="http://www.w3.org/2000/svg"
   xmlns="http://www.w3.org/2000/svg"
   xmlns:sodipodi="http://sodipodi.sourceforge.net/DTD/sodipodi-0.dtd"
   xmlns:inkscape="http://www.inkscape.org/namespaces/inkscape"
   width="1422.8226"
   height="261.86362"
   id="svg2"
   sodipodi:version="0.32"
   inkscape:version="0.48.2 r9819"
   sodipodi:docname="geneticMultimer.svg"
   version="1.0"
   inkscape:output_extension="org.inkscape.output.svg.inkscape">
  <defs
     id="defs4">
    <clipPath
       clipPathUnits="userSpaceOnUse"
       id="clipPath4745">
      <rect
         style="fill:none;stroke:#000000;stroke-width:1;stroke-linejoin:round;stroke-miterlimit:4;stroke-opacity:1;stroke-dasharray:none"
         id="rect4747"
         width="442.44681"
         height="114.14724"
         x="773.91663"
         y="130.2426" />
    </clipPath>
  </defs>
  <sodipodi:namedview
     id="base"
     pagecolor="#ffffff"
     bordercolor="#666666"
     borderopacity="1.0"
     gridtolerance="10000"
     guidetolerance="10"
     objecttolerance="10"
     inkscape:pageopacity="0.0"
     inkscape:pageshadow="2"
     inkscape:zoom="0.79433594"
     inkscape:cx="686.43402"
     inkscape:cy="46.858756"
     inkscape:document-units="px"
     inkscape:current-layer="layer1"
     showguides="true"
     inkscape:guide-bbox="true"
     inkscape:window-width="1360"
     inkscape:window-height="746"
     inkscape:window-x="1654"
     inkscape:window-y="206"
     width="1052.3622px"
     height="744.09448px"
     showgrid="false"
     inkscape:window-maximized="0"
     fit-margin-top="0"
     fit-margin-left="0"
     fit-margin-right="0"
     fit-margin-bottom="0">
    <sodipodi:guide
       orientation="horizontal"
       position="973.91972,0.65195456"
       id="guide2177" />
    <sodipodi:guide
       orientation="vertical"
       position="514.58606,361.64286"
       id="guide2800" />
  </sodipodi:namedview>
  <metadata
     id="metadata7">
    <rdf:RDF>
      <cc:Work
         rdf:about="">
        <dc:format>image/svg+xml</dc:format>
        <dc:type
           rdf:resource="http://purl.org/dc/dcmitype/StillImage" />
        <dc:title />
      </cc:Work>
    </rdf:RDF>
  </metadata>
  <g
     inkscape:label="Layer 1"
     inkscape:groupmode="layer"
     id="layer1"
     transform="translate(170.57599,-212.18871)">
    <path
       id="path3631"
       d="m 358.07842,260.71288 0,112.34375 0.15625,0 0,62.625 c 0,19.78571 15.93303,35.71873 35.71875,35.71875 l 310,0 c 19.78571,0 35.71878,-15.93304 35.71875,-35.71875 l 0,-138.5625 c 0,-1.68131 -0.12112,-3.35056 -0.34375,-4.96875 l 0,-31.4375 -381.25,0 z"
       style="fill:#ffffff;fill-opacity:1;fill-rule:nonzero;stroke:#000000;stroke-width:5;stroke-miterlimit:4;stroke-opacity:1;stroke-dasharray:none"
       inkscape:connector-curvature="0" />
    <path
       style="fill:#ffffff;fill-opacity:1;fill-rule:nonzero;stroke:#000000;stroke-width:5;stroke-miterlimit:4;stroke-opacity:1;stroke-dasharray:none"
       d="m 346.09165,248.86483 0,112.34375 0.15625,0 0,62.625 c 0,19.78571 15.93303,35.71873 35.71875,35.71875 l 310,0 c 19.78571,0 35.71878,-15.93304 35.71875,-35.71875 l 0,-138.5625 c 0,-1.68131 -0.12112,-3.35056 -0.34375,-4.96875 l 0,-31.4375 -381.25,0 z"
       id="rect2929"
       inkscape:connector-curvature="0" />
    <g
       id="g6517"
       transform="translate(-11.111678,2.5000004)">
      <rect
         ry="0"
         y="212.18871"
         x="389.2547"
         height="65.714287"
         width="108.57143"
         id="rect2874"
         style="fill:#ffffff;fill-opacity:1;fill-rule:nonzero;stroke:#000000;stroke-width:5;stroke-miterlimit:4;stroke-opacity:1;stroke-dasharray:none" />
      <text
         id="text2876"
         y="256.4744"
         x="400.68329"
         style="font-size:12px;font-style:normal;font-weight:normal;fill:#000000;fill-opacity:1;stroke:none;font-family:Bitstream Vera Sans"
         xml:space="preserve"><tspan
           style="font-size:32px;font-weight:bold"
           y="256.4744"
           x="400.68329"
           id="tspan2878"
           sodipodi:role="line">INFO</tspan></text>
    </g>
    <text
       xml:space="preserve"
       style="font-size:12px;font-style:normal;font-weight:normal;fill:#000000;fill-opacity:1;stroke:none;font-family:Bitstream Vera Sans"
       x="433.46664"
       y="377.53671"
       id="text2890"><tspan
         sodipodi:role="line"
         id="tspan2892"
         x="433.46664"
         y="377.53671"
         style="font-size:64px">LABEL</tspan></text>
    <rect
       style="fill:#ffffff;fill-opacity:1;fill-rule:evenodd;stroke:#000000;stroke-width:5;stroke-miterlimit:4;stroke-opacity:1;stroke-dasharray:none;stroke-dashoffset:0"
       id="rect2392"
       width="166.61125"
       height="50.73098"
       x="533.02722"
       y="222.5345"
       ry="24.660894"
       rx="25.135319" />
    <text
       xml:space="preserve"
       style="font-size:11.61923981px;font-style:normal;font-weight:normal;fill:#000000;fill-opacity:1;stroke:none;font-family:Bitstream Vera Sans"
       x="567.677"
       y="250.08191"
       id="text2837-4"
       transform="scale(0.96827814,1.0327611)"><tspan
         sodipodi:role="line"
         id="tspan2839-9"
         x="567.677"
         y="250.08191"
         style="font-size:30.98454857px;font-weight:bold">val@var</tspan></text>
    <path
       inkscape:connector-curvature="0"
       style="fill:#ffffff;fill-opacity:1;fill-rule:nonzero;stroke:#000000;stroke-width:5;stroke-miterlimit:4;stroke-opacity:1;stroke-dasharray:none"
       d="m -156.07599,260.86483 0,112.34375 0.15625,0 0,62.625 c 0,19.78571 15.93303,35.71873 35.71875,35.71875 l 310,0 c 19.78571,0 35.71878,-15.93304 35.71875,-35.71875 l 0,-138.5625 c 0,-1.68131 -0.12112,-3.35056 -0.34375,-4.96875 l 0,-31.4375 -381.25,0 z"
       id="path3629" />
    <path
       id="path4227"
       d="m -168.07599,248.86483 0,112.34375 0.15625,0 0,62.625 c 0,19.78571 15.93303,35.71873 35.71875,35.71875 l 310,0 c 19.78571,0 35.71878,-15.93304 35.71875,-35.71875 l 0,-138.5625 c 0,-1.68131 -0.12112,-3.35056 -0.34375,-4.96875 l 0,-31.4375 -381.25,0 z"
       style="fill:#ffffff;fill-opacity:1;fill-rule:nonzero;stroke:#000000;stroke-width:5;stroke-miterlimit:4;stroke-opacity:1;stroke-dasharray:none"
       inkscape:connector-curvature="0" />
    <text
       id="text4229"
       y="377.53671"
       x="-80.700989"
       style="font-size:12px;font-style:normal;font-weight:normal;fill:#000000;fill-opacity:1;stroke:none;font-family:Bitstream Vera Sans"
       xml:space="preserve"><tspan
         style="font-size:64px"
         y="377.53671"
         x="-80.700989"
         id="tspan4231"
         sodipodi:role="line">LABEL</tspan></text>
    <path
       inkscape:connector-curvature="0"
       style="fill:#ffffff;fill-opacity:1;fill-rule:nonzero;stroke:#000000;stroke-width:5;stroke-miterlimit:4;stroke-opacity:1;stroke-dasharray:none"
       d="m 867.42044,260.71288 0,112.34375 0.15625,0 0,62.625 c 0,19.78571 15.93303,35.71873 35.71875,35.71875 l 309.99996,0 c 19.7857,0 35.7188,-15.93304 35.7188,-35.71875 l 0,-138.5625 c 0,-1.68131 -0.1211,-3.35056 -0.3438,-4.96875 l 0,-31.4375 -381.24996,0 z"
       id="path3635" />
    <path
       inkscape:connector-curvature="0"
       style="fill:#b3b3b3;fill-opacity:1;fill-rule:nonzero;stroke:#000000;stroke-width:5;stroke-miterlimit:4;stroke-opacity:1;stroke-dasharray:none"
       d="m 796.6197,-9.7342223 0,112.3437523 0.15625,0 0,62.625 c 0,19.78571 15.93303,35.71873 35.71875,35.71875 l 310,0 c 19.7857,0 35.7188,-15.93304 35.7187,-35.71875 l 0,-138.562503 c 0,-1.68131 -0.1211,-3.35056 -0.3437,-4.96875 l 0,-31.4374993 -381.25,0 z"
       id="path3633"
       clip-path="url(#clipPath4745)"
       transform="translate(71.53323,270.59905)" />
    <path
       inkscape:connector-curvature="0"
       id="path4749"
       d="m 858.09165,248.86483 0,112.34375 0.15625,0 0,62.625 c 0,19.78571 15.93303,35.71873 35.71875,35.71875 l 309.99995,0 c 19.7858,0 35.7188,-15.93304 35.7188,-35.71875 l 0,-138.5625 c 0,-1.68131 -0.1211,-3.35056 -0.3438,-4.96875 l 0,-31.4375 -381.24995,0 z"
       style="fill:#ffffff;fill-opacity:1;fill-rule:nonzero;stroke:#000000;stroke-width:5;stroke-miterlimit:4;stroke-opacity:1;stroke-dasharray:none" />
    <path
       transform="translate(61.53323,258.59905)"
       clip-path="url(#clipPath4745)"
       id="path4771"
       d="m 796.6197,-9.7342223 0,112.3437523 0.15625,0 0,62.625 c 0,19.78571 15.93303,35.71873 35.71875,35.71875 l 310,0 c 19.7857,0 35.7188,-15.93304 35.7187,-35.71875 l 0,-138.562503 c 0,-1.68131 -0.1211,-3.35056 -0.3437,-4.96875 l 0,-31.4374993 -381.25,0 z"
       style="fill:#b3b3b3;fill-opacity:1;fill-rule:nonzero;stroke:#000000;stroke-width:5;stroke-miterlimit:4;stroke-opacity:1;stroke-dasharray:none"
       inkscape:connector-curvature="0" />
    <g
       transform="translate(500.88832,2.5000004)"
       id="g4751">
      <rect
         style="fill:#ffffff;fill-opacity:1;fill-rule:nonzero;stroke:#000000;stroke-width:5;stroke-miterlimit:4;stroke-opacity:1;stroke-dasharray:none"
         id="rect4753"
         width="108.57143"
         height="65.714287"
         x="389.2547"
         y="212.18871"
         ry="0" />
      <text
         xml:space="preserve"
         style="font-size:12px;font-style:normal;font-weight:normal;fill:#000000;fill-opacity:1;stroke:none;font-family:Bitstream Vera Sans"
         x="400.68329"
         y="256.4744"
         id="text4755"><tspan
           sodipodi:role="line"
           id="tspan4757"
           x="400.68329"
           y="256.4744"
           style="font-size:32px;font-weight:bold">INFO</tspan></text>
    </g>
    <text
       id="text4759"
       y="376.83151"
       x="945.46667"
       style="font-size:12px;font-style:normal;font-weight:normal;fill:#000000;fill-opacity:1;stroke:none;font-family:Bitstream Vera Sans"
       xml:space="preserve"><tspan
         style="font-size:64px"
         y="376.83151"
         x="945.46667"
         id="tspan4761"
         sodipodi:role="line">LABEL</tspan></text>
    <rect
       rx="25.135319"
       ry="24.660894"
       y="222.5345"
       x="1045.0272"
       height="50.73098"
       width="166.61125"
       id="rect4765"
       style="fill:#ffffff;fill-opacity:1;fill-rule:evenodd;stroke:#000000;stroke-width:5;stroke-miterlimit:4;stroke-opacity:1;stroke-dasharray:none;stroke-dashoffset:0" />
    <text
       transform="scale(0.96827814,1.0327611)"
       id="text4767"
       y="250.08191"
       x="1096.4507"
       style="font-size:11.61923981px;font-style:normal;font-weight:normal;fill:#000000;fill-opacity:1;stroke:none;font-family:Bitstream Vera Sans"
       xml:space="preserve"><tspan
         style="font-size:30.98454857px;font-weight:bold"
         y="250.08191"
         x="1096.4507"
         id="tspan4769"
         sodipodi:role="line">val@var</tspan></text>
    <text
       xml:space="preserve"
       style="font-size:40px;font-style:normal;font-weight:normal;line-height:125%;letter-spacing:0px;word-spacing:0px;fill:#ffffff;fill-opacity:1;stroke:none;font-family:Bitstream Vera Sans"
       x="982.79486"
       y="437.12592"
       id="text4775"
       sodipodi:linespacing="125%"><tspan
         sodipodi:role="line"
         id="tspan4777"
         x="982.79486"
         y="437.12592">Marker</tspan></text>
  </g>
</svg>
