<?xml version="1.0" encoding="UTF-8" standalone="no"?>
<!-- Created with Inkscape (http://www.inkscape.org/) -->
<svg
   xmlns:dc="http://purl.org/dc/elements/1.1/"
   xmlns:cc="http://creativecommons.org/ns#"
   xmlns:rdf="http://www.w3.org/1999/02/22-rdf-syntax-ns#"
   xmlns:svg="http://www.w3.org/2000/svg"
   xmlns="http://www.w3.org/2000/svg"
   xmlns:sodipodi="http://sodipodi.sourceforge.net/DTD/sodipodi-0.dtd"
   xmlns:inkscape="http://www.inkscape.org/namespaces/inkscape"
   width="1052.3622"
   height="744.09448"
   id="svg2"
   sodipodi:version="0.32"
   inkscape:version="0.46"
   version="1.0"
   sodipodi:docname="GluR.svg"
   inkscape:output_extension="org.inkscape.output.svg.inkscape">
  <defs
     id="defs4">
    <marker
       inkscape:stockid="Arrow1Lend"
       orient="auto"
       refY="0.0"
       refX="0.0"
       id="Arrow1Lend"
       style="overflow:visible;">
      <path
         id="path3258"
         d="M 0.0,0.0 L 5.0,-5.0 L -12.5,0.0 L 5.0,5.0 L 0.0,0.0 z "
         style="fill-rule:evenodd;stroke:#000000;stroke-width:1.0pt;marker-start:none;"
         transform="scale(0.8) rotate(180) translate(12.5,0)" />
    </marker>
    <marker
       inkscape:stockid="Arrow1Lstart"
       orient="auto"
       refY="0.0"
       refX="0.0"
       id="Arrow1Lstart"
       style="overflow:visible">
      <path
         id="path3255"
         d="M 0.0,0.0 L 5.0,-5.0 L -12.5,0.0 L 5.0,5.0 L 0.0,0.0 z "
         style="fill-rule:evenodd;stroke:#000000;stroke-width:1.0pt;marker-start:none"
         transform="scale(0.8) translate(12.5,0)" />
    </marker>
    <inkscape:perspective
       sodipodi:type="inkscape:persp3d"
       inkscape:vp_x="0 : 526.18109 : 1"
       inkscape:vp_y="0 : 1000 : 0"
       inkscape:vp_z="744.09448 : 526.18109 : 1"
       inkscape:persp3d-origin="372.04724 : 350.78739 : 1"
       id="perspective10" />
  </defs>
  <sodipodi:namedview
     id="base"
     pagecolor="#ffffff"
     bordercolor="#666666"
     borderopacity="1.0"
     gridtolerance="10000"
     guidetolerance="10"
     objecttolerance="10"
     inkscape:pageopacity="0.0"
     inkscape:pageshadow="2"
     inkscape:zoom="0.79634441"
     inkscape:cx="421.50689"
     inkscape:cy="372.04724"
     inkscape:document-units="px"
     inkscape:current-layer="layer1"
     showgrid="false"
     inkscape:window-width="1680"
     inkscape:window-height="1026"
     inkscape:window-x="0"
     inkscape:window-y="0" />
  <metadata
     id="metadata7">
    <rdf:RDF>
      <cc:Work
         rdf:about="">
        <dc:format>image/svg+xml</dc:format>
        <dc:type
           rdf:resource="http://purl.org/dc/dcmitype/StillImage" />
      </cc:Work>
    </rdf:RDF>
  </metadata>
  <g
     inkscape:label="Layer 1"
     inkscape:groupmode="layer"
     id="layer1">
    <g
       id="g3161"
       transform="translate(14,22)">
      <path
         d="M 193.57112,234.4164 A 6.2155862,6.2155862 0 1 1 181.13994,234.4164 A 6.2155862,6.2155862 0 1 1 193.57112,234.4164 z"
         sodipodi:ry="6.2155862"
         sodipodi:rx="6.2155862"
         sodipodi:cy="234.4164"
         sodipodi:cx="187.35553"
         id="path3155"
         style="opacity:0.98999999;fill:#ffffff;fill-opacity:1;fill-rule:evenodd;stroke:#000000;stroke-width:1;stroke-miterlimit:4;stroke-dasharray:none;stroke-opacity:1"
         sodipodi:type="arc" />
      <path
         sodipodi:nodetypes="czs"
         id="path3157"
         d="M 184.24774,240.18801 C 181.58392,253.50713 186.97631,255.72289 186.91156,265.49433 C 186.84387,275.70972 186.46759,284.14109 182.02789,285.02903"
         style="fill:none;fill-opacity:0.75;fill-rule:evenodd;stroke:#000000;stroke-width:1px;stroke-linecap:butt;stroke-linejoin:miter;stroke-opacity:1" />
      <path
         sodipodi:nodetypes="czs"
         id="path3159"
         d="M 189.13326,239.72911 C 186.46944,253.04823 191.86183,255.26399 191.79708,265.03543 C 191.72939,275.25082 191.35311,283.68219 186.91341,284.57013"
         style="fill:none;fill-opacity:0.75;fill-rule:evenodd;stroke:#000000;stroke-width:1px;stroke-linecap:butt;stroke-linejoin:miter;stroke-opacity:1" />
    </g>
    <g
       transform="translate(28,22)"
       id="g3166">
      <path
         sodipodi:type="arc"
         style="opacity:0.98999999;fill:#ffffff;fill-opacity:1;fill-rule:evenodd;stroke:#000000;stroke-width:1;stroke-miterlimit:4;stroke-dasharray:none;stroke-opacity:1"
         id="path3168"
         sodipodi:cx="187.35553"
         sodipodi:cy="234.4164"
         sodipodi:rx="6.2155862"
         sodipodi:ry="6.2155862"
         d="M 193.57112,234.4164 A 6.2155862,6.2155862 0 1 1 181.13994,234.4164 A 6.2155862,6.2155862 0 1 1 193.57112,234.4164 z" />
      <path
         style="fill:none;fill-opacity:0.75;fill-rule:evenodd;stroke:#000000;stroke-width:1px;stroke-linecap:butt;stroke-linejoin:miter;stroke-opacity:1"
         d="M 184.24774,240.18801 C 181.58392,253.50713 186.97631,255.72289 186.91156,265.49433 C 186.84387,275.70972 186.46759,284.14109 182.02789,285.02903"
         id="path3170"
         sodipodi:nodetypes="czs" />
      <path
         style="fill:none;fill-opacity:0.75;fill-rule:evenodd;stroke:#000000;stroke-width:1px;stroke-linecap:butt;stroke-linejoin:miter;stroke-opacity:1"
         d="M 189.13326,239.72911 C 186.46944,253.04823 191.86183,255.26399 191.79708,265.03543 C 191.72939,275.25082 191.35311,283.68219 186.91341,284.57013"
         id="path3172"
         sodipodi:nodetypes="czs" />
    </g>
    <g
       id="g3174"
       transform="translate(42,22)">
      <path
         d="M 193.57112,234.4164 A 6.2155862,6.2155862 0 1 1 181.13994,234.4164 A 6.2155862,6.2155862 0 1 1 193.57112,234.4164 z"
         sodipodi:ry="6.2155862"
         sodipodi:rx="6.2155862"
         sodipodi:cy="234.4164"
         sodipodi:cx="187.35553"
         id="path3176"
         style="opacity:0.98999999;fill:#ffffff;fill-opacity:1;fill-rule:evenodd;stroke:#000000;stroke-width:1;stroke-miterlimit:4;stroke-dasharray:none;stroke-opacity:1"
         sodipodi:type="arc" />
      <path
         sodipodi:nodetypes="czs"
         id="path3178"
         d="M 184.24774,240.18801 C 181.58392,253.50713 186.97631,255.72289 186.91156,265.49433 C 186.84387,275.70972 186.46759,284.14109 182.02789,285.02903"
         style="fill:none;fill-opacity:0.75;fill-rule:evenodd;stroke:#000000;stroke-width:1px;stroke-linecap:butt;stroke-linejoin:miter;stroke-opacity:1" />
      <path
         sodipodi:nodetypes="czs"
         id="path3180"
         d="M 189.13326,239.72911 C 186.46944,253.04823 191.86183,255.26399 191.79708,265.03543 C 191.72939,275.25082 191.35311,283.68219 186.91341,284.57013"
         style="fill:none;fill-opacity:0.75;fill-rule:evenodd;stroke:#000000;stroke-width:1px;stroke-linecap:butt;stroke-linejoin:miter;stroke-opacity:1" />
    </g>
    <g
       transform="translate(56,22)"
       id="g3182">
      <path
         sodipodi:type="arc"
         style="opacity:0.98999999;fill:#ffffff;fill-opacity:1;fill-rule:evenodd;stroke:#000000;stroke-width:1;stroke-miterlimit:4;stroke-dasharray:none;stroke-opacity:1"
         id="path3184"
         sodipodi:cx="187.35553"
         sodipodi:cy="234.4164"
         sodipodi:rx="6.2155862"
         sodipodi:ry="6.2155862"
         d="M 193.57112,234.4164 A 6.2155862,6.2155862 0 1 1 181.13994,234.4164 A 6.2155862,6.2155862 0 1 1 193.57112,234.4164 z" />
      <path
         style="fill:none;fill-opacity:0.75;fill-rule:evenodd;stroke:#000000;stroke-width:1px;stroke-linecap:butt;stroke-linejoin:miter;stroke-opacity:1"
         d="M 184.24774,240.18801 C 181.58392,253.50713 186.97631,255.72289 186.91156,265.49433 C 186.84387,275.70972 186.46759,284.14109 182.02789,285.02903"
         id="path3186"
         sodipodi:nodetypes="czs" />
      <path
         style="fill:none;fill-opacity:0.75;fill-rule:evenodd;stroke:#000000;stroke-width:1px;stroke-linecap:butt;stroke-linejoin:miter;stroke-opacity:1"
         d="M 189.13326,239.72911 C 186.46944,253.04823 191.86183,255.26399 191.79708,265.03543 C 191.72939,275.25082 191.35311,283.68219 186.91341,284.57013"
         id="path3188"
         sodipodi:nodetypes="czs" />
    </g>
    <g
       id="g3190"
       transform="translate(70,22)">
      <path
         d="M 193.57112,234.4164 A 6.2155862,6.2155862 0 1 1 181.13994,234.4164 A 6.2155862,6.2155862 0 1 1 193.57112,234.4164 z"
         sodipodi:ry="6.2155862"
         sodipodi:rx="6.2155862"
         sodipodi:cy="234.4164"
         sodipodi:cx="187.35553"
         id="path3192"
         style="opacity:0.98999999;fill:#ffffff;fill-opacity:1;fill-rule:evenodd;stroke:#000000;stroke-width:1;stroke-miterlimit:4;stroke-dasharray:none;stroke-opacity:1"
         sodipodi:type="arc" />
      <path
         sodipodi:nodetypes="czs"
         id="path3194"
         d="M 184.24774,240.18801 C 181.58392,253.50713 186.97631,255.72289 186.91156,265.49433 C 186.84387,275.70972 186.46759,284.14109 182.02789,285.02903"
         style="fill:none;fill-opacity:0.75;fill-rule:evenodd;stroke:#000000;stroke-width:1px;stroke-linecap:butt;stroke-linejoin:miter;stroke-opacity:1" />
      <path
         sodipodi:nodetypes="czs"
         id="path3196"
         d="M 189.13326,239.72911 C 186.46944,253.04823 191.86183,255.26399 191.79708,265.03543 C 191.72939,275.25082 191.35311,283.68219 186.91341,284.57013"
         style="fill:none;fill-opacity:0.75;fill-rule:evenodd;stroke:#000000;stroke-width:1px;stroke-linecap:butt;stroke-linejoin:miter;stroke-opacity:1" />
    </g>
    <g
       transform="matrix(-1,0,0,-1,446.71106,593.22984)"
       id="g3198">
      <path
         sodipodi:type="arc"
         style="opacity:0.98999999;fill:#ffffff;fill-opacity:1;fill-rule:evenodd;stroke:#000000;stroke-width:1;stroke-miterlimit:4;stroke-dasharray:none;stroke-opacity:1"
         id="path3200"
         sodipodi:cx="187.35553"
         sodipodi:cy="234.4164"
         sodipodi:rx="6.2155862"
         sodipodi:ry="6.2155862"
         d="M 193.57112,234.4164 A 6.2155862,6.2155862 0 1 1 181.13994,234.4164 A 6.2155862,6.2155862 0 1 1 193.57112,234.4164 z" />
      <path
         style="fill:none;fill-opacity:0.75;fill-rule:evenodd;stroke:#000000;stroke-width:1px;stroke-linecap:butt;stroke-linejoin:miter;stroke-opacity:1"
         d="M 184.24774,240.18801 C 181.58392,253.50713 186.97631,255.72289 186.91156,265.49433 C 186.84387,275.70972 186.46759,284.14109 182.02789,285.02903"
         id="path3202"
         sodipodi:nodetypes="czs" />
      <path
         style="fill:none;fill-opacity:0.75;fill-rule:evenodd;stroke:#000000;stroke-width:1px;stroke-linecap:butt;stroke-linejoin:miter;stroke-opacity:1"
         d="M 189.13326,239.72911 C 186.46944,253.04823 191.86183,255.26399 191.79708,265.03543 C 191.72939,275.25082 191.35311,283.68219 186.91341,284.57013"
         id="path3204"
         sodipodi:nodetypes="czs" />
    </g>
    <g
       id="g3206"
       transform="matrix(-1,0,0,-1,432.71106,593.22984)">
      <path
         d="M 193.57112,234.4164 A 6.2155862,6.2155862 0 1 1 181.13994,234.4164 A 6.2155862,6.2155862 0 1 1 193.57112,234.4164 z"
         sodipodi:ry="6.2155862"
         sodipodi:rx="6.2155862"
         sodipodi:cy="234.4164"
         sodipodi:cx="187.35553"
         id="path3208"
         style="opacity:0.98999999;fill:#ffffff;fill-opacity:1;fill-rule:evenodd;stroke:#000000;stroke-width:1;stroke-miterlimit:4;stroke-dasharray:none;stroke-opacity:1"
         sodipodi:type="arc" />
      <path
         sodipodi:nodetypes="czs"
         id="path3210"
         d="M 184.24774,240.18801 C 181.58392,253.50713 186.97631,255.72289 186.91156,265.49433 C 186.84387,275.70972 186.46759,284.14109 182.02789,285.02903"
         style="fill:none;fill-opacity:0.75;fill-rule:evenodd;stroke:#000000;stroke-width:1px;stroke-linecap:butt;stroke-linejoin:miter;stroke-opacity:1" />
      <path
         sodipodi:nodetypes="czs"
         id="path3212"
         d="M 189.13326,239.72911 C 186.46944,253.04823 191.86183,255.26399 191.79708,265.03543 C 191.72939,275.25082 191.35311,283.68219 186.91341,284.57013"
         style="fill:none;fill-opacity:0.75;fill-rule:evenodd;stroke:#000000;stroke-width:1px;stroke-linecap:butt;stroke-linejoin:miter;stroke-opacity:1" />
    </g>
    <g
       transform="matrix(-1,0,0,-1,418.71106,593.22984)"
       id="g3214">
      <path
         sodipodi:type="arc"
         style="opacity:0.98999999;fill:#ffffff;fill-opacity:1;fill-rule:evenodd;stroke:#000000;stroke-width:1;stroke-miterlimit:4;stroke-dasharray:none;stroke-opacity:1"
         id="path3216"
         sodipodi:cx="187.35553"
         sodipodi:cy="234.4164"
         sodipodi:rx="6.2155862"
         sodipodi:ry="6.2155862"
         d="M 193.57112,234.4164 A 6.2155862,6.2155862 0 1 1 181.13994,234.4164 A 6.2155862,6.2155862 0 1 1 193.57112,234.4164 z" />
      <path
         style="fill:none;fill-opacity:0.75;fill-rule:evenodd;stroke:#000000;stroke-width:1px;stroke-linecap:butt;stroke-linejoin:miter;stroke-opacity:1"
         d="M 184.24774,240.18801 C 181.58392,253.50713 186.97631,255.72289 186.91156,265.49433 C 186.84387,275.70972 186.46759,284.14109 182.02789,285.02903"
         id="path3218"
         sodipodi:nodetypes="czs" />
      <path
         style="fill:none;fill-opacity:0.75;fill-rule:evenodd;stroke:#000000;stroke-width:1px;stroke-linecap:butt;stroke-linejoin:miter;stroke-opacity:1"
         d="M 189.13326,239.72911 C 186.46944,253.04823 191.86183,255.26399 191.79708,265.03543 C 191.72939,275.25082 191.35311,283.68219 186.91341,284.57013"
         id="path3220"
         sodipodi:nodetypes="czs" />
    </g>
    <g
       id="g3222"
       transform="matrix(-1,0,0,-1,404.71106,593.22984)">
      <path
         d="M 193.57112,234.4164 A 6.2155862,6.2155862 0 1 1 181.13994,234.4164 A 6.2155862,6.2155862 0 1 1 193.57112,234.4164 z"
         sodipodi:ry="6.2155862"
         sodipodi:rx="6.2155862"
         sodipodi:cy="234.4164"
         sodipodi:cx="187.35553"
         id="path3224"
         style="opacity:0.98999999;fill:#ffffff;fill-opacity:1;fill-rule:evenodd;stroke:#000000;stroke-width:1;stroke-miterlimit:4;stroke-dasharray:none;stroke-opacity:1"
         sodipodi:type="arc" />
      <path
         sodipodi:nodetypes="czs"
         id="path3226"
         d="M 184.24774,240.18801 C 181.58392,253.50713 186.97631,255.72289 186.91156,265.49433 C 186.84387,275.70972 186.46759,284.14109 182.02789,285.02903"
         style="fill:none;fill-opacity:0.75;fill-rule:evenodd;stroke:#000000;stroke-width:1px;stroke-linecap:butt;stroke-linejoin:miter;stroke-opacity:1" />
      <path
         sodipodi:nodetypes="czs"
         id="path3228"
         d="M 189.13326,239.72911 C 186.46944,253.04823 191.86183,255.26399 191.79708,265.03543 C 191.72939,275.25082 191.35311,283.68219 186.91341,284.57013"
         style="fill:none;fill-opacity:0.75;fill-rule:evenodd;stroke:#000000;stroke-width:1px;stroke-linecap:butt;stroke-linejoin:miter;stroke-opacity:1" />
    </g>
    <g
       transform="matrix(-1,0,0,-1,390.71106,593.22984)"
       id="g3230">
      <path
         sodipodi:type="arc"
         style="opacity:0.98999999;fill:#ffffff;fill-opacity:1;fill-rule:evenodd;stroke:#000000;stroke-width:1;stroke-miterlimit:4;stroke-dasharray:none;stroke-opacity:1"
         id="path3232"
         sodipodi:cx="187.35553"
         sodipodi:cy="234.4164"
         sodipodi:rx="6.2155862"
         sodipodi:ry="6.2155862"
         d="M 193.57112,234.4164 A 6.2155862,6.2155862 0 1 1 181.13994,234.4164 A 6.2155862,6.2155862 0 1 1 193.57112,234.4164 z" />
      <path
         style="fill:none;fill-opacity:0.75;fill-rule:evenodd;stroke:#000000;stroke-width:1px;stroke-linecap:butt;stroke-linejoin:miter;stroke-opacity:1"
         d="M 184.24774,240.18801 C 181.58392,253.50713 186.97631,255.72289 186.91156,265.49433 C 186.84387,275.70972 186.46759,284.14109 182.02789,285.02903"
         id="path3234"
         sodipodi:nodetypes="czs" />
      <path
         style="fill:none;fill-opacity:0.75;fill-rule:evenodd;stroke:#000000;stroke-width:1px;stroke-linecap:butt;stroke-linejoin:miter;stroke-opacity:1"
         d="M 189.13326,239.72911 C 186.46944,253.04823 191.86183,255.26399 191.79708,265.03543 C 191.72939,275.25082 191.35311,283.68219 186.91341,284.57013"
         id="path3236"
         sodipodi:nodetypes="czs" />
    </g>
    <path
       style="fill:#c8c8c8;fill-opacity:1;fill-rule:evenodd;stroke:#000000;stroke-width:1px;stroke-linecap:butt;stroke-linejoin:miter;stroke-opacity:1"
       d="M 271.23942,250.58942 C 248.0335,239.49093 214.36249,215.17122 194.3191,182.9802 C 189.4166,175.10645 214.21137,160.4831 211.292,151.7458 C 207.99493,141.87809 177.30547,137.78827 177.111,127.52603 C 176.42926,91.551924 195.56878,56.883643 239.84598,49.671326 C 313.57275,37.661966 286.25212,188.02138 310.1673,248.07794 C 314.86391,259.8722 300.89348,353.55994 307.65583,353.55994 C 322.72469,353.55994 321.46895,418.85833 293.84271,445.22882 C 266.21647,471.59931 230.67588,470.89742 236.07876,393.74356 C 238.56144,358.29056 273.7509,388.72061 275.00664,353.55994 C 276.26237,318.39927 269.98368,249.33368 271.23942,250.58942 z"
       id="path3238"
       sodipodi:nodetypes="csssssssssc" />
    <path
       sodipodi:nodetypes="csssssssssc"
       id="path3242"
       d="M 363.11968,250.58942 C 386.3256,239.49093 419.99661,215.17122 440.04,182.9802 C 444.9425,175.10645 420.14773,160.4831 423.0671,151.7458 C 426.36417,141.87809 457.05363,137.78827 457.2481,127.52603 C 457.92984,91.551924 438.79032,56.883643 394.51312,49.671326 C 320.78635,37.661966 348.10698,188.02138 324.1918,248.07794 C 319.49519,259.8722 333.46562,353.55994 326.70327,353.55994 C 311.63441,353.55994 312.89015,418.85833 340.51639,445.22882 C 368.14263,471.59931 403.68322,470.89742 398.28034,393.74356 C 395.79766,358.29056 360.6082,388.72061 359.35246,353.55994 C 358.09673,318.39927 364.37542,249.33368 363.11968,250.58942 z"
       style="fill:#c8c8c8;fill-opacity:1;fill-rule:evenodd;stroke:#000000;stroke-width:1px;stroke-linecap:butt;stroke-linejoin:miter;stroke-opacity:1" />
    <path
       sodipodi:nodetypes="csssssssssc"
       id="path3244"
       d="M 653.23942,250.58942 C 630.0335,239.49093 596.36249,215.17122 576.3191,182.9802 C 571.4166,175.10645 596.21137,160.4831 593.292,151.7458 C 589.99493,141.87809 559.30547,137.78827 559.111,127.52603 C 558.42926,91.551924 577.56878,56.883643 621.84598,49.671326 C 695.57275,37.661966 668.25212,188.02138 692.1673,248.07794 C 696.86391,259.8722 689.65583,346.79759 689.65583,353.55994 C 689.65583,388.72061 693.42305,420.11407 675.84271,445.22882 C 653.94116,476.51674 612.67588,470.89742 618.07876,393.74356 C 620.56144,358.29056 655.7509,388.72061 657.00664,353.55994 C 658.26237,318.39927 651.98368,249.33368 653.23942,250.58942 z"
       style="fill:#c8c8c8;fill-opacity:1;fill-rule:evenodd;stroke:#000000;stroke-width:1px;stroke-linecap:butt;stroke-linejoin:miter;stroke-opacity:1" />
    <path
       style="fill:#c8c8c8;fill-opacity:1;fill-rule:evenodd;stroke:#000000;stroke-width:1px;stroke-linecap:butt;stroke-linejoin:miter;stroke-opacity:1"
       d="M 753.61068,250.58942 C 776.8166,239.49093 810.48761,215.17122 830.531,182.9802 C 835.4335,175.10645 810.63873,160.4831 813.5581,151.7458 C 816.85517,141.87809 847.54463,137.78827 847.7391,127.52603 C 848.42084,91.551924 829.28132,56.883643 785.00412,49.671326 C 711.27735,37.661966 738.59798,188.02138 714.6828,248.07794 C 709.98619,259.8722 717.19427,346.79759 717.19427,353.55994 C 717.19427,388.72061 713.42705,420.11407 731.00739,445.22882 C 752.90894,476.51674 794.17422,470.89742 788.77134,393.74356 C 786.28866,358.29056 751.0992,388.72061 749.84346,353.55994 C 748.58773,318.39927 754.86642,249.33368 753.61068,250.58942 z"
       id="path3248"
       sodipodi:nodetypes="csssssssssc" />
    <path
       style="fill:none;fill-opacity:0.75000000000000000;fill-rule:evenodd;stroke:#000000;stroke-width:2.7000001;stroke-linecap:butt;stroke-linejoin:miter;stroke-opacity:1;marker-start:url(#Arrow1Lstart);marker-end:url(#Arrow1Lend);stroke-miterlimit:4;stroke-dasharray:none"
       d="M 421.18373,305.84189 L 591.96411,305.84189"
       id="path3250" />
  </g>
</svg>
