<?xml version="1.0" encoding="UTF-8" standalone="no"?>
<!-- Created with Bouml (http://bouml.free.fr/) -->
<!DOCTYPE svg PUBLIC "-//W3C//DTD SVG 1.1//EN" "http://www.w3.org/Graphics/SVG/1.1/DTD/svg11.dtd">
<svg width="770" height="379" version="1.1" xmlns="http://www.w3.org/2000/svg">
<g>
	<rect fill="#808080" stroke="none" stroke-opacity="1" x="520" y="194" width="2" height="24" />
	<rect fill="#808080" stroke="none" stroke-opacity="1" x="450" y="216" width="72" height="2" />
	<rect fill="#ffffff" stroke="black" stroke-width="1" stroke-opacity="1" x="447" y="191" width="73" height="25" />
	<text font-family="Helvetica" font-size="12" fill="#000000" xml:space="preserve" font-weight="bold" font-style="italic" text-anchor="middle" x="484" y="204">SBGNGlyph</text>
	<line stroke="black" stroke-opacity="1" x1="447" y1="206" x2="520" y2="206" />
	<line stroke="black" stroke-opacity="1" x1="447" y1="211" x2="520" y2="211" />
</g>
<g>
	<rect fill="#808080" stroke="none" stroke-opacity="1" x="170" y="194" width="2" height="24" />
	<rect fill="#808080" stroke="none" stroke-opacity="1" x="58" y="216" width="114" height="2" />
	<rect fill="#ffffff" stroke="black" stroke-width="1" stroke-opacity="1" x="55" y="191" width="115" height="25" />
	<text font-family="Helvetica" font-size="12" fill="#000000" xml:space="preserve" font-weight="bold" font-style="italic" text-anchor="middle" x="113" y="204">SBGNAuxiliaryUnit</text>
	<line stroke="black" stroke-opacity="1" x1="55" y1="206" x2="170" y2="206" />
	<line stroke="black" stroke-opacity="1" x1="55" y1="211" x2="170" y2="211" />
</g>
<g>
	<rect fill="#808080" stroke="none" stroke-opacity="1" x="682" y="309" width="2" height="48" />
	<rect fill="#808080" stroke="none" stroke-opacity="1" x="614" y="355" width="70" height="2" />
	<rect fill="#ffffff" stroke="black" stroke-width="1" stroke-opacity="1" x="611" y="306" width="71" height="49" />
	<text font-family="Helvetica" font-size="12" fill="#000000" xml:space="preserve" font-weight="bold" font-style="italic" text-anchor="middle" x="647" y="319">SBGNNode</text>
	<line stroke="black" stroke-opacity="1" x1="611" y1="321" x2="682" y2="321" />
	<line stroke="black" stroke-opacity="1" x1="611" y1="326" x2="682" y2="326" />
</g>
<g>
	<rect fill="#808080" stroke="none" stroke-opacity="1" x="346" y="309" width="2" height="48" />
	<rect fill="#808080" stroke="none" stroke-opacity="1" x="288" y="355" width="60" height="2" />
	<rect fill="#ffffff" stroke="black" stroke-width="1" stroke-opacity="1" x="285" y="306" width="61" height="49" />
	<text font-family="Helvetica" font-size="12" fill="#000000" xml:space="preserve" font-weight="bold" font-style="italic" text-anchor="middle" x="316" y="319">SBGNArc</text>
	<line stroke="black" stroke-opacity="1" x1="285" y1="321" x2="346" y2="321" />
	<line stroke="black" stroke-opacity="1" x1="285" y1="326" x2="346" y2="326" />
</g>
<g>
	<rect fill="#808080" stroke="none" stroke-opacity="1" x="386" y="19" width="2" height="34" />
	<rect fill="#808080" stroke="none" stroke-opacity="1" x="302" y="51" width="86" height="2" />
	<rect fill="#ffffff" stroke="black" stroke-width="1" stroke-opacity="1" x="299" y="16" width="87" height="35" />
	<text font-family="Helvetica" font-size="12" fill="#000000" xml:space="preserve" font-weight="bold" font-style="italic" text-anchor="middle" x="343" y="29">SBGNElement</text>
	<line stroke="black" stroke-opacity="1" x1="299" y1="31" x2="386" y2="31" />
	<text font-family="Helvetica" font-size="12" fill="#000000" xml:space="preserve" x="302" y="44">id : identifier</text>
	<line stroke="black" stroke-opacity="1" x1="299" y1="46" x2="386" y2="46" />
</g>
<g>
	<line stroke="black" stroke-opacity="1" x1="647" y1="305" x2="647" y2="262" />
</g>
<g>
	<line stroke="black" stroke-opacity="1" x1="647" y1="262" x2="484" y2="262" />
</g>
<g>
	<line stroke="black" stroke-opacity="1" x1="484" y1="262" x2="484" y2="225" />
	<line stroke="black" stroke-opacity="1" x1="484" y1="219" x2="478" y2="225" />
	<line stroke="black" stroke-opacity="1" x1="484" y1="219" x2="490" y2="225" />
	<line stroke="black" stroke-opacity="1" x1="478" y1="225" x2="490" y2="225" />
</g>
<g>
	<line stroke="black" stroke-opacity="1" x1="316" y1="305" x2="316" y2="262" />
</g>
<g>
	<line stroke="black" stroke-opacity="1" x1="316" y1="262" x2="484" y2="262" />
</g>
<g>
	<line stroke="black" stroke-opacity="1" x1="484" y1="262" x2="484" y2="225" />
	<line stroke="black" stroke-opacity="1" x1="484" y1="219" x2="478" y2="225" />
	<line stroke="black" stroke-opacity="1" x1="484" y1="219" x2="490" y2="225" />
	<line stroke="black" stroke-opacity="1" x1="478" y1="225" x2="490" y2="225" />
</g>
<g>
	<line stroke="black" stroke-opacity="1" x1="113" y1="190" x2="112" y2="122" />
</g>
<g>
	<line stroke="black" stroke-opacity="1" x1="112" y1="122" x2="344" y2="122" />
</g>
<g>
	<line stroke="black" stroke-opacity="1" x1="344" y1="122" x2="344" y2="60" />
	<line stroke="black" stroke-opacity="1" x1="344" y1="54" x2="338" y2="60" />
	<line stroke="black" stroke-opacity="1" x1="344" y1="54" x2="350" y2="60" />
	<line stroke="black" stroke-opacity="1" x1="338" y1="60" x2="350" y2="60" />
</g>
<g>
	<line stroke="black" stroke-opacity="1" x1="484" y1="190" x2="484" y2="122" />
</g>
<g>
	<line stroke="black" stroke-opacity="1" x1="484" y1="122" x2="344" y2="122" />
</g>
<g>
	<line stroke="black" stroke-opacity="1" x1="344" y1="122" x2="344" y2="60" />
	<line stroke="black" stroke-opacity="1" x1="344" y1="54" x2="338" y2="60" />
	<line stroke="black" stroke-opacity="1" x1="344" y1="54" x2="350" y2="60" />
	<line stroke="black" stroke-opacity="1" x1="338" y1="60" x2="350" y2="60" />
</g>
<g>
	<line stroke="black" stroke-opacity="1" x1="349" y1="313" x2="610" y2="313" />
</g>
<g>
	<line stroke="black" stroke-opacity="1" x1="349" y1="351" x2="610" y2="351" />
</g>
<g>
	<text font-family="Helvetica" font-size="12" fill="#000000" xml:space="preserve" x="533" y="200">elements</text>
</g>
<g>
	<text font-family="Helvetica" font-size="12" fill="#000000" xml:space="preserve" x="646" y="200">owning_map</text>
</g>
<g>
	<text font-family="Helvetica" font-size="12" fill="#000000" xml:space="preserve" x="531" y="223">*</text>
</g>
<g>
	<text font-family="Helvetica" font-size="12" fill="#000000" xml:space="preserve" x="709" y="223">1</text>
</g>
<g>
	<text font-family="Helvetica" font-size="12" fill="#000000" xml:space="preserve" x="552" y="307">out_node</text>
</g>
<g>
	<text font-family="Helvetica" font-size="12" fill="#000000" xml:space="preserve" x="360" y="307">out_arcs</text>
</g>
<g>
	<text font-family="Helvetica" font-size="12" fill="#000000" xml:space="preserve" x="596" y="330">1</text>
</g>
<g>
	<text font-family="Helvetica" font-size="12" fill="#000000" xml:space="preserve" x="357" y="330">*</text>
</g>
<g>
	<text font-family="Helvetica" font-size="12" fill="#000000" xml:space="preserve" x="560" y="346">in_node</text>
</g>
<g>
	<text font-family="Helvetica" font-size="12" fill="#000000" xml:space="preserve" x="360" y="346">in_arcs</text>
</g>
<g>
	<text font-family="Helvetica" font-size="12" fill="#000000" xml:space="preserve" x="596" y="369">1</text>
</g>
<g>
	<text font-family="Helvetica" font-size="12" fill="#000000" xml:space="preserve" x="357" y="369">*</text>
</g>
<g>
	<rect fill="#808080" stroke="none" stroke-opacity="1" x="755" y="194" width="2" height="24" />
	<rect fill="#808080" stroke="none" stroke-opacity="1" x="727" y="216" width="30" height="2" />
	<rect fill="#ffffff" stroke="black" stroke-width="1" stroke-opacity="1" x="724" y="191" width="31" height="25" />
	<text font-family="Helvetica" font-size="12" fill="#000000" xml:space="preserve" font-weight="bold" text-anchor="middle" x="740" y="204">Map</text>
	<line stroke="black" stroke-opacity="1" x1="724" y1="206" x2="755" y2="206" />
	<line stroke="black" stroke-opacity="1" x1="724" y1="211" x2="755" y2="211" />
</g>
<g>
	<line stroke="black" stroke-opacity="1" x1="723" y1="205" x2="523" y2="205" />
	<polygon fill="#000000" stroke="black" stroke-opacity="1" points="723,205 717,211 711,205 717,199" />
</g>
<g>
	<line stroke="black" stroke-opacity="1" x1="740" y1="190" x2="740" y2="122" />
</g>
<g>
	<line stroke="black" stroke-opacity="1" x1="740" y1="122" x2="344" y2="122" />
</g>
<g>
	<line stroke="black" stroke-opacity="1" x1="344" y1="122" x2="344" y2="60" />
	<line stroke="black" stroke-opacity="1" x1="344" y1="54" x2="338" y2="60" />
	<line stroke="black" stroke-opacity="1" x1="344" y1="54" x2="350" y2="60" />
	<line stroke="black" stroke-opacity="1" x1="338" y1="60" x2="350" y2="60" />
</g>
</svg>
