<?xml version="1.0" encoding="UTF-8" standalone="no"?>
<!-- Created with Bouml (http://bouml.free.fr/) -->
<!DOCTYPE svg PUBLIC "-//W3C//DTD SVG 1.1//EN" "http://www.w3.org/Graphics/SVG/1.1/DTD/svg11.dtd">
<svg width="698" height="388" version="1.1" xmlns="http://www.w3.org/2000/svg">
<g>
	<rect fill="#808080" stroke="none" stroke-opacity="1" x="437" y="96" width="3" height="35" />
	<rect fill="#808080" stroke="none" stroke-opacity="1" x="235" y="128" width="205" height="3" />
	<rect fill="#ffffff" stroke="black" stroke-width="1" stroke-opacity="1" x="231" y="92" width="206" height="36" />
	<text font-family="Helvetica" font-size="15" fill="#000000" xml:space="preserve" font-weight="bold" text-anchor="middle" x="334" y="109">NonStoichiometricProcess</text>
	<line stroke="black" stroke-opacity="1" x1="231" y1="112" x2="437" y2="112" />
	<line stroke="black" stroke-opacity="1" x1="231" y1="120" x2="437" y2="120" />
</g>
<g>
	<rect fill="#808080" stroke="none" stroke-opacity="1" x="413" y="256" width="3" height="47" />
	<rect fill="#808080" stroke="none" stroke-opacity="1" x="261" y="300" width="155" height="3" />
	<rect fill="#ffffff" stroke="black" stroke-width="1" stroke-opacity="1" x="257" y="252" width="156" height="48" />
	<text font-family="Helvetica" font-size="15" fill="#000000" xml:space="preserve" font-weight="bold" text-anchor="middle" x="335" y="269">LogicalOperator</text>
	<line stroke="black" stroke-opacity="1" x1="257" y1="272" x2="413" y2="272" />
	<text font-family="Helvetica" font-size="15" fill="#000000" xml:space="preserve" x="261" y="289">operator_type : enum</text>
	<line stroke="black" stroke-opacity="1" x1="257" y1="292" x2="413" y2="292" />
</g>
<g>
	<line stroke="black" stroke-opacity="1" x1="336" y1="251" x2="336" y2="138" />
	<line stroke="black" stroke-opacity="1" x1="336" y1="132" x2="330" y2="138" />
	<line stroke="black" stroke-opacity="1" x1="336" y1="132" x2="342" y2="138" />
	<line stroke="black" stroke-opacity="1" x1="330" y1="138" x2="342" y2="138" />
</g>
<g>
	<rect fill="#808080" stroke="none" stroke-opacity="1" x="682" y="340" width="3" height="35" />
	<rect fill="#808080" stroke="none" stroke-opacity="1" x="570" y="372" width="115" height="3" />
	<rect fill="#ffffff" stroke="black" stroke-width="1" stroke-opacity="1" x="566" y="336" width="116" height="36" />
	<text font-family="Helvetica" font-size="15" fill="#000000" xml:space="preserve" font-weight="bold" text-anchor="middle" x="624" y="353">ModulationArc</text>
	<line stroke="black" stroke-opacity="1" x1="566" y1="356" x2="682" y2="356" />
	<line stroke="black" stroke-opacity="1" x1="566" y1="364" x2="682" y2="364" />
</g>
<g>
	<rect fill="#808080" stroke="none" stroke-opacity="1" x="655" y="201" width="3" height="35" />
	<rect fill="#808080" stroke="none" stroke-opacity="1" x="583" y="233" width="75" height="3" />
	<rect fill="#ffffff" stroke="black" stroke-width="1" stroke-opacity="1" x="579" y="197" width="76" height="36" />
	<text font-family="Helvetica" font-size="15" fill="#000000" xml:space="preserve" font-weight="bold" text-anchor="middle" x="617" y="214">LogicArc</text>
	<line stroke="black" stroke-opacity="1" x1="579" y1="217" x2="655" y2="217" />
	<line stroke="black" stroke-opacity="1" x1="579" y1="225" x2="655" y2="225" />
</g>
<g>
	<line stroke="black" stroke-opacity="1" x1="578" y1="224" x2="570" y2="219" />
	<line stroke="black" stroke-opacity="1" x1="578" y1="224" x2="573" y2="231" />
	<line stroke-dasharray="4,4" stroke="black" stroke-opacity="1" x1="417" y1="259" x2="578" y2="224" />
</g>
<g>
	<line stroke="black" stroke-opacity="1" x1="565" y1="338" x2="560" y2="330" />
	<line stroke="black" stroke-opacity="1" x1="565" y1="338" x2="557" y2="342" />
	<line stroke-dasharray="4,4" stroke="black" stroke-opacity="1" x1="417" y1="298" x2="565" y2="338" />
</g>
</svg>
