<?xml version="1.0" encoding="UTF-8" standalone="no"?>
<!-- Created with Bouml (http://bouml.free.fr/) -->
<!DOCTYPE svg PUBLIC "-//W3C//DTD SVG 1.1//EN" "http://www.w3.org/Graphics/SVG/1.1/DTD/svg11.dtd">
<svg width="1055" height="413" version="1.1" xmlns="http://www.w3.org/2000/svg">
<g>
	<rect fill="#808080" stroke="none" stroke-opacity="1" x="784" y="201" width="3" height="47" />
	<rect fill="#808080" stroke="none" stroke-opacity="1" x="680" y="245" width="107" height="3" />
	<rect fill="#ffffc0" stroke="black" stroke-width="1" stroke-opacity="1" x="676" y="197" width="108" height="48" />
	<text font-family="Helvetica" font-size="15" fill="#000000" xml:space="preserve" font-weight="bold" font-style="italic" text-anchor="middle" x="730" y="214">SBGNElement</text>
	<line stroke="black" stroke-opacity="1" x1="676" y1="217" x2="784" y2="217" />
	<text font-family="Helvetica" font-size="15" fill="#000000" xml:space="preserve" x="680" y="234">id : identifier</text>
	<line stroke="black" stroke-opacity="1" x1="676" y1="237" x2="784" y2="237" />
</g>
<g>
	<rect fill="#808080" stroke="none" stroke-opacity="1" x="1039" y="365" width="3" height="35" />
	<rect fill="#808080" stroke="none" stroke-opacity="1" x="1003" y="397" width="39" height="3" />
	<rect fill="#ffffc0" stroke="black" stroke-width="1" stroke-opacity="1" x="999" y="361" width="40" height="36" />
	<text font-family="Helvetica" font-size="15" fill="#000000" xml:space="preserve" font-weight="bold" text-anchor="middle" x="1019" y="378">Map</text>
	<line stroke="black" stroke-opacity="1" x1="999" y1="381" x2="1039" y2="381" />
	<line stroke="black" stroke-opacity="1" x1="999" y1="389" x2="1039" y2="389" />
</g>
<g>
	<line stroke="black" stroke-opacity="1" x1="788" y1="223" x2="1021" y2="223" />
</g>
<g>
	<line stroke="black" stroke-opacity="1" x1="1021" y1="223" x2="1021" y2="354" />
	<line stroke="black" stroke-opacity="1" x1="1021" y1="360" x2="1027" y2="354" />
	<line stroke="black" stroke-opacity="1" x1="1021" y1="360" x2="1015" y2="354" />
	<line stroke="black" stroke-opacity="1" x1="1027" y1="354" x2="1015" y2="354" />
</g>
<g>
	<text font-family="Helvetica" font-size="15" fill="#000000" xml:space="preserve" x="612" y="374">elements</text>
</g>
<g>
	<text font-family="Helvetica" font-size="15" fill="#000000" xml:space="preserve" x="612" y="403">1</text>
</g>
<g>
	<text font-family="Helvetica" font-size="15" fill="#000000" xml:space="preserve" x="901" y="374">owning_map</text>
</g>
<g>
	<text font-family="Helvetica" font-size="15" fill="#000000" xml:space="preserve" x="982" y="403">*</text>
</g>
<g>
	<rect fill="#808080" stroke="none" stroke-opacity="1" x="598" y="364" width="3" height="35" />
	<rect fill="#808080" stroke="none" stroke-opacity="1" x="508" y="396" width="93" height="3" />
	<rect fill="#ffffc0" stroke="black" stroke-width="1" stroke-opacity="1" x="504" y="360" width="94" height="36" />
	<text font-family="Helvetica" font-size="15" fill="#000000" xml:space="preserve" font-weight="bold" font-style="italic" text-anchor="middle" x="551" y="377">SBGNGlyph</text>
	<line stroke="black" stroke-opacity="1" x1="504" y1="380" x2="598" y2="380" />
	<line stroke="black" stroke-opacity="1" x1="504" y1="388" x2="598" y2="388" />
</g>
<g>
	<line stroke="black" stroke-opacity="1" x1="553" y1="359" x2="553" y2="304" />
</g>
<g>
	<line stroke="black" stroke-opacity="1" x1="998" y1="380" x2="602" y2="380" />
	<polygon fill="#000000" stroke="black" stroke-opacity="1" points="998,380 992,386 986,380 992,374" />
</g>
<g>
	<line stroke="black" stroke-opacity="1" x1="553" y1="304" x2="732" y2="304" />
</g>
<g>
	<line stroke="black" stroke-opacity="1" x1="732" y1="304" x2="732" y2="255" />
	<line stroke="black" stroke-opacity="1" x1="732" y1="249" x2="726" y2="255" />
	<line stroke="black" stroke-opacity="1" x1="732" y1="249" x2="738" y2="255" />
	<line stroke="black" stroke-opacity="1" x1="726" y1="255" x2="738" y2="255" />
</g>
</svg>
