<?xml version="1.0" encoding="UTF-8" standalone="no"?>
<!-- Created with Bouml (http://bouml.free.fr/) -->
<!DOCTYPE svg PUBLIC "-//W3C//DTD SVG 1.1//EN" "http://www.w3.org/Graphics/SVG/1.1/DTD/svg11.dtd">
<svg width="979" height="412" version="1.1" xmlns="http://www.w3.org/2000/svg">
<g>
	<rect fill="#808080" stroke="none" stroke-opacity="1" x="656" y="203" width="3" height="35" />
	<rect fill="#808080" stroke="none" stroke-opacity="1" x="558" y="235" width="101" height="3" />
	<rect fill="#ffffff" stroke="black" stroke-width="1" stroke-opacity="1" x="554" y="199" width="102" height="36" />
	<text font-family="Helvetica" font-size="15" fill="#000000" xml:space="preserve" font-weight="bold" font-style="italic" text-anchor="middle" x="605" y="216">ProcessNode</text>
	<line stroke="black" stroke-opacity="1" x1="554" y1="219" x2="656" y2="219" />
	<line stroke="black" stroke-opacity="1" x1="554" y1="227" x2="656" y2="227" />
</g>
<g>
	<rect fill="#808080" stroke="none" stroke-opacity="1" x="519" y="363" width="3" height="35" />
	<rect fill="#808080" stroke="none" stroke-opacity="1" x="317" y="395" width="205" height="3" />
	<rect fill="#ffffff" stroke="black" stroke-width="1" stroke-opacity="1" x="313" y="359" width="206" height="36" />
	<text font-family="Helvetica" font-size="15" fill="#000000" xml:space="preserve" font-weight="bold" text-anchor="middle" x="416" y="376">NonStoichiometricProcess</text>
	<line stroke="black" stroke-opacity="1" x1="313" y1="379" x2="519" y2="379" />
	<line stroke="black" stroke-opacity="1" x1="313" y1="387" x2="519" y2="387" />
</g>
<g>
	<line stroke="black" stroke-opacity="1" x1="418" y1="358" x2="418" y2="299" />
</g>
<g>
	<line stroke="black" stroke-opacity="1" x1="418" y1="299" x2="607" y2="299" />
</g>
<g>
	<line stroke="black" stroke-opacity="1" x1="607" y1="299" x2="607" y2="245" />
	<line stroke="black" stroke-opacity="1" x1="607" y1="239" x2="601" y2="245" />
	<line stroke="black" stroke-opacity="1" x1="607" y1="239" x2="613" y2="245" />
	<line stroke="black" stroke-opacity="1" x1="601" y1="245" x2="613" y2="245" />
</g>
<g>
	<rect fill="#808080" stroke="none" stroke-opacity="1" x="650" y="74" width="3" height="73" />
	<rect fill="#808080" stroke="none" stroke-opacity="1" x="564" y="144" width="89" height="3" />
	<rect fill="#ffffff" stroke="black" stroke-width="1" stroke-opacity="1" x="560" y="70" width="90" height="74" />
	<text font-family="Helvetica" font-size="15" fill="#000000" xml:space="preserve" font-weight="bold" font-style="italic" text-anchor="middle" x="605" y="87">SBGNNode</text>
	<line stroke="black" stroke-opacity="1" x1="560" y1="90" x2="650" y2="90" />
	<line stroke="black" stroke-opacity="1" x1="560" y1="98" x2="650" y2="98" />
</g>
<g>
	<rect fill="#808080" stroke="none" stroke-opacity="1" x="889" y="364" width="3" height="35" />
	<rect fill="#808080" stroke="none" stroke-opacity="1" x="717" y="396" width="175" height="3" />
	<rect fill="#ffffff" stroke="black" stroke-width="1" stroke-opacity="1" x="713" y="360" width="176" height="36" />
	<text font-family="Helvetica" font-size="15" fill="#000000" xml:space="preserve" font-weight="bold" text-anchor="middle" x="801" y="377">StoichiometricProcess</text>
	<line stroke="black" stroke-opacity="1" x1="713" y1="380" x2="889" y2="380" />
	<line stroke="black" stroke-opacity="1" x1="713" y1="388" x2="889" y2="388" />
</g>
<g>
	<line stroke="black" stroke-opacity="1" x1="607" y1="198" x2="607" y2="154" />
	<line stroke="black" stroke-opacity="1" x1="607" y1="148" x2="601" y2="154" />
	<line stroke="black" stroke-opacity="1" x1="607" y1="148" x2="613" y2="154" />
	<line stroke="black" stroke-opacity="1" x1="601" y1="154" x2="613" y2="154" />
</g>
<g>
	<line stroke="black" stroke-opacity="1" x1="803" y1="359" x2="803" y2="299" />
</g>
<g>
	<line stroke="black" stroke-opacity="1" x1="803" y1="299" x2="607" y2="299" />
</g>
<g>
	<line stroke="black" stroke-opacity="1" x1="607" y1="299" x2="607" y2="245" />
	<line stroke="black" stroke-opacity="1" x1="607" y1="239" x2="601" y2="245" />
	<line stroke="black" stroke-opacity="1" x1="607" y1="239" x2="613" y2="245" />
	<line stroke="black" stroke-opacity="1" x1="601" y1="245" x2="613" y2="245" />
</g>
<g>
	<rect fill="#808080" stroke="none" stroke-opacity="1" x="963" y="75" width="3" height="71" />
	<rect fill="#808080" stroke="none" stroke-opacity="1" x="889" y="143" width="77" height="3" />
	<rect fill="#ffffff" stroke="black" stroke-width="1" stroke-opacity="1" x="885" y="71" width="78" height="72" />
	<text font-family="Helvetica" font-size="15" fill="#000000" xml:space="preserve" font-weight="bold" font-style="italic" text-anchor="middle" x="924" y="88">SBGNArc</text>
	<line stroke="black" stroke-opacity="1" x1="885" y1="91" x2="963" y2="91" />
	<line stroke="black" stroke-opacity="1" x1="885" y1="99" x2="963" y2="99" />
</g>
<g>
	<line stroke="black" stroke-opacity="1" x1="884" y1="131" x2="654" y2="131" />
</g>
<g>
	<line stroke="black" stroke-opacity="1" x1="884" y1="87" x2="654" y2="87" />
</g>
<g>
	<text font-family="Helvetica" font-size="15" fill="#000000" xml:space="preserve" x="664" y="110">1</text>
</g>
<g>
	<text font-family="Helvetica" font-size="15" fill="#000000" xml:space="preserve" x="868" y="110">*</text>
</g>
<g>
	<text font-family="Helvetica" font-size="15" fill="#000000" xml:space="preserve" x="664" y="154">1</text>
</g>
<g>
	<text font-family="Helvetica" font-size="15" fill="#000000" xml:space="preserve" x="825" y="125">in_arcs</text>
</g>
<g>
	<text font-family="Helvetica" font-size="15" fill="#000000" xml:space="preserve" x="664" y="81">out_node</text>
</g>
<g>
	<text font-family="Helvetica" font-size="15" fill="#000000" xml:space="preserve" x="815" y="81">out_arcs</text>
</g>
<g>
	<text font-family="Helvetica" font-size="15" fill="#000000" xml:space="preserve" x="664" y="125">in_node</text>
</g>
<g>
	<text font-family="Helvetica" font-size="15" fill="#000000" xml:space="preserve" x="868" y="154">*</text>
</g>
</svg>
