<?xml version="1.0" encoding="UTF-8" standalone="no"?>
<!-- Created with Bouml (http://bouml.free.fr/) -->
<!DOCTYPE svg PUBLIC "-//W3C//DTD SVG 1.1//EN" "http://www.w3.org/Graphics/SVG/1.1/DTD/svg11.dtd">
<svg width="979" height="317" version="1.1" xmlns="http://www.w3.org/2000/svg">
<g>
	<rect fill="#808080" stroke="none" stroke-opacity="1" x="655" y="180" width="3" height="35" />
	<rect fill="#808080" stroke="none" stroke-opacity="1" x="557" y="212" width="101" height="3" />
	<rect fill="#ffffff" stroke="black" stroke-width="1" stroke-opacity="1" x="553" y="176" width="102" height="36" />
	<text font-family="Helvetica" font-size="15" fill="#000000" xml:space="preserve" font-weight="bold" font-style="italic" text-anchor="middle" x="604" y="193">ProcessNode</text>
	<line stroke="black" stroke-opacity="1" x1="553" y1="196" x2="655" y2="196" />
	<line stroke="black" stroke-opacity="1" x1="553" y1="204" x2="655" y2="204" />
</g>
<g>
	<rect fill="#808080" stroke="none" stroke-opacity="1" x="571" y="257" width="3" height="35" />
	<rect fill="#808080" stroke="none" stroke-opacity="1" x="369" y="289" width="205" height="3" />
	<rect fill="#ffffff" stroke="black" stroke-width="1" stroke-opacity="1" x="365" y="253" width="206" height="36" />
	<text font-family="Helvetica" font-size="15" fill="#000000" xml:space="preserve" font-weight="bold" text-anchor="middle" x="468" y="270">NonStoichiometricProcess</text>
	<line stroke="black" stroke-opacity="1" x1="365" y1="273" x2="571" y2="273" />
	<line stroke="black" stroke-opacity="1" x1="365" y1="281" x2="571" y2="281" />
</g>
<g>
	<line stroke="black" stroke-opacity="1" x1="467" y1="252" x2="467" y2="234" />
</g>
<g>
	<line stroke="black" stroke-opacity="1" x1="467" y1="234" x2="606" y2="234" />
</g>
<g>
	<line stroke="black" stroke-opacity="1" x1="606" y1="234" x2="606" y2="222" />
	<line stroke="black" stroke-opacity="1" x1="606" y1="216" x2="600" y2="222" />
	<line stroke="black" stroke-opacity="1" x1="606" y1="216" x2="612" y2="222" />
	<line stroke="black" stroke-opacity="1" x1="600" y1="222" x2="612" y2="222" />
</g>
<g>
	<rect fill="#808080" stroke="none" stroke-opacity="1" x="829" y="257" width="3" height="47" />
	<rect fill="#808080" stroke="none" stroke-opacity="1" x="657" y="301" width="175" height="3" />
	<rect fill="#ffffff" stroke="black" stroke-width="1" stroke-opacity="1" x="653" y="253" width="176" height="48" />
	<text font-family="Helvetica" font-size="15" fill="#000000" xml:space="preserve" font-weight="bold" text-anchor="middle" x="741" y="270">StoichiometricProcess</text>
	<line stroke="black" stroke-opacity="1" x1="653" y1="273" x2="829" y2="273" />
	<text font-family="Helvetica" font-size="15" fill="#000000" xml:space="preserve" x="657" y="290">process_type : enum</text>
	<line stroke="black" stroke-opacity="1" x1="653" y1="293" x2="829" y2="293" />
</g>
<g>
	<rect fill="#808080" stroke="none" stroke-opacity="1" x="650" y="74" width="3" height="73" />
	<rect fill="#808080" stroke="none" stroke-opacity="1" x="564" y="144" width="89" height="3" />
	<rect fill="#ffffff" stroke="black" stroke-width="1" stroke-opacity="1" x="560" y="70" width="90" height="74" />
	<text font-family="Helvetica" font-size="15" fill="#000000" xml:space="preserve" font-weight="bold" font-style="italic" text-anchor="middle" x="605" y="87">SBGNNode</text>
	<line stroke="black" stroke-opacity="1" x1="560" y1="90" x2="650" y2="90" />
	<line stroke="black" stroke-opacity="1" x1="560" y1="98" x2="650" y2="98" />
</g>
<g>
	<line stroke="black" stroke-opacity="1" x1="743" y1="252" x2="743" y2="234" />
</g>
<g>
	<line stroke="black" stroke-opacity="1" x1="743" y1="234" x2="606" y2="234" />
</g>
<g>
	<line stroke="black" stroke-opacity="1" x1="606" y1="234" x2="606" y2="222" />
	<line stroke="black" stroke-opacity="1" x1="606" y1="216" x2="600" y2="222" />
	<line stroke="black" stroke-opacity="1" x1="606" y1="216" x2="612" y2="222" />
	<line stroke="black" stroke-opacity="1" x1="600" y1="222" x2="612" y2="222" />
</g>
<g>
	<line stroke="black" stroke-opacity="1" x1="606" y1="175" x2="606" y2="154" />
	<line stroke="black" stroke-opacity="1" x1="606" y1="148" x2="600" y2="154" />
	<line stroke="black" stroke-opacity="1" x1="606" y1="148" x2="612" y2="154" />
	<line stroke="black" stroke-opacity="1" x1="600" y1="154" x2="612" y2="154" />
</g>
<g>
	<rect fill="#808080" stroke="none" stroke-opacity="1" x="963" y="75" width="3" height="71" />
	<rect fill="#808080" stroke="none" stroke-opacity="1" x="889" y="143" width="77" height="3" />
	<rect fill="#ffffff" stroke="black" stroke-width="1" stroke-opacity="1" x="885" y="71" width="78" height="72" />
	<text font-family="Helvetica" font-size="15" fill="#000000" xml:space="preserve" font-weight="bold" font-style="italic" text-anchor="middle" x="924" y="88">SBGNArc</text>
	<line stroke="black" stroke-opacity="1" x1="885" y1="91" x2="963" y2="91" />
	<line stroke="black" stroke-opacity="1" x1="885" y1="99" x2="963" y2="99" />
</g>
<g>
	<line stroke="black" stroke-opacity="1" x1="884" y1="87" x2="654" y2="87" />
</g>
<g>
	<line stroke="black" stroke-opacity="1" x1="884" y1="131" x2="654" y2="131" />
</g>
<g>
	<text font-family="Helvetica" font-size="15" fill="#000000" xml:space="preserve" x="664" y="81">out_node</text>
</g>
<g>
	<text font-family="Helvetica" font-size="15" fill="#000000" xml:space="preserve" x="815" y="81">out_arcs</text>
</g>
<g>
	<text font-family="Helvetica" font-size="15" fill="#000000" xml:space="preserve" x="664" y="110">1</text>
</g>
<g>
	<text font-family="Helvetica" font-size="15" fill="#000000" xml:space="preserve" x="868" y="110">*</text>
</g>
<g>
	<text font-family="Helvetica" font-size="15" fill="#000000" xml:space="preserve" x="664" y="125">in_node</text>
</g>
<g>
	<text font-family="Helvetica" font-size="15" fill="#000000" xml:space="preserve" x="825" y="125">in_arcs</text>
</g>
<g>
	<text font-family="Helvetica" font-size="15" fill="#000000" xml:space="preserve" x="664" y="154">1</text>
</g>
<g>
	<text font-family="Helvetica" font-size="15" fill="#000000" xml:space="preserve" x="868" y="154">*</text>
</g>
</svg>
