<?xml version="1.0" encoding="UTF-8" standalone="no"?>
<!-- Created with Bouml (http://bouml.free.fr/) -->
<!DOCTYPE svg PUBLIC "-//W3C//DTD SVG 1.1//EN" "http://www.w3.org/Graphics/SVG/1.1/DTD/svg11.dtd">
<svg width="881" height="422" version="1.1" xmlns="http://www.w3.org/2000/svg">
<g>
	<rect fill="#808080" stroke="none" stroke-opacity="1" x="291" y="160" width="3" height="35" />
	<rect fill="#808080" stroke="none" stroke-opacity="1" x="143" y="192" width="151" height="3" />
	<rect fill="#ffffff" stroke="black" stroke-width="1" stroke-opacity="1" x="139" y="156" width="152" height="36" />
	<text font-family="Helvetica" font-size="15" fill="#000000" xml:space="preserve" font-weight="bold" text-anchor="middle" x="215" y="173">SimpleCloneMarker</text>
	<line stroke="black" stroke-opacity="1" x1="139" y1="176" x2="291" y2="176" />
	<line stroke="black" stroke-opacity="1" x1="139" y1="184" x2="291" y2="184" />
</g>
<g>
	<rect fill="#808080" stroke="none" stroke-opacity="1" x="634" y="161" width="3" height="35" />
	<rect fill="#808080" stroke="none" stroke-opacity="1" x="536" y="193" width="101" height="3" />
	<rect fill="#ffffff" stroke="black" stroke-width="1" stroke-opacity="1" x="532" y="157" width="102" height="36" />
	<text font-family="Helvetica" font-size="15" fill="#000000" xml:space="preserve" font-weight="bold" font-style="italic" text-anchor="middle" x="583" y="174">StatelessEPN</text>
	<line stroke="black" stroke-opacity="1" x1="532" y1="177" x2="634" y2="177" />
	<line stroke="black" stroke-opacity="1" x1="532" y1="185" x2="634" y2="185" />
</g>
<g>
	<line stroke="black" stroke-opacity="1" x1="295" y1="176" x2="301" y2="182" />
	<line stroke="black" stroke-opacity="1" x1="295" y1="176" x2="301" y2="170" />
	<line stroke-dasharray="4,4" stroke="black" stroke-opacity="1" x1="531" y1="176" x2="295" y2="176" />
</g>
<g>
	<rect fill="#808080" stroke="none" stroke-opacity="1" x="651" y="373" width="3" height="35" />
	<rect fill="#808080" stroke="none" stroke-opacity="1" x="519" y="405" width="135" height="3" />
	<rect fill="#ffffff" stroke="black" stroke-width="1" stroke-opacity="1" x="515" y="369" width="136" height="36" />
	<text font-family="Helvetica" font-size="15" fill="#000000" xml:space="preserve" font-weight="bold" text-anchor="middle" x="583" y="386">UnspecifiedEntity</text>
	<line stroke="black" stroke-opacity="1" x1="515" y1="389" x2="651" y2="389" />
	<line stroke="black" stroke-opacity="1" x1="515" y1="397" x2="651" y2="397" />
</g>
<g>
	<rect fill="#808080" stroke="none" stroke-opacity="1" x="865" y="374" width="3" height="35" />
	<rect fill="#808080" stroke="none" stroke-opacity="1" x="741" y="406" width="127" height="3" />
	<rect fill="#ffffff" stroke="black" stroke-width="1" stroke-opacity="1" x="737" y="370" width="128" height="36" />
	<text font-family="Helvetica" font-size="15" fill="#000000" xml:space="preserve" font-weight="bold" text-anchor="middle" x="801" y="387">PerturbingAgent</text>
	<line stroke="black" stroke-opacity="1" x1="737" y1="390" x2="865" y2="390" />
	<line stroke="black" stroke-opacity="1" x1="737" y1="398" x2="865" y2="398" />
</g>
<g>
	<rect fill="#808080" stroke="none" stroke-opacity="1" x="435" y="373" width="3" height="35" />
	<rect fill="#808080" stroke="none" stroke-opacity="1" x="311" y="405" width="127" height="3" />
	<rect fill="#ffffff" stroke="black" stroke-width="1" stroke-opacity="1" x="307" y="369" width="128" height="36" />
	<text font-family="Helvetica" font-size="15" fill="#000000" xml:space="preserve" font-weight="bold" text-anchor="middle" x="371" y="386">SimpleChemical</text>
	<line stroke="black" stroke-opacity="1" x1="307" y1="389" x2="435" y2="389" />
	<line stroke="black" stroke-opacity="1" x1="307" y1="397" x2="435" y2="397" />
</g>
<g>
	<line stroke="black" stroke-opacity="1" x1="585" y1="283" x2="585" y2="203" />
	<line stroke="black" stroke-opacity="1" x1="585" y1="197" x2="579" y2="203" />
	<line stroke="black" stroke-opacity="1" x1="585" y1="197" x2="591" y2="203" />
	<line stroke="black" stroke-opacity="1" x1="579" y1="203" x2="591" y2="203" />
</g>
<g>
	<line stroke="black" stroke-opacity="1" x1="585" y1="368" x2="585" y2="283" />
</g>
<g>
	<line stroke="black" stroke-opacity="1" x1="585" y1="283" x2="585" y2="203" />
	<line stroke="black" stroke-opacity="1" x1="585" y1="197" x2="579" y2="203" />
	<line stroke="black" stroke-opacity="1" x1="585" y1="197" x2="591" y2="203" />
	<line stroke="black" stroke-opacity="1" x1="579" y1="203" x2="591" y2="203" />
</g>
<g>
	<line stroke="black" stroke-opacity="1" x1="802" y1="283" x2="585" y2="283" />
</g>
<g>
	<line stroke="black" stroke-opacity="1" x1="802" y1="369" x2="802" y2="283" />
</g>
<g>
	<line stroke="black" stroke-opacity="1" x1="585" y1="283" x2="585" y2="203" />
	<line stroke="black" stroke-opacity="1" x1="585" y1="197" x2="579" y2="203" />
	<line stroke="black" stroke-opacity="1" x1="585" y1="197" x2="591" y2="203" />
	<line stroke="black" stroke-opacity="1" x1="579" y1="203" x2="591" y2="203" />
</g>
<g>
	<line stroke="black" stroke-opacity="1" x1="372" y1="283" x2="585" y2="283" />
</g>
<g>
	<line stroke="black" stroke-opacity="1" x1="372" y1="368" x2="372" y2="283" />
</g>
<g>
	<rect fill="#808080" stroke="none" stroke-opacity="1" x="642" y="27" width="3" height="83" />
	<rect fill="#808080" stroke="none" stroke-opacity="1" x="528" y="107" width="117" height="3" />
	<rect fill="#ffffff" stroke="black" stroke-width="1" stroke-opacity="1" x="524" y="23" width="118" height="84" />
	<text font-family="Helvetica" font-size="15" fill="#000000" xml:space="preserve" font-weight="bold" font-style="italic" text-anchor="middle" x="583" y="40">EntityPoolNode</text>
	<line stroke="black" stroke-opacity="1" x1="524" y1="43" x2="642" y2="43" />
	<text font-family="Helvetica" font-size="15" fill="#000000" xml:space="preserve" x="528" y="60">label : string</text>
	<text font-family="Helvetica" font-size="15" fill="#000000" xml:space="preserve" x="528" y="78">cardinality : int</text>
	<text font-family="Helvetica" font-size="15" fill="#000000" xml:space="preserve" x="528" y="96">nature : cv</text>
	<line stroke="black" stroke-opacity="1" x1="524" y1="99" x2="642" y2="99" />
</g>
<g>
	<line stroke="black" stroke-opacity="1" x1="585" y1="156" x2="585" y2="117" />
	<line stroke="black" stroke-opacity="1" x1="585" y1="111" x2="579" y2="117" />
	<line stroke="black" stroke-opacity="1" x1="585" y1="111" x2="591" y2="117" />
	<line stroke="black" stroke-opacity="1" x1="579" y1="117" x2="591" y2="117" />
</g>
</svg>
