<?xml version="1.0" encoding="UTF-8" standalone="no"?>
<!-- Created with Bouml (http://bouml.free.fr/) -->
<!DOCTYPE svg PUBLIC "-//W3C//DTD SVG 1.1//EN" "http://www.w3.org/Graphics/SVG/1.1/DTD/svg11.dtd">
<svg width="1032" height="442" version="1.1" xmlns="http://www.w3.org/2000/svg">
<g>
	<rect fill="#808080" stroke="none" stroke-opacity="1" x="700" y="184" width="3" height="35" />
	<rect fill="#808080" stroke="none" stroke-opacity="1" x="612" y="216" width="91" height="3" />
	<rect fill="#ffffff" stroke="black" stroke-width="1" stroke-opacity="1" x="608" y="180" width="92" height="36" />
	<text font-family="Helvetica" font-size="15" fill="#000000" xml:space="preserve" font-weight="bold" font-style="italic" text-anchor="middle" x="654" y="197">StatefulEPN</text>
	<line stroke="black" stroke-opacity="1" x1="608" y1="200" x2="700" y2="200" />
	<line stroke="black" stroke-opacity="1" x1="608" y1="208" x2="700" y2="208" />
</g>
<g>
	<rect fill="#808080" stroke="none" stroke-opacity="1" x="713" y="31" width="3" height="83" />
	<rect fill="#808080" stroke="none" stroke-opacity="1" x="599" y="111" width="117" height="3" />
	<rect fill="#ffffff" stroke="black" stroke-width="1" stroke-opacity="1" x="595" y="27" width="118" height="84" />
	<text font-family="Helvetica" font-size="15" fill="#000000" xml:space="preserve" font-weight="bold" font-style="italic" text-anchor="middle" x="654" y="44">EntityPoolNode</text>
	<line stroke="black" stroke-opacity="1" x1="595" y1="47" x2="713" y2="47" />
	<text font-family="Helvetica" font-size="15" fill="#000000" xml:space="preserve" x="599" y="64">label : string</text>
	<text font-family="Helvetica" font-size="15" fill="#000000" xml:space="preserve" x="599" y="82">cardinality : int</text>
	<text font-family="Helvetica" font-size="15" fill="#000000" xml:space="preserve" x="599" y="100">nature : cv</text>
	<line stroke="black" stroke-opacity="1" x1="595" y1="103" x2="713" y2="103" />
</g>
<g>
	<rect fill="#808080" stroke="none" stroke-opacity="1" x="730" y="394" width="3" height="35" />
	<rect fill="#808080" stroke="none" stroke-opacity="1" x="584" y="426" width="149" height="3" />
	<rect fill="#ffffff" stroke="black" stroke-width="1" stroke-opacity="1" x="580" y="390" width="150" height="36" />
	<text font-family="Helvetica" font-size="15" fill="#000000" xml:space="preserve" font-weight="bold" text-anchor="middle" x="655" y="407">NucleicAcidFeature</text>
	<line stroke="black" stroke-opacity="1" x1="580" y1="410" x2="730" y2="410" />
	<line stroke="black" stroke-opacity="1" x1="580" y1="418" x2="730" y2="418" />
</g>
<g>
	<rect fill="#808080" stroke="none" stroke-opacity="1" x="901" y="392" width="3" height="35" />
	<rect fill="#808080" stroke="none" stroke-opacity="1" x="831" y="424" width="73" height="3" />
	<rect fill="#ffffff" stroke="black" stroke-width="1" stroke-opacity="1" x="827" y="388" width="74" height="36" />
	<text font-family="Helvetica" font-size="15" fill="#000000" xml:space="preserve" font-weight="bold" text-anchor="middle" x="864" y="405">Complex</text>
	<line stroke="black" stroke-opacity="1" x1="827" y1="408" x2="901" y2="408" />
	<line stroke="black" stroke-opacity="1" x1="827" y1="416" x2="901" y2="416" />
</g>
<g>
	<rect fill="#808080" stroke="none" stroke-opacity="1" x="346" y="169" width="3" height="65" />
	<rect fill="#808080" stroke="none" stroke-opacity="1" x="244" y="231" width="105" height="3" />
	<rect fill="#ffffff" stroke="black" stroke-width="1" stroke-opacity="1" x="240" y="165" width="106" height="66" />
	<text font-family="Helvetica" font-size="15" fill="#000000" xml:space="preserve" font-weight="bold" text-anchor="middle" x="293" y="182">StateVariable</text>
	<line stroke="black" stroke-opacity="1" x1="240" y1="185" x2="346" y2="185" />
	<text font-family="Helvetica" font-size="15" fill="#000000" xml:space="preserve" x="244" y="202">name : string</text>
	<text font-family="Helvetica" font-size="15" fill="#000000" xml:space="preserve" x="244" y="220">value : string</text>
	<line stroke="black" stroke-opacity="1" x1="240" y1="223" x2="346" y2="223" />
</g>
<g>
	<rect fill="#808080" stroke="none" stroke-opacity="1" x="518" y="393" width="3" height="35" />
	<rect fill="#808080" stroke="none" stroke-opacity="1" x="402" y="425" width="119" height="3" />
	<rect fill="#ffffff" stroke="black" stroke-width="1" stroke-opacity="1" x="398" y="389" width="120" height="36" />
	<text font-family="Helvetica" font-size="15" fill="#000000" xml:space="preserve" font-weight="bold" text-anchor="middle" x="458" y="406">Macromolecule</text>
	<line stroke="black" stroke-opacity="1" x1="398" y1="409" x2="518" y2="409" />
	<line stroke="black" stroke-opacity="1" x1="398" y1="417" x2="518" y2="417" />
</g>
<g>
	<line stroke="black" stroke-opacity="1" x1="656" y1="179" x2="656" y2="121" />
	<line stroke="black" stroke-opacity="1" x1="656" y1="115" x2="650" y2="121" />
	<line stroke="black" stroke-opacity="1" x1="656" y1="115" x2="662" y2="121" />
	<line stroke="black" stroke-opacity="1" x1="650" y1="121" x2="662" y2="121" />
</g>
<g>
	<line stroke="black" stroke-opacity="1" x1="656" y1="389" x2="656" y2="305" />
</g>
<g>
	<line stroke="black" stroke-opacity="1" x1="656" y1="305" x2="656" y2="226" />
	<line stroke="black" stroke-opacity="1" x1="656" y1="220" x2="650" y2="226" />
	<line stroke="black" stroke-opacity="1" x1="656" y1="220" x2="662" y2="226" />
	<line stroke="black" stroke-opacity="1" x1="650" y1="226" x2="662" y2="226" />
</g>
<g>
	<line stroke="black" stroke-opacity="1" x1="866" y1="387" x2="866" y2="304" />
</g>
<g>
	<line stroke="black" stroke-opacity="1" x1="866" y1="304" x2="656" y2="304" />
</g>
<g>
	<line stroke="black" stroke-opacity="1" x1="656" y1="304" x2="656" y2="226" />
	<line stroke="black" stroke-opacity="1" x1="656" y1="220" x2="650" y2="226" />
	<line stroke="black" stroke-opacity="1" x1="656" y1="220" x2="662" y2="226" />
	<line stroke="black" stroke-opacity="1" x1="650" y1="226" x2="662" y2="226" />
</g>
<g>
	<line stroke="black" stroke-opacity="1" x1="607" y1="200" x2="350" y2="200" />
	<polygon fill="#000000" stroke="black" stroke-opacity="1" points="607,200 601,206 595,200 601,194" />
</g>
<g>
	<line stroke="black" stroke-opacity="1" x1="460" y1="388" x2="460" y2="304" />
</g>
<g>
	<line stroke="black" stroke-opacity="1" x1="460" y1="304" x2="656" y2="304" />
</g>
<g>
	<line stroke="black" stroke-opacity="1" x1="656" y1="304" x2="656" y2="226" />
	<line stroke="black" stroke-opacity="1" x1="656" y1="220" x2="650" y2="226" />
	<line stroke="black" stroke-opacity="1" x1="656" y1="220" x2="662" y2="226" />
	<line stroke="black" stroke-opacity="1" x1="650" y1="226" x2="662" y2="226" />
</g>
<g>
	<rect fill="#808080" stroke="none" stroke-opacity="1" x="1016" y="179" width="3" height="47" />
	<rect fill="#808080" stroke="none" stroke-opacity="1" x="858" y="223" width="161" height="3" />
	<rect fill="#ffffff" stroke="black" stroke-width="1" stroke-opacity="1" x="854" y="175" width="162" height="48" />
	<text font-family="Helvetica" font-size="15" fill="#000000" xml:space="preserve" font-weight="bold" text-anchor="middle" x="935" y="192">LabelledCloneMarker</text>
	<line stroke="black" stroke-opacity="1" x1="854" y1="195" x2="1016" y2="195" />
	<text font-family="Helvetica" font-size="15" fill="#000000" xml:space="preserve" x="858" y="212">label : string</text>
	<line stroke="black" stroke-opacity="1" x1="854" y1="215" x2="1016" y2="215" />
</g>
<g>
	<line stroke="black" stroke-opacity="1" x1="853" y1="200" x2="847" y2="194" />
	<line stroke="black" stroke-opacity="1" x1="853" y1="200" x2="847" y2="206" />
	<line stroke-dasharray="4,4" stroke="black" stroke-opacity="1" x1="704" y1="200" x2="853" y2="200" />
</g>
<g>
	<text font-family="Helvetica" font-size="15" fill="#000000" xml:space="preserve" x="360" y="194">states</text>
</g>
<g>
	<text font-family="Helvetica" font-size="15" fill="#000000" xml:space="preserve" x="515" y="194">owning_epn</text>
</g>
<g>
	<text font-family="Helvetica" font-size="15" fill="#000000" xml:space="preserve" x="360" y="223">*</text>
</g>
<g>
	<text font-family="Helvetica" font-size="15" fill="#000000" xml:space="preserve" x="589" y="223">1</text>
</g>
</svg>
