<?xml version="1.0" encoding="UTF-8" standalone="no"?>
<!-- Created with Bouml (http://bouml.free.fr/) -->
<!DOCTYPE svg PUBLIC "-//W3C//DTD SVG 1.1//EN" "http://www.w3.org/Graphics/SVG/1.1/DTD/svg11.dtd">
<svg width="949" height="463" version="1.1" xmlns="http://www.w3.org/2000/svg">
<g>
	<rect fill="#808080" stroke="none" stroke-opacity="1" x="677" y="274" width="2" height="16" />
	<rect fill="#808080" stroke="none" stroke-opacity="1" x="651" y="288" width="28" height="2" />
	<rect fill="#ffffc0" stroke="black" stroke-width="1" stroke-opacity="1" x="648" y="271" width="29" height="17" />
	<text font-family="Helvetica" font-size="7" fill="#000000" xml:space="preserve" font-weight="bold" text-anchor="middle" x="663" y="279">OrNode</text>
	<line stroke="black" stroke-opacity="1" x1="648" y1="281" x2="677" y2="281" />
	<line stroke="black" stroke-opacity="1" x1="648" y1="285" x2="677" y2="285" />
</g>
<g>
	<rect fill="#808080" stroke="none" stroke-opacity="1" x="638" y="273" width="2" height="16" />
	<rect fill="#808080" stroke="none" stroke-opacity="1" x="608" y="287" width="32" height="2" />
	<rect fill="#ffffc0" stroke="black" stroke-width="1" stroke-opacity="1" x="605" y="270" width="33" height="17" />
	<text font-family="Helvetica" font-size="7" fill="#000000" xml:space="preserve" font-weight="bold" text-anchor="middle" x="622" y="278">AndNode</text>
	<line stroke="black" stroke-opacity="1" x1="605" y1="280" x2="638" y2="280" />
	<line stroke="black" stroke-opacity="1" x1="605" y1="284" x2="638" y2="284" />
</g>
<g>
	<rect fill="#808080" stroke="none" stroke-opacity="1" x="172" y="211" width="2" height="16" />
	<rect fill="#808080" stroke="none" stroke-opacity="1" x="132" y="225" width="42" height="2" />
	<rect fill="#ffffc0" stroke="black" stroke-width="1" stroke-opacity="1" x="129" y="208" width="43" height="17" />
	<text font-family="Helvetica" font-size="7" fill="#000000" xml:space="preserve" font-weight="bold" text-anchor="middle" x="151" y="216">Association</text>
	<line stroke="black" stroke-opacity="1" x1="129" y1="218" x2="172" y2="218" />
	<line stroke="black" stroke-opacity="1" x1="129" y1="222" x2="172" y2="222" />
</g>
<g>
	<rect fill="#808080" stroke="none" stroke-opacity="1" x="546" y="141" width="2" height="16" />
	<rect fill="#808080" stroke="none" stroke-opacity="1" x="494" y="155" width="54" height="2" />
	<rect fill="#ffffc0" stroke="black" stroke-width="1" stroke-opacity="1" x="491" y="138" width="55" height="17" />
	<text font-family="Helvetica" font-size="7" fill="#000000" xml:space="preserve" font-weight="bold" font-style="italic" text-anchor="middle" x="519" y="146">ReferenceNode</text>
	<line stroke="black" stroke-opacity="1" x1="491" y1="148" x2="546" y2="148" />
	<line stroke="black" stroke-opacity="1" x1="491" y1="152" x2="546" y2="152" />
</g>
<g>
	<rect fill="#808080" stroke="none" stroke-opacity="1" x="718" y="274" width="2" height="16" />
	<rect fill="#808080" stroke="none" stroke-opacity="1" x="690" y="288" width="30" height="2" />
	<rect fill="#ffffc0" stroke="black" stroke-width="1" stroke-opacity="1" x="687" y="271" width="31" height="17" />
	<text font-family="Helvetica" font-size="7" fill="#000000" xml:space="preserve" font-weight="bold" text-anchor="middle" x="703" y="279">NotNode</text>
	<line stroke="black" stroke-opacity="1" x1="687" y1="281" x2="718" y2="281" />
	<line stroke="black" stroke-opacity="1" x1="687" y1="285" x2="718" y2="285" />
</g>
<g>
	<rect fill="#808080" stroke="none" stroke-opacity="1" x="185" y="412" width="2" height="22" />
	<rect fill="#808080" stroke="none" stroke-opacity="1" x="101" y="432" width="86" height="2" />
	<rect fill="#ffffc0" stroke="black" stroke-width="1" stroke-opacity="1" x="98" y="409" width="87" height="23" />
	<text font-family="Helvetica" font-size="7" fill="#000000" xml:space="preserve" font-weight="bold" text-anchor="middle" x="142" y="417">SimpleChemicalMultimer</text>
	<line stroke="black" stroke-opacity="1" x1="98" y1="419" x2="185" y2="419" />
	<text font-family="Helvetica" font-size="7" fill="#000000" xml:space="preserve" x="100" y="427">cardinality</text>
	<line stroke="black" stroke-opacity="1" x1="98" y1="429" x2="185" y2="429" />
</g>
<g>
	<rect fill="#808080" stroke="none" stroke-opacity="1" x="871" y="123" width="2" height="16" />
	<rect fill="#808080" stroke="none" stroke-opacity="1" x="823" y="137" width="50" height="2" />
	<rect fill="#ffffc0" stroke="black" stroke-width="1" stroke-opacity="1" x="820" y="120" width="51" height="17" />
	<text font-family="Helvetica" font-size="7" fill="#000000" xml:space="preserve" font-weight="bold" text-anchor="middle" x="846" y="128">AuxiliaryUnits</text>
	<line stroke="black" stroke-opacity="1" x1="820" y1="130" x2="871" y2="130" />
	<line stroke="black" stroke-opacity="1" x1="820" y1="134" x2="871" y2="134" />
</g>
<g>
	<rect fill="#808080" stroke="none" stroke-opacity="1" x="376" y="427" width="2" height="22" />
	<rect fill="#808080" stroke="none" stroke-opacity="1" x="318" y="447" width="60" height="2" />
	<rect fill="#ffffc0" stroke="black" stroke-width="1" stroke-opacity="1" x="315" y="424" width="61" height="23" />
	<text font-family="Helvetica" font-size="7" fill="#000000" xml:space="preserve" font-weight="bold" text-anchor="middle" x="346" y="432">MultimerComplex</text>
	<line stroke="black" stroke-opacity="1" x1="315" y1="434" x2="376" y2="434" />
	<text font-family="Helvetica" font-size="7" fill="#000000" xml:space="preserve" x="317" y="442">cardinality</text>
	<line stroke="black" stroke-opacity="1" x1="315" y1="444" x2="376" y2="444" />
</g>
<g>
	<rect fill="#808080" stroke="none" stroke-opacity="1" x="299" y="19" width="2" height="16" />
	<rect fill="#808080" stroke="none" stroke-opacity="1" x="259" y="33" width="42" height="2" />
	<rect fill="#ffffc0" stroke="black" stroke-width="1" stroke-opacity="1" x="256" y="16" width="43" height="17" />
	<text font-family="Helvetica" font-size="7" fill="#000000" xml:space="preserve" font-weight="bold" font-style="italic" text-anchor="middle" x="278" y="24">SBGNGlyph</text>
	<line stroke="black" stroke-opacity="1" x1="256" y1="26" x2="299" y2="26" />
	<line stroke="black" stroke-opacity="1" x1="256" y1="30" x2="299" y2="30" />
</g>
<g>
	<rect fill="#808080" stroke="none" stroke-opacity="1" x="573" y="220" width="2" height="22" />
	<rect fill="#808080" stroke="none" stroke-opacity="1" x="545" y="240" width="30" height="2" />
	<rect fill="#ffffc0" stroke="black" stroke-width="1" stroke-opacity="1" x="542" y="217" width="31" height="23" />
	<text font-family="Helvetica" font-size="7" fill="#000000" xml:space="preserve" font-weight="bold" text-anchor="middle" x="558" y="225">Tag</text>
	<line stroke="black" stroke-opacity="1" x1="542" y1="227" x2="573" y2="227" />
	<text font-family="Helvetica" font-size="7" fill="#000000" xml:space="preserve" x="544" y="235">identifier</text>
	<line stroke="black" stroke-opacity="1" x1="542" y1="237" x2="573" y2="237" />
</g>
<g>
	<rect fill="#808080" stroke="none" stroke-opacity="1" x="232" y="134" width="2" height="22" />
	<rect fill="#808080" stroke="none" stroke-opacity="1" x="196" y="154" width="38" height="2" />
	<rect fill="#ffffc0" stroke="black" stroke-width="1" stroke-opacity="1" x="193" y="131" width="39" height="23" />
	<text font-family="Helvetica" font-size="7" fill="#000000" xml:space="preserve" font-weight="bold" text-anchor="middle" x="213" y="139">Phenotype</text>
	<line stroke="black" stroke-opacity="1" x1="193" y1="141" x2="232" y2="141" />
	<text font-family="Helvetica" font-size="7" fill="#000000" xml:space="preserve" x="195" y="149">name</text>
	<line stroke="black" stroke-opacity="1" x1="193" y1="151" x2="232" y2="151" />
</g>
<g>
	<rect fill="#808080" stroke="none" stroke-opacity="1" x="803" y="177" width="2" height="32" />
	<rect fill="#808080" stroke="none" stroke-opacity="1" x="745" y="207" width="60" height="2" />
	<rect fill="#ffffc0" stroke="black" stroke-width="1" stroke-opacity="1" x="742" y="174" width="61" height="33" />
	<text font-family="Helvetica" font-size="7" fill="#000000" xml:space="preserve" font-weight="bold" text-anchor="middle" x="773" y="182">UnitOfInformation</text>
	<line stroke="black" stroke-opacity="1" x1="742" y1="184" x2="803" y2="184" />
	<text font-family="Helvetica" font-size="7" fill="#000000" xml:space="preserve" x="744" y="192">prefix</text>
	<text font-family="Helvetica" font-size="7" fill="#000000" xml:space="preserve" x="744" y="201">annotation</text>
	<line stroke="black" stroke-opacity="1" x1="742" y1="203" x2="803" y2="203" />
</g>
<g>
	<rect fill="#808080" stroke="none" stroke-opacity="1" x="870" y="178" width="2" height="32" />
	<rect fill="#808080" stroke="none" stroke-opacity="1" x="824" y="208" width="48" height="2" />
	<rect fill="#ffffc0" stroke="black" stroke-width="1" stroke-opacity="1" x="821" y="175" width="49" height="33" />
	<text font-family="Helvetica" font-size="7" fill="#000000" xml:space="preserve" font-weight="bold" text-anchor="middle" x="846" y="183">StateVariable</text>
	<line stroke="black" stroke-opacity="1" x1="821" y1="185" x2="870" y2="185" />
	<text font-family="Helvetica" font-size="7" fill="#000000" xml:space="preserve" x="823" y="193">name</text>
	<text font-family="Helvetica" font-size="7" fill="#000000" xml:space="preserve" x="823" y="202">value</text>
	<line stroke="black" stroke-opacity="1" x1="821" y1="204" x2="870" y2="204" />
</g>
<g>
	<rect fill="#808080" stroke="none" stroke-opacity="1" x="564" y="306" width="2" height="16" />
	<rect fill="#808080" stroke="none" stroke-opacity="1" x="510" y="320" width="56" height="2" />
	<rect fill="#ffffc0" stroke="black" stroke-width="1" stroke-opacity="1" x="507" y="303" width="57" height="17" />
	<text font-family="Helvetica" font-size="7" fill="#000000" xml:space="preserve" font-weight="bold" text-anchor="middle" x="536" y="311">PerturbingAgent</text>
	<line stroke="black" stroke-opacity="1" x1="507" y1="313" x2="564" y2="313" />
	<line stroke="black" stroke-opacity="1" x1="507" y1="317" x2="564" y2="317" />
</g>
<g>
	<rect fill="#808080" stroke="none" stroke-opacity="1" x="125" y="94" width="2" height="16" />
	<rect fill="#808080" stroke="none" stroke-opacity="1" x="97" y="108" width="30" height="2" />
	<rect fill="#ffffc0" stroke="black" stroke-width="1" stroke-opacity="1" x="94" y="91" width="31" height="17" />
	<text font-family="Helvetica" font-size="7" fill="#000000" xml:space="preserve" font-weight="bold" text-anchor="middle" x="110" y="99">Process</text>
	<line stroke="black" stroke-opacity="1" x1="94" y1="101" x2="125" y2="101" />
	<line stroke="black" stroke-opacity="1" x1="94" y1="105" x2="125" y2="105" />
</g>
<g>
	<rect fill="#808080" stroke="none" stroke-opacity="1" x="934" y="179" width="2" height="22" />
	<rect fill="#808080" stroke="none" stroke-opacity="1" x="890" y="199" width="46" height="2" />
	<rect fill="#ffffc0" stroke="black" stroke-width="1" stroke-opacity="1" x="887" y="176" width="47" height="23" />
	<text font-family="Helvetica" font-size="7" fill="#000000" xml:space="preserve" font-weight="bold" text-anchor="middle" x="911" y="184">CloneMarker</text>
	<line stroke="black" stroke-opacity="1" x1="887" y1="186" x2="934" y2="186" />
	<text font-family="Helvetica" font-size="7" fill="#000000" xml:space="preserve" x="889" y="194">identifier</text>
	<line stroke="black" stroke-opacity="1" x1="887" y1="196" x2="934" y2="196" />
</g>
<g>
	<rect fill="#808080" stroke="none" stroke-opacity="1" x="296" y="428" width="2" height="22" />
	<rect fill="#808080" stroke="none" stroke-opacity="1" x="202" y="448" width="96" height="2" />
	<rect fill="#ffffc0" stroke="black" stroke-width="1" stroke-opacity="1" x="199" y="425" width="97" height="23" />
	<text font-family="Helvetica" font-size="7" fill="#000000" xml:space="preserve" font-weight="bold" text-anchor="middle" x="248" y="433">NucleicAcidFeatureMultimer</text>
	<line stroke="black" stroke-opacity="1" x1="199" y1="435" x2="296" y2="435" />
	<text font-family="Helvetica" font-size="7" fill="#000000" xml:space="preserve" x="201" y="443">cardinality</text>
	<line stroke="black" stroke-opacity="1" x1="199" y1="445" x2="296" y2="445" />
</g>
<g>
	<line stroke="black" stroke-opacity="1" x1="897" y1="175" x2="862" y2="144" />
	<line stroke="black" stroke-opacity="1" x1="858" y1="140" x2="858" y2="148" />
	<line stroke="black" stroke-opacity="1" x1="858" y1="140" x2="866" y2="139" />
	<line stroke="black" stroke-opacity="1" x1="858" y1="148" x2="866" y2="139" />
</g>
<g>
	<line stroke="black" stroke-opacity="1" x1="277" y1="62" x2="277" y2="41" />
	<line stroke="black" stroke-opacity="1" x1="278" y1="36" x2="271" y2="41" />
	<line stroke="black" stroke-opacity="1" x1="278" y1="36" x2="283" y2="42" />
	<line stroke="black" stroke-opacity="1" x1="271" y1="41" x2="283" y2="42" />
</g>
<g>
	<line stroke="black" stroke-opacity="1" x1="147" y1="207" x2="115" y2="116" />
	<line stroke="black" stroke-opacity="1" x1="114" y1="111" x2="110" y2="118" />
	<line stroke="black" stroke-opacity="1" x1="114" y1="111" x2="121" y2="114" />
	<line stroke="black" stroke-opacity="1" x1="110" y1="118" x2="121" y2="114" />
</g>
<g>
	<line stroke="black" stroke-opacity="1" x1="552" y1="216" x2="527" y2="163" />
	<line stroke="black" stroke-opacity="1" x1="525" y1="158" x2="522" y2="165" />
	<line stroke="black" stroke-opacity="1" x1="525" y1="158" x2="532" y2="160" />
	<line stroke="black" stroke-opacity="1" x1="522" y1="165" x2="532" y2="160" />
</g>
<g>
	<line stroke="black" stroke-opacity="1" x1="794" y1="173" x2="826" y2="143" />
	<line stroke="black" stroke-opacity="1" x1="831" y1="140" x2="822" y2="139" />
	<line stroke="black" stroke-opacity="1" x1="831" y1="140" x2="830" y2="148" />
	<line stroke="black" stroke-opacity="1" x1="822" y1="139" x2="830" y2="148" />
</g>
<g>
	<line stroke="black" stroke-opacity="1" x1="192" y1="134" x2="133" y2="110" />
	<line stroke="black" stroke-opacity="1" x1="128" y1="108" x2="131" y2="115" />
	<line stroke="black" stroke-opacity="1" x1="128" y1="108" x2="135" y2="104" />
	<line stroke="black" stroke-opacity="1" x1="131" y1="115" x2="135" y2="104" />
</g>
<g>
	<line stroke="black" stroke-opacity="1" x1="847" y1="174" x2="847" y2="146" />
	<line stroke="black" stroke-opacity="1" x1="847" y1="140" x2="841" y2="146" />
	<line stroke="black" stroke-opacity="1" x1="847" y1="140" x2="853" y2="146" />
	<line stroke="black" stroke-opacity="1" x1="841" y1="146" x2="853" y2="146" />
</g>
<g>
	<rect fill="#808080" stroke="none" stroke-opacity="1" x="281" y="308" width="2" height="16" />
	<rect fill="#808080" stroke="none" stroke-opacity="1" x="261" y="322" width="22" height="2" />
	<rect fill="#ffffc0" stroke="black" stroke-width="1" stroke-opacity="1" x="258" y="305" width="23" height="17" />
	<text font-family="Helvetica" font-size="7" fill="#000000" xml:space="preserve" font-weight="bold" text-anchor="middle" x="270" y="313">Sink</text>
	<line stroke="black" stroke-opacity="1" x1="258" y1="315" x2="281" y2="315" />
	<line stroke="black" stroke-opacity="1" x1="258" y1="319" x2="281" y2="319" />
</g>
<g>
	<rect fill="#808080" stroke="none" stroke-opacity="1" x="90" y="191" width="2" height="16" />
	<rect fill="#808080" stroke="none" stroke-opacity="1" x="30" y="205" width="62" height="2" />
	<rect fill="#ffffc0" stroke="black" stroke-width="1" stroke-opacity="1" x="27" y="188" width="63" height="17" />
	<text font-family="Helvetica" font-size="7" fill="#000000" xml:space="preserve" font-weight="bold" text-anchor="middle" x="59" y="196">UncertainProcess</text>
	<line stroke="black" stroke-opacity="1" x1="27" y1="198" x2="90" y2="198" />
	<line stroke="black" stroke-opacity="1" x1="27" y1="202" x2="90" y2="202" />
</g>
<g>
	<rect fill="#808080" stroke="none" stroke-opacity="1" x="65" y="132" width="2" height="16" />
	<rect fill="#808080" stroke="none" stroke-opacity="1" x="11" y="146" width="56" height="2" />
	<rect fill="#ffffc0" stroke="black" stroke-width="1" stroke-opacity="1" x="8" y="129" width="57" height="17" />
	<text font-family="Helvetica" font-size="7" fill="#000000" xml:space="preserve" font-weight="bold" text-anchor="middle" x="37" y="137">OmittedProcess</text>
	<line stroke="black" stroke-opacity="1" x1="8" y1="139" x2="65" y2="139" />
	<line stroke="black" stroke-opacity="1" x1="8" y1="143" x2="65" y2="143" />
</g>
<g>
	<rect fill="#808080" stroke="none" stroke-opacity="1" x="283" y="361" width="2" height="22" />
	<rect fill="#808080" stroke="none" stroke-opacity="1" x="217" y="381" width="68" height="2" />
	<rect fill="#ffffc0" stroke="black" stroke-width="1" stroke-opacity="1" x="214" y="358" width="69" height="23" />
	<text font-family="Helvetica" font-size="7" fill="#000000" xml:space="preserve" font-weight="bold" text-anchor="middle" x="249" y="366">NucleicAcidFeature</text>
	<line stroke="black" stroke-opacity="1" x1="214" y1="368" x2="283" y2="368" />
	<text font-family="Helvetica" font-size="7" fill="#000000" xml:space="preserve" x="216" y="376">conceptualType</text>
	<line stroke="black" stroke-opacity="1" x1="214" y1="378" x2="283" y2="378" />
</g>
<g>
	<line stroke="black" stroke-opacity="1" x1="64" y1="187" x2="101" y2="116" />
	<line stroke="black" stroke-opacity="1" x1="104" y1="111" x2="95" y2="113" />
	<line stroke="black" stroke-opacity="1" x1="104" y1="111" x2="106" y2="119" />
	<line stroke="black" stroke-opacity="1" x1="95" y1="113" x2="106" y2="119" />
</g>
<g>
	<rect fill="#808080" stroke="none" stroke-opacity="1" x="296" y="66" width="2" height="16" />
	<rect fill="#808080" stroke="none" stroke-opacity="1" x="258" y="80" width="40" height="2" />
	<rect fill="#ffffc0" stroke="black" stroke-width="1" stroke-opacity="1" x="255" y="63" width="41" height="17" />
	<text font-family="Helvetica" font-size="7" fill="#000000" xml:space="preserve" font-weight="bold" font-style="italic" text-anchor="middle" x="276" y="71">SBGNNode</text>
	<line stroke="black" stroke-opacity="1" x1="255" y1="73" x2="296" y2="73" />
	<line stroke="black" stroke-opacity="1" x1="255" y1="77" x2="296" y2="77" />
</g>
<g>
	<line stroke="black" stroke-opacity="1" x1="56" y1="128" x2="87" y2="109" />
	<line stroke="black" stroke-opacity="1" x1="93" y1="107" x2="84" y2="104" />
	<line stroke="black" stroke-opacity="1" x1="93" y1="107" x2="90" y2="115" />
	<line stroke="black" stroke-opacity="1" x1="84" y1="104" x2="90" y2="115" />
</g>
<g>
	<line stroke="black" stroke-opacity="1" x1="249" y1="424" x2="249" y2="390" />
	<line stroke="black" stroke-opacity="1" x1="249" y1="384" x2="243" y2="390" />
	<line stroke="black" stroke-opacity="1" x1="249" y1="384" x2="255" y2="390" />
	<line stroke="black" stroke-opacity="1" x1="243" y1="390" x2="255" y2="390" />
</g>
<g>
	<rect fill="#808080" stroke="none" stroke-opacity="1" x="698" y="143" width="2" height="16" />
	<rect fill="#808080" stroke="none" stroke-opacity="1" x="628" y="157" width="72" height="2" />
	<rect fill="#ffffc0" stroke="black" stroke-width="1" stroke-opacity="1" x="625" y="140" width="73" height="17" />
	<text font-family="Helvetica" font-size="7" fill="#000000" xml:space="preserve" font-weight="bold" font-style="italic" text-anchor="middle" x="662" y="148">LogicalOperatorNode</text>
	<line stroke="black" stroke-opacity="1" x1="625" y1="150" x2="698" y2="150" />
	<line stroke="black" stroke-opacity="1" x1="625" y1="154" x2="698" y2="154" />
</g>
<g>
	<line stroke="black" stroke-opacity="1" x1="277" y1="251" x2="277" y2="89" />
	<line stroke="black" stroke-opacity="1" x1="277" y1="83" x2="271" y2="89" />
	<line stroke="black" stroke-opacity="1" x1="277" y1="83" x2="283" y2="89" />
	<line stroke="black" stroke-opacity="1" x1="271" y1="89" x2="283" y2="89" />
</g>
<g>
	<line stroke="black" stroke-opacity="1" x1="624" y1="141" x2="304" y2="78" />
	<line stroke="black" stroke-opacity="1" x1="299" y1="77" x2="303" y2="84" />
	<line stroke="black" stroke-opacity="1" x1="299" y1="77" x2="306" y2="72" />
	<line stroke="black" stroke-opacity="1" x1="303" y1="84" x2="306" y2="72" />
</g>
<g>
	<line stroke="black" stroke-opacity="1" x1="490" y1="138" x2="304" y2="81" />
	<line stroke="black" stroke-opacity="1" x1="299" y1="80" x2="302" y2="87" />
	<line stroke="black" stroke-opacity="1" x1="299" y1="80" x2="306" y2="76" />
	<line stroke="black" stroke-opacity="1" x1="302" y1="87" x2="306" y2="76" />
</g>
<g>
	<line stroke="black" stroke-opacity="1" x1="363" y1="141" x2="293" y2="86" />
	<line stroke="black" stroke-opacity="1" x1="289" y1="83" x2="290" y2="91" />
	<line stroke="black" stroke-opacity="1" x1="289" y1="83" x2="297" y2="81" />
	<line stroke="black" stroke-opacity="1" x1="290" y1="91" x2="297" y2="81" />
</g>
<g>
	<line stroke="black" stroke-opacity="1" x1="128" y1="97" x2="248" y2="76" />
	<line stroke="black" stroke-opacity="1" x1="254" y1="76" x2="247" y2="71" />
	<line stroke="black" stroke-opacity="1" x1="254" y1="76" x2="249" y2="82" />
	<line stroke="black" stroke-opacity="1" x1="247" y1="71" x2="249" y2="82" />
</g>
<g>
	<line stroke="black" stroke-opacity="1" x1="625" y1="269" x2="656" y2="165" />
	<line stroke="black" stroke-opacity="1" x1="658" y1="160" x2="650" y2="164" />
	<line stroke="black" stroke-opacity="1" x1="658" y1="160" x2="662" y2="167" />
	<line stroke="black" stroke-opacity="1" x1="650" y1="164" x2="662" y2="167" />
</g>
<g>
	<line stroke="black" stroke-opacity="1" x1="700" y1="270" x2="666" y2="165" />
	<line stroke="black" stroke-opacity="1" x1="665" y1="160" x2="661" y2="167" />
	<line stroke="black" stroke-opacity="1" x1="665" y1="160" x2="672" y2="163" />
	<line stroke="black" stroke-opacity="1" x1="661" y1="167" x2="672" y2="163" />
</g>
<g>
	<line stroke="black" stroke-opacity="1" x1="819" y1="126" x2="304" y2="74" />
	<line stroke="black" stroke-opacity="1" x1="299" y1="74" x2="304" y2="80" />
	<line stroke="black" stroke-opacity="1" x1="299" y1="74" x2="305" y2="68" />
	<line stroke="black" stroke-opacity="1" x1="304" y1="80" x2="305" y2="68" />
</g>
<g>
	<line stroke="black" stroke-opacity="1" x1="663" y1="270" x2="663" y2="166" />
	<line stroke="black" stroke-opacity="1" x1="663" y1="160" x2="657" y2="166" />
	<line stroke="black" stroke-opacity="1" x1="663" y1="160" x2="669" y2="166" />
	<line stroke="black" stroke-opacity="1" x1="657" y1="166" x2="669" y2="166" />
</g>
<g>
	<rect fill="#808080" stroke="none" stroke-opacity="1" x="227" y="187" width="2" height="16" />
	<rect fill="#808080" stroke="none" stroke-opacity="1" x="185" y="201" width="44" height="2" />
	<rect fill="#ffffc0" stroke="black" stroke-width="1" stroke-opacity="1" x="182" y="184" width="45" height="17" />
	<text font-family="Helvetica" font-size="7" fill="#000000" xml:space="preserve" font-weight="bold" text-anchor="middle" x="205" y="192">Dissociation</text>
	<line stroke="black" stroke-opacity="1" x1="182" y1="194" x2="227" y2="194" />
	<line stroke="black" stroke-opacity="1" x1="182" y1="198" x2="227" y2="198" />
</g>
<g>
	<line stroke="black" stroke-opacity="1" x1="195" y1="183" x2="125" y2="115" />
	<line stroke="black" stroke-opacity="1" x1="121" y1="111" x2="121" y2="119" />
	<line stroke="black" stroke-opacity="1" x1="121" y1="111" x2="129" y2="110" />
	<line stroke="black" stroke-opacity="1" x1="121" y1="119" x2="129" y2="110" />
</g>
<g>
	<rect fill="#808080" stroke="none" stroke-opacity="1" x="401" y="145" width="2" height="22" />
	<rect fill="#808080" stroke="none" stroke-opacity="1" x="357" y="165" width="46" height="2" />
	<rect fill="#ffffc0" stroke="black" stroke-width="1" stroke-opacity="1" x="354" y="142" width="47" height="23" />
	<text font-family="Helvetica" font-size="7" fill="#000000" xml:space="preserve" font-weight="bold" text-anchor="middle" x="378" y="150">Compartment</text>
	<line stroke="black" stroke-opacity="1" x1="354" y1="152" x2="401" y2="152" />
	<text font-family="Helvetica" font-size="7" fill="#000000" xml:space="preserve" x="356" y="160">name</text>
	<line stroke="black" stroke-opacity="1" x1="354" y1="162" x2="401" y2="162" />
</g>
<g>
	<rect fill="#808080" stroke="none" stroke-opacity="1" x="303" y="255" width="2" height="22" />
	<rect fill="#808080" stroke="none" stroke-opacity="1" x="251" y="275" width="54" height="2" />
	<rect fill="#ffffc0" stroke="black" stroke-width="1" stroke-opacity="1" x="248" y="252" width="55" height="23" />
	<text font-family="Helvetica" font-size="7" fill="#000000" xml:space="preserve" font-weight="bold" font-style="italic" text-anchor="middle" x="276" y="260">EntityPoolNode</text>
	<line stroke="black" stroke-opacity="1" x1="248" y1="262" x2="303" y2="262" />
	<text font-family="Helvetica" font-size="7" fill="#000000" xml:space="preserve" x="250" y="270">name</text>
	<line stroke="black" stroke-opacity="1" x1="248" y1="272" x2="303" y2="272" />
</g>
<g>
	<line stroke="black" stroke-opacity="1" x1="407" y1="305" x2="311" y2="274" />
	<line stroke="black" stroke-opacity="1" x1="306" y1="273" x2="309" y2="280" />
	<line stroke="black" stroke-opacity="1" x1="306" y1="273" x2="313" y2="269" />
	<line stroke="black" stroke-opacity="1" x1="309" y1="280" x2="313" y2="269" />
</g>
<g>
	<line stroke="black" stroke-opacity="1" x1="506" y1="307" x2="311" y2="271" />
	<line stroke="black" stroke-opacity="1" x1="306" y1="270" x2="310" y2="276" />
	<line stroke="black" stroke-opacity="1" x1="306" y1="270" x2="312" y2="265" />
	<line stroke="black" stroke-opacity="1" x1="310" y1="276" x2="312" y2="265" />
</g>
<g>
	<line stroke="black" stroke-opacity="1" x1="168" y1="303" x2="241" y2="276" />
	<line stroke="black" stroke-opacity="1" x1="247" y1="274" x2="239" y2="270" />
	<line stroke="black" stroke-opacity="1" x1="247" y1="274" x2="243" y2="281" />
	<line stroke="black" stroke-opacity="1" x1="239" y1="270" x2="243" y2="281" />
</g>
<g>
	<line stroke="black" stroke-opacity="1" x1="332" y1="305" x2="299" y2="281" />
	<line stroke="black" stroke-opacity="1" x1="295" y1="278" x2="296" y2="286" />
	<line stroke="black" stroke-opacity="1" x1="295" y1="278" x2="303" y2="276" />
	<line stroke="black" stroke-opacity="1" x1="296" y1="286" x2="303" y2="276" />
</g>
<g>
	<line stroke="black" stroke-opacity="1" x1="271" y1="304" x2="273" y2="283" />
	<line stroke="black" stroke-opacity="1" x1="274" y1="278" x2="267" y2="283" />
	<line stroke="black" stroke-opacity="1" x1="274" y1="278" x2="279" y2="284" />
	<line stroke="black" stroke-opacity="1" x1="267" y1="283" x2="279" y2="284" />
</g>
<g>
	<rect fill="#808080" stroke="none" stroke-opacity="1" x="385" y="309" width="2" height="16" />
	<rect fill="#808080" stroke="none" stroke-opacity="1" x="309" y="323" width="78" height="2" />
	<rect fill="#ffffc0" stroke="black" stroke-width="1" stroke-opacity="1" x="306" y="306" width="79" height="17" />
	<text font-family="Helvetica" font-size="7" fill="#000000" xml:space="preserve" font-weight="bold" font-style="italic" text-anchor="middle" x="346" y="314">StatefulEntityPoolNode</text>
	<line stroke="black" stroke-opacity="1" x1="306" y1="316" x2="385" y2="316" />
	<line stroke="black" stroke-opacity="1" x1="306" y1="320" x2="385" y2="320" />
</g>
<g>
	<rect fill="#808080" stroke="none" stroke-opacity="1" x="171" y="307" width="2" height="16" />
	<rect fill="#808080" stroke="none" stroke-opacity="1" x="117" y="321" width="56" height="2" />
	<rect fill="#ffffc0" stroke="black" stroke-width="1" stroke-opacity="1" x="114" y="304" width="57" height="17" />
	<text font-family="Helvetica" font-size="7" fill="#000000" xml:space="preserve" font-weight="bold" text-anchor="middle" x="143" y="312">SimpleChemical</text>
	<line stroke="black" stroke-opacity="1" x1="114" y1="314" x2="171" y2="314" />
	<line stroke="black" stroke-opacity="1" x1="114" y1="318" x2="171" y2="318" />
</g>
<g>
	<rect fill="#808080" stroke="none" stroke-opacity="1" x="468" y="309" width="2" height="16" />
	<rect fill="#808080" stroke="none" stroke-opacity="1" x="410" y="323" width="60" height="2" />
	<rect fill="#ffffc0" stroke="black" stroke-width="1" stroke-opacity="1" x="407" y="306" width="61" height="17" />
	<text font-family="Helvetica" font-size="7" fill="#000000" xml:space="preserve" font-weight="bold" text-anchor="middle" x="438" y="314">UnspecifiedEntity</text>
	<line stroke="black" stroke-opacity="1" x1="407" y1="316" x2="468" y2="316" />
	<line stroke="black" stroke-opacity="1" x1="407" y1="320" x2="468" y2="320" />
</g>
<g>
	<rect fill="#808080" stroke="none" stroke-opacity="1" x="488" y="221" width="2" height="22" />
	<rect fill="#808080" stroke="none" stroke-opacity="1" x="460" y="241" width="30" height="2" />
	<rect fill="#ffffc0" stroke="black" stroke-width="1" stroke-opacity="1" x="457" y="218" width="31" height="23" />
	<text font-family="Helvetica" font-size="7" fill="#000000" xml:space="preserve" font-weight="bold" text-anchor="middle" x="473" y="226">SubMap</text>
	<line stroke="black" stroke-opacity="1" x1="457" y1="228" x2="488" y2="228" />
	<text font-family="Helvetica" font-size="7" fill="#000000" xml:space="preserve" x="459" y="236">name</text>
	<line stroke="black" stroke-opacity="1" x1="457" y1="238" x2="488" y2="238" />
</g>
<g>
	<line stroke="black" stroke-opacity="1" x1="479" y1="217" x2="508" y2="163" />
	<line stroke="black" stroke-opacity="1" x1="511" y1="158" x2="502" y2="160" />
	<line stroke="black" stroke-opacity="1" x1="511" y1="158" x2="513" y2="166" />
	<line stroke="black" stroke-opacity="1" x1="502" y1="160" x2="513" y2="166" />
</g>
<g>
	<line stroke="black" stroke-opacity="1" x1="346" y1="361" x2="346" y2="332" />
	<line stroke="black" stroke-opacity="1" x1="346" y1="326" x2="340" y2="332" />
	<line stroke="black" stroke-opacity="1" x1="346" y1="326" x2="352" y2="332" />
	<line stroke="black" stroke-opacity="1" x1="340" y1="332" x2="352" y2="332" />
</g>
<g>
	<line stroke="black" stroke-opacity="1" x1="143" y1="408" x2="143" y2="330" />
	<line stroke="black" stroke-opacity="1" x1="143" y1="324" x2="137" y2="330" />
	<line stroke="black" stroke-opacity="1" x1="143" y1="324" x2="149" y2="330" />
	<line stroke="black" stroke-opacity="1" x1="137" y1="330" x2="149" y2="330" />
</g>
<g>
	<line stroke="black" stroke-opacity="1" x1="414" y1="362" x2="366" y2="329" />
	<line stroke="black" stroke-opacity="1" x1="362" y1="326" x2="363" y2="334" />
	<line stroke="black" stroke-opacity="1" x1="362" y1="326" x2="370" y2="324" />
	<line stroke="black" stroke-opacity="1" x1="363" y1="334" x2="370" y2="324" />
</g>
<g>
	<line stroke="black" stroke-opacity="1" x1="271" y1="357" x2="319" y2="328" />
	<line stroke="black" stroke-opacity="1" x1="325" y1="326" x2="316" y2="323" />
	<line stroke="black" stroke-opacity="1" x1="325" y1="326" x2="322" y2="334" />
	<line stroke="black" stroke-opacity="1" x1="316" y1="323" x2="322" y2="334" />
</g>
<g>
	<rect fill="#808080" stroke="none" stroke-opacity="1" x="467" y="366" width="2" height="22" />
	<rect fill="#808080" stroke="none" stroke-opacity="1" x="401" y="386" width="68" height="2" />
	<rect fill="#ffffc0" stroke="black" stroke-width="1" stroke-opacity="1" x="398" y="363" width="69" height="23" />
	<text font-family="Helvetica" font-size="7" fill="#000000" xml:space="preserve" font-weight="bold" text-anchor="middle" x="433" y="371">Macromolecule</text>
	<line stroke="black" stroke-opacity="1" x1="398" y1="373" x2="467" y2="373" />
	<text font-family="Helvetica" font-size="7" fill="#000000" xml:space="preserve" x="400" y="381">macromoleculeType</text>
	<line stroke="black" stroke-opacity="1" x1="398" y1="383" x2="467" y2="383" />
</g>
<g>
	<rect fill="#808080" stroke="none" stroke-opacity="1" x="227" y="306" width="2" height="16" />
	<rect fill="#808080" stroke="none" stroke-opacity="1" x="203" y="320" width="26" height="2" />
	<rect fill="#ffffc0" stroke="black" stroke-width="1" stroke-opacity="1" x="200" y="303" width="27" height="17" />
	<text font-family="Helvetica" font-size="7" fill="#000000" xml:space="preserve" font-weight="bold" text-anchor="middle" x="214" y="311">Source</text>
	<line stroke="black" stroke-opacity="1" x1="200" y1="313" x2="227" y2="313" />
	<line stroke="black" stroke-opacity="1" x1="200" y1="317" x2="227" y2="317" />
</g>
<g>
	<line stroke="black" stroke-opacity="1" x1="227" y1="302" x2="251" y2="281" />
	<line stroke="black" stroke-opacity="1" x1="256" y1="278" x2="247" y2="277" />
	<line stroke="black" stroke-opacity="1" x1="256" y1="278" x2="255" y2="286" />
	<line stroke="black" stroke-opacity="1" x1="247" y1="277" x2="255" y2="286" />
</g>
<g>
	<rect fill="#808080" stroke="none" stroke-opacity="1" x="472" y="426" width="2" height="22" />
	<rect fill="#808080" stroke="none" stroke-opacity="1" x="392" y="446" width="82" height="2" />
	<rect fill="#ffffc0" stroke="black" stroke-width="1" stroke-opacity="1" x="389" y="423" width="83" height="23" />
	<text font-family="Helvetica" font-size="7" fill="#000000" xml:space="preserve" font-weight="bold" text-anchor="middle" x="431" y="431">MultimerMacromolecule</text>
	<line stroke="black" stroke-opacity="1" x1="389" y1="433" x2="472" y2="433" />
	<text font-family="Helvetica" font-size="7" fill="#000000" xml:space="preserve" x="391" y="441">cardinality</text>
	<line stroke="black" stroke-opacity="1" x1="389" y1="443" x2="472" y2="443" />
</g>
<g>
	<line stroke="black" stroke-opacity="1" x1="432" y1="422" x2="432" y2="394" />
	<line stroke="black" stroke-opacity="1" x1="433" y1="389" x2="426" y2="394" />
	<line stroke="black" stroke-opacity="1" x1="433" y1="389" x2="438" y2="395" />
	<line stroke="black" stroke-opacity="1" x1="426" y1="394" x2="438" y2="395" />
</g>
<g>
	<rect fill="#808080" stroke="none" stroke-opacity="1" x="361" y="365" width="2" height="16" />
	<rect fill="#808080" stroke="none" stroke-opacity="1" x="331" y="379" width="32" height="2" />
	<rect fill="#ffffc0" stroke="black" stroke-width="1" stroke-opacity="1" x="328" y="362" width="33" height="17" />
	<text font-family="Helvetica" font-size="7" fill="#000000" xml:space="preserve" font-weight="bold" text-anchor="middle" x="345" y="370">Complex</text>
	<line stroke="black" stroke-opacity="1" x1="328" y1="372" x2="361" y2="372" />
	<line stroke="black" stroke-opacity="1" x1="328" y1="376" x2="361" y2="376" />
</g>
<g>
	<line stroke="black" stroke-opacity="1" x1="346" y1="423" x2="346" y2="388" />
	<line stroke="black" stroke-opacity="1" x1="346" y1="382" x2="340" y2="388" />
	<line stroke="black" stroke-opacity="1" x1="346" y1="382" x2="352" y2="388" />
	<line stroke="black" stroke-opacity="1" x1="340" y1="388" x2="352" y2="388" />
</g>
</svg>
