<?xml version="1.0"?>
<!DOCTYPE svg PUBLIC "-//W3C//DTD SVG 1.1//EN" "http://www.w3.org/Graphics/SVG/1.1/DTD/svg11.dtd">
<svg xmlns="http://www.w3.org/2000/svg" xmlns:xl="http://www.w3.org/1999/xlink" version="1.1" viewBox="158 65 336 199" width="28pc" height="199pt"><metadata xmlns:dc="http://purl.org/dc/elements/1.1/"><dc:date>2008-07-17 04:37Z</dc:date><!-- Produced by OmniGraffle Professional 5.0 --></metadata><defs></defs><g stroke="none" stroke-opacity="1" stroke-dasharray="none" fill="none" fill-opacity="1"><title>Canvas 1</title><g><title>Layer 1</title><path d="M 173.00002 80.002235 L 173.00002 169.87724 L 173.125 169.87724 L 173.125 219.97723 C 173.125 235.80588 185.8714 248.55222 201.70001 248.55222 L 449.7 248.55222 C 465.52856 248.55222 478.27509 235.80588 478.27502 219.97723 L 478.27502 109.12729 C 478.27502 107.782196 478.17816 106.44684 478 105.1523 L 478 80.002235 L 173.00002 80.002235 Z" fill="white"/><path d="M 173.00002 80.002235 L 173.00002 169.87724 L 173.125 169.87724 L 173.125 219.97723 C 173.125 235.80588 185.8714 248.55222 201.70001 248.55222 L 449.7 248.55222 C 465.52856 248.55222 478.27509 235.80588 478.27502 219.97723 L 478.27502 109.12729 C 478.27502 107.782196 478.17816 106.44684 478 105.1523 L 478 80.002235 L 173.00002 80.002235 Z" stroke="black" stroke-linecap="butt" stroke-linejoin="miter" stroke-width="4"/><path d="M 260.08856 182.37567 L 260.08856 145.72565 L 264.93857 145.72565 L 264.93857 178.05069 L 282.98859 178.05069 L 282.98859 182.37567 L 260.08856 182.37567 Z" fill="black"/><path d="M 284.76361 182.37567 L 298.8386 145.72565 L 304.0636 145.72565 L 319.0636 182.37567 L 313.5386 182.37567 L 309.26361 171.27562 L 293.9386 171.27562 L 289.9136 182.37567 L 284.76361 182.37567 Z M 295.3386 167.32568 L 307.76361 167.32568 L 303.9386 157.175705 C 302.77191 154.09236 301.90524 151.55902 301.3386 149.5757 C 300.87192 151.92567 300.21356 154.25908 299.36359 156.57571 L 295.3386 167.32568 Z" fill="black"/><path d="M 322.78857 182.37567 L 322.78857 145.72565 L 336.53857 145.72565 C 339.33856 145.72572 341.58438 146.09656 343.27606 146.83818 C 344.96771 147.579865 346.29276 148.7216 347.25104 150.26321 C 348.20935 151.80489 348.68848 153.41736 348.68854 155.10066 C 348.68848 156.66736 348.26352 158.14233 347.41357 159.52568 C 346.56348 160.90901 345.28024 162.02574 343.56357 162.8757 C 345.78021 163.52574 347.48438 164.63408 348.67603 166.20071 C 349.8677 167.76733 350.46353 169.61736 350.46356 171.7507 C 350.46353 173.46733 350.10101 175.06319 349.37604 176.53816 C 348.651 178.01321 347.75522 179.15063 346.68854 179.95068 C 345.62183 180.75067 344.28436 181.35486 342.67606 181.76317 C 341.06772 182.17155 339.09686 182.37567 336.76358 182.37567 L 322.78857 182.37567 Z M 327.63858 161.12572 L 335.56357 161.12572 C 337.71356 161.12572 339.25519 160.98402 340.18857 160.7007 C 341.42188 160.33398 342.35107 159.72574 342.97607 158.8757 C 343.60101 158.02574 343.91351 156.959 343.91357 155.67569 C 343.91351 154.459015 343.62186 153.38821 343.03857 152.463165 C 342.4552 151.53819 341.62186 150.90486 340.53854 150.56317 C 339.45523 150.22154 337.59686 150.050705 334.96356 150.050705 L 327.63858 150.050705 L 327.63858 161.12572 Z M 327.63858 178.05069 L 336.76358 178.05069 C 338.33023 178.05069 339.4302 177.99231 340.06357 177.87572 C 341.1802 177.67564 342.11356 177.34235 342.86353 176.87567 C 343.61353 176.40898 344.23026 175.72986 344.71356 174.83817 C 345.19687 173.94653 345.43848 172.9174 345.43854 171.7507 C 345.43848 170.38406 345.0885 169.19653 344.38855 168.18816 C 343.6885 167.17986 342.71771 166.47151 341.47607 166.0632 C 340.23438 165.65489 338.44687 165.4507 336.11356 165.4507 L 327.63858 165.4507 L 327.63858 178.05069 Z" fill="black"/><path d="M 357.28867 182.37567 L 357.28867 145.72565 L 383.78864 145.72565 L 383.78864 150.050705 L 362.13864 150.050705 L 362.13864 161.27567 L 382.41367 161.27567 L 382.41367 165.5757 L 362.13864 165.5757 L 362.13864 178.05069 L 384.63864 178.05069 L 384.63864 182.37567 L 357.28867 182.37567 Z" fill="black"/><path d="M 391.1886 182.37567 L 391.1886 145.72565 L 396.03864 145.72565 L 396.03864 178.05069 L 414.08862 178.05069 L 414.08862 182.37567 L 391.1886 182.37567 Z" fill="black"/></g></g></svg>
