<?xml version="1.0" encoding="utf-8"?>
<!-- Generator: Adobe Illustrator 13.0.2, SVG Export Plug-In . SVG Version: 6.00 Build 14948)  -->
<!DOCTYPE svg PUBLIC "-//W3C//DTD SVG 1.1//EN" "http://www.w3.org/Graphics/SVG/1.1/DTD/svg11.dtd">
<svg version="1.1" id="Ebene_1" xmlns="http://www.w3.org/2000/svg" xmlns:xlink="http://www.w3.org/1999/xlink" x="0px" y="0px"
	 width="1175.043px" height="246.043px" viewBox="0 0 1175.043 246.043" enable-background="new 0 0 1175.043 246.043"
	 xml:space="preserve">
<rect x="392.021" y="1.021" fill="#FFFFFF" stroke="#000000" stroke-width="2.0425" width="391" height="244"/>
<rect x="1.021" y="1.021" fill="#FFFFFF" stroke="#000000" stroke-width="2.0425" width="391" height="244"/>
<text transform="matrix(0.9448 0 0 1 138.2654 228.1016)" font-family="'ArialMT'" font-size="27.2107">wrong</text>
<text transform="matrix(0.9448 0 0 1 557.2659 228.1016)" font-family="'ArialMT'" font-size="27.2107">correct</text>
<rect x="783.021" y="1.021" fill="#FFFFFF" stroke="#000000" stroke-width="2.0425" width="391" height="244"/>
<text transform="matrix(0.9448 0 0 1 976.762 228.0938)" font-family="'ArialMT'" font-size="27.2107">correct</text>
<path id="rect2304_2_" fill="#FFFFFF" stroke="#000000" stroke-width="2.0663" d="M940.782,81.403h124.978
	c7.845,0,14.202,6.798,14.202,15.186v61.108c0,8.388-6.357,15.187-14.202,15.187H940.782c-7.843,0-14.2-6.799-14.2-15.187V96.589
	C926.582,88.2,932.94,81.403,940.782,81.403z"/>
<path id="rect2304" fill="#FFFFFF" stroke="#000000" stroke-width="2.0663" d="M95.355,111.46l98.598-76.797
	c6.189-4.82,15.382-3.364,20.536,3.254l37.551,48.21c5.154,6.617,4.316,15.888-1.873,20.708l-98.598,76.797
	c-6.187,4.819-15.382,3.362-20.536-3.255l-37.55-48.21C88.328,125.55,89.169,116.279,95.355,111.46z"/>
<path id="rect2304_1_" fill="#FFFFFF" stroke="#000000" stroke-width="2.0663" d="M547.829,173.496l0.384-124.977
	c0.024-7.845,6.842-14.181,15.229-14.155l61.109,0.188c8.387,0.026,15.167,6.403,15.143,14.248l-0.383,124.977
	c-0.024,7.843-6.844,14.181-15.23,14.154l-61.108-0.188C554.583,187.718,547.805,181.338,547.829,173.496z"/>
</svg>
