<?xml version="1.0"?>
<!DOCTYPE svg PUBLIC "-//W3C//DTD SVG 1.1//EN" "http://www.w3.org/Graphics/SVG/1.1/DTD/svg11.dtd">
<svg xmlns="http://www.w3.org/2000/svg" xmlns:xl="http://www.w3.org/1999/xlink" version="1.1" viewBox="138 23 336 199" width="28pc" height="199pt"><metadata xmlns:dc="http://purl.org/dc/elements/1.1/"><dc:date>2008-07-17 04:29Z</dc:date><!-- Produced by OmniGraffle Professional 5.0 --></metadata><defs></defs><g stroke="none" stroke-opacity="1" stroke-dasharray="none" fill="none" fill-opacity="1"><title>Canvas 1</title><g><title>Layer 1</title><path d="M 182 38.51062 L 430 38.51062 C 445.82858 38.51062 458.57144 51.253418 458.57144 67.08201 L 458.57144 177.93924 C 458.57144 193.76765 445.82858 206.51062 430 206.51062 L 182 206.51062 C 166.17142 206.51062 153.42856 193.76765 153.42856 177.93924 L 153.42856 67.08201 C 153.42856 51.253418 166.17142 38.51062 182 38.51062 Z" fill="white"/><path d="M 182 38.51062 L 430 38.51062 C 445.82858 38.51062 458.57144 51.253418 458.57144 67.08201 L 458.57144 177.93924 C 458.57144 193.76765 445.82858 206.51062 430 206.51062 L 182 206.51062 C 166.17142 206.51062 153.42856 193.76765 153.42856 177.93924 L 153.42856 67.08201 C 153.42856 51.253418 166.17142 38.51062 182 38.51062 Z" stroke="black" stroke-linecap="butt" stroke-linejoin="miter" stroke-width="4"/><path d="M 231.46428 139.65344 L 231.46428 103.00342 L 236.31429 103.00342 L 236.31429 135.32832 L 254.36427 135.32832 L 254.36427 139.65344 L 231.46428 139.65344 Z" fill="black"/><path d="M 256.13931 139.65344 L 270.2143 103.00342 L 275.4393 103.00342 L 290.4393 139.65344 L 284.9143 139.65344 L 280.63931 128.55333 L 265.3143 128.55333 L 261.2893 139.65344 L 256.13931 139.65344 Z M 266.7143 124.60338 L 279.13931 124.60338 L 275.3143 114.45334 C 274.14761 111.370064 273.28094 108.8368 272.7143 106.8534 C 272.24762 109.20338 271.58926 111.53671 270.73929 113.85335 L 266.7143 124.60338 Z" fill="black"/><path d="M 294.1643 139.65344 L 294.1643 103.00342 L 307.9143 103.00342 C 310.7143 103.00342 312.96011 103.37426 314.6518 104.115807 C 316.34344 104.85749 317.66846 105.99924 318.6268 107.54084 C 319.58511 109.08258 320.06424 110.69507 320.0643 112.378365 C 320.06424 113.94506 319.63925 115.420044 318.7893 116.803314 C 317.93924 118.18672 316.65594 119.303444 314.9393 120.153404 C 317.15594 120.80345 318.8601 121.91171 320.05179 123.47834 C 321.24344 125.04504 321.83926 126.89499 321.8393 129.0284 C 321.83926 130.7451 321.47675 132.34088 320.7518 133.81587 C 320.02676 135.29085 319.13095 136.42833 318.0643 137.22839 C 316.99759 138.02844 315.6601 138.63255 314.05179 139.04086 C 312.44345 139.44919 310.4726 139.65344 308.13931 139.65344 L 294.1643 139.65344 Z M 299.01431 118.40342 L 306.9393 118.40342 C 309.0893 118.40342 310.63095 118.261726 311.5643 117.9784 C 312.7976 117.61169 313.7268 117.00338 314.3518 116.15341 C 314.97675 115.303444 315.28925 114.2367 315.2893 112.95332 C 315.28925 111.73664 314.99759 110.66585 314.4143 109.7408 C 313.83096 108.815895 312.99759 108.182564 311.9143 107.84094 C 310.83096 107.499245 308.9726 107.32833 306.3393 107.32833 L 299.01431 107.32833 L 299.01431 118.40342 Z M 299.01431 135.32832 L 308.13931 135.32832 C 309.70596 135.32832 310.80594 135.27002 311.4393 135.15341 C 312.55594 134.95335 313.48929 134.62012 314.23929 134.15344 C 314.98926 133.68675 315.60596 133.00757 316.0893 132.1158 C 316.5726 131.22423 316.81424 130.19504 316.8143 129.0284 C 316.81424 127.6617 316.46426 126.47423 315.76431 125.46593 C 315.06424 124.45749 314.09344 123.74922 312.8518 123.340904 C 311.6101 122.932594 309.8226 122.72833 307.48929 122.72833 L 299.01431 122.72833 L 299.01431 135.32832 Z" fill="black"/><path d="M 328.66437 139.65344 L 328.66437 103.00342 L 355.16434 103.00342 L 355.16434 107.32833 L 333.51434 107.32833 L 333.51434 118.5533 L 353.78937 118.5533 L 353.78937 122.85339 L 333.51434 122.85339 L 333.51434 135.32832 L 356.01434 135.32832 L 356.01434 139.65344 L 328.66437 139.65344 Z" fill="black"/><path d="M 362.5643 139.65344 L 362.5643 103.00342 L 367.41434 103.00342 L 367.41434 135.32832 L 385.46432 135.32832 L 385.46432 139.65344 L 362.5643 139.65344 Z" fill="black"/></g></g></svg>
